<?xml version="1.0" encoding="utf-8" standalone="no"?>
<!DOCTYPE svg PUBLIC "-//W3C//DTD SVG 1.1//EN"
  "http://www.w3.org/Graphics/SVG/1.1/DTD/svg11.dtd">
<!-- Created with matplotlib (https://matplotlib.org/) -->
<svg height="360pt" version="1.1" viewBox="0 0 576 360" width="576pt" xmlns="http://www.w3.org/2000/svg" xmlns:xlink="http://www.w3.org/1999/xlink">
 <metadata>
  <rdf:RDF xmlns:cc="http://creativecommons.org/ns#" xmlns:dc="http://purl.org/dc/elements/1.1/" xmlns:rdf="http://www.w3.org/1999/02/22-rdf-syntax-ns#">
   <cc:Work>
    <dc:type rdf:resource="http://purl.org/dc/dcmitype/StillImage"/>
    <dc:date>2022-10-06T19:22:48.799473</dc:date>
    <dc:format>image/svg+xml</dc:format>
    <dc:creator>
     <cc:Agent>
      <dc:title>Matplotlib v3.3.4, https://matplotlib.org/</dc:title>
     </cc:Agent>
    </dc:creator>
   </cc:Work>
  </rdf:RDF>
 </metadata>
 <defs>
  <style type="text/css">*{stroke-linecap:butt;stroke-linejoin:round;}</style>
 </defs>
 <g id="figure_1">
  <g id="patch_1">
   <path d="M 0 360 
L 576 360 
L 576 0 
L 0 0 
z
" style="fill:none;"/>
  </g>
  <g id="axes_1">
   <g id="patch_2">
    <path d="M 72 315 
L 518.4 315 
L 518.4 43.2 
L 72 43.2 
z
" style="fill:#ffffff;"/>
   </g>
   <g id="patch_3">
    <path clip-path="url(#pf7ba1ef6c6)" d="M 127.8 315 
L 239.4 315 
L 239.4 56.142857 
L 127.8 56.142857 
z
" style="opacity:0.3;"/>
   </g>
   <g id="patch_4">
    <path clip-path="url(#pf7ba1ef6c6)" d="M 127.8 315 
L 239.4 315 
L 239.4 114.313002 
L 127.8 114.313002 
z
" style="fill:#0000ff;opacity:0.3;"/>
   </g>
   <g id="patch_5">
    <path clip-path="url(#pf7ba1ef6c6)" d="M 351 315 
L 462.6 315 
L 462.6 256.829856 
L 351 256.829856 
z
" style="fill:#0000ff;opacity:0.3;"/>
   </g>
   <g id="patch_6">
    <path clip-path="url(#pf7ba1ef6c6)" d="M 127.8 315 
L 239.4 315 
L 239.4 96.861958 
L 127.8 96.861958 
z
" style="fill:#ffa500;opacity:0.3;"/>
   </g>
   <g id="patch_7">
    <path clip-path="url(#pf7ba1ef6c6)" d="M 351 315 
L 462.6 315 
L 462.6 274.280899 
L 351 274.280899 
z
" style="fill:#ffa500;opacity:0.3;"/>
   </g>
   <g id="matplotlib.axis_1">
    <g id="xtick_1">
     <g id="line2d_1">
      <defs>
       <path d="M 0 0 
L 0 3.5 
" id="m12c02bb152" style="stroke:#000000;stroke-width:0.8;"/>
      </defs>
      <g>
       <use style="stroke:#000000;stroke-width:0.8;" x="183.6" xlink:href="#m12c02bb152" y="315"/>
      </g>
     </g>
     <g id="text_1">
      <text style="font-family:DejaVu Sans;font-size:10px;font-stretch:normal;font-style:normal;font-weight:normal;" transform="translate(186.359375 347.107813)rotate(-90)">False</text>
     </g>
    </g>
    <g id="xtick_2">
     <g id="line2d_2">
      <g>
       <use style="stroke:#000000;stroke-width:0.8;" x="406.8" xlink:href="#m12c02bb152" y="315"/>
      </g>
     </g>
     <g id="text_2">
      <text style="font-family:DejaVu Sans;font-size:10px;font-stretch:normal;font-style:normal;font-weight:normal;" transform="translate(409.559375 343.234375)rotate(-90)">True</text>
     </g>
    </g>
   </g>
   <g id="matplotlib.axis_2">
    <g id="ytick_1">
     <g id="line2d_3">
      <defs>
       <path d="M 0 0 
L -3.5 0 
" id="m84dad20e9f" style="stroke:#000000;stroke-width:0.8;"/>
      </defs>
      <g>
       <use style="stroke:#000000;stroke-width:0.8;" x="72" xlink:href="#m84dad20e9f" y="315"/>
      </g>
     </g>
     <g id="text_3">
      <text style="font-family:DejaVu Sans;font-size:10px;font-stretch:normal;font-style:normal;font-weight:normal;text-anchor:end;" transform="rotate(-0, 65, 318.799219)" x="65" y="318.799219">0</text>
     </g>
    </g>
    <g id="ytick_2">
     <g id="line2d_4">
      <g>
       <use style="stroke:#000000;stroke-width:0.8;" x="72" xlink:href="#m84dad20e9f" y="256.829856"/>
      </g>
     </g>
     <g id="text_4">
      <text style="font-family:DejaVu Sans;font-size:10px;font-stretch:normal;font-style:normal;font-weight:normal;text-anchor:end;" transform="rotate(-0, 65, 260.629074)" x="65" y="260.629074">20</text>
     </g>
    </g>
    <g id="ytick_3">
     <g id="line2d_5">
      <g>
       <use style="stroke:#000000;stroke-width:0.8;" x="72" xlink:href="#m84dad20e9f" y="198.659711"/>
      </g>
     </g>
     <g id="text_5">
      <text style="font-family:DejaVu Sans;font-size:10px;font-stretch:normal;font-style:normal;font-weight:normal;text-anchor:end;" transform="rotate(-0, 65, 202.45893)" x="65" y="202.45893">40</text>
     </g>
    </g>
    <g id="ytick_4">
     <g id="line2d_6">
      <g>
       <use style="stroke:#000000;stroke-width:0.8;" x="72" xlink:href="#m84dad20e9f" y="140.489567"/>
      </g>
     </g>
     <g id="text_6">
      <text style="font-family:DejaVu Sans;font-size:10px;font-stretch:normal;font-style:normal;font-weight:normal;text-anchor:end;" transform="rotate(-0, 65, 144.288785)" x="65" y="144.288785">60</text>
     </g>
    </g>
    <g id="ytick_5">
     <g id="line2d_7">
      <g>
       <use style="stroke:#000000;stroke-width:0.8;" x="72" xlink:href="#m84dad20e9f" y="82.319422"/>
      </g>
     </g>
     <g id="text_7">
      <text style="font-family:DejaVu Sans;font-size:10px;font-stretch:normal;font-style:normal;font-weight:normal;text-anchor:end;" transform="rotate(-0, 65, 86.118641)" x="65" y="86.118641">80</text>
     </g>
    </g>
   </g>
   <g id="patch_8">
    <path d="M 72 315 
L 72 43.2 
" style="fill:none;stroke:#000000;stroke-linecap:square;stroke-linejoin:miter;stroke-width:0.8;"/>
   </g>
   <g id="patch_9">
    <path d="M 518.4 315 
L 518.4 43.2 
" style="fill:none;stroke:#000000;stroke-linecap:square;stroke-linejoin:miter;stroke-width:0.8;"/>
   </g>
   <g id="patch_10">
    <path d="M 72 315 
L 518.4 315 
" style="fill:none;stroke:#000000;stroke-linecap:square;stroke-linejoin:miter;stroke-width:0.8;"/>
   </g>
   <g id="patch_11">
    <path d="M 72 43.2 
L 518.4 43.2 
" style="fill:none;stroke:#000000;stroke-linecap:square;stroke-linejoin:miter;stroke-width:0.8;"/>
   </g>
   <g id="legend_1">
    <g id="patch_12">
     <path d="M 415.14375 95.790625 
L 511.4 95.790625 
Q 513.4 95.790625 513.4 93.790625 
L 513.4 50.2 
Q 513.4 48.2 511.4 48.2 
L 415.14375 48.2 
Q 413.14375 48.2 413.14375 50.2 
L 413.14375 93.790625 
Q 413.14375 95.790625 415.14375 95.790625 
z
" style="fill:#ffffff;opacity:0.8;stroke:#cccccc;stroke-linejoin:miter;"/>
    </g>
    <g id="patch_13">
     <path d="M 417.14375 59.798437 
L 437.14375 59.798437 
L 437.14375 52.798437 
L 417.14375 52.798437 
z
" style="opacity:0.3;"/>
    </g>
    <g id="text_8">
     <text style="font-family:DejaVu Sans;font-size:10px;font-stretch:normal;font-style:normal;font-weight:normal;text-anchor:start;" transform="rotate(-0, 445.14375, 59.798437)" x="445.14375" y="59.798437">FS_essential</text>
    </g>
    <g id="patch_14">
     <path d="M 417.14375 74.754687 
L 437.14375 74.754687 
L 437.14375 67.754687 
L 417.14375 67.754687 
z
" style="fill:#0000ff;opacity:0.3;"/>
    </g>
    <g id="text_9">
     <text style="font-family:DejaVu Sans;font-size:10px;font-stretch:normal;font-style:normal;font-weight:normal;text-anchor:start;" transform="rotate(-0, 445.14375, 74.754687)" x="445.14375" y="74.754687">VG_essential</text>
    </g>
    <g id="patch_15">
     <path d="M 417.14375 89.710938 
L 437.14375 89.710938 
L 437.14375 82.710938 
L 417.14375 82.710938 
z
" style="fill:#ffa500;opacity:0.3;"/>
    </g>
    <g id="text_10">
     <text style="font-family:DejaVu Sans;font-size:10px;font-stretch:normal;font-style:normal;font-weight:normal;text-anchor:start;" transform="rotate(-0, 445.14375, 89.710938)" x="445.14375" y="89.710938">active</text>
    </g>
   </g>
  </g>
 </g>
 <defs>
  <clipPath id="pf7ba1ef6c6">
   <rect height="271.8" width="446.4" x="72" y="43.2"/>
  </clipPath>
 </defs>
</svg>
