<?xml version="1.0" encoding="utf-8" standalone="no"?>
<!DOCTYPE svg PUBLIC "-//W3C//DTD SVG 1.1//EN"
  "http://www.w3.org/Graphics/SVG/1.1/DTD/svg11.dtd">
<!-- Created with matplotlib (https://matplotlib.org/) -->
<svg height="288pt" version="1.1" viewBox="0 0 864 288" width="864pt" xmlns="http://www.w3.org/2000/svg" xmlns:xlink="http://www.w3.org/1999/xlink">
 <metadata>
  <rdf:RDF xmlns:cc="http://creativecommons.org/ns#" xmlns:dc="http://purl.org/dc/elements/1.1/" xmlns:rdf="http://www.w3.org/1999/02/22-rdf-syntax-ns#">
   <cc:Work>
    <dc:type rdf:resource="http://purl.org/dc/dcmitype/StillImage"/>
    <dc:date>2022-02-24T09:25:45.217340</dc:date>
    <dc:format>image/svg+xml</dc:format>
    <dc:creator>
     <cc:Agent>
      <dc:title>Matplotlib v3.3.4, https://matplotlib.org/</dc:title>
     </cc:Agent>
    </dc:creator>
   </cc:Work>
  </rdf:RDF>
 </metadata>
 <defs>
  <style type="text/css">*{stroke-linecap:butt;stroke-linejoin:round;}</style>
 </defs>
 <g id="figure_1">
  <g id="patch_1">
   <path d="M 0 288 
L 864 288 
L 864 0 
L 0 0 
z
" style="fill:none;"/>
  </g>
  <g id="axes_1">
   <g id="patch_2">
    <path d="M 39.925 211.825 
L 853.061161 211.825 
L 853.061161 11.659216 
L 39.925 11.659216 
z
" style="fill:#ffffff;"/>
   </g>
   <g id="patch_3">
    <path clip-path="url(#pef50b794aa)" d="M 43.151731 211.825 
L 49.605192 211.825 
L 49.605192 211.825 
L 43.151731 211.825 
z
" style="fill:#1f77b4;"/>
   </g>
   <g id="patch_4">
    <path clip-path="url(#pef50b794aa)" d="M 56.058654 211.825 
L 62.512116 211.825 
L 62.512116 211.825 
L 56.058654 211.825 
z
" style="fill:#1f77b4;"/>
   </g>
   <g id="patch_5">
    <path clip-path="url(#pef50b794aa)" d="M 68.965577 211.825 
L 75.419039 211.825 
L 75.419039 211.825 
L 68.965577 211.825 
z
" style="fill:#1f77b4;"/>
   </g>
   <g id="patch_6">
    <path clip-path="url(#pef50b794aa)" d="M 81.8725 211.825 
L 88.325962 211.825 
L 88.325962 211.825 
L 81.8725 211.825 
z
" style="fill:#1f77b4;"/>
   </g>
   <g id="patch_7">
    <path clip-path="url(#pef50b794aa)" d="M 94.779424 211.825 
L 101.232885 211.825 
L 101.232885 211.825 
L 94.779424 211.825 
z
" style="fill:#1f77b4;"/>
   </g>
   <g id="patch_8">
    <path clip-path="url(#pef50b794aa)" d="M 107.686347 211.825 
L 114.139808 211.825 
L 114.139808 211.825 
L 107.686347 211.825 
z
" style="fill:#1f77b4;"/>
   </g>
   <g id="patch_9">
    <path clip-path="url(#pef50b794aa)" d="M 120.59327 211.825 
L 127.046732 211.825 
L 127.046732 211.825 
L 120.59327 211.825 
z
" style="fill:#1f77b4;"/>
   </g>
   <g id="patch_10">
    <path clip-path="url(#pef50b794aa)" d="M 133.500193 211.825 
L 139.953655 211.825 
L 139.953655 211.825 
L 133.500193 211.825 
z
" style="fill:#1f77b4;"/>
   </g>
   <g id="patch_11">
    <path clip-path="url(#pef50b794aa)" d="M 146.407116 211.825 
L 152.860578 211.825 
L 152.860578 211.825 
L 146.407116 211.825 
z
" style="fill:#1f77b4;"/>
   </g>
   <g id="patch_12">
    <path clip-path="url(#pef50b794aa)" d="M 159.314039 211.825 
L 165.767501 211.825 
L 165.767501 211.825 
L 159.314039 211.825 
z
" style="fill:#1f77b4;"/>
   </g>
   <g id="patch_13">
    <path clip-path="url(#pef50b794aa)" d="M 172.220963 211.825 
L 178.674424 211.825 
L 178.674424 211.825 
L 172.220963 211.825 
z
" style="fill:#1f77b4;"/>
   </g>
   <g id="patch_14">
    <path clip-path="url(#pef50b794aa)" d="M 185.127886 211.825 
L 191.581347 211.825 
L 191.581347 211.825 
L 185.127886 211.825 
z
" style="fill:#1f77b4;"/>
   </g>
   <g id="patch_15">
    <path clip-path="url(#pef50b794aa)" d="M 198.034809 211.825 
L 204.488271 211.825 
L 204.488271 211.825 
L 198.034809 211.825 
z
" style="fill:#1f77b4;"/>
   </g>
   <g id="patch_16">
    <path clip-path="url(#pef50b794aa)" d="M 210.941732 211.825 
L 217.395194 211.825 
L 217.395194 211.825 
L 210.941732 211.825 
z
" style="fill:#1f77b4;"/>
   </g>
   <g id="patch_17">
    <path clip-path="url(#pef50b794aa)" d="M 223.848655 211.825 
L 230.302117 211.825 
L 230.302117 211.825 
L 223.848655 211.825 
z
" style="fill:#1f77b4;"/>
   </g>
   <g id="patch_18">
    <path clip-path="url(#pef50b794aa)" d="M 236.755579 211.825 
L 243.20904 211.825 
L 243.20904 211.825 
L 236.755579 211.825 
z
" style="fill:#1f77b4;"/>
   </g>
   <g id="patch_19">
    <path clip-path="url(#pef50b794aa)" d="M 249.662502 211.825 
L 256.115963 211.825 
L 256.115963 211.825 
L 249.662502 211.825 
z
" style="fill:#1f77b4;"/>
   </g>
   <g id="patch_20">
    <path clip-path="url(#pef50b794aa)" d="M 262.569425 211.825 
L 269.022887 211.825 
L 269.022887 211.825 
L 262.569425 211.825 
z
" style="fill:#1f77b4;"/>
   </g>
   <g id="patch_21">
    <path clip-path="url(#pef50b794aa)" d="M 275.476348 211.825 
L 281.92981 211.825 
L 281.92981 211.825 
L 275.476348 211.825 
z
" style="fill:#1f77b4;"/>
   </g>
   <g id="patch_22">
    <path clip-path="url(#pef50b794aa)" d="M 288.383271 211.825 
L 294.836733 211.825 
L 294.836733 211.825 
L 288.383271 211.825 
z
" style="fill:#1f77b4;"/>
   </g>
   <g id="patch_23">
    <path clip-path="url(#pef50b794aa)" d="M 301.290195 211.825 
L 307.743656 211.825 
L 307.743656 211.825 
L 301.290195 211.825 
z
" style="fill:#1f77b4;"/>
   </g>
   <g id="patch_24">
    <path clip-path="url(#pef50b794aa)" d="M 314.197118 211.825 
L 320.650579 211.825 
L 320.650579 211.825 
L 314.197118 211.825 
z
" style="fill:#1f77b4;"/>
   </g>
   <g id="patch_25">
    <path clip-path="url(#pef50b794aa)" d="M 327.104041 211.825 
L 333.557502 211.825 
L 333.557502 211.825 
L 327.104041 211.825 
z
" style="fill:#1f77b4;"/>
   </g>
   <g id="patch_26">
    <path clip-path="url(#pef50b794aa)" d="M 340.010964 211.825 
L 346.464426 211.825 
L 346.464426 211.825 
L 340.010964 211.825 
z
" style="fill:#1f77b4;"/>
   </g>
   <g id="patch_27">
    <path clip-path="url(#pef50b794aa)" d="M 352.917887 211.825 
L 359.371349 211.825 
L 359.371349 211.825 
L 352.917887 211.825 
z
" style="fill:#1f77b4;"/>
   </g>
   <g id="patch_28">
    <path clip-path="url(#pef50b794aa)" d="M 365.82481 211.825 
L 372.278272 211.825 
L 372.278272 211.825 
L 365.82481 211.825 
z
" style="fill:#1f77b4;"/>
   </g>
   <g id="patch_29">
    <path clip-path="url(#pef50b794aa)" d="M 378.731734 211.825 
L 385.185195 211.825 
L 385.185195 21.762853 
L 378.731734 21.762853 
z
" style="fill:#1f77b4;"/>
   </g>
   <g id="patch_30">
    <path clip-path="url(#pef50b794aa)" d="M 391.638657 211.825 
L 398.092118 211.825 
L 398.092118 21.725226 
L 391.638657 21.725226 
z
" style="fill:#1f77b4;"/>
   </g>
   <g id="patch_31">
    <path clip-path="url(#pef50b794aa)" d="M 404.54558 211.825 
L 410.999042 211.825 
L 410.999042 21.682581 
L 404.54558 21.682581 
z
" style="fill:#1f77b4;"/>
   </g>
   <g id="patch_32">
    <path clip-path="url(#pef50b794aa)" d="M 417.452503 211.825 
L 423.905965 211.825 
L 423.905965 21.667531 
L 417.452503 21.667531 
z
" style="fill:#1f77b4;"/>
   </g>
   <g id="patch_33">
    <path clip-path="url(#pef50b794aa)" d="M 430.359426 211.825 
L 436.812888 211.825 
L 436.812888 21.665022 
L 430.359426 21.665022 
z
" style="fill:#1f77b4;"/>
   </g>
   <g id="patch_34">
    <path clip-path="url(#pef50b794aa)" d="M 443.26635 211.825 
L 449.719811 211.825 
L 449.719811 21.649971 
L 443.26635 21.649971 
z
" style="fill:#1f77b4;"/>
   </g>
   <g id="patch_35">
    <path clip-path="url(#pef50b794aa)" d="M 456.173273 211.825 
L 462.626734 211.825 
L 462.626734 21.607327 
L 456.173273 21.607327 
z
" style="fill:#1f77b4;"/>
   </g>
   <g id="patch_36">
    <path clip-path="url(#pef50b794aa)" d="M 469.080196 211.825 
L 475.533658 211.825 
L 475.533658 21.5697 
L 469.080196 21.5697 
z
" style="fill:#1f77b4;"/>
   </g>
   <g id="patch_37">
    <path clip-path="url(#pef50b794aa)" d="M 481.987119 211.825 
L 488.440581 211.825 
L 488.440581 21.223531 
L 481.987119 21.223531 
z
" style="fill:#1f77b4;"/>
   </g>
   <g id="patch_38">
    <path clip-path="url(#pef50b794aa)" d="M 494.894042 211.825 
L 501.347504 211.825 
L 501.347504 21.218514 
L 494.894042 21.218514 
z
" style="fill:#1f77b4;"/>
   </g>
   <g id="patch_39">
    <path clip-path="url(#pef50b794aa)" d="M 507.800965 211.825 
L 514.254427 211.825 
L 514.254427 21.218514 
L 507.800965 21.218514 
z
" style="fill:#1f77b4;"/>
   </g>
   <g id="patch_40">
    <path clip-path="url(#pef50b794aa)" d="M 520.707889 211.825 
L 527.16135 211.825 
L 527.16135 21.213497 
L 520.707889 21.213497 
z
" style="fill:#1f77b4;"/>
   </g>
   <g id="patch_41">
    <path clip-path="url(#pef50b794aa)" d="M 533.614812 211.825 
L 540.068273 211.825 
L 540.068273 21.213497 
L 533.614812 21.213497 
z
" style="fill:#1f77b4;"/>
   </g>
   <g id="patch_42">
    <path clip-path="url(#pef50b794aa)" d="M 546.521735 211.825 
L 552.975197 211.825 
L 552.975197 21.193429 
L 546.521735 21.193429 
z
" style="fill:#1f77b4;"/>
   </g>
   <g id="patch_43">
    <path clip-path="url(#pef50b794aa)" d="M 559.428658 211.825 
L 565.88212 211.825 
L 565.88212 21.193429 
L 559.428658 21.193429 
z
" style="fill:#1f77b4;"/>
   </g>
   <g id="patch_44">
    <path clip-path="url(#pef50b794aa)" d="M 572.335581 211.825 
L 578.789043 211.825 
L 578.789043 21.193429 
L 572.335581 21.193429 
z
" style="fill:#1f77b4;"/>
   </g>
   <g id="patch_45">
    <path clip-path="url(#pef50b794aa)" d="M 585.242505 211.825 
L 591.695966 211.825 
L 591.695966 21.193429 
L 585.242505 21.193429 
z
" style="fill:#1f77b4;"/>
   </g>
   <g id="patch_46">
    <path clip-path="url(#pef50b794aa)" d="M 598.149428 211.825 
L 604.602889 211.825 
L 604.602889 21.193429 
L 598.149428 21.193429 
z
" style="fill:#1f77b4;"/>
   </g>
   <g id="patch_47">
    <path clip-path="url(#pef50b794aa)" d="M 611.056351 211.825 
L 617.509813 211.825 
L 617.509813 21.193429 
L 611.056351 21.193429 
z
" style="fill:#1f77b4;"/>
   </g>
   <g id="patch_48">
    <path clip-path="url(#pef50b794aa)" d="M 623.963274 211.825 
L 630.416736 211.825 
L 630.416736 21.193429 
L 623.963274 21.193429 
z
" style="fill:#1f77b4;"/>
   </g>
   <g id="patch_49">
    <path clip-path="url(#pef50b794aa)" d="M 636.870197 211.825 
L 643.323659 211.825 
L 643.323659 21.193429 
L 636.870197 21.193429 
z
" style="fill:#1f77b4;"/>
   </g>
   <g id="patch_50">
    <path clip-path="url(#pef50b794aa)" d="M 649.777121 211.825 
L 656.230582 211.825 
L 656.230582 21.193429 
L 649.777121 21.193429 
z
" style="fill:#1f77b4;"/>
   </g>
   <g id="patch_51">
    <path clip-path="url(#pef50b794aa)" d="M 662.684044 211.825 
L 669.137505 211.825 
L 669.137505 21.193429 
L 662.684044 21.193429 
z
" style="fill:#1f77b4;"/>
   </g>
   <g id="patch_52">
    <path clip-path="url(#pef50b794aa)" d="M 675.590967 211.825 
L 682.044429 211.825 
L 682.044429 21.193429 
L 675.590967 21.193429 
z
" style="fill:#1f77b4;"/>
   </g>
   <g id="patch_53">
    <path clip-path="url(#pef50b794aa)" d="M 688.49789 211.825 
L 694.951352 211.825 
L 694.951352 21.193429 
L 688.49789 21.193429 
z
" style="fill:#1f77b4;"/>
   </g>
   <g id="patch_54">
    <path clip-path="url(#pef50b794aa)" d="M 701.404813 211.825 
L 707.858275 211.825 
L 707.858275 21.193429 
L 701.404813 21.193429 
z
" style="fill:#1f77b4;"/>
   </g>
   <g id="patch_55">
    <path clip-path="url(#pef50b794aa)" d="M 714.311736 211.825 
L 720.765198 211.825 
L 720.765198 21.193429 
L 714.311736 21.193429 
z
" style="fill:#1f77b4;"/>
   </g>
   <g id="patch_56">
    <path clip-path="url(#pef50b794aa)" d="M 727.21866 211.825 
L 733.672121 211.825 
L 733.672121 21.193429 
L 727.21866 21.193429 
z
" style="fill:#1f77b4;"/>
   </g>
   <g id="patch_57">
    <path clip-path="url(#pef50b794aa)" d="M 740.125583 211.825 
L 746.579044 211.825 
L 746.579044 21.193429 
L 740.125583 21.193429 
z
" style="fill:#1f77b4;"/>
   </g>
   <g id="patch_58">
    <path clip-path="url(#pef50b794aa)" d="M 753.032506 211.825 
L 759.485968 211.825 
L 759.485968 21.193429 
L 753.032506 21.193429 
z
" style="fill:#1f77b4;"/>
   </g>
   <g id="patch_59">
    <path clip-path="url(#pef50b794aa)" d="M 765.939429 211.825 
L 772.392891 211.825 
L 772.392891 21.193429 
L 765.939429 21.193429 
z
" style="fill:#1f77b4;"/>
   </g>
   <g id="patch_60">
    <path clip-path="url(#pef50b794aa)" d="M 778.846352 211.825 
L 785.299814 211.825 
L 785.299814 21.193429 
L 778.846352 21.193429 
z
" style="fill:#1f77b4;"/>
   </g>
   <g id="patch_61">
    <path clip-path="url(#pef50b794aa)" d="M 791.753276 211.825 
L 798.206737 211.825 
L 798.206737 21.193429 
L 791.753276 21.193429 
z
" style="fill:#1f77b4;"/>
   </g>
   <g id="patch_62">
    <path clip-path="url(#pef50b794aa)" d="M 804.660199 211.825 
L 811.11366 211.825 
L 811.11366 21.19092 
L 804.660199 21.19092 
z
" style="fill:#1f77b4;"/>
   </g>
   <g id="patch_63">
    <path clip-path="url(#pef50b794aa)" d="M 817.567122 211.825 
L 824.020584 211.825 
L 824.020584 21.19092 
L 817.567122 21.19092 
z
" style="fill:#1f77b4;"/>
   </g>
   <g id="patch_64">
    <path clip-path="url(#pef50b794aa)" d="M 830.474045 211.825 
L 836.927507 211.825 
L 836.927507 21.19092 
L 830.474045 21.19092 
z
" style="fill:#1f77b4;"/>
   </g>
   <g id="patch_65">
    <path clip-path="url(#pef50b794aa)" d="M 843.380968 211.825 
L 849.83443 211.825 
L 849.83443 21.19092 
L 843.380968 21.19092 
z
" style="fill:#1f77b4;"/>
   </g>
   <g id="matplotlib.axis_1">
    <g id="xtick_1">
     <g id="line2d_1">
      <defs>
       <path d="M 0 0 
L 0 3.5 
" id="m970d26a24e" style="stroke:#000000;stroke-width:0.8;"/>
      </defs>
      <g>
       <use style="stroke:#000000;stroke-width:0.8;" x="46.378462" xlink:href="#m970d26a24e" y="211.825"/>
      </g>
     </g>
     <g id="text_1">
      <!-- arg__L_s -->
      <g transform="translate(48.859712 261.01875)rotate(-90)scale(0.1 -0.1)">
       <defs>
        <path d="M 34.28125 27.484375 
Q 23.390625 27.484375 19.1875 25 
Q 14.984375 22.515625 14.984375 16.5 
Q 14.984375 11.71875 18.140625 8.90625 
Q 21.296875 6.109375 26.703125 6.109375 
Q 34.1875 6.109375 38.703125 11.40625 
Q 43.21875 16.703125 43.21875 25.484375 
L 43.21875 27.484375 
z
M 52.203125 31.203125 
L 52.203125 0 
L 43.21875 0 
L 43.21875 8.296875 
Q 40.140625 3.328125 35.546875 0.953125 
Q 30.953125 -1.421875 24.3125 -1.421875 
Q 15.921875 -1.421875 10.953125 3.296875 
Q 6 8.015625 6 15.921875 
Q 6 25.140625 12.171875 29.828125 
Q 18.359375 34.515625 30.609375 34.515625 
L 43.21875 34.515625 
L 43.21875 35.40625 
Q 43.21875 41.609375 39.140625 45 
Q 35.0625 48.390625 27.6875 48.390625 
Q 23 48.390625 18.546875 47.265625 
Q 14.109375 46.140625 10.015625 43.890625 
L 10.015625 52.203125 
Q 14.9375 54.109375 19.578125 55.046875 
Q 24.21875 56 28.609375 56 
Q 40.484375 56 46.34375 49.84375 
Q 52.203125 43.703125 52.203125 31.203125 
z
" id="DejaVuSans-97"/>
        <path d="M 41.109375 46.296875 
Q 39.59375 47.171875 37.8125 47.578125 
Q 36.03125 48 33.890625 48 
Q 26.265625 48 22.1875 43.046875 
Q 18.109375 38.09375 18.109375 28.8125 
L 18.109375 0 
L 9.078125 0 
L 9.078125 54.6875 
L 18.109375 54.6875 
L 18.109375 46.1875 
Q 20.953125 51.171875 25.484375 53.578125 
Q 30.03125 56 36.53125 56 
Q 37.453125 56 38.578125 55.875 
Q 39.703125 55.765625 41.0625 55.515625 
z
" id="DejaVuSans-114"/>
        <path d="M 45.40625 27.984375 
Q 45.40625 37.75 41.375 43.109375 
Q 37.359375 48.484375 30.078125 48.484375 
Q 22.859375 48.484375 18.828125 43.109375 
Q 14.796875 37.75 14.796875 27.984375 
Q 14.796875 18.265625 18.828125 12.890625 
Q 22.859375 7.515625 30.078125 7.515625 
Q 37.359375 7.515625 41.375 12.890625 
Q 45.40625 18.265625 45.40625 27.984375 
z
M 54.390625 6.78125 
Q 54.390625 -7.171875 48.1875 -13.984375 
Q 42 -20.796875 29.203125 -20.796875 
Q 24.46875 -20.796875 20.265625 -20.09375 
Q 16.0625 -19.390625 12.109375 -17.921875 
L 12.109375 -9.1875 
Q 16.0625 -11.328125 19.921875 -12.34375 
Q 23.78125 -13.375 27.78125 -13.375 
Q 36.625 -13.375 41.015625 -8.765625 
Q 45.40625 -4.15625 45.40625 5.171875 
L 45.40625 9.625 
Q 42.625 4.78125 38.28125 2.390625 
Q 33.9375 0 27.875 0 
Q 17.828125 0 11.671875 7.65625 
Q 5.515625 15.328125 5.515625 27.984375 
Q 5.515625 40.671875 11.671875 48.328125 
Q 17.828125 56 27.875 56 
Q 33.9375 56 38.28125 53.609375 
Q 42.625 51.21875 45.40625 46.390625 
L 45.40625 54.6875 
L 54.390625 54.6875 
z
" id="DejaVuSans-103"/>
        <path d="M 50.984375 -16.609375 
L 50.984375 -23.578125 
L -0.984375 -23.578125 
L -0.984375 -16.609375 
z
" id="DejaVuSans-95"/>
        <path d="M 9.8125 72.90625 
L 19.671875 72.90625 
L 19.671875 8.296875 
L 55.171875 8.296875 
L 55.171875 0 
L 9.8125 0 
z
" id="DejaVuSans-76"/>
        <path d="M 44.28125 53.078125 
L 44.28125 44.578125 
Q 40.484375 46.53125 36.375 47.5 
Q 32.28125 48.484375 27.875 48.484375 
Q 21.1875 48.484375 17.84375 46.4375 
Q 14.5 44.390625 14.5 40.28125 
Q 14.5 37.15625 16.890625 35.375 
Q 19.28125 33.59375 26.515625 31.984375 
L 29.59375 31.296875 
Q 39.15625 29.25 43.1875 25.515625 
Q 47.21875 21.78125 47.21875 15.09375 
Q 47.21875 7.46875 41.1875 3.015625 
Q 35.15625 -1.421875 24.609375 -1.421875 
Q 20.21875 -1.421875 15.453125 -0.5625 
Q 10.6875 0.296875 5.421875 2 
L 5.421875 11.28125 
Q 10.40625 8.6875 15.234375 7.390625 
Q 20.0625 6.109375 24.8125 6.109375 
Q 31.15625 6.109375 34.5625 8.28125 
Q 37.984375 10.453125 37.984375 14.40625 
Q 37.984375 18.0625 35.515625 20.015625 
Q 33.0625 21.96875 24.703125 23.78125 
L 21.578125 24.515625 
Q 13.234375 26.265625 9.515625 29.90625 
Q 5.8125 33.546875 5.8125 39.890625 
Q 5.8125 47.609375 11.28125 51.796875 
Q 16.75 56 26.8125 56 
Q 31.78125 56 36.171875 55.265625 
Q 40.578125 54.546875 44.28125 53.078125 
z
" id="DejaVuSans-115"/>
       </defs>
       <use xlink:href="#DejaVuSans-97"/>
       <use x="61.279297" xlink:href="#DejaVuSans-114"/>
       <use x="100.642578" xlink:href="#DejaVuSans-103"/>
       <use x="164.119141" xlink:href="#DejaVuSans-95"/>
       <use x="214.119141" xlink:href="#DejaVuSans-95"/>
       <use x="264.119141" xlink:href="#DejaVuSans-76"/>
       <use x="319.832031" xlink:href="#DejaVuSans-95"/>
       <use x="369.832031" xlink:href="#DejaVuSans-115"/>
      </g>
     </g>
    </g>
    <g id="xtick_2">
     <g id="line2d_2">
      <g>
       <use style="stroke:#000000;stroke-width:0.8;" x="59.285385" xlink:href="#m970d26a24e" y="211.825"/>
      </g>
     </g>
     <g id="text_2">
      <!-- zn2_s -->
      <g transform="translate(61.817416 246.982813)rotate(-90)scale(0.1 -0.1)">
       <defs>
        <path d="M 5.515625 54.6875 
L 48.1875 54.6875 
L 48.1875 46.484375 
L 14.40625 7.171875 
L 48.1875 7.171875 
L 48.1875 0 
L 4.296875 0 
L 4.296875 8.203125 
L 38.09375 47.515625 
L 5.515625 47.515625 
z
" id="DejaVuSans-122"/>
        <path d="M 54.890625 33.015625 
L 54.890625 0 
L 45.90625 0 
L 45.90625 32.71875 
Q 45.90625 40.484375 42.875 44.328125 
Q 39.84375 48.1875 33.796875 48.1875 
Q 26.515625 48.1875 22.3125 43.546875 
Q 18.109375 38.921875 18.109375 30.90625 
L 18.109375 0 
L 9.078125 0 
L 9.078125 54.6875 
L 18.109375 54.6875 
L 18.109375 46.1875 
Q 21.34375 51.125 25.703125 53.5625 
Q 30.078125 56 35.796875 56 
Q 45.21875 56 50.046875 50.171875 
Q 54.890625 44.34375 54.890625 33.015625 
z
" id="DejaVuSans-110"/>
        <path d="M 19.1875 8.296875 
L 53.609375 8.296875 
L 53.609375 0 
L 7.328125 0 
L 7.328125 8.296875 
Q 12.9375 14.109375 22.625 23.890625 
Q 32.328125 33.6875 34.8125 36.53125 
Q 39.546875 41.84375 41.421875 45.53125 
Q 43.3125 49.21875 43.3125 52.78125 
Q 43.3125 58.59375 39.234375 62.25 
Q 35.15625 65.921875 28.609375 65.921875 
Q 23.96875 65.921875 18.8125 64.3125 
Q 13.671875 62.703125 7.8125 59.421875 
L 7.8125 69.390625 
Q 13.765625 71.78125 18.9375 73 
Q 24.125 74.21875 28.421875 74.21875 
Q 39.75 74.21875 46.484375 68.546875 
Q 53.21875 62.890625 53.21875 53.421875 
Q 53.21875 48.921875 51.53125 44.890625 
Q 49.859375 40.875 45.40625 35.40625 
Q 44.1875 33.984375 37.640625 27.21875 
Q 31.109375 20.453125 19.1875 8.296875 
z
" id="DejaVuSans-50"/>
       </defs>
       <use xlink:href="#DejaVuSans-122"/>
       <use x="52.490234" xlink:href="#DejaVuSans-110"/>
       <use x="115.869141" xlink:href="#DejaVuSans-50"/>
       <use x="179.492188" xlink:href="#DejaVuSans-95"/>
       <use x="229.492188" xlink:href="#DejaVuSans-115"/>
      </g>
     </g>
    </g>
    <g id="xtick_3">
     <g id="line2d_3">
      <g>
       <use style="stroke:#000000;stroke-width:0.8;" x="72.192308" xlink:href="#m970d26a24e" y="211.825"/>
      </g>
     </g>
     <g id="text_3">
      <!-- mg2_s -->
      <g transform="translate(74.724339 251.485938)rotate(-90)scale(0.1 -0.1)">
       <defs>
        <path d="M 52 44.1875 
Q 55.375 50.25 60.0625 53.125 
Q 64.75 56 71.09375 56 
Q 79.640625 56 84.28125 50.015625 
Q 88.921875 44.046875 88.921875 33.015625 
L 88.921875 0 
L 79.890625 0 
L 79.890625 32.71875 
Q 79.890625 40.578125 77.09375 44.375 
Q 74.3125 48.1875 68.609375 48.1875 
Q 61.625 48.1875 57.5625 43.546875 
Q 53.515625 38.921875 53.515625 30.90625 
L 53.515625 0 
L 44.484375 0 
L 44.484375 32.71875 
Q 44.484375 40.625 41.703125 44.40625 
Q 38.921875 48.1875 33.109375 48.1875 
Q 26.21875 48.1875 22.15625 43.53125 
Q 18.109375 38.875 18.109375 30.90625 
L 18.109375 0 
L 9.078125 0 
L 9.078125 54.6875 
L 18.109375 54.6875 
L 18.109375 46.1875 
Q 21.1875 51.21875 25.484375 53.609375 
Q 29.78125 56 35.6875 56 
Q 41.65625 56 45.828125 52.96875 
Q 50 49.953125 52 44.1875 
z
" id="DejaVuSans-109"/>
       </defs>
       <use xlink:href="#DejaVuSans-109"/>
       <use x="97.412109" xlink:href="#DejaVuSans-103"/>
       <use x="160.888672" xlink:href="#DejaVuSans-50"/>
       <use x="224.511719" xlink:href="#DejaVuSans-95"/>
       <use x="274.511719" xlink:href="#DejaVuSans-115"/>
      </g>
     </g>
    </g>
    <g id="xtick_4">
     <g id="line2d_4">
      <g>
       <use style="stroke:#000000;stroke-width:0.8;" x="85.099231" xlink:href="#m970d26a24e" y="211.825"/>
      </g>
     </g>
     <g id="text_4">
      <!-- k_s -->
      <g transform="translate(87.719544 234.825)rotate(-90)scale(0.1 -0.1)">
       <defs>
        <path d="M 9.078125 75.984375 
L 18.109375 75.984375 
L 18.109375 31.109375 
L 44.921875 54.6875 
L 56.390625 54.6875 
L 27.390625 29.109375 
L 57.625 0 
L 45.90625 0 
L 18.109375 26.703125 
L 18.109375 0 
L 9.078125 0 
z
" id="DejaVuSans-107"/>
       </defs>
       <use xlink:href="#DejaVuSans-107"/>
       <use x="57.910156" xlink:href="#DejaVuSans-95"/>
       <use x="107.910156" xlink:href="#DejaVuSans-115"/>
      </g>
     </g>
    </g>
    <g id="xtick_5">
     <g id="line2d_5">
      <g>
       <use style="stroke:#000000;stroke-width:0.8;" x="98.006154" xlink:href="#m970d26a24e" y="211.825"/>
      </g>
     </g>
     <g id="text_5">
      <!-- mn2_s -->
      <g transform="translate(100.538186 251.475)rotate(-90)scale(0.1 -0.1)">
       <use xlink:href="#DejaVuSans-109"/>
       <use x="97.412109" xlink:href="#DejaVuSans-110"/>
       <use x="160.791016" xlink:href="#DejaVuSans-50"/>
       <use x="224.414062" xlink:href="#DejaVuSans-95"/>
       <use x="274.414062" xlink:href="#DejaVuSans-115"/>
      </g>
     </g>
    </g>
    <g id="xtick_6">
     <g id="line2d_6">
      <g>
       <use style="stroke:#000000;stroke-width:0.8;" x="110.913078" xlink:href="#m970d26a24e" y="211.825"/>
      </g>
     </g>
     <g id="text_6">
      <!-- lac__L_c -->
      <g transform="translate(113.53339 259.3)rotate(-90)scale(0.1 -0.1)">
       <defs>
        <path d="M 9.421875 75.984375 
L 18.40625 75.984375 
L 18.40625 0 
L 9.421875 0 
z
" id="DejaVuSans-108"/>
        <path d="M 48.78125 52.59375 
L 48.78125 44.1875 
Q 44.96875 46.296875 41.140625 47.34375 
Q 37.3125 48.390625 33.40625 48.390625 
Q 24.65625 48.390625 19.8125 42.84375 
Q 14.984375 37.3125 14.984375 27.296875 
Q 14.984375 17.28125 19.8125 11.734375 
Q 24.65625 6.203125 33.40625 6.203125 
Q 37.3125 6.203125 41.140625 7.25 
Q 44.96875 8.296875 48.78125 10.40625 
L 48.78125 2.09375 
Q 45.015625 0.34375 40.984375 -0.53125 
Q 36.96875 -1.421875 32.421875 -1.421875 
Q 20.0625 -1.421875 12.78125 6.34375 
Q 5.515625 14.109375 5.515625 27.296875 
Q 5.515625 40.671875 12.859375 48.328125 
Q 20.21875 56 33.015625 56 
Q 37.15625 56 41.109375 55.140625 
Q 45.0625 54.296875 48.78125 52.59375 
z
" id="DejaVuSans-99"/>
       </defs>
       <use xlink:href="#DejaVuSans-108"/>
       <use x="27.783203" xlink:href="#DejaVuSans-97"/>
       <use x="89.0625" xlink:href="#DejaVuSans-99"/>
       <use x="144.042969" xlink:href="#DejaVuSans-95"/>
       <use x="194.042969" xlink:href="#DejaVuSans-95"/>
       <use x="244.042969" xlink:href="#DejaVuSans-76"/>
       <use x="299.755859" xlink:href="#DejaVuSans-95"/>
       <use x="349.755859" xlink:href="#DejaVuSans-99"/>
      </g>
     </g>
    </g>
    <g id="xtick_7">
     <g id="line2d_7">
      <g>
       <use style="stroke:#000000;stroke-width:0.8;" x="123.820001" xlink:href="#m970d26a24e" y="211.825"/>
      </g>
     </g>
     <g id="text_7">
      <!-- ac_c -->
      <g transform="translate(126.301251 240.95)rotate(-90)scale(0.1 -0.1)">
       <use xlink:href="#DejaVuSans-97"/>
       <use x="61.279297" xlink:href="#DejaVuSans-99"/>
       <use x="116.259766" xlink:href="#DejaVuSans-95"/>
       <use x="166.259766" xlink:href="#DejaVuSans-99"/>
      </g>
     </g>
    </g>
    <g id="xtick_8">
     <g id="line2d_8">
      <g>
       <use style="stroke:#000000;stroke-width:0.8;" x="136.726924" xlink:href="#m970d26a24e" y="211.825"/>
      </g>
     </g>
     <g id="text_8">
      <!-- akg_s -->
      <g transform="translate(139.347236 247.301562)rotate(-90)scale(0.1 -0.1)">
       <use xlink:href="#DejaVuSans-97"/>
       <use x="61.279297" xlink:href="#DejaVuSans-107"/>
       <use x="119.189453" xlink:href="#DejaVuSans-103"/>
       <use x="182.666016" xlink:href="#DejaVuSans-95"/>
       <use x="232.666016" xlink:href="#DejaVuSans-115"/>
      </g>
     </g>
    </g>
    <g id="xtick_9">
     <g id="line2d_9">
      <g>
       <use style="stroke:#000000;stroke-width:0.8;" x="149.633847" xlink:href="#m970d26a24e" y="211.825"/>
      </g>
     </g>
     <g id="text_9">
      <!-- succ_c -->
      <g transform="translate(152.115097 251.867188)rotate(-90)scale(0.1 -0.1)">
       <defs>
        <path d="M 8.5 21.578125 
L 8.5 54.6875 
L 17.484375 54.6875 
L 17.484375 21.921875 
Q 17.484375 14.15625 20.5 10.265625 
Q 23.53125 6.390625 29.59375 6.390625 
Q 36.859375 6.390625 41.078125 11.03125 
Q 45.3125 15.671875 45.3125 23.6875 
L 45.3125 54.6875 
L 54.296875 54.6875 
L 54.296875 0 
L 45.3125 0 
L 45.3125 8.40625 
Q 42.046875 3.421875 37.71875 1 
Q 33.40625 -1.421875 27.6875 -1.421875 
Q 18.265625 -1.421875 13.375 4.4375 
Q 8.5 10.296875 8.5 21.578125 
z
M 31.109375 56 
z
" id="DejaVuSans-117"/>
       </defs>
       <use xlink:href="#DejaVuSans-115"/>
       <use x="52.099609" xlink:href="#DejaVuSans-117"/>
       <use x="115.478516" xlink:href="#DejaVuSans-99"/>
       <use x="170.458984" xlink:href="#DejaVuSans-99"/>
       <use x="225.439453" xlink:href="#DejaVuSans-95"/>
       <use x="275.439453" xlink:href="#DejaVuSans-99"/>
      </g>
     </g>
    </g>
    <g id="xtick_10">
     <g id="line2d_10">
      <g>
       <use style="stroke:#000000;stroke-width:0.8;" x="162.54077" xlink:href="#m970d26a24e" y="211.825"/>
      </g>
     </g>
     <g id="text_10">
      <!-- acac_s -->
      <g transform="translate(165.02202 252.2875)rotate(-90)scale(0.1 -0.1)">
       <use xlink:href="#DejaVuSans-97"/>
       <use x="61.279297" xlink:href="#DejaVuSans-99"/>
       <use x="116.259766" xlink:href="#DejaVuSans-97"/>
       <use x="177.539062" xlink:href="#DejaVuSans-99"/>
       <use x="232.519531" xlink:href="#DejaVuSans-95"/>
       <use x="282.519531" xlink:href="#DejaVuSans-115"/>
      </g>
     </g>
    </g>
    <g id="xtick_11">
     <g id="line2d_11">
      <g>
       <use style="stroke:#000000;stroke-width:0.8;" x="175.447693" xlink:href="#m970d26a24e" y="211.825"/>
      </g>
     </g>
     <g id="text_11">
      <!-- pyr_s -->
      <g transform="translate(177.928943 245.4125)rotate(-90)scale(0.1 -0.1)">
       <defs>
        <path d="M 18.109375 8.203125 
L 18.109375 -20.796875 
L 9.078125 -20.796875 
L 9.078125 54.6875 
L 18.109375 54.6875 
L 18.109375 46.390625 
Q 20.953125 51.265625 25.265625 53.625 
Q 29.59375 56 35.59375 56 
Q 45.5625 56 51.78125 48.09375 
Q 58.015625 40.1875 58.015625 27.296875 
Q 58.015625 14.40625 51.78125 6.484375 
Q 45.5625 -1.421875 35.59375 -1.421875 
Q 29.59375 -1.421875 25.265625 0.953125 
Q 20.953125 3.328125 18.109375 8.203125 
z
M 48.6875 27.296875 
Q 48.6875 37.203125 44.609375 42.84375 
Q 40.53125 48.484375 33.40625 48.484375 
Q 26.265625 48.484375 22.1875 42.84375 
Q 18.109375 37.203125 18.109375 27.296875 
Q 18.109375 17.390625 22.1875 11.75 
Q 26.265625 6.109375 33.40625 6.109375 
Q 40.53125 6.109375 44.609375 11.75 
Q 48.6875 17.390625 48.6875 27.296875 
z
" id="DejaVuSans-112"/>
        <path d="M 32.171875 -5.078125 
Q 28.375 -14.84375 24.75 -17.8125 
Q 21.140625 -20.796875 15.09375 -20.796875 
L 7.90625 -20.796875 
L 7.90625 -13.28125 
L 13.1875 -13.28125 
Q 16.890625 -13.28125 18.9375 -11.515625 
Q 21 -9.765625 23.484375 -3.21875 
L 25.09375 0.875 
L 2.984375 54.6875 
L 12.5 54.6875 
L 29.59375 11.921875 
L 46.6875 54.6875 
L 56.203125 54.6875 
z
" id="DejaVuSans-121"/>
       </defs>
       <use xlink:href="#DejaVuSans-112"/>
       <use x="63.476562" xlink:href="#DejaVuSans-121"/>
       <use x="122.65625" xlink:href="#DejaVuSans-114"/>
       <use x="163.769531" xlink:href="#DejaVuSans-95"/>
       <use x="213.769531" xlink:href="#DejaVuSans-115"/>
      </g>
     </g>
    </g>
    <g id="xtick_12">
     <g id="line2d_12">
      <g>
       <use style="stroke:#000000;stroke-width:0.8;" x="188.354617" xlink:href="#m970d26a24e" y="211.825"/>
      </g>
     </g>
     <g id="text_12">
      <!-- gmp_s -->
      <g transform="translate(190.835867 251.471875)rotate(-90)scale(0.1 -0.1)">
       <use xlink:href="#DejaVuSans-103"/>
       <use x="63.476562" xlink:href="#DejaVuSans-109"/>
       <use x="160.888672" xlink:href="#DejaVuSans-112"/>
       <use x="224.365234" xlink:href="#DejaVuSans-95"/>
       <use x="274.365234" xlink:href="#DejaVuSans-115"/>
      </g>
     </g>
    </g>
    <g id="xtick_13">
     <g id="line2d_13">
      <g>
       <use style="stroke:#000000;stroke-width:0.8;" x="201.26154" xlink:href="#m970d26a24e" y="211.825"/>
      </g>
     </g>
     <g id="text_13">
      <!-- gsn_c -->
      <g transform="translate(203.74279 247.21875)rotate(-90)scale(0.1 -0.1)">
       <use xlink:href="#DejaVuSans-103"/>
       <use x="63.476562" xlink:href="#DejaVuSans-115"/>
       <use x="115.576172" xlink:href="#DejaVuSans-110"/>
       <use x="178.955078" xlink:href="#DejaVuSans-95"/>
       <use x="228.955078" xlink:href="#DejaVuSans-99"/>
      </g>
     </g>
    </g>
    <g id="xtick_14">
     <g id="line2d_14">
      <g>
       <use style="stroke:#000000;stroke-width:0.8;" x="214.168463" xlink:href="#m970d26a24e" y="211.825"/>
      </g>
     </g>
     <g id="text_14">
      <!-- adn_c -->
      <g transform="translate(216.788776 248.1375)rotate(-90)scale(0.1 -0.1)">
       <defs>
        <path d="M 45.40625 46.390625 
L 45.40625 75.984375 
L 54.390625 75.984375 
L 54.390625 0 
L 45.40625 0 
L 45.40625 8.203125 
Q 42.578125 3.328125 38.25 0.953125 
Q 33.9375 -1.421875 27.875 -1.421875 
Q 17.96875 -1.421875 11.734375 6.484375 
Q 5.515625 14.40625 5.515625 27.296875 
Q 5.515625 40.1875 11.734375 48.09375 
Q 17.96875 56 27.875 56 
Q 33.9375 56 38.25 53.625 
Q 42.578125 51.265625 45.40625 46.390625 
z
M 14.796875 27.296875 
Q 14.796875 17.390625 18.875 11.75 
Q 22.953125 6.109375 30.078125 6.109375 
Q 37.203125 6.109375 41.296875 11.75 
Q 45.40625 17.390625 45.40625 27.296875 
Q 45.40625 37.203125 41.296875 42.84375 
Q 37.203125 48.484375 30.078125 48.484375 
Q 22.953125 48.484375 18.875 42.84375 
Q 14.796875 37.203125 14.796875 27.296875 
z
" id="DejaVuSans-100"/>
       </defs>
       <use xlink:href="#DejaVuSans-97"/>
       <use x="61.279297" xlink:href="#DejaVuSans-100"/>
       <use x="124.755859" xlink:href="#DejaVuSans-110"/>
       <use x="188.134766" xlink:href="#DejaVuSans-95"/>
       <use x="238.134766" xlink:href="#DejaVuSans-99"/>
      </g>
     </g>
    </g>
    <g id="xtick_15">
     <g id="line2d_15">
      <g>
       <use style="stroke:#000000;stroke-width:0.8;" x="227.075386" xlink:href="#m970d26a24e" y="211.825"/>
      </g>
     </g>
     <g id="text_15">
      <!-- 3amp_s -->
      <g transform="translate(229.607417 257.614062)rotate(-90)scale(0.1 -0.1)">
       <defs>
        <path d="M 40.578125 39.3125 
Q 47.65625 37.796875 51.625 33 
Q 55.609375 28.21875 55.609375 21.1875 
Q 55.609375 10.40625 48.1875 4.484375 
Q 40.765625 -1.421875 27.09375 -1.421875 
Q 22.515625 -1.421875 17.65625 -0.515625 
Q 12.796875 0.390625 7.625 2.203125 
L 7.625 11.71875 
Q 11.71875 9.328125 16.59375 8.109375 
Q 21.484375 6.890625 26.8125 6.890625 
Q 36.078125 6.890625 40.9375 10.546875 
Q 45.796875 14.203125 45.796875 21.1875 
Q 45.796875 27.640625 41.28125 31.265625 
Q 36.765625 34.90625 28.71875 34.90625 
L 20.21875 34.90625 
L 20.21875 43.015625 
L 29.109375 43.015625 
Q 36.375 43.015625 40.234375 45.921875 
Q 44.09375 48.828125 44.09375 54.296875 
Q 44.09375 59.90625 40.109375 62.90625 
Q 36.140625 65.921875 28.71875 65.921875 
Q 24.65625 65.921875 20.015625 65.03125 
Q 15.375 64.15625 9.8125 62.3125 
L 9.8125 71.09375 
Q 15.4375 72.65625 20.34375 73.4375 
Q 25.25 74.21875 29.59375 74.21875 
Q 40.828125 74.21875 47.359375 69.109375 
Q 53.90625 64.015625 53.90625 55.328125 
Q 53.90625 49.265625 50.4375 45.09375 
Q 46.96875 40.921875 40.578125 39.3125 
z
" id="DejaVuSans-51"/>
       </defs>
       <use xlink:href="#DejaVuSans-51"/>
       <use x="63.623047" xlink:href="#DejaVuSans-97"/>
       <use x="124.902344" xlink:href="#DejaVuSans-109"/>
       <use x="222.314453" xlink:href="#DejaVuSans-112"/>
       <use x="285.791016" xlink:href="#DejaVuSans-95"/>
       <use x="335.791016" xlink:href="#DejaVuSans-115"/>
      </g>
     </g>
    </g>
    <g id="xtick_16">
     <g id="line2d_16">
      <g>
       <use style="stroke:#000000;stroke-width:0.8;" x="239.982309" xlink:href="#m970d26a24e" y="211.825"/>
      </g>
     </g>
     <g id="text_16">
      <!-- 6pgc_s -->
      <g transform="translate(242.514341 253.592187)rotate(-90)scale(0.1 -0.1)">
       <defs>
        <path d="M 33.015625 40.375 
Q 26.375 40.375 22.484375 35.828125 
Q 18.609375 31.296875 18.609375 23.390625 
Q 18.609375 15.53125 22.484375 10.953125 
Q 26.375 6.390625 33.015625 6.390625 
Q 39.65625 6.390625 43.53125 10.953125 
Q 47.40625 15.53125 47.40625 23.390625 
Q 47.40625 31.296875 43.53125 35.828125 
Q 39.65625 40.375 33.015625 40.375 
z
M 52.59375 71.296875 
L 52.59375 62.3125 
Q 48.875 64.0625 45.09375 64.984375 
Q 41.3125 65.921875 37.59375 65.921875 
Q 27.828125 65.921875 22.671875 59.328125 
Q 17.53125 52.734375 16.796875 39.40625 
Q 19.671875 43.65625 24.015625 45.921875 
Q 28.375 48.1875 33.59375 48.1875 
Q 44.578125 48.1875 50.953125 41.515625 
Q 57.328125 34.859375 57.328125 23.390625 
Q 57.328125 12.15625 50.6875 5.359375 
Q 44.046875 -1.421875 33.015625 -1.421875 
Q 20.359375 -1.421875 13.671875 8.265625 
Q 6.984375 17.96875 6.984375 36.375 
Q 6.984375 53.65625 15.1875 63.9375 
Q 23.390625 74.21875 37.203125 74.21875 
Q 40.921875 74.21875 44.703125 73.484375 
Q 48.484375 72.75 52.59375 71.296875 
z
" id="DejaVuSans-54"/>
       </defs>
       <use xlink:href="#DejaVuSans-54"/>
       <use x="63.623047" xlink:href="#DejaVuSans-112"/>
       <use x="127.099609" xlink:href="#DejaVuSans-103"/>
       <use x="190.576172" xlink:href="#DejaVuSans-99"/>
       <use x="245.556641" xlink:href="#DejaVuSans-95"/>
       <use x="295.556641" xlink:href="#DejaVuSans-115"/>
      </g>
     </g>
    </g>
    <g id="xtick_17">
     <g id="line2d_17">
      <g>
       <use style="stroke:#000000;stroke-width:0.8;" x="252.889233" xlink:href="#m970d26a24e" y="211.825"/>
      </g>
     </g>
     <g id="text_17">
      <!-- thr__L_s -->
      <g transform="translate(255.509545 258.975)rotate(-90)scale(0.1 -0.1)">
       <defs>
        <path d="M 18.3125 70.21875 
L 18.3125 54.6875 
L 36.8125 54.6875 
L 36.8125 47.703125 
L 18.3125 47.703125 
L 18.3125 18.015625 
Q 18.3125 11.328125 20.140625 9.421875 
Q 21.96875 7.515625 27.59375 7.515625 
L 36.8125 7.515625 
L 36.8125 0 
L 27.59375 0 
Q 17.1875 0 13.234375 3.875 
Q 9.28125 7.765625 9.28125 18.015625 
L 9.28125 47.703125 
L 2.6875 47.703125 
L 2.6875 54.6875 
L 9.28125 54.6875 
L 9.28125 70.21875 
z
" id="DejaVuSans-116"/>
        <path d="M 54.890625 33.015625 
L 54.890625 0 
L 45.90625 0 
L 45.90625 32.71875 
Q 45.90625 40.484375 42.875 44.328125 
Q 39.84375 48.1875 33.796875 48.1875 
Q 26.515625 48.1875 22.3125 43.546875 
Q 18.109375 38.921875 18.109375 30.90625 
L 18.109375 0 
L 9.078125 0 
L 9.078125 75.984375 
L 18.109375 75.984375 
L 18.109375 46.1875 
Q 21.34375 51.125 25.703125 53.5625 
Q 30.078125 56 35.796875 56 
Q 45.21875 56 50.046875 50.171875 
Q 54.890625 44.34375 54.890625 33.015625 
z
" id="DejaVuSans-104"/>
       </defs>
       <use xlink:href="#DejaVuSans-116"/>
       <use x="39.208984" xlink:href="#DejaVuSans-104"/>
       <use x="102.587891" xlink:href="#DejaVuSans-114"/>
       <use x="143.701172" xlink:href="#DejaVuSans-95"/>
       <use x="193.701172" xlink:href="#DejaVuSans-95"/>
       <use x="243.701172" xlink:href="#DejaVuSans-76"/>
       <use x="299.414062" xlink:href="#DejaVuSans-95"/>
       <use x="349.414062" xlink:href="#DejaVuSans-115"/>
      </g>
     </g>
    </g>
    <g id="xtick_18">
     <g id="line2d_18">
      <g>
       <use style="stroke:#000000;stroke-width:0.8;" x="265.796156" xlink:href="#m970d26a24e" y="211.825"/>
      </g>
     </g>
     <g id="text_18">
      <!-- gam6p_s -->
      <g transform="translate(268.328187 263.9625)rotate(-90)scale(0.1 -0.1)">
       <use xlink:href="#DejaVuSans-103"/>
       <use x="63.476562" xlink:href="#DejaVuSans-97"/>
       <use x="124.755859" xlink:href="#DejaVuSans-109"/>
       <use x="222.167969" xlink:href="#DejaVuSans-54"/>
       <use x="285.791016" xlink:href="#DejaVuSans-112"/>
       <use x="349.267578" xlink:href="#DejaVuSans-95"/>
       <use x="399.267578" xlink:href="#DejaVuSans-115"/>
      </g>
     </g>
    </g>
    <g id="xtick_19">
     <g id="line2d_19">
      <g>
       <use style="stroke:#000000;stroke-width:0.8;" x="278.703079" xlink:href="#m970d26a24e" y="211.825"/>
      </g>
     </g>
     <g id="text_19">
      <!-- ade_s -->
      <g transform="translate(281.323391 247.664062)rotate(-90)scale(0.1 -0.1)">
       <defs>
        <path d="M 56.203125 29.59375 
L 56.203125 25.203125 
L 14.890625 25.203125 
Q 15.484375 15.921875 20.484375 11.0625 
Q 25.484375 6.203125 34.421875 6.203125 
Q 39.59375 6.203125 44.453125 7.46875 
Q 49.3125 8.734375 54.109375 11.28125 
L 54.109375 2.78125 
Q 49.265625 0.734375 44.1875 -0.34375 
Q 39.109375 -1.421875 33.890625 -1.421875 
Q 20.796875 -1.421875 13.15625 6.1875 
Q 5.515625 13.8125 5.515625 26.8125 
Q 5.515625 40.234375 12.765625 48.109375 
Q 20.015625 56 32.328125 56 
Q 43.359375 56 49.78125 48.890625 
Q 56.203125 41.796875 56.203125 29.59375 
z
M 47.21875 32.234375 
Q 47.125 39.59375 43.09375 43.984375 
Q 39.0625 48.390625 32.421875 48.390625 
Q 24.90625 48.390625 20.390625 44.140625 
Q 15.875 39.890625 15.1875 32.171875 
z
" id="DejaVuSans-101"/>
       </defs>
       <use xlink:href="#DejaVuSans-97"/>
       <use x="61.279297" xlink:href="#DejaVuSans-100"/>
       <use x="124.755859" xlink:href="#DejaVuSans-101"/>
       <use x="186.279297" xlink:href="#DejaVuSans-95"/>
       <use x="236.279297" xlink:href="#DejaVuSans-115"/>
      </g>
     </g>
    </g>
    <g id="xtick_20">
     <g id="line2d_20">
      <g>
       <use style="stroke:#000000;stroke-width:0.8;" x="291.610002" xlink:href="#m970d26a24e" y="211.825"/>
      </g>
     </g>
     <g id="text_20">
      <!-- 3pg_c -->
      <g transform="translate(294.142033 248.382812)rotate(-90)scale(0.1 -0.1)">
       <use xlink:href="#DejaVuSans-51"/>
       <use x="63.623047" xlink:href="#DejaVuSans-112"/>
       <use x="127.099609" xlink:href="#DejaVuSans-103"/>
       <use x="190.576172" xlink:href="#DejaVuSans-95"/>
       <use x="240.576172" xlink:href="#DejaVuSans-99"/>
      </g>
     </g>
    </g>
    <g id="xtick_21">
     <g id="line2d_21">
      <g>
       <use style="stroke:#000000;stroke-width:0.8;" x="304.516925" xlink:href="#m970d26a24e" y="211.825"/>
      </g>
     </g>
     <g id="text_21">
      <!-- leu__L_s -->
      <g transform="translate(307.137238 259.875)rotate(-90)scale(0.1 -0.1)">
       <use xlink:href="#DejaVuSans-108"/>
       <use x="27.783203" xlink:href="#DejaVuSans-101"/>
       <use x="89.306641" xlink:href="#DejaVuSans-117"/>
       <use x="152.685547" xlink:href="#DejaVuSans-95"/>
       <use x="202.685547" xlink:href="#DejaVuSans-95"/>
       <use x="252.685547" xlink:href="#DejaVuSans-76"/>
       <use x="308.398438" xlink:href="#DejaVuSans-95"/>
       <use x="358.398438" xlink:href="#DejaVuSans-115"/>
      </g>
     </g>
    </g>
    <g id="xtick_22">
     <g id="line2d_22">
      <g>
       <use style="stroke:#000000;stroke-width:0.8;" x="317.423848" xlink:href="#m970d26a24e" y="211.825"/>
      </g>
     </g>
     <g id="text_22">
      <!-- asp__L_s -->
      <g transform="translate(319.905098 262.292188)rotate(-90)scale(0.1 -0.1)">
       <use xlink:href="#DejaVuSans-97"/>
       <use x="61.279297" xlink:href="#DejaVuSans-115"/>
       <use x="113.378906" xlink:href="#DejaVuSans-112"/>
       <use x="176.855469" xlink:href="#DejaVuSans-95"/>
       <use x="226.855469" xlink:href="#DejaVuSans-95"/>
       <use x="276.855469" xlink:href="#DejaVuSans-76"/>
       <use x="332.568359" xlink:href="#DejaVuSans-95"/>
       <use x="382.568359" xlink:href="#DejaVuSans-115"/>
      </g>
     </g>
    </g>
    <g id="xtick_23">
     <g id="line2d_23">
      <g>
       <use style="stroke:#000000;stroke-width:0.8;" x="330.330772" xlink:href="#m970d26a24e" y="211.825"/>
      </g>
     </g>
     <g id="text_23">
      <!-- lys__L_s -->
      <g transform="translate(332.951084 258.5125)rotate(-90)scale(0.1 -0.1)">
       <use xlink:href="#DejaVuSans-108"/>
       <use x="27.783203" xlink:href="#DejaVuSans-121"/>
       <use x="86.962891" xlink:href="#DejaVuSans-115"/>
       <use x="139.0625" xlink:href="#DejaVuSans-95"/>
       <use x="189.0625" xlink:href="#DejaVuSans-95"/>
       <use x="239.0625" xlink:href="#DejaVuSans-76"/>
       <use x="294.775391" xlink:href="#DejaVuSans-95"/>
       <use x="344.775391" xlink:href="#DejaVuSans-115"/>
      </g>
     </g>
    </g>
    <g id="xtick_24">
     <g id="line2d_24">
      <g>
       <use style="stroke:#000000;stroke-width:0.8;" x="343.237695" xlink:href="#m970d26a24e" y="211.825"/>
      </g>
     </g>
     <g id="text_24">
      <!-- for_c -->
      <g transform="translate(345.858007 243.073438)rotate(-90)scale(0.1 -0.1)">
       <defs>
        <path d="M 37.109375 75.984375 
L 37.109375 68.5 
L 28.515625 68.5 
Q 23.6875 68.5 21.796875 66.546875 
Q 19.921875 64.59375 19.921875 59.515625 
L 19.921875 54.6875 
L 34.71875 54.6875 
L 34.71875 47.703125 
L 19.921875 47.703125 
L 19.921875 0 
L 10.890625 0 
L 10.890625 47.703125 
L 2.296875 47.703125 
L 2.296875 54.6875 
L 10.890625 54.6875 
L 10.890625 58.5 
Q 10.890625 67.625 15.140625 71.796875 
Q 19.390625 75.984375 28.609375 75.984375 
z
" id="DejaVuSans-102"/>
        <path d="M 30.609375 48.390625 
Q 23.390625 48.390625 19.1875 42.75 
Q 14.984375 37.109375 14.984375 27.296875 
Q 14.984375 17.484375 19.15625 11.84375 
Q 23.34375 6.203125 30.609375 6.203125 
Q 37.796875 6.203125 41.984375 11.859375 
Q 46.1875 17.53125 46.1875 27.296875 
Q 46.1875 37.015625 41.984375 42.703125 
Q 37.796875 48.390625 30.609375 48.390625 
z
M 30.609375 56 
Q 42.328125 56 49.015625 48.375 
Q 55.71875 40.765625 55.71875 27.296875 
Q 55.71875 13.875 49.015625 6.21875 
Q 42.328125 -1.421875 30.609375 -1.421875 
Q 18.84375 -1.421875 12.171875 6.21875 
Q 5.515625 13.875 5.515625 27.296875 
Q 5.515625 40.765625 12.171875 48.375 
Q 18.84375 56 30.609375 56 
z
" id="DejaVuSans-111"/>
       </defs>
       <use xlink:href="#DejaVuSans-102"/>
       <use x="35.205078" xlink:href="#DejaVuSans-111"/>
       <use x="96.386719" xlink:href="#DejaVuSans-114"/>
       <use x="137.5" xlink:href="#DejaVuSans-95"/>
       <use x="187.5" xlink:href="#DejaVuSans-99"/>
      </g>
     </g>
    </g>
    <g id="xtick_25">
     <g id="line2d_25">
      <g>
       <use style="stroke:#000000;stroke-width:0.8;" x="356.144618" xlink:href="#m970d26a24e" y="211.825"/>
      </g>
     </g>
     <g id="text_25">
      <!-- cmp_s -->
      <g transform="translate(358.625868 250.621875)rotate(-90)scale(0.1 -0.1)">
       <use xlink:href="#DejaVuSans-99"/>
       <use x="54.980469" xlink:href="#DejaVuSans-109"/>
       <use x="152.392578" xlink:href="#DejaVuSans-112"/>
       <use x="215.869141" xlink:href="#DejaVuSans-95"/>
       <use x="265.869141" xlink:href="#DejaVuSans-115"/>
      </g>
     </g>
    </g>
    <g id="xtick_26">
     <g id="line2d_26">
      <g>
       <use style="stroke:#000000;stroke-width:0.8;" x="369.051541" xlink:href="#m970d26a24e" y="211.825"/>
      </g>
     </g>
     <g id="text_26">
      <!-- met__L_s -->
      <g transform="translate(371.532791 264.420313)rotate(-90)scale(0.1 -0.1)">
       <use xlink:href="#DejaVuSans-109"/>
       <use x="97.412109" xlink:href="#DejaVuSans-101"/>
       <use x="158.935547" xlink:href="#DejaVuSans-116"/>
       <use x="198.144531" xlink:href="#DejaVuSans-95"/>
       <use x="248.144531" xlink:href="#DejaVuSans-95"/>
       <use x="298.144531" xlink:href="#DejaVuSans-76"/>
       <use x="353.857422" xlink:href="#DejaVuSans-95"/>
       <use x="403.857422" xlink:href="#DejaVuSans-115"/>
      </g>
     </g>
    </g>
    <g id="xtick_27">
     <g id="line2d_27">
      <g>
       <use style="stroke:#000000;stroke-width:0.8;" x="381.958464" xlink:href="#m970d26a24e" y="211.825"/>
      </g>
     </g>
     <g id="text_27">
      <!-- asn__L_s -->
      <g transform="translate(384.439714 262.28125)rotate(-90)scale(0.1 -0.1)">
       <use xlink:href="#DejaVuSans-97"/>
       <use x="61.279297" xlink:href="#DejaVuSans-115"/>
       <use x="113.378906" xlink:href="#DejaVuSans-110"/>
       <use x="176.757812" xlink:href="#DejaVuSans-95"/>
       <use x="226.757812" xlink:href="#DejaVuSans-95"/>
       <use x="276.757812" xlink:href="#DejaVuSans-76"/>
       <use x="332.470703" xlink:href="#DejaVuSans-95"/>
       <use x="382.470703" xlink:href="#DejaVuSans-115"/>
      </g>
     </g>
    </g>
    <g id="xtick_28">
     <g id="line2d_28">
      <g>
       <use style="stroke:#000000;stroke-width:0.8;" x="394.865388" xlink:href="#m970d26a24e" y="211.825"/>
      </g>
     </g>
     <g id="text_28">
      <!-- chor_s -->
      <g transform="translate(397.4857 251.1)rotate(-90)scale(0.1 -0.1)">
       <use xlink:href="#DejaVuSans-99"/>
       <use x="54.980469" xlink:href="#DejaVuSans-104"/>
       <use x="118.359375" xlink:href="#DejaVuSans-111"/>
       <use x="179.541016" xlink:href="#DejaVuSans-114"/>
       <use x="220.654297" xlink:href="#DejaVuSans-95"/>
       <use x="270.654297" xlink:href="#DejaVuSans-115"/>
      </g>
     </g>
    </g>
    <g id="xtick_29">
     <g id="line2d_29">
      <g>
       <use style="stroke:#000000;stroke-width:0.8;" x="407.772311" xlink:href="#m970d26a24e" y="211.825"/>
      </g>
     </g>
     <g id="text_29">
      <!-- pep_s -->
      <g transform="translate(410.253561 247.884375)rotate(-90)scale(0.1 -0.1)">
       <use xlink:href="#DejaVuSans-112"/>
       <use x="63.476562" xlink:href="#DejaVuSans-101"/>
       <use x="125" xlink:href="#DejaVuSans-112"/>
       <use x="188.476562" xlink:href="#DejaVuSans-95"/>
       <use x="238.476562" xlink:href="#DejaVuSans-115"/>
      </g>
     </g>
    </g>
    <g id="xtick_30">
     <g id="line2d_30">
      <g>
       <use style="stroke:#000000;stroke-width:0.8;" x="420.679234" xlink:href="#m970d26a24e" y="211.825"/>
      </g>
     </g>
     <g id="text_30">
      <!-- hxan_s -->
      <g transform="translate(423.299546 253.75625)rotate(-90)scale(0.1 -0.1)">
       <defs>
        <path d="M 54.890625 54.6875 
L 35.109375 28.078125 
L 55.90625 0 
L 45.3125 0 
L 29.390625 21.484375 
L 13.484375 0 
L 2.875 0 
L 24.125 28.609375 
L 4.6875 54.6875 
L 15.28125 54.6875 
L 29.78125 35.203125 
L 44.28125 54.6875 
z
" id="DejaVuSans-120"/>
       </defs>
       <use xlink:href="#DejaVuSans-104"/>
       <use x="63.378906" xlink:href="#DejaVuSans-120"/>
       <use x="122.558594" xlink:href="#DejaVuSans-97"/>
       <use x="183.837891" xlink:href="#DejaVuSans-110"/>
       <use x="247.216797" xlink:href="#DejaVuSans-95"/>
       <use x="297.216797" xlink:href="#DejaVuSans-115"/>
      </g>
     </g>
    </g>
    <g id="xtick_31">
     <g id="line2d_31">
      <g>
       <use style="stroke:#000000;stroke-width:0.8;" x="433.586157" xlink:href="#m970d26a24e" y="211.825"/>
      </g>
     </g>
     <g id="text_31">
      <!-- phe__L_c -->
      <g transform="translate(436.20647 263.734375)rotate(-90)scale(0.1 -0.1)">
       <use xlink:href="#DejaVuSans-112"/>
       <use x="63.476562" xlink:href="#DejaVuSans-104"/>
       <use x="126.855469" xlink:href="#DejaVuSans-101"/>
       <use x="188.378906" xlink:href="#DejaVuSans-95"/>
       <use x="238.378906" xlink:href="#DejaVuSans-95"/>
       <use x="288.378906" xlink:href="#DejaVuSans-76"/>
       <use x="344.091797" xlink:href="#DejaVuSans-95"/>
       <use x="394.091797" xlink:href="#DejaVuSans-99"/>
      </g>
     </g>
    </g>
    <g id="xtick_32">
     <g id="line2d_32">
      <g>
       <use style="stroke:#000000;stroke-width:0.8;" x="446.49308" xlink:href="#m970d26a24e" y="211.825"/>
      </g>
     </g>
     <g id="text_32">
      <!-- ump_s -->
      <g transform="translate(448.97433 251.460938)rotate(-90)scale(0.1 -0.1)">
       <use xlink:href="#DejaVuSans-117"/>
       <use x="63.378906" xlink:href="#DejaVuSans-109"/>
       <use x="160.791016" xlink:href="#DejaVuSans-112"/>
       <use x="224.267578" xlink:href="#DejaVuSans-95"/>
       <use x="274.267578" xlink:href="#DejaVuSans-115"/>
      </g>
     </g>
    </g>
    <g id="xtick_33">
     <g id="line2d_33">
      <g>
       <use style="stroke:#000000;stroke-width:0.8;" x="459.400004" xlink:href="#m970d26a24e" y="211.825"/>
      </g>
     </g>
     <g id="text_33">
      <!-- his__L_s -->
      <g transform="translate(462.020316 258.93125)rotate(-90)scale(0.1 -0.1)">
       <defs>
        <path d="M 9.421875 54.6875 
L 18.40625 54.6875 
L 18.40625 0 
L 9.421875 0 
z
M 9.421875 75.984375 
L 18.40625 75.984375 
L 18.40625 64.59375 
L 9.421875 64.59375 
z
" id="DejaVuSans-105"/>
       </defs>
       <use xlink:href="#DejaVuSans-104"/>
       <use x="63.378906" xlink:href="#DejaVuSans-105"/>
       <use x="91.162109" xlink:href="#DejaVuSans-115"/>
       <use x="143.261719" xlink:href="#DejaVuSans-95"/>
       <use x="193.261719" xlink:href="#DejaVuSans-95"/>
       <use x="243.261719" xlink:href="#DejaVuSans-76"/>
       <use x="298.974609" xlink:href="#DejaVuSans-95"/>
       <use x="348.974609" xlink:href="#DejaVuSans-115"/>
      </g>
     </g>
    </g>
    <g id="xtick_34">
     <g id="line2d_34">
      <g>
       <use style="stroke:#000000;stroke-width:0.8;" x="472.306927" xlink:href="#m970d26a24e" y="211.825"/>
      </g>
     </g>
     <g id="text_34">
      <!-- pser__L_s -->
      <g transform="translate(474.788177 266.428125)rotate(-90)scale(0.1 -0.1)">
       <use xlink:href="#DejaVuSans-112"/>
       <use x="63.476562" xlink:href="#DejaVuSans-115"/>
       <use x="115.576172" xlink:href="#DejaVuSans-101"/>
       <use x="177.099609" xlink:href="#DejaVuSans-114"/>
       <use x="218.212891" xlink:href="#DejaVuSans-95"/>
       <use x="268.212891" xlink:href="#DejaVuSans-95"/>
       <use x="318.212891" xlink:href="#DejaVuSans-76"/>
       <use x="373.925781" xlink:href="#DejaVuSans-95"/>
       <use x="423.925781" xlink:href="#DejaVuSans-115"/>
      </g>
     </g>
    </g>
    <g id="xtick_35">
     <g id="line2d_35">
      <g>
       <use style="stroke:#000000;stroke-width:0.8;" x="485.21385" xlink:href="#m970d26a24e" y="211.825"/>
      </g>
     </g>
     <g id="text_35">
      <!-- trp__L_s -->
      <g transform="translate(487.6951 258.985937)rotate(-90)scale(0.1 -0.1)">
       <use xlink:href="#DejaVuSans-116"/>
       <use x="39.208984" xlink:href="#DejaVuSans-114"/>
       <use x="80.322266" xlink:href="#DejaVuSans-112"/>
       <use x="143.798828" xlink:href="#DejaVuSans-95"/>
       <use x="193.798828" xlink:href="#DejaVuSans-95"/>
       <use x="243.798828" xlink:href="#DejaVuSans-76"/>
       <use x="299.511719" xlink:href="#DejaVuSans-95"/>
       <use x="349.511719" xlink:href="#DejaVuSans-115"/>
      </g>
     </g>
    </g>
    <g id="xtick_36">
     <g id="line2d_36">
      <g>
       <use style="stroke:#000000;stroke-width:0.8;" x="498.120773" xlink:href="#m970d26a24e" y="211.825"/>
      </g>
     </g>
     <g id="text_36">
      <!-- pro__L_s -->
      <g transform="translate(500.602023 260.959375)rotate(-90)scale(0.1 -0.1)">
       <use xlink:href="#DejaVuSans-112"/>
       <use x="63.476562" xlink:href="#DejaVuSans-114"/>
       <use x="102.339844" xlink:href="#DejaVuSans-111"/>
       <use x="163.521484" xlink:href="#DejaVuSans-95"/>
       <use x="213.521484" xlink:href="#DejaVuSans-95"/>
       <use x="263.521484" xlink:href="#DejaVuSans-76"/>
       <use x="319.234375" xlink:href="#DejaVuSans-95"/>
       <use x="369.234375" xlink:href="#DejaVuSans-115"/>
      </g>
     </g>
    </g>
    <g id="xtick_37">
     <g id="line2d_37">
      <g>
       <use style="stroke:#000000;stroke-width:0.8;" x="511.027696" xlink:href="#m970d26a24e" y="211.825"/>
      </g>
     </g>
     <g id="text_37">
      <!-- fum_c -->
      <g transform="translate(513.648009 248.921875)rotate(-90)scale(0.1 -0.1)">
       <use xlink:href="#DejaVuSans-102"/>
       <use x="35.205078" xlink:href="#DejaVuSans-117"/>
       <use x="98.583984" xlink:href="#DejaVuSans-109"/>
       <use x="195.996094" xlink:href="#DejaVuSans-95"/>
       <use x="245.996094" xlink:href="#DejaVuSans-99"/>
      </g>
     </g>
    </g>
    <g id="xtick_38">
     <g id="line2d_38">
      <g>
       <use style="stroke:#000000;stroke-width:0.8;" x="523.934619" xlink:href="#m970d26a24e" y="211.825"/>
      </g>
     </g>
     <g id="text_38">
      <!-- cit_s -->
      <g transform="translate(526.554932 241.23125)rotate(-90)scale(0.1 -0.1)">
       <use xlink:href="#DejaVuSans-99"/>
       <use x="54.980469" xlink:href="#DejaVuSans-105"/>
       <use x="82.763672" xlink:href="#DejaVuSans-116"/>
       <use x="121.972656" xlink:href="#DejaVuSans-95"/>
       <use x="171.972656" xlink:href="#DejaVuSans-115"/>
      </g>
     </g>
    </g>
    <g id="xtick_39">
     <g id="line2d_39">
      <g>
       <use style="stroke:#000000;stroke-width:0.8;" x="536.841543" xlink:href="#m970d26a24e" y="211.825"/>
      </g>
     </g>
     <g id="text_39">
      <!-- so4_s -->
      <g transform="translate(539.322793 246.725)rotate(-90)scale(0.1 -0.1)">
       <defs>
        <path d="M 37.796875 64.3125 
L 12.890625 25.390625 
L 37.796875 25.390625 
z
M 35.203125 72.90625 
L 47.609375 72.90625 
L 47.609375 25.390625 
L 58.015625 25.390625 
L 58.015625 17.1875 
L 47.609375 17.1875 
L 47.609375 0 
L 37.796875 0 
L 37.796875 17.1875 
L 4.890625 17.1875 
L 4.890625 26.703125 
z
" id="DejaVuSans-52"/>
       </defs>
       <use xlink:href="#DejaVuSans-115"/>
       <use x="52.099609" xlink:href="#DejaVuSans-111"/>
       <use x="113.28125" xlink:href="#DejaVuSans-52"/>
       <use x="176.904297" xlink:href="#DejaVuSans-95"/>
       <use x="226.904297" xlink:href="#DejaVuSans-115"/>
      </g>
     </g>
    </g>
    <g id="xtick_40">
     <g id="line2d_40">
      <g>
       <use style="stroke:#000000;stroke-width:0.8;" x="549.748466" xlink:href="#m970d26a24e" y="211.825"/>
      </g>
     </g>
     <g id="text_40">
      <!-- taur_s -->
      <g transform="translate(552.229716 249.53125)rotate(-90)scale(0.1 -0.1)">
       <use xlink:href="#DejaVuSans-116"/>
       <use x="39.208984" xlink:href="#DejaVuSans-97"/>
       <use x="100.488281" xlink:href="#DejaVuSans-117"/>
       <use x="163.867188" xlink:href="#DejaVuSans-114"/>
       <use x="204.980469" xlink:href="#DejaVuSans-95"/>
       <use x="254.980469" xlink:href="#DejaVuSans-115"/>
      </g>
     </g>
    </g>
    <g id="xtick_41">
     <g id="line2d_41">
      <g>
       <use style="stroke:#000000;stroke-width:0.8;" x="562.655389" xlink:href="#m970d26a24e" y="211.825"/>
      </g>
     </g>
     <g id="text_41">
      <!-- fol_s -->
      <g transform="translate(565.275702 241.451563)rotate(-90)scale(0.1 -0.1)">
       <use xlink:href="#DejaVuSans-102"/>
       <use x="35.205078" xlink:href="#DejaVuSans-111"/>
       <use x="96.386719" xlink:href="#DejaVuSans-108"/>
       <use x="124.169922" xlink:href="#DejaVuSans-95"/>
       <use x="174.169922" xlink:href="#DejaVuSans-115"/>
      </g>
     </g>
    </g>
    <g id="xtick_42">
     <g id="line2d_42">
      <g>
       <use style="stroke:#000000;stroke-width:0.8;" x="575.562312" xlink:href="#m970d26a24e" y="211.825"/>
      </g>
     </g>
     <g id="text_42">
      <!-- buts_s -->
      <g transform="translate(578.182625 250.85)rotate(-90)scale(0.1 -0.1)">
       <defs>
        <path d="M 48.6875 27.296875 
Q 48.6875 37.203125 44.609375 42.84375 
Q 40.53125 48.484375 33.40625 48.484375 
Q 26.265625 48.484375 22.1875 42.84375 
Q 18.109375 37.203125 18.109375 27.296875 
Q 18.109375 17.390625 22.1875 11.75 
Q 26.265625 6.109375 33.40625 6.109375 
Q 40.53125 6.109375 44.609375 11.75 
Q 48.6875 17.390625 48.6875 27.296875 
z
M 18.109375 46.390625 
Q 20.953125 51.265625 25.265625 53.625 
Q 29.59375 56 35.59375 56 
Q 45.5625 56 51.78125 48.09375 
Q 58.015625 40.1875 58.015625 27.296875 
Q 58.015625 14.40625 51.78125 6.484375 
Q 45.5625 -1.421875 35.59375 -1.421875 
Q 29.59375 -1.421875 25.265625 0.953125 
Q 20.953125 3.328125 18.109375 8.203125 
L 18.109375 0 
L 9.078125 0 
L 9.078125 75.984375 
L 18.109375 75.984375 
z
" id="DejaVuSans-98"/>
       </defs>
       <use xlink:href="#DejaVuSans-98"/>
       <use x="63.476562" xlink:href="#DejaVuSans-117"/>
       <use x="126.855469" xlink:href="#DejaVuSans-116"/>
       <use x="166.064453" xlink:href="#DejaVuSans-115"/>
       <use x="218.164062" xlink:href="#DejaVuSans-95"/>
       <use x="268.164062" xlink:href="#DejaVuSans-115"/>
      </g>
     </g>
    </g>
    <g id="xtick_43">
     <g id="line2d_43">
      <g>
       <use style="stroke:#000000;stroke-width:0.8;" x="588.469235" xlink:href="#m970d26a24e" y="211.825"/>
      </g>
     </g>
     <g id="text_43">
      <!-- dcyt_s -->
      <g transform="translate(591.089548 250.720313)rotate(-90)scale(0.1 -0.1)">
       <use xlink:href="#DejaVuSans-100"/>
       <use x="63.476562" xlink:href="#DejaVuSans-99"/>
       <use x="118.457031" xlink:href="#DejaVuSans-121"/>
       <use x="177.636719" xlink:href="#DejaVuSans-116"/>
       <use x="216.845703" xlink:href="#DejaVuSans-95"/>
       <use x="266.845703" xlink:href="#DejaVuSans-115"/>
      </g>
     </g>
    </g>
    <g id="xtick_44">
     <g id="line2d_44">
      <g>
       <use style="stroke:#000000;stroke-width:0.8;" x="601.376159" xlink:href="#m970d26a24e" y="211.825"/>
      </g>
     </g>
     <g id="text_44">
      <!-- csn_s -->
      <g transform="translate(603.857409 246.079688)rotate(-90)scale(0.1 -0.1)">
       <use xlink:href="#DejaVuSans-99"/>
       <use x="54.980469" xlink:href="#DejaVuSans-115"/>
       <use x="107.080078" xlink:href="#DejaVuSans-110"/>
       <use x="170.458984" xlink:href="#DejaVuSans-95"/>
       <use x="220.458984" xlink:href="#DejaVuSans-115"/>
      </g>
     </g>
    </g>
    <g id="xtick_45">
     <g id="line2d_45">
      <g>
       <use style="stroke:#000000;stroke-width:0.8;" x="614.283082" xlink:href="#m970d26a24e" y="211.825"/>
      </g>
     </g>
     <g id="text_45">
      <!-- fe2_s -->
      <g transform="translate(616.903394 245.070312)rotate(-90)scale(0.1 -0.1)">
       <use xlink:href="#DejaVuSans-102"/>
       <use x="35.205078" xlink:href="#DejaVuSans-101"/>
       <use x="96.728516" xlink:href="#DejaVuSans-50"/>
       <use x="160.351562" xlink:href="#DejaVuSans-95"/>
       <use x="210.351562" xlink:href="#DejaVuSans-115"/>
      </g>
     </g>
    </g>
    <g id="xtick_46">
     <g id="line2d_46">
      <g>
       <use style="stroke:#000000;stroke-width:0.8;" x="627.190005" xlink:href="#m970d26a24e" y="211.825"/>
      </g>
     </g>
     <g id="text_46">
      <!-- ura_c -->
      <g transform="translate(629.671255 245.9)rotate(-90)scale(0.1 -0.1)">
       <use xlink:href="#DejaVuSans-117"/>
       <use x="63.378906" xlink:href="#DejaVuSans-114"/>
       <use x="104.492188" xlink:href="#DejaVuSans-97"/>
       <use x="165.771484" xlink:href="#DejaVuSans-95"/>
       <use x="215.771484" xlink:href="#DejaVuSans-99"/>
      </g>
     </g>
    </g>
    <g id="xtick_47">
     <g id="line2d_47">
      <g>
       <use style="stroke:#000000;stroke-width:0.8;" x="640.096928" xlink:href="#m970d26a24e" y="211.825"/>
      </g>
     </g>
     <g id="text_47">
      <!-- metox__R_s -->
      <g transform="translate(642.578178 277.521875)rotate(-90)scale(0.1 -0.1)">
       <defs>
        <path d="M 44.390625 34.1875 
Q 47.5625 33.109375 50.5625 29.59375 
Q 53.5625 26.078125 56.59375 19.921875 
L 66.609375 0 
L 56 0 
L 46.6875 18.703125 
Q 43.0625 26.03125 39.671875 28.421875 
Q 36.28125 30.8125 30.421875 30.8125 
L 19.671875 30.8125 
L 19.671875 0 
L 9.8125 0 
L 9.8125 72.90625 
L 32.078125 72.90625 
Q 44.578125 72.90625 50.734375 67.671875 
Q 56.890625 62.453125 56.890625 51.90625 
Q 56.890625 45.015625 53.6875 40.46875 
Q 50.484375 35.9375 44.390625 34.1875 
z
M 19.671875 64.796875 
L 19.671875 38.921875 
L 32.078125 38.921875 
Q 39.203125 38.921875 42.84375 42.21875 
Q 46.484375 45.515625 46.484375 51.90625 
Q 46.484375 58.296875 42.84375 61.546875 
Q 39.203125 64.796875 32.078125 64.796875 
z
" id="DejaVuSans-82"/>
       </defs>
       <use xlink:href="#DejaVuSans-109"/>
       <use x="97.412109" xlink:href="#DejaVuSans-101"/>
       <use x="158.935547" xlink:href="#DejaVuSans-116"/>
       <use x="198.144531" xlink:href="#DejaVuSans-111"/>
       <use x="256.201172" xlink:href="#DejaVuSans-120"/>
       <use x="315.380859" xlink:href="#DejaVuSans-95"/>
       <use x="365.380859" xlink:href="#DejaVuSans-95"/>
       <use x="415.380859" xlink:href="#DejaVuSans-82"/>
       <use x="484.863281" xlink:href="#DejaVuSans-95"/>
       <use x="534.863281" xlink:href="#DejaVuSans-115"/>
      </g>
     </g>
    </g>
    <g id="xtick_48">
     <g id="line2d_48">
      <g>
       <use style="stroke:#000000;stroke-width:0.8;" x="653.003851" xlink:href="#m970d26a24e" y="211.825"/>
      </g>
     </g>
     <g id="text_48">
      <!-- galctr__D_s -->
      <g transform="translate(655.624164 275.51875)rotate(-90)scale(0.1 -0.1)">
       <defs>
        <path d="M 19.671875 64.796875 
L 19.671875 8.109375 
L 31.59375 8.109375 
Q 46.6875 8.109375 53.6875 14.9375 
Q 60.6875 21.78125 60.6875 36.53125 
Q 60.6875 51.171875 53.6875 57.984375 
Q 46.6875 64.796875 31.59375 64.796875 
z
M 9.8125 72.90625 
L 30.078125 72.90625 
Q 51.265625 72.90625 61.171875 64.09375 
Q 71.09375 55.28125 71.09375 36.53125 
Q 71.09375 17.671875 61.125 8.828125 
Q 51.171875 0 30.078125 0 
L 9.8125 0 
z
" id="DejaVuSans-68"/>
       </defs>
       <use xlink:href="#DejaVuSans-103"/>
       <use x="63.476562" xlink:href="#DejaVuSans-97"/>
       <use x="124.755859" xlink:href="#DejaVuSans-108"/>
       <use x="152.539062" xlink:href="#DejaVuSans-99"/>
       <use x="207.519531" xlink:href="#DejaVuSans-116"/>
       <use x="246.728516" xlink:href="#DejaVuSans-114"/>
       <use x="287.841797" xlink:href="#DejaVuSans-95"/>
       <use x="337.841797" xlink:href="#DejaVuSans-95"/>
       <use x="387.841797" xlink:href="#DejaVuSans-68"/>
       <use x="464.84375" xlink:href="#DejaVuSans-95"/>
       <use x="514.84375" xlink:href="#DejaVuSans-115"/>
      </g>
     </g>
    </g>
    <g id="xtick_49">
     <g id="line2d_49">
      <g>
       <use style="stroke:#000000;stroke-width:0.8;" x="665.910775" xlink:href="#m970d26a24e" y="211.825"/>
      </g>
     </g>
     <g id="text_49">
      <!-- cit_c -->
      <g transform="translate(668.531087 241.520312)rotate(-90)scale(0.1 -0.1)">
       <use xlink:href="#DejaVuSans-99"/>
       <use x="54.980469" xlink:href="#DejaVuSans-105"/>
       <use x="82.763672" xlink:href="#DejaVuSans-116"/>
       <use x="121.972656" xlink:href="#DejaVuSans-95"/>
       <use x="171.972656" xlink:href="#DejaVuSans-99"/>
      </g>
     </g>
    </g>
    <g id="xtick_50">
     <g id="line2d_50">
      <g>
       <use style="stroke:#000000;stroke-width:0.8;" x="678.817698" xlink:href="#m970d26a24e" y="211.825"/>
      </g>
     </g>
     <g id="text_50">
      <!-- eths_s -->
      <g transform="translate(681.43801 250.654688)rotate(-90)scale(0.1 -0.1)">
       <use xlink:href="#DejaVuSans-101"/>
       <use x="61.523438" xlink:href="#DejaVuSans-116"/>
       <use x="100.732422" xlink:href="#DejaVuSans-104"/>
       <use x="164.111328" xlink:href="#DejaVuSans-115"/>
       <use x="216.210938" xlink:href="#DejaVuSans-95"/>
       <use x="266.210938" xlink:href="#DejaVuSans-115"/>
      </g>
     </g>
    </g>
    <g id="xtick_51">
     <g id="line2d_51">
      <g>
       <use style="stroke:#000000;stroke-width:0.8;" x="691.724621" xlink:href="#m970d26a24e" y="211.825"/>
      </g>
     </g>
     <g id="text_51">
      <!-- metox_s -->
      <g transform="translate(694.205871 260.573438)rotate(-90)scale(0.1 -0.1)">
       <use xlink:href="#DejaVuSans-109"/>
       <use x="97.412109" xlink:href="#DejaVuSans-101"/>
       <use x="158.935547" xlink:href="#DejaVuSans-116"/>
       <use x="198.144531" xlink:href="#DejaVuSans-111"/>
       <use x="256.201172" xlink:href="#DejaVuSans-120"/>
       <use x="315.380859" xlink:href="#DejaVuSans-95"/>
       <use x="365.380859" xlink:href="#DejaVuSans-115"/>
      </g>
     </g>
    </g>
    <g id="xtick_52">
     <g id="line2d_52">
      <g>
       <use style="stroke:#000000;stroke-width:0.8;" x="704.631544" xlink:href="#m970d26a24e" y="211.825"/>
      </g>
     </g>
     <g id="text_52">
      <!-- nac_s -->
      <g transform="translate(707.112794 246.998438)rotate(-90)scale(0.1 -0.1)">
       <use xlink:href="#DejaVuSans-110"/>
       <use x="63.378906" xlink:href="#DejaVuSans-97"/>
       <use x="124.658203" xlink:href="#DejaVuSans-99"/>
       <use x="179.638672" xlink:href="#DejaVuSans-95"/>
       <use x="229.638672" xlink:href="#DejaVuSans-115"/>
      </g>
     </g>
    </g>
    <g id="xtick_53">
     <g id="line2d_53">
      <g>
       <use style="stroke:#000000;stroke-width:0.8;" x="717.538467" xlink:href="#m970d26a24e" y="211.825"/>
      </g>
     </g>
     <g id="text_53">
      <!-- thymd_s -->
      <g transform="translate(720.15878 261.3)rotate(-90)scale(0.1 -0.1)">
       <use xlink:href="#DejaVuSans-116"/>
       <use x="39.208984" xlink:href="#DejaVuSans-104"/>
       <use x="102.587891" xlink:href="#DejaVuSans-121"/>
       <use x="161.767578" xlink:href="#DejaVuSans-109"/>
       <use x="259.179688" xlink:href="#DejaVuSans-100"/>
       <use x="322.65625" xlink:href="#DejaVuSans-95"/>
       <use x="372.65625" xlink:href="#DejaVuSans-115"/>
      </g>
     </g>
    </g>
    <g id="xtick_54">
     <g id="line2d_54">
      <g>
       <use style="stroke:#000000;stroke-width:0.8;" x="730.44539" xlink:href="#m970d26a24e" y="211.825"/>
      </g>
     </g>
     <g id="text_54">
      <!-- ribflv_c -->
      <g transform="translate(733.065703 254.778125)rotate(-90)scale(0.1 -0.1)">
       <defs>
        <path d="M 2.984375 54.6875 
L 12.5 54.6875 
L 29.59375 8.796875 
L 46.6875 54.6875 
L 56.203125 54.6875 
L 35.6875 0 
L 23.484375 0 
z
" id="DejaVuSans-118"/>
       </defs>
       <use xlink:href="#DejaVuSans-114"/>
       <use x="41.113281" xlink:href="#DejaVuSans-105"/>
       <use x="68.896484" xlink:href="#DejaVuSans-98"/>
       <use x="132.373047" xlink:href="#DejaVuSans-102"/>
       <use x="167.578125" xlink:href="#DejaVuSans-108"/>
       <use x="195.361328" xlink:href="#DejaVuSans-118"/>
       <use x="254.541016" xlink:href="#DejaVuSans-95"/>
       <use x="304.541016" xlink:href="#DejaVuSans-99"/>
      </g>
     </g>
    </g>
    <g id="xtick_55">
     <g id="line2d_55">
      <g>
       <use style="stroke:#000000;stroke-width:0.8;" x="743.352314" xlink:href="#m970d26a24e" y="211.825"/>
      </g>
     </g>
     <g id="text_55">
      <!-- cyst__L_s -->
      <g transform="translate(745.833564 265.153125)rotate(-90)scale(0.1 -0.1)">
       <use xlink:href="#DejaVuSans-99"/>
       <use x="54.980469" xlink:href="#DejaVuSans-121"/>
       <use x="114.160156" xlink:href="#DejaVuSans-115"/>
       <use x="166.259766" xlink:href="#DejaVuSans-116"/>
       <use x="205.46875" xlink:href="#DejaVuSans-95"/>
       <use x="255.46875" xlink:href="#DejaVuSans-95"/>
       <use x="305.46875" xlink:href="#DejaVuSans-76"/>
       <use x="361.181641" xlink:href="#DejaVuSans-95"/>
       <use x="411.181641" xlink:href="#DejaVuSans-115"/>
      </g>
     </g>
    </g>
    <g id="xtick_56">
     <g id="line2d_56">
      <g>
       <use style="stroke:#000000;stroke-width:0.8;" x="756.259237" xlink:href="#m970d26a24e" y="211.825"/>
      </g>
     </g>
     <g id="text_56">
      <!-- glyc_c -->
      <g transform="translate(758.879549 249.867188)rotate(-90)scale(0.1 -0.1)">
       <use xlink:href="#DejaVuSans-103"/>
       <use x="63.476562" xlink:href="#DejaVuSans-108"/>
       <use x="91.259766" xlink:href="#DejaVuSans-121"/>
       <use x="150.439453" xlink:href="#DejaVuSans-99"/>
       <use x="205.419922" xlink:href="#DejaVuSans-95"/>
       <use x="255.419922" xlink:href="#DejaVuSans-99"/>
      </g>
     </g>
    </g>
    <g id="xtick_57">
     <g id="line2d_57">
      <g>
       <use style="stroke:#000000;stroke-width:0.8;" x="769.16616" xlink:href="#m970d26a24e" y="211.825"/>
      </g>
     </g>
     <g id="text_57">
      <!-- pi_s -->
      <g transform="translate(771.786473 238.160937)rotate(-90)scale(0.1 -0.1)">
       <use xlink:href="#DejaVuSans-112"/>
       <use x="63.476562" xlink:href="#DejaVuSans-105"/>
       <use x="91.259766" xlink:href="#DejaVuSans-95"/>
       <use x="141.259766" xlink:href="#DejaVuSans-115"/>
      </g>
     </g>
    </g>
    <g id="xtick_58">
     <g id="line2d_58">
      <g>
       <use style="stroke:#000000;stroke-width:0.8;" x="782.073083" xlink:href="#m970d26a24e" y="211.825"/>
      </g>
     </g>
     <g id="text_58">
      <!-- dtmp_s -->
      <g transform="translate(784.693396 255.392188)rotate(-90)scale(0.1 -0.1)">
       <use xlink:href="#DejaVuSans-100"/>
       <use x="63.476562" xlink:href="#DejaVuSans-116"/>
       <use x="102.685547" xlink:href="#DejaVuSans-109"/>
       <use x="200.097656" xlink:href="#DejaVuSans-112"/>
       <use x="263.574219" xlink:href="#DejaVuSans-95"/>
       <use x="313.574219" xlink:href="#DejaVuSans-115"/>
      </g>
     </g>
    </g>
    <g id="xtick_59">
     <g id="line2d_59">
      <g>
       <use style="stroke:#000000;stroke-width:0.8;" x="794.980006" xlink:href="#m970d26a24e" y="211.825"/>
      </g>
     </g>
     <g id="text_59">
      <!-- tyr__L_s -->
      <g transform="translate(797.461256 258.55625)rotate(-90)scale(0.1 -0.1)">
       <use xlink:href="#DejaVuSans-116"/>
       <use x="39.208984" xlink:href="#DejaVuSans-121"/>
       <use x="98.388672" xlink:href="#DejaVuSans-114"/>
       <use x="139.501953" xlink:href="#DejaVuSans-95"/>
       <use x="189.501953" xlink:href="#DejaVuSans-95"/>
       <use x="239.501953" xlink:href="#DejaVuSans-76"/>
       <use x="295.214844" xlink:href="#DejaVuSans-95"/>
       <use x="345.214844" xlink:href="#DejaVuSans-115"/>
      </g>
     </g>
    </g>
    <g id="xtick_60">
     <g id="line2d_60">
      <g>
       <use style="stroke:#000000;stroke-width:0.8;" x="807.88693" xlink:href="#m970d26a24e" y="211.825"/>
      </g>
     </g>
     <g id="text_60">
      <!-- ppi_s -->
      <g transform="translate(810.507242 244.509375)rotate(-90)scale(0.1 -0.1)">
       <use xlink:href="#DejaVuSans-112"/>
       <use x="63.476562" xlink:href="#DejaVuSans-112"/>
       <use x="126.953125" xlink:href="#DejaVuSans-105"/>
       <use x="154.736328" xlink:href="#DejaVuSans-95"/>
       <use x="204.736328" xlink:href="#DejaVuSans-115"/>
      </g>
     </g>
    </g>
    <g id="xtick_61">
     <g id="line2d_61">
      <g>
       <use style="stroke:#000000;stroke-width:0.8;" x="820.793853" xlink:href="#m970d26a24e" y="211.825"/>
      </g>
     </g>
     <g id="text_61">
      <!-- ala_B_s -->
      <g transform="translate(823.414165 255.929688)rotate(-90)scale(0.1 -0.1)">
       <defs>
        <path d="M 19.671875 34.8125 
L 19.671875 8.109375 
L 35.5 8.109375 
Q 43.453125 8.109375 47.28125 11.40625 
Q 51.125 14.703125 51.125 21.484375 
Q 51.125 28.328125 47.28125 31.5625 
Q 43.453125 34.8125 35.5 34.8125 
z
M 19.671875 64.796875 
L 19.671875 42.828125 
L 34.28125 42.828125 
Q 41.5 42.828125 45.03125 45.53125 
Q 48.578125 48.25 48.578125 53.8125 
Q 48.578125 59.328125 45.03125 62.0625 
Q 41.5 64.796875 34.28125 64.796875 
z
M 9.8125 72.90625 
L 35.015625 72.90625 
Q 46.296875 72.90625 52.390625 68.21875 
Q 58.5 63.53125 58.5 54.890625 
Q 58.5 48.1875 55.375 44.234375 
Q 52.25 40.28125 46.1875 39.3125 
Q 53.46875 37.75 57.5 32.78125 
Q 61.53125 27.828125 61.53125 20.40625 
Q 61.53125 10.640625 54.890625 5.3125 
Q 48.25 0 35.984375 0 
L 9.8125 0 
z
" id="DejaVuSans-66"/>
       </defs>
       <use xlink:href="#DejaVuSans-97"/>
       <use x="61.279297" xlink:href="#DejaVuSans-108"/>
       <use x="89.0625" xlink:href="#DejaVuSans-97"/>
       <use x="150.341797" xlink:href="#DejaVuSans-95"/>
       <use x="200.341797" xlink:href="#DejaVuSans-66"/>
       <use x="268.945312" xlink:href="#DejaVuSans-95"/>
       <use x="318.945312" xlink:href="#DejaVuSans-115"/>
      </g>
     </g>
    </g>
    <g id="xtick_62">
     <g id="line2d_62">
      <g>
       <use style="stroke:#000000;stroke-width:0.8;" x="833.700776" xlink:href="#m970d26a24e" y="211.825"/>
      </g>
     </g>
     <g id="text_62">
      <!-- dad_2_s -->
      <g transform="translate(836.321088 259.221875)rotate(-90)scale(0.1 -0.1)">
       <use xlink:href="#DejaVuSans-100"/>
       <use x="63.476562" xlink:href="#DejaVuSans-97"/>
       <use x="124.755859" xlink:href="#DejaVuSans-100"/>
       <use x="188.232422" xlink:href="#DejaVuSans-95"/>
       <use x="238.232422" xlink:href="#DejaVuSans-50"/>
       <use x="301.855469" xlink:href="#DejaVuSans-95"/>
       <use x="351.855469" xlink:href="#DejaVuSans-115"/>
      </g>
     </g>
    </g>
    <g id="xtick_63">
     <g id="line2d_63">
      <g>
       <use style="stroke:#000000;stroke-width:0.8;" x="846.607699" xlink:href="#m970d26a24e" y="211.825"/>
      </g>
     </g>
     <g id="text_63">
      <!-- glyclt_c -->
      <g transform="translate(849.228012 256.565625)rotate(-90)scale(0.1 -0.1)">
       <use xlink:href="#DejaVuSans-103"/>
       <use x="63.476562" xlink:href="#DejaVuSans-108"/>
       <use x="91.259766" xlink:href="#DejaVuSans-121"/>
       <use x="150.439453" xlink:href="#DejaVuSans-99"/>
       <use x="205.419922" xlink:href="#DejaVuSans-108"/>
       <use x="233.203125" xlink:href="#DejaVuSans-116"/>
       <use x="272.412109" xlink:href="#DejaVuSans-95"/>
       <use x="322.412109" xlink:href="#DejaVuSans-99"/>
      </g>
     </g>
    </g>
   </g>
   <g id="matplotlib.axis_2">
    <g id="ytick_1">
     <g id="line2d_64">
      <defs>
       <path d="M 0 0 
L -3.5 0 
" id="m3417bae3ed" style="stroke:#000000;stroke-width:0.8;"/>
      </defs>
      <g>
       <use style="stroke:#000000;stroke-width:0.8;" x="39.925" xlink:href="#m3417bae3ed" y="211.825"/>
      </g>
     </g>
     <g id="text_64">
      <!-- 0.00 -->
      <g transform="translate(10.659375 215.624219)scale(0.1 -0.1)">
       <defs>
        <path d="M 31.78125 66.40625 
Q 24.171875 66.40625 20.328125 58.90625 
Q 16.5 51.421875 16.5 36.375 
Q 16.5 21.390625 20.328125 13.890625 
Q 24.171875 6.390625 31.78125 6.390625 
Q 39.453125 6.390625 43.28125 13.890625 
Q 47.125 21.390625 47.125 36.375 
Q 47.125 51.421875 43.28125 58.90625 
Q 39.453125 66.40625 31.78125 66.40625 
z
M 31.78125 74.21875 
Q 44.046875 74.21875 50.515625 64.515625 
Q 56.984375 54.828125 56.984375 36.375 
Q 56.984375 17.96875 50.515625 8.265625 
Q 44.046875 -1.421875 31.78125 -1.421875 
Q 19.53125 -1.421875 13.0625 8.265625 
Q 6.59375 17.96875 6.59375 36.375 
Q 6.59375 54.828125 13.0625 64.515625 
Q 19.53125 74.21875 31.78125 74.21875 
z
" id="DejaVuSans-48"/>
        <path d="M 10.6875 12.40625 
L 21 12.40625 
L 21 0 
L 10.6875 0 
z
" id="DejaVuSans-46"/>
       </defs>
       <use xlink:href="#DejaVuSans-48"/>
       <use x="63.623047" xlink:href="#DejaVuSans-46"/>
       <use x="95.410156" xlink:href="#DejaVuSans-48"/>
       <use x="159.033203" xlink:href="#DejaVuSans-48"/>
      </g>
     </g>
    </g>
    <g id="ytick_2">
     <g id="line2d_65">
      <g>
       <use style="stroke:#000000;stroke-width:0.8;" x="39.925" xlink:href="#m3417bae3ed" y="178.945914"/>
      </g>
     </g>
     <g id="text_65">
      <!-- 0.01 -->
      <g transform="translate(10.659375 182.745133)scale(0.1 -0.1)">
       <defs>
        <path d="M 12.40625 8.296875 
L 28.515625 8.296875 
L 28.515625 63.921875 
L 10.984375 60.40625 
L 10.984375 69.390625 
L 28.421875 72.90625 
L 38.28125 72.90625 
L 38.28125 8.296875 
L 54.390625 8.296875 
L 54.390625 0 
L 12.40625 0 
z
" id="DejaVuSans-49"/>
       </defs>
       <use xlink:href="#DejaVuSans-48"/>
       <use x="63.623047" xlink:href="#DejaVuSans-46"/>
       <use x="95.410156" xlink:href="#DejaVuSans-48"/>
       <use x="159.033203" xlink:href="#DejaVuSans-49"/>
      </g>
     </g>
    </g>
    <g id="ytick_3">
     <g id="line2d_66">
      <g>
       <use style="stroke:#000000;stroke-width:0.8;" x="39.925" xlink:href="#m3417bae3ed" y="146.066828"/>
      </g>
     </g>
     <g id="text_66">
      <!-- 0.02 -->
      <g transform="translate(10.659375 149.866047)scale(0.1 -0.1)">
       <use xlink:href="#DejaVuSans-48"/>
       <use x="63.623047" xlink:href="#DejaVuSans-46"/>
       <use x="95.410156" xlink:href="#DejaVuSans-48"/>
       <use x="159.033203" xlink:href="#DejaVuSans-50"/>
      </g>
     </g>
    </g>
    <g id="ytick_4">
     <g id="line2d_67">
      <g>
       <use style="stroke:#000000;stroke-width:0.8;" x="39.925" xlink:href="#m3417bae3ed" y="113.187742"/>
      </g>
     </g>
     <g id="text_67">
      <!-- 0.03 -->
      <g transform="translate(10.659375 116.986961)scale(0.1 -0.1)">
       <use xlink:href="#DejaVuSans-48"/>
       <use x="63.623047" xlink:href="#DejaVuSans-46"/>
       <use x="95.410156" xlink:href="#DejaVuSans-48"/>
       <use x="159.033203" xlink:href="#DejaVuSans-51"/>
      </g>
     </g>
    </g>
    <g id="ytick_5">
     <g id="line2d_68">
      <g>
       <use style="stroke:#000000;stroke-width:0.8;" x="39.925" xlink:href="#m3417bae3ed" y="80.308657"/>
      </g>
     </g>
     <g id="text_68">
      <!-- 0.04 -->
      <g transform="translate(10.659375 84.107875)scale(0.1 -0.1)">
       <use xlink:href="#DejaVuSans-48"/>
       <use x="63.623047" xlink:href="#DejaVuSans-46"/>
       <use x="95.410156" xlink:href="#DejaVuSans-48"/>
       <use x="159.033203" xlink:href="#DejaVuSans-52"/>
      </g>
     </g>
    </g>
    <g id="ytick_6">
     <g id="line2d_69">
      <g>
       <use style="stroke:#000000;stroke-width:0.8;" x="39.925" xlink:href="#m3417bae3ed" y="47.429571"/>
      </g>
     </g>
     <g id="text_69">
      <!-- 0.05 -->
      <g transform="translate(10.659375 51.228789)scale(0.1 -0.1)">
       <defs>
        <path d="M 10.796875 72.90625 
L 49.515625 72.90625 
L 49.515625 64.59375 
L 19.828125 64.59375 
L 19.828125 46.734375 
Q 21.96875 47.46875 24.109375 47.828125 
Q 26.265625 48.1875 28.421875 48.1875 
Q 40.625 48.1875 47.75 41.5 
Q 54.890625 34.8125 54.890625 23.390625 
Q 54.890625 11.625 47.5625 5.09375 
Q 40.234375 -1.421875 26.90625 -1.421875 
Q 22.3125 -1.421875 17.546875 -0.640625 
Q 12.796875 0.140625 7.71875 1.703125 
L 7.71875 11.625 
Q 12.109375 9.234375 16.796875 8.0625 
Q 21.484375 6.890625 26.703125 6.890625 
Q 35.15625 6.890625 40.078125 11.328125 
Q 45.015625 15.765625 45.015625 23.390625 
Q 45.015625 31 40.078125 35.4375 
Q 35.15625 39.890625 26.703125 39.890625 
Q 22.75 39.890625 18.8125 39.015625 
Q 14.890625 38.140625 10.796875 36.28125 
z
" id="DejaVuSans-53"/>
       </defs>
       <use xlink:href="#DejaVuSans-48"/>
       <use x="63.623047" xlink:href="#DejaVuSans-46"/>
       <use x="95.410156" xlink:href="#DejaVuSans-48"/>
       <use x="159.033203" xlink:href="#DejaVuSans-53"/>
      </g>
     </g>
    </g>
    <g id="ytick_7">
     <g id="line2d_70">
      <g>
       <use style="stroke:#000000;stroke-width:0.8;" x="39.925" xlink:href="#m3417bae3ed" y="14.550485"/>
      </g>
     </g>
     <g id="text_70">
      <!-- 0.06 -->
      <g transform="translate(10.659375 18.349704)scale(0.1 -0.1)">
       <use xlink:href="#DejaVuSans-48"/>
       <use x="63.623047" xlink:href="#DejaVuSans-46"/>
       <use x="95.410156" xlink:href="#DejaVuSans-48"/>
       <use x="159.033203" xlink:href="#DejaVuSans-54"/>
      </g>
     </g>
    </g>
   </g>
   <g id="patch_66">
    <path d="M 39.925 211.825 
L 39.925 11.659216 
" style="fill:none;stroke:#000000;stroke-linecap:square;stroke-linejoin:miter;stroke-width:0.8;"/>
   </g>
   <g id="patch_67">
    <path d="M 853.061161 211.825 
L 853.061161 11.659216 
" style="fill:none;stroke:#000000;stroke-linecap:square;stroke-linejoin:miter;stroke-width:0.8;"/>
   </g>
   <g id="patch_68">
    <path d="M 39.925 211.825 
L 853.061161 211.825 
" style="fill:none;stroke:#000000;stroke-linecap:square;stroke-linejoin:miter;stroke-width:0.8;"/>
   </g>
   <g id="patch_69">
    <path d="M 39.925 11.659216 
L 853.061161 11.659216 
" style="fill:none;stroke:#000000;stroke-linecap:square;stroke-linejoin:miter;stroke-width:0.8;"/>
   </g>
  </g>
 </g>
 <defs>
  <clipPath id="pef50b794aa">
   <rect height="200.165784" width="813.136161" x="39.925" y="11.659216"/>
  </clipPath>
 </defs>
</svg>
