<?xml version="1.0" encoding="utf-8" standalone="no"?>
<!DOCTYPE svg PUBLIC "-//W3C//DTD SVG 1.1//EN"
  "http://www.w3.org/Graphics/SVG/1.1/DTD/svg11.dtd">
<!-- Created with matplotlib (https://matplotlib.org/) -->
<svg height="288pt" version="1.1" viewBox="0 0 432 288" width="432pt" xmlns="http://www.w3.org/2000/svg" xmlns:xlink="http://www.w3.org/1999/xlink">
 <metadata>
  <rdf:RDF xmlns:cc="http://creativecommons.org/ns#" xmlns:dc="http://purl.org/dc/elements/1.1/" xmlns:rdf="http://www.w3.org/1999/02/22-rdf-syntax-ns#">
   <cc:Work>
    <dc:type rdf:resource="http://purl.org/dc/dcmitype/StillImage"/>
    <dc:date>2022-10-05T16:54:19.149680</dc:date>
    <dc:format>image/svg+xml</dc:format>
    <dc:creator>
     <cc:Agent>
      <dc:title>Matplotlib v3.3.4, https://matplotlib.org/</dc:title>
     </cc:Agent>
    </dc:creator>
   </cc:Work>
  </rdf:RDF>
 </metadata>
 <defs>
  <style type="text/css">*{stroke-linecap:butt;stroke-linejoin:round;}</style>
 </defs>
 <g id="figure_1">
  <g id="patch_1">
   <path d="M 0 288 
L 432 288 
L 432 0 
L 0 0 
z
" style="fill:#ffffff;"/>
  </g>
  <g id="axes_1">
   <g id="patch_2">
    <path clip-path="url(#pe2addaed00)" d="M 38.985201 152.527411 
Q 39.901184 157.74306 40.623775 161.857528 
" style="fill:none;stroke:#000000;stroke-linecap:round;"/>
    <path clip-path="url(#pe2addaed00)" d="M 41.901728 157.571874 
L 40.623775 161.857528 
L 37.962023 158.263772 
L 41.901728 157.571874 
z
" style="stroke:#000000;stroke-linecap:round;"/>
   </g>
   <g id="patch_3">
    <path clip-path="url(#pe2addaed00)" d="M 40.393593 152.160404 
Q 47.013645 170.750357 53.258627 188.287065 
" style="fill:none;stroke:#000000;stroke-linecap:round;"/>
    <path clip-path="url(#pe2addaed00)" d="M 53.800836 183.84792 
L 53.258627 188.287065 
L 50.032636 185.189811 
L 53.800836 183.84792 
z
" style="stroke:#000000;stroke-linecap:round;"/>
   </g>
   <g id="patch_4">
    <path clip-path="url(#pe2addaed00)" d="M 52.384835 189.903565 
Q 49.428148 184.49711 47.007911 180.071582 
" style="fill:none;stroke:#000000;stroke-linecap:round;"/>
    <path clip-path="url(#pe2addaed00)" d="M 47.172439 184.540691 
L 47.007911 180.071582 
L 50.681915 182.621426 
L 47.172439 184.540691 
z
" style="stroke:#000000;stroke-linecap:round;"/>
   </g>
   <g id="patch_5">
    <path clip-path="url(#pe2addaed00)" d="M 74.176979 213.714094 
Q 60.855119 196.06002 48.206708 179.298397 
" style="fill:none;stroke:#000000;stroke-linecap:round;"/>
    <path clip-path="url(#pe2addaed00)" d="M 49.019645 183.696025 
L 48.206708 179.298397 
L 52.212573 181.286624 
L 49.019645 183.696025 
z
" style="stroke:#000000;stroke-linecap:round;"/>
   </g>
   <g id="patch_6">
    <path clip-path="url(#pe2addaed00)" d="M 87.714414 223.015577 
Q 153.203278 241.816461 217.617516 260.308835 
" style="fill:none;stroke:#000000;stroke-linecap:round;"/>
    <path clip-path="url(#pe2addaed00)" d="M 214.324694 257.282728 
L 217.617516 260.308835 
L 213.220938 261.127429 
L 214.324694 257.282728 
z
" style="stroke:#000000;stroke-linecap:round;"/>
   </g>
   <g id="patch_7">
    <path clip-path="url(#pe2addaed00)" d="M 80.891113 212.097891 
Q 94.518301 134.504007 107.952096 58.011305 
" style="fill:none;stroke:#000000;stroke-linecap:round;"/>
    <path clip-path="url(#pe2addaed00)" d="M 105.290345 61.605061 
L 107.952096 58.011305 
L 109.23005 62.29696 
L 105.290345 61.605061 
z
" style="stroke:#000000;stroke-linecap:round;"/>
   </g>
   <g id="patch_8">
    <path clip-path="url(#pe2addaed00)" d="M 117.729062 242.727848 
Q 127.652738 246.54101 136.532773 249.953155 
" style="fill:none;stroke:#000000;stroke-linecap:round;"/>
    <path clip-path="url(#pe2addaed00)" d="M 133.516295 246.65151 
L 136.532773 249.953155 
L 132.081571 250.385351 
L 133.516295 246.65151 
z
" style="stroke:#000000;stroke-linecap:round;"/>
   </g>
   <g id="patch_9">
    <path clip-path="url(#pe2addaed00)" d="M 118.136776 241.3133 
Q 168.330307 251.314316 217.427358 261.096859 
" style="fill:none;stroke:#000000;stroke-linecap:round;"/>
    <path clip-path="url(#pe2addaed00)" d="M 213.895285 258.353783 
L 217.427358 261.096859 
L 213.113654 262.276671 
L 213.895285 258.353783 
z
" style="stroke:#000000;stroke-linecap:round;"/>
   </g>
   <g id="patch_10">
    <path clip-path="url(#pe2addaed00)" d="M 118.294892 239.956416 
Q 207.902481 243.429897 296.392876 246.860073 
" style="fill:none;stroke:#000000;stroke-linecap:round;"/>
    <path clip-path="url(#pe2addaed00)" d="M 292.473346 244.706637 
L 296.392876 246.860073 
L 292.318409 248.703635 
L 292.473346 244.706637 
z
" style="stroke:#000000;stroke-linecap:round;"/>
   </g>
   <g id="patch_11">
    <path clip-path="url(#pe2addaed00)" d="M 177.0056 259.705977 
Q 165.578374 257.429113 155.24763 255.370721 
" style="fill:none;stroke:#000000;stroke-linecap:round;"/>
    <path clip-path="url(#pe2addaed00)" d="M 158.779702 258.113797 
L 155.24763 255.370721 
L 159.561334 254.190909 
L 158.779702 258.113797 
z
" style="stroke:#000000;stroke-linecap:round;"/>
   </g>
   <g id="patch_12">
    <path clip-path="url(#pe2addaed00)" d="M 259.375366 259.211325 
Q 247.497003 260.605282 236.729054 261.868929 
" style="fill:none;stroke:#000000;stroke-linecap:round;"/>
    <path clip-path="url(#pe2addaed00)" d="M 240.934897 263.389087 
L 236.729054 261.868929 
L 240.468686 259.416349 
L 240.934897 263.389087 
z
" style="stroke:#000000;stroke-linecap:round;"/>
   </g>
   <g id="patch_13">
    <path clip-path="url(#pe2addaed00)" d="M 276.29804 255.813084 
Q 287.06959 252.72073 296.766513 249.936886 
" style="fill:none;stroke:#000000;stroke-linecap:round;"/>
    <path clip-path="url(#pe2addaed00)" d="M 292.369934 249.118293 
L 296.766513 249.936886 
L 293.473691 252.962993 
L 292.369934 249.118293 
z
" style="stroke:#000000;stroke-linecap:round;"/>
   </g>
   <g id="patch_14">
    <path clip-path="url(#pe2addaed00)" d="M 297.667547 248.931871 
Q 266.589099 255.12423 236.607132 261.098116 
" style="fill:none;stroke:#000000;stroke-linecap:round;"/>
    <path clip-path="url(#pe2addaed00)" d="M 240.920836 262.277927 
L 236.607132 261.098116 
L 240.139203 258.355039 
L 240.920836 262.277927 
z
" style="stroke:#000000;stroke-linecap:round;"/>
   </g>
   <g id="patch_15">
    <path clip-path="url(#pe2addaed00)" d="M 331.197957 233.100391 
Q 283.272404 246.859127 236.421476 260.309352 
" style="fill:none;stroke:#000000;stroke-linecap:round;"/>
    <path clip-path="url(#pe2addaed00)" d="M 240.818055 261.127944 
L 236.421476 260.309352 
L 239.714297 257.283244 
L 240.818055 261.127944 
z
" style="stroke:#000000;stroke-linecap:round;"/>
   </g>
   <g id="patch_16">
    <path clip-path="url(#pe2addaed00)" d="M 371.47177 202.595596 
Q 375.588577 197.14002 379.031937 192.576894 
" style="fill:none;stroke:#000000;stroke-linecap:round;"/>
    <path clip-path="url(#pe2addaed00)" d="M 375.026072 194.565121 
L 379.031937 192.576894 
L 378.219 196.974522 
L 375.026072 194.565121 
z
" style="stroke:#000000;stroke-linecap:round;"/>
   </g>
   <g id="patch_17">
    <path clip-path="url(#pe2addaed00)" d="M 364.757774 200.97353 
Q 352.889662 133.395966 341.214942 66.919583 
" style="fill:none;stroke:#000000;stroke-linecap:round;"/>
    <path clip-path="url(#pe2addaed00)" d="M 339.936989 71.205237 
L 341.214942 66.919583 
L 343.876694 70.513338 
L 339.936989 71.205237 
z
" style="stroke:#000000;stroke-linecap:round;"/>
   </g>
   <g id="patch_18">
    <path clip-path="url(#pe2addaed00)" d="M 360.169317 203.347379 
Q 275.880664 118.055498 192.37789 33.55885 
" style="fill:none;stroke:#000000;stroke-linecap:round;"/>
    <path clip-path="url(#pe2addaed00)" d="M 193.76698 37.809783 
L 192.37789 33.55885 
L 196.61209 34.998138 
L 193.76698 37.809783 
z
" style="stroke:#000000;stroke-linecap:round;"/>
   </g>
   <g id="patch_19">
    <path clip-path="url(#pe2addaed00)" d="M 369.16153 201.349043 
Q 380.384823 169.832574 391.233047 139.369348 
" style="fill:none;stroke:#000000;stroke-linecap:round;"/>
    <path clip-path="url(#pe2addaed00)" d="M 388.007057 142.466604 
L 391.233047 139.369348 
L 391.775257 143.808493 
L 388.007057 142.466604 
z
" style="stroke:#000000;stroke-linecap:round;"/>
   </g>
   <g id="patch_20">
    <path clip-path="url(#pe2addaed00)" d="M 378.138756 179.392543 
Q 285.213921 105.688449 193.165039 32.679124 
" style="fill:none;stroke:#000000;stroke-linecap:round;"/>
    <path clip-path="url(#pe2addaed00)" d="M 195.056104 36.731762 
L 193.165039 32.679124 
L 197.541788 33.597855 
L 195.056104 36.731762 
z
" style="stroke:#000000;stroke-linecap:round;"/>
   </g>
   <g id="patch_21">
    <path clip-path="url(#pe2addaed00)" d="M 391.607694 165.996203 
Q 389.716557 171.306757 388.200489 175.564068 
" style="fill:none;stroke:#000000;stroke-linecap:round;"/>
    <path clip-path="url(#pe2addaed00)" d="M 391.42648 172.466814 
L 388.200489 175.564068 
L 387.65828 171.124923 
L 391.42648 172.466814 
z
" style="stroke:#000000;stroke-linecap:round;"/>
   </g>
   <g id="patch_22">
    <path clip-path="url(#pe2addaed00)" d="M 390.355692 150.238679 
Q 367.01764 107.563837 344.216039 65.869923 
" style="fill:none;stroke:#000000;stroke-linecap:round;"/>
    <path clip-path="url(#pe2addaed00)" d="M 344.380567 70.339031 
L 344.216039 65.869923 
L 347.890043 68.419766 
L 344.380567 70.339031 
z
" style="stroke:#000000;stroke-linecap:round;"/>
   </g>
   <g id="patch_23">
    <path clip-path="url(#pe2addaed00)" d="M 387.180321 153.235595 
Q 290.007844 92.220682 193.782221 31.8003 
" style="fill:none;stroke:#000000;stroke-linecap:round;"/>
    <path clip-path="url(#pe2addaed00)" d="M 196.106255 35.621146 
L 193.782221 31.8003 
L 198.233318 32.233581 
L 196.106255 35.621146 
z
" style="stroke:#000000;stroke-linecap:round;"/>
   </g>
   <g id="patch_24">
    <path clip-path="url(#pe2addaed00)" d="M 394.512393 149.179639 
Q 394.512391 143.999998 394.51239 139.938391 
" style="fill:none;stroke:#000000;stroke-linecap:round;"/>
    <path clip-path="url(#pe2addaed00)" d="M 392.512391 143.938392 
L 394.51239 139.938391 
L 396.512391 143.93839 
L 392.512391 143.938392 
z
" style="stroke:#000000;stroke-linecap:round;"/>
   </g>
   <g id="patch_25">
    <path clip-path="url(#pe2addaed00)" d="M 393.014376 138.690281 
Q 389.716963 157.46592 386.612941 175.140379 
" style="fill:none;stroke:#000000;stroke-linecap:round;"/>
    <path clip-path="url(#pe2addaed00)" d="M 389.274692 171.546623 
L 386.612941 175.140379 
L 385.334987 170.854724 
L 389.274692 171.546623 
z
" style="stroke:#000000;stroke-linecap:round;"/>
   </g>
   <g id="patch_26">
    <path clip-path="url(#pe2addaed00)" d="M 389.29511 123.246624 
Q 367.018139 93.725274 345.414617 65.096375 
" style="fill:none;stroke:#000000;stroke-linecap:round;"/>
    <path clip-path="url(#pe2addaed00)" d="M 346.227553 69.494003 
L 345.414617 65.096375 
L 349.420481 67.084603 
L 346.227553 69.494003 
z
" style="stroke:#000000;stroke-linecap:round;"/>
   </g>
   <g id="patch_27">
    <path clip-path="url(#pe2addaed00)" d="M 386.752952 126.315931 
Q 290.007491 78.380977 194.263836 30.942393 
" style="fill:none;stroke:#000000;stroke-linecap:round;"/>
    <path clip-path="url(#pe2addaed00)" d="M 196.960075 34.510347 
L 194.263836 30.942393 
L 198.735943 30.926175 
L 196.960075 34.510347 
z
" style="stroke:#000000;stroke-linecap:round;"/>
   </g>
   <g id="patch_28">
    <path clip-path="url(#pe2addaed00)" d="M 384.921376 111.89288 
Q 384.921376 144.002232 384.921376 174.993549 
" style="fill:none;stroke:#000000;stroke-linecap:round;"/>
    <path clip-path="url(#pe2addaed00)" d="M 386.921376 170.993549 
L 384.921376 174.993549 
L 382.921376 170.993549 
L 386.921376 170.993549 
z
" style="stroke:#000000;stroke-linecap:round;"/>
   </g>
   <g id="patch_29">
    <path clip-path="url(#pe2addaed00)" d="M 378.833815 97.06777 
Q 362.222286 80.258524 346.396635 64.24451 
" style="fill:none;stroke:#000000;stroke-linecap:round;"/>
    <path clip-path="url(#pe2addaed00)" d="M 347.785725 68.495443 
L 346.396635 64.24451 
L 350.630836 65.683798 
L 347.785725 68.495443 
z
" style="stroke:#000000;stroke-linecap:round;"/>
   </g>
   <g id="patch_30">
    <path clip-path="url(#pe2addaed00)" d="M 376.836396 100.121143 
Q 285.21129 64.914302 194.629824 30.108479 
" style="fill:none;stroke:#000000;stroke-linecap:round;"/>
    <path clip-path="url(#pe2addaed00)" d="M 197.646303 33.410123 
L 194.629824 30.108479 
L 199.081027 29.676282 
L 197.646303 33.410123 
z
" style="stroke:#000000;stroke-linecap:round;"/>
   </g>
   <g id="patch_31">
    <path clip-path="url(#pe2addaed00)" d="M 387.826075 111.384544 
Q 389.717211 116.695088 391.233276 120.952388 
" style="fill:none;stroke:#000000;stroke-linecap:round;"/>
    <path clip-path="url(#pe2addaed00)" d="M 391.775484 116.513242 
L 391.233276 120.952388 
L 388.007285 117.855134 
L 391.775484 116.513242 
z
" style="stroke:#000000;stroke-linecap:round;"/>
   </g>
   <g id="patch_32">
    <path clip-path="url(#pe2addaed00)" d="M 367.753942 87.019931 
Q 375.588732 131.63165 383.230131 175.142188 
" style="fill:none;stroke:#000000;stroke-linecap:round;"/>
    <path clip-path="url(#pe2addaed00)" d="M 384.508085 170.856534 
L 383.230131 175.142188 
L 380.56838 171.548432 
L 384.508085 170.856534 
z
" style="stroke:#000000;stroke-linecap:round;"/>
   </g>
   <g id="patch_33">
    <path clip-path="url(#pe2addaed00)" d="M 357.929755 76.102609 
Q 275.876866 52.546425 194.898604 29.298751 
" style="fill:none;stroke:#000000;stroke-linecap:round;"/>
    <path clip-path="url(#pe2addaed00)" d="M 198.191426 32.324858 
L 194.898604 29.298751 
L 199.295183 28.480158 
L 198.191426 32.324858 
z
" style="stroke:#000000;stroke-linecap:round;"/>
   </g>
   <g id="patch_34">
    <path clip-path="url(#pe2addaed00)" d="M 342.42898 65.448096 
Q 362.222153 121.029882 381.640256 175.558425 
" style="fill:none;stroke:#000000;stroke-linecap:round;"/>
    <path clip-path="url(#pe2addaed00)" d="M 382.182466 171.11928 
L 381.640256 175.558425 
L 378.414266 172.46117 
L 382.182466 171.11928 
z
" style="stroke:#000000;stroke-linecap:round;"/>
   </g>
   <g id="patch_35">
    <path clip-path="url(#pe2addaed00)" d="M 331.030172 55.597476 
Q 262.514064 41.945705 195.094436 28.512407 
" style="fill:none;stroke:#000000;stroke-linecap:round;"/>
    <path clip-path="url(#pe2addaed00)" d="M 198.626508 31.255483 
L 195.094436 28.512407 
L 199.40814 27.332595 
L 198.626508 31.255483 
z
" style="stroke:#000000;stroke-linecap:round;"/>
   </g>
   <g id="patch_36">
    <path clip-path="url(#pe2addaed00)" d="M 344.741017 64.203724 
Q 367.017988 93.725074 388.621511 122.353973 
" style="fill:none;stroke:#000000;stroke-linecap:round;"/>
    <path clip-path="url(#pe2addaed00)" d="M 387.808574 117.956345 
L 388.621511 122.353973 
L 384.615646 120.365745 
L 387.808574 117.956345 
z
" style="stroke:#000000;stroke-linecap:round;"/>
   </g>
   <g id="patch_37">
    <path clip-path="url(#pe2addaed00)" d="M 310.318871 48.357665 
Q 345.542646 112.766173 380.22997 176.193753 
" style="fill:none;stroke:#000000;stroke-linecap:round;"/>
    <path clip-path="url(#pe2addaed00)" d="M 380.065443 171.724645 
L 380.22997 176.193753 
L 376.555967 173.64391 
L 380.065443 171.724645 
z
" style="stroke:#000000;stroke-linecap:round;"/>
   </g>
   <g id="patch_38">
    <path clip-path="url(#pe2addaed00)" d="M 313.921969 44.604777 
Q 322.842899 49.024874 330.762023 52.9486 
" style="fill:none;stroke:#000000;stroke-linecap:round;"/>
    <path clip-path="url(#pe2addaed00)" d="M 328.065784 49.380646 
L 330.762023 52.9486 
L 326.289916 52.964819 
L 328.065784 49.380646 
z
" style="stroke:#000000;stroke-linecap:round;"/>
   </g>
   <g id="patch_39">
    <path clip-path="url(#pe2addaed00)" d="M 297.566241 39.752111 
Q 245.834683 33.681298 195.213538 27.740794 
" style="fill:none;stroke:#000000;stroke-linecap:round;"/>
    <path clip-path="url(#pe2addaed00)" d="M 198.953171 30.193373 
L 195.213538 27.740794 
L 199.419381 26.220635 
L 198.953171 30.193373 
z
" style="stroke:#000000;stroke-linecap:round;"/>
   </g>
   <g id="patch_40">
    <path clip-path="url(#pe2addaed00)" d="M 312.249716 46.9188 
Q 350.337121 85.45951 387.638648 123.204988 
" style="fill:none;stroke:#000000;stroke-linecap:round;"/>
    <path clip-path="url(#pe2addaed00)" d="M 386.249556 118.954056 
L 387.638648 123.204988 
L 383.404447 121.765702 
L 386.249556 118.954056 
z
" style="stroke:#000000;stroke-linecap:round;"/>
   </g>
   <g id="patch_41">
    <path clip-path="url(#pe2addaed00)" d="M 273.193091 36.710197 
Q 326.449683 107.285697 379.032828 176.968745 
" style="fill:none;stroke:#000000;stroke-linecap:round;"/>
    <path clip-path="url(#pe2addaed00)" d="M 378.219894 172.571116 
L 379.032828 176.968745 
L 375.026965 174.980515 
L 378.219894 172.571116 
z
" style="stroke:#000000;stroke-linecap:round;"/>
   </g>
   <g id="patch_42">
    <path clip-path="url(#pe2addaed00)" d="M 276.060258 32.904031 
Q 303.749999 43.543787 330.396099 53.782525 
" style="fill:none;stroke:#000000;stroke-linecap:round;"/>
    <path clip-path="url(#pe2addaed00)" d="M 327.379621 50.48088 
L 330.396099 53.782525 
L 325.944897 54.21472 
L 327.379621 50.48088 
z
" style="stroke:#000000;stroke-linecap:round;"/>
   </g>
   <g id="patch_43">
    <path clip-path="url(#pe2addaed00)" d="M 259.321443 29.462603 
Q 226.739333 28.199616 195.274418 26.979934 
" style="fill:none;stroke:#000000;stroke-linecap:round;"/>
    <path clip-path="url(#pe2addaed00)" d="M 199.193948 29.13337 
L 195.274418 26.979934 
L 199.348885 25.136372 
L 199.193948 29.13337 
z
" style="stroke:#000000;stroke-linecap:round;"/>
   </g>
   <g id="patch_44">
    <path clip-path="url(#pe2addaed00)" d="M 259.375369 28.788681 
Q 247.496982 27.394722 236.729009 26.131073 
" style="fill:none;stroke:#000000;stroke-linecap:round;"/>
    <path clip-path="url(#pe2addaed00)" d="M 240.468641 28.583652 
L 236.729009 26.131073 
L 240.934852 24.610914 
L 240.468641 28.583652 
z
" style="stroke:#000000;stroke-linecap:round;"/>
   </g>
   <g id="patch_45">
    <path clip-path="url(#pe2addaed00)" d="M 233.10884 31.152705 
Q 305.972418 104.883563 378.050117 177.819187 
" style="fill:none;stroke:#000000;stroke-linecap:round;"/>
    <path clip-path="url(#pe2addaed00)" d="M 376.661028 173.568254 
L 378.050117 177.819187 
L 373.815917 176.379898 
L 376.661028 173.568254 
z
" style="stroke:#000000;stroke-linecap:round;"/>
   </g>
   <g id="patch_46">
    <path clip-path="url(#pe2addaed00)" d="M 235.346169 27.381959 
Q 283.271731 41.140685 330.122667 54.590901 
" style="fill:none;stroke:#000000;stroke-linecap:round;"/>
    <path clip-path="url(#pe2addaed00)" d="M 326.829845 51.564794 
L 330.122667 54.590901 
L 325.726088 55.409494 
L 326.829845 51.564794 
z
" style="stroke:#000000;stroke-linecap:round;"/>
   </g>
   <g id="patch_47">
    <path clip-path="url(#pe2addaed00)" d="M 218.366463 25.327188 
Q 206.260932 25.796439 195.272596 26.222383 
" style="fill:none;stroke:#000000;stroke-linecap:round;"/>
    <path clip-path="url(#pe2addaed00)" d="M 199.347062 28.065945 
L 195.272596 26.222383 
L 199.192126 24.068947 
L 199.347062 28.065945 
z
" style="stroke:#000000;stroke-linecap:round;"/>
   </g>
   <g id="patch_48">
    <path clip-path="url(#pe2addaed00)" d="M 235.622183 26.001184 
Q 247.500571 27.395143 258.268544 28.658792 
" style="fill:none;stroke:#000000;stroke-linecap:round;"/>
    <path clip-path="url(#pe2addaed00)" d="M 254.528912 26.206212 
L 258.268544 28.658792 
L 254.062701 30.17895 
L 254.528912 26.206212 
z
" style="stroke:#000000;stroke-linecap:round;"/>
   </g>
   <g id="patch_49">
    <path clip-path="url(#pe2addaed00)" d="M 192.284622 31.980814 
Q 285.209458 105.684909 377.25834 178.694233 
" style="fill:none;stroke:#000000;stroke-linecap:round;"/>
    <path clip-path="url(#pe2addaed00)" d="M 375.367275 174.641596 
L 377.25834 178.694233 
L 372.881591 177.775503 
L 375.367275 174.641596 
z
" style="stroke:#000000;stroke-linecap:round;"/>
   </g>
   <g id="patch_50">
    <path clip-path="url(#pe2addaed00)" d="M 137.575294 37.646271 
Q 127.651619 41.459432 118.771583 44.871574 
" style="fill:none;stroke:#000000;stroke-linecap:round;"/>
    <path clip-path="url(#pe2addaed00)" d="M 123.222786 45.303771 
L 118.771583 44.871574 
L 121.788062 41.56993 
L 123.222786 45.303771 
z
" style="stroke:#000000;stroke-linecap:round;"/>
   </g>
   <g id="patch_51">
    <path clip-path="url(#pe2addaed00)" d="M 86.730603 62.766178 
Q 94.518892 57.875884 101.360328 53.580123 
" style="fill:none;stroke:#000000;stroke-linecap:round;"/>
    <path clip-path="url(#pe2addaed00)" d="M 96.90923 54.013404 
L 101.360328 53.580123 
L 99.036295 57.400969 
L 96.90923 54.013404 
z
" style="stroke:#000000;stroke-linecap:round;"/>
   </g>
   <g id="patch_52">
    <path clip-path="url(#pe2addaed00)" d="M 63.323713 85.118061 
Q 83.092565 69.43823 101.985464 54.453168 
" style="fill:none;stroke:#000000;stroke-linecap:round;"/>
    <path clip-path="url(#pe2addaed00)" d="M 97.608715 55.371899 
L 101.985464 54.453168 
L 100.094399 58.505806 
L 97.608715 55.371899 
z
" style="stroke:#000000;stroke-linecap:round;"/>
   </g>
   <g id="patch_53">
    <path clip-path="url(#pe2addaed00)" d="M 48.4038 110.34777 
Q 75.98028 82.44307 102.770882 55.333603 
" style="fill:none;stroke:#000000;stroke-linecap:round;"/>
    <path clip-path="url(#pe2addaed00)" d="M 98.536682 56.77289 
L 102.770882 55.333603 
L 101.381792 59.584536 
L 98.536682 56.77289 
z
" style="stroke:#000000;stroke-linecap:round;"/>
   </g>
   <g id="PathCollection_1">
    <defs>
     <path d="M 0 8.660254 
C 2.296726 8.660254 4.499694 7.747755 6.123724 6.123724 
C 7.747755 4.499694 8.660254 2.296726 8.660254 -0 
C 8.660254 -2.296726 7.747755 -4.499694 6.123724 -6.123724 
C 4.499694 -7.747755 2.296726 -8.660254 0 -8.660254 
C -2.296726 -8.660254 -4.499694 -7.747755 -6.123724 -6.123724 
C -7.747755 -4.499694 -8.660254 -2.296726 -8.660254 0 
C -8.660254 2.296726 -7.747755 4.499694 -6.123724 6.123724 
C -4.499694 7.747755 -2.296726 8.660254 0 8.660254 
z
" id="C0_0_ac596423cb"/>
    </defs>
    <g clip-path="url(#pe2addaed00)">
     <use style="fill:#808080;stroke:#808080;" x="37.487603" xlink:href="#C0_0_ac596423cb" y="144.000014"/>
    </g>
    <g clip-path="url(#pe2addaed00)">
     <use style="fill:#0000ff;stroke:#0000ff;" x="42.315751" xlink:href="#C0_0_ac596423cb" y="171.491724"/>
    </g>
    <g clip-path="url(#pe2addaed00)">
     <use style="fill:#0000ff;stroke:#0000ff;" x="56.539917" xlink:href="#C0_0_ac596423cb" y="197.501347"/>
    </g>
    <g clip-path="url(#pe2addaed00)">
     <use style="fill:#808080;stroke:#808080;" x="79.393268" xlink:href="#C0_0_ac596423cb" y="220.626699"/>
    </g>
    <g clip-path="url(#pe2addaed00)">
     <use style="fill:#808080;stroke:#808080;" x="109.643731" xlink:href="#C0_0_ac596423cb" y="239.621068"/>
    </g>
    <g clip-path="url(#pe2addaed00)">
     <use style="fill:#0000ff;stroke:#0000ff;" x="145.660604" xlink:href="#C0_0_ac596423cb" y="253.460514"/>
    </g>
    <g clip-path="url(#pe2addaed00)">
     <use style="fill:#808080;stroke:#808080;" x="185.502064" xlink:href="#C0_0_ac596423cb" y="261.39889"/>
    </g>
    <g clip-path="url(#pe2addaed00)">
     <use style="fill:#0000ff;stroke:#0000ff;" x="227.020403" xlink:href="#C0_0_ac596423cb" y="263.008264"/>
    </g>
    <g clip-path="url(#pe2addaed00)">
     <use style="fill:#808080;stroke:#808080;" x="267.977191" xlink:href="#C0_0_ac596423cb" y="258.201878"/>
    </g>
    <g clip-path="url(#pe2addaed00)">
     <use style="fill:#0000ff;stroke:#0000ff;" x="306.164527" xlink:href="#C0_0_ac596423cb" y="247.238854"/>
    </g>
    <g clip-path="url(#pe2addaed00)">
     <use style="fill:#808080;stroke:#808080;" x="339.523784" xlink:href="#C0_0_ac596423cb" y="230.710167"/>
    </g>
    <g clip-path="url(#pe2addaed00)">
     <use style="fill:#808080;stroke:#808080;" x="366.25643" xlink:href="#C0_0_ac596423cb" y="209.506942"/>
    </g>
    <g clip-path="url(#pe2addaed00)">
     <use style="fill:#0000ff;stroke:#0000ff;" x="384.921376" xlink:href="#C0_0_ac596423cb" y="184.772234"/>
    </g>
    <g clip-path="url(#pe2addaed00)">
     <use style="fill:#808080;stroke:#808080;" x="394.512397" xlink:href="#C0_0_ac596423cb" y="157.839429"/>
    </g>
    <g clip-path="url(#pe2addaed00)">
     <use style="fill:#0000ff;stroke:#0000ff;" x="394.512386" xlink:href="#C0_0_ac596423cb" y="130.160536"/>
    </g>
    <g clip-path="url(#pe2addaed00)">
     <use style="fill:#808080;stroke:#808080;" x="384.921376" xlink:href="#C0_0_ac596423cb" y="103.227788"/>
    </g>
    <g clip-path="url(#pe2addaed00)">
     <use style="fill:#808080;stroke:#808080;" x="366.256441" xlink:href="#C0_0_ac596423cb" y="78.493079"/>
    </g>
    <g clip-path="url(#pe2addaed00)">
     <use style="fill:#0000ff;stroke:#0000ff;" x="339.523742" xlink:href="#C0_0_ac596423cb" y="57.289812"/>
    </g>
    <g clip-path="url(#pe2addaed00)">
     <use style="fill:#808080;stroke:#808080;" x="306.164473" xlink:href="#C0_0_ac596423cb" y="40.761132"/>
    </g>
    <g clip-path="url(#pe2addaed00)">
     <use style="fill:#0000ff;stroke:#0000ff;" x="267.977212" xlink:href="#C0_0_ac596423cb" y="29.798129"/>
    </g>
    <g clip-path="url(#pe2addaed00)">
     <use style="fill:#0000ff;stroke:#0000ff;" x="227.02034" xlink:href="#C0_0_ac596423cb" y="24.991736"/>
    </g>
    <g clip-path="url(#pe2addaed00)">
     <use style="fill:#0000ff;stroke:#0000ff;" x="185.502002" xlink:href="#C0_0_ac596423cb" y="26.601124"/>
    </g>
    <g clip-path="url(#pe2addaed00)">
     <use style="fill:#808080;stroke:#808080;" x="145.660625" xlink:href="#C0_0_ac596423cb" y="34.539493"/>
    </g>
    <g clip-path="url(#pe2addaed00)">
     <use style="fill:#0000ff;stroke:#0000ff;" x="109.643752" xlink:href="#C0_0_ac596423cb" y="48.378932"/>
    </g>
    <g clip-path="url(#pe2addaed00)">
     <use style="fill:#808080;stroke:#808080;" x="79.393225" xlink:href="#C0_0_ac596423cb" y="67.373343"/>
    </g>
    <g clip-path="url(#pe2addaed00)">
     <use style="fill:#808080;stroke:#808080;" x="56.539874" xlink:href="#C0_0_ac596423cb" y="90.498721"/>
    </g>
    <g clip-path="url(#pe2addaed00)">
     <use style="fill:#808080;stroke:#808080;" x="42.315761" xlink:href="#C0_0_ac596423cb" y="116.508269"/>
    </g>
   </g>
   <g id="text_1">
    <g clip-path="url(#pe2addaed00)">
     <!-- fadA -->
     <g transform="translate(23.785103 147.311264)scale(0.12 -0.12)">
      <defs>
       <path d="M 37.109375 75.984375 
L 37.109375 68.5 
L 28.515625 68.5 
Q 23.6875 68.5 21.796875 66.546875 
Q 19.921875 64.59375 19.921875 59.515625 
L 19.921875 54.6875 
L 34.71875 54.6875 
L 34.71875 47.703125 
L 19.921875 47.703125 
L 19.921875 0 
L 10.890625 0 
L 10.890625 47.703125 
L 2.296875 47.703125 
L 2.296875 54.6875 
L 10.890625 54.6875 
L 10.890625 58.5 
Q 10.890625 67.625 15.140625 71.796875 
Q 19.390625 75.984375 28.609375 75.984375 
z
" id="DejaVuSans-102"/>
       <path d="M 34.28125 27.484375 
Q 23.390625 27.484375 19.1875 25 
Q 14.984375 22.515625 14.984375 16.5 
Q 14.984375 11.71875 18.140625 8.90625 
Q 21.296875 6.109375 26.703125 6.109375 
Q 34.1875 6.109375 38.703125 11.40625 
Q 43.21875 16.703125 43.21875 25.484375 
L 43.21875 27.484375 
z
M 52.203125 31.203125 
L 52.203125 0 
L 43.21875 0 
L 43.21875 8.296875 
Q 40.140625 3.328125 35.546875 0.953125 
Q 30.953125 -1.421875 24.3125 -1.421875 
Q 15.921875 -1.421875 10.953125 3.296875 
Q 6 8.015625 6 15.921875 
Q 6 25.140625 12.171875 29.828125 
Q 18.359375 34.515625 30.609375 34.515625 
L 43.21875 34.515625 
L 43.21875 35.40625 
Q 43.21875 41.609375 39.140625 45 
Q 35.0625 48.390625 27.6875 48.390625 
Q 23 48.390625 18.546875 47.265625 
Q 14.109375 46.140625 10.015625 43.890625 
L 10.015625 52.203125 
Q 14.9375 54.109375 19.578125 55.046875 
Q 24.21875 56 28.609375 56 
Q 40.484375 56 46.34375 49.84375 
Q 52.203125 43.703125 52.203125 31.203125 
z
" id="DejaVuSans-97"/>
       <path d="M 45.40625 46.390625 
L 45.40625 75.984375 
L 54.390625 75.984375 
L 54.390625 0 
L 45.40625 0 
L 45.40625 8.203125 
Q 42.578125 3.328125 38.25 0.953125 
Q 33.9375 -1.421875 27.875 -1.421875 
Q 17.96875 -1.421875 11.734375 6.484375 
Q 5.515625 14.40625 5.515625 27.296875 
Q 5.515625 40.1875 11.734375 48.09375 
Q 17.96875 56 27.875 56 
Q 33.9375 56 38.25 53.625 
Q 42.578125 51.265625 45.40625 46.390625 
z
M 14.796875 27.296875 
Q 14.796875 17.390625 18.875 11.75 
Q 22.953125 6.109375 30.078125 6.109375 
Q 37.203125 6.109375 41.296875 11.75 
Q 45.40625 17.390625 45.40625 27.296875 
Q 45.40625 37.203125 41.296875 42.84375 
Q 37.203125 48.484375 30.078125 48.484375 
Q 22.953125 48.484375 18.875 42.84375 
Q 14.796875 37.203125 14.796875 27.296875 
z
" id="DejaVuSans-100"/>
       <path d="M 34.1875 63.1875 
L 20.796875 26.90625 
L 47.609375 26.90625 
z
M 28.609375 72.90625 
L 39.796875 72.90625 
L 67.578125 0 
L 57.328125 0 
L 50.6875 18.703125 
L 17.828125 18.703125 
L 11.1875 0 
L 0.78125 0 
z
" id="DejaVuSans-65"/>
      </defs>
      <use xlink:href="#DejaVuSans-102"/>
      <use x="35.205078" xlink:href="#DejaVuSans-97"/>
      <use x="96.484375" xlink:href="#DejaVuSans-100"/>
      <use x="159.960938" xlink:href="#DejaVuSans-65"/>
     </g>
    </g>
   </g>
   <g id="text_2">
    <g clip-path="url(#pe2addaed00)">
     <!-- acdA -->
     <g transform="translate(27.426376 174.802974)scale(0.12 -0.12)">
      <defs>
       <path d="M 48.78125 52.59375 
L 48.78125 44.1875 
Q 44.96875 46.296875 41.140625 47.34375 
Q 37.3125 48.390625 33.40625 48.390625 
Q 24.65625 48.390625 19.8125 42.84375 
Q 14.984375 37.3125 14.984375 27.296875 
Q 14.984375 17.28125 19.8125 11.734375 
Q 24.65625 6.203125 33.40625 6.203125 
Q 37.3125 6.203125 41.140625 7.25 
Q 44.96875 8.296875 48.78125 10.40625 
L 48.78125 2.09375 
Q 45.015625 0.34375 40.984375 -0.53125 
Q 36.96875 -1.421875 32.421875 -1.421875 
Q 20.0625 -1.421875 12.78125 6.34375 
Q 5.515625 14.109375 5.515625 27.296875 
Q 5.515625 40.671875 12.859375 48.328125 
Q 20.21875 56 33.015625 56 
Q 37.15625 56 41.109375 55.140625 
Q 45.0625 54.296875 48.78125 52.59375 
z
" id="DejaVuSans-99"/>
      </defs>
      <use xlink:href="#DejaVuSans-97"/>
      <use x="61.279297" xlink:href="#DejaVuSans-99"/>
      <use x="116.259766" xlink:href="#DejaVuSans-100"/>
      <use x="179.736328" xlink:href="#DejaVuSans-65"/>
     </g>
    </g>
   </g>
   <g id="text_3">
    <g clip-path="url(#pe2addaed00)">
     <!-- fadN -->
     <g transform="translate(42.453042 200.812597)scale(0.12 -0.12)">
      <defs>
       <path d="M 9.8125 72.90625 
L 23.09375 72.90625 
L 55.421875 11.921875 
L 55.421875 72.90625 
L 64.984375 72.90625 
L 64.984375 0 
L 51.703125 0 
L 19.390625 60.984375 
L 19.390625 0 
L 9.8125 0 
z
" id="DejaVuSans-78"/>
      </defs>
      <use xlink:href="#DejaVuSans-102"/>
      <use x="35.205078" xlink:href="#DejaVuSans-97"/>
      <use x="96.484375" xlink:href="#DejaVuSans-100"/>
      <use x="159.960938" xlink:href="#DejaVuSans-78"/>
     </g>
    </g>
   </g>
   <g id="text_4">
    <g clip-path="url(#pe2addaed00)">
     <!-- era -->
     <g transform="translate(69.557955 223.937949)scale(0.12 -0.12)">
      <defs>
       <path d="M 56.203125 29.59375 
L 56.203125 25.203125 
L 14.890625 25.203125 
Q 15.484375 15.921875 20.484375 11.0625 
Q 25.484375 6.203125 34.421875 6.203125 
Q 39.59375 6.203125 44.453125 7.46875 
Q 49.3125 8.734375 54.109375 11.28125 
L 54.109375 2.78125 
Q 49.265625 0.734375 44.1875 -0.34375 
Q 39.109375 -1.421875 33.890625 -1.421875 
Q 20.796875 -1.421875 13.15625 6.1875 
Q 5.515625 13.8125 5.515625 26.8125 
Q 5.515625 40.234375 12.765625 48.109375 
Q 20.015625 56 32.328125 56 
Q 43.359375 56 49.78125 48.890625 
Q 56.203125 41.796875 56.203125 29.59375 
z
M 47.21875 32.234375 
Q 47.125 39.59375 43.09375 43.984375 
Q 39.0625 48.390625 32.421875 48.390625 
Q 24.90625 48.390625 20.390625 44.140625 
Q 15.875 39.890625 15.1875 32.171875 
z
" id="DejaVuSans-101"/>
       <path d="M 41.109375 46.296875 
Q 39.59375 47.171875 37.8125 47.578125 
Q 36.03125 48 33.890625 48 
Q 26.265625 48 22.1875 43.046875 
Q 18.109375 38.09375 18.109375 28.8125 
L 18.109375 0 
L 9.078125 0 
L 9.078125 54.6875 
L 18.109375 54.6875 
L 18.109375 46.1875 
Q 20.953125 51.171875 25.484375 53.578125 
Q 30.03125 56 36.53125 56 
Q 37.453125 56 38.578125 55.875 
Q 39.703125 55.765625 41.0625 55.515625 
z
" id="DejaVuSans-114"/>
      </defs>
      <use xlink:href="#DejaVuSans-101"/>
      <use x="61.523438" xlink:href="#DejaVuSans-114"/>
      <use x="102.636719" xlink:href="#DejaVuSans-97"/>
     </g>
    </g>
   </g>
   <g id="text_5">
    <g clip-path="url(#pe2addaed00)">
     <!-- sufU -->
     <g transform="translate(96.212168 242.932318)scale(0.12 -0.12)">
      <defs>
       <path d="M 44.28125 53.078125 
L 44.28125 44.578125 
Q 40.484375 46.53125 36.375 47.5 
Q 32.28125 48.484375 27.875 48.484375 
Q 21.1875 48.484375 17.84375 46.4375 
Q 14.5 44.390625 14.5 40.28125 
Q 14.5 37.15625 16.890625 35.375 
Q 19.28125 33.59375 26.515625 31.984375 
L 29.59375 31.296875 
Q 39.15625 29.25 43.1875 25.515625 
Q 47.21875 21.78125 47.21875 15.09375 
Q 47.21875 7.46875 41.1875 3.015625 
Q 35.15625 -1.421875 24.609375 -1.421875 
Q 20.21875 -1.421875 15.453125 -0.5625 
Q 10.6875 0.296875 5.421875 2 
L 5.421875 11.28125 
Q 10.40625 8.6875 15.234375 7.390625 
Q 20.0625 6.109375 24.8125 6.109375 
Q 31.15625 6.109375 34.5625 8.28125 
Q 37.984375 10.453125 37.984375 14.40625 
Q 37.984375 18.0625 35.515625 20.015625 
Q 33.0625 21.96875 24.703125 23.78125 
L 21.578125 24.515625 
Q 13.234375 26.265625 9.515625 29.90625 
Q 5.8125 33.546875 5.8125 39.890625 
Q 5.8125 47.609375 11.28125 51.796875 
Q 16.75 56 26.8125 56 
Q 31.78125 56 36.171875 55.265625 
Q 40.578125 54.546875 44.28125 53.078125 
z
" id="DejaVuSans-115"/>
       <path d="M 8.5 21.578125 
L 8.5 54.6875 
L 17.484375 54.6875 
L 17.484375 21.921875 
Q 17.484375 14.15625 20.5 10.265625 
Q 23.53125 6.390625 29.59375 6.390625 
Q 36.859375 6.390625 41.078125 11.03125 
Q 45.3125 15.671875 45.3125 23.6875 
L 45.3125 54.6875 
L 54.296875 54.6875 
L 54.296875 0 
L 45.3125 0 
L 45.3125 8.40625 
Q 42.046875 3.421875 37.71875 1 
Q 33.40625 -1.421875 27.6875 -1.421875 
Q 18.265625 -1.421875 13.375 4.4375 
Q 8.5 10.296875 8.5 21.578125 
z
M 31.109375 56 
z
" id="DejaVuSans-117"/>
       <path d="M 8.6875 72.90625 
L 18.609375 72.90625 
L 18.609375 28.609375 
Q 18.609375 16.890625 22.84375 11.734375 
Q 27.09375 6.59375 36.625 6.59375 
Q 46.09375 6.59375 50.34375 11.734375 
Q 54.59375 16.890625 54.59375 28.609375 
L 54.59375 72.90625 
L 64.5 72.90625 
L 64.5 27.390625 
Q 64.5 13.140625 57.4375 5.859375 
Q 50.390625 -1.421875 36.625 -1.421875 
Q 22.796875 -1.421875 15.734375 5.859375 
Q 8.6875 13.140625 8.6875 27.390625 
z
" id="DejaVuSans-85"/>
      </defs>
      <use xlink:href="#DejaVuSans-115"/>
      <use x="52.099609" xlink:href="#DejaVuSans-117"/>
      <use x="115.478516" xlink:href="#DejaVuSans-102"/>
      <use x="150.683594" xlink:href="#DejaVuSans-85"/>
     </g>
    </g>
   </g>
   <g id="text_6">
    <g clip-path="url(#pe2addaed00)">
     <!-- citB -->
     <g transform="translate(134.225916 256.771764)scale(0.12 -0.12)">
      <defs>
       <path d="M 9.421875 54.6875 
L 18.40625 54.6875 
L 18.40625 0 
L 9.421875 0 
z
M 9.421875 75.984375 
L 18.40625 75.984375 
L 18.40625 64.59375 
L 9.421875 64.59375 
z
" id="DejaVuSans-105"/>
       <path d="M 18.3125 70.21875 
L 18.3125 54.6875 
L 36.8125 54.6875 
L 36.8125 47.703125 
L 18.3125 47.703125 
L 18.3125 18.015625 
Q 18.3125 11.328125 20.140625 9.421875 
Q 21.96875 7.515625 27.59375 7.515625 
L 36.8125 7.515625 
L 36.8125 0 
L 27.59375 0 
Q 17.1875 0 13.234375 3.875 
Q 9.28125 7.765625 9.28125 18.015625 
L 9.28125 47.703125 
L 2.6875 47.703125 
L 2.6875 54.6875 
L 9.28125 54.6875 
L 9.28125 70.21875 
z
" id="DejaVuSans-116"/>
       <path d="M 19.671875 34.8125 
L 19.671875 8.109375 
L 35.5 8.109375 
Q 43.453125 8.109375 47.28125 11.40625 
Q 51.125 14.703125 51.125 21.484375 
Q 51.125 28.328125 47.28125 31.5625 
Q 43.453125 34.8125 35.5 34.8125 
z
M 19.671875 64.796875 
L 19.671875 42.828125 
L 34.28125 42.828125 
Q 41.5 42.828125 45.03125 45.53125 
Q 48.578125 48.25 48.578125 53.8125 
Q 48.578125 59.328125 45.03125 62.0625 
Q 41.5 64.796875 34.28125 64.796875 
z
M 9.8125 72.90625 
L 35.015625 72.90625 
Q 46.296875 72.90625 52.390625 68.21875 
Q 58.5 63.53125 58.5 54.890625 
Q 58.5 48.1875 55.375 44.234375 
Q 52.25 40.28125 46.1875 39.3125 
Q 53.46875 37.75 57.5 32.78125 
Q 61.53125 27.828125 61.53125 20.40625 
Q 61.53125 10.640625 54.890625 5.3125 
Q 48.25 0 35.984375 0 
L 9.8125 0 
z
" id="DejaVuSans-66"/>
      </defs>
      <use xlink:href="#DejaVuSans-99"/>
      <use x="54.980469" xlink:href="#DejaVuSans-105"/>
      <use x="82.763672" xlink:href="#DejaVuSans-116"/>
      <use x="121.972656" xlink:href="#DejaVuSans-66"/>
     </g>
    </g>
   </g>
   <g id="text_7">
    <g clip-path="url(#pe2addaed00)">
     <!-- icd -->
     <g transform="translate(176.727064 264.71014)scale(0.12 -0.12)">
      <use xlink:href="#DejaVuSans-105"/>
      <use x="27.783203" xlink:href="#DejaVuSans-99"/>
      <use x="82.763672" xlink:href="#DejaVuSans-100"/>
     </g>
    </g>
   </g>
   <g id="text_8">
    <g clip-path="url(#pe2addaed00)">
     <!-- ilvB -->
     <g transform="translate(216.01884 266.319514)scale(0.12 -0.12)">
      <defs>
       <path d="M 9.421875 75.984375 
L 18.40625 75.984375 
L 18.40625 0 
L 9.421875 0 
z
" id="DejaVuSans-108"/>
       <path d="M 2.984375 54.6875 
L 12.5 54.6875 
L 29.59375 8.796875 
L 46.6875 54.6875 
L 56.203125 54.6875 
L 35.6875 0 
L 23.484375 0 
z
" id="DejaVuSans-118"/>
      </defs>
      <use xlink:href="#DejaVuSans-105"/>
      <use x="27.783203" xlink:href="#DejaVuSans-108"/>
      <use x="55.566406" xlink:href="#DejaVuSans-118"/>
      <use x="114.746094" xlink:href="#DejaVuSans-66"/>
     </g>
    </g>
   </g>
   <g id="text_9">
    <g clip-path="url(#pe2addaed00)">
     <!-- ilvD -->
     <g transform="translate(256.472191 261.513128)scale(0.12 -0.12)">
      <defs>
       <path d="M 19.671875 64.796875 
L 19.671875 8.109375 
L 31.59375 8.109375 
Q 46.6875 8.109375 53.6875 14.9375 
Q 60.6875 21.78125 60.6875 36.53125 
Q 60.6875 51.171875 53.6875 57.984375 
Q 46.6875 64.796875 31.59375 64.796875 
z
M 9.8125 72.90625 
L 30.078125 72.90625 
Q 51.265625 72.90625 61.171875 64.09375 
Q 71.09375 55.28125 71.09375 36.53125 
Q 71.09375 17.671875 61.125 8.828125 
Q 51.171875 0 30.078125 0 
L 9.8125 0 
z
" id="DejaVuSans-68"/>
      </defs>
      <use xlink:href="#DejaVuSans-105"/>
      <use x="27.783203" xlink:href="#DejaVuSans-108"/>
      <use x="55.566406" xlink:href="#DejaVuSans-118"/>
      <use x="114.746094" xlink:href="#DejaVuSans-68"/>
     </g>
    </g>
   </g>
   <g id="text_10">
    <g clip-path="url(#pe2addaed00)">
     <!-- ilvC -->
     <g transform="translate(295.089839 250.550104)scale(0.12 -0.12)">
      <defs>
       <path d="M 64.40625 67.28125 
L 64.40625 56.890625 
Q 59.421875 61.53125 53.78125 63.8125 
Q 48.140625 66.109375 41.796875 66.109375 
Q 29.296875 66.109375 22.65625 58.46875 
Q 16.015625 50.828125 16.015625 36.375 
Q 16.015625 21.96875 22.65625 14.328125 
Q 29.296875 6.6875 41.796875 6.6875 
Q 48.140625 6.6875 53.78125 8.984375 
Q 59.421875 11.28125 64.40625 15.921875 
L 64.40625 5.609375 
Q 59.234375 2.09375 53.4375 0.328125 
Q 47.65625 -1.421875 41.21875 -1.421875 
Q 24.65625 -1.421875 15.125 8.703125 
Q 5.609375 18.84375 5.609375 36.375 
Q 5.609375 53.953125 15.125 64.078125 
Q 24.65625 74.21875 41.21875 74.21875 
Q 47.75 74.21875 53.53125 72.484375 
Q 59.328125 70.75 64.40625 67.28125 
z
" id="DejaVuSans-67"/>
      </defs>
      <use xlink:href="#DejaVuSans-105"/>
      <use x="27.783203" xlink:href="#DejaVuSans-108"/>
      <use x="55.566406" xlink:href="#DejaVuSans-118"/>
      <use x="114.746094" xlink:href="#DejaVuSans-67"/>
     </g>
    </g>
   </g>
   <g id="text_11">
    <g clip-path="url(#pe2addaed00)">
     <!-- ilvH -->
     <g transform="translate(328.126597 234.021417)scale(0.12 -0.12)">
      <defs>
       <path d="M 9.8125 72.90625 
L 19.671875 72.90625 
L 19.671875 43.015625 
L 55.515625 43.015625 
L 55.515625 72.90625 
L 65.375 72.90625 
L 65.375 0 
L 55.515625 0 
L 55.515625 34.71875 
L 19.671875 34.71875 
L 19.671875 0 
L 9.8125 0 
z
" id="DejaVuSans-72"/>
      </defs>
      <use xlink:href="#DejaVuSans-105"/>
      <use x="27.783203" xlink:href="#DejaVuSans-108"/>
      <use x="55.566406" xlink:href="#DejaVuSans-118"/>
      <use x="114.746094" xlink:href="#DejaVuSans-72"/>
     </g>
    </g>
   </g>
   <g id="text_12">
    <g clip-path="url(#pe2addaed00)">
     <!-- metA -->
     <g transform="translate(350.263617 212.818192)scale(0.12 -0.12)">
      <defs>
       <path d="M 52 44.1875 
Q 55.375 50.25 60.0625 53.125 
Q 64.75 56 71.09375 56 
Q 79.640625 56 84.28125 50.015625 
Q 88.921875 44.046875 88.921875 33.015625 
L 88.921875 0 
L 79.890625 0 
L 79.890625 32.71875 
Q 79.890625 40.578125 77.09375 44.375 
Q 74.3125 48.1875 68.609375 48.1875 
Q 61.625 48.1875 57.5625 43.546875 
Q 53.515625 38.921875 53.515625 30.90625 
L 53.515625 0 
L 44.484375 0 
L 44.484375 32.71875 
Q 44.484375 40.625 41.703125 44.40625 
Q 38.921875 48.1875 33.109375 48.1875 
Q 26.21875 48.1875 22.15625 43.53125 
Q 18.109375 38.875 18.109375 30.90625 
L 18.109375 0 
L 9.078125 0 
L 9.078125 54.6875 
L 18.109375 54.6875 
L 18.109375 46.1875 
Q 21.1875 51.21875 25.484375 53.609375 
Q 29.78125 56 35.6875 56 
Q 41.65625 56 45.828125 52.96875 
Q 50 49.953125 52 44.1875 
z
" id="DejaVuSans-109"/>
      </defs>
      <use xlink:href="#DejaVuSans-109"/>
      <use x="97.412109" xlink:href="#DejaVuSans-101"/>
      <use x="158.935547" xlink:href="#DejaVuSans-116"/>
      <use x="198.144531" xlink:href="#DejaVuSans-65"/>
     </g>
    </g>
   </g>
   <g id="text_13">
    <g clip-path="url(#pe2addaed00)">
     <!-- metE -->
     <g transform="translate(369.241689 188.083484)scale(0.12 -0.12)">
      <defs>
       <path d="M 9.8125 72.90625 
L 55.90625 72.90625 
L 55.90625 64.59375 
L 19.671875 64.59375 
L 19.671875 43.015625 
L 54.390625 43.015625 
L 54.390625 34.71875 
L 19.671875 34.71875 
L 19.671875 8.296875 
L 56.78125 8.296875 
L 56.78125 0 
L 9.8125 0 
z
" id="DejaVuSans-69"/>
      </defs>
      <use xlink:href="#DejaVuSans-109"/>
      <use x="97.412109" xlink:href="#DejaVuSans-101"/>
      <use x="158.935547" xlink:href="#DejaVuSans-116"/>
      <use x="198.144531" xlink:href="#DejaVuSans-69"/>
     </g>
    </g>
   </g>
   <g id="text_14">
    <g clip-path="url(#pe2addaed00)">
     <!-- trxA -->
     <g transform="translate(382.195522 161.150679)scale(0.12 -0.12)">
      <defs>
       <path d="M 54.890625 54.6875 
L 35.109375 28.078125 
L 55.90625 0 
L 45.3125 0 
L 29.390625 21.484375 
L 13.484375 0 
L 2.875 0 
L 24.125 28.609375 
L 4.6875 54.6875 
L 15.28125 54.6875 
L 29.78125 35.203125 
L 44.28125 54.6875 
z
" id="DejaVuSans-120"/>
      </defs>
      <use xlink:href="#DejaVuSans-116"/>
      <use x="39.208984" xlink:href="#DejaVuSans-114"/>
      <use x="77.697266" xlink:href="#DejaVuSans-120"/>
      <use x="136.876953" xlink:href="#DejaVuSans-65"/>
     </g>
    </g>
   </g>
   <g id="text_15">
    <g clip-path="url(#pe2addaed00)">
     <!-- sat -->
     <g transform="translate(385.357699 133.471786)scale(0.12 -0.12)">
      <use xlink:href="#DejaVuSans-115"/>
      <use x="52.099609" xlink:href="#DejaVuSans-97"/>
      <use x="113.378906" xlink:href="#DejaVuSans-116"/>
     </g>
    </g>
   </g>
   <g id="text_16">
    <g clip-path="url(#pe2addaed00)">
     <!-- cysH -->
     <g transform="translate(370.433251 106.539038)scale(0.12 -0.12)">
      <defs>
       <path d="M 32.171875 -5.078125 
Q 28.375 -14.84375 24.75 -17.8125 
Q 21.140625 -20.796875 15.09375 -20.796875 
L 7.90625 -20.796875 
L 7.90625 -13.28125 
L 13.1875 -13.28125 
Q 16.890625 -13.28125 18.9375 -11.515625 
Q 21 -9.765625 23.484375 -3.21875 
L 25.09375 0.875 
L 2.984375 54.6875 
L 12.5 54.6875 
L 29.59375 11.921875 
L 46.6875 54.6875 
L 56.203125 54.6875 
z
" id="DejaVuSans-121"/>
      </defs>
      <use xlink:href="#DejaVuSans-99"/>
      <use x="54.980469" xlink:href="#DejaVuSans-121"/>
      <use x="114.160156" xlink:href="#DejaVuSans-115"/>
      <use x="166.259766" xlink:href="#DejaVuSans-72"/>
     </g>
    </g>
   </g>
   <g id="text_17">
    <g clip-path="url(#pe2addaed00)">
     <!-- yvrB -->
     <g transform="translate(352.570816 81.804329)scale(0.12 -0.12)">
      <use xlink:href="#DejaVuSans-121"/>
      <use x="59.179688" xlink:href="#DejaVuSans-118"/>
      <use x="118.359375" xlink:href="#DejaVuSans-114"/>
      <use x="159.472656" xlink:href="#DejaVuSans-66"/>
     </g>
    </g>
   </g>
   <g id="text_18">
    <g clip-path="url(#pe2addaed00)">
     <!-- metI -->
     <g transform="translate(325.865304 60.601062)scale(0.12 -0.12)">
      <defs>
       <path d="M 9.8125 72.90625 
L 19.671875 72.90625 
L 19.671875 0 
L 9.8125 0 
z
" id="DejaVuSans-73"/>
      </defs>
      <use xlink:href="#DejaVuSans-109"/>
      <use x="97.412109" xlink:href="#DejaVuSans-101"/>
      <use x="158.935547" xlink:href="#DejaVuSans-116"/>
      <use x="198.144531" xlink:href="#DejaVuSans-73"/>
     </g>
    </g>
   </g>
   <g id="text_19">
    <g clip-path="url(#pe2addaed00)">
     <!-- hom -->
     <g transform="translate(292.846348 44.072382)scale(0.12 -0.12)">
      <defs>
       <path d="M 54.890625 33.015625 
L 54.890625 0 
L 45.90625 0 
L 45.90625 32.71875 
Q 45.90625 40.484375 42.875 44.328125 
Q 39.84375 48.1875 33.796875 48.1875 
Q 26.515625 48.1875 22.3125 43.546875 
Q 18.109375 38.921875 18.109375 30.90625 
L 18.109375 0 
L 9.078125 0 
L 9.078125 75.984375 
L 18.109375 75.984375 
L 18.109375 46.1875 
Q 21.34375 51.125 25.703125 53.5625 
Q 30.078125 56 35.796875 56 
Q 45.21875 56 50.046875 50.171875 
Q 54.890625 44.34375 54.890625 33.015625 
z
" id="DejaVuSans-104"/>
       <path d="M 30.609375 48.390625 
Q 23.390625 48.390625 19.1875 42.75 
Q 14.984375 37.109375 14.984375 27.296875 
Q 14.984375 17.484375 19.15625 11.84375 
Q 23.34375 6.203125 30.609375 6.203125 
Q 37.796875 6.203125 41.984375 11.859375 
Q 46.1875 17.53125 46.1875 27.296875 
Q 46.1875 37.015625 41.984375 42.703125 
Q 37.796875 48.390625 30.609375 48.390625 
z
M 30.609375 56 
Q 42.328125 56 49.015625 48.375 
Q 55.71875 40.765625 55.71875 27.296875 
Q 55.71875 13.875 49.015625 6.21875 
Q 42.328125 -1.421875 30.609375 -1.421875 
Q 18.84375 -1.421875 12.171875 6.21875 
Q 5.515625 13.875 5.515625 27.296875 
Q 5.515625 40.765625 12.171875 48.375 
Q 18.84375 56 30.609375 56 
z
" id="DejaVuSans-111"/>
      </defs>
      <use xlink:href="#DejaVuSans-104"/>
      <use x="63.378906" xlink:href="#DejaVuSans-111"/>
      <use x="124.560547" xlink:href="#DejaVuSans-109"/>
     </g>
    </g>
   </g>
   <g id="text_20">
    <g clip-path="url(#pe2addaed00)">
     <!-- sucD -->
     <g transform="translate(253.130025 33.109379)scale(0.12 -0.12)">
      <use xlink:href="#DejaVuSans-115"/>
      <use x="52.099609" xlink:href="#DejaVuSans-117"/>
      <use x="115.478516" xlink:href="#DejaVuSans-99"/>
      <use x="170.458984" xlink:href="#DejaVuSans-68"/>
     </g>
    </g>
   </g>
   <g id="text_21">
    <g clip-path="url(#pe2addaed00)">
     <!-- sucC -->
     <g transform="translate(212.603465 28.302986)scale(0.12 -0.12)">
      <use xlink:href="#DejaVuSans-115"/>
      <use x="52.099609" xlink:href="#DejaVuSans-117"/>
      <use x="115.478516" xlink:href="#DejaVuSans-99"/>
      <use x="170.458984" xlink:href="#DejaVuSans-67"/>
     </g>
    </g>
   </g>
   <g id="text_22">
    <g clip-path="url(#pe2addaed00)">
     <!-- samT -->
     <g transform="translate(169.19044 29.912374)scale(0.12 -0.12)">
      <defs>
       <path d="M -0.296875 72.90625 
L 61.375 72.90625 
L 61.375 64.59375 
L 35.5 64.59375 
L 35.5 0 
L 25.59375 0 
L 25.59375 64.59375 
L -0.296875 64.59375 
z
" id="DejaVuSans-84"/>
      </defs>
      <use xlink:href="#DejaVuSans-115"/>
      <use x="52.099609" xlink:href="#DejaVuSans-97"/>
      <use x="113.378906" xlink:href="#DejaVuSans-109"/>
      <use x="210.791016" xlink:href="#DejaVuSans-84"/>
     </g>
    </g>
   </g>
   <g id="text_23">
    <g clip-path="url(#pe2addaed00)">
     <!-- nadD -->
     <g transform="translate(129.752188 37.850743)scale(0.12 -0.12)">
      <defs>
       <path d="M 54.890625 33.015625 
L 54.890625 0 
L 45.90625 0 
L 45.90625 32.71875 
Q 45.90625 40.484375 42.875 44.328125 
Q 39.84375 48.1875 33.796875 48.1875 
Q 26.515625 48.1875 22.3125 43.546875 
Q 18.109375 38.921875 18.109375 30.90625 
L 18.109375 0 
L 9.078125 0 
L 9.078125 54.6875 
L 18.109375 54.6875 
L 18.109375 46.1875 
Q 21.34375 51.125 25.703125 53.5625 
Q 30.078125 56 35.796875 56 
Q 45.21875 56 50.046875 50.171875 
Q 54.890625 44.34375 54.890625 33.015625 
z
" id="DejaVuSans-110"/>
      </defs>
      <use xlink:href="#DejaVuSans-110"/>
      <use x="63.378906" xlink:href="#DejaVuSans-97"/>
      <use x="124.658203" xlink:href="#DejaVuSans-100"/>
      <use x="188.134766" xlink:href="#DejaVuSans-68"/>
     </g>
    </g>
   </g>
   <g id="text_24">
    <g clip-path="url(#pe2addaed00)">
     <!-- pdhD -->
     <g transform="translate(93.603127 51.690182)scale(0.12 -0.12)">
      <defs>
       <path d="M 18.109375 8.203125 
L 18.109375 -20.796875 
L 9.078125 -20.796875 
L 9.078125 54.6875 
L 18.109375 54.6875 
L 18.109375 46.390625 
Q 20.953125 51.265625 25.265625 53.625 
Q 29.59375 56 35.59375 56 
Q 45.5625 56 51.78125 48.09375 
Q 58.015625 40.1875 58.015625 27.296875 
Q 58.015625 14.40625 51.78125 6.484375 
Q 45.5625 -1.421875 35.59375 -1.421875 
Q 29.59375 -1.421875 25.265625 0.953125 
Q 20.953125 3.328125 18.109375 8.203125 
z
M 48.6875 27.296875 
Q 48.6875 37.203125 44.609375 42.84375 
Q 40.53125 48.484375 33.40625 48.484375 
Q 26.265625 48.484375 22.1875 42.84375 
Q 18.109375 37.203125 18.109375 27.296875 
Q 18.109375 17.390625 22.1875 11.75 
Q 26.265625 6.109375 33.40625 6.109375 
Q 40.53125 6.109375 44.609375 11.75 
Q 48.6875 17.390625 48.6875 27.296875 
z
" id="DejaVuSans-112"/>
      </defs>
      <use xlink:href="#DejaVuSans-112"/>
      <use x="63.476562" xlink:href="#DejaVuSans-100"/>
      <use x="126.953125" xlink:href="#DejaVuSans-104"/>
      <use x="190.332031" xlink:href="#DejaVuSans-68"/>
     </g>
    </g>
   </g>
   <g id="text_25">
    <g clip-path="url(#pe2addaed00)">
     <!-- odhA -->
     <g transform="translate(64.006037 70.684593)scale(0.12 -0.12)">
      <use xlink:href="#DejaVuSans-111"/>
      <use x="61.181641" xlink:href="#DejaVuSans-100"/>
      <use x="124.658203" xlink:href="#DejaVuSans-104"/>
      <use x="188.037109" xlink:href="#DejaVuSans-65"/>
     </g>
    </g>
   </g>
   <g id="text_26">
    <g clip-path="url(#pe2addaed00)">
     <!-- odhB -->
     <g transform="translate(41.140499 93.809971)scale(0.12 -0.12)">
      <use xlink:href="#DejaVuSans-111"/>
      <use x="61.181641" xlink:href="#DejaVuSans-100"/>
      <use x="124.658203" xlink:href="#DejaVuSans-104"/>
      <use x="188.037109" xlink:href="#DejaVuSans-66"/>
     </g>
    </g>
   </g>
   <g id="text_27">
    <g clip-path="url(#pe2addaed00)">
     <!-- maeS -->
     <g transform="translate(25.293574 119.819519)scale(0.12 -0.12)">
      <defs>
       <path d="M 53.515625 70.515625 
L 53.515625 60.890625 
Q 47.90625 63.578125 42.921875 64.890625 
Q 37.9375 66.21875 33.296875 66.21875 
Q 25.25 66.21875 20.875 63.09375 
Q 16.5 59.96875 16.5 54.203125 
Q 16.5 49.359375 19.40625 46.890625 
Q 22.3125 44.4375 30.421875 42.921875 
L 36.375 41.703125 
Q 47.40625 39.59375 52.65625 34.296875 
Q 57.90625 29 57.90625 20.125 
Q 57.90625 9.515625 50.796875 4.046875 
Q 43.703125 -1.421875 29.984375 -1.421875 
Q 24.8125 -1.421875 18.96875 -0.25 
Q 13.140625 0.921875 6.890625 3.21875 
L 6.890625 13.375 
Q 12.890625 10.015625 18.65625 8.296875 
Q 24.421875 6.59375 29.984375 6.59375 
Q 38.421875 6.59375 43.015625 9.90625 
Q 47.609375 13.234375 47.609375 19.390625 
Q 47.609375 24.75 44.3125 27.78125 
Q 41.015625 30.8125 33.5 32.328125 
L 27.484375 33.5 
Q 16.453125 35.6875 11.515625 40.375 
Q 6.59375 45.0625 6.59375 53.421875 
Q 6.59375 63.09375 13.40625 68.65625 
Q 20.21875 74.21875 32.171875 74.21875 
Q 37.3125 74.21875 42.625 73.28125 
Q 47.953125 72.359375 53.515625 70.515625 
z
" id="DejaVuSans-83"/>
      </defs>
      <use xlink:href="#DejaVuSans-109"/>
      <use x="97.412109" xlink:href="#DejaVuSans-97"/>
      <use x="158.691406" xlink:href="#DejaVuSans-101"/>
      <use x="220.214844" xlink:href="#DejaVuSans-83"/>
     </g>
    </g>
   </g>
  </g>
 </g>
 <defs>
  <clipPath id="pe2addaed00">
   <rect height="288" width="432" x="0" y="0"/>
  </clipPath>
 </defs>
</svg>
