<?xml version="1.0" encoding="utf-8" standalone="no"?>
<!DOCTYPE svg PUBLIC "-//W3C//DTD SVG 1.1//EN"
  "http://www.w3.org/Graphics/SVG/1.1/DTD/svg11.dtd">
<!-- Created with matplotlib (https://matplotlib.org/) -->
<svg height="576pt" version="1.1" viewBox="0 0 936 576" width="936pt" xmlns="http://www.w3.org/2000/svg" xmlns:xlink="http://www.w3.org/1999/xlink">
 <metadata>
  <rdf:RDF xmlns:cc="http://creativecommons.org/ns#" xmlns:dc="http://purl.org/dc/elements/1.1/" xmlns:rdf="http://www.w3.org/1999/02/22-rdf-syntax-ns#">
   <cc:Work>
    <dc:type rdf:resource="http://purl.org/dc/dcmitype/StillImage"/>
    <dc:date>2022-02-17T20:16:33.074464</dc:date>
    <dc:format>image/svg+xml</dc:format>
    <dc:creator>
     <cc:Agent>
      <dc:title>Matplotlib v3.3.4, https://matplotlib.org/</dc:title>
     </cc:Agent>
    </dc:creator>
   </cc:Work>
  </rdf:RDF>
 </metadata>
 <defs>
  <style type="text/css">*{stroke-linecap:butt;stroke-linejoin:round;}</style>
 </defs>
 <g id="figure_1">
  <g id="patch_1">
   <path d="M 0 576 
L 936 576 
L 936 0 
L 0 0 
z
" style="fill:#ffffff;"/>
  </g>
  <g id="axes_1">
   <g id="LineCollection_1">
    <path clip-path="url(#pb51aeb88f5)" d="M 800.611393 460.763063 
L 444.256095 283.007513 
" style="fill:none;stroke:#000000;stroke-opacity:0.8;"/>
    <path clip-path="url(#pb51aeb88f5)" d="M 444.256095 283.007513 
L 42.545455 218.56691 
" style="fill:none;stroke:#000000;stroke-opacity:0.8;"/>
    <path clip-path="url(#pb51aeb88f5)" d="M 444.256095 283.007513 
L 614.353637 84.300832 
" style="fill:none;stroke:#000000;stroke-opacity:0.8;"/>
    <path clip-path="url(#pb51aeb88f5)" d="M 444.256095 283.007513 
L 506.605748 70.062172 
" style="fill:none;stroke:#000000;stroke-opacity:0.8;"/>
    <path clip-path="url(#pb51aeb88f5)" d="M 444.256095 283.007513 
L 587.617541 37.429853 
" style="fill:none;stroke:#000000;stroke-opacity:0.8;"/>
    <path clip-path="url(#pb51aeb88f5)" d="M 444.256095 283.007513 
L 724.941353 113.167159 
" style="fill:none;stroke:#000000;stroke-opacity:0.8;"/>
    <path clip-path="url(#pb51aeb88f5)" d="M 444.256095 283.007513 
L 538.725768 123.159918 
" style="fill:none;stroke:#000000;stroke-opacity:0.8;"/>
    <path clip-path="url(#pb51aeb88f5)" d="M 444.256095 283.007513 
L 686.424906 243.152805 
" style="fill:none;stroke:#000000;stroke-opacity:0.8;"/>
    <path clip-path="url(#pb51aeb88f5)" d="M 444.256095 283.007513 
L 270.747101 488.566383 
" style="fill:none;stroke:#000000;stroke-opacity:0.8;"/>
    <path clip-path="url(#pb51aeb88f5)" d="M 444.256095 283.007513 
L 398.632437 478.407648 
" style="fill:none;stroke:#000000;stroke-opacity:0.8;"/>
    <path clip-path="url(#pb51aeb88f5)" d="M 444.256095 283.007513 
L 357.345159 549.818182 
" style="fill:none;stroke:#000000;stroke-opacity:0.8;"/>
    <path clip-path="url(#pb51aeb88f5)" d="M 444.256095 283.007513 
L 893.454545 301.331272 
" style="fill:none;stroke:#000000;stroke-opacity:0.8;"/>
    <path clip-path="url(#pb51aeb88f5)" d="M 444.256095 283.007513 
L 444.150277 147.186763 
" style="fill:none;stroke:#000000;stroke-opacity:0.8;"/>
    <path clip-path="url(#pb51aeb88f5)" d="M 444.256095 283.007513 
L 229.348982 136.013544 
" style="fill:none;stroke:#000000;stroke-opacity:0.8;"/>
    <path clip-path="url(#pb51aeb88f5)" d="M 444.256095 283.007513 
L 737.707794 357.647477 
" style="fill:none;stroke:#000000;stroke-opacity:0.8;"/>
    <path clip-path="url(#pb51aeb88f5)" d="M 444.256095 283.007513 
L 659.274079 443.172302 
" style="fill:none;stroke:#000000;stroke-opacity:0.8;"/>
    <path clip-path="url(#pb51aeb88f5)" d="M 444.256095 283.007513 
L 574.42837 538.382004 
" style="fill:none;stroke:#000000;stroke-opacity:0.8;"/>
    <path clip-path="url(#pb51aeb88f5)" d="M 444.256095 283.007513 
L 126.842513 459.791697 
" style="fill:none;stroke:#000000;stroke-opacity:0.8;"/>
    <path clip-path="url(#pb51aeb88f5)" d="M 444.256095 283.007513 
L 653.922987 152.490461 
" style="fill:none;stroke:#000000;stroke-opacity:0.8;"/>
    <path clip-path="url(#pb51aeb88f5)" d="M 444.256095 283.007513 
L 103.064098 117.229822 
" style="fill:none;stroke:#000000;stroke-opacity:0.8;"/>
    <path clip-path="url(#pb51aeb88f5)" d="M 444.256095 283.007513 
L 420.643809 26.181818 
" style="fill:none;stroke:#000000;stroke-opacity:0.8;"/>
    <path clip-path="url(#pb51aeb88f5)" d="M 444.256095 283.007513 
L 67.556808 382.584352 
" style="fill:none;stroke:#000000;stroke-opacity:0.8;"/>
    <path clip-path="url(#pb51aeb88f5)" d="M 444.256095 283.007513 
L 56.625921 302.51315 
" style="fill:none;stroke:#000000;stroke-opacity:0.8;"/>
    <path clip-path="url(#pb51aeb88f5)" d="M 614.353637 84.300832 
L 506.605748 70.062172 
" style="fill:none;stroke:#000000;stroke-opacity:0.8;"/>
    <path clip-path="url(#pb51aeb88f5)" d="M 614.353637 84.300832 
L 587.617541 37.429853 
" style="fill:none;stroke:#000000;stroke-opacity:0.8;"/>
    <path clip-path="url(#pb51aeb88f5)" d="M 614.353637 84.300832 
L 724.941353 113.167159 
" style="fill:none;stroke:#000000;stroke-opacity:0.8;"/>
    <path clip-path="url(#pb51aeb88f5)" d="M 614.353637 84.300832 
L 538.725768 123.159918 
" style="fill:none;stroke:#000000;stroke-opacity:0.8;"/>
    <path clip-path="url(#pb51aeb88f5)" d="M 614.353637 84.300832 
L 444.150277 147.186763 
" style="fill:none;stroke:#000000;stroke-opacity:0.8;"/>
    <path clip-path="url(#pb51aeb88f5)" d="M 614.353637 84.300832 
L 653.922987 152.490461 
" style="fill:none;stroke:#000000;stroke-opacity:0.8;"/>
    <path clip-path="url(#pb51aeb88f5)" d="M 614.353637 84.300832 
L 420.643809 26.181818 
" style="fill:none;stroke:#000000;stroke-opacity:0.8;"/>
    <path clip-path="url(#pb51aeb88f5)" d="M 506.605748 70.062172 
L 587.617541 37.429853 
" style="fill:none;stroke:#000000;stroke-opacity:0.8;"/>
    <path clip-path="url(#pb51aeb88f5)" d="M 506.605748 70.062172 
L 724.941353 113.167159 
" style="fill:none;stroke:#000000;stroke-opacity:0.8;"/>
    <path clip-path="url(#pb51aeb88f5)" d="M 506.605748 70.062172 
L 538.725768 123.159918 
" style="fill:none;stroke:#000000;stroke-opacity:0.8;"/>
    <path clip-path="url(#pb51aeb88f5)" d="M 506.605748 70.062172 
L 444.150277 147.186763 
" style="fill:none;stroke:#000000;stroke-opacity:0.8;"/>
    <path clip-path="url(#pb51aeb88f5)" d="M 506.605748 70.062172 
L 653.922987 152.490461 
" style="fill:none;stroke:#000000;stroke-opacity:0.8;"/>
    <path clip-path="url(#pb51aeb88f5)" d="M 506.605748 70.062172 
L 420.643809 26.181818 
" style="fill:none;stroke:#000000;stroke-opacity:0.8;"/>
    <path clip-path="url(#pb51aeb88f5)" d="M 587.617541 37.429853 
L 724.941353 113.167159 
" style="fill:none;stroke:#000000;stroke-opacity:0.8;"/>
    <path clip-path="url(#pb51aeb88f5)" d="M 587.617541 37.429853 
L 538.725768 123.159918 
" style="fill:none;stroke:#000000;stroke-opacity:0.8;"/>
    <path clip-path="url(#pb51aeb88f5)" d="M 587.617541 37.429853 
L 444.150277 147.186763 
" style="fill:none;stroke:#000000;stroke-opacity:0.8;"/>
    <path clip-path="url(#pb51aeb88f5)" d="M 587.617541 37.429853 
L 653.922987 152.490461 
" style="fill:none;stroke:#000000;stroke-opacity:0.8;"/>
    <path clip-path="url(#pb51aeb88f5)" d="M 587.617541 37.429853 
L 420.643809 26.181818 
" style="fill:none;stroke:#000000;stroke-opacity:0.8;"/>
    <path clip-path="url(#pb51aeb88f5)" d="M 724.941353 113.167159 
L 538.725768 123.159918 
" style="fill:none;stroke:#000000;stroke-opacity:0.8;"/>
    <path clip-path="url(#pb51aeb88f5)" d="M 724.941353 113.167159 
L 686.424906 243.152805 
" style="fill:none;stroke:#000000;stroke-opacity:0.8;"/>
    <path clip-path="url(#pb51aeb88f5)" d="M 538.725768 123.159918 
L 444.150277 147.186763 
" style="fill:none;stroke:#000000;stroke-opacity:0.8;"/>
    <path clip-path="url(#pb51aeb88f5)" d="M 538.725768 123.159918 
L 653.922987 152.490461 
" style="fill:none;stroke:#000000;stroke-opacity:0.8;"/>
    <path clip-path="url(#pb51aeb88f5)" d="M 538.725768 123.159918 
L 420.643809 26.181818 
" style="fill:none;stroke:#000000;stroke-opacity:0.8;"/>
    <path clip-path="url(#pb51aeb88f5)" d="M 686.424906 243.152805 
L 444.150277 147.186763 
" style="fill:none;stroke:#000000;stroke-opacity:0.8;"/>
    <path clip-path="url(#pb51aeb88f5)" d="M 686.424906 243.152805 
L 737.707794 357.647477 
" style="fill:none;stroke:#000000;stroke-opacity:0.8;"/>
    <path clip-path="url(#pb51aeb88f5)" d="M 270.747101 488.566383 
L 398.632437 478.407648 
" style="fill:none;stroke:#000000;stroke-opacity:0.8;"/>
    <path clip-path="url(#pb51aeb88f5)" d="M 270.747101 488.566383 
L 357.345159 549.818182 
" style="fill:none;stroke:#000000;stroke-opacity:0.8;"/>
    <path clip-path="url(#pb51aeb88f5)" d="M 398.632437 478.407648 
L 357.345159 549.818182 
" style="fill:none;stroke:#000000;stroke-opacity:0.8;"/>
    <path clip-path="url(#pb51aeb88f5)" d="M 444.150277 147.186763 
L 229.348982 136.013544 
" style="fill:none;stroke:#000000;stroke-opacity:0.8;"/>
    <path clip-path="url(#pb51aeb88f5)" d="M 229.348982 136.013544 
L 103.064098 117.229822 
" style="fill:none;stroke:#000000;stroke-opacity:0.8;"/>
    <path clip-path="url(#pb51aeb88f5)" d="M 737.707794 357.647477 
L 659.274079 443.172302 
" style="fill:none;stroke:#000000;stroke-opacity:0.8;"/>
   </g>
   <g id="PathCollection_1">
    <path clip-path="url(#pb51aeb88f5)" d="M 800.611393 465.763063 
C 801.937408 465.763063 803.209292 465.236232 804.146927 464.298597 
C 805.084561 463.360962 805.611393 462.089079 805.611393 460.763063 
C 805.611393 459.437048 805.084561 458.165164 804.146927 457.227529 
C 803.209292 456.289895 801.937408 455.763063 800.611393 455.763063 
C 799.285377 455.763063 798.013493 456.289895 797.075859 457.227529 
C 796.138224 458.165164 795.611393 459.437048 795.611393 460.763063 
C 795.611393 462.089079 796.138224 463.360962 797.075859 464.298597 
C 798.013493 465.236232 799.285377 465.763063 800.611393 465.763063 
z
" style="fill:#1f78b4;fill-opacity:0.8;stroke:#1f78b4;stroke-opacity:0.8;"/>
    <path clip-path="url(#pb51aeb88f5)" d="M 444.256095 306.98667 
C 450.615442 306.98667 456.715182 304.460075 461.21192 299.963338 
C 465.708657 295.4666 468.235252 289.36686 468.235252 283.007513 
C 468.235252 276.648166 465.708657 270.548425 461.21192 266.051688 
C 456.715182 261.55495 450.615442 259.028355 444.256095 259.028355 
C 437.896748 259.028355 431.797007 261.55495 427.30027 266.051688 
C 422.803532 270.548425 420.276937 276.648166 420.276937 283.007513 
C 420.276937 289.36686 422.803532 295.4666 427.30027 299.963338 
C 431.797007 304.460075 437.896748 306.98667 444.256095 306.98667 
z
" style="fill:#1f78b4;fill-opacity:0.8;stroke:#1f78b4;stroke-opacity:0.8;"/>
    <path clip-path="url(#pb51aeb88f5)" d="M 42.545455 223.56691 
C 43.87147 223.56691 45.143354 223.040079 46.080988 222.102444 
C 47.018623 221.16481 47.545455 219.892926 47.545455 218.56691 
C 47.545455 217.240895 47.018623 215.969011 46.080988 215.031376 
C 45.143354 214.093742 43.87147 213.56691 42.545455 213.56691 
C 41.219439 213.56691 39.947555 214.093742 39.009921 215.031376 
C 38.072286 215.969011 37.545455 217.240895 37.545455 218.56691 
C 37.545455 219.892926 38.072286 221.16481 39.009921 222.102444 
C 39.947555 223.040079 41.219439 223.56691 42.545455 223.56691 
z
" style="fill:#1f78b4;fill-opacity:0.8;stroke:#1f78b4;stroke-opacity:0.8;"/>
    <path clip-path="url(#pb51aeb88f5)" d="M 614.353637 98.442967 
C 618.104175 98.442967 621.701606 96.952863 624.353637 94.300832 
C 627.005668 91.648801 628.495773 88.05137 628.495773 84.300832 
C 628.495773 80.550294 627.005668 76.952863 624.353637 74.300832 
C 621.701606 71.648801 618.104175 70.158696 614.353637 70.158696 
C 610.603099 70.158696 607.005668 71.648801 604.353637 74.300832 
C 601.701606 76.952863 600.211502 80.550294 600.211502 84.300832 
C 600.211502 88.05137 601.701606 91.648801 604.353637 94.300832 
C 607.005668 96.952863 610.603099 98.442967 614.353637 98.442967 
z
" style="fill:#1f78b4;fill-opacity:0.8;stroke:#1f78b4;stroke-opacity:0.8;"/>
    <path clip-path="url(#pb51aeb88f5)" d="M 506.605748 84.204307 
C 510.356286 84.204307 513.953717 82.714203 516.605748 80.062172 
C 519.257779 77.410141 520.747883 73.81271 520.747883 70.062172 
C 520.747883 66.311634 519.257779 62.714203 516.605748 60.062172 
C 513.953717 57.410141 510.356286 55.920036 506.605748 55.920036 
C 502.85521 55.920036 499.257779 57.410141 496.605748 60.062172 
C 493.953717 62.714203 492.463612 66.311634 492.463612 70.062172 
C 492.463612 73.81271 493.953717 77.410141 496.605748 80.062172 
C 499.257779 82.714203 502.85521 84.204307 506.605748 84.204307 
z
" style="fill:#1f78b4;fill-opacity:0.8;stroke:#1f78b4;stroke-opacity:0.8;"/>
    <path clip-path="url(#pb51aeb88f5)" d="M 587.617541 51.571988 
C 591.368079 51.571988 594.96551 50.081884 597.617541 47.429853 
C 600.269572 44.777822 601.759677 41.180391 601.759677 37.429853 
C 601.759677 33.679314 600.269572 30.081884 597.617541 27.429853 
C 594.96551 24.777822 591.368079 23.287717 587.617541 23.287717 
C 583.867003 23.287717 580.269572 24.777822 577.617541 27.429853 
C 574.96551 30.081884 573.475405 33.679314 573.475405 37.429853 
C 573.475405 41.180391 574.96551 44.777822 577.617541 47.429853 
C 580.269572 50.081884 583.867003 51.571988 587.617541 51.571988 
z
" style="fill:#1f78b4;fill-opacity:0.8;stroke:#1f78b4;stroke-opacity:0.8;"/>
    <path clip-path="url(#pb51aeb88f5)" d="M 724.941353 125.414608 
C 728.189414 125.414608 731.30488 124.12414 733.601607 121.827413 
C 735.898333 119.530687 737.188801 116.415221 737.188801 113.167159 
C 737.188801 109.919098 735.898333 106.803632 733.601607 104.506905 
C 731.30488 102.210179 728.189414 100.919711 724.941353 100.919711 
C 721.693291 100.919711 718.577825 102.210179 716.281098 104.506905 
C 713.984372 106.803632 712.693904 109.919098 712.693904 113.167159 
C 712.693904 116.415221 713.984372 119.530687 716.281098 121.827413 
C 718.577825 124.12414 721.693291 125.414608 724.941353 125.414608 
z
" style="fill:#1f78b4;fill-opacity:0.8;stroke:#1f78b4;stroke-opacity:0.8;"/>
    <path clip-path="url(#pb51aeb88f5)" d="M 538.725768 137.302054 
C 542.476307 137.302054 546.073737 135.811949 548.725768 133.159918 
C 551.377799 130.507887 552.867904 126.910457 552.867904 123.159918 
C 552.867904 119.40938 551.377799 115.811949 548.725768 113.159918 
C 546.073737 110.507887 542.476307 109.017783 538.725768 109.017783 
C 534.97523 109.017783 531.377799 110.507887 528.725768 113.159918 
C 526.073737 115.811949 524.583633 119.40938 524.583633 123.159918 
C 524.583633 126.910457 526.073737 130.507887 528.725768 133.159918 
C 531.377799 135.811949 534.97523 137.302054 538.725768 137.302054 
z
" style="fill:#1f78b4;fill-opacity:0.8;stroke:#1f78b4;stroke-opacity:0.8;"/>
    <path clip-path="url(#pb51aeb88f5)" d="M 686.424906 253.152805 
C 689.076937 253.152805 691.620704 252.099142 693.495973 250.223873 
C 695.371243 248.348603 696.424906 245.804836 696.424906 243.152805 
C 696.424906 240.500774 695.371243 237.957006 693.495973 236.081737 
C 691.620704 234.206468 689.076937 233.152805 686.424906 233.152805 
C 683.772875 233.152805 681.229107 234.206468 679.353838 236.081737 
C 677.478569 237.957006 676.424906 240.500774 676.424906 243.152805 
C 676.424906 245.804836 677.478569 248.348603 679.353838 250.223873 
C 681.229107 252.099142 683.772875 253.152805 686.424906 253.152805 
z
" style="fill:#1f78b4;fill-opacity:0.8;stroke:#1f78b4;stroke-opacity:0.8;"/>
    <path clip-path="url(#pb51aeb88f5)" d="M 270.747101 497.226637 
C 273.043827 497.226637 275.246795 496.314138 276.870825 494.690107 
C 278.494856 493.066077 279.407355 490.863109 279.407355 488.566383 
C 279.407355 486.269657 278.494856 484.066689 276.870825 482.442659 
C 275.246795 480.818628 273.043827 479.906129 270.747101 479.906129 
C 268.450375 479.906129 266.247407 480.818628 264.623377 482.442659 
C 262.999346 484.066689 262.086847 486.269657 262.086847 488.566383 
C 262.086847 490.863109 262.999346 493.066077 264.623377 494.690107 
C 266.247407 496.314138 268.450375 497.226637 270.747101 497.226637 
z
" style="fill:#1f78b4;fill-opacity:0.8;stroke:#1f78b4;stroke-opacity:0.8;"/>
    <path clip-path="url(#pb51aeb88f5)" d="M 398.632437 487.067902 
C 400.929163 487.067902 403.13213 486.155403 404.756161 484.531372 
C 406.380192 482.907341 407.292691 480.704374 407.292691 478.407648 
C 407.292691 476.110922 406.380192 473.907954 404.756161 472.283923 
C 403.13213 470.659893 400.929163 469.747394 398.632437 469.747394 
C 396.335711 469.747394 394.132743 470.659893 392.508712 472.283923 
C 390.884682 473.907954 389.972183 476.110922 389.972183 478.407648 
C 389.972183 480.704374 390.884682 482.907341 392.508712 484.531372 
C 394.132743 486.155403 396.335711 487.067902 398.632437 487.067902 
z
" style="fill:#1f78b4;fill-opacity:0.8;stroke:#1f78b4;stroke-opacity:0.8;"/>
    <path clip-path="url(#pb51aeb88f5)" d="M 357.345159 558.478436 
C 359.641885 558.478436 361.844852 557.565937 363.468883 555.941906 
C 365.092914 554.317875 366.005413 552.114908 366.005413 549.818182 
C 366.005413 547.521456 365.092914 545.318488 363.468883 543.694457 
C 361.844852 542.070427 359.641885 541.157928 357.345159 541.157928 
C 355.048433 541.157928 352.845465 542.070427 351.221434 543.694457 
C 349.597404 545.318488 348.684905 547.521456 348.684905 549.818182 
C 348.684905 552.114908 349.597404 554.317875 351.221434 555.941906 
C 352.845465 557.565937 355.048433 558.478436 357.345159 558.478436 
z
" style="fill:#1f78b4;fill-opacity:0.8;stroke:#1f78b4;stroke-opacity:0.8;"/>
    <path clip-path="url(#pb51aeb88f5)" d="M 893.454545 306.331272 
C 894.780561 306.331272 896.052445 305.804441 896.990079 304.866806 
C 897.927714 303.929172 898.454545 302.657288 898.454545 301.331272 
C 898.454545 300.005257 897.927714 298.733373 896.990079 297.795738 
C 896.052445 296.858104 894.780561 296.331272 893.454545 296.331272 
C 892.12853 296.331272 890.856646 296.858104 889.919012 297.795738 
C 888.981377 298.733373 888.454545 300.005257 888.454545 301.331272 
C 888.454545 302.657288 888.981377 303.929172 889.919012 304.866806 
C 890.856646 305.804441 892.12853 306.331272 893.454545 306.331272 
z
" style="fill:#1f78b4;fill-opacity:0.8;stroke:#1f78b4;stroke-opacity:0.8;"/>
    <path clip-path="url(#pb51aeb88f5)" d="M 444.150277 160.41552 
C 447.658585 160.41552 451.023673 159.021654 453.504421 156.540906 
C 455.985169 154.060159 457.379034 150.69507 457.379034 147.186763 
C 457.379034 143.678456 455.985169 140.313367 453.504421 137.83262 
C 451.023673 135.351872 447.658585 133.958006 444.150277 133.958006 
C 440.64197 133.958006 437.276882 135.351872 434.796134 137.83262 
C 432.315386 140.313367 430.921521 143.678456 430.921521 147.186763 
C 430.921521 150.69507 432.315386 154.060159 434.796134 156.540906 
C 437.276882 159.021654 440.64197 160.41552 444.150277 160.41552 
z
" style="fill:#1f78b4;fill-opacity:0.8;stroke:#1f78b4;stroke-opacity:0.8;"/>
    <path clip-path="url(#pb51aeb88f5)" d="M 229.348982 144.673798 
C 231.645708 144.673798 233.848676 143.761299 235.472706 142.137268 
C 237.096737 140.513238 238.009236 138.31027 238.009236 136.013544 
C 238.009236 133.716818 237.096737 131.51385 235.472706 129.88982 
C 233.848676 128.265789 231.645708 127.35329 229.348982 127.35329 
C 227.052256 127.35329 224.849288 128.265789 223.225258 129.88982 
C 221.601227 131.51385 220.688728 133.716818 220.688728 136.013544 
C 220.688728 138.31027 221.601227 140.513238 223.225258 142.137268 
C 224.849288 143.761299 227.052256 144.673798 229.348982 144.673798 
z
" style="fill:#1f78b4;fill-opacity:0.8;stroke:#1f78b4;stroke-opacity:0.8;"/>
    <path clip-path="url(#pb51aeb88f5)" d="M 737.707794 366.307731 
C 740.00452 366.307731 742.207487 365.395232 743.831518 363.771202 
C 745.455549 362.147171 746.368048 359.944204 746.368048 357.647477 
C 746.368048 355.350751 745.455549 353.147784 743.831518 351.523753 
C 742.207487 349.899722 740.00452 348.987223 737.707794 348.987223 
C 735.411067 348.987223 733.2081 349.899722 731.584069 351.523753 
C 729.960039 353.147784 729.04754 355.350751 729.04754 357.647477 
C 729.04754 359.944204 729.960039 362.147171 731.584069 363.771202 
C 733.2081 365.395232 735.411067 366.307731 737.707794 366.307731 
z
" style="fill:#1f78b4;fill-opacity:0.8;stroke:#1f78b4;stroke-opacity:0.8;"/>
    <path clip-path="url(#pb51aeb88f5)" d="M 659.274079 450.24337 
C 661.149348 450.24337 662.948063 449.498317 664.274079 448.172302 
C 665.600094 446.846286 666.345146 445.047571 666.345146 443.172302 
C 666.345146 441.297033 665.600094 439.498317 664.274079 438.172302 
C 662.948063 436.846286 661.149348 436.101234 659.274079 436.101234 
C 657.39881 436.101234 655.600094 436.846286 654.274079 438.172302 
C 652.948063 439.498317 652.203011 441.297033 652.203011 443.172302 
C 652.203011 445.047571 652.948063 446.846286 654.274079 448.172302 
C 655.600094 449.498317 657.39881 450.24337 659.274079 450.24337 
z
" style="fill:#1f78b4;fill-opacity:0.8;stroke:#1f78b4;stroke-opacity:0.8;"/>
    <path clip-path="url(#pb51aeb88f5)" d="M 574.42837 543.382004 
C 575.754386 543.382004 577.026269 542.855172 577.963904 541.917538 
C 578.901539 540.979903 579.42837 539.708019 579.42837 538.382004 
C 579.42837 537.055988 578.901539 535.784104 577.963904 534.84647 
C 577.026269 533.908835 575.754386 533.382004 574.42837 533.382004 
C 573.102355 533.382004 571.830471 533.908835 570.892836 534.84647 
C 569.955202 535.784104 569.42837 537.055988 569.42837 538.382004 
C 569.42837 539.708019 569.955202 540.979903 570.892836 541.917538 
C 571.830471 542.855172 573.102355 543.382004 574.42837 543.382004 
z
" style="fill:#1f78b4;fill-opacity:0.8;stroke:#1f78b4;stroke-opacity:0.8;"/>
    <path clip-path="url(#pb51aeb88f5)" d="M 126.842513 464.791697 
C 128.168529 464.791697 129.440412 464.264866 130.378047 463.327231 
C 131.315682 462.389597 131.842513 461.117713 131.842513 459.791697 
C 131.842513 458.465682 131.315682 457.193798 130.378047 456.256163 
C 129.440412 455.318529 128.168529 454.791697 126.842513 454.791697 
C 125.516498 454.791697 124.244614 455.318529 123.306979 456.256163 
C 122.369345 457.193798 121.842513 458.465682 121.842513 459.791697 
C 121.842513 461.117713 122.369345 462.389597 123.306979 463.327231 
C 124.244614 464.264866 125.516498 464.791697 126.842513 464.791697 
z
" style="fill:#1f78b4;fill-opacity:0.8;stroke:#1f78b4;stroke-opacity:0.8;"/>
    <path clip-path="url(#pb51aeb88f5)" d="M 653.922987 163.670801 
C 656.888048 163.670801 659.732067 162.49277 661.828681 160.396155 
C 663.925296 158.299541 665.103327 155.455522 665.103327 152.490461 
C 665.103327 149.5254 663.925296 146.681381 661.828681 144.584767 
C 659.732067 142.488152 656.888048 141.310121 653.922987 141.310121 
C 650.957926 141.310121 648.113907 142.488152 646.017293 144.584767 
C 643.920678 146.681381 642.742647 149.5254 642.742647 152.490461 
C 642.742647 155.455522 643.920678 158.299541 646.017293 160.396155 
C 648.113907 162.49277 650.957926 163.670801 653.922987 163.670801 
z
" style="fill:#1f78b4;fill-opacity:0.8;stroke:#1f78b4;stroke-opacity:0.8;"/>
    <path clip-path="url(#pb51aeb88f5)" d="M 103.064098 124.30089 
C 104.939367 124.30089 106.738083 123.555838 108.064098 122.229822 
C 109.390114 120.903807 110.135166 119.105091 110.135166 117.229822 
C 110.135166 115.354553 109.390114 113.555838 108.064098 112.229822 
C 106.738083 110.903807 104.939367 110.158754 103.064098 110.158754 
C 101.188829 110.158754 99.390114 110.903807 98.064098 112.229822 
C 96.738083 113.555838 95.99303 115.354553 95.99303 117.229822 
C 95.99303 119.105091 96.738083 120.903807 98.064098 122.229822 
C 99.390114 123.555838 101.188829 124.30089 103.064098 124.30089 
z
" style="fill:#1f78b4;fill-opacity:0.8;stroke:#1f78b4;stroke-opacity:0.8;"/>
    <path clip-path="url(#pb51aeb88f5)" d="M 420.643809 37.362158 
C 423.608869 37.362158 426.452888 36.184127 428.549503 34.087512 
C 430.646117 31.990898 431.824149 29.146879 431.824149 26.181818 
C 431.824149 23.216757 430.646117 20.372739 428.549503 18.276124 
C 426.452888 16.179509 423.608869 15.001478 420.643809 15.001478 
C 417.678748 15.001478 414.834729 16.179509 412.738115 18.276124 
C 410.6415 20.372739 409.463469 23.216757 409.463469 26.181818 
C 409.463469 29.146879 410.6415 31.990898 412.738115 34.087512 
C 414.834729 36.184127 417.678748 37.362158 420.643809 37.362158 
z
" style="fill:#1f78b4;fill-opacity:0.8;stroke:#1f78b4;stroke-opacity:0.8;"/>
    <path clip-path="url(#pb51aeb88f5)" d="M 67.556808 387.584352 
C 68.882824 387.584352 70.154708 387.05752 71.092342 386.119885 
C 72.029977 385.182251 72.556808 383.910367 72.556808 382.584352 
C 72.556808 381.258336 72.029977 379.986452 71.092342 379.048818 
C 70.154708 378.111183 68.882824 377.584352 67.556808 377.584352 
C 66.230793 377.584352 64.958909 378.111183 64.021274 379.048818 
C 63.08364 379.986452 62.556808 381.258336 62.556808 382.584352 
C 62.556808 383.910367 63.08364 385.182251 64.021274 386.119885 
C 64.958909 387.05752 66.230793 387.584352 67.556808 387.584352 
z
" style="fill:#1f78b4;fill-opacity:0.8;stroke:#1f78b4;stroke-opacity:0.8;"/>
    <path clip-path="url(#pb51aeb88f5)" d="M 56.625921 307.51315 
C 57.951937 307.51315 59.22382 306.986319 60.161455 306.048684 
C 61.099089 305.11105 61.625921 303.839166 61.625921 302.51315 
C 61.625921 301.187135 61.099089 299.915251 60.161455 298.977616 
C 59.22382 298.039982 57.951937 297.51315 56.625921 297.51315 
C 55.299906 297.51315 54.028022 298.039982 53.090387 298.977616 
C 52.152753 299.915251 51.625921 301.187135 51.625921 302.51315 
C 51.625921 303.839166 52.152753 305.11105 53.090387 306.048684 
C 54.028022 306.986319 55.299906 307.51315 56.625921 307.51315 
z
" style="fill:#1f78b4;fill-opacity:0.8;stroke:#1f78b4;stroke-opacity:0.8;"/>
   </g>
   <g id="text_1">
    <!-- akg -->
    <g transform="translate(791.477799 435.710403)scale(0.1 -0.1)">
     <defs>
      <path d="M 34.28125 27.484375 
Q 23.390625 27.484375 19.1875 25 
Q 14.984375 22.515625 14.984375 16.5 
Q 14.984375 11.71875 18.140625 8.90625 
Q 21.296875 6.109375 26.703125 6.109375 
Q 34.1875 6.109375 38.703125 11.40625 
Q 43.21875 16.703125 43.21875 25.484375 
L 43.21875 27.484375 
z
M 52.203125 31.203125 
L 52.203125 0 
L 43.21875 0 
L 43.21875 8.296875 
Q 40.140625 3.328125 35.546875 0.953125 
Q 30.953125 -1.421875 24.3125 -1.421875 
Q 15.921875 -1.421875 10.953125 3.296875 
Q 6 8.015625 6 15.921875 
Q 6 25.140625 12.171875 29.828125 
Q 18.359375 34.515625 30.609375 34.515625 
L 43.21875 34.515625 
L 43.21875 35.40625 
Q 43.21875 41.609375 39.140625 45 
Q 35.0625 48.390625 27.6875 48.390625 
Q 23 48.390625 18.546875 47.265625 
Q 14.109375 46.140625 10.015625 43.890625 
L 10.015625 52.203125 
Q 14.9375 54.109375 19.578125 55.046875 
Q 24.21875 56 28.609375 56 
Q 40.484375 56 46.34375 49.84375 
Q 52.203125 43.703125 52.203125 31.203125 
z
" id="DejaVuSans-97"/>
      <path d="M 9.078125 75.984375 
L 18.109375 75.984375 
L 18.109375 31.109375 
L 44.921875 54.6875 
L 56.390625 54.6875 
L 27.390625 29.109375 
L 57.625 0 
L 45.90625 0 
L 18.109375 26.703125 
L 18.109375 0 
L 9.078125 0 
z
" id="DejaVuSans-107"/>
      <path d="M 45.40625 27.984375 
Q 45.40625 37.75 41.375 43.109375 
Q 37.359375 48.484375 30.078125 48.484375 
Q 22.859375 48.484375 18.828125 43.109375 
Q 14.796875 37.75 14.796875 27.984375 
Q 14.796875 18.265625 18.828125 12.890625 
Q 22.859375 7.515625 30.078125 7.515625 
Q 37.359375 7.515625 41.375 12.890625 
Q 45.40625 18.265625 45.40625 27.984375 
z
M 54.390625 6.78125 
Q 54.390625 -7.171875 48.1875 -13.984375 
Q 42 -20.796875 29.203125 -20.796875 
Q 24.46875 -20.796875 20.265625 -20.09375 
Q 16.0625 -19.390625 12.109375 -17.921875 
L 12.109375 -9.1875 
Q 16.0625 -11.328125 19.921875 -12.34375 
Q 23.78125 -13.375 27.78125 -13.375 
Q 36.625 -13.375 41.015625 -8.765625 
Q 45.40625 -4.15625 45.40625 5.171875 
L 45.40625 9.625 
Q 42.625 4.78125 38.28125 2.390625 
Q 33.9375 0 27.875 0 
Q 17.828125 0 11.671875 7.65625 
Q 5.515625 15.328125 5.515625 27.984375 
Q 5.515625 40.671875 11.671875 48.328125 
Q 17.828125 56 27.875 56 
Q 33.9375 56 38.28125 53.609375 
Q 42.625 51.21875 45.40625 46.390625 
L 45.40625 54.6875 
L 54.390625 54.6875 
z
" id="DejaVuSans-103"/>
     </defs>
     <use xlink:href="#DejaVuSans-97"/>
     <use x="61.279297" xlink:href="#DejaVuSans-107"/>
     <use x="119.189453" xlink:href="#DejaVuSans-103"/>
    </g>
   </g>
   <g id="text_2">
    <!-- h -->
    <g transform="translate(441.087345 257.954853)scale(0.1 -0.1)">
     <defs>
      <path d="M 54.890625 33.015625 
L 54.890625 0 
L 45.90625 0 
L 45.90625 32.71875 
Q 45.90625 40.484375 42.875 44.328125 
Q 39.84375 48.1875 33.796875 48.1875 
Q 26.515625 48.1875 22.3125 43.546875 
Q 18.109375 38.921875 18.109375 30.90625 
L 18.109375 0 
L 9.078125 0 
L 9.078125 75.984375 
L 18.109375 75.984375 
L 18.109375 46.1875 
Q 21.34375 51.125 25.703125 53.5625 
Q 30.078125 56 35.796875 56 
Q 45.21875 56 50.046875 50.171875 
Q 54.890625 44.34375 54.890625 33.015625 
z
" id="DejaVuSans-104"/>
     </defs>
     <use xlink:href="#DejaVuSans-104"/>
    </g>
   </g>
   <g id="text_3">
    <!-- ac -->
    <g transform="translate(36.732173 193.514251)scale(0.1 -0.1)">
     <defs>
      <path d="M 48.78125 52.59375 
L 48.78125 44.1875 
Q 44.96875 46.296875 41.140625 47.34375 
Q 37.3125 48.390625 33.40625 48.390625 
Q 24.65625 48.390625 19.8125 42.84375 
Q 14.984375 37.3125 14.984375 27.296875 
Q 14.984375 17.28125 19.8125 11.734375 
Q 24.65625 6.203125 33.40625 6.203125 
Q 37.3125 6.203125 41.140625 7.25 
Q 44.96875 8.296875 48.78125 10.40625 
L 48.78125 2.09375 
Q 45.015625 0.34375 40.984375 -0.53125 
Q 36.96875 -1.421875 32.421875 -1.421875 
Q 20.0625 -1.421875 12.78125 6.34375 
Q 5.515625 14.109375 5.515625 27.296875 
Q 5.515625 40.671875 12.859375 48.328125 
Q 20.21875 56 33.015625 56 
Q 37.15625 56 41.109375 55.140625 
Q 45.0625 54.296875 48.78125 52.59375 
z
" id="DejaVuSans-99"/>
     </defs>
     <use xlink:href="#DejaVuSans-97"/>
     <use x="61.279297" xlink:href="#DejaVuSans-99"/>
    </g>
   </g>
   <g id="text_4">
    <!-- h2o -->
    <g transform="translate(604.944262 59.248172)scale(0.1 -0.1)">
     <defs>
      <path d="M 19.1875 8.296875 
L 53.609375 8.296875 
L 53.609375 0 
L 7.328125 0 
L 7.328125 8.296875 
Q 12.9375 14.109375 22.625 23.890625 
Q 32.328125 33.6875 34.8125 36.53125 
Q 39.546875 41.84375 41.421875 45.53125 
Q 43.3125 49.21875 43.3125 52.78125 
Q 43.3125 58.59375 39.234375 62.25 
Q 35.15625 65.921875 28.609375 65.921875 
Q 23.96875 65.921875 18.8125 64.3125 
Q 13.671875 62.703125 7.8125 59.421875 
L 7.8125 69.390625 
Q 13.765625 71.78125 18.9375 73 
Q 24.125 74.21875 28.421875 74.21875 
Q 39.75 74.21875 46.484375 68.546875 
Q 53.21875 62.890625 53.21875 53.421875 
Q 53.21875 48.921875 51.53125 44.890625 
Q 49.859375 40.875 45.40625 35.40625 
Q 44.1875 33.984375 37.640625 27.21875 
Q 31.109375 20.453125 19.1875 8.296875 
z
" id="DejaVuSans-50"/>
      <path d="M 30.609375 48.390625 
Q 23.390625 48.390625 19.1875 42.75 
Q 14.984375 37.109375 14.984375 27.296875 
Q 14.984375 17.484375 19.15625 11.84375 
Q 23.34375 6.203125 30.609375 6.203125 
Q 37.796875 6.203125 41.984375 11.859375 
Q 46.1875 17.53125 46.1875 27.296875 
Q 46.1875 37.015625 41.984375 42.703125 
Q 37.796875 48.390625 30.609375 48.390625 
z
M 30.609375 56 
Q 42.328125 56 49.015625 48.375 
Q 55.71875 40.765625 55.71875 27.296875 
Q 55.71875 13.875 49.015625 6.21875 
Q 42.328125 -1.421875 30.609375 -1.421875 
Q 18.84375 -1.421875 12.171875 6.21875 
Q 5.515625 13.875 5.515625 27.296875 
Q 5.515625 40.765625 12.171875 48.375 
Q 18.84375 56 30.609375 56 
z
" id="DejaVuSans-111"/>
     </defs>
     <use xlink:href="#DejaVuSans-104"/>
     <use x="63.378906" xlink:href="#DejaVuSans-50"/>
     <use x="127.001953" xlink:href="#DejaVuSans-111"/>
    </g>
   </g>
   <g id="text_5">
    <!-- pi -->
    <g transform="translate(502.042466 45.009512)scale(0.1 -0.1)">
     <defs>
      <path d="M 18.109375 8.203125 
L 18.109375 -20.796875 
L 9.078125 -20.796875 
L 9.078125 54.6875 
L 18.109375 54.6875 
L 18.109375 46.390625 
Q 20.953125 51.265625 25.265625 53.625 
Q 29.59375 56 35.59375 56 
Q 45.5625 56 51.78125 48.09375 
Q 58.015625 40.1875 58.015625 27.296875 
Q 58.015625 14.40625 51.78125 6.484375 
Q 45.5625 -1.421875 35.59375 -1.421875 
Q 29.59375 -1.421875 25.265625 0.953125 
Q 20.953125 3.328125 18.109375 8.203125 
z
M 48.6875 27.296875 
Q 48.6875 37.203125 44.609375 42.84375 
Q 40.53125 48.484375 33.40625 48.484375 
Q 26.265625 48.484375 22.1875 42.84375 
Q 18.109375 37.203125 18.109375 27.296875 
Q 18.109375 17.390625 22.1875 11.75 
Q 26.265625 6.109375 33.40625 6.109375 
Q 40.53125 6.109375 44.609375 11.75 
Q 48.6875 17.390625 48.6875 27.296875 
z
" id="DejaVuSans-112"/>
      <path d="M 9.421875 54.6875 
L 18.40625 54.6875 
L 18.40625 0 
L 9.421875 0 
z
M 9.421875 75.984375 
L 18.40625 75.984375 
L 18.40625 64.59375 
L 9.421875 64.59375 
z
" id="DejaVuSans-105"/>
     </defs>
     <use xlink:href="#DejaVuSans-112"/>
     <use x="63.476562" xlink:href="#DejaVuSans-105"/>
    </g>
   </g>
   <g id="text_6">
    <!-- adp -->
    <g transform="translate(578.205041 12.377193)scale(0.1 -0.1)">
     <defs>
      <path d="M 45.40625 46.390625 
L 45.40625 75.984375 
L 54.390625 75.984375 
L 54.390625 0 
L 45.40625 0 
L 45.40625 8.203125 
Q 42.578125 3.328125 38.25 0.953125 
Q 33.9375 -1.421875 27.875 -1.421875 
Q 17.96875 -1.421875 11.734375 6.484375 
Q 5.515625 14.40625 5.515625 27.296875 
Q 5.515625 40.1875 11.734375 48.09375 
Q 17.96875 56 27.875 56 
Q 33.9375 56 38.25 53.625 
Q 42.578125 51.265625 45.40625 46.390625 
z
M 14.796875 27.296875 
Q 14.796875 17.390625 18.875 11.75 
Q 22.953125 6.109375 30.078125 6.109375 
Q 37.203125 6.109375 41.296875 11.75 
Q 45.40625 17.390625 45.40625 27.296875 
Q 45.40625 37.203125 41.296875 42.84375 
Q 37.203125 48.484375 30.078125 48.484375 
Q 22.953125 48.484375 18.875 42.84375 
Q 14.796875 37.203125 14.796875 27.296875 
z
" id="DejaVuSans-100"/>
     </defs>
     <use xlink:href="#DejaVuSans-97"/>
     <use x="61.279297" xlink:href="#DejaVuSans-100"/>
     <use x="124.755859" xlink:href="#DejaVuSans-112"/>
    </g>
   </g>
   <g id="text_7">
    <!-- mn2 -->
    <g transform="translate(713.72104 88.1145)scale(0.1 -0.1)">
     <defs>
      <path d="M 52 44.1875 
Q 55.375 50.25 60.0625 53.125 
Q 64.75 56 71.09375 56 
Q 79.640625 56 84.28125 50.015625 
Q 88.921875 44.046875 88.921875 33.015625 
L 88.921875 0 
L 79.890625 0 
L 79.890625 32.71875 
Q 79.890625 40.578125 77.09375 44.375 
Q 74.3125 48.1875 68.609375 48.1875 
Q 61.625 48.1875 57.5625 43.546875 
Q 53.515625 38.921875 53.515625 30.90625 
L 53.515625 0 
L 44.484375 0 
L 44.484375 32.71875 
Q 44.484375 40.625 41.703125 44.40625 
Q 38.921875 48.1875 33.109375 48.1875 
Q 26.21875 48.1875 22.15625 43.53125 
Q 18.109375 38.875 18.109375 30.90625 
L 18.109375 0 
L 9.078125 0 
L 9.078125 54.6875 
L 18.109375 54.6875 
L 18.109375 46.1875 
Q 21.1875 51.21875 25.484375 53.609375 
Q 29.78125 56 35.6875 56 
Q 41.65625 56 45.828125 52.96875 
Q 50 49.953125 52 44.1875 
z
" id="DejaVuSans-109"/>
      <path d="M 54.890625 33.015625 
L 54.890625 0 
L 45.90625 0 
L 45.90625 32.71875 
Q 45.90625 40.484375 42.875 44.328125 
Q 39.84375 48.1875 33.796875 48.1875 
Q 26.515625 48.1875 22.3125 43.546875 
Q 18.109375 38.921875 18.109375 30.90625 
L 18.109375 0 
L 9.078125 0 
L 9.078125 54.6875 
L 18.109375 54.6875 
L 18.109375 46.1875 
Q 21.34375 51.125 25.703125 53.5625 
Q 30.078125 56 35.796875 56 
Q 45.21875 56 50.046875 50.171875 
Q 54.890625 44.34375 54.890625 33.015625 
z
" id="DejaVuSans-110"/>
     </defs>
     <use xlink:href="#DejaVuSans-109"/>
     <use x="97.412109" xlink:href="#DejaVuSans-110"/>
     <use x="160.791016" xlink:href="#DejaVuSans-50"/>
    </g>
   </g>
   <g id="text_8">
    <!-- atp -->
    <g transform="translate(530.527331 98.107259)scale(0.1 -0.1)">
     <defs>
      <path d="M 18.3125 70.21875 
L 18.3125 54.6875 
L 36.8125 54.6875 
L 36.8125 47.703125 
L 18.3125 47.703125 
L 18.3125 18.015625 
Q 18.3125 11.328125 20.140625 9.421875 
Q 21.96875 7.515625 27.59375 7.515625 
L 36.8125 7.515625 
L 36.8125 0 
L 27.59375 0 
Q 17.1875 0 13.234375 3.875 
Q 9.28125 7.765625 9.28125 18.015625 
L 9.28125 47.703125 
L 2.6875 47.703125 
L 2.6875 54.6875 
L 9.28125 54.6875 
L 9.28125 70.21875 
z
" id="DejaVuSans-116"/>
     </defs>
     <use xlink:href="#DejaVuSans-97"/>
     <use x="61.279297" xlink:href="#DejaVuSans-116"/>
     <use x="100.488281" xlink:href="#DejaVuSans-112"/>
    </g>
   </g>
   <g id="text_9">
    <!-- cit -->
    <g transform="translate(680.326468 218.100145)scale(0.1 -0.1)">
     <use xlink:href="#DejaVuSans-99"/>
     <use x="54.980469" xlink:href="#DejaVuSans-105"/>
     <use x="82.763672" xlink:href="#DejaVuSans-116"/>
    </g>
   </g>
   <g id="text_10">
    <!-- lac__L -->
    <g transform="translate(255.75882 463.513723)scale(0.1 -0.1)">
     <defs>
      <path d="M 9.421875 75.984375 
L 18.40625 75.984375 
L 18.40625 0 
L 9.421875 0 
z
" id="DejaVuSans-108"/>
      <path d="M 50.984375 -16.609375 
L 50.984375 -23.578125 
L -0.984375 -23.578125 
L -0.984375 -16.609375 
z
" id="DejaVuSans-95"/>
      <path d="M 9.8125 72.90625 
L 19.671875 72.90625 
L 19.671875 8.296875 
L 55.171875 8.296875 
L 55.171875 0 
L 9.8125 0 
z
" id="DejaVuSans-76"/>
     </defs>
     <use xlink:href="#DejaVuSans-108"/>
     <use x="27.783203" xlink:href="#DejaVuSans-97"/>
     <use x="89.0625" xlink:href="#DejaVuSans-99"/>
     <use x="144.042969" xlink:href="#DejaVuSans-95"/>
     <use x="194.042969" xlink:href="#DejaVuSans-95"/>
     <use x="244.042969" xlink:href="#DejaVuSans-76"/>
    </g>
   </g>
   <g id="text_11">
    <!-- mal__L -->
    <g transform="translate(381.523062 453.354988)scale(0.1 -0.1)">
     <use xlink:href="#DejaVuSans-109"/>
     <use x="97.412109" xlink:href="#DejaVuSans-97"/>
     <use x="158.691406" xlink:href="#DejaVuSans-108"/>
     <use x="186.474609" xlink:href="#DejaVuSans-95"/>
     <use x="236.474609" xlink:href="#DejaVuSans-95"/>
     <use x="286.474609" xlink:href="#DejaVuSans-76"/>
    </g>
   </g>
   <g id="text_12">
    <!-- na1 -->
    <g transform="translate(347.931096 524.765522)scale(0.1 -0.1)">
     <defs>
      <path d="M 12.40625 8.296875 
L 28.515625 8.296875 
L 28.515625 63.921875 
L 10.984375 60.40625 
L 10.984375 69.390625 
L 28.421875 72.90625 
L 38.28125 72.90625 
L 38.28125 8.296875 
L 54.390625 8.296875 
L 54.390625 0 
L 12.40625 0 
z
" id="DejaVuSans-49"/>
     </defs>
     <use xlink:href="#DejaVuSans-110"/>
     <use x="63.378906" xlink:href="#DejaVuSans-97"/>
     <use x="124.658203" xlink:href="#DejaVuSans-49"/>
    </g>
   </g>
   <g id="text_13">
    <!-- acac -->
    <g transform="translate(881.827983 276.278612)scale(0.1 -0.1)">
     <use xlink:href="#DejaVuSans-97"/>
     <use x="61.279297" xlink:href="#DejaVuSans-99"/>
     <use x="116.259766" xlink:href="#DejaVuSans-97"/>
     <use x="177.539062" xlink:href="#DejaVuSans-99"/>
    </g>
   </g>
   <g id="text_14">
    <!-- zn2 -->
    <g transform="translate(435.176059 122.134103)scale(0.1 -0.1)">
     <defs>
      <path d="M 5.515625 54.6875 
L 48.1875 54.6875 
L 48.1875 46.484375 
L 14.40625 7.171875 
L 48.1875 7.171875 
L 48.1875 0 
L 4.296875 0 
L 4.296875 8.203125 
L 38.09375 47.515625 
L 5.515625 47.515625 
z
" id="DejaVuSans-122"/>
     </defs>
     <use xlink:href="#DejaVuSans-122"/>
     <use x="52.490234" xlink:href="#DejaVuSans-110"/>
     <use x="115.869141" xlink:href="#DejaVuSans-50"/>
    </g>
   </g>
   <g id="text_15">
    <!-- k -->
    <g transform="translate(226.453669 110.960884)scale(0.1 -0.1)">
     <use xlink:href="#DejaVuSans-107"/>
    </g>
   </g>
   <g id="text_16">
    <!-- mg2 -->
    <g transform="translate(726.482012 332.594818)scale(0.1 -0.1)">
     <use xlink:href="#DejaVuSans-109"/>
     <use x="97.412109" xlink:href="#DejaVuSans-103"/>
     <use x="160.888672" xlink:href="#DejaVuSans-50"/>
    </g>
   </g>
   <g id="text_17">
    <!-- icit -->
    <g transform="translate(651.786579 418.119642)scale(0.1 -0.1)">
     <use xlink:href="#DejaVuSans-105"/>
     <use x="27.783203" xlink:href="#DejaVuSans-99"/>
     <use x="82.763672" xlink:href="#DejaVuSans-105"/>
     <use x="110.546875" xlink:href="#DejaVuSans-116"/>
    </g>
   </g>
   <g id="text_18">
    <!-- pyr -->
    <g transform="translate(566.239308 513.329344)scale(0.1 -0.1)">
     <defs>
      <path d="M 32.171875 -5.078125 
Q 28.375 -14.84375 24.75 -17.8125 
Q 21.140625 -20.796875 15.09375 -20.796875 
L 7.90625 -20.796875 
L 7.90625 -13.28125 
L 13.1875 -13.28125 
Q 16.890625 -13.28125 18.9375 -11.515625 
Q 21 -9.765625 23.484375 -3.21875 
L 25.09375 0.875 
L 2.984375 54.6875 
L 12.5 54.6875 
L 29.59375 11.921875 
L 46.6875 54.6875 
L 56.203125 54.6875 
z
" id="DejaVuSans-121"/>
      <path d="M 41.109375 46.296875 
Q 39.59375 47.171875 37.8125 47.578125 
Q 36.03125 48 33.890625 48 
Q 26.265625 48 22.1875 43.046875 
Q 18.109375 38.09375 18.109375 28.8125 
L 18.109375 0 
L 9.078125 0 
L 9.078125 54.6875 
L 18.109375 54.6875 
L 18.109375 46.1875 
Q 20.953125 51.171875 25.484375 53.578125 
Q 30.03125 56 36.53125 56 
Q 37.453125 56 38.578125 55.875 
Q 39.703125 55.765625 41.0625 55.515625 
z
" id="DejaVuSans-114"/>
     </defs>
     <use xlink:href="#DejaVuSans-112"/>
     <use x="63.476562" xlink:href="#DejaVuSans-121"/>
     <use x="122.65625" xlink:href="#DejaVuSans-114"/>
    </g>
   </g>
   <g id="text_19">
    <!-- gmp -->
    <g transform="translate(115.623763 434.739037)scale(0.1 -0.1)">
     <use xlink:href="#DejaVuSans-103"/>
     <use x="63.476562" xlink:href="#DejaVuSans-109"/>
     <use x="160.888672" xlink:href="#DejaVuSans-112"/>
    </g>
   </g>
   <g id="text_20">
    <!-- met__L -->
    <g transform="translate(636.230018 127.437801)scale(0.1 -0.1)">
     <defs>
      <path d="M 56.203125 29.59375 
L 56.203125 25.203125 
L 14.890625 25.203125 
Q 15.484375 15.921875 20.484375 11.0625 
Q 25.484375 6.203125 34.421875 6.203125 
Q 39.59375 6.203125 44.453125 7.46875 
Q 49.3125 8.734375 54.109375 11.28125 
L 54.109375 2.78125 
Q 49.265625 0.734375 44.1875 -0.34375 
Q 39.109375 -1.421875 33.890625 -1.421875 
Q 20.796875 -1.421875 13.15625 6.1875 
Q 5.515625 13.8125 5.515625 26.8125 
Q 5.515625 40.234375 12.765625 48.109375 
Q 20.015625 56 32.328125 56 
Q 43.359375 56 49.78125 48.890625 
Q 56.203125 41.796875 56.203125 29.59375 
z
M 47.21875 32.234375 
Q 47.125 39.59375 43.09375 43.984375 
Q 39.0625 48.390625 32.421875 48.390625 
Q 24.90625 48.390625 20.390625 44.140625 
Q 15.875 39.890625 15.1875 32.171875 
z
" id="DejaVuSans-101"/>
     </defs>
     <use xlink:href="#DejaVuSans-109"/>
     <use x="97.412109" xlink:href="#DejaVuSans-101"/>
     <use x="158.935547" xlink:href="#DejaVuSans-116"/>
     <use x="198.144531" xlink:href="#DejaVuSans-95"/>
     <use x="248.144531" xlink:href="#DejaVuSans-95"/>
     <use x="298.144531" xlink:href="#DejaVuSans-76"/>
    </g>
   </g>
   <g id="text_21">
    <!-- cd2 -->
    <g transform="translate(93.959411 92.177162)scale(0.1 -0.1)">
     <use xlink:href="#DejaVuSans-99"/>
     <use x="54.980469" xlink:href="#DejaVuSans-100"/>
     <use x="118.457031" xlink:href="#DejaVuSans-50"/>
    </g>
   </g>
   <g id="text_22">
    <!-- arg__L -->
    <g transform="translate(404.651621 1.129158)scale(0.1 -0.1)">
     <use xlink:href="#DejaVuSans-97"/>
     <use x="61.279297" xlink:href="#DejaVuSans-114"/>
     <use x="100.642578" xlink:href="#DejaVuSans-103"/>
     <use x="164.119141" xlink:href="#DejaVuSans-95"/>
     <use x="214.119141" xlink:href="#DejaVuSans-95"/>
     <use x="264.119141" xlink:href="#DejaVuSans-76"/>
    </g>
   </g>
   <g id="text_23">
    <!-- succ -->
    <g transform="translate(56.284933 357.531692)scale(0.1 -0.1)">
     <defs>
      <path d="M 44.28125 53.078125 
L 44.28125 44.578125 
Q 40.484375 46.53125 36.375 47.5 
Q 32.28125 48.484375 27.875 48.484375 
Q 21.1875 48.484375 17.84375 46.4375 
Q 14.5 44.390625 14.5 40.28125 
Q 14.5 37.15625 16.890625 35.375 
Q 19.28125 33.59375 26.515625 31.984375 
L 29.59375 31.296875 
Q 39.15625 29.25 43.1875 25.515625 
Q 47.21875 21.78125 47.21875 15.09375 
Q 47.21875 7.46875 41.1875 3.015625 
Q 35.15625 -1.421875 24.609375 -1.421875 
Q 20.21875 -1.421875 15.453125 -0.5625 
Q 10.6875 0.296875 5.421875 2 
L 5.421875 11.28125 
Q 10.40625 8.6875 15.234375 7.390625 
Q 20.0625 6.109375 24.8125 6.109375 
Q 31.15625 6.109375 34.5625 8.28125 
Q 37.984375 10.453125 37.984375 14.40625 
Q 37.984375 18.0625 35.515625 20.015625 
Q 33.0625 21.96875 24.703125 23.78125 
L 21.578125 24.515625 
Q 13.234375 26.265625 9.515625 29.90625 
Q 5.8125 33.546875 5.8125 39.890625 
Q 5.8125 47.609375 11.28125 51.796875 
Q 16.75 56 26.8125 56 
Q 31.78125 56 36.171875 55.265625 
Q 40.578125 54.546875 44.28125 53.078125 
z
" id="DejaVuSans-115"/>
      <path d="M 8.5 21.578125 
L 8.5 54.6875 
L 17.484375 54.6875 
L 17.484375 21.921875 
Q 17.484375 14.15625 20.5 10.265625 
Q 23.53125 6.390625 29.59375 6.390625 
Q 36.859375 6.390625 41.078125 11.03125 
Q 45.3125 15.671875 45.3125 23.6875 
L 45.3125 54.6875 
L 54.296875 54.6875 
L 54.296875 0 
L 45.3125 0 
L 45.3125 8.40625 
Q 42.046875 3.421875 37.71875 1 
Q 33.40625 -1.421875 27.6875 -1.421875 
Q 18.265625 -1.421875 13.375 4.4375 
Q 8.5 10.296875 8.5 21.578125 
z
M 31.109375 56 
z
" id="DejaVuSans-117"/>
     </defs>
     <use xlink:href="#DejaVuSans-115"/>
     <use x="52.099609" xlink:href="#DejaVuSans-117"/>
     <use x="115.478516" xlink:href="#DejaVuSans-99"/>
     <use x="170.458984" xlink:href="#DejaVuSans-99"/>
    </g>
   </g>
   <g id="text_24">
    <!-- gsn -->
    <g transform="translate(47.678265 277.46049)scale(0.1 -0.1)">
     <use xlink:href="#DejaVuSans-103"/>
     <use x="63.476562" xlink:href="#DejaVuSans-115"/>
     <use x="115.576172" xlink:href="#DejaVuSans-110"/>
    </g>
   </g>
  </g>
 </g>
 <defs>
  <clipPath id="pb51aeb88f5">
   <rect height="576" width="936" x="0" y="0"/>
  </clipPath>
 </defs>
</svg>
