<?xml version="1.0" encoding="utf-8" standalone="no"?>
<!DOCTYPE svg PUBLIC "-//W3C//DTD SVG 1.1//EN"
  "http://www.w3.org/Graphics/SVG/1.1/DTD/svg11.dtd">
<!-- Created with matplotlib (https://matplotlib.org/) -->
<svg height="288pt" version="1.1" viewBox="0 0 432 288" width="432pt" xmlns="http://www.w3.org/2000/svg" xmlns:xlink="http://www.w3.org/1999/xlink">
 <metadata>
  <rdf:RDF xmlns:cc="http://creativecommons.org/ns#" xmlns:dc="http://purl.org/dc/elements/1.1/" xmlns:rdf="http://www.w3.org/1999/02/22-rdf-syntax-ns#">
   <cc:Work>
    <dc:type rdf:resource="http://purl.org/dc/dcmitype/StillImage"/>
    <dc:date>2022-11-01T13:43:53.513413</dc:date>
    <dc:format>image/svg+xml</dc:format>
    <dc:creator>
     <cc:Agent>
      <dc:title>Matplotlib v3.3.4, https://matplotlib.org/</dc:title>
     </cc:Agent>
    </dc:creator>
   </cc:Work>
  </rdf:RDF>
 </metadata>
 <defs>
  <style type="text/css">*{stroke-linecap:butt;stroke-linejoin:round;}</style>
 </defs>
 <g id="figure_1">
  <g id="patch_1">
   <path d="M 0 288 
L 432 288 
L 432 0 
L 0 0 
z
" style="fill:none;"/>
  </g>
  <g id="axes_1">
   <g id="patch_2">
    <path clip-path="url(#peb51567747)" d="M 151.572343 82.841281 
C 162.010932 70.999744 175.92719 62.751832 191.326265 59.279858 
C 206.725341 55.807883 222.834507 57.286069 237.344567 63.502523 
C 250.175875 62.634961 262.998056 65.367727 274.360591 71.391674 
C 285.723126 77.41562 295.180758 86.494691 301.663586 97.601809 
C 294.355871 84.761033 284.072294 73.859454 271.679344 65.815634 
C 259.286393 57.771814 245.142203 52.818205 230.438554 51.372193 
C 215.734904 49.926182 200.896704 52.029556 187.174211 57.505087 
C 173.451718 62.980617 161.241486 71.670072 151.572343 82.841281 
M 147.064578 88.480498 
C 137.35169 101.656012 131.314129 117.179989 129.572849 133.455809 
C 127.831569 149.731628 130.448386 166.1815 137.154164 181.113577 
C 143.859942 196.045653 154.416626 208.929846 167.738475 218.441035 
C 181.060324 227.952223 196.674414 233.752759 212.974855 235.246066 
C 229.275297 236.739373 245.683426 233.872439 260.511688 226.940123 
C 275.339951 220.007808 288.061944 209.256208 297.369228 195.791111 
C 306.676512 182.326014 312.238679 166.625431 313.483667 150.304146 
C 314.728655 133.98286 311.612268 117.620276 304.455021 102.899265 
C 309.600862 113.784194 311.812577 125.827671 310.869981 137.830707 
C 309.927385 149.833743 305.862831 161.384345 299.080965 171.332594 
C 292.299099 181.280843 283.032703 189.285275 272.204292 194.549007 
C 261.375881 199.81274 249.357131 202.155101 237.344567 201.342898 
C 222.271377 207.80061 205.488003 209.138516 189.582107 205.150339 
C 173.676211 201.162162 159.509539 192.063972 149.266311 179.258529 
C 139.023083 166.453086 133.258255 150.63416 132.860648 134.240716 
C 132.463041 117.847273 137.454197 101.767471 147.064578 88.480498 
" style="fill:#0000ff;opacity:0.4;"/>
   </g>
   <g id="patch_3">
    <path clip-path="url(#peb51567747)" d="M 237.344567 63.502523 
C 222.834507 57.286069 206.725341 55.807883 191.326265 59.279858 
C 175.92719 62.751832 162.010932 70.999744 151.572343 82.841281 
C 150.784661 83.751327 150.014844 84.676685 149.263335 85.616824 
C 148.511825 86.556963 147.778766 87.511703 147.064578 88.480498 
C 137.454197 101.767471 132.463041 117.847273 132.860648 134.240716 
C 133.258255 150.63416 139.023083 166.453086 149.266311 179.258529 
C 159.509539 192.063972 173.676211 201.162162 189.582107 205.150339 
C 205.488003 209.138516 222.271377 207.80061 237.344567 201.342898 
C 219.876222 200.161813 203.493944 192.382574 191.538624 179.591625 
C 179.583305 166.800677 172.926915 149.930938 172.926915 132.42271 
C 172.926915 114.914483 179.583305 98.044744 191.538624 85.253795 
C 203.493944 72.462847 219.876222 64.683607 237.344567 63.502523 
" style="fill:#b200b2;opacity:0.4;"/>
   </g>
   <g id="patch_4">
    <path clip-path="url(#peb51567747)" d="M 237.344567 201.342898 
C 249.357131 202.155101 261.375881 199.81274 272.204292 194.549007 
C 283.032703 189.285275 292.299099 181.280843 299.080965 171.332594 
C 305.862831 161.384345 309.927385 149.833743 310.869981 137.830707 
C 311.812577 125.827671 309.600862 113.784194 304.455021 102.899265 
C 304.018564 102.00156 303.567581 101.11099 303.10225 100.227907 
C 302.636919 99.344824 302.157301 98.469343 301.663586 97.601809 
C 295.180758 86.494691 285.723126 77.41562 274.360591 71.391674 
C 262.998056 65.367727 250.175875 62.634961 237.344567 63.502523 
C 250.832505 69.281075 262.331953 78.893917 270.410433 91.143583 
C 278.488912 103.393248 282.796445 117.749056 282.796445 132.42271 
C 282.796445 147.096364 278.488912 161.452172 270.410433 173.701838 
C 262.331953 185.951503 250.832505 195.564346 237.344567 201.342898 
" style="fill:#0059b2;opacity:0.4;"/>
   </g>
   <g id="patch_5">
    <path clip-path="url(#peb51567747)" d="M 237.344567 201.342898 
C 250.832505 195.564346 262.331953 185.951503 270.410433 173.701838 
C 278.488912 161.452172 282.796445 147.096364 282.796445 132.42271 
C 282.796445 117.749056 278.488912 103.393248 270.410433 91.143583 
C 262.331953 78.893917 250.832505 69.281075 237.344567 63.502523 
C 219.876222 64.683607 203.493944 72.462847 191.538624 85.253795 
C 179.583305 98.044744 172.926915 114.914483 172.926915 132.42271 
C 172.926915 149.930938 179.583305 166.800677 191.538624 179.591625 
C 203.493944 192.382574 219.876222 200.161813 237.344567 201.342898 
" style="fill:#663366;opacity:0.4;"/>
   </g>
   <g id="text_1">
    <text style="font-family:DejaVu Sans;font-size:10px;font-stretch:normal;font-style:normal;font-weight:normal;text-anchor:middle;" transform="rotate(-0, 214.471837, 206.740865)" x="214.471837" y="206.740865">64</text>
   </g>
   <g id="text_2">
    <text style="font-family:DejaVu Sans;font-size:10px;font-stretch:normal;font-style:normal;font-weight:normal;text-anchor:middle;" transform="rotate(-0, 167.111849, 139.007041)" x="167.111849" y="139.007041">73</text>
   </g>
   <g id="text_3">
    <text style="font-family:DejaVu Sans;font-size:10px;font-stretch:normal;font-style:normal;font-weight:normal;text-anchor:middle;" transform="rotate(-0, 287.418689, 137.168539)" x="287.418689" y="137.168539">42</text>
   </g>
   <g id="text_4">
    <text style="font-family:DejaVu Sans;font-size:10px;font-stretch:normal;font-style:normal;font-weight:normal;text-anchor:middle;" transform="rotate(-0, 227.86168, 135.182085)" x="227.86168" y="135.182085">132</text>
   </g>
   <g id="text_5">
    <text style="font-family:DejaVu Sans;font-size:12px;font-stretch:normal;font-style:normal;font-weight:normal;text-anchor:end;" transform="rotate(-0, 170.328064, 57.44379)" x="170.328064" y="57.44379">FS</text>
   </g>
   <g id="text_6">
    <text style="font-family:DejaVu Sans;font-size:12px;font-stretch:normal;font-style:normal;font-weight:normal;text-anchor:start;" transform="rotate(-0, 276.543228, 63.345168)" x="276.543228" y="63.345168">MC</text>
   </g>
   <g id="text_7">
    <text style="font-family:DejaVu Sans;font-size:12px;font-stretch:normal;font-style:normal;font-weight:normal;text-anchor:middle;" transform="rotate(-0, 221.4, 253.984423)" x="221.4" y="253.984423">VG</text>
   </g>
  </g>
 </g>
 <defs>
  <clipPath id="peb51567747">
   <rect height="217.44" width="217.44" x="112.68" y="34.56"/>
  </clipPath>
 </defs>
</svg>
