<?xml version="1.0" encoding="utf-8" standalone="no"?>
<!DOCTYPE svg PUBLIC "-//W3C//DTD SVG 1.1//EN"
  "http://www.w3.org/Graphics/SVG/1.1/DTD/svg11.dtd">
<!-- Created with matplotlib (https://matplotlib.org/) -->
<svg height="288pt" version="1.1" viewBox="0 0 864 288" width="864pt" xmlns="http://www.w3.org/2000/svg" xmlns:xlink="http://www.w3.org/1999/xlink">
 <metadata>
  <rdf:RDF xmlns:cc="http://creativecommons.org/ns#" xmlns:dc="http://purl.org/dc/elements/1.1/" xmlns:rdf="http://www.w3.org/1999/02/22-rdf-syntax-ns#">
   <cc:Work>
    <dc:type rdf:resource="http://purl.org/dc/dcmitype/StillImage"/>
    <dc:date>2022-02-25T08:45:10.640105</dc:date>
    <dc:format>image/svg+xml</dc:format>
    <dc:creator>
     <cc:Agent>
      <dc:title>Matplotlib v3.3.4, https://matplotlib.org/</dc:title>
     </cc:Agent>
    </dc:creator>
   </cc:Work>
  </rdf:RDF>
 </metadata>
 <defs>
  <style type="text/css">*{stroke-linecap:butt;stroke-linejoin:round;}</style>
 </defs>
 <g id="figure_1">
  <g id="patch_1">
   <path d="M 0 288 
L 864 288 
L 864 0 
L 0 0 
z
" style="fill:none;"/>
  </g>
  <g id="axes_1">
   <g id="patch_2">
    <path d="M 39.925 220.575 
L 853.2 220.575 
L 853.2 11.724093 
L 39.925 11.724093 
z
" style="fill:#ffffff;"/>
   </g>
   <g id="patch_3">
    <path clip-path="url(#pd0c2ba9d18)" d="M 43.761203 220.575 
L 51.433608 220.575 
L 51.433608 220.575 
L 43.761203 220.575 
z
" style="fill:#1f77b4;"/>
   </g>
   <g id="patch_4">
    <path clip-path="url(#pd0c2ba9d18)" d="M 59.106014 220.575 
L 66.77842 220.575 
L 66.77842 220.575 
L 59.106014 220.575 
z
" style="fill:#1f77b4;"/>
   </g>
   <g id="patch_5">
    <path clip-path="url(#pd0c2ba9d18)" d="M 74.450825 220.575 
L 82.123231 220.575 
L 82.123231 220.575 
L 74.450825 220.575 
z
" style="fill:#1f77b4;"/>
   </g>
   <g id="patch_6">
    <path clip-path="url(#pd0c2ba9d18)" d="M 89.795637 220.575 
L 97.468042 220.575 
L 97.468042 220.575 
L 89.795637 220.575 
z
" style="fill:#1f77b4;"/>
   </g>
   <g id="patch_7">
    <path clip-path="url(#pd0c2ba9d18)" d="M 105.140448 220.575 
L 112.812854 220.575 
L 112.812854 220.575 
L 105.140448 220.575 
z
" style="fill:#1f77b4;"/>
   </g>
   <g id="patch_8">
    <path clip-path="url(#pd0c2ba9d18)" d="M 120.485259 220.575 
L 128.157665 220.575 
L 128.157665 220.575 
L 120.485259 220.575 
z
" style="fill:#1f77b4;"/>
   </g>
   <g id="patch_9">
    <path clip-path="url(#pd0c2ba9d18)" d="M 135.830071 220.575 
L 143.502476 220.575 
L 143.502476 220.575 
L 135.830071 220.575 
z
" style="fill:#1f77b4;"/>
   </g>
   <g id="patch_10">
    <path clip-path="url(#pd0c2ba9d18)" d="M 151.174882 220.575 
L 158.847288 220.575 
L 158.847288 220.575 
L 151.174882 220.575 
z
" style="fill:#1f77b4;"/>
   </g>
   <g id="patch_11">
    <path clip-path="url(#pd0c2ba9d18)" d="M 166.519693 220.575 
L 174.192099 220.575 
L 174.192099 220.575 
L 166.519693 220.575 
z
" style="fill:#1f77b4;"/>
   </g>
   <g id="patch_12">
    <path clip-path="url(#pd0c2ba9d18)" d="M 181.864505 220.575 
L 189.53691 220.575 
L 189.53691 220.575 
L 181.864505 220.575 
z
" style="fill:#1f77b4;"/>
   </g>
   <g id="patch_13">
    <path clip-path="url(#pd0c2ba9d18)" d="M 197.209316 220.575 
L 204.881722 220.575 
L 204.881722 220.575 
L 197.209316 220.575 
z
" style="fill:#1f77b4;"/>
   </g>
   <g id="patch_14">
    <path clip-path="url(#pd0c2ba9d18)" d="M 212.554127 220.575 
L 220.226533 220.575 
L 220.226533 220.575 
L 212.554127 220.575 
z
" style="fill:#1f77b4;"/>
   </g>
   <g id="patch_15">
    <path clip-path="url(#pd0c2ba9d18)" d="M 227.898939 220.575 
L 235.571344 220.575 
L 235.571344 220.575 
L 227.898939 220.575 
z
" style="fill:#1f77b4;"/>
   </g>
   <g id="patch_16">
    <path clip-path="url(#pd0c2ba9d18)" d="M 243.24375 220.575 
L 250.916156 220.575 
L 250.916156 108.792201 
L 243.24375 108.792201 
z
" style="fill:#1f77b4;"/>
   </g>
   <g id="patch_17">
    <path clip-path="url(#pd0c2ba9d18)" d="M 258.588561 220.575 
L 266.260967 220.575 
L 266.260967 98.75437 
L 258.588561 98.75437 
z
" style="fill:#1f77b4;"/>
   </g>
   <g id="patch_18">
    <path clip-path="url(#pd0c2ba9d18)" d="M 273.933373 220.575 
L 281.605778 220.575 
L 281.605778 97.887775 
L 273.933373 97.887775 
z
" style="fill:#1f77b4;"/>
   </g>
   <g id="patch_19">
    <path clip-path="url(#pd0c2ba9d18)" d="M 289.278184 220.575 
L 296.95059 220.575 
L 296.95059 96.285492 
L 289.278184 96.285492 
z
" style="fill:#1f77b4;"/>
   </g>
   <g id="patch_20">
    <path clip-path="url(#pd0c2ba9d18)" d="M 304.622995 220.575 
L 312.295401 220.575 
L 312.295401 52.898183 
L 304.622995 52.898183 
z
" style="fill:#1f77b4;"/>
   </g>
   <g id="patch_21">
    <path clip-path="url(#pd0c2ba9d18)" d="M 319.967807 220.575 
L 327.640212 220.575 
L 327.640212 52.835349 
L 319.967807 52.835349 
z
" style="fill:#1f77b4;"/>
   </g>
   <g id="patch_22">
    <path clip-path="url(#pd0c2ba9d18)" d="M 335.312618 220.575 
L 342.985024 220.575 
L 342.985024 52.227947 
L 335.312618 52.227947 
z
" style="fill:#1f77b4;"/>
   </g>
   <g id="patch_23">
    <path clip-path="url(#pd0c2ba9d18)" d="M 350.657429 220.575 
L 358.329835 220.575 
L 358.329835 51.987081 
L 350.657429 51.987081 
z
" style="fill:#1f77b4;"/>
   </g>
   <g id="patch_24">
    <path clip-path="url(#pd0c2ba9d18)" d="M 366.002241 220.575 
L 373.674646 220.575 
L 373.674646 51.908538 
L 366.002241 51.908538 
z
" style="fill:#1f77b4;"/>
   </g>
   <g id="patch_25">
    <path clip-path="url(#pd0c2ba9d18)" d="M 381.347052 220.575 
L 389.019458 220.575 
L 389.019458 51.455605 
L 381.347052 51.455605 
z
" style="fill:#1f77b4;"/>
   </g>
   <g id="patch_26">
    <path clip-path="url(#pd0c2ba9d18)" d="M 396.691863 220.575 
L 404.364269 220.575 
L 404.364269 51.3247 
L 396.691863 51.3247 
z
" style="fill:#1f77b4;"/>
   </g>
   <g id="patch_27">
    <path clip-path="url(#pd0c2ba9d18)" d="M 412.036675 220.575 
L 419.70908 220.575 
L 419.70908 51.130959 
L 412.036675 51.130959 
z
" style="fill:#1f77b4;"/>
   </g>
   <g id="patch_28">
    <path clip-path="url(#pd0c2ba9d18)" d="M 427.381486 220.575 
L 435.053892 220.575 
L 435.053892 50.79846 
L 427.381486 50.79846 
z
" style="fill:#1f77b4;"/>
   </g>
   <g id="patch_29">
    <path clip-path="url(#pd0c2ba9d18)" d="M 442.726297 220.575 
L 450.398703 220.575 
L 450.398703 22.09089 
L 442.726297 22.09089 
z
" style="fill:#1f77b4;"/>
   </g>
   <g id="patch_30">
    <path clip-path="url(#pd0c2ba9d18)" d="M 458.071108 220.575 
L 465.743514 220.575 
L 465.743514 22.049 
L 458.071108 22.049 
z
" style="fill:#1f77b4;"/>
   </g>
   <g id="patch_31">
    <path clip-path="url(#pd0c2ba9d18)" d="M 473.41592 220.575 
L 481.088325 220.575 
L 481.088325 22.014965 
L 473.41592 22.014965 
z
" style="fill:#1f77b4;"/>
   </g>
   <g id="patch_32">
    <path clip-path="url(#pd0c2ba9d18)" d="M 488.760731 220.575 
L 496.433137 220.575 
L 496.433137 21.878823 
L 488.760731 21.878823 
z
" style="fill:#1f77b4;"/>
   </g>
   <g id="patch_33">
    <path clip-path="url(#pd0c2ba9d18)" d="M 504.105542 220.575 
L 511.777948 220.575 
L 511.777948 21.865733 
L 504.105542 21.865733 
z
" style="fill:#1f77b4;"/>
   </g>
   <g id="patch_34">
    <path clip-path="url(#pd0c2ba9d18)" d="M 519.450354 220.575 
L 527.122759 220.575 
L 527.122759 21.844788 
L 519.450354 21.844788 
z
" style="fill:#1f77b4;"/>
   </g>
   <g id="patch_35">
    <path clip-path="url(#pd0c2ba9d18)" d="M 534.795165 220.575 
L 542.467571 220.575 
L 542.467571 21.784571 
L 534.795165 21.784571 
z
" style="fill:#1f77b4;"/>
   </g>
   <g id="patch_36">
    <path clip-path="url(#pd0c2ba9d18)" d="M 550.139976 220.575 
L 557.812382 220.575 
L 557.812382 21.724355 
L 550.139976 21.724355 
z
" style="fill:#1f77b4;"/>
   </g>
   <g id="patch_37">
    <path clip-path="url(#pd0c2ba9d18)" d="M 565.484788 220.575 
L 573.157193 220.575 
L 573.157193 21.711264 
L 565.484788 21.711264 
z
" style="fill:#1f77b4;"/>
   </g>
   <g id="patch_38">
    <path clip-path="url(#pd0c2ba9d18)" d="M 580.829599 220.575 
L 588.502005 220.575 
L 588.502005 21.70341 
L 580.829599 21.70341 
z
" style="fill:#1f77b4;"/>
   </g>
   <g id="patch_39">
    <path clip-path="url(#pd0c2ba9d18)" d="M 596.17441 220.575 
L 603.846816 220.575 
L 603.846816 21.700792 
L 596.17441 21.700792 
z
" style="fill:#1f77b4;"/>
   </g>
   <g id="patch_40">
    <path clip-path="url(#pd0c2ba9d18)" d="M 611.519222 220.575 
L 619.191627 220.575 
L 619.191627 21.695555 
L 611.519222 21.695555 
z
" style="fill:#1f77b4;"/>
   </g>
   <g id="patch_41">
    <path clip-path="url(#pd0c2ba9d18)" d="M 626.864033 220.575 
L 634.536439 220.575 
L 634.536439 21.690319 
L 626.864033 21.690319 
z
" style="fill:#1f77b4;"/>
   </g>
   <g id="patch_42">
    <path clip-path="url(#pd0c2ba9d18)" d="M 642.208844 220.575 
L 649.88125 220.575 
L 649.88125 21.690319 
L 642.208844 21.690319 
z
" style="fill:#1f77b4;"/>
   </g>
   <g id="patch_43">
    <path clip-path="url(#pd0c2ba9d18)" d="M 657.553656 220.575 
L 665.226061 220.575 
L 665.226061 21.690319 
L 657.553656 21.690319 
z
" style="fill:#1f77b4;"/>
   </g>
   <g id="patch_44">
    <path clip-path="url(#pd0c2ba9d18)" d="M 672.898467 220.575 
L 680.570873 220.575 
L 680.570873 21.690319 
L 672.898467 21.690319 
z
" style="fill:#1f77b4;"/>
   </g>
   <g id="patch_45">
    <path clip-path="url(#pd0c2ba9d18)" d="M 688.243278 220.575 
L 695.915684 220.575 
L 695.915684 21.690319 
L 688.243278 21.690319 
z
" style="fill:#1f77b4;"/>
   </g>
   <g id="patch_46">
    <path clip-path="url(#pd0c2ba9d18)" d="M 703.58809 220.575 
L 711.260495 220.575 
L 711.260495 21.674611 
L 703.58809 21.674611 
z
" style="fill:#1f77b4;"/>
   </g>
   <g id="patch_47">
    <path clip-path="url(#pd0c2ba9d18)" d="M 718.932901 220.575 
L 726.605307 220.575 
L 726.605307 21.674611 
L 718.932901 21.674611 
z
" style="fill:#1f77b4;"/>
   </g>
   <g id="patch_48">
    <path clip-path="url(#pd0c2ba9d18)" d="M 734.277712 220.575 
L 741.950118 220.575 
L 741.950118 21.669374 
L 734.277712 21.669374 
z
" style="fill:#1f77b4;"/>
   </g>
   <g id="patch_49">
    <path clip-path="url(#pd0c2ba9d18)" d="M 749.622524 220.575 
L 757.294929 220.575 
L 757.294929 21.669374 
L 749.622524 21.669374 
z
" style="fill:#1f77b4;"/>
   </g>
   <g id="patch_50">
    <path clip-path="url(#pd0c2ba9d18)" d="M 764.967335 220.575 
L 772.639741 220.575 
L 772.639741 21.669374 
L 764.967335 21.669374 
z
" style="fill:#1f77b4;"/>
   </g>
   <g id="patch_51">
    <path clip-path="url(#pd0c2ba9d18)" d="M 780.312146 220.575 
L 787.984552 220.575 
L 787.984552 21.669374 
L 780.312146 21.669374 
z
" style="fill:#1f77b4;"/>
   </g>
   <g id="patch_52">
    <path clip-path="url(#pd0c2ba9d18)" d="M 795.656958 220.575 
L 803.329363 220.575 
L 803.329363 21.669374 
L 795.656958 21.669374 
z
" style="fill:#1f77b4;"/>
   </g>
   <g id="patch_53">
    <path clip-path="url(#pd0c2ba9d18)" d="M 811.001769 220.575 
L 818.674175 220.575 
L 818.674175 21.669374 
L 811.001769 21.669374 
z
" style="fill:#1f77b4;"/>
   </g>
   <g id="patch_54">
    <path clip-path="url(#pd0c2ba9d18)" d="M 826.34658 220.575 
L 834.018986 220.575 
L 834.018986 21.669374 
L 826.34658 21.669374 
z
" style="fill:#1f77b4;"/>
   </g>
   <g id="patch_55">
    <path clip-path="url(#pd0c2ba9d18)" d="M 841.691392 220.575 
L 849.363797 220.575 
L 849.363797 21.669374 
L 841.691392 21.669374 
z
" style="fill:#1f77b4;"/>
   </g>
   <g id="matplotlib.axis_1">
    <g id="xtick_1">
     <g id="line2d_1">
      <defs>
       <path d="M 0 0 
L 0 3.5 
" id="m5a6327515a" style="stroke:#000000;stroke-width:0.8;"/>
      </defs>
      <g>
       <use style="stroke:#000000;stroke-width:0.8;" x="47.597406" xlink:href="#m5a6327515a" y="220.575"/>
      </g>
     </g>
     <g id="text_1">
      <!-- arg__L_s -->
      <g transform="translate(50.078656 269.76875)rotate(-90)scale(0.1 -0.1)">
       <defs>
        <path d="M 34.28125 27.484375 
Q 23.390625 27.484375 19.1875 25 
Q 14.984375 22.515625 14.984375 16.5 
Q 14.984375 11.71875 18.140625 8.90625 
Q 21.296875 6.109375 26.703125 6.109375 
Q 34.1875 6.109375 38.703125 11.40625 
Q 43.21875 16.703125 43.21875 25.484375 
L 43.21875 27.484375 
z
M 52.203125 31.203125 
L 52.203125 0 
L 43.21875 0 
L 43.21875 8.296875 
Q 40.140625 3.328125 35.546875 0.953125 
Q 30.953125 -1.421875 24.3125 -1.421875 
Q 15.921875 -1.421875 10.953125 3.296875 
Q 6 8.015625 6 15.921875 
Q 6 25.140625 12.171875 29.828125 
Q 18.359375 34.515625 30.609375 34.515625 
L 43.21875 34.515625 
L 43.21875 35.40625 
Q 43.21875 41.609375 39.140625 45 
Q 35.0625 48.390625 27.6875 48.390625 
Q 23 48.390625 18.546875 47.265625 
Q 14.109375 46.140625 10.015625 43.890625 
L 10.015625 52.203125 
Q 14.9375 54.109375 19.578125 55.046875 
Q 24.21875 56 28.609375 56 
Q 40.484375 56 46.34375 49.84375 
Q 52.203125 43.703125 52.203125 31.203125 
z
" id="DejaVuSans-97"/>
        <path d="M 41.109375 46.296875 
Q 39.59375 47.171875 37.8125 47.578125 
Q 36.03125 48 33.890625 48 
Q 26.265625 48 22.1875 43.046875 
Q 18.109375 38.09375 18.109375 28.8125 
L 18.109375 0 
L 9.078125 0 
L 9.078125 54.6875 
L 18.109375 54.6875 
L 18.109375 46.1875 
Q 20.953125 51.171875 25.484375 53.578125 
Q 30.03125 56 36.53125 56 
Q 37.453125 56 38.578125 55.875 
Q 39.703125 55.765625 41.0625 55.515625 
z
" id="DejaVuSans-114"/>
        <path d="M 45.40625 27.984375 
Q 45.40625 37.75 41.375 43.109375 
Q 37.359375 48.484375 30.078125 48.484375 
Q 22.859375 48.484375 18.828125 43.109375 
Q 14.796875 37.75 14.796875 27.984375 
Q 14.796875 18.265625 18.828125 12.890625 
Q 22.859375 7.515625 30.078125 7.515625 
Q 37.359375 7.515625 41.375 12.890625 
Q 45.40625 18.265625 45.40625 27.984375 
z
M 54.390625 6.78125 
Q 54.390625 -7.171875 48.1875 -13.984375 
Q 42 -20.796875 29.203125 -20.796875 
Q 24.46875 -20.796875 20.265625 -20.09375 
Q 16.0625 -19.390625 12.109375 -17.921875 
L 12.109375 -9.1875 
Q 16.0625 -11.328125 19.921875 -12.34375 
Q 23.78125 -13.375 27.78125 -13.375 
Q 36.625 -13.375 41.015625 -8.765625 
Q 45.40625 -4.15625 45.40625 5.171875 
L 45.40625 9.625 
Q 42.625 4.78125 38.28125 2.390625 
Q 33.9375 0 27.875 0 
Q 17.828125 0 11.671875 7.65625 
Q 5.515625 15.328125 5.515625 27.984375 
Q 5.515625 40.671875 11.671875 48.328125 
Q 17.828125 56 27.875 56 
Q 33.9375 56 38.28125 53.609375 
Q 42.625 51.21875 45.40625 46.390625 
L 45.40625 54.6875 
L 54.390625 54.6875 
z
" id="DejaVuSans-103"/>
        <path d="M 50.984375 -16.609375 
L 50.984375 -23.578125 
L -0.984375 -23.578125 
L -0.984375 -16.609375 
z
" id="DejaVuSans-95"/>
        <path d="M 9.8125 72.90625 
L 19.671875 72.90625 
L 19.671875 8.296875 
L 55.171875 8.296875 
L 55.171875 0 
L 9.8125 0 
z
" id="DejaVuSans-76"/>
        <path d="M 44.28125 53.078125 
L 44.28125 44.578125 
Q 40.484375 46.53125 36.375 47.5 
Q 32.28125 48.484375 27.875 48.484375 
Q 21.1875 48.484375 17.84375 46.4375 
Q 14.5 44.390625 14.5 40.28125 
Q 14.5 37.15625 16.890625 35.375 
Q 19.28125 33.59375 26.515625 31.984375 
L 29.59375 31.296875 
Q 39.15625 29.25 43.1875 25.515625 
Q 47.21875 21.78125 47.21875 15.09375 
Q 47.21875 7.46875 41.1875 3.015625 
Q 35.15625 -1.421875 24.609375 -1.421875 
Q 20.21875 -1.421875 15.453125 -0.5625 
Q 10.6875 0.296875 5.421875 2 
L 5.421875 11.28125 
Q 10.40625 8.6875 15.234375 7.390625 
Q 20.0625 6.109375 24.8125 6.109375 
Q 31.15625 6.109375 34.5625 8.28125 
Q 37.984375 10.453125 37.984375 14.40625 
Q 37.984375 18.0625 35.515625 20.015625 
Q 33.0625 21.96875 24.703125 23.78125 
L 21.578125 24.515625 
Q 13.234375 26.265625 9.515625 29.90625 
Q 5.8125 33.546875 5.8125 39.890625 
Q 5.8125 47.609375 11.28125 51.796875 
Q 16.75 56 26.8125 56 
Q 31.78125 56 36.171875 55.265625 
Q 40.578125 54.546875 44.28125 53.078125 
z
" id="DejaVuSans-115"/>
       </defs>
       <use xlink:href="#DejaVuSans-97"/>
       <use x="61.279297" xlink:href="#DejaVuSans-114"/>
       <use x="100.642578" xlink:href="#DejaVuSans-103"/>
       <use x="164.119141" xlink:href="#DejaVuSans-95"/>
       <use x="214.119141" xlink:href="#DejaVuSans-95"/>
       <use x="264.119141" xlink:href="#DejaVuSans-76"/>
       <use x="319.832031" xlink:href="#DejaVuSans-95"/>
       <use x="369.832031" xlink:href="#DejaVuSans-115"/>
      </g>
     </g>
    </g>
    <g id="xtick_2">
     <g id="line2d_2">
      <g>
       <use style="stroke:#000000;stroke-width:0.8;" x="62.942217" xlink:href="#m5a6327515a" y="220.575"/>
      </g>
     </g>
     <g id="text_2">
      <!-- met__L_s -->
      <g transform="translate(65.423467 273.170313)rotate(-90)scale(0.1 -0.1)">
       <defs>
        <path d="M 52 44.1875 
Q 55.375 50.25 60.0625 53.125 
Q 64.75 56 71.09375 56 
Q 79.640625 56 84.28125 50.015625 
Q 88.921875 44.046875 88.921875 33.015625 
L 88.921875 0 
L 79.890625 0 
L 79.890625 32.71875 
Q 79.890625 40.578125 77.09375 44.375 
Q 74.3125 48.1875 68.609375 48.1875 
Q 61.625 48.1875 57.5625 43.546875 
Q 53.515625 38.921875 53.515625 30.90625 
L 53.515625 0 
L 44.484375 0 
L 44.484375 32.71875 
Q 44.484375 40.625 41.703125 44.40625 
Q 38.921875 48.1875 33.109375 48.1875 
Q 26.21875 48.1875 22.15625 43.53125 
Q 18.109375 38.875 18.109375 30.90625 
L 18.109375 0 
L 9.078125 0 
L 9.078125 54.6875 
L 18.109375 54.6875 
L 18.109375 46.1875 
Q 21.1875 51.21875 25.484375 53.609375 
Q 29.78125 56 35.6875 56 
Q 41.65625 56 45.828125 52.96875 
Q 50 49.953125 52 44.1875 
z
" id="DejaVuSans-109"/>
        <path d="M 56.203125 29.59375 
L 56.203125 25.203125 
L 14.890625 25.203125 
Q 15.484375 15.921875 20.484375 11.0625 
Q 25.484375 6.203125 34.421875 6.203125 
Q 39.59375 6.203125 44.453125 7.46875 
Q 49.3125 8.734375 54.109375 11.28125 
L 54.109375 2.78125 
Q 49.265625 0.734375 44.1875 -0.34375 
Q 39.109375 -1.421875 33.890625 -1.421875 
Q 20.796875 -1.421875 13.15625 6.1875 
Q 5.515625 13.8125 5.515625 26.8125 
Q 5.515625 40.234375 12.765625 48.109375 
Q 20.015625 56 32.328125 56 
Q 43.359375 56 49.78125 48.890625 
Q 56.203125 41.796875 56.203125 29.59375 
z
M 47.21875 32.234375 
Q 47.125 39.59375 43.09375 43.984375 
Q 39.0625 48.390625 32.421875 48.390625 
Q 24.90625 48.390625 20.390625 44.140625 
Q 15.875 39.890625 15.1875 32.171875 
z
" id="DejaVuSans-101"/>
        <path d="M 18.3125 70.21875 
L 18.3125 54.6875 
L 36.8125 54.6875 
L 36.8125 47.703125 
L 18.3125 47.703125 
L 18.3125 18.015625 
Q 18.3125 11.328125 20.140625 9.421875 
Q 21.96875 7.515625 27.59375 7.515625 
L 36.8125 7.515625 
L 36.8125 0 
L 27.59375 0 
Q 17.1875 0 13.234375 3.875 
Q 9.28125 7.765625 9.28125 18.015625 
L 9.28125 47.703125 
L 2.6875 47.703125 
L 2.6875 54.6875 
L 9.28125 54.6875 
L 9.28125 70.21875 
z
" id="DejaVuSans-116"/>
       </defs>
       <use xlink:href="#DejaVuSans-109"/>
       <use x="97.412109" xlink:href="#DejaVuSans-101"/>
       <use x="158.935547" xlink:href="#DejaVuSans-116"/>
       <use x="198.144531" xlink:href="#DejaVuSans-95"/>
       <use x="248.144531" xlink:href="#DejaVuSans-95"/>
       <use x="298.144531" xlink:href="#DejaVuSans-76"/>
       <use x="353.857422" xlink:href="#DejaVuSans-95"/>
       <use x="403.857422" xlink:href="#DejaVuSans-115"/>
      </g>
     </g>
    </g>
    <g id="xtick_3">
     <g id="line2d_3">
      <g>
       <use style="stroke:#000000;stroke-width:0.8;" x="78.287028" xlink:href="#m5a6327515a" y="220.575"/>
      </g>
     </g>
     <g id="text_3">
      <!-- mn2_s -->
      <g transform="translate(80.81906 260.225)rotate(-90)scale(0.1 -0.1)">
       <defs>
        <path d="M 54.890625 33.015625 
L 54.890625 0 
L 45.90625 0 
L 45.90625 32.71875 
Q 45.90625 40.484375 42.875 44.328125 
Q 39.84375 48.1875 33.796875 48.1875 
Q 26.515625 48.1875 22.3125 43.546875 
Q 18.109375 38.921875 18.109375 30.90625 
L 18.109375 0 
L 9.078125 0 
L 9.078125 54.6875 
L 18.109375 54.6875 
L 18.109375 46.1875 
Q 21.34375 51.125 25.703125 53.5625 
Q 30.078125 56 35.796875 56 
Q 45.21875 56 50.046875 50.171875 
Q 54.890625 44.34375 54.890625 33.015625 
z
" id="DejaVuSans-110"/>
        <path d="M 19.1875 8.296875 
L 53.609375 8.296875 
L 53.609375 0 
L 7.328125 0 
L 7.328125 8.296875 
Q 12.9375 14.109375 22.625 23.890625 
Q 32.328125 33.6875 34.8125 36.53125 
Q 39.546875 41.84375 41.421875 45.53125 
Q 43.3125 49.21875 43.3125 52.78125 
Q 43.3125 58.59375 39.234375 62.25 
Q 35.15625 65.921875 28.609375 65.921875 
Q 23.96875 65.921875 18.8125 64.3125 
Q 13.671875 62.703125 7.8125 59.421875 
L 7.8125 69.390625 
Q 13.765625 71.78125 18.9375 73 
Q 24.125 74.21875 28.421875 74.21875 
Q 39.75 74.21875 46.484375 68.546875 
Q 53.21875 62.890625 53.21875 53.421875 
Q 53.21875 48.921875 51.53125 44.890625 
Q 49.859375 40.875 45.40625 35.40625 
Q 44.1875 33.984375 37.640625 27.21875 
Q 31.109375 20.453125 19.1875 8.296875 
z
" id="DejaVuSans-50"/>
       </defs>
       <use xlink:href="#DejaVuSans-109"/>
       <use x="97.412109" xlink:href="#DejaVuSans-110"/>
       <use x="160.791016" xlink:href="#DejaVuSans-50"/>
       <use x="224.414062" xlink:href="#DejaVuSans-95"/>
       <use x="274.414062" xlink:href="#DejaVuSans-115"/>
      </g>
     </g>
    </g>
    <g id="xtick_4">
     <g id="line2d_4">
      <g>
       <use style="stroke:#000000;stroke-width:0.8;" x="93.63184" xlink:href="#m5a6327515a" y="220.575"/>
      </g>
     </g>
     <g id="text_4">
      <!-- zn2_s -->
      <g transform="translate(96.163871 255.732812)rotate(-90)scale(0.1 -0.1)">
       <defs>
        <path d="M 5.515625 54.6875 
L 48.1875 54.6875 
L 48.1875 46.484375 
L 14.40625 7.171875 
L 48.1875 7.171875 
L 48.1875 0 
L 4.296875 0 
L 4.296875 8.203125 
L 38.09375 47.515625 
L 5.515625 47.515625 
z
" id="DejaVuSans-122"/>
       </defs>
       <use xlink:href="#DejaVuSans-122"/>
       <use x="52.490234" xlink:href="#DejaVuSans-110"/>
       <use x="115.869141" xlink:href="#DejaVuSans-50"/>
       <use x="179.492188" xlink:href="#DejaVuSans-95"/>
       <use x="229.492188" xlink:href="#DejaVuSans-115"/>
      </g>
     </g>
    </g>
    <g id="xtick_5">
     <g id="line2d_5">
      <g>
       <use style="stroke:#000000;stroke-width:0.8;" x="108.976651" xlink:href="#m5a6327515a" y="220.575"/>
      </g>
     </g>
     <g id="text_5">
      <!-- mg2_s -->
      <g transform="translate(111.508682 260.235937)rotate(-90)scale(0.1 -0.1)">
       <use xlink:href="#DejaVuSans-109"/>
       <use x="97.412109" xlink:href="#DejaVuSans-103"/>
       <use x="160.888672" xlink:href="#DejaVuSans-50"/>
       <use x="224.511719" xlink:href="#DejaVuSans-95"/>
       <use x="274.511719" xlink:href="#DejaVuSans-115"/>
      </g>
     </g>
    </g>
    <g id="xtick_6">
     <g id="line2d_6">
      <g>
       <use style="stroke:#000000;stroke-width:0.8;" x="124.321462" xlink:href="#m5a6327515a" y="220.575"/>
      </g>
     </g>
     <g id="text_6">
      <!-- k_s -->
      <g transform="translate(126.941775 243.575)rotate(-90)scale(0.1 -0.1)">
       <defs>
        <path d="M 9.078125 75.984375 
L 18.109375 75.984375 
L 18.109375 31.109375 
L 44.921875 54.6875 
L 56.390625 54.6875 
L 27.390625 29.109375 
L 57.625 0 
L 45.90625 0 
L 18.109375 26.703125 
L 18.109375 0 
L 9.078125 0 
z
" id="DejaVuSans-107"/>
       </defs>
       <use xlink:href="#DejaVuSans-107"/>
       <use x="57.910156" xlink:href="#DejaVuSans-95"/>
       <use x="107.910156" xlink:href="#DejaVuSans-115"/>
      </g>
     </g>
    </g>
    <g id="xtick_7">
     <g id="line2d_7">
      <g>
       <use style="stroke:#000000;stroke-width:0.8;" x="139.666274" xlink:href="#m5a6327515a" y="220.575"/>
      </g>
     </g>
     <g id="text_7">
      <!-- lac__L_c -->
      <g transform="translate(142.286586 268.05)rotate(-90)scale(0.1 -0.1)">
       <defs>
        <path d="M 9.421875 75.984375 
L 18.40625 75.984375 
L 18.40625 0 
L 9.421875 0 
z
" id="DejaVuSans-108"/>
        <path d="M 48.78125 52.59375 
L 48.78125 44.1875 
Q 44.96875 46.296875 41.140625 47.34375 
Q 37.3125 48.390625 33.40625 48.390625 
Q 24.65625 48.390625 19.8125 42.84375 
Q 14.984375 37.3125 14.984375 27.296875 
Q 14.984375 17.28125 19.8125 11.734375 
Q 24.65625 6.203125 33.40625 6.203125 
Q 37.3125 6.203125 41.140625 7.25 
Q 44.96875 8.296875 48.78125 10.40625 
L 48.78125 2.09375 
Q 45.015625 0.34375 40.984375 -0.53125 
Q 36.96875 -1.421875 32.421875 -1.421875 
Q 20.0625 -1.421875 12.78125 6.34375 
Q 5.515625 14.109375 5.515625 27.296875 
Q 5.515625 40.671875 12.859375 48.328125 
Q 20.21875 56 33.015625 56 
Q 37.15625 56 41.109375 55.140625 
Q 45.0625 54.296875 48.78125 52.59375 
z
" id="DejaVuSans-99"/>
       </defs>
       <use xlink:href="#DejaVuSans-108"/>
       <use x="27.783203" xlink:href="#DejaVuSans-97"/>
       <use x="89.0625" xlink:href="#DejaVuSans-99"/>
       <use x="144.042969" xlink:href="#DejaVuSans-95"/>
       <use x="194.042969" xlink:href="#DejaVuSans-95"/>
       <use x="244.042969" xlink:href="#DejaVuSans-76"/>
       <use x="299.755859" xlink:href="#DejaVuSans-95"/>
       <use x="349.755859" xlink:href="#DejaVuSans-99"/>
      </g>
     </g>
    </g>
    <g id="xtick_8">
     <g id="line2d_8">
      <g>
       <use style="stroke:#000000;stroke-width:0.8;" x="155.011085" xlink:href="#m5a6327515a" y="220.575"/>
      </g>
     </g>
     <g id="text_8">
      <!-- ac_c -->
      <g transform="translate(157.492335 249.7)rotate(-90)scale(0.1 -0.1)">
       <use xlink:href="#DejaVuSans-97"/>
       <use x="61.279297" xlink:href="#DejaVuSans-99"/>
       <use x="116.259766" xlink:href="#DejaVuSans-95"/>
       <use x="166.259766" xlink:href="#DejaVuSans-99"/>
      </g>
     </g>
    </g>
    <g id="xtick_9">
     <g id="line2d_9">
      <g>
       <use style="stroke:#000000;stroke-width:0.8;" x="170.355896" xlink:href="#m5a6327515a" y="220.575"/>
      </g>
     </g>
     <g id="text_9">
      <!-- akg_s -->
      <g transform="translate(172.976209 256.051562)rotate(-90)scale(0.1 -0.1)">
       <use xlink:href="#DejaVuSans-97"/>
       <use x="61.279297" xlink:href="#DejaVuSans-107"/>
       <use x="119.189453" xlink:href="#DejaVuSans-103"/>
       <use x="182.666016" xlink:href="#DejaVuSans-95"/>
       <use x="232.666016" xlink:href="#DejaVuSans-115"/>
      </g>
     </g>
    </g>
    <g id="xtick_10">
     <g id="line2d_10">
      <g>
       <use style="stroke:#000000;stroke-width:0.8;" x="185.700708" xlink:href="#m5a6327515a" y="220.575"/>
      </g>
     </g>
     <g id="text_10">
      <!-- succ_c -->
      <g transform="translate(188.181958 260.617188)rotate(-90)scale(0.1 -0.1)">
       <defs>
        <path d="M 8.5 21.578125 
L 8.5 54.6875 
L 17.484375 54.6875 
L 17.484375 21.921875 
Q 17.484375 14.15625 20.5 10.265625 
Q 23.53125 6.390625 29.59375 6.390625 
Q 36.859375 6.390625 41.078125 11.03125 
Q 45.3125 15.671875 45.3125 23.6875 
L 45.3125 54.6875 
L 54.296875 54.6875 
L 54.296875 0 
L 45.3125 0 
L 45.3125 8.40625 
Q 42.046875 3.421875 37.71875 1 
Q 33.40625 -1.421875 27.6875 -1.421875 
Q 18.265625 -1.421875 13.375 4.4375 
Q 8.5 10.296875 8.5 21.578125 
z
M 31.109375 56 
z
" id="DejaVuSans-117"/>
       </defs>
       <use xlink:href="#DejaVuSans-115"/>
       <use x="52.099609" xlink:href="#DejaVuSans-117"/>
       <use x="115.478516" xlink:href="#DejaVuSans-99"/>
       <use x="170.458984" xlink:href="#DejaVuSans-99"/>
       <use x="225.439453" xlink:href="#DejaVuSans-95"/>
       <use x="275.439453" xlink:href="#DejaVuSans-99"/>
      </g>
     </g>
    </g>
    <g id="xtick_11">
     <g id="line2d_11">
      <g>
       <use style="stroke:#000000;stroke-width:0.8;" x="201.045519" xlink:href="#m5a6327515a" y="220.575"/>
      </g>
     </g>
     <g id="text_11">
      <!-- acac_s -->
      <g transform="translate(203.526769 261.0375)rotate(-90)scale(0.1 -0.1)">
       <use xlink:href="#DejaVuSans-97"/>
       <use x="61.279297" xlink:href="#DejaVuSans-99"/>
       <use x="116.259766" xlink:href="#DejaVuSans-97"/>
       <use x="177.539062" xlink:href="#DejaVuSans-99"/>
       <use x="232.519531" xlink:href="#DejaVuSans-95"/>
       <use x="282.519531" xlink:href="#DejaVuSans-115"/>
      </g>
     </g>
    </g>
    <g id="xtick_12">
     <g id="line2d_12">
      <g>
       <use style="stroke:#000000;stroke-width:0.8;" x="216.39033" xlink:href="#m5a6327515a" y="220.575"/>
      </g>
     </g>
     <g id="text_12">
      <!-- pyr_s -->
      <g transform="translate(218.87158 254.1625)rotate(-90)scale(0.1 -0.1)">
       <defs>
        <path d="M 18.109375 8.203125 
L 18.109375 -20.796875 
L 9.078125 -20.796875 
L 9.078125 54.6875 
L 18.109375 54.6875 
L 18.109375 46.390625 
Q 20.953125 51.265625 25.265625 53.625 
Q 29.59375 56 35.59375 56 
Q 45.5625 56 51.78125 48.09375 
Q 58.015625 40.1875 58.015625 27.296875 
Q 58.015625 14.40625 51.78125 6.484375 
Q 45.5625 -1.421875 35.59375 -1.421875 
Q 29.59375 -1.421875 25.265625 0.953125 
Q 20.953125 3.328125 18.109375 8.203125 
z
M 48.6875 27.296875 
Q 48.6875 37.203125 44.609375 42.84375 
Q 40.53125 48.484375 33.40625 48.484375 
Q 26.265625 48.484375 22.1875 42.84375 
Q 18.109375 37.203125 18.109375 27.296875 
Q 18.109375 17.390625 22.1875 11.75 
Q 26.265625 6.109375 33.40625 6.109375 
Q 40.53125 6.109375 44.609375 11.75 
Q 48.6875 17.390625 48.6875 27.296875 
z
" id="DejaVuSans-112"/>
        <path d="M 32.171875 -5.078125 
Q 28.375 -14.84375 24.75 -17.8125 
Q 21.140625 -20.796875 15.09375 -20.796875 
L 7.90625 -20.796875 
L 7.90625 -13.28125 
L 13.1875 -13.28125 
Q 16.890625 -13.28125 18.9375 -11.515625 
Q 21 -9.765625 23.484375 -3.21875 
L 25.09375 0.875 
L 2.984375 54.6875 
L 12.5 54.6875 
L 29.59375 11.921875 
L 46.6875 54.6875 
L 56.203125 54.6875 
z
" id="DejaVuSans-121"/>
       </defs>
       <use xlink:href="#DejaVuSans-112"/>
       <use x="63.476562" xlink:href="#DejaVuSans-121"/>
       <use x="122.65625" xlink:href="#DejaVuSans-114"/>
       <use x="163.769531" xlink:href="#DejaVuSans-95"/>
       <use x="213.769531" xlink:href="#DejaVuSans-115"/>
      </g>
     </g>
    </g>
    <g id="xtick_13">
     <g id="line2d_13">
      <g>
       <use style="stroke:#000000;stroke-width:0.8;" x="231.735142" xlink:href="#m5a6327515a" y="220.575"/>
      </g>
     </g>
     <g id="text_13">
      <!-- pep_s -->
      <g transform="translate(234.216392 256.634375)rotate(-90)scale(0.1 -0.1)">
       <use xlink:href="#DejaVuSans-112"/>
       <use x="63.476562" xlink:href="#DejaVuSans-101"/>
       <use x="125" xlink:href="#DejaVuSans-112"/>
       <use x="188.476562" xlink:href="#DejaVuSans-95"/>
       <use x="238.476562" xlink:href="#DejaVuSans-115"/>
      </g>
     </g>
    </g>
    <g id="xtick_14">
     <g id="line2d_14">
      <g>
       <use style="stroke:#000000;stroke-width:0.8;" x="247.079953" xlink:href="#m5a6327515a" y="220.575"/>
      </g>
     </g>
     <g id="text_14">
      <!-- gmp_s -->
      <g transform="translate(249.561203 260.221875)rotate(-90)scale(0.1 -0.1)">
       <use xlink:href="#DejaVuSans-103"/>
       <use x="63.476562" xlink:href="#DejaVuSans-109"/>
       <use x="160.888672" xlink:href="#DejaVuSans-112"/>
       <use x="224.365234" xlink:href="#DejaVuSans-95"/>
       <use x="274.365234" xlink:href="#DejaVuSans-115"/>
      </g>
     </g>
    </g>
    <g id="xtick_15">
     <g id="line2d_15">
      <g>
       <use style="stroke:#000000;stroke-width:0.8;" x="262.424764" xlink:href="#m5a6327515a" y="220.575"/>
      </g>
     </g>
     <g id="text_15">
      <!-- gsn_c -->
      <g transform="translate(264.906014 255.96875)rotate(-90)scale(0.1 -0.1)">
       <use xlink:href="#DejaVuSans-103"/>
       <use x="63.476562" xlink:href="#DejaVuSans-115"/>
       <use x="115.576172" xlink:href="#DejaVuSans-110"/>
       <use x="178.955078" xlink:href="#DejaVuSans-95"/>
       <use x="228.955078" xlink:href="#DejaVuSans-99"/>
      </g>
     </g>
    </g>
    <g id="xtick_16">
     <g id="line2d_16">
      <g>
       <use style="stroke:#000000;stroke-width:0.8;" x="277.769575" xlink:href="#m5a6327515a" y="220.575"/>
      </g>
     </g>
     <g id="text_16">
      <!-- 6pgc_s -->
      <g transform="translate(280.301607 262.342187)rotate(-90)scale(0.1 -0.1)">
       <defs>
        <path d="M 33.015625 40.375 
Q 26.375 40.375 22.484375 35.828125 
Q 18.609375 31.296875 18.609375 23.390625 
Q 18.609375 15.53125 22.484375 10.953125 
Q 26.375 6.390625 33.015625 6.390625 
Q 39.65625 6.390625 43.53125 10.953125 
Q 47.40625 15.53125 47.40625 23.390625 
Q 47.40625 31.296875 43.53125 35.828125 
Q 39.65625 40.375 33.015625 40.375 
z
M 52.59375 71.296875 
L 52.59375 62.3125 
Q 48.875 64.0625 45.09375 64.984375 
Q 41.3125 65.921875 37.59375 65.921875 
Q 27.828125 65.921875 22.671875 59.328125 
Q 17.53125 52.734375 16.796875 39.40625 
Q 19.671875 43.65625 24.015625 45.921875 
Q 28.375 48.1875 33.59375 48.1875 
Q 44.578125 48.1875 50.953125 41.515625 
Q 57.328125 34.859375 57.328125 23.390625 
Q 57.328125 12.15625 50.6875 5.359375 
Q 44.046875 -1.421875 33.015625 -1.421875 
Q 20.359375 -1.421875 13.671875 8.265625 
Q 6.984375 17.96875 6.984375 36.375 
Q 6.984375 53.65625 15.1875 63.9375 
Q 23.390625 74.21875 37.203125 74.21875 
Q 40.921875 74.21875 44.703125 73.484375 
Q 48.484375 72.75 52.59375 71.296875 
z
" id="DejaVuSans-54"/>
       </defs>
       <use xlink:href="#DejaVuSans-54"/>
       <use x="63.623047" xlink:href="#DejaVuSans-112"/>
       <use x="127.099609" xlink:href="#DejaVuSans-103"/>
       <use x="190.576172" xlink:href="#DejaVuSans-99"/>
       <use x="245.556641" xlink:href="#DejaVuSans-95"/>
       <use x="295.556641" xlink:href="#DejaVuSans-115"/>
      </g>
     </g>
    </g>
    <g id="xtick_17">
     <g id="line2d_17">
      <g>
       <use style="stroke:#000000;stroke-width:0.8;" x="293.114387" xlink:href="#m5a6327515a" y="220.575"/>
      </g>
     </g>
     <g id="text_17">
      <!-- 3gmp_s -->
      <g transform="translate(295.646418 266.584375)rotate(-90)scale(0.1 -0.1)">
       <defs>
        <path d="M 40.578125 39.3125 
Q 47.65625 37.796875 51.625 33 
Q 55.609375 28.21875 55.609375 21.1875 
Q 55.609375 10.40625 48.1875 4.484375 
Q 40.765625 -1.421875 27.09375 -1.421875 
Q 22.515625 -1.421875 17.65625 -0.515625 
Q 12.796875 0.390625 7.625 2.203125 
L 7.625 11.71875 
Q 11.71875 9.328125 16.59375 8.109375 
Q 21.484375 6.890625 26.8125 6.890625 
Q 36.078125 6.890625 40.9375 10.546875 
Q 45.796875 14.203125 45.796875 21.1875 
Q 45.796875 27.640625 41.28125 31.265625 
Q 36.765625 34.90625 28.71875 34.90625 
L 20.21875 34.90625 
L 20.21875 43.015625 
L 29.109375 43.015625 
Q 36.375 43.015625 40.234375 45.921875 
Q 44.09375 48.828125 44.09375 54.296875 
Q 44.09375 59.90625 40.109375 62.90625 
Q 36.140625 65.921875 28.71875 65.921875 
Q 24.65625 65.921875 20.015625 65.03125 
Q 15.375 64.15625 9.8125 62.3125 
L 9.8125 71.09375 
Q 15.4375 72.65625 20.34375 73.4375 
Q 25.25 74.21875 29.59375 74.21875 
Q 40.828125 74.21875 47.359375 69.109375 
Q 53.90625 64.015625 53.90625 55.328125 
Q 53.90625 49.265625 50.4375 45.09375 
Q 46.96875 40.921875 40.578125 39.3125 
z
" id="DejaVuSans-51"/>
       </defs>
       <use xlink:href="#DejaVuSans-51"/>
       <use x="63.623047" xlink:href="#DejaVuSans-103"/>
       <use x="127.099609" xlink:href="#DejaVuSans-109"/>
       <use x="224.511719" xlink:href="#DejaVuSans-112"/>
       <use x="287.988281" xlink:href="#DejaVuSans-95"/>
       <use x="337.988281" xlink:href="#DejaVuSans-115"/>
      </g>
     </g>
    </g>
    <g id="xtick_18">
     <g id="line2d_18">
      <g>
       <use style="stroke:#000000;stroke-width:0.8;" x="308.459198" xlink:href="#m5a6327515a" y="220.575"/>
      </g>
     </g>
     <g id="text_18">
      <!-- pser__L_s -->
      <g transform="translate(310.940448 275.178125)rotate(-90)scale(0.1 -0.1)">
       <use xlink:href="#DejaVuSans-112"/>
       <use x="63.476562" xlink:href="#DejaVuSans-115"/>
       <use x="115.576172" xlink:href="#DejaVuSans-101"/>
       <use x="177.099609" xlink:href="#DejaVuSans-114"/>
       <use x="218.212891" xlink:href="#DejaVuSans-95"/>
       <use x="268.212891" xlink:href="#DejaVuSans-95"/>
       <use x="318.212891" xlink:href="#DejaVuSans-76"/>
       <use x="373.925781" xlink:href="#DejaVuSans-95"/>
       <use x="423.925781" xlink:href="#DejaVuSans-115"/>
      </g>
     </g>
    </g>
    <g id="xtick_19">
     <g id="line2d_19">
      <g>
       <use style="stroke:#000000;stroke-width:0.8;" x="323.804009" xlink:href="#m5a6327515a" y="220.575"/>
      </g>
     </g>
     <g id="text_19">
      <!-- thr__L_s -->
      <g transform="translate(326.424322 267.725)rotate(-90)scale(0.1 -0.1)">
       <defs>
        <path d="M 54.890625 33.015625 
L 54.890625 0 
L 45.90625 0 
L 45.90625 32.71875 
Q 45.90625 40.484375 42.875 44.328125 
Q 39.84375 48.1875 33.796875 48.1875 
Q 26.515625 48.1875 22.3125 43.546875 
Q 18.109375 38.921875 18.109375 30.90625 
L 18.109375 0 
L 9.078125 0 
L 9.078125 75.984375 
L 18.109375 75.984375 
L 18.109375 46.1875 
Q 21.34375 51.125 25.703125 53.5625 
Q 30.078125 56 35.796875 56 
Q 45.21875 56 50.046875 50.171875 
Q 54.890625 44.34375 54.890625 33.015625 
z
" id="DejaVuSans-104"/>
       </defs>
       <use xlink:href="#DejaVuSans-116"/>
       <use x="39.208984" xlink:href="#DejaVuSans-104"/>
       <use x="102.587891" xlink:href="#DejaVuSans-114"/>
       <use x="143.701172" xlink:href="#DejaVuSans-95"/>
       <use x="193.701172" xlink:href="#DejaVuSans-95"/>
       <use x="243.701172" xlink:href="#DejaVuSans-76"/>
       <use x="299.414062" xlink:href="#DejaVuSans-95"/>
       <use x="349.414062" xlink:href="#DejaVuSans-115"/>
      </g>
     </g>
    </g>
    <g id="xtick_20">
     <g id="line2d_20">
      <g>
       <use style="stroke:#000000;stroke-width:0.8;" x="339.148821" xlink:href="#m5a6327515a" y="220.575"/>
      </g>
     </g>
     <g id="text_20">
      <!-- gam6p_s -->
      <g transform="translate(341.680852 272.7125)rotate(-90)scale(0.1 -0.1)">
       <use xlink:href="#DejaVuSans-103"/>
       <use x="63.476562" xlink:href="#DejaVuSans-97"/>
       <use x="124.755859" xlink:href="#DejaVuSans-109"/>
       <use x="222.167969" xlink:href="#DejaVuSans-54"/>
       <use x="285.791016" xlink:href="#DejaVuSans-112"/>
       <use x="349.267578" xlink:href="#DejaVuSans-95"/>
       <use x="399.267578" xlink:href="#DejaVuSans-115"/>
      </g>
     </g>
    </g>
    <g id="xtick_21">
     <g id="line2d_21">
      <g>
       <use style="stroke:#000000;stroke-width:0.8;" x="354.493632" xlink:href="#m5a6327515a" y="220.575"/>
      </g>
     </g>
     <g id="text_21">
      <!-- adn_c -->
      <g transform="translate(357.113945 256.8875)rotate(-90)scale(0.1 -0.1)">
       <defs>
        <path d="M 45.40625 46.390625 
L 45.40625 75.984375 
L 54.390625 75.984375 
L 54.390625 0 
L 45.40625 0 
L 45.40625 8.203125 
Q 42.578125 3.328125 38.25 0.953125 
Q 33.9375 -1.421875 27.875 -1.421875 
Q 17.96875 -1.421875 11.734375 6.484375 
Q 5.515625 14.40625 5.515625 27.296875 
Q 5.515625 40.1875 11.734375 48.09375 
Q 17.96875 56 27.875 56 
Q 33.9375 56 38.25 53.625 
Q 42.578125 51.265625 45.40625 46.390625 
z
M 14.796875 27.296875 
Q 14.796875 17.390625 18.875 11.75 
Q 22.953125 6.109375 30.078125 6.109375 
Q 37.203125 6.109375 41.296875 11.75 
Q 45.40625 17.390625 45.40625 27.296875 
Q 45.40625 37.203125 41.296875 42.84375 
Q 37.203125 48.484375 30.078125 48.484375 
Q 22.953125 48.484375 18.875 42.84375 
Q 14.796875 37.203125 14.796875 27.296875 
z
" id="DejaVuSans-100"/>
       </defs>
       <use xlink:href="#DejaVuSans-97"/>
       <use x="61.279297" xlink:href="#DejaVuSans-100"/>
       <use x="124.755859" xlink:href="#DejaVuSans-110"/>
       <use x="188.134766" xlink:href="#DejaVuSans-95"/>
       <use x="238.134766" xlink:href="#DejaVuSans-99"/>
      </g>
     </g>
    </g>
    <g id="xtick_22">
     <g id="line2d_22">
      <g>
       <use style="stroke:#000000;stroke-width:0.8;" x="369.838443" xlink:href="#m5a6327515a" y="220.575"/>
      </g>
     </g>
     <g id="text_22">
      <!-- ade_s -->
      <g transform="translate(372.458756 256.414062)rotate(-90)scale(0.1 -0.1)">
       <use xlink:href="#DejaVuSans-97"/>
       <use x="61.279297" xlink:href="#DejaVuSans-100"/>
       <use x="124.755859" xlink:href="#DejaVuSans-101"/>
       <use x="186.279297" xlink:href="#DejaVuSans-95"/>
       <use x="236.279297" xlink:href="#DejaVuSans-115"/>
      </g>
     </g>
    </g>
    <g id="xtick_23">
     <g id="line2d_23">
      <g>
       <use style="stroke:#000000;stroke-width:0.8;" x="385.183255" xlink:href="#m5a6327515a" y="220.575"/>
      </g>
     </g>
     <g id="text_23">
      <!-- leu__L_s -->
      <g transform="translate(387.803567 268.625)rotate(-90)scale(0.1 -0.1)">
       <use xlink:href="#DejaVuSans-108"/>
       <use x="27.783203" xlink:href="#DejaVuSans-101"/>
       <use x="89.306641" xlink:href="#DejaVuSans-117"/>
       <use x="152.685547" xlink:href="#DejaVuSans-95"/>
       <use x="202.685547" xlink:href="#DejaVuSans-95"/>
       <use x="252.685547" xlink:href="#DejaVuSans-76"/>
       <use x="308.398438" xlink:href="#DejaVuSans-95"/>
       <use x="358.398438" xlink:href="#DejaVuSans-115"/>
      </g>
     </g>
    </g>
    <g id="xtick_24">
     <g id="line2d_24">
      <g>
       <use style="stroke:#000000;stroke-width:0.8;" x="400.528066" xlink:href="#m5a6327515a" y="220.575"/>
      </g>
     </g>
     <g id="text_24">
      <!-- lys__L_s -->
      <g transform="translate(403.148379 267.2625)rotate(-90)scale(0.1 -0.1)">
       <use xlink:href="#DejaVuSans-108"/>
       <use x="27.783203" xlink:href="#DejaVuSans-121"/>
       <use x="86.962891" xlink:href="#DejaVuSans-115"/>
       <use x="139.0625" xlink:href="#DejaVuSans-95"/>
       <use x="189.0625" xlink:href="#DejaVuSans-95"/>
       <use x="239.0625" xlink:href="#DejaVuSans-76"/>
       <use x="294.775391" xlink:href="#DejaVuSans-95"/>
       <use x="344.775391" xlink:href="#DejaVuSans-115"/>
      </g>
     </g>
    </g>
    <g id="xtick_25">
     <g id="line2d_25">
      <g>
       <use style="stroke:#000000;stroke-width:0.8;" x="415.872877" xlink:href="#m5a6327515a" y="220.575"/>
      </g>
     </g>
     <g id="text_25">
      <!-- asp__L_s -->
      <g transform="translate(418.354127 271.042188)rotate(-90)scale(0.1 -0.1)">
       <use xlink:href="#DejaVuSans-97"/>
       <use x="61.279297" xlink:href="#DejaVuSans-115"/>
       <use x="113.378906" xlink:href="#DejaVuSans-112"/>
       <use x="176.855469" xlink:href="#DejaVuSans-95"/>
       <use x="226.855469" xlink:href="#DejaVuSans-95"/>
       <use x="276.855469" xlink:href="#DejaVuSans-76"/>
       <use x="332.568359" xlink:href="#DejaVuSans-95"/>
       <use x="382.568359" xlink:href="#DejaVuSans-115"/>
      </g>
     </g>
    </g>
    <g id="xtick_26">
     <g id="line2d_26">
      <g>
       <use style="stroke:#000000;stroke-width:0.8;" x="431.217689" xlink:href="#m5a6327515a" y="220.575"/>
      </g>
     </g>
     <g id="text_26">
      <!-- 3pg_c -->
      <g transform="translate(433.74972 257.132812)rotate(-90)scale(0.1 -0.1)">
       <use xlink:href="#DejaVuSans-51"/>
       <use x="63.623047" xlink:href="#DejaVuSans-112"/>
       <use x="127.099609" xlink:href="#DejaVuSans-103"/>
       <use x="190.576172" xlink:href="#DejaVuSans-95"/>
       <use x="240.576172" xlink:href="#DejaVuSans-99"/>
      </g>
     </g>
    </g>
    <g id="xtick_27">
     <g id="line2d_27">
      <g>
       <use style="stroke:#000000;stroke-width:0.8;" x="446.5625" xlink:href="#m5a6327515a" y="220.575"/>
      </g>
     </g>
     <g id="text_27">
      <!-- amp_s -->
      <g transform="translate(449.04375 260.001562)rotate(-90)scale(0.1 -0.1)">
       <use xlink:href="#DejaVuSans-97"/>
       <use x="61.279297" xlink:href="#DejaVuSans-109"/>
       <use x="158.691406" xlink:href="#DejaVuSans-112"/>
       <use x="222.167969" xlink:href="#DejaVuSans-95"/>
       <use x="272.167969" xlink:href="#DejaVuSans-115"/>
      </g>
     </g>
    </g>
    <g id="xtick_28">
     <g id="line2d_28">
      <g>
       <use style="stroke:#000000;stroke-width:0.8;" x="461.907311" xlink:href="#m5a6327515a" y="220.575"/>
      </g>
     </g>
     <g id="text_28">
      <!-- 2pg_c -->
      <g transform="translate(464.439343 257.132812)rotate(-90)scale(0.1 -0.1)">
       <use xlink:href="#DejaVuSans-50"/>
       <use x="63.623047" xlink:href="#DejaVuSans-112"/>
       <use x="127.099609" xlink:href="#DejaVuSans-103"/>
       <use x="190.576172" xlink:href="#DejaVuSans-95"/>
       <use x="240.576172" xlink:href="#DejaVuSans-99"/>
      </g>
     </g>
    </g>
    <g id="xtick_29">
     <g id="line2d_29">
      <g>
       <use style="stroke:#000000;stroke-width:0.8;" x="477.252123" xlink:href="#m5a6327515a" y="220.575"/>
      </g>
     </g>
     <g id="text_29">
      <!-- cmp_s -->
      <g transform="translate(479.733373 259.371875)rotate(-90)scale(0.1 -0.1)">
       <use xlink:href="#DejaVuSans-99"/>
       <use x="54.980469" xlink:href="#DejaVuSans-109"/>
       <use x="152.392578" xlink:href="#DejaVuSans-112"/>
       <use x="215.869141" xlink:href="#DejaVuSans-95"/>
       <use x="265.869141" xlink:href="#DejaVuSans-115"/>
      </g>
     </g>
    </g>
    <g id="xtick_30">
     <g id="line2d_30">
      <g>
       <use style="stroke:#000000;stroke-width:0.8;" x="492.596934" xlink:href="#m5a6327515a" y="220.575"/>
      </g>
     </g>
     <g id="text_30">
      <!-- his__L_s -->
      <g transform="translate(495.217246 267.68125)rotate(-90)scale(0.1 -0.1)">
       <defs>
        <path d="M 9.421875 54.6875 
L 18.40625 54.6875 
L 18.40625 0 
L 9.421875 0 
z
M 9.421875 75.984375 
L 18.40625 75.984375 
L 18.40625 64.59375 
L 9.421875 64.59375 
z
" id="DejaVuSans-105"/>
       </defs>
       <use xlink:href="#DejaVuSans-104"/>
       <use x="63.378906" xlink:href="#DejaVuSans-105"/>
       <use x="91.162109" xlink:href="#DejaVuSans-115"/>
       <use x="143.261719" xlink:href="#DejaVuSans-95"/>
       <use x="193.261719" xlink:href="#DejaVuSans-95"/>
       <use x="243.261719" xlink:href="#DejaVuSans-76"/>
       <use x="298.974609" xlink:href="#DejaVuSans-95"/>
       <use x="348.974609" xlink:href="#DejaVuSans-115"/>
      </g>
     </g>
    </g>
    <g id="xtick_31">
     <g id="line2d_31">
      <g>
       <use style="stroke:#000000;stroke-width:0.8;" x="507.941745" xlink:href="#m5a6327515a" y="220.575"/>
      </g>
     </g>
     <g id="text_31">
      <!-- asn__L_s -->
      <g transform="translate(510.422995 271.03125)rotate(-90)scale(0.1 -0.1)">
       <use xlink:href="#DejaVuSans-97"/>
       <use x="61.279297" xlink:href="#DejaVuSans-115"/>
       <use x="113.378906" xlink:href="#DejaVuSans-110"/>
       <use x="176.757812" xlink:href="#DejaVuSans-95"/>
       <use x="226.757812" xlink:href="#DejaVuSans-95"/>
       <use x="276.757812" xlink:href="#DejaVuSans-76"/>
       <use x="332.470703" xlink:href="#DejaVuSans-95"/>
       <use x="382.470703" xlink:href="#DejaVuSans-115"/>
      </g>
     </g>
    </g>
    <g id="xtick_32">
     <g id="line2d_32">
      <g>
       <use style="stroke:#000000;stroke-width:0.8;" x="523.286557" xlink:href="#m5a6327515a" y="220.575"/>
      </g>
     </g>
     <g id="text_32">
      <!-- chor_s -->
      <g transform="translate(525.906869 259.85)rotate(-90)scale(0.1 -0.1)">
       <defs>
        <path d="M 30.609375 48.390625 
Q 23.390625 48.390625 19.1875 42.75 
Q 14.984375 37.109375 14.984375 27.296875 
Q 14.984375 17.484375 19.15625 11.84375 
Q 23.34375 6.203125 30.609375 6.203125 
Q 37.796875 6.203125 41.984375 11.859375 
Q 46.1875 17.53125 46.1875 27.296875 
Q 46.1875 37.015625 41.984375 42.703125 
Q 37.796875 48.390625 30.609375 48.390625 
z
M 30.609375 56 
Q 42.328125 56 49.015625 48.375 
Q 55.71875 40.765625 55.71875 27.296875 
Q 55.71875 13.875 49.015625 6.21875 
Q 42.328125 -1.421875 30.609375 -1.421875 
Q 18.84375 -1.421875 12.171875 6.21875 
Q 5.515625 13.875 5.515625 27.296875 
Q 5.515625 40.765625 12.171875 48.375 
Q 18.84375 56 30.609375 56 
z
" id="DejaVuSans-111"/>
       </defs>
       <use xlink:href="#DejaVuSans-99"/>
       <use x="54.980469" xlink:href="#DejaVuSans-104"/>
       <use x="118.359375" xlink:href="#DejaVuSans-111"/>
       <use x="179.541016" xlink:href="#DejaVuSans-114"/>
       <use x="220.654297" xlink:href="#DejaVuSans-95"/>
       <use x="270.654297" xlink:href="#DejaVuSans-115"/>
      </g>
     </g>
    </g>
    <g id="xtick_33">
     <g id="line2d_33">
      <g>
       <use style="stroke:#000000;stroke-width:0.8;" x="538.631368" xlink:href="#m5a6327515a" y="220.575"/>
      </g>
     </g>
     <g id="text_33">
      <!-- gly_s -->
      <g transform="translate(541.25168 252.829687)rotate(-90)scale(0.1 -0.1)">
       <use xlink:href="#DejaVuSans-103"/>
       <use x="63.476562" xlink:href="#DejaVuSans-108"/>
       <use x="91.259766" xlink:href="#DejaVuSans-121"/>
       <use x="150.439453" xlink:href="#DejaVuSans-95"/>
       <use x="200.439453" xlink:href="#DejaVuSans-115"/>
      </g>
     </g>
    </g>
    <g id="xtick_34">
     <g id="line2d_34">
      <g>
       <use style="stroke:#000000;stroke-width:0.8;" x="553.976179" xlink:href="#m5a6327515a" y="220.575"/>
      </g>
     </g>
     <g id="text_34">
      <!-- ump_s -->
      <g transform="translate(556.457429 260.210938)rotate(-90)scale(0.1 -0.1)">
       <use xlink:href="#DejaVuSans-117"/>
       <use x="63.378906" xlink:href="#DejaVuSans-109"/>
       <use x="160.791016" xlink:href="#DejaVuSans-112"/>
       <use x="224.267578" xlink:href="#DejaVuSans-95"/>
       <use x="274.267578" xlink:href="#DejaVuSans-115"/>
      </g>
     </g>
    </g>
    <g id="xtick_35">
     <g id="line2d_35">
      <g>
       <use style="stroke:#000000;stroke-width:0.8;" x="569.320991" xlink:href="#m5a6327515a" y="220.575"/>
      </g>
     </g>
     <g id="text_35">
      <!-- phe__L_c -->
      <g transform="translate(571.941303 272.484375)rotate(-90)scale(0.1 -0.1)">
       <use xlink:href="#DejaVuSans-112"/>
       <use x="63.476562" xlink:href="#DejaVuSans-104"/>
       <use x="126.855469" xlink:href="#DejaVuSans-101"/>
       <use x="188.378906" xlink:href="#DejaVuSans-95"/>
       <use x="238.378906" xlink:href="#DejaVuSans-95"/>
       <use x="288.378906" xlink:href="#DejaVuSans-76"/>
       <use x="344.091797" xlink:href="#DejaVuSans-95"/>
       <use x="394.091797" xlink:href="#DejaVuSans-99"/>
      </g>
     </g>
    </g>
    <g id="xtick_36">
     <g id="line2d_36">
      <g>
       <use style="stroke:#000000;stroke-width:0.8;" x="584.665802" xlink:href="#m5a6327515a" y="220.575"/>
      </g>
     </g>
     <g id="text_36">
      <!-- for_c -->
      <g transform="translate(587.286114 251.823437)rotate(-90)scale(0.1 -0.1)">
       <defs>
        <path d="M 37.109375 75.984375 
L 37.109375 68.5 
L 28.515625 68.5 
Q 23.6875 68.5 21.796875 66.546875 
Q 19.921875 64.59375 19.921875 59.515625 
L 19.921875 54.6875 
L 34.71875 54.6875 
L 34.71875 47.703125 
L 19.921875 47.703125 
L 19.921875 0 
L 10.890625 0 
L 10.890625 47.703125 
L 2.296875 47.703125 
L 2.296875 54.6875 
L 10.890625 54.6875 
L 10.890625 58.5 
Q 10.890625 67.625 15.140625 71.796875 
Q 19.390625 75.984375 28.609375 75.984375 
z
" id="DejaVuSans-102"/>
       </defs>
       <use xlink:href="#DejaVuSans-102"/>
       <use x="35.205078" xlink:href="#DejaVuSans-111"/>
       <use x="96.386719" xlink:href="#DejaVuSans-114"/>
       <use x="137.5" xlink:href="#DejaVuSans-95"/>
       <use x="187.5" xlink:href="#DejaVuSans-99"/>
      </g>
     </g>
    </g>
    <g id="xtick_37">
     <g id="line2d_37">
      <g>
       <use style="stroke:#000000;stroke-width:0.8;" x="600.010613" xlink:href="#m5a6327515a" y="220.575"/>
      </g>
     </g>
     <g id="text_37">
      <!-- trp__L_s -->
      <g transform="translate(602.491863 267.735937)rotate(-90)scale(0.1 -0.1)">
       <use xlink:href="#DejaVuSans-116"/>
       <use x="39.208984" xlink:href="#DejaVuSans-114"/>
       <use x="80.322266" xlink:href="#DejaVuSans-112"/>
       <use x="143.798828" xlink:href="#DejaVuSans-95"/>
       <use x="193.798828" xlink:href="#DejaVuSans-95"/>
       <use x="243.798828" xlink:href="#DejaVuSans-76"/>
       <use x="299.511719" xlink:href="#DejaVuSans-95"/>
       <use x="349.511719" xlink:href="#DejaVuSans-115"/>
      </g>
     </g>
    </g>
    <g id="xtick_38">
     <g id="line2d_38">
      <g>
       <use style="stroke:#000000;stroke-width:0.8;" x="615.355425" xlink:href="#m5a6327515a" y="220.575"/>
      </g>
     </g>
     <g id="text_38">
      <!-- pro__L_s -->
      <g transform="translate(617.836675 269.709375)rotate(-90)scale(0.1 -0.1)">
       <use xlink:href="#DejaVuSans-112"/>
       <use x="63.476562" xlink:href="#DejaVuSans-114"/>
       <use x="102.339844" xlink:href="#DejaVuSans-111"/>
       <use x="163.521484" xlink:href="#DejaVuSans-95"/>
       <use x="213.521484" xlink:href="#DejaVuSans-95"/>
       <use x="263.521484" xlink:href="#DejaVuSans-76"/>
       <use x="319.234375" xlink:href="#DejaVuSans-95"/>
       <use x="369.234375" xlink:href="#DejaVuSans-115"/>
      </g>
     </g>
    </g>
    <g id="xtick_39">
     <g id="line2d_39">
      <g>
       <use style="stroke:#000000;stroke-width:0.8;" x="630.700236" xlink:href="#m5a6327515a" y="220.575"/>
      </g>
     </g>
     <g id="text_39">
      <!-- thym_s -->
      <g transform="translate(633.320548 263.701562)rotate(-90)scale(0.1 -0.1)">
       <use xlink:href="#DejaVuSans-116"/>
       <use x="39.208984" xlink:href="#DejaVuSans-104"/>
       <use x="102.587891" xlink:href="#DejaVuSans-121"/>
       <use x="161.767578" xlink:href="#DejaVuSans-109"/>
       <use x="259.179688" xlink:href="#DejaVuSans-95"/>
       <use x="309.179688" xlink:href="#DejaVuSans-115"/>
      </g>
     </g>
    </g>
    <g id="xtick_40">
     <g id="line2d_40">
      <g>
       <use style="stroke:#000000;stroke-width:0.8;" x="646.045047" xlink:href="#m5a6327515a" y="220.575"/>
      </g>
     </g>
     <g id="text_40">
      <!-- glyc_c -->
      <g transform="translate(648.66536 258.617188)rotate(-90)scale(0.1 -0.1)">
       <use xlink:href="#DejaVuSans-103"/>
       <use x="63.476562" xlink:href="#DejaVuSans-108"/>
       <use x="91.259766" xlink:href="#DejaVuSans-121"/>
       <use x="150.439453" xlink:href="#DejaVuSans-99"/>
       <use x="205.419922" xlink:href="#DejaVuSans-95"/>
       <use x="255.419922" xlink:href="#DejaVuSans-99"/>
      </g>
     </g>
    </g>
    <g id="xtick_41">
     <g id="line2d_41">
      <g>
       <use style="stroke:#000000;stroke-width:0.8;" x="661.389858" xlink:href="#m5a6327515a" y="220.575"/>
      </g>
     </g>
     <g id="text_41">
      <!-- csn_s -->
      <g transform="translate(663.871108 254.829687)rotate(-90)scale(0.1 -0.1)">
       <use xlink:href="#DejaVuSans-99"/>
       <use x="54.980469" xlink:href="#DejaVuSans-115"/>
       <use x="107.080078" xlink:href="#DejaVuSans-110"/>
       <use x="170.458984" xlink:href="#DejaVuSans-95"/>
       <use x="220.458984" xlink:href="#DejaVuSans-115"/>
      </g>
     </g>
    </g>
    <g id="xtick_42">
     <g id="line2d_42">
      <g>
       <use style="stroke:#000000;stroke-width:0.8;" x="676.73467" xlink:href="#m5a6327515a" y="220.575"/>
      </g>
     </g>
     <g id="text_42">
      <!-- ura_c -->
      <g transform="translate(679.21592 254.65)rotate(-90)scale(0.1 -0.1)">
       <use xlink:href="#DejaVuSans-117"/>
       <use x="63.378906" xlink:href="#DejaVuSans-114"/>
       <use x="104.492188" xlink:href="#DejaVuSans-97"/>
       <use x="165.771484" xlink:href="#DejaVuSans-95"/>
       <use x="215.771484" xlink:href="#DejaVuSans-99"/>
      </g>
     </g>
    </g>
    <g id="xtick_43">
     <g id="line2d_43">
      <g>
       <use style="stroke:#000000;stroke-width:0.8;" x="692.079481" xlink:href="#m5a6327515a" y="220.575"/>
      </g>
     </g>
     <g id="text_43">
      <!-- so4_s -->
      <g transform="translate(694.560731 255.475)rotate(-90)scale(0.1 -0.1)">
       <defs>
        <path d="M 37.796875 64.3125 
L 12.890625 25.390625 
L 37.796875 25.390625 
z
M 35.203125 72.90625 
L 47.609375 72.90625 
L 47.609375 25.390625 
L 58.015625 25.390625 
L 58.015625 17.1875 
L 47.609375 17.1875 
L 47.609375 0 
L 37.796875 0 
L 37.796875 17.1875 
L 4.890625 17.1875 
L 4.890625 26.703125 
z
" id="DejaVuSans-52"/>
       </defs>
       <use xlink:href="#DejaVuSans-115"/>
       <use x="52.099609" xlink:href="#DejaVuSans-111"/>
       <use x="113.28125" xlink:href="#DejaVuSans-52"/>
       <use x="176.904297" xlink:href="#DejaVuSans-95"/>
       <use x="226.904297" xlink:href="#DejaVuSans-115"/>
      </g>
     </g>
    </g>
    <g id="xtick_44">
     <g id="line2d_44">
      <g>
       <use style="stroke:#000000;stroke-width:0.8;" x="707.424292" xlink:href="#m5a6327515a" y="220.575"/>
      </g>
     </g>
     <g id="text_44">
      <!-- nac_s -->
      <g transform="translate(709.905542 255.748437)rotate(-90)scale(0.1 -0.1)">
       <use xlink:href="#DejaVuSans-110"/>
       <use x="63.378906" xlink:href="#DejaVuSans-97"/>
       <use x="124.658203" xlink:href="#DejaVuSans-99"/>
       <use x="179.638672" xlink:href="#DejaVuSans-95"/>
       <use x="229.638672" xlink:href="#DejaVuSans-115"/>
      </g>
     </g>
    </g>
    <g id="xtick_45">
     <g id="line2d_45">
      <g>
       <use style="stroke:#000000;stroke-width:0.8;" x="722.769104" xlink:href="#m5a6327515a" y="220.575"/>
      </g>
     </g>
     <g id="text_45">
      <!-- ppi_s -->
      <g transform="translate(725.389416 253.259375)rotate(-90)scale(0.1 -0.1)">
       <use xlink:href="#DejaVuSans-112"/>
       <use x="63.476562" xlink:href="#DejaVuSans-112"/>
       <use x="126.953125" xlink:href="#DejaVuSans-105"/>
       <use x="154.736328" xlink:href="#DejaVuSans-95"/>
       <use x="204.736328" xlink:href="#DejaVuSans-115"/>
      </g>
     </g>
    </g>
    <g id="xtick_46">
     <g id="line2d_46">
      <g>
       <use style="stroke:#000000;stroke-width:0.8;" x="738.113915" xlink:href="#m5a6327515a" y="220.575"/>
      </g>
     </g>
     <g id="text_46">
      <!-- ribflv_c -->
      <g transform="translate(740.734228 263.528125)rotate(-90)scale(0.1 -0.1)">
       <defs>
        <path d="M 48.6875 27.296875 
Q 48.6875 37.203125 44.609375 42.84375 
Q 40.53125 48.484375 33.40625 48.484375 
Q 26.265625 48.484375 22.1875 42.84375 
Q 18.109375 37.203125 18.109375 27.296875 
Q 18.109375 17.390625 22.1875 11.75 
Q 26.265625 6.109375 33.40625 6.109375 
Q 40.53125 6.109375 44.609375 11.75 
Q 48.6875 17.390625 48.6875 27.296875 
z
M 18.109375 46.390625 
Q 20.953125 51.265625 25.265625 53.625 
Q 29.59375 56 35.59375 56 
Q 45.5625 56 51.78125 48.09375 
Q 58.015625 40.1875 58.015625 27.296875 
Q 58.015625 14.40625 51.78125 6.484375 
Q 45.5625 -1.421875 35.59375 -1.421875 
Q 29.59375 -1.421875 25.265625 0.953125 
Q 20.953125 3.328125 18.109375 8.203125 
L 18.109375 0 
L 9.078125 0 
L 9.078125 75.984375 
L 18.109375 75.984375 
z
" id="DejaVuSans-98"/>
        <path d="M 2.984375 54.6875 
L 12.5 54.6875 
L 29.59375 8.796875 
L 46.6875 54.6875 
L 56.203125 54.6875 
L 35.6875 0 
L 23.484375 0 
z
" id="DejaVuSans-118"/>
       </defs>
       <use xlink:href="#DejaVuSans-114"/>
       <use x="41.113281" xlink:href="#DejaVuSans-105"/>
       <use x="68.896484" xlink:href="#DejaVuSans-98"/>
       <use x="132.373047" xlink:href="#DejaVuSans-102"/>
       <use x="167.578125" xlink:href="#DejaVuSans-108"/>
       <use x="195.361328" xlink:href="#DejaVuSans-118"/>
       <use x="254.541016" xlink:href="#DejaVuSans-95"/>
       <use x="304.541016" xlink:href="#DejaVuSans-99"/>
      </g>
     </g>
    </g>
    <g id="xtick_47">
     <g id="line2d_47">
      <g>
       <use style="stroke:#000000;stroke-width:0.8;" x="753.458726" xlink:href="#m5a6327515a" y="220.575"/>
      </g>
     </g>
     <g id="text_47">
      <!-- tyr__L_s -->
      <g transform="translate(755.939976 267.30625)rotate(-90)scale(0.1 -0.1)">
       <use xlink:href="#DejaVuSans-116"/>
       <use x="39.208984" xlink:href="#DejaVuSans-121"/>
       <use x="98.388672" xlink:href="#DejaVuSans-114"/>
       <use x="139.501953" xlink:href="#DejaVuSans-95"/>
       <use x="189.501953" xlink:href="#DejaVuSans-95"/>
       <use x="239.501953" xlink:href="#DejaVuSans-76"/>
       <use x="295.214844" xlink:href="#DejaVuSans-95"/>
       <use x="345.214844" xlink:href="#DejaVuSans-115"/>
      </g>
     </g>
    </g>
    <g id="xtick_48">
     <g id="line2d_48">
      <g>
       <use style="stroke:#000000;stroke-width:0.8;" x="768.803538" xlink:href="#m5a6327515a" y="220.575"/>
      </g>
     </g>
     <g id="text_48">
      <!-- pi_s -->
      <g transform="translate(771.42385 246.910937)rotate(-90)scale(0.1 -0.1)">
       <use xlink:href="#DejaVuSans-112"/>
       <use x="63.476562" xlink:href="#DejaVuSans-105"/>
       <use x="91.259766" xlink:href="#DejaVuSans-95"/>
       <use x="141.259766" xlink:href="#DejaVuSans-115"/>
      </g>
     </g>
    </g>
    <g id="xtick_49">
     <g id="line2d_49">
      <g>
       <use style="stroke:#000000;stroke-width:0.8;" x="784.148349" xlink:href="#m5a6327515a" y="220.575"/>
      </g>
     </g>
     <g id="text_49">
      <!-- cyst__L_s -->
      <g transform="translate(786.629599 273.903125)rotate(-90)scale(0.1 -0.1)">
       <use xlink:href="#DejaVuSans-99"/>
       <use x="54.980469" xlink:href="#DejaVuSans-121"/>
       <use x="114.160156" xlink:href="#DejaVuSans-115"/>
       <use x="166.259766" xlink:href="#DejaVuSans-116"/>
       <use x="205.46875" xlink:href="#DejaVuSans-95"/>
       <use x="255.46875" xlink:href="#DejaVuSans-95"/>
       <use x="305.46875" xlink:href="#DejaVuSans-76"/>
       <use x="361.181641" xlink:href="#DejaVuSans-95"/>
       <use x="411.181641" xlink:href="#DejaVuSans-115"/>
      </g>
     </g>
    </g>
    <g id="xtick_50">
     <g id="line2d_50">
      <g>
       <use style="stroke:#000000;stroke-width:0.8;" x="799.49316" xlink:href="#m5a6327515a" y="220.575"/>
      </g>
     </g>
     <g id="text_50">
      <!-- fol_s -->
      <g transform="translate(802.113473 250.201562)rotate(-90)scale(0.1 -0.1)">
       <use xlink:href="#DejaVuSans-102"/>
       <use x="35.205078" xlink:href="#DejaVuSans-111"/>
       <use x="96.386719" xlink:href="#DejaVuSans-108"/>
       <use x="124.169922" xlink:href="#DejaVuSans-95"/>
       <use x="174.169922" xlink:href="#DejaVuSans-115"/>
      </g>
     </g>
    </g>
    <g id="xtick_51">
     <g id="line2d_51">
      <g>
       <use style="stroke:#000000;stroke-width:0.8;" x="814.837972" xlink:href="#m5a6327515a" y="220.575"/>
      </g>
     </g>
     <g id="text_51">
      <!-- cit_c -->
      <g transform="translate(817.458284 250.270312)rotate(-90)scale(0.1 -0.1)">
       <use xlink:href="#DejaVuSans-99"/>
       <use x="54.980469" xlink:href="#DejaVuSans-105"/>
       <use x="82.763672" xlink:href="#DejaVuSans-116"/>
       <use x="121.972656" xlink:href="#DejaVuSans-95"/>
       <use x="171.972656" xlink:href="#DejaVuSans-99"/>
      </g>
     </g>
    </g>
    <g id="xtick_52">
     <g id="line2d_52">
      <g>
       <use style="stroke:#000000;stroke-width:0.8;" x="830.182783" xlink:href="#m5a6327515a" y="220.575"/>
      </g>
     </g>
     <g id="text_52">
      <!-- pnto__R_s -->
      <g transform="translate(832.664033 277.457812)rotate(-90)scale(0.1 -0.1)">
       <defs>
        <path d="M 44.390625 34.1875 
Q 47.5625 33.109375 50.5625 29.59375 
Q 53.5625 26.078125 56.59375 19.921875 
L 66.609375 0 
L 56 0 
L 46.6875 18.703125 
Q 43.0625 26.03125 39.671875 28.421875 
Q 36.28125 30.8125 30.421875 30.8125 
L 19.671875 30.8125 
L 19.671875 0 
L 9.8125 0 
L 9.8125 72.90625 
L 32.078125 72.90625 
Q 44.578125 72.90625 50.734375 67.671875 
Q 56.890625 62.453125 56.890625 51.90625 
Q 56.890625 45.015625 53.6875 40.46875 
Q 50.484375 35.9375 44.390625 34.1875 
z
M 19.671875 64.796875 
L 19.671875 38.921875 
L 32.078125 38.921875 
Q 39.203125 38.921875 42.84375 42.21875 
Q 46.484375 45.515625 46.484375 51.90625 
Q 46.484375 58.296875 42.84375 61.546875 
Q 39.203125 64.796875 32.078125 64.796875 
z
" id="DejaVuSans-82"/>
       </defs>
       <use xlink:href="#DejaVuSans-112"/>
       <use x="63.476562" xlink:href="#DejaVuSans-110"/>
       <use x="126.855469" xlink:href="#DejaVuSans-116"/>
       <use x="166.064453" xlink:href="#DejaVuSans-111"/>
       <use x="227.246094" xlink:href="#DejaVuSans-95"/>
       <use x="277.246094" xlink:href="#DejaVuSans-95"/>
       <use x="327.246094" xlink:href="#DejaVuSans-82"/>
       <use x="396.728516" xlink:href="#DejaVuSans-95"/>
       <use x="446.728516" xlink:href="#DejaVuSans-115"/>
      </g>
     </g>
    </g>
    <g id="xtick_53">
     <g id="line2d_53">
      <g>
       <use style="stroke:#000000;stroke-width:0.8;" x="845.527594" xlink:href="#m5a6327515a" y="220.575"/>
      </g>
     </g>
     <g id="text_53">
      <!-- cit_s -->
      <g transform="translate(848.147907 249.98125)rotate(-90)scale(0.1 -0.1)">
       <use xlink:href="#DejaVuSans-99"/>
       <use x="54.980469" xlink:href="#DejaVuSans-105"/>
       <use x="82.763672" xlink:href="#DejaVuSans-116"/>
       <use x="121.972656" xlink:href="#DejaVuSans-95"/>
       <use x="171.972656" xlink:href="#DejaVuSans-115"/>
      </g>
     </g>
    </g>
   </g>
   <g id="matplotlib.axis_2">
    <g id="ytick_1">
     <g id="line2d_54">
      <defs>
       <path d="M 0 0 
L -3.5 0 
" id="m9dcf4f1761" style="stroke:#000000;stroke-width:0.8;"/>
      </defs>
      <g>
       <use style="stroke:#000000;stroke-width:0.8;" x="39.925" xlink:href="#m9dcf4f1761" y="220.575"/>
      </g>
     </g>
     <g id="text_54">
      <!-- 0.00 -->
      <g transform="translate(10.659375 224.374219)scale(0.1 -0.1)">
       <defs>
        <path d="M 31.78125 66.40625 
Q 24.171875 66.40625 20.328125 58.90625 
Q 16.5 51.421875 16.5 36.375 
Q 16.5 21.390625 20.328125 13.890625 
Q 24.171875 6.390625 31.78125 6.390625 
Q 39.453125 6.390625 43.28125 13.890625 
Q 47.125 21.390625 47.125 36.375 
Q 47.125 51.421875 43.28125 58.90625 
Q 39.453125 66.40625 31.78125 66.40625 
z
M 31.78125 74.21875 
Q 44.046875 74.21875 50.515625 64.515625 
Q 56.984375 54.828125 56.984375 36.375 
Q 56.984375 17.96875 50.515625 8.265625 
Q 44.046875 -1.421875 31.78125 -1.421875 
Q 19.53125 -1.421875 13.0625 8.265625 
Q 6.59375 17.96875 6.59375 36.375 
Q 6.59375 54.828125 13.0625 64.515625 
Q 19.53125 74.21875 31.78125 74.21875 
z
" id="DejaVuSans-48"/>
        <path d="M 10.6875 12.40625 
L 21 12.40625 
L 21 0 
L 10.6875 0 
z
" id="DejaVuSans-46"/>
       </defs>
       <use xlink:href="#DejaVuSans-48"/>
       <use x="63.623047" xlink:href="#DejaVuSans-46"/>
       <use x="95.410156" xlink:href="#DejaVuSans-48"/>
       <use x="159.033203" xlink:href="#DejaVuSans-48"/>
      </g>
     </g>
    </g>
    <g id="ytick_2">
     <g id="line2d_55">
      <g>
       <use style="stroke:#000000;stroke-width:0.8;" x="39.925" xlink:href="#m9dcf4f1761" y="186.258916"/>
      </g>
     </g>
     <g id="text_55">
      <!-- 0.01 -->
      <g transform="translate(10.659375 190.058135)scale(0.1 -0.1)">
       <defs>
        <path d="M 12.40625 8.296875 
L 28.515625 8.296875 
L 28.515625 63.921875 
L 10.984375 60.40625 
L 10.984375 69.390625 
L 28.421875 72.90625 
L 38.28125 72.90625 
L 38.28125 8.296875 
L 54.390625 8.296875 
L 54.390625 0 
L 12.40625 0 
z
" id="DejaVuSans-49"/>
       </defs>
       <use xlink:href="#DejaVuSans-48"/>
       <use x="63.623047" xlink:href="#DejaVuSans-46"/>
       <use x="95.410156" xlink:href="#DejaVuSans-48"/>
       <use x="159.033203" xlink:href="#DejaVuSans-49"/>
      </g>
     </g>
    </g>
    <g id="ytick_3">
     <g id="line2d_56">
      <g>
       <use style="stroke:#000000;stroke-width:0.8;" x="39.925" xlink:href="#m9dcf4f1761" y="151.942833"/>
      </g>
     </g>
     <g id="text_56">
      <!-- 0.02 -->
      <g transform="translate(10.659375 155.742052)scale(0.1 -0.1)">
       <use xlink:href="#DejaVuSans-48"/>
       <use x="63.623047" xlink:href="#DejaVuSans-46"/>
       <use x="95.410156" xlink:href="#DejaVuSans-48"/>
       <use x="159.033203" xlink:href="#DejaVuSans-50"/>
      </g>
     </g>
    </g>
    <g id="ytick_4">
     <g id="line2d_57">
      <g>
       <use style="stroke:#000000;stroke-width:0.8;" x="39.925" xlink:href="#m9dcf4f1761" y="117.626749"/>
      </g>
     </g>
     <g id="text_57">
      <!-- 0.03 -->
      <g transform="translate(10.659375 121.425968)scale(0.1 -0.1)">
       <use xlink:href="#DejaVuSans-48"/>
       <use x="63.623047" xlink:href="#DejaVuSans-46"/>
       <use x="95.410156" xlink:href="#DejaVuSans-48"/>
       <use x="159.033203" xlink:href="#DejaVuSans-51"/>
      </g>
     </g>
    </g>
    <g id="ytick_5">
     <g id="line2d_58">
      <g>
       <use style="stroke:#000000;stroke-width:0.8;" x="39.925" xlink:href="#m9dcf4f1761" y="83.310666"/>
      </g>
     </g>
     <g id="text_58">
      <!-- 0.04 -->
      <g transform="translate(10.659375 87.109885)scale(0.1 -0.1)">
       <use xlink:href="#DejaVuSans-48"/>
       <use x="63.623047" xlink:href="#DejaVuSans-46"/>
       <use x="95.410156" xlink:href="#DejaVuSans-48"/>
       <use x="159.033203" xlink:href="#DejaVuSans-52"/>
      </g>
     </g>
    </g>
    <g id="ytick_6">
     <g id="line2d_59">
      <g>
       <use style="stroke:#000000;stroke-width:0.8;" x="39.925" xlink:href="#m9dcf4f1761" y="48.994582"/>
      </g>
     </g>
     <g id="text_59">
      <!-- 0.05 -->
      <g transform="translate(10.659375 52.793801)scale(0.1 -0.1)">
       <defs>
        <path d="M 10.796875 72.90625 
L 49.515625 72.90625 
L 49.515625 64.59375 
L 19.828125 64.59375 
L 19.828125 46.734375 
Q 21.96875 47.46875 24.109375 47.828125 
Q 26.265625 48.1875 28.421875 48.1875 
Q 40.625 48.1875 47.75 41.5 
Q 54.890625 34.8125 54.890625 23.390625 
Q 54.890625 11.625 47.5625 5.09375 
Q 40.234375 -1.421875 26.90625 -1.421875 
Q 22.3125 -1.421875 17.546875 -0.640625 
Q 12.796875 0.140625 7.71875 1.703125 
L 7.71875 11.625 
Q 12.109375 9.234375 16.796875 8.0625 
Q 21.484375 6.890625 26.703125 6.890625 
Q 35.15625 6.890625 40.078125 11.328125 
Q 45.015625 15.765625 45.015625 23.390625 
Q 45.015625 31 40.078125 35.4375 
Q 35.15625 39.890625 26.703125 39.890625 
Q 22.75 39.890625 18.8125 39.015625 
Q 14.890625 38.140625 10.796875 36.28125 
z
" id="DejaVuSans-53"/>
       </defs>
       <use xlink:href="#DejaVuSans-48"/>
       <use x="63.623047" xlink:href="#DejaVuSans-46"/>
       <use x="95.410156" xlink:href="#DejaVuSans-48"/>
       <use x="159.033203" xlink:href="#DejaVuSans-53"/>
      </g>
     </g>
    </g>
    <g id="ytick_7">
     <g id="line2d_60">
      <g>
       <use style="stroke:#000000;stroke-width:0.8;" x="39.925" xlink:href="#m9dcf4f1761" y="14.678499"/>
      </g>
     </g>
     <g id="text_60">
      <!-- 0.06 -->
      <g transform="translate(10.659375 18.477717)scale(0.1 -0.1)">
       <use xlink:href="#DejaVuSans-48"/>
       <use x="63.623047" xlink:href="#DejaVuSans-46"/>
       <use x="95.410156" xlink:href="#DejaVuSans-48"/>
       <use x="159.033203" xlink:href="#DejaVuSans-54"/>
      </g>
     </g>
    </g>
   </g>
   <g id="patch_56">
    <path d="M 39.925 220.575 
L 39.925 11.724093 
" style="fill:none;stroke:#000000;stroke-linecap:square;stroke-linejoin:miter;stroke-width:0.8;"/>
   </g>
   <g id="patch_57">
    <path d="M 853.2 220.575 
L 853.2 11.724093 
" style="fill:none;stroke:#000000;stroke-linecap:square;stroke-linejoin:miter;stroke-width:0.8;"/>
   </g>
   <g id="patch_58">
    <path d="M 39.925 220.575 
L 853.2 220.575 
" style="fill:none;stroke:#000000;stroke-linecap:square;stroke-linejoin:miter;stroke-width:0.8;"/>
   </g>
   <g id="patch_59">
    <path d="M 39.925 11.724093 
L 853.2 11.724093 
" style="fill:none;stroke:#000000;stroke-linecap:square;stroke-linejoin:miter;stroke-width:0.8;"/>
   </g>
  </g>
 </g>
 <defs>
  <clipPath id="pd0c2ba9d18">
   <rect height="208.850907" width="813.275" x="39.925" y="11.724093"/>
  </clipPath>
 </defs>
</svg>
