<?xml version="1.0" encoding="utf-8" standalone="no"?>
<!DOCTYPE svg PUBLIC "-//W3C//DTD SVG 1.1//EN"
  "http://www.w3.org/Graphics/SVG/1.1/DTD/svg11.dtd">
<!-- Created with matplotlib (https://matplotlib.org/) -->
<svg height="288pt" version="1.1" viewBox="0 0 864 288" width="864pt" xmlns="http://www.w3.org/2000/svg" xmlns:xlink="http://www.w3.org/1999/xlink">
 <metadata>
  <rdf:RDF xmlns:cc="http://creativecommons.org/ns#" xmlns:dc="http://purl.org/dc/elements/1.1/" xmlns:rdf="http://www.w3.org/1999/02/22-rdf-syntax-ns#">
   <cc:Work>
    <dc:type rdf:resource="http://purl.org/dc/dcmitype/StillImage"/>
    <dc:date>2022-02-17T16:03:18.397486</dc:date>
    <dc:format>image/svg+xml</dc:format>
    <dc:creator>
     <cc:Agent>
      <dc:title>Matplotlib v3.3.4, https://matplotlib.org/</dc:title>
     </cc:Agent>
    </dc:creator>
   </cc:Work>
  </rdf:RDF>
 </metadata>
 <defs>
  <style type="text/css">*{stroke-linecap:butt;stroke-linejoin:round;}</style>
 </defs>
 <g id="figure_1">
  <g id="patch_1">
   <path d="M 0 288 
L 864 288 
L 864 0 
L 0 0 
z
" style="fill:none;"/>
  </g>
  <g id="axes_1">
   <g id="patch_2">
    <path d="M 39.925 222.7 
L 853.2 222.7 
L 853.2 11.611289 
L 39.925 11.611289 
z
" style="fill:#ffffff;"/>
   </g>
   <g id="patch_3">
    <path clip-path="url(#p9e1091299d)" d="M 43.834976 222.7 
L 51.654928 222.7 
L 51.654928 21.663133 
L 43.834976 21.663133 
z
" style="fill:#1f77b4;"/>
   </g>
   <g id="patch_4">
    <path clip-path="url(#p9e1091299d)" d="M 59.47488 222.7 
L 67.294832 222.7 
L 67.294832 21.663133 
L 59.47488 21.663133 
z
" style="fill:#1f77b4;"/>
   </g>
   <g id="patch_5">
    <path clip-path="url(#p9e1091299d)" d="M 75.114784 222.7 
L 82.934736 222.7 
L 82.934736 21.663133 
L 75.114784 21.663133 
z
" style="fill:#1f77b4;"/>
   </g>
   <g id="patch_6">
    <path clip-path="url(#p9e1091299d)" d="M 90.754688 222.7 
L 98.574639 222.7 
L 98.574639 21.663133 
L 90.754688 21.663133 
z
" style="fill:#1f77b4;"/>
   </g>
   <g id="patch_7">
    <path clip-path="url(#p9e1091299d)" d="M 106.394591 222.7 
L 114.214543 222.7 
L 114.214543 21.663133 
L 106.394591 21.663133 
z
" style="fill:#1f77b4;"/>
   </g>
   <g id="patch_8">
    <path clip-path="url(#p9e1091299d)" d="M 122.034495 222.7 
L 129.854447 222.7 
L 129.854447 21.663133 
L 122.034495 21.663133 
z
" style="fill:#1f77b4;"/>
   </g>
   <g id="patch_9">
    <path clip-path="url(#p9e1091299d)" d="M 137.674399 222.7 
L 145.494351 222.7 
L 145.494351 21.663133 
L 137.674399 21.663133 
z
" style="fill:#1f77b4;"/>
   </g>
   <g id="patch_10">
    <path clip-path="url(#p9e1091299d)" d="M 153.314303 222.7 
L 161.134255 222.7 
L 161.134255 21.663133 
L 153.314303 21.663133 
z
" style="fill:#1f77b4;"/>
   </g>
   <g id="patch_11">
    <path clip-path="url(#p9e1091299d)" d="M 168.954207 222.7 
L 176.774159 222.7 
L 176.774159 21.663662 
L 168.954207 21.663662 
z
" style="fill:#1f77b4;"/>
   </g>
   <g id="patch_12">
    <path clip-path="url(#p9e1091299d)" d="M 184.594111 222.7 
L 192.414063 222.7 
L 192.414063 21.665777 
L 184.594111 21.665777 
z
" style="fill:#1f77b4;"/>
   </g>
   <g id="patch_13">
    <path clip-path="url(#p9e1091299d)" d="M 200.234014 222.7 
L 208.053966 222.7 
L 208.053966 21.665777 
L 200.234014 21.665777 
z
" style="fill:#1f77b4;"/>
   </g>
   <g id="patch_14">
    <path clip-path="url(#p9e1091299d)" d="M 215.873918 222.7 
L 223.69387 222.7 
L 223.69387 21.665777 
L 215.873918 21.665777 
z
" style="fill:#1f77b4;"/>
   </g>
   <g id="patch_15">
    <path clip-path="url(#p9e1091299d)" d="M 231.513822 222.7 
L 239.333774 222.7 
L 239.333774 21.684291 
L 231.513822 21.684291 
z
" style="fill:#1f77b4;"/>
   </g>
   <g id="patch_16">
    <path clip-path="url(#p9e1091299d)" d="M 247.153726 222.7 
L 254.973678 222.7 
L 254.973678 21.684291 
L 247.153726 21.684291 
z
" style="fill:#1f77b4;"/>
   </g>
   <g id="patch_17">
    <path clip-path="url(#p9e1091299d)" d="M 262.79363 222.7 
L 270.613582 222.7 
L 270.613582 21.684291 
L 262.79363 21.684291 
z
" style="fill:#1f77b4;"/>
   </g>
   <g id="patch_18">
    <path clip-path="url(#p9e1091299d)" d="M 278.433534 222.7 
L 286.253486 222.7 
L 286.253486 21.68958 
L 278.433534 21.68958 
z
" style="fill:#1f77b4;"/>
   </g>
   <g id="patch_19">
    <path clip-path="url(#p9e1091299d)" d="M 294.073438 222.7 
L 301.893389 222.7 
L 301.893389 21.692225 
L 294.073438 21.692225 
z
" style="fill:#1f77b4;"/>
   </g>
   <g id="patch_20">
    <path clip-path="url(#p9e1091299d)" d="M 309.713341 222.7 
L 317.533293 222.7 
L 317.533293 21.697515 
L 309.713341 21.697515 
z
" style="fill:#1f77b4;"/>
   </g>
   <g id="patch_21">
    <path clip-path="url(#p9e1091299d)" d="M 325.353245 222.7 
L 333.173197 222.7 
L 333.173197 21.705449 
L 325.353245 21.705449 
z
" style="fill:#1f77b4;"/>
   </g>
   <g id="patch_22">
    <path clip-path="url(#p9e1091299d)" d="M 340.993149 222.7 
L 348.813101 222.7 
L 348.813101 21.718673 
L 340.993149 21.718673 
z
" style="fill:#1f77b4;"/>
   </g>
   <g id="patch_23">
    <path clip-path="url(#p9e1091299d)" d="M 356.633053 222.7 
L 364.453005 222.7 
L 364.453005 21.779502 
L 356.633053 21.779502 
z
" style="fill:#1f77b4;"/>
   </g>
   <g id="patch_24">
    <path clip-path="url(#p9e1091299d)" d="M 372.272957 222.7 
L 380.092909 222.7 
L 380.092909 21.837687 
L 372.272957 21.837687 
z
" style="fill:#1f77b4;"/>
   </g>
   <g id="patch_25">
    <path clip-path="url(#p9e1091299d)" d="M 387.912861 222.7 
L 395.732813 222.7 
L 395.732813 21.853556 
L 387.912861 21.853556 
z
" style="fill:#1f77b4;"/>
   </g>
   <g id="patch_26">
    <path clip-path="url(#p9e1091299d)" d="M 403.552764 222.7 
L 411.372716 222.7 
L 411.372716 21.874714 
L 403.552764 21.874714 
z
" style="fill:#1f77b4;"/>
   </g>
   <g id="patch_27">
    <path clip-path="url(#p9e1091299d)" d="M 419.192668 222.7 
L 427.01262 222.7 
L 427.01262 21.887938 
L 419.192668 21.887938 
z
" style="fill:#1f77b4;"/>
   </g>
   <g id="patch_28">
    <path clip-path="url(#p9e1091299d)" d="M 434.832572 222.7 
L 442.652524 222.7 
L 442.652524 22.025466 
L 434.832572 22.025466 
z
" style="fill:#1f77b4;"/>
   </g>
   <g id="patch_29">
    <path clip-path="url(#p9e1091299d)" d="M 450.472476 222.7 
L 458.292428 222.7 
L 458.292428 22.067782 
L 450.472476 22.067782 
z
" style="fill:#1f77b4;"/>
   </g>
   <g id="patch_30">
    <path clip-path="url(#p9e1091299d)" d="M 466.11238 222.7 
L 473.932332 222.7 
L 473.932332 22.55442 
L 466.11238 22.55442 
z
" style="fill:#1f77b4;"/>
   </g>
   <g id="patch_31">
    <path clip-path="url(#p9e1091299d)" d="M 481.752284 222.7 
L 489.572236 222.7 
L 489.572236 22.810963 
L 481.752284 22.810963 
z
" style="fill:#1f77b4;"/>
   </g>
   <g id="patch_32">
    <path clip-path="url(#p9e1091299d)" d="M 497.392188 222.7 
L 505.212139 222.7 
L 505.212139 22.882371 
L 497.392188 22.882371 
z
" style="fill:#1f77b4;"/>
   </g>
   <g id="patch_33">
    <path clip-path="url(#p9e1091299d)" d="M 513.032091 222.7 
L 520.852043 222.7 
L 520.852043 26.992343 
L 513.032091 26.992343 
z
" style="fill:#1f77b4;"/>
   </g>
   <g id="patch_34">
    <path clip-path="url(#p9e1091299d)" d="M 528.671995 222.7 
L 536.491947 222.7 
L 536.491947 27.299136 
L 528.671995 27.299136 
z
" style="fill:#1f77b4;"/>
   </g>
   <g id="patch_35">
    <path clip-path="url(#p9e1091299d)" d="M 544.311899 222.7 
L 552.131851 222.7 
L 552.131851 27.391703 
L 544.311899 27.391703 
z
" style="fill:#1f77b4;"/>
   </g>
   <g id="patch_36">
    <path clip-path="url(#p9e1091299d)" d="M 559.951803 222.7 
L 567.771755 222.7 
L 567.771755 27.812222 
L 559.951803 27.812222 
z
" style="fill:#1f77b4;"/>
   </g>
   <g id="patch_37">
    <path clip-path="url(#p9e1091299d)" d="M 575.591707 222.7 
L 583.411659 222.7 
L 583.411659 28.634745 
L 575.591707 28.634745 
z
" style="fill:#1f77b4;"/>
   </g>
   <g id="patch_38">
    <path clip-path="url(#p9e1091299d)" d="M 591.231611 222.7 
L 599.051563 222.7 
L 599.051563 32.146999 
L 591.231611 32.146999 
z
" style="fill:#1f77b4;"/>
   </g>
   <g id="patch_39">
    <path clip-path="url(#p9e1091299d)" d="M 606.871514 222.7 
L 614.691466 222.7 
L 614.691466 32.604544 
L 606.871514 32.604544 
z
" style="fill:#1f77b4;"/>
   </g>
   <g id="patch_40">
    <path clip-path="url(#p9e1091299d)" d="M 622.511418 222.7 
L 630.33137 222.7 
L 630.33137 32.765875 
L 622.511418 32.765875 
z
" style="fill:#1f77b4;"/>
   </g>
   <g id="patch_41">
    <path clip-path="url(#p9e1091299d)" d="M 638.151322 222.7 
L 645.971274 222.7 
L 645.971274 46.352056 
L 638.151322 46.352056 
z
" style="fill:#1f77b4;"/>
   </g>
   <g id="patch_42">
    <path clip-path="url(#p9e1091299d)" d="M 653.791226 222.7 
L 661.611178 222.7 
L 661.611178 222.7 
L 653.791226 222.7 
z
" style="fill:#1f77b4;"/>
   </g>
   <g id="patch_43">
    <path clip-path="url(#p9e1091299d)" d="M 669.43113 222.7 
L 677.251082 222.7 
L 677.251082 222.7 
L 669.43113 222.7 
z
" style="fill:#1f77b4;"/>
   </g>
   <g id="patch_44">
    <path clip-path="url(#p9e1091299d)" d="M 685.071034 222.7 
L 692.890986 222.7 
L 692.890986 222.7 
L 685.071034 222.7 
z
" style="fill:#1f77b4;"/>
   </g>
   <g id="patch_45">
    <path clip-path="url(#p9e1091299d)" d="M 700.710938 222.7 
L 708.530889 222.7 
L 708.530889 222.7 
L 700.710938 222.7 
z
" style="fill:#1f77b4;"/>
   </g>
   <g id="patch_46">
    <path clip-path="url(#p9e1091299d)" d="M 716.350841 222.7 
L 724.170793 222.7 
L 724.170793 222.7 
L 716.350841 222.7 
z
" style="fill:#1f77b4;"/>
   </g>
   <g id="patch_47">
    <path clip-path="url(#p9e1091299d)" d="M 731.990745 222.7 
L 739.810697 222.7 
L 739.810697 222.7 
L 731.990745 222.7 
z
" style="fill:#1f77b4;"/>
   </g>
   <g id="patch_48">
    <path clip-path="url(#p9e1091299d)" d="M 747.630649 222.7 
L 755.450601 222.7 
L 755.450601 222.7 
L 747.630649 222.7 
z
" style="fill:#1f77b4;"/>
   </g>
   <g id="patch_49">
    <path clip-path="url(#p9e1091299d)" d="M 763.270553 222.7 
L 771.090505 222.7 
L 771.090505 222.7 
L 763.270553 222.7 
z
" style="fill:#1f77b4;"/>
   </g>
   <g id="patch_50">
    <path clip-path="url(#p9e1091299d)" d="M 778.910457 222.7 
L 786.730409 222.7 
L 786.730409 222.7 
L 778.910457 222.7 
z
" style="fill:#1f77b4;"/>
   </g>
   <g id="patch_51">
    <path clip-path="url(#p9e1091299d)" d="M 794.550361 222.7 
L 802.370313 222.7 
L 802.370313 222.7 
L 794.550361 222.7 
z
" style="fill:#1f77b4;"/>
   </g>
   <g id="patch_52">
    <path clip-path="url(#p9e1091299d)" d="M 810.190264 222.7 
L 818.010216 222.7 
L 818.010216 222.7 
L 810.190264 222.7 
z
" style="fill:#1f77b4;"/>
   </g>
   <g id="patch_53">
    <path clip-path="url(#p9e1091299d)" d="M 825.830168 222.7 
L 833.65012 222.7 
L 833.65012 222.7 
L 825.830168 222.7 
z
" style="fill:#1f77b4;"/>
   </g>
   <g id="patch_54">
    <path clip-path="url(#p9e1091299d)" d="M 841.470072 222.7 
L 849.290024 222.7 
L 849.290024 222.7 
L 841.470072 222.7 
z
" style="fill:#1f77b4;"/>
   </g>
   <g id="matplotlib.axis_1">
    <g id="xtick_1">
     <g id="line2d_1">
      <defs>
       <path d="M 0 0 
L 0 3.5 
" id="me223972a9b" style="stroke:#000000;stroke-width:0.8;"/>
      </defs>
      <g>
       <use style="stroke:#000000;stroke-width:0.8;" x="47.744952" xlink:href="#me223972a9b" y="222.7"/>
      </g>
     </g>
     <g id="text_1">
      <!-- csn_s -->
      <g transform="translate(50.226202 256.954687)rotate(-90)scale(0.1 -0.1)">
       <defs>
        <path d="M 48.78125 52.59375 
L 48.78125 44.1875 
Q 44.96875 46.296875 41.140625 47.34375 
Q 37.3125 48.390625 33.40625 48.390625 
Q 24.65625 48.390625 19.8125 42.84375 
Q 14.984375 37.3125 14.984375 27.296875 
Q 14.984375 17.28125 19.8125 11.734375 
Q 24.65625 6.203125 33.40625 6.203125 
Q 37.3125 6.203125 41.140625 7.25 
Q 44.96875 8.296875 48.78125 10.40625 
L 48.78125 2.09375 
Q 45.015625 0.34375 40.984375 -0.53125 
Q 36.96875 -1.421875 32.421875 -1.421875 
Q 20.0625 -1.421875 12.78125 6.34375 
Q 5.515625 14.109375 5.515625 27.296875 
Q 5.515625 40.671875 12.859375 48.328125 
Q 20.21875 56 33.015625 56 
Q 37.15625 56 41.109375 55.140625 
Q 45.0625 54.296875 48.78125 52.59375 
z
" id="DejaVuSans-99"/>
        <path d="M 44.28125 53.078125 
L 44.28125 44.578125 
Q 40.484375 46.53125 36.375 47.5 
Q 32.28125 48.484375 27.875 48.484375 
Q 21.1875 48.484375 17.84375 46.4375 
Q 14.5 44.390625 14.5 40.28125 
Q 14.5 37.15625 16.890625 35.375 
Q 19.28125 33.59375 26.515625 31.984375 
L 29.59375 31.296875 
Q 39.15625 29.25 43.1875 25.515625 
Q 47.21875 21.78125 47.21875 15.09375 
Q 47.21875 7.46875 41.1875 3.015625 
Q 35.15625 -1.421875 24.609375 -1.421875 
Q 20.21875 -1.421875 15.453125 -0.5625 
Q 10.6875 0.296875 5.421875 2 
L 5.421875 11.28125 
Q 10.40625 8.6875 15.234375 7.390625 
Q 20.0625 6.109375 24.8125 6.109375 
Q 31.15625 6.109375 34.5625 8.28125 
Q 37.984375 10.453125 37.984375 14.40625 
Q 37.984375 18.0625 35.515625 20.015625 
Q 33.0625 21.96875 24.703125 23.78125 
L 21.578125 24.515625 
Q 13.234375 26.265625 9.515625 29.90625 
Q 5.8125 33.546875 5.8125 39.890625 
Q 5.8125 47.609375 11.28125 51.796875 
Q 16.75 56 26.8125 56 
Q 31.78125 56 36.171875 55.265625 
Q 40.578125 54.546875 44.28125 53.078125 
z
" id="DejaVuSans-115"/>
        <path d="M 54.890625 33.015625 
L 54.890625 0 
L 45.90625 0 
L 45.90625 32.71875 
Q 45.90625 40.484375 42.875 44.328125 
Q 39.84375 48.1875 33.796875 48.1875 
Q 26.515625 48.1875 22.3125 43.546875 
Q 18.109375 38.921875 18.109375 30.90625 
L 18.109375 0 
L 9.078125 0 
L 9.078125 54.6875 
L 18.109375 54.6875 
L 18.109375 46.1875 
Q 21.34375 51.125 25.703125 53.5625 
Q 30.078125 56 35.796875 56 
Q 45.21875 56 50.046875 50.171875 
Q 54.890625 44.34375 54.890625 33.015625 
z
" id="DejaVuSans-110"/>
        <path d="M 50.984375 -16.609375 
L 50.984375 -23.578125 
L -0.984375 -23.578125 
L -0.984375 -16.609375 
z
" id="DejaVuSans-95"/>
       </defs>
       <use xlink:href="#DejaVuSans-99"/>
       <use x="54.980469" xlink:href="#DejaVuSans-115"/>
       <use x="107.080078" xlink:href="#DejaVuSans-110"/>
       <use x="170.458984" xlink:href="#DejaVuSans-95"/>
       <use x="220.458984" xlink:href="#DejaVuSans-115"/>
      </g>
     </g>
    </g>
    <g id="xtick_2">
     <g id="line2d_2">
      <g>
       <use style="stroke:#000000;stroke-width:0.8;" x="63.384856" xlink:href="#me223972a9b" y="222.7"/>
      </g>
     </g>
     <g id="text_2">
      <!-- thym_s -->
      <g transform="translate(66.005168 265.826562)rotate(-90)scale(0.1 -0.1)">
       <defs>
        <path d="M 18.3125 70.21875 
L 18.3125 54.6875 
L 36.8125 54.6875 
L 36.8125 47.703125 
L 18.3125 47.703125 
L 18.3125 18.015625 
Q 18.3125 11.328125 20.140625 9.421875 
Q 21.96875 7.515625 27.59375 7.515625 
L 36.8125 7.515625 
L 36.8125 0 
L 27.59375 0 
Q 17.1875 0 13.234375 3.875 
Q 9.28125 7.765625 9.28125 18.015625 
L 9.28125 47.703125 
L 2.6875 47.703125 
L 2.6875 54.6875 
L 9.28125 54.6875 
L 9.28125 70.21875 
z
" id="DejaVuSans-116"/>
        <path d="M 54.890625 33.015625 
L 54.890625 0 
L 45.90625 0 
L 45.90625 32.71875 
Q 45.90625 40.484375 42.875 44.328125 
Q 39.84375 48.1875 33.796875 48.1875 
Q 26.515625 48.1875 22.3125 43.546875 
Q 18.109375 38.921875 18.109375 30.90625 
L 18.109375 0 
L 9.078125 0 
L 9.078125 75.984375 
L 18.109375 75.984375 
L 18.109375 46.1875 
Q 21.34375 51.125 25.703125 53.5625 
Q 30.078125 56 35.796875 56 
Q 45.21875 56 50.046875 50.171875 
Q 54.890625 44.34375 54.890625 33.015625 
z
" id="DejaVuSans-104"/>
        <path d="M 32.171875 -5.078125 
Q 28.375 -14.84375 24.75 -17.8125 
Q 21.140625 -20.796875 15.09375 -20.796875 
L 7.90625 -20.796875 
L 7.90625 -13.28125 
L 13.1875 -13.28125 
Q 16.890625 -13.28125 18.9375 -11.515625 
Q 21 -9.765625 23.484375 -3.21875 
L 25.09375 0.875 
L 2.984375 54.6875 
L 12.5 54.6875 
L 29.59375 11.921875 
L 46.6875 54.6875 
L 56.203125 54.6875 
z
" id="DejaVuSans-121"/>
        <path d="M 52 44.1875 
Q 55.375 50.25 60.0625 53.125 
Q 64.75 56 71.09375 56 
Q 79.640625 56 84.28125 50.015625 
Q 88.921875 44.046875 88.921875 33.015625 
L 88.921875 0 
L 79.890625 0 
L 79.890625 32.71875 
Q 79.890625 40.578125 77.09375 44.375 
Q 74.3125 48.1875 68.609375 48.1875 
Q 61.625 48.1875 57.5625 43.546875 
Q 53.515625 38.921875 53.515625 30.90625 
L 53.515625 0 
L 44.484375 0 
L 44.484375 32.71875 
Q 44.484375 40.625 41.703125 44.40625 
Q 38.921875 48.1875 33.109375 48.1875 
Q 26.21875 48.1875 22.15625 43.53125 
Q 18.109375 38.875 18.109375 30.90625 
L 18.109375 0 
L 9.078125 0 
L 9.078125 54.6875 
L 18.109375 54.6875 
L 18.109375 46.1875 
Q 21.1875 51.21875 25.484375 53.609375 
Q 29.78125 56 35.6875 56 
Q 41.65625 56 45.828125 52.96875 
Q 50 49.953125 52 44.1875 
z
" id="DejaVuSans-109"/>
       </defs>
       <use xlink:href="#DejaVuSans-116"/>
       <use x="39.208984" xlink:href="#DejaVuSans-104"/>
       <use x="102.587891" xlink:href="#DejaVuSans-121"/>
       <use x="161.767578" xlink:href="#DejaVuSans-109"/>
       <use x="259.179688" xlink:href="#DejaVuSans-95"/>
       <use x="309.179688" xlink:href="#DejaVuSans-115"/>
      </g>
     </g>
    </g>
    <g id="xtick_3">
     <g id="line2d_3">
      <g>
       <use style="stroke:#000000;stroke-width:0.8;" x="79.02476" xlink:href="#me223972a9b" y="222.7"/>
      </g>
     </g>
     <g id="text_3">
      <!-- ribflv_c -->
      <g transform="translate(81.645072 265.653125)rotate(-90)scale(0.1 -0.1)">
       <defs>
        <path d="M 41.109375 46.296875 
Q 39.59375 47.171875 37.8125 47.578125 
Q 36.03125 48 33.890625 48 
Q 26.265625 48 22.1875 43.046875 
Q 18.109375 38.09375 18.109375 28.8125 
L 18.109375 0 
L 9.078125 0 
L 9.078125 54.6875 
L 18.109375 54.6875 
L 18.109375 46.1875 
Q 20.953125 51.171875 25.484375 53.578125 
Q 30.03125 56 36.53125 56 
Q 37.453125 56 38.578125 55.875 
Q 39.703125 55.765625 41.0625 55.515625 
z
" id="DejaVuSans-114"/>
        <path d="M 9.421875 54.6875 
L 18.40625 54.6875 
L 18.40625 0 
L 9.421875 0 
z
M 9.421875 75.984375 
L 18.40625 75.984375 
L 18.40625 64.59375 
L 9.421875 64.59375 
z
" id="DejaVuSans-105"/>
        <path d="M 48.6875 27.296875 
Q 48.6875 37.203125 44.609375 42.84375 
Q 40.53125 48.484375 33.40625 48.484375 
Q 26.265625 48.484375 22.1875 42.84375 
Q 18.109375 37.203125 18.109375 27.296875 
Q 18.109375 17.390625 22.1875 11.75 
Q 26.265625 6.109375 33.40625 6.109375 
Q 40.53125 6.109375 44.609375 11.75 
Q 48.6875 17.390625 48.6875 27.296875 
z
M 18.109375 46.390625 
Q 20.953125 51.265625 25.265625 53.625 
Q 29.59375 56 35.59375 56 
Q 45.5625 56 51.78125 48.09375 
Q 58.015625 40.1875 58.015625 27.296875 
Q 58.015625 14.40625 51.78125 6.484375 
Q 45.5625 -1.421875 35.59375 -1.421875 
Q 29.59375 -1.421875 25.265625 0.953125 
Q 20.953125 3.328125 18.109375 8.203125 
L 18.109375 0 
L 9.078125 0 
L 9.078125 75.984375 
L 18.109375 75.984375 
z
" id="DejaVuSans-98"/>
        <path d="M 37.109375 75.984375 
L 37.109375 68.5 
L 28.515625 68.5 
Q 23.6875 68.5 21.796875 66.546875 
Q 19.921875 64.59375 19.921875 59.515625 
L 19.921875 54.6875 
L 34.71875 54.6875 
L 34.71875 47.703125 
L 19.921875 47.703125 
L 19.921875 0 
L 10.890625 0 
L 10.890625 47.703125 
L 2.296875 47.703125 
L 2.296875 54.6875 
L 10.890625 54.6875 
L 10.890625 58.5 
Q 10.890625 67.625 15.140625 71.796875 
Q 19.390625 75.984375 28.609375 75.984375 
z
" id="DejaVuSans-102"/>
        <path d="M 9.421875 75.984375 
L 18.40625 75.984375 
L 18.40625 0 
L 9.421875 0 
z
" id="DejaVuSans-108"/>
        <path d="M 2.984375 54.6875 
L 12.5 54.6875 
L 29.59375 8.796875 
L 46.6875 54.6875 
L 56.203125 54.6875 
L 35.6875 0 
L 23.484375 0 
z
" id="DejaVuSans-118"/>
       </defs>
       <use xlink:href="#DejaVuSans-114"/>
       <use x="41.113281" xlink:href="#DejaVuSans-105"/>
       <use x="68.896484" xlink:href="#DejaVuSans-98"/>
       <use x="132.373047" xlink:href="#DejaVuSans-102"/>
       <use x="167.578125" xlink:href="#DejaVuSans-108"/>
       <use x="195.361328" xlink:href="#DejaVuSans-118"/>
       <use x="254.541016" xlink:href="#DejaVuSans-95"/>
       <use x="304.541016" xlink:href="#DejaVuSans-99"/>
      </g>
     </g>
    </g>
    <g id="xtick_4">
     <g id="line2d_4">
      <g>
       <use style="stroke:#000000;stroke-width:0.8;" x="94.664663" xlink:href="#me223972a9b" y="222.7"/>
      </g>
     </g>
     <g id="text_4">
      <!-- pi_s -->
      <g transform="translate(97.284976 249.035937)rotate(-90)scale(0.1 -0.1)">
       <defs>
        <path d="M 18.109375 8.203125 
L 18.109375 -20.796875 
L 9.078125 -20.796875 
L 9.078125 54.6875 
L 18.109375 54.6875 
L 18.109375 46.390625 
Q 20.953125 51.265625 25.265625 53.625 
Q 29.59375 56 35.59375 56 
Q 45.5625 56 51.78125 48.09375 
Q 58.015625 40.1875 58.015625 27.296875 
Q 58.015625 14.40625 51.78125 6.484375 
Q 45.5625 -1.421875 35.59375 -1.421875 
Q 29.59375 -1.421875 25.265625 0.953125 
Q 20.953125 3.328125 18.109375 8.203125 
z
M 48.6875 27.296875 
Q 48.6875 37.203125 44.609375 42.84375 
Q 40.53125 48.484375 33.40625 48.484375 
Q 26.265625 48.484375 22.1875 42.84375 
Q 18.109375 37.203125 18.109375 27.296875 
Q 18.109375 17.390625 22.1875 11.75 
Q 26.265625 6.109375 33.40625 6.109375 
Q 40.53125 6.109375 44.609375 11.75 
Q 48.6875 17.390625 48.6875 27.296875 
z
" id="DejaVuSans-112"/>
       </defs>
       <use xlink:href="#DejaVuSans-112"/>
       <use x="63.476562" xlink:href="#DejaVuSans-105"/>
       <use x="91.259766" xlink:href="#DejaVuSans-95"/>
       <use x="141.259766" xlink:href="#DejaVuSans-115"/>
      </g>
     </g>
    </g>
    <g id="xtick_5">
     <g id="line2d_5">
      <g>
       <use style="stroke:#000000;stroke-width:0.8;" x="110.304567" xlink:href="#me223972a9b" y="222.7"/>
      </g>
     </g>
     <g id="text_5">
      <!-- cyst__L_s -->
      <g transform="translate(112.785817 276.028125)rotate(-90)scale(0.1 -0.1)">
       <defs>
        <path d="M 9.8125 72.90625 
L 19.671875 72.90625 
L 19.671875 8.296875 
L 55.171875 8.296875 
L 55.171875 0 
L 9.8125 0 
z
" id="DejaVuSans-76"/>
       </defs>
       <use xlink:href="#DejaVuSans-99"/>
       <use x="54.980469" xlink:href="#DejaVuSans-121"/>
       <use x="114.160156" xlink:href="#DejaVuSans-115"/>
       <use x="166.259766" xlink:href="#DejaVuSans-116"/>
       <use x="205.46875" xlink:href="#DejaVuSans-95"/>
       <use x="255.46875" xlink:href="#DejaVuSans-95"/>
       <use x="305.46875" xlink:href="#DejaVuSans-76"/>
       <use x="361.181641" xlink:href="#DejaVuSans-95"/>
       <use x="411.181641" xlink:href="#DejaVuSans-115"/>
      </g>
     </g>
    </g>
    <g id="xtick_6">
     <g id="line2d_6">
      <g>
       <use style="stroke:#000000;stroke-width:0.8;" x="125.944471" xlink:href="#me223972a9b" y="222.7"/>
      </g>
     </g>
     <g id="text_6">
      <!-- cit_c -->
      <g transform="translate(128.564784 252.395312)rotate(-90)scale(0.1 -0.1)">
       <use xlink:href="#DejaVuSans-99"/>
       <use x="54.980469" xlink:href="#DejaVuSans-105"/>
       <use x="82.763672" xlink:href="#DejaVuSans-116"/>
       <use x="121.972656" xlink:href="#DejaVuSans-95"/>
       <use x="171.972656" xlink:href="#DejaVuSans-99"/>
      </g>
     </g>
    </g>
    <g id="xtick_7">
     <g id="line2d_7">
      <g>
       <use style="stroke:#000000;stroke-width:0.8;" x="141.584375" xlink:href="#me223972a9b" y="222.7"/>
      </g>
     </g>
     <g id="text_7">
      <!-- nac_s -->
      <g transform="translate(144.065625 257.873437)rotate(-90)scale(0.1 -0.1)">
       <defs>
        <path d="M 34.28125 27.484375 
Q 23.390625 27.484375 19.1875 25 
Q 14.984375 22.515625 14.984375 16.5 
Q 14.984375 11.71875 18.140625 8.90625 
Q 21.296875 6.109375 26.703125 6.109375 
Q 34.1875 6.109375 38.703125 11.40625 
Q 43.21875 16.703125 43.21875 25.484375 
L 43.21875 27.484375 
z
M 52.203125 31.203125 
L 52.203125 0 
L 43.21875 0 
L 43.21875 8.296875 
Q 40.140625 3.328125 35.546875 0.953125 
Q 30.953125 -1.421875 24.3125 -1.421875 
Q 15.921875 -1.421875 10.953125 3.296875 
Q 6 8.015625 6 15.921875 
Q 6 25.140625 12.171875 29.828125 
Q 18.359375 34.515625 30.609375 34.515625 
L 43.21875 34.515625 
L 43.21875 35.40625 
Q 43.21875 41.609375 39.140625 45 
Q 35.0625 48.390625 27.6875 48.390625 
Q 23 48.390625 18.546875 47.265625 
Q 14.109375 46.140625 10.015625 43.890625 
L 10.015625 52.203125 
Q 14.9375 54.109375 19.578125 55.046875 
Q 24.21875 56 28.609375 56 
Q 40.484375 56 46.34375 49.84375 
Q 52.203125 43.703125 52.203125 31.203125 
z
" id="DejaVuSans-97"/>
       </defs>
       <use xlink:href="#DejaVuSans-110"/>
       <use x="63.378906" xlink:href="#DejaVuSans-97"/>
       <use x="124.658203" xlink:href="#DejaVuSans-99"/>
       <use x="179.638672" xlink:href="#DejaVuSans-95"/>
       <use x="229.638672" xlink:href="#DejaVuSans-115"/>
      </g>
     </g>
    </g>
    <g id="xtick_8">
     <g id="line2d_8">
      <g>
       <use style="stroke:#000000;stroke-width:0.8;" x="157.224279" xlink:href="#me223972a9b" y="222.7"/>
      </g>
     </g>
     <g id="text_8">
      <!-- ura_c -->
      <g transform="translate(159.705529 256.775)rotate(-90)scale(0.1 -0.1)">
       <defs>
        <path d="M 8.5 21.578125 
L 8.5 54.6875 
L 17.484375 54.6875 
L 17.484375 21.921875 
Q 17.484375 14.15625 20.5 10.265625 
Q 23.53125 6.390625 29.59375 6.390625 
Q 36.859375 6.390625 41.078125 11.03125 
Q 45.3125 15.671875 45.3125 23.6875 
L 45.3125 54.6875 
L 54.296875 54.6875 
L 54.296875 0 
L 45.3125 0 
L 45.3125 8.40625 
Q 42.046875 3.421875 37.71875 1 
Q 33.40625 -1.421875 27.6875 -1.421875 
Q 18.265625 -1.421875 13.375 4.4375 
Q 8.5 10.296875 8.5 21.578125 
z
M 31.109375 56 
z
" id="DejaVuSans-117"/>
       </defs>
       <use xlink:href="#DejaVuSans-117"/>
       <use x="63.378906" xlink:href="#DejaVuSans-114"/>
       <use x="104.492188" xlink:href="#DejaVuSans-97"/>
       <use x="165.771484" xlink:href="#DejaVuSans-95"/>
       <use x="215.771484" xlink:href="#DejaVuSans-99"/>
      </g>
     </g>
    </g>
    <g id="xtick_9">
     <g id="line2d_9">
      <g>
       <use style="stroke:#000000;stroke-width:0.8;" x="172.864183" xlink:href="#me223972a9b" y="222.7"/>
      </g>
     </g>
     <g id="text_9">
      <!-- base -->
      <g transform="translate(175.623558 253.539062)rotate(-90)scale(0.1 -0.1)">
       <defs>
        <path d="M 56.203125 29.59375 
L 56.203125 25.203125 
L 14.890625 25.203125 
Q 15.484375 15.921875 20.484375 11.0625 
Q 25.484375 6.203125 34.421875 6.203125 
Q 39.59375 6.203125 44.453125 7.46875 
Q 49.3125 8.734375 54.109375 11.28125 
L 54.109375 2.78125 
Q 49.265625 0.734375 44.1875 -0.34375 
Q 39.109375 -1.421875 33.890625 -1.421875 
Q 20.796875 -1.421875 13.15625 6.1875 
Q 5.515625 13.8125 5.515625 26.8125 
Q 5.515625 40.234375 12.765625 48.109375 
Q 20.015625 56 32.328125 56 
Q 43.359375 56 49.78125 48.890625 
Q 56.203125 41.796875 56.203125 29.59375 
z
M 47.21875 32.234375 
Q 47.125 39.59375 43.09375 43.984375 
Q 39.0625 48.390625 32.421875 48.390625 
Q 24.90625 48.390625 20.390625 44.140625 
Q 15.875 39.890625 15.1875 32.171875 
z
" id="DejaVuSans-101"/>
       </defs>
       <use xlink:href="#DejaVuSans-98"/>
       <use x="63.476562" xlink:href="#DejaVuSans-97"/>
       <use x="124.755859" xlink:href="#DejaVuSans-115"/>
       <use x="176.855469" xlink:href="#DejaVuSans-101"/>
      </g>
     </g>
    </g>
    <g id="xtick_10">
     <g id="line2d_10">
      <g>
       <use style="stroke:#000000;stroke-width:0.8;" x="188.504087" xlink:href="#me223972a9b" y="222.7"/>
      </g>
     </g>
     <g id="text_10">
      <!-- ppi_s -->
      <g transform="translate(191.124399 255.384375)rotate(-90)scale(0.1 -0.1)">
       <use xlink:href="#DejaVuSans-112"/>
       <use x="63.476562" xlink:href="#DejaVuSans-112"/>
       <use x="126.953125" xlink:href="#DejaVuSans-105"/>
       <use x="154.736328" xlink:href="#DejaVuSans-95"/>
       <use x="204.736328" xlink:href="#DejaVuSans-115"/>
      </g>
     </g>
    </g>
    <g id="xtick_11">
     <g id="line2d_11">
      <g>
       <use style="stroke:#000000;stroke-width:0.8;" x="204.14399" xlink:href="#me223972a9b" y="222.7"/>
      </g>
     </g>
     <g id="text_11">
      <!-- tyr__L_s -->
      <g transform="translate(206.62524 269.43125)rotate(-90)scale(0.1 -0.1)">
       <use xlink:href="#DejaVuSans-116"/>
       <use x="39.208984" xlink:href="#DejaVuSans-121"/>
       <use x="98.388672" xlink:href="#DejaVuSans-114"/>
       <use x="139.501953" xlink:href="#DejaVuSans-95"/>
       <use x="189.501953" xlink:href="#DejaVuSans-95"/>
       <use x="239.501953" xlink:href="#DejaVuSans-76"/>
       <use x="295.214844" xlink:href="#DejaVuSans-95"/>
       <use x="345.214844" xlink:href="#DejaVuSans-115"/>
      </g>
     </g>
    </g>
    <g id="xtick_12">
     <g id="line2d_12">
      <g>
       <use style="stroke:#000000;stroke-width:0.8;" x="219.783894" xlink:href="#me223972a9b" y="222.7"/>
      </g>
     </g>
     <g id="text_12">
      <!-- glyc_c -->
      <g transform="translate(222.404207 260.742188)rotate(-90)scale(0.1 -0.1)">
       <defs>
        <path d="M 45.40625 27.984375 
Q 45.40625 37.75 41.375 43.109375 
Q 37.359375 48.484375 30.078125 48.484375 
Q 22.859375 48.484375 18.828125 43.109375 
Q 14.796875 37.75 14.796875 27.984375 
Q 14.796875 18.265625 18.828125 12.890625 
Q 22.859375 7.515625 30.078125 7.515625 
Q 37.359375 7.515625 41.375 12.890625 
Q 45.40625 18.265625 45.40625 27.984375 
z
M 54.390625 6.78125 
Q 54.390625 -7.171875 48.1875 -13.984375 
Q 42 -20.796875 29.203125 -20.796875 
Q 24.46875 -20.796875 20.265625 -20.09375 
Q 16.0625 -19.390625 12.109375 -17.921875 
L 12.109375 -9.1875 
Q 16.0625 -11.328125 19.921875 -12.34375 
Q 23.78125 -13.375 27.78125 -13.375 
Q 36.625 -13.375 41.015625 -8.765625 
Q 45.40625 -4.15625 45.40625 5.171875 
L 45.40625 9.625 
Q 42.625 4.78125 38.28125 2.390625 
Q 33.9375 0 27.875 0 
Q 17.828125 0 11.671875 7.65625 
Q 5.515625 15.328125 5.515625 27.984375 
Q 5.515625 40.671875 11.671875 48.328125 
Q 17.828125 56 27.875 56 
Q 33.9375 56 38.28125 53.609375 
Q 42.625 51.21875 45.40625 46.390625 
L 45.40625 54.6875 
L 54.390625 54.6875 
z
" id="DejaVuSans-103"/>
       </defs>
       <use xlink:href="#DejaVuSans-103"/>
       <use x="63.476562" xlink:href="#DejaVuSans-108"/>
       <use x="91.259766" xlink:href="#DejaVuSans-121"/>
       <use x="150.439453" xlink:href="#DejaVuSans-99"/>
       <use x="205.419922" xlink:href="#DejaVuSans-95"/>
       <use x="255.419922" xlink:href="#DejaVuSans-99"/>
      </g>
     </g>
    </g>
    <g id="xtick_13">
     <g id="line2d_13">
      <g>
       <use style="stroke:#000000;stroke-width:0.8;" x="235.423798" xlink:href="#me223972a9b" y="222.7"/>
      </g>
     </g>
     <g id="text_13">
      <!-- fol_s -->
      <g transform="translate(238.044111 252.326562)rotate(-90)scale(0.1 -0.1)">
       <defs>
        <path d="M 30.609375 48.390625 
Q 23.390625 48.390625 19.1875 42.75 
Q 14.984375 37.109375 14.984375 27.296875 
Q 14.984375 17.484375 19.15625 11.84375 
Q 23.34375 6.203125 30.609375 6.203125 
Q 37.796875 6.203125 41.984375 11.859375 
Q 46.1875 17.53125 46.1875 27.296875 
Q 46.1875 37.015625 41.984375 42.703125 
Q 37.796875 48.390625 30.609375 48.390625 
z
M 30.609375 56 
Q 42.328125 56 49.015625 48.375 
Q 55.71875 40.765625 55.71875 27.296875 
Q 55.71875 13.875 49.015625 6.21875 
Q 42.328125 -1.421875 30.609375 -1.421875 
Q 18.84375 -1.421875 12.171875 6.21875 
Q 5.515625 13.875 5.515625 27.296875 
Q 5.515625 40.765625 12.171875 48.375 
Q 18.84375 56 30.609375 56 
z
" id="DejaVuSans-111"/>
       </defs>
       <use xlink:href="#DejaVuSans-102"/>
       <use x="35.205078" xlink:href="#DejaVuSans-111"/>
       <use x="96.386719" xlink:href="#DejaVuSans-108"/>
       <use x="124.169922" xlink:href="#DejaVuSans-95"/>
       <use x="174.169922" xlink:href="#DejaVuSans-115"/>
      </g>
     </g>
    </g>
    <g id="xtick_14">
     <g id="line2d_14">
      <g>
       <use style="stroke:#000000;stroke-width:0.8;" x="251.063702" xlink:href="#me223972a9b" y="222.7"/>
      </g>
     </g>
     <g id="text_14">
      <!-- cit_s -->
      <g transform="translate(253.684014 252.10625)rotate(-90)scale(0.1 -0.1)">
       <use xlink:href="#DejaVuSans-99"/>
       <use x="54.980469" xlink:href="#DejaVuSans-105"/>
       <use x="82.763672" xlink:href="#DejaVuSans-116"/>
       <use x="121.972656" xlink:href="#DejaVuSans-95"/>
       <use x="171.972656" xlink:href="#DejaVuSans-115"/>
      </g>
     </g>
    </g>
    <g id="xtick_15">
     <g id="line2d_15">
      <g>
       <use style="stroke:#000000;stroke-width:0.8;" x="266.703606" xlink:href="#me223972a9b" y="222.7"/>
      </g>
     </g>
     <g id="text_15">
      <!-- so4_s -->
      <g transform="translate(269.184856 257.6)rotate(-90)scale(0.1 -0.1)">
       <defs>
        <path d="M 37.796875 64.3125 
L 12.890625 25.390625 
L 37.796875 25.390625 
z
M 35.203125 72.90625 
L 47.609375 72.90625 
L 47.609375 25.390625 
L 58.015625 25.390625 
L 58.015625 17.1875 
L 47.609375 17.1875 
L 47.609375 0 
L 37.796875 0 
L 37.796875 17.1875 
L 4.890625 17.1875 
L 4.890625 26.703125 
z
" id="DejaVuSans-52"/>
       </defs>
       <use xlink:href="#DejaVuSans-115"/>
       <use x="52.099609" xlink:href="#DejaVuSans-111"/>
       <use x="113.28125" xlink:href="#DejaVuSans-52"/>
       <use x="176.904297" xlink:href="#DejaVuSans-95"/>
       <use x="226.904297" xlink:href="#DejaVuSans-115"/>
      </g>
     </g>
    </g>
    <g id="xtick_16">
     <g id="line2d_16">
      <g>
       <use style="stroke:#000000;stroke-width:0.8;" x="282.34351" xlink:href="#me223972a9b" y="222.7"/>
      </g>
     </g>
     <g id="text_16">
      <!-- trp__L_s -->
      <g transform="translate(284.82476 269.860937)rotate(-90)scale(0.1 -0.1)">
       <use xlink:href="#DejaVuSans-116"/>
       <use x="39.208984" xlink:href="#DejaVuSans-114"/>
       <use x="80.322266" xlink:href="#DejaVuSans-112"/>
       <use x="143.798828" xlink:href="#DejaVuSans-95"/>
       <use x="193.798828" xlink:href="#DejaVuSans-95"/>
       <use x="243.798828" xlink:href="#DejaVuSans-76"/>
       <use x="299.511719" xlink:href="#DejaVuSans-95"/>
       <use x="349.511719" xlink:href="#DejaVuSans-115"/>
      </g>
     </g>
    </g>
    <g id="xtick_17">
     <g id="line2d_17">
      <g>
       <use style="stroke:#000000;stroke-width:0.8;" x="297.983413" xlink:href="#me223972a9b" y="222.7"/>
      </g>
     </g>
     <g id="text_17">
      <!-- for_c -->
      <g transform="translate(300.603726 253.948437)rotate(-90)scale(0.1 -0.1)">
       <use xlink:href="#DejaVuSans-102"/>
       <use x="35.205078" xlink:href="#DejaVuSans-111"/>
       <use x="96.386719" xlink:href="#DejaVuSans-114"/>
       <use x="137.5" xlink:href="#DejaVuSans-95"/>
       <use x="187.5" xlink:href="#DejaVuSans-99"/>
      </g>
     </g>
    </g>
    <g id="xtick_18">
     <g id="line2d_18">
      <g>
       <use style="stroke:#000000;stroke-width:0.8;" x="313.623317" xlink:href="#me223972a9b" y="222.7"/>
      </g>
     </g>
     <g id="text_18">
      <!-- pro__L_s -->
      <g transform="translate(316.104567 271.834375)rotate(-90)scale(0.1 -0.1)">
       <use xlink:href="#DejaVuSans-112"/>
       <use x="63.476562" xlink:href="#DejaVuSans-114"/>
       <use x="102.339844" xlink:href="#DejaVuSans-111"/>
       <use x="163.521484" xlink:href="#DejaVuSans-95"/>
       <use x="213.521484" xlink:href="#DejaVuSans-95"/>
       <use x="263.521484" xlink:href="#DejaVuSans-76"/>
       <use x="319.234375" xlink:href="#DejaVuSans-95"/>
       <use x="369.234375" xlink:href="#DejaVuSans-115"/>
      </g>
     </g>
    </g>
    <g id="xtick_19">
     <g id="line2d_19">
      <g>
       <use style="stroke:#000000;stroke-width:0.8;" x="329.263221" xlink:href="#me223972a9b" y="222.7"/>
      </g>
     </g>
     <g id="text_19">
      <!-- phe__L_c -->
      <g transform="translate(331.883534 274.609375)rotate(-90)scale(0.1 -0.1)">
       <use xlink:href="#DejaVuSans-112"/>
       <use x="63.476562" xlink:href="#DejaVuSans-104"/>
       <use x="126.855469" xlink:href="#DejaVuSans-101"/>
       <use x="188.378906" xlink:href="#DejaVuSans-95"/>
       <use x="238.378906" xlink:href="#DejaVuSans-95"/>
       <use x="288.378906" xlink:href="#DejaVuSans-76"/>
       <use x="344.091797" xlink:href="#DejaVuSans-95"/>
       <use x="394.091797" xlink:href="#DejaVuSans-99"/>
      </g>
     </g>
    </g>
    <g id="xtick_20">
     <g id="line2d_20">
      <g>
       <use style="stroke:#000000;stroke-width:0.8;" x="344.903125" xlink:href="#me223972a9b" y="222.7"/>
      </g>
     </g>
     <g id="text_20">
      <!-- ump_s -->
      <g transform="translate(347.384375 262.335938)rotate(-90)scale(0.1 -0.1)">
       <use xlink:href="#DejaVuSans-117"/>
       <use x="63.378906" xlink:href="#DejaVuSans-109"/>
       <use x="160.791016" xlink:href="#DejaVuSans-112"/>
       <use x="224.267578" xlink:href="#DejaVuSans-95"/>
       <use x="274.267578" xlink:href="#DejaVuSans-115"/>
      </g>
     </g>
    </g>
    <g id="xtick_21">
     <g id="line2d_21">
      <g>
       <use style="stroke:#000000;stroke-width:0.8;" x="360.543029" xlink:href="#me223972a9b" y="222.7"/>
      </g>
     </g>
     <g id="text_21">
      <!-- gly_s -->
      <g transform="translate(363.163341 254.954687)rotate(-90)scale(0.1 -0.1)">
       <use xlink:href="#DejaVuSans-103"/>
       <use x="63.476562" xlink:href="#DejaVuSans-108"/>
       <use x="91.259766" xlink:href="#DejaVuSans-121"/>
       <use x="150.439453" xlink:href="#DejaVuSans-95"/>
       <use x="200.439453" xlink:href="#DejaVuSans-115"/>
      </g>
     </g>
    </g>
    <g id="xtick_22">
     <g id="line2d_22">
      <g>
       <use style="stroke:#000000;stroke-width:0.8;" x="376.182933" xlink:href="#me223972a9b" y="222.7"/>
      </g>
     </g>
     <g id="text_22">
      <!-- chor_s -->
      <g transform="translate(378.803245 261.975)rotate(-90)scale(0.1 -0.1)">
       <use xlink:href="#DejaVuSans-99"/>
       <use x="54.980469" xlink:href="#DejaVuSans-104"/>
       <use x="118.359375" xlink:href="#DejaVuSans-111"/>
       <use x="179.541016" xlink:href="#DejaVuSans-114"/>
       <use x="220.654297" xlink:href="#DejaVuSans-95"/>
       <use x="270.654297" xlink:href="#DejaVuSans-115"/>
      </g>
     </g>
    </g>
    <g id="xtick_23">
     <g id="line2d_23">
      <g>
       <use style="stroke:#000000;stroke-width:0.8;" x="391.822837" xlink:href="#me223972a9b" y="222.7"/>
      </g>
     </g>
     <g id="text_23">
      <!-- pep_s -->
      <g transform="translate(394.304087 258.759375)rotate(-90)scale(0.1 -0.1)">
       <use xlink:href="#DejaVuSans-112"/>
       <use x="63.476562" xlink:href="#DejaVuSans-101"/>
       <use x="125" xlink:href="#DejaVuSans-112"/>
       <use x="188.476562" xlink:href="#DejaVuSans-95"/>
       <use x="238.476562" xlink:href="#DejaVuSans-115"/>
      </g>
     </g>
    </g>
    <g id="xtick_24">
     <g id="line2d_24">
      <g>
       <use style="stroke:#000000;stroke-width:0.8;" x="407.46274" xlink:href="#me223972a9b" y="222.7"/>
      </g>
     </g>
     <g id="text_24">
      <!-- asn__L_s -->
      <g transform="translate(409.94399 273.15625)rotate(-90)scale(0.1 -0.1)">
       <use xlink:href="#DejaVuSans-97"/>
       <use x="61.279297" xlink:href="#DejaVuSans-115"/>
       <use x="113.378906" xlink:href="#DejaVuSans-110"/>
       <use x="176.757812" xlink:href="#DejaVuSans-95"/>
       <use x="226.757812" xlink:href="#DejaVuSans-95"/>
       <use x="276.757812" xlink:href="#DejaVuSans-76"/>
       <use x="332.470703" xlink:href="#DejaVuSans-95"/>
       <use x="382.470703" xlink:href="#DejaVuSans-115"/>
      </g>
     </g>
    </g>
    <g id="xtick_25">
     <g id="line2d_25">
      <g>
       <use style="stroke:#000000;stroke-width:0.8;" x="423.102644" xlink:href="#me223972a9b" y="222.7"/>
      </g>
     </g>
     <g id="text_25">
      <!-- his__L_s -->
      <g transform="translate(425.722957 269.80625)rotate(-90)scale(0.1 -0.1)">
       <use xlink:href="#DejaVuSans-104"/>
       <use x="63.378906" xlink:href="#DejaVuSans-105"/>
       <use x="91.162109" xlink:href="#DejaVuSans-115"/>
       <use x="143.261719" xlink:href="#DejaVuSans-95"/>
       <use x="193.261719" xlink:href="#DejaVuSans-95"/>
       <use x="243.261719" xlink:href="#DejaVuSans-76"/>
       <use x="298.974609" xlink:href="#DejaVuSans-95"/>
       <use x="348.974609" xlink:href="#DejaVuSans-115"/>
      </g>
     </g>
    </g>
    <g id="xtick_26">
     <g id="line2d_26">
      <g>
       <use style="stroke:#000000;stroke-width:0.8;" x="438.742548" xlink:href="#me223972a9b" y="222.7"/>
      </g>
     </g>
     <g id="text_26">
      <!-- cmp_s -->
      <g transform="translate(441.223798 261.496875)rotate(-90)scale(0.1 -0.1)">
       <use xlink:href="#DejaVuSans-99"/>
       <use x="54.980469" xlink:href="#DejaVuSans-109"/>
       <use x="152.392578" xlink:href="#DejaVuSans-112"/>
       <use x="215.869141" xlink:href="#DejaVuSans-95"/>
       <use x="265.869141" xlink:href="#DejaVuSans-115"/>
      </g>
     </g>
    </g>
    <g id="xtick_27">
     <g id="line2d_27">
      <g>
       <use style="stroke:#000000;stroke-width:0.8;" x="454.382452" xlink:href="#me223972a9b" y="222.7"/>
      </g>
     </g>
     <g id="text_27">
      <!-- amp_s -->
      <g transform="translate(456.863702 262.126562)rotate(-90)scale(0.1 -0.1)">
       <use xlink:href="#DejaVuSans-97"/>
       <use x="61.279297" xlink:href="#DejaVuSans-109"/>
       <use x="158.691406" xlink:href="#DejaVuSans-112"/>
       <use x="222.167969" xlink:href="#DejaVuSans-95"/>
       <use x="272.167969" xlink:href="#DejaVuSans-115"/>
      </g>
     </g>
    </g>
    <g id="xtick_28">
     <g id="line2d_28">
      <g>
       <use style="stroke:#000000;stroke-width:0.8;" x="470.022356" xlink:href="#me223972a9b" y="222.7"/>
      </g>
     </g>
     <g id="text_28">
      <!-- asp__L_s -->
      <g transform="translate(472.503606 273.167188)rotate(-90)scale(0.1 -0.1)">
       <use xlink:href="#DejaVuSans-97"/>
       <use x="61.279297" xlink:href="#DejaVuSans-115"/>
       <use x="113.378906" xlink:href="#DejaVuSans-112"/>
       <use x="176.855469" xlink:href="#DejaVuSans-95"/>
       <use x="226.855469" xlink:href="#DejaVuSans-95"/>
       <use x="276.855469" xlink:href="#DejaVuSans-76"/>
       <use x="332.568359" xlink:href="#DejaVuSans-95"/>
       <use x="382.568359" xlink:href="#DejaVuSans-115"/>
      </g>
     </g>
    </g>
    <g id="xtick_29">
     <g id="line2d_29">
      <g>
       <use style="stroke:#000000;stroke-width:0.8;" x="485.66226" xlink:href="#me223972a9b" y="222.7"/>
      </g>
     </g>
     <g id="text_29">
      <!-- lys__L_s -->
      <g transform="translate(488.282572 269.3875)rotate(-90)scale(0.1 -0.1)">
       <use xlink:href="#DejaVuSans-108"/>
       <use x="27.783203" xlink:href="#DejaVuSans-121"/>
       <use x="86.962891" xlink:href="#DejaVuSans-115"/>
       <use x="139.0625" xlink:href="#DejaVuSans-95"/>
       <use x="189.0625" xlink:href="#DejaVuSans-95"/>
       <use x="239.0625" xlink:href="#DejaVuSans-76"/>
       <use x="294.775391" xlink:href="#DejaVuSans-95"/>
       <use x="344.775391" xlink:href="#DejaVuSans-115"/>
      </g>
     </g>
    </g>
    <g id="xtick_30">
     <g id="line2d_30">
      <g>
       <use style="stroke:#000000;stroke-width:0.8;" x="501.302163" xlink:href="#me223972a9b" y="222.7"/>
      </g>
     </g>
     <g id="text_30">
      <!-- leu__L_s -->
      <g transform="translate(503.922476 270.75)rotate(-90)scale(0.1 -0.1)">
       <use xlink:href="#DejaVuSans-108"/>
       <use x="27.783203" xlink:href="#DejaVuSans-101"/>
       <use x="89.306641" xlink:href="#DejaVuSans-117"/>
       <use x="152.685547" xlink:href="#DejaVuSans-95"/>
       <use x="202.685547" xlink:href="#DejaVuSans-95"/>
       <use x="252.685547" xlink:href="#DejaVuSans-76"/>
       <use x="308.398438" xlink:href="#DejaVuSans-95"/>
       <use x="358.398438" xlink:href="#DejaVuSans-115"/>
      </g>
     </g>
    </g>
    <g id="xtick_31">
     <g id="line2d_31">
      <g>
       <use style="stroke:#000000;stroke-width:0.8;" x="516.942067" xlink:href="#me223972a9b" y="222.7"/>
      </g>
     </g>
     <g id="text_31">
      <!-- 3pg_c -->
      <g transform="translate(519.474099 259.257812)rotate(-90)scale(0.1 -0.1)">
       <defs>
        <path d="M 40.578125 39.3125 
Q 47.65625 37.796875 51.625 33 
Q 55.609375 28.21875 55.609375 21.1875 
Q 55.609375 10.40625 48.1875 4.484375 
Q 40.765625 -1.421875 27.09375 -1.421875 
Q 22.515625 -1.421875 17.65625 -0.515625 
Q 12.796875 0.390625 7.625 2.203125 
L 7.625 11.71875 
Q 11.71875 9.328125 16.59375 8.109375 
Q 21.484375 6.890625 26.8125 6.890625 
Q 36.078125 6.890625 40.9375 10.546875 
Q 45.796875 14.203125 45.796875 21.1875 
Q 45.796875 27.640625 41.28125 31.265625 
Q 36.765625 34.90625 28.71875 34.90625 
L 20.21875 34.90625 
L 20.21875 43.015625 
L 29.109375 43.015625 
Q 36.375 43.015625 40.234375 45.921875 
Q 44.09375 48.828125 44.09375 54.296875 
Q 44.09375 59.90625 40.109375 62.90625 
Q 36.140625 65.921875 28.71875 65.921875 
Q 24.65625 65.921875 20.015625 65.03125 
Q 15.375 64.15625 9.8125 62.3125 
L 9.8125 71.09375 
Q 15.4375 72.65625 20.34375 73.4375 
Q 25.25 74.21875 29.59375 74.21875 
Q 40.828125 74.21875 47.359375 69.109375 
Q 53.90625 64.015625 53.90625 55.328125 
Q 53.90625 49.265625 50.4375 45.09375 
Q 46.96875 40.921875 40.578125 39.3125 
z
" id="DejaVuSans-51"/>
       </defs>
       <use xlink:href="#DejaVuSans-51"/>
       <use x="63.623047" xlink:href="#DejaVuSans-112"/>
       <use x="127.099609" xlink:href="#DejaVuSans-103"/>
       <use x="190.576172" xlink:href="#DejaVuSans-95"/>
       <use x="240.576172" xlink:href="#DejaVuSans-99"/>
      </g>
     </g>
    </g>
    <g id="xtick_32">
     <g id="line2d_32">
      <g>
       <use style="stroke:#000000;stroke-width:0.8;" x="532.581971" xlink:href="#me223972a9b" y="222.7"/>
      </g>
     </g>
     <g id="text_32">
      <!-- ade_s -->
      <g transform="translate(535.202284 258.539062)rotate(-90)scale(0.1 -0.1)">
       <defs>
        <path d="M 45.40625 46.390625 
L 45.40625 75.984375 
L 54.390625 75.984375 
L 54.390625 0 
L 45.40625 0 
L 45.40625 8.203125 
Q 42.578125 3.328125 38.25 0.953125 
Q 33.9375 -1.421875 27.875 -1.421875 
Q 17.96875 -1.421875 11.734375 6.484375 
Q 5.515625 14.40625 5.515625 27.296875 
Q 5.515625 40.1875 11.734375 48.09375 
Q 17.96875 56 27.875 56 
Q 33.9375 56 38.25 53.625 
Q 42.578125 51.265625 45.40625 46.390625 
z
M 14.796875 27.296875 
Q 14.796875 17.390625 18.875 11.75 
Q 22.953125 6.109375 30.078125 6.109375 
Q 37.203125 6.109375 41.296875 11.75 
Q 45.40625 17.390625 45.40625 27.296875 
Q 45.40625 37.203125 41.296875 42.84375 
Q 37.203125 48.484375 30.078125 48.484375 
Q 22.953125 48.484375 18.875 42.84375 
Q 14.796875 37.203125 14.796875 27.296875 
z
" id="DejaVuSans-100"/>
       </defs>
       <use xlink:href="#DejaVuSans-97"/>
       <use x="61.279297" xlink:href="#DejaVuSans-100"/>
       <use x="124.755859" xlink:href="#DejaVuSans-101"/>
       <use x="186.279297" xlink:href="#DejaVuSans-95"/>
       <use x="236.279297" xlink:href="#DejaVuSans-115"/>
      </g>
     </g>
    </g>
    <g id="xtick_33">
     <g id="line2d_33">
      <g>
       <use style="stroke:#000000;stroke-width:0.8;" x="548.221875" xlink:href="#me223972a9b" y="222.7"/>
      </g>
     </g>
     <g id="text_33">
      <!-- gam6p_s -->
      <g transform="translate(550.753906 274.8375)rotate(-90)scale(0.1 -0.1)">
       <defs>
        <path d="M 33.015625 40.375 
Q 26.375 40.375 22.484375 35.828125 
Q 18.609375 31.296875 18.609375 23.390625 
Q 18.609375 15.53125 22.484375 10.953125 
Q 26.375 6.390625 33.015625 6.390625 
Q 39.65625 6.390625 43.53125 10.953125 
Q 47.40625 15.53125 47.40625 23.390625 
Q 47.40625 31.296875 43.53125 35.828125 
Q 39.65625 40.375 33.015625 40.375 
z
M 52.59375 71.296875 
L 52.59375 62.3125 
Q 48.875 64.0625 45.09375 64.984375 
Q 41.3125 65.921875 37.59375 65.921875 
Q 27.828125 65.921875 22.671875 59.328125 
Q 17.53125 52.734375 16.796875 39.40625 
Q 19.671875 43.65625 24.015625 45.921875 
Q 28.375 48.1875 33.59375 48.1875 
Q 44.578125 48.1875 50.953125 41.515625 
Q 57.328125 34.859375 57.328125 23.390625 
Q 57.328125 12.15625 50.6875 5.359375 
Q 44.046875 -1.421875 33.015625 -1.421875 
Q 20.359375 -1.421875 13.671875 8.265625 
Q 6.984375 17.96875 6.984375 36.375 
Q 6.984375 53.65625 15.1875 63.9375 
Q 23.390625 74.21875 37.203125 74.21875 
Q 40.921875 74.21875 44.703125 73.484375 
Q 48.484375 72.75 52.59375 71.296875 
z
" id="DejaVuSans-54"/>
       </defs>
       <use xlink:href="#DejaVuSans-103"/>
       <use x="63.476562" xlink:href="#DejaVuSans-97"/>
       <use x="124.755859" xlink:href="#DejaVuSans-109"/>
       <use x="222.167969" xlink:href="#DejaVuSans-54"/>
       <use x="285.791016" xlink:href="#DejaVuSans-112"/>
       <use x="349.267578" xlink:href="#DejaVuSans-95"/>
       <use x="399.267578" xlink:href="#DejaVuSans-115"/>
      </g>
     </g>
    </g>
    <g id="xtick_34">
     <g id="line2d_34">
      <g>
       <use style="stroke:#000000;stroke-width:0.8;" x="563.861779" xlink:href="#me223972a9b" y="222.7"/>
      </g>
     </g>
     <g id="text_34">
      <!-- thr__L_s -->
      <g transform="translate(566.482091 269.85)rotate(-90)scale(0.1 -0.1)">
       <use xlink:href="#DejaVuSans-116"/>
       <use x="39.208984" xlink:href="#DejaVuSans-104"/>
       <use x="102.587891" xlink:href="#DejaVuSans-114"/>
       <use x="143.701172" xlink:href="#DejaVuSans-95"/>
       <use x="193.701172" xlink:href="#DejaVuSans-95"/>
       <use x="243.701172" xlink:href="#DejaVuSans-76"/>
       <use x="299.414062" xlink:href="#DejaVuSans-95"/>
       <use x="349.414062" xlink:href="#DejaVuSans-115"/>
      </g>
     </g>
    </g>
    <g id="xtick_35">
     <g id="line2d_35">
      <g>
       <use style="stroke:#000000;stroke-width:0.8;" x="579.501683" xlink:href="#me223972a9b" y="222.7"/>
      </g>
     </g>
     <g id="text_35">
      <!-- pser__L_s -->
      <g transform="translate(581.982933 277.303125)rotate(-90)scale(0.1 -0.1)">
       <use xlink:href="#DejaVuSans-112"/>
       <use x="63.476562" xlink:href="#DejaVuSans-115"/>
       <use x="115.576172" xlink:href="#DejaVuSans-101"/>
       <use x="177.099609" xlink:href="#DejaVuSans-114"/>
       <use x="218.212891" xlink:href="#DejaVuSans-95"/>
       <use x="268.212891" xlink:href="#DejaVuSans-95"/>
       <use x="318.212891" xlink:href="#DejaVuSans-76"/>
       <use x="373.925781" xlink:href="#DejaVuSans-95"/>
       <use x="423.925781" xlink:href="#DejaVuSans-115"/>
      </g>
     </g>
    </g>
    <g id="xtick_36">
     <g id="line2d_36">
      <g>
       <use style="stroke:#000000;stroke-width:0.8;" x="595.141587" xlink:href="#me223972a9b" y="222.7"/>
      </g>
     </g>
     <g id="text_36">
      <!-- 3amp_s -->
      <g transform="translate(597.673618 268.489062)rotate(-90)scale(0.1 -0.1)">
       <use xlink:href="#DejaVuSans-51"/>
       <use x="63.623047" xlink:href="#DejaVuSans-97"/>
       <use x="124.902344" xlink:href="#DejaVuSans-109"/>
       <use x="222.314453" xlink:href="#DejaVuSans-112"/>
       <use x="285.791016" xlink:href="#DejaVuSans-95"/>
       <use x="335.791016" xlink:href="#DejaVuSans-115"/>
      </g>
     </g>
    </g>
    <g id="xtick_37">
     <g id="line2d_37">
      <g>
       <use style="stroke:#000000;stroke-width:0.8;" x="610.78149" xlink:href="#me223972a9b" y="222.7"/>
      </g>
     </g>
     <g id="text_37">
      <!-- 6pgc_s -->
      <g transform="translate(613.313522 264.467187)rotate(-90)scale(0.1 -0.1)">
       <use xlink:href="#DejaVuSans-54"/>
       <use x="63.623047" xlink:href="#DejaVuSans-112"/>
       <use x="127.099609" xlink:href="#DejaVuSans-103"/>
       <use x="190.576172" xlink:href="#DejaVuSans-99"/>
       <use x="245.556641" xlink:href="#DejaVuSans-95"/>
       <use x="295.556641" xlink:href="#DejaVuSans-115"/>
      </g>
     </g>
    </g>
    <g id="xtick_38">
     <g id="line2d_38">
      <g>
       <use style="stroke:#000000;stroke-width:0.8;" x="626.421394" xlink:href="#me223972a9b" y="222.7"/>
      </g>
     </g>
     <g id="text_38">
      <!-- adn_c -->
      <g transform="translate(629.041707 259.0125)rotate(-90)scale(0.1 -0.1)">
       <use xlink:href="#DejaVuSans-97"/>
       <use x="61.279297" xlink:href="#DejaVuSans-100"/>
       <use x="124.755859" xlink:href="#DejaVuSans-110"/>
       <use x="188.134766" xlink:href="#DejaVuSans-95"/>
       <use x="238.134766" xlink:href="#DejaVuSans-99"/>
      </g>
     </g>
    </g>
    <g id="xtick_39">
     <g id="line2d_39">
      <g>
       <use style="stroke:#000000;stroke-width:0.8;" x="642.061298" xlink:href="#me223972a9b" y="222.7"/>
      </g>
     </g>
     <g id="text_39">
      <!-- gsn_c -->
      <g transform="translate(644.542548 258.09375)rotate(-90)scale(0.1 -0.1)">
       <use xlink:href="#DejaVuSans-103"/>
       <use x="63.476562" xlink:href="#DejaVuSans-115"/>
       <use x="115.576172" xlink:href="#DejaVuSans-110"/>
       <use x="178.955078" xlink:href="#DejaVuSans-95"/>
       <use x="228.955078" xlink:href="#DejaVuSans-99"/>
      </g>
     </g>
    </g>
    <g id="xtick_40">
     <g id="line2d_40">
      <g>
       <use style="stroke:#000000;stroke-width:0.8;" x="657.701202" xlink:href="#me223972a9b" y="222.7"/>
      </g>
     </g>
     <g id="text_40">
      <!-- succ_c -->
      <g transform="translate(660.182452 262.742188)rotate(-90)scale(0.1 -0.1)">
       <use xlink:href="#DejaVuSans-115"/>
       <use x="52.099609" xlink:href="#DejaVuSans-117"/>
       <use x="115.478516" xlink:href="#DejaVuSans-99"/>
       <use x="170.458984" xlink:href="#DejaVuSans-99"/>
       <use x="225.439453" xlink:href="#DejaVuSans-95"/>
       <use x="275.439453" xlink:href="#DejaVuSans-99"/>
      </g>
     </g>
    </g>
    <g id="xtick_41">
     <g id="line2d_41">
      <g>
       <use style="stroke:#000000;stroke-width:0.8;" x="673.341106" xlink:href="#me223972a9b" y="222.7"/>
      </g>
     </g>
     <g id="text_41">
      <!-- arg__L_s -->
      <g transform="translate(675.822356 271.89375)rotate(-90)scale(0.1 -0.1)">
       <use xlink:href="#DejaVuSans-97"/>
       <use x="61.279297" xlink:href="#DejaVuSans-114"/>
       <use x="100.642578" xlink:href="#DejaVuSans-103"/>
       <use x="164.119141" xlink:href="#DejaVuSans-95"/>
       <use x="214.119141" xlink:href="#DejaVuSans-95"/>
       <use x="264.119141" xlink:href="#DejaVuSans-76"/>
       <use x="319.832031" xlink:href="#DejaVuSans-95"/>
       <use x="369.832031" xlink:href="#DejaVuSans-115"/>
      </g>
     </g>
    </g>
    <g id="xtick_42">
     <g id="line2d_42">
      <g>
       <use style="stroke:#000000;stroke-width:0.8;" x="688.98101" xlink:href="#me223972a9b" y="222.7"/>
      </g>
     </g>
     <g id="text_42">
      <!-- k_s -->
      <g transform="translate(691.601322 245.7)rotate(-90)scale(0.1 -0.1)">
       <defs>
        <path d="M 9.078125 75.984375 
L 18.109375 75.984375 
L 18.109375 31.109375 
L 44.921875 54.6875 
L 56.390625 54.6875 
L 27.390625 29.109375 
L 57.625 0 
L 45.90625 0 
L 18.109375 26.703125 
L 18.109375 0 
L 9.078125 0 
z
" id="DejaVuSans-107"/>
       </defs>
       <use xlink:href="#DejaVuSans-107"/>
       <use x="57.910156" xlink:href="#DejaVuSans-95"/>
       <use x="107.910156" xlink:href="#DejaVuSans-115"/>
      </g>
     </g>
    </g>
    <g id="xtick_43">
     <g id="line2d_43">
      <g>
       <use style="stroke:#000000;stroke-width:0.8;" x="704.620913" xlink:href="#me223972a9b" y="222.7"/>
      </g>
     </g>
     <g id="text_43">
      <!-- met__L_s -->
      <g transform="translate(707.102163 275.295313)rotate(-90)scale(0.1 -0.1)">
       <use xlink:href="#DejaVuSans-109"/>
       <use x="97.412109" xlink:href="#DejaVuSans-101"/>
       <use x="158.935547" xlink:href="#DejaVuSans-116"/>
       <use x="198.144531" xlink:href="#DejaVuSans-95"/>
       <use x="248.144531" xlink:href="#DejaVuSans-95"/>
       <use x="298.144531" xlink:href="#DejaVuSans-76"/>
       <use x="353.857422" xlink:href="#DejaVuSans-95"/>
       <use x="403.857422" xlink:href="#DejaVuSans-115"/>
      </g>
     </g>
    </g>
    <g id="xtick_44">
     <g id="line2d_44">
      <g>
       <use style="stroke:#000000;stroke-width:0.8;" x="720.260817" xlink:href="#me223972a9b" y="222.7"/>
      </g>
     </g>
     <g id="text_44">
      <!-- gmp_s -->
      <g transform="translate(722.742067 262.346875)rotate(-90)scale(0.1 -0.1)">
       <use xlink:href="#DejaVuSans-103"/>
       <use x="63.476562" xlink:href="#DejaVuSans-109"/>
       <use x="160.888672" xlink:href="#DejaVuSans-112"/>
       <use x="224.365234" xlink:href="#DejaVuSans-95"/>
       <use x="274.365234" xlink:href="#DejaVuSans-115"/>
      </g>
     </g>
    </g>
    <g id="xtick_45">
     <g id="line2d_45">
      <g>
       <use style="stroke:#000000;stroke-width:0.8;" x="735.900721" xlink:href="#me223972a9b" y="222.7"/>
      </g>
     </g>
     <g id="text_45">
      <!-- pyr_s -->
      <g transform="translate(738.381971 256.2875)rotate(-90)scale(0.1 -0.1)">
       <use xlink:href="#DejaVuSans-112"/>
       <use x="63.476562" xlink:href="#DejaVuSans-121"/>
       <use x="122.65625" xlink:href="#DejaVuSans-114"/>
       <use x="163.769531" xlink:href="#DejaVuSans-95"/>
       <use x="213.769531" xlink:href="#DejaVuSans-115"/>
      </g>
     </g>
    </g>
    <g id="xtick_46">
     <g id="line2d_46">
      <g>
       <use style="stroke:#000000;stroke-width:0.8;" x="751.540625" xlink:href="#me223972a9b" y="222.7"/>
      </g>
     </g>
     <g id="text_46">
      <!-- mg2_s -->
      <g transform="translate(754.072656 262.360937)rotate(-90)scale(0.1 -0.1)">
       <defs>
        <path d="M 19.1875 8.296875 
L 53.609375 8.296875 
L 53.609375 0 
L 7.328125 0 
L 7.328125 8.296875 
Q 12.9375 14.109375 22.625 23.890625 
Q 32.328125 33.6875 34.8125 36.53125 
Q 39.546875 41.84375 41.421875 45.53125 
Q 43.3125 49.21875 43.3125 52.78125 
Q 43.3125 58.59375 39.234375 62.25 
Q 35.15625 65.921875 28.609375 65.921875 
Q 23.96875 65.921875 18.8125 64.3125 
Q 13.671875 62.703125 7.8125 59.421875 
L 7.8125 69.390625 
Q 13.765625 71.78125 18.9375 73 
Q 24.125 74.21875 28.421875 74.21875 
Q 39.75 74.21875 46.484375 68.546875 
Q 53.21875 62.890625 53.21875 53.421875 
Q 53.21875 48.921875 51.53125 44.890625 
Q 49.859375 40.875 45.40625 35.40625 
Q 44.1875 33.984375 37.640625 27.21875 
Q 31.109375 20.453125 19.1875 8.296875 
z
" id="DejaVuSans-50"/>
       </defs>
       <use xlink:href="#DejaVuSans-109"/>
       <use x="97.412109" xlink:href="#DejaVuSans-103"/>
       <use x="160.888672" xlink:href="#DejaVuSans-50"/>
       <use x="224.511719" xlink:href="#DejaVuSans-95"/>
       <use x="274.511719" xlink:href="#DejaVuSans-115"/>
      </g>
     </g>
    </g>
    <g id="xtick_47">
     <g id="line2d_47">
      <g>
       <use style="stroke:#000000;stroke-width:0.8;" x="767.180529" xlink:href="#me223972a9b" y="222.7"/>
      </g>
     </g>
     <g id="text_47">
      <!-- zn2_s -->
      <g transform="translate(769.71256 257.857812)rotate(-90)scale(0.1 -0.1)">
       <defs>
        <path d="M 5.515625 54.6875 
L 48.1875 54.6875 
L 48.1875 46.484375 
L 14.40625 7.171875 
L 48.1875 7.171875 
L 48.1875 0 
L 4.296875 0 
L 4.296875 8.203125 
L 38.09375 47.515625 
L 5.515625 47.515625 
z
" id="DejaVuSans-122"/>
       </defs>
       <use xlink:href="#DejaVuSans-122"/>
       <use x="52.490234" xlink:href="#DejaVuSans-110"/>
       <use x="115.869141" xlink:href="#DejaVuSans-50"/>
       <use x="179.492188" xlink:href="#DejaVuSans-95"/>
       <use x="229.492188" xlink:href="#DejaVuSans-115"/>
      </g>
     </g>
    </g>
    <g id="xtick_48">
     <g id="line2d_48">
      <g>
       <use style="stroke:#000000;stroke-width:0.8;" x="782.820433" xlink:href="#me223972a9b" y="222.7"/>
      </g>
     </g>
     <g id="text_48">
      <!-- acac_s -->
      <g transform="translate(785.301683 263.1625)rotate(-90)scale(0.1 -0.1)">
       <use xlink:href="#DejaVuSans-97"/>
       <use x="61.279297" xlink:href="#DejaVuSans-99"/>
       <use x="116.259766" xlink:href="#DejaVuSans-97"/>
       <use x="177.539062" xlink:href="#DejaVuSans-99"/>
       <use x="232.519531" xlink:href="#DejaVuSans-95"/>
       <use x="282.519531" xlink:href="#DejaVuSans-115"/>
      </g>
     </g>
    </g>
    <g id="xtick_49">
     <g id="line2d_49">
      <g>
       <use style="stroke:#000000;stroke-width:0.8;" x="798.460337" xlink:href="#me223972a9b" y="222.7"/>
      </g>
     </g>
     <g id="text_49">
      <!-- lac__L_c -->
      <g transform="translate(801.080649 270.175)rotate(-90)scale(0.1 -0.1)">
       <use xlink:href="#DejaVuSans-108"/>
       <use x="27.783203" xlink:href="#DejaVuSans-97"/>
       <use x="89.0625" xlink:href="#DejaVuSans-99"/>
       <use x="144.042969" xlink:href="#DejaVuSans-95"/>
       <use x="194.042969" xlink:href="#DejaVuSans-95"/>
       <use x="244.042969" xlink:href="#DejaVuSans-76"/>
       <use x="299.755859" xlink:href="#DejaVuSans-95"/>
       <use x="349.755859" xlink:href="#DejaVuSans-99"/>
      </g>
     </g>
    </g>
    <g id="xtick_50">
     <g id="line2d_50">
      <g>
       <use style="stroke:#000000;stroke-width:0.8;" x="814.10024" xlink:href="#me223972a9b" y="222.7"/>
      </g>
     </g>
     <g id="text_50">
      <!-- mn2_s -->
      <g transform="translate(816.632272 262.35)rotate(-90)scale(0.1 -0.1)">
       <use xlink:href="#DejaVuSans-109"/>
       <use x="97.412109" xlink:href="#DejaVuSans-110"/>
       <use x="160.791016" xlink:href="#DejaVuSans-50"/>
       <use x="224.414062" xlink:href="#DejaVuSans-95"/>
       <use x="274.414062" xlink:href="#DejaVuSans-115"/>
      </g>
     </g>
    </g>
    <g id="xtick_51">
     <g id="line2d_51">
      <g>
       <use style="stroke:#000000;stroke-width:0.8;" x="829.740144" xlink:href="#me223972a9b" y="222.7"/>
      </g>
     </g>
     <g id="text_51">
      <!-- ac_c -->
      <g transform="translate(832.221394 251.825)rotate(-90)scale(0.1 -0.1)">
       <use xlink:href="#DejaVuSans-97"/>
       <use x="61.279297" xlink:href="#DejaVuSans-99"/>
       <use x="116.259766" xlink:href="#DejaVuSans-95"/>
       <use x="166.259766" xlink:href="#DejaVuSans-99"/>
      </g>
     </g>
    </g>
    <g id="xtick_52">
     <g id="line2d_52">
      <g>
       <use style="stroke:#000000;stroke-width:0.8;" x="845.380048" xlink:href="#me223972a9b" y="222.7"/>
      </g>
     </g>
     <g id="text_52">
      <!-- akg_s -->
      <g transform="translate(848.000361 258.176562)rotate(-90)scale(0.1 -0.1)">
       <use xlink:href="#DejaVuSans-97"/>
       <use x="61.279297" xlink:href="#DejaVuSans-107"/>
       <use x="119.189453" xlink:href="#DejaVuSans-103"/>
       <use x="182.666016" xlink:href="#DejaVuSans-95"/>
       <use x="232.666016" xlink:href="#DejaVuSans-115"/>
      </g>
     </g>
    </g>
   </g>
   <g id="matplotlib.axis_2">
    <g id="ytick_1">
     <g id="line2d_53">
      <defs>
       <path d="M 0 0 
L -3.5 0 
" id="mc09bb8282d" style="stroke:#000000;stroke-width:0.8;"/>
      </defs>
      <g>
       <use style="stroke:#000000;stroke-width:0.8;" x="39.925" xlink:href="#mc09bb8282d" y="222.7"/>
      </g>
     </g>
     <g id="text_53">
      <!-- 0.00 -->
      <g transform="translate(10.659375 226.499219)scale(0.1 -0.1)">
       <defs>
        <path d="M 31.78125 66.40625 
Q 24.171875 66.40625 20.328125 58.90625 
Q 16.5 51.421875 16.5 36.375 
Q 16.5 21.390625 20.328125 13.890625 
Q 24.171875 6.390625 31.78125 6.390625 
Q 39.453125 6.390625 43.28125 13.890625 
Q 47.125 21.390625 47.125 36.375 
Q 47.125 51.421875 43.28125 58.90625 
Q 39.453125 66.40625 31.78125 66.40625 
z
M 31.78125 74.21875 
Q 44.046875 74.21875 50.515625 64.515625 
Q 56.984375 54.828125 56.984375 36.375 
Q 56.984375 17.96875 50.515625 8.265625 
Q 44.046875 -1.421875 31.78125 -1.421875 
Q 19.53125 -1.421875 13.0625 8.265625 
Q 6.59375 17.96875 6.59375 36.375 
Q 6.59375 54.828125 13.0625 64.515625 
Q 19.53125 74.21875 31.78125 74.21875 
z
" id="DejaVuSans-48"/>
        <path d="M 10.6875 12.40625 
L 21 12.40625 
L 21 0 
L 10.6875 0 
z
" id="DejaVuSans-46"/>
       </defs>
       <use xlink:href="#DejaVuSans-48"/>
       <use x="63.623047" xlink:href="#DejaVuSans-46"/>
       <use x="95.410156" xlink:href="#DejaVuSans-48"/>
       <use x="159.033203" xlink:href="#DejaVuSans-48"/>
      </g>
     </g>
    </g>
    <g id="ytick_2">
     <g id="line2d_54">
      <g>
       <use style="stroke:#000000;stroke-width:0.8;" x="39.925" xlink:href="#mc09bb8282d" y="188.034477"/>
      </g>
     </g>
     <g id="text_54">
      <!-- 0.01 -->
      <g transform="translate(10.659375 191.833695)scale(0.1 -0.1)">
       <defs>
        <path d="M 12.40625 8.296875 
L 28.515625 8.296875 
L 28.515625 63.921875 
L 10.984375 60.40625 
L 10.984375 69.390625 
L 28.421875 72.90625 
L 38.28125 72.90625 
L 38.28125 8.296875 
L 54.390625 8.296875 
L 54.390625 0 
L 12.40625 0 
z
" id="DejaVuSans-49"/>
       </defs>
       <use xlink:href="#DejaVuSans-48"/>
       <use x="63.623047" xlink:href="#DejaVuSans-46"/>
       <use x="95.410156" xlink:href="#DejaVuSans-48"/>
       <use x="159.033203" xlink:href="#DejaVuSans-49"/>
      </g>
     </g>
    </g>
    <g id="ytick_3">
     <g id="line2d_55">
      <g>
       <use style="stroke:#000000;stroke-width:0.8;" x="39.925" xlink:href="#mc09bb8282d" y="153.368953"/>
      </g>
     </g>
     <g id="text_55">
      <!-- 0.02 -->
      <g transform="translate(10.659375 157.168172)scale(0.1 -0.1)">
       <use xlink:href="#DejaVuSans-48"/>
       <use x="63.623047" xlink:href="#DejaVuSans-46"/>
       <use x="95.410156" xlink:href="#DejaVuSans-48"/>
       <use x="159.033203" xlink:href="#DejaVuSans-50"/>
      </g>
     </g>
    </g>
    <g id="ytick_4">
     <g id="line2d_56">
      <g>
       <use style="stroke:#000000;stroke-width:0.8;" x="39.925" xlink:href="#mc09bb8282d" y="118.70343"/>
      </g>
     </g>
     <g id="text_56">
      <!-- 0.03 -->
      <g transform="translate(10.659375 122.502649)scale(0.1 -0.1)">
       <use xlink:href="#DejaVuSans-48"/>
       <use x="63.623047" xlink:href="#DejaVuSans-46"/>
       <use x="95.410156" xlink:href="#DejaVuSans-48"/>
       <use x="159.033203" xlink:href="#DejaVuSans-51"/>
      </g>
     </g>
    </g>
    <g id="ytick_5">
     <g id="line2d_57">
      <g>
       <use style="stroke:#000000;stroke-width:0.8;" x="39.925" xlink:href="#mc09bb8282d" y="84.037906"/>
      </g>
     </g>
     <g id="text_57">
      <!-- 0.04 -->
      <g transform="translate(10.659375 87.837125)scale(0.1 -0.1)">
       <use xlink:href="#DejaVuSans-48"/>
       <use x="63.623047" xlink:href="#DejaVuSans-46"/>
       <use x="95.410156" xlink:href="#DejaVuSans-48"/>
       <use x="159.033203" xlink:href="#DejaVuSans-52"/>
      </g>
     </g>
    </g>
    <g id="ytick_6">
     <g id="line2d_58">
      <g>
       <use style="stroke:#000000;stroke-width:0.8;" x="39.925" xlink:href="#mc09bb8282d" y="49.372383"/>
      </g>
     </g>
     <g id="text_58">
      <!-- 0.05 -->
      <g transform="translate(10.659375 53.171602)scale(0.1 -0.1)">
       <defs>
        <path d="M 10.796875 72.90625 
L 49.515625 72.90625 
L 49.515625 64.59375 
L 19.828125 64.59375 
L 19.828125 46.734375 
Q 21.96875 47.46875 24.109375 47.828125 
Q 26.265625 48.1875 28.421875 48.1875 
Q 40.625 48.1875 47.75 41.5 
Q 54.890625 34.8125 54.890625 23.390625 
Q 54.890625 11.625 47.5625 5.09375 
Q 40.234375 -1.421875 26.90625 -1.421875 
Q 22.3125 -1.421875 17.546875 -0.640625 
Q 12.796875 0.140625 7.71875 1.703125 
L 7.71875 11.625 
Q 12.109375 9.234375 16.796875 8.0625 
Q 21.484375 6.890625 26.703125 6.890625 
Q 35.15625 6.890625 40.078125 11.328125 
Q 45.015625 15.765625 45.015625 23.390625 
Q 45.015625 31 40.078125 35.4375 
Q 35.15625 39.890625 26.703125 39.890625 
Q 22.75 39.890625 18.8125 39.015625 
Q 14.890625 38.140625 10.796875 36.28125 
z
" id="DejaVuSans-53"/>
       </defs>
       <use xlink:href="#DejaVuSans-48"/>
       <use x="63.623047" xlink:href="#DejaVuSans-46"/>
       <use x="95.410156" xlink:href="#DejaVuSans-48"/>
       <use x="159.033203" xlink:href="#DejaVuSans-53"/>
      </g>
     </g>
    </g>
    <g id="ytick_7">
     <g id="line2d_59">
      <g>
       <use style="stroke:#000000;stroke-width:0.8;" x="39.925" xlink:href="#mc09bb8282d" y="14.70686"/>
      </g>
     </g>
     <g id="text_59">
      <!-- 0.06 -->
      <g transform="translate(10.659375 18.506078)scale(0.1 -0.1)">
       <use xlink:href="#DejaVuSans-48"/>
       <use x="63.623047" xlink:href="#DejaVuSans-46"/>
       <use x="95.410156" xlink:href="#DejaVuSans-48"/>
       <use x="159.033203" xlink:href="#DejaVuSans-54"/>
      </g>
     </g>
    </g>
   </g>
   <g id="patch_55">
    <path d="M 39.925 222.7 
L 39.925 11.611289 
" style="fill:none;stroke:#000000;stroke-linecap:square;stroke-linejoin:miter;stroke-width:0.8;"/>
   </g>
   <g id="patch_56">
    <path d="M 853.2 222.7 
L 853.2 11.611289 
" style="fill:none;stroke:#000000;stroke-linecap:square;stroke-linejoin:miter;stroke-width:0.8;"/>
   </g>
   <g id="patch_57">
    <path d="M 39.925 222.7 
L 853.2 222.7 
" style="fill:none;stroke:#000000;stroke-linecap:square;stroke-linejoin:miter;stroke-width:0.8;"/>
   </g>
   <g id="patch_58">
    <path d="M 39.925 11.611289 
L 853.2 11.611289 
" style="fill:none;stroke:#000000;stroke-linecap:square;stroke-linejoin:miter;stroke-width:0.8;"/>
   </g>
  </g>
 </g>
 <defs>
  <clipPath id="p9e1091299d">
   <rect height="211.088711" width="813.275" x="39.925" y="11.611289"/>
  </clipPath>
 </defs>
</svg>
