<?xml version="1.0" encoding="utf-8" standalone="no"?>
<!DOCTYPE svg PUBLIC "-//W3C//DTD SVG 1.1//EN"
  "http://www.w3.org/Graphics/SVG/1.1/DTD/svg11.dtd">
<!-- Created with matplotlib (https://matplotlib.org/) -->
<svg height="576pt" version="1.1" viewBox="0 0 936 576" width="936pt" xmlns="http://www.w3.org/2000/svg" xmlns:xlink="http://www.w3.org/1999/xlink">
 <metadata>
  <rdf:RDF xmlns:cc="http://creativecommons.org/ns#" xmlns:dc="http://purl.org/dc/elements/1.1/" xmlns:rdf="http://www.w3.org/1999/02/22-rdf-syntax-ns#">
   <cc:Work>
    <dc:type rdf:resource="http://purl.org/dc/dcmitype/StillImage"/>
    <dc:date>2021-08-02T13:00:16.663839</dc:date>
    <dc:format>image/svg+xml</dc:format>
    <dc:creator>
     <cc:Agent>
      <dc:title>Matplotlib v3.3.4, https://matplotlib.org/</dc:title>
     </cc:Agent>
    </dc:creator>
   </cc:Work>
  </rdf:RDF>
 </metadata>
 <defs>
  <style type="text/css">*{stroke-linecap:butt;stroke-linejoin:round;}</style>
 </defs>
 <g id="figure_1">
  <g id="patch_1">
   <path d="M 0 576 
L 936 576 
L 936 0 
L 0 0 
z
" style="fill:#ffffff;"/>
  </g>
  <g id="axes_1">
   <g id="LineCollection_1">
    <path clip-path="url(#pa4be09063e)" d="M 599.526691 225.639162 
L 331.673637 175.128767 
" style="fill:none;stroke:#000000;stroke-opacity:0.8;"/>
    <path clip-path="url(#pa4be09063e)" d="M 599.526691 225.639162 
L 363.403036 118.515137 
" style="fill:none;stroke:#000000;stroke-opacity:0.8;"/>
    <path clip-path="url(#pa4be09063e)" d="M 599.526691 225.639162 
L 723.213899 407.267532 
" style="fill:none;stroke:#000000;stroke-opacity:0.8;"/>
    <path clip-path="url(#pa4be09063e)" d="M 599.526691 225.639162 
L 623.4778 416.8455 
" style="fill:none;stroke:#000000;stroke-opacity:0.8;"/>
    <path clip-path="url(#pa4be09063e)" d="M 599.526691 225.639162 
L 475.045982 47.444061 
" style="fill:none;stroke:#000000;stroke-opacity:0.8;"/>
    <path clip-path="url(#pa4be09063e)" d="M 599.526691 225.639162 
L 541.972023 26.181818 
" style="fill:none;stroke:#000000;stroke-opacity:0.8;"/>
    <path clip-path="url(#pa4be09063e)" d="M 599.526691 225.639162 
L 674.853543 45.824466 
" style="fill:none;stroke:#000000;stroke-opacity:0.8;"/>
    <path clip-path="url(#pa4be09063e)" d="M 599.526691 225.639162 
L 607.918858 35.313567 
" style="fill:none;stroke:#000000;stroke-opacity:0.8;"/>
    <path clip-path="url(#pa4be09063e)" d="M 599.526691 225.639162 
L 601.860623 105.723588 
" style="fill:none;stroke:#000000;stroke-opacity:0.8;"/>
    <path clip-path="url(#pa4be09063e)" d="M 599.526691 225.639162 
L 783.041913 207.337876 
" style="fill:none;stroke:#000000;stroke-opacity:0.8;"/>
    <path clip-path="url(#pa4be09063e)" d="M 599.526691 225.639162 
L 743.169247 48.602757 
" style="fill:none;stroke:#000000;stroke-opacity:0.8;"/>
    <path clip-path="url(#pa4be09063e)" d="M 599.526691 225.639162 
L 790.531164 85.059743 
" style="fill:none;stroke:#000000;stroke-opacity:0.8;"/>
    <path clip-path="url(#pa4be09063e)" d="M 599.526691 225.639162 
L 779.869211 280.760439 
" style="fill:none;stroke:#000000;stroke-opacity:0.8;"/>
    <path clip-path="url(#pa4be09063e)" d="M 599.526691 225.639162 
L 722.198872 139.013198 
" style="fill:none;stroke:#000000;stroke-opacity:0.8;"/>
    <path clip-path="url(#pa4be09063e)" d="M 599.526691 225.639162 
L 862.03395 165.522959 
" style="fill:none;stroke:#000000;stroke-opacity:0.8;"/>
    <path clip-path="url(#pa4be09063e)" d="M 599.526691 225.639162 
L 288.091391 391.823381 
" style="fill:none;stroke:#000000;stroke-opacity:0.8;"/>
    <path clip-path="url(#pa4be09063e)" d="M 599.526691 225.639162 
L 437.134239 352.975678 
" style="fill:none;stroke:#000000;stroke-opacity:0.8;"/>
    <path clip-path="url(#pa4be09063e)" d="M 599.526691 225.639162 
L 381.716972 346.566745 
" style="fill:none;stroke:#000000;stroke-opacity:0.8;"/>
    <path clip-path="url(#pa4be09063e)" d="M 599.526691 225.639162 
L 360.914826 314.895566 
" style="fill:none;stroke:#000000;stroke-opacity:0.8;"/>
    <path clip-path="url(#pa4be09063e)" d="M 599.526691 225.639162 
L 844.553406 117.179169 
" style="fill:none;stroke:#000000;stroke-opacity:0.8;"/>
    <path clip-path="url(#pa4be09063e)" d="M 599.526691 225.639162 
L 798.055403 365.432704 
" style="fill:none;stroke:#000000;stroke-opacity:0.8;"/>
    <path clip-path="url(#pa4be09063e)" d="M 599.526691 225.639162 
L 626.344902 346.120214 
" style="fill:none;stroke:#000000;stroke-opacity:0.8;"/>
    <path clip-path="url(#pa4be09063e)" d="M 599.526691 225.639162 
L 533.066712 310.461704 
" style="fill:none;stroke:#000000;stroke-opacity:0.8;"/>
    <path clip-path="url(#pa4be09063e)" d="M 599.526691 225.639162 
L 705.963951 342.436283 
" style="fill:none;stroke:#000000;stroke-opacity:0.8;"/>
    <path clip-path="url(#pa4be09063e)" d="M 599.526691 225.639162 
L 399.531153 282.485402 
" style="fill:none;stroke:#000000;stroke-opacity:0.8;"/>
    <path clip-path="url(#pa4be09063e)" d="M 599.526691 225.639162 
L 422.780478 198.659663 
" style="fill:none;stroke:#000000;stroke-opacity:0.8;"/>
    <path clip-path="url(#pa4be09063e)" d="M 599.526691 225.639162 
L 430.418179 388.348902 
" style="fill:none;stroke:#000000;stroke-opacity:0.8;"/>
    <path clip-path="url(#pa4be09063e)" d="M 599.526691 225.639162 
L 877.275876 267.575036 
" style="fill:none;stroke:#000000;stroke-opacity:0.8;"/>
    <path clip-path="url(#pa4be09063e)" d="M 599.526691 225.639162 
L 434.249576 318.811762 
" style="fill:none;stroke:#000000;stroke-opacity:0.8;"/>
    <path clip-path="url(#pa4be09063e)" d="M 599.526691 225.639162 
L 854.816483 324.831122 
" style="fill:none;stroke:#000000;stroke-opacity:0.8;"/>
    <path clip-path="url(#pa4be09063e)" d="M 599.526691 225.639162 
L 422.588966 81.402848 
" style="fill:none;stroke:#000000;stroke-opacity:0.8;"/>
    <path clip-path="url(#pa4be09063e)" d="M 599.526691 225.639162 
L 893.454545 213.467866 
" style="fill:none;stroke:#000000;stroke-opacity:0.8;"/>
    <path clip-path="url(#pa4be09063e)" d="M 599.526691 225.639162 
L 472.534965 142.201277 
" style="fill:none;stroke:#000000;stroke-opacity:0.8;"/>
    <path clip-path="url(#pa4be09063e)" d="M 288.091391 391.823381 
L 42.545455 401.245487 
" style="fill:none;stroke:#000000;stroke-opacity:0.8;"/>
    <path clip-path="url(#pa4be09063e)" d="M 288.091391 391.823381 
L 66.194929 466.391629 
" style="fill:none;stroke:#000000;stroke-opacity:0.8;"/>
    <path clip-path="url(#pa4be09063e)" d="M 288.091391 391.823381 
L 437.134239 352.975678 
" style="fill:none;stroke:#000000;stroke-opacity:0.8;"/>
    <path clip-path="url(#pa4be09063e)" d="M 288.091391 391.823381 
L 381.716972 346.566745 
" style="fill:none;stroke:#000000;stroke-opacity:0.8;"/>
    <path clip-path="url(#pa4be09063e)" d="M 288.091391 391.823381 
L 360.914826 314.895566 
" style="fill:none;stroke:#000000;stroke-opacity:0.8;"/>
    <path clip-path="url(#pa4be09063e)" d="M 288.091391 391.823381 
L 205.463534 549.818182 
" style="fill:none;stroke:#000000;stroke-opacity:0.8;"/>
    <path clip-path="url(#pa4be09063e)" d="M 288.091391 391.823381 
L 119.813513 518.173602 
" style="fill:none;stroke:#000000;stroke-opacity:0.8;"/>
    <path clip-path="url(#pa4be09063e)" d="M 288.091391 391.823381 
L 430.418179 388.348902 
" style="fill:none;stroke:#000000;stroke-opacity:0.8;"/>
    <path clip-path="url(#pa4be09063e)" d="M 288.091391 391.823381 
L 434.249576 318.811762 
" style="fill:none;stroke:#000000;stroke-opacity:0.8;"/>
    <path clip-path="url(#pa4be09063e)" d="M 288.091391 391.823381 
L 399.531153 282.485402 
" style="fill:none;stroke:#000000;stroke-opacity:0.8;"/>
    <path clip-path="url(#pa4be09063e)" d="M 437.134239 352.975678 
L 381.716972 346.566745 
" style="fill:none;stroke:#000000;stroke-opacity:0.8;"/>
    <path clip-path="url(#pa4be09063e)" d="M 437.134239 352.975678 
L 360.914826 314.895566 
" style="fill:none;stroke:#000000;stroke-opacity:0.8;"/>
    <path clip-path="url(#pa4be09063e)" d="M 437.134239 352.975678 
L 430.418179 388.348902 
" style="fill:none;stroke:#000000;stroke-opacity:0.8;"/>
    <path clip-path="url(#pa4be09063e)" d="M 437.134239 352.975678 
L 434.249576 318.811762 
" style="fill:none;stroke:#000000;stroke-opacity:0.8;"/>
    <path clip-path="url(#pa4be09063e)" d="M 437.134239 352.975678 
L 399.531153 282.485402 
" style="fill:none;stroke:#000000;stroke-opacity:0.8;"/>
    <path clip-path="url(#pa4be09063e)" d="M 381.716972 346.566745 
L 360.914826 314.895566 
" style="fill:none;stroke:#000000;stroke-opacity:0.8;"/>
    <path clip-path="url(#pa4be09063e)" d="M 381.716972 346.566745 
L 430.418179 388.348902 
" style="fill:none;stroke:#000000;stroke-opacity:0.8;"/>
    <path clip-path="url(#pa4be09063e)" d="M 381.716972 346.566745 
L 434.249576 318.811762 
" style="fill:none;stroke:#000000;stroke-opacity:0.8;"/>
    <path clip-path="url(#pa4be09063e)" d="M 381.716972 346.566745 
L 399.531153 282.485402 
" style="fill:none;stroke:#000000;stroke-opacity:0.8;"/>
    <path clip-path="url(#pa4be09063e)" d="M 360.914826 314.895566 
L 430.418179 388.348902 
" style="fill:none;stroke:#000000;stroke-opacity:0.8;"/>
    <path clip-path="url(#pa4be09063e)" d="M 360.914826 314.895566 
L 434.249576 318.811762 
" style="fill:none;stroke:#000000;stroke-opacity:0.8;"/>
    <path clip-path="url(#pa4be09063e)" d="M 360.914826 314.895566 
L 399.531153 282.485402 
" style="fill:none;stroke:#000000;stroke-opacity:0.8;"/>
    <path clip-path="url(#pa4be09063e)" d="M 626.344902 346.120214 
L 533.066712 310.461704 
" style="fill:none;stroke:#000000;stroke-opacity:0.8;"/>
    <path clip-path="url(#pa4be09063e)" d="M 626.344902 346.120214 
L 705.963951 342.436283 
" style="fill:none;stroke:#000000;stroke-opacity:0.8;"/>
    <path clip-path="url(#pa4be09063e)" d="M 533.066712 310.461704 
L 399.531153 282.485402 
" style="fill:none;stroke:#000000;stroke-opacity:0.8;"/>
    <path clip-path="url(#pa4be09063e)" d="M 533.066712 310.461704 
L 434.249576 318.811762 
" style="fill:none;stroke:#000000;stroke-opacity:0.8;"/>
    <path clip-path="url(#pa4be09063e)" d="M 399.531153 282.485402 
L 422.780478 198.659663 
" style="fill:none;stroke:#000000;stroke-opacity:0.8;"/>
    <path clip-path="url(#pa4be09063e)" d="M 422.780478 198.659663 
L 472.534965 142.201277 
" style="fill:none;stroke:#000000;stroke-opacity:0.8;"/>
   </g>
   <g id="PathCollection_1">
    <path clip-path="url(#pa4be09063e)" d="M 599.526691 254.361975 
C 607.14407 254.361975 614.450487 251.335558 619.836787 245.949258 
C 625.223088 240.562957 628.249505 233.256541 628.249505 225.639162 
C 628.249505 218.021783 625.223088 210.715366 619.836787 205.329066 
C 614.450487 199.942765 607.14407 196.916349 599.526691 196.916349 
C 591.909312 196.916349 584.602896 199.942765 579.216595 205.329066 
C 573.830295 210.715366 570.803878 218.021783 570.803878 225.639162 
C 570.803878 233.256541 573.830295 240.562957 579.216595 245.949258 
C 584.602896 251.335558 591.909312 254.361975 599.526691 254.361975 
z
" style="fill:#1f78b4;fill-opacity:0.8;stroke:#1f78b4;stroke-opacity:0.8;"/>
    <path clip-path="url(#pa4be09063e)" d="M 331.673637 180.128767 
C 332.999653 180.128767 334.271536 179.601936 335.209171 178.664301 
C 336.146806 177.726667 336.673637 176.454783 336.673637 175.128767 
C 336.673637 173.802752 336.146806 172.530868 335.209171 171.593233 
C 334.271536 170.655599 332.999653 170.128767 331.673637 170.128767 
C 330.347622 170.128767 329.075738 170.655599 328.138103 171.593233 
C 327.200469 172.530868 326.673637 173.802752 326.673637 175.128767 
C 326.673637 176.454783 327.200469 177.726667 328.138103 178.664301 
C 329.075738 179.601936 330.347622 180.128767 331.673637 180.128767 
z
" style="fill:#1f78b4;fill-opacity:0.8;stroke:#1f78b4;stroke-opacity:0.8;"/>
    <path clip-path="url(#pa4be09063e)" d="M 363.403036 123.515137 
C 364.729052 123.515137 366.000936 122.988306 366.93857 122.050671 
C 367.876205 121.113037 368.403036 119.841153 368.403036 118.515137 
C 368.403036 117.189122 367.876205 115.917238 366.93857 114.979603 
C 366.000936 114.041969 364.729052 113.515137 363.403036 113.515137 
C 362.077021 113.515137 360.805137 114.041969 359.867503 114.979603 
C 358.929868 115.917238 358.403036 117.189122 358.403036 118.515137 
C 358.403036 119.841153 358.929868 121.113037 359.867503 122.050671 
C 360.805137 122.988306 362.077021 123.515137 363.403036 123.515137 
z
" style="fill:#1f78b4;fill-opacity:0.8;stroke:#1f78b4;stroke-opacity:0.8;"/>
    <path clip-path="url(#pa4be09063e)" d="M 723.213899 412.267532 
C 724.539915 412.267532 725.811799 411.7407 726.749433 410.803065 
C 727.687068 409.865431 728.213899 408.593547 728.213899 407.267532 
C 728.213899 405.941516 727.687068 404.669632 726.749433 403.731998 
C 725.811799 402.794363 724.539915 402.267532 723.213899 402.267532 
C 721.887884 402.267532 720.616 402.794363 719.678365 403.731998 
C 718.740731 404.669632 718.213899 405.941516 718.213899 407.267532 
C 718.213899 408.593547 718.740731 409.865431 719.678365 410.803065 
C 720.616 411.7407 721.887884 412.267532 723.213899 412.267532 
z
" style="fill:#1f78b4;fill-opacity:0.8;stroke:#1f78b4;stroke-opacity:0.8;"/>
    <path clip-path="url(#pa4be09063e)" d="M 623.4778 421.8455 
C 624.803816 421.8455 626.075699 421.318668 627.013334 420.381034 
C 627.950969 419.443399 628.4778 418.171515 628.4778 416.8455 
C 628.4778 415.519484 627.950969 414.247601 627.013334 413.309966 
C 626.075699 412.372331 624.803816 411.8455 623.4778 411.8455 
C 622.151785 411.8455 620.879901 412.372331 619.942266 413.309966 
C 619.004632 414.247601 618.4778 415.519484 618.4778 416.8455 
C 618.4778 418.171515 619.004632 419.443399 619.942266 420.381034 
C 620.879901 421.318668 622.151785 421.8455 623.4778 421.8455 
z
" style="fill:#1f78b4;fill-opacity:0.8;stroke:#1f78b4;stroke-opacity:0.8;"/>
    <path clip-path="url(#pa4be09063e)" d="M 475.045982 52.444061 
C 476.371997 52.444061 477.643881 51.91723 478.581516 50.979595 
C 479.51915 50.041961 480.045982 48.770077 480.045982 47.444061 
C 480.045982 46.118046 479.51915 44.846162 478.581516 43.908527 
C 477.643881 42.970893 476.371997 42.444061 475.045982 42.444061 
C 473.719966 42.444061 472.448082 42.970893 471.510448 43.908527 
C 470.572813 44.846162 470.045982 46.118046 470.045982 47.444061 
C 470.045982 48.770077 470.572813 50.041961 471.510448 50.979595 
C 472.448082 51.91723 473.719966 52.444061 475.045982 52.444061 
z
" style="fill:#1f78b4;fill-opacity:0.8;stroke:#1f78b4;stroke-opacity:0.8;"/>
    <path clip-path="url(#pa4be09063e)" d="M 541.972023 31.181818 
C 543.298038 31.181818 544.569922 30.654987 545.507557 29.717352 
C 546.445191 28.779718 546.972023 27.507834 546.972023 26.181818 
C 546.972023 24.855803 546.445191 23.583919 545.507557 22.646284 
C 544.569922 21.70865 543.298038 21.181818 541.972023 21.181818 
C 540.646007 21.181818 539.374123 21.70865 538.436489 22.646284 
C 537.498854 23.583919 536.972023 24.855803 536.972023 26.181818 
C 536.972023 27.507834 537.498854 28.779718 538.436489 29.717352 
C 539.374123 30.654987 540.646007 31.181818 541.972023 31.181818 
z
" style="fill:#1f78b4;fill-opacity:0.8;stroke:#1f78b4;stroke-opacity:0.8;"/>
    <path clip-path="url(#pa4be09063e)" d="M 674.853543 50.824466 
C 676.179559 50.824466 677.451443 50.297634 678.389077 49.36 
C 679.326712 48.422365 679.853543 47.150481 679.853543 45.824466 
C 679.853543 44.49845 679.326712 43.226566 678.389077 42.288932 
C 677.451443 41.351297 676.179559 40.824466 674.853543 40.824466 
C 673.527528 40.824466 672.255644 41.351297 671.31801 42.288932 
C 670.380375 43.226566 669.853543 44.49845 669.853543 45.824466 
C 669.853543 47.150481 670.380375 48.422365 671.31801 49.36 
C 672.255644 50.297634 673.527528 50.824466 674.853543 50.824466 
z
" style="fill:#1f78b4;fill-opacity:0.8;stroke:#1f78b4;stroke-opacity:0.8;"/>
    <path clip-path="url(#pa4be09063e)" d="M 607.918858 40.313567 
C 609.244873 40.313567 610.516757 39.786736 611.454392 38.849101 
C 612.392026 37.911467 612.918858 36.639583 612.918858 35.313567 
C 612.918858 33.987552 612.392026 32.715668 611.454392 31.778034 
C 610.516757 30.840399 609.244873 30.313567 607.918858 30.313567 
C 606.592842 30.313567 605.320958 30.840399 604.383324 31.778034 
C 603.445689 32.715668 602.918858 33.987552 602.918858 35.313567 
C 602.918858 36.639583 603.445689 37.911467 604.383324 38.849101 
C 605.320958 39.786736 606.592842 40.313567 607.918858 40.313567 
z
" style="fill:#1f78b4;fill-opacity:0.8;stroke:#1f78b4;stroke-opacity:0.8;"/>
    <path clip-path="url(#pa4be09063e)" d="M 601.860623 110.723588 
C 603.186639 110.723588 604.458523 110.196757 605.396157 109.259122 
C 606.333792 108.321488 606.860623 107.049604 606.860623 105.723588 
C 606.860623 104.397573 606.333792 103.125689 605.396157 102.188054 
C 604.458523 101.25042 603.186639 100.723588 601.860623 100.723588 
C 600.534608 100.723588 599.262724 101.25042 598.32509 102.188054 
C 597.387455 103.125689 596.860623 104.397573 596.860623 105.723588 
C 596.860623 107.049604 597.387455 108.321488 598.32509 109.259122 
C 599.262724 110.196757 600.534608 110.723588 601.860623 110.723588 
z
" style="fill:#1f78b4;fill-opacity:0.8;stroke:#1f78b4;stroke-opacity:0.8;"/>
    <path clip-path="url(#pa4be09063e)" d="M 783.041913 212.337876 
C 784.367929 212.337876 785.639813 211.811045 786.577447 210.87341 
C 787.515082 209.935776 788.041913 208.663892 788.041913 207.337876 
C 788.041913 206.011861 787.515082 204.739977 786.577447 203.802342 
C 785.639813 202.864708 784.367929 202.337876 783.041913 202.337876 
C 781.715898 202.337876 780.444014 202.864708 779.506379 203.802342 
C 778.568745 204.739977 778.041913 206.011861 778.041913 207.337876 
C 778.041913 208.663892 778.568745 209.935776 779.506379 210.87341 
C 780.444014 211.811045 781.715898 212.337876 783.041913 212.337876 
z
" style="fill:#1f78b4;fill-opacity:0.8;stroke:#1f78b4;stroke-opacity:0.8;"/>
    <path clip-path="url(#pa4be09063e)" d="M 743.169247 53.602757 
C 744.495262 53.602757 745.767146 53.075925 746.704781 52.138291 
C 747.642415 51.200656 748.169247 49.928773 748.169247 48.602757 
C 748.169247 47.276742 747.642415 46.004858 746.704781 45.067223 
C 745.767146 44.129589 744.495262 43.602757 743.169247 43.602757 
C 741.843231 43.602757 740.571348 44.129589 739.633713 45.067223 
C 738.696078 46.004858 738.169247 47.276742 738.169247 48.602757 
C 738.169247 49.928773 738.696078 51.200656 739.633713 52.138291 
C 740.571348 53.075925 741.843231 53.602757 743.169247 53.602757 
z
" style="fill:#1f78b4;fill-opacity:0.8;stroke:#1f78b4;stroke-opacity:0.8;"/>
    <path clip-path="url(#pa4be09063e)" d="M 790.531164 90.059743 
C 791.857179 90.059743 793.129063 89.532911 794.066698 88.595277 
C 795.004332 87.657642 795.531164 86.385758 795.531164 85.059743 
C 795.531164 83.733727 795.004332 82.461844 794.066698 81.524209 
C 793.129063 80.586575 791.857179 80.059743 790.531164 80.059743 
C 789.205148 80.059743 787.933265 80.586575 786.99563 81.524209 
C 786.057996 82.461844 785.531164 83.733727 785.531164 85.059743 
C 785.531164 86.385758 786.057996 87.657642 786.99563 88.595277 
C 787.933265 89.532911 789.205148 90.059743 790.531164 90.059743 
z
" style="fill:#1f78b4;fill-opacity:0.8;stroke:#1f78b4;stroke-opacity:0.8;"/>
    <path clip-path="url(#pa4be09063e)" d="M 779.869211 285.760439 
C 781.195226 285.760439 782.46711 285.233608 783.404745 284.295973 
C 784.342379 283.358339 784.869211 282.086455 784.869211 280.760439 
C 784.869211 279.434424 784.342379 278.16254 783.404745 277.224906 
C 782.46711 276.287271 781.195226 275.760439 779.869211 275.760439 
C 778.543195 275.760439 777.271311 276.287271 776.333677 277.224906 
C 775.396042 278.16254 774.869211 279.434424 774.869211 280.760439 
C 774.869211 282.086455 775.396042 283.358339 776.333677 284.295973 
C 777.271311 285.233608 778.543195 285.760439 779.869211 285.760439 
z
" style="fill:#1f78b4;fill-opacity:0.8;stroke:#1f78b4;stroke-opacity:0.8;"/>
    <path clip-path="url(#pa4be09063e)" d="M 722.198872 144.013198 
C 723.524888 144.013198 724.796771 143.486367 725.734406 142.548732 
C 726.672041 141.611098 727.198872 140.339214 727.198872 139.013198 
C 727.198872 137.687183 726.672041 136.415299 725.734406 135.477664 
C 724.796771 134.54003 723.524888 134.013198 722.198872 134.013198 
C 720.872857 134.013198 719.600973 134.54003 718.663338 135.477664 
C 717.725704 136.415299 717.198872 137.687183 717.198872 139.013198 
C 717.198872 140.339214 717.725704 141.611098 718.663338 142.548732 
C 719.600973 143.486367 720.872857 144.013198 722.198872 144.013198 
z
" style="fill:#1f78b4;fill-opacity:0.8;stroke:#1f78b4;stroke-opacity:0.8;"/>
    <path clip-path="url(#pa4be09063e)" d="M 862.03395 170.522959 
C 863.359965 170.522959 864.631849 169.996128 865.569484 169.058493 
C 866.507118 168.120859 867.03395 166.848975 867.03395 165.522959 
C 867.03395 164.196944 866.507118 162.92506 865.569484 161.987426 
C 864.631849 161.049791 863.359965 160.522959 862.03395 160.522959 
C 860.707934 160.522959 859.43605 161.049791 858.498416 161.987426 
C 857.560781 162.92506 857.03395 164.196944 857.03395 165.522959 
C 857.03395 166.848975 857.560781 168.120859 858.498416 169.058493 
C 859.43605 169.996128 860.707934 170.522959 862.03395 170.522959 
z
" style="fill:#1f78b4;fill-opacity:0.8;stroke:#1f78b4;stroke-opacity:0.8;"/>
    <path clip-path="url(#pa4be09063e)" d="M 288.091391 408.406505 
C 292.489287 408.406505 296.707649 406.659202 299.817431 403.54942 
C 302.927213 400.439638 304.674515 396.221276 304.674515 391.823381 
C 304.674515 387.425485 302.927213 383.207123 299.817431 380.097341 
C 296.707649 376.987559 292.489287 375.240257 288.091391 375.240257 
C 283.693496 375.240257 279.475134 376.987559 276.365352 380.097341 
C 273.25557 383.207123 271.508268 387.425485 271.508268 391.823381 
C 271.508268 396.221276 273.25557 400.439638 276.365352 403.54942 
C 279.475134 406.659202 283.693496 408.406505 288.091391 408.406505 
z
" style="fill:#1f78b4;fill-opacity:0.8;stroke:#1f78b4;stroke-opacity:0.8;"/>
    <path clip-path="url(#pa4be09063e)" d="M 42.545455 406.245487 
C 43.87147 406.245487 45.143354 405.718656 46.080988 404.781021 
C 47.018623 403.843387 47.545455 402.571503 47.545455 401.245487 
C 47.545455 399.919472 47.018623 398.647588 46.080988 397.709954 
C 45.143354 396.772319 43.87147 396.245487 42.545455 396.245487 
C 41.219439 396.245487 39.947555 396.772319 39.009921 397.709954 
C 38.072286 398.647588 37.545455 399.919472 37.545455 401.245487 
C 37.545455 402.571503 38.072286 403.843387 39.009921 404.781021 
C 39.947555 405.718656 41.219439 406.245487 42.545455 406.245487 
z
" style="fill:#1f78b4;fill-opacity:0.8;stroke:#1f78b4;stroke-opacity:0.8;"/>
    <path clip-path="url(#pa4be09063e)" d="M 66.194929 471.391629 
C 67.520944 471.391629 68.792828 470.864798 69.730463 469.927163 
C 70.668097 468.989528 71.194929 467.717645 71.194929 466.391629 
C 71.194929 465.065614 70.668097 463.79373 69.730463 462.856095 
C 68.792828 461.918461 67.520944 461.391629 66.194929 461.391629 
C 64.868913 461.391629 63.597029 461.918461 62.659395 462.856095 
C 61.72176 463.79373 61.194929 465.065614 61.194929 466.391629 
C 61.194929 467.717645 61.72176 468.989528 62.659395 469.927163 
C 63.597029 470.864798 64.868913 471.391629 66.194929 471.391629 
z
" style="fill:#1f78b4;fill-opacity:0.8;stroke:#1f78b4;stroke-opacity:0.8;"/>
    <path clip-path="url(#pa4be09063e)" d="M 437.134239 366.204434 
C 440.642547 366.204434 444.007635 364.810569 446.488383 362.329821 
C 448.969131 359.849073 450.362996 356.483985 450.362996 352.975678 
C 450.362996 349.467371 448.969131 346.102282 446.488383 343.621534 
C 444.007635 341.140787 440.642547 339.746921 437.134239 339.746921 
C 433.625932 339.746921 430.260844 341.140787 427.780096 343.621534 
C 425.299348 346.102282 423.905483 349.467371 423.905483 352.975678 
C 423.905483 356.483985 425.299348 359.849073 427.780096 362.329821 
C 430.260844 364.810569 433.625932 366.204434 437.134239 366.204434 
z
" style="fill:#1f78b4;fill-opacity:0.8;stroke:#1f78b4;stroke-opacity:0.8;"/>
    <path clip-path="url(#pa4be09063e)" d="M 381.716972 359.795501 
C 385.225279 359.795501 388.590367 358.401636 391.071115 355.920888 
C 393.551863 353.44014 394.945728 350.075052 394.945728 346.566745 
C 394.945728 343.058438 393.551863 339.693349 391.071115 337.212601 
C 388.590367 334.731853 385.225279 333.337988 381.716972 333.337988 
C 378.208664 333.337988 374.843576 334.731853 372.362828 337.212601 
C 369.88208 339.693349 368.488215 343.058438 368.488215 346.566745 
C 368.488215 350.075052 369.88208 353.44014 372.362828 355.920888 
C 374.843576 358.401636 378.208664 359.795501 381.716972 359.795501 
z
" style="fill:#1f78b4;fill-opacity:0.8;stroke:#1f78b4;stroke-opacity:0.8;"/>
    <path clip-path="url(#pa4be09063e)" d="M 360.914826 328.124322 
C 364.423133 328.124322 367.788222 326.730457 370.26897 324.249709 
C 372.749718 321.768961 374.143583 318.403873 374.143583 314.895566 
C 374.143583 311.387258 372.749718 308.02217 370.26897 305.541422 
C 367.788222 303.060674 364.423133 301.666809 360.914826 301.666809 
C 357.406519 301.666809 354.041431 303.060674 351.560683 305.541422 
C 349.079935 308.02217 347.68607 311.387258 347.68607 314.895566 
C 347.68607 318.403873 349.079935 321.768961 351.560683 324.249709 
C 354.041431 326.730457 357.406519 328.124322 360.914826 328.124322 
z
" style="fill:#1f78b4;fill-opacity:0.8;stroke:#1f78b4;stroke-opacity:0.8;"/>
    <path clip-path="url(#pa4be09063e)" d="M 205.463534 554.818182 
C 206.789549 554.818182 208.061433 554.29135 208.999068 553.353716 
C 209.936702 552.416081 210.463534 551.144197 210.463534 549.818182 
C 210.463534 548.492166 209.936702 547.220282 208.999068 546.282648 
C 208.061433 545.345013 206.789549 544.818182 205.463534 544.818182 
C 204.137518 544.818182 202.865635 545.345013 201.928 546.282648 
C 200.990366 547.220282 200.463534 548.492166 200.463534 549.818182 
C 200.463534 551.144197 200.990366 552.416081 201.928 553.353716 
C 202.865635 554.29135 204.137518 554.818182 205.463534 554.818182 
z
" style="fill:#1f78b4;fill-opacity:0.8;stroke:#1f78b4;stroke-opacity:0.8;"/>
    <path clip-path="url(#pa4be09063e)" d="M 844.553406 122.179169 
C 845.879422 122.179169 847.151306 121.652338 848.08894 120.714703 
C 849.026575 119.777068 849.553406 118.505185 849.553406 117.179169 
C 849.553406 115.853154 849.026575 114.58127 848.08894 113.643635 
C 847.151306 112.706001 845.879422 112.179169 844.553406 112.179169 
C 843.227391 112.179169 841.955507 112.706001 841.017872 113.643635 
C 840.080238 114.58127 839.553406 115.853154 839.553406 117.179169 
C 839.553406 118.505185 840.080238 119.777068 841.017872 120.714703 
C 841.955507 121.652338 843.227391 122.179169 844.553406 122.179169 
z
" style="fill:#1f78b4;fill-opacity:0.8;stroke:#1f78b4;stroke-opacity:0.8;"/>
    <path clip-path="url(#pa4be09063e)" d="M 626.344902 354.780468 
C 628.641629 354.780468 630.844596 353.867969 632.468627 352.243938 
C 634.092657 350.619908 635.005156 348.41694 635.005156 346.120214 
C 635.005156 343.823488 634.092657 341.62052 632.468627 339.99649 
C 630.844596 338.372459 628.641629 337.45996 626.344902 337.45996 
C 624.048176 337.45996 621.845209 338.372459 620.221178 339.99649 
C 618.597147 341.62052 617.684648 343.823488 617.684648 346.120214 
C 617.684648 348.41694 618.597147 350.619908 620.221178 352.243938 
C 621.845209 353.867969 624.048176 354.780468 626.344902 354.780468 
z
" style="fill:#1f78b4;fill-opacity:0.8;stroke:#1f78b4;stroke-opacity:0.8;"/>
    <path clip-path="url(#pa4be09063e)" d="M 119.813513 523.173602 
C 121.139528 523.173602 122.411412 522.646771 123.349047 521.709136 
C 124.286681 520.771502 124.813513 519.499618 124.813513 518.173602 
C 124.813513 516.847587 124.286681 515.575703 123.349047 514.638069 
C 122.411412 513.700434 121.139528 513.173602 119.813513 513.173602 
C 118.487497 513.173602 117.215614 513.700434 116.277979 514.638069 
C 115.340345 515.575703 114.813513 516.847587 114.813513 518.173602 
C 114.813513 519.499618 115.340345 520.771502 116.277979 521.709136 
C 117.215614 522.646771 118.487497 523.173602 119.813513 523.173602 
z
" style="fill:#1f78b4;fill-opacity:0.8;stroke:#1f78b4;stroke-opacity:0.8;"/>
    <path clip-path="url(#pa4be09063e)" d="M 798.055403 370.432704 
C 799.381419 370.432704 800.653303 369.905873 801.590937 368.968238 
C 802.528572 368.030603 803.055403 366.75872 803.055403 365.432704 
C 803.055403 364.106689 802.528572 362.834805 801.590937 361.89717 
C 800.653303 360.959536 799.381419 360.432704 798.055403 360.432704 
C 796.729388 360.432704 795.457504 360.959536 794.51987 361.89717 
C 793.582235 362.834805 793.055403 364.106689 793.055403 365.432704 
C 793.055403 366.75872 793.582235 368.030603 794.51987 368.968238 
C 795.457504 369.905873 796.729388 370.432704 798.055403 370.432704 
z
" style="fill:#1f78b4;fill-opacity:0.8;stroke:#1f78b4;stroke-opacity:0.8;"/>
    <path clip-path="url(#pa4be09063e)" d="M 533.066712 320.461704 
C 535.718743 320.461704 538.262511 319.408041 540.13778 317.532772 
C 542.013049 315.657503 543.066712 313.113735 543.066712 310.461704 
C 543.066712 307.809673 542.013049 305.265906 540.13778 303.390637 
C 538.262511 301.515368 535.718743 300.461704 533.066712 300.461704 
C 530.414681 300.461704 527.870914 301.515368 525.995645 303.390637 
C 524.120375 305.265906 523.066712 307.809673 523.066712 310.461704 
C 523.066712 313.113735 524.120375 315.657503 525.995645 317.532772 
C 527.870914 319.408041 530.414681 320.461704 533.066712 320.461704 
z
" style="fill:#1f78b4;fill-opacity:0.8;stroke:#1f78b4;stroke-opacity:0.8;"/>
    <path clip-path="url(#pa4be09063e)" d="M 705.963951 349.507351 
C 707.83922 349.507351 709.637935 348.762298 710.963951 347.436283 
C 712.289966 346.110267 713.035019 344.311552 713.035019 342.436283 
C 713.035019 340.561014 712.289966 338.762298 710.963951 337.436283 
C 709.637935 336.110267 707.83922 335.365215 705.963951 335.365215 
C 704.088682 335.365215 702.289966 336.110267 700.963951 337.436283 
C 699.637935 338.762298 698.892883 340.561014 698.892883 342.436283 
C 698.892883 344.311552 699.637935 346.110267 700.963951 347.436283 
C 702.289966 348.762298 704.088682 349.507351 705.963951 349.507351 
z
" style="fill:#1f78b4;fill-opacity:0.8;stroke:#1f78b4;stroke-opacity:0.8;"/>
    <path clip-path="url(#pa4be09063e)" d="M 399.531153 295.714158 
C 403.03946 295.714158 406.404549 294.320293 408.885297 291.839545 
C 411.366045 289.358797 412.75991 285.993709 412.75991 282.485402 
C 412.75991 278.977094 411.366045 275.612006 408.885297 273.131258 
C 406.404549 270.65051 403.03946 269.256645 399.531153 269.256645 
C 396.022846 269.256645 392.657758 270.65051 390.17701 273.131258 
C 387.696262 275.612006 386.302397 278.977094 386.302397 282.485402 
C 386.302397 285.993709 387.696262 289.358797 390.17701 291.839545 
C 392.657758 294.320293 396.022846 295.714158 399.531153 295.714158 
z
" style="fill:#1f78b4;fill-opacity:0.8;stroke:#1f78b4;stroke-opacity:0.8;"/>
    <path clip-path="url(#pa4be09063e)" d="M 422.780478 207.319917 
C 425.077204 207.319917 427.280171 206.407418 428.904202 204.783388 
C 430.528233 203.159357 431.440732 200.95639 431.440732 198.659663 
C 431.440732 196.362937 430.528233 194.15997 428.904202 192.535939 
C 427.280171 190.911908 425.077204 189.999409 422.780478 189.999409 
C 420.483751 189.999409 418.280784 190.911908 416.656753 192.535939 
C 415.032722 194.15997 414.120223 196.362937 414.120223 198.659663 
C 414.120223 200.95639 415.032722 203.159357 416.656753 204.783388 
C 418.280784 206.407418 420.483751 207.319917 422.780478 207.319917 
z
" style="fill:#1f78b4;fill-opacity:0.8;stroke:#1f78b4;stroke-opacity:0.8;"/>
    <path clip-path="url(#pa4be09063e)" d="M 430.418179 399.529242 
C 433.383239 399.529242 436.227258 398.351211 438.323873 396.254596 
C 440.420487 394.157982 441.598518 391.313963 441.598518 388.348902 
C 441.598518 385.383842 440.420487 382.539823 438.323873 380.443208 
C 436.227258 378.346594 433.383239 377.168562 430.418179 377.168562 
C 427.453118 377.168562 424.609099 378.346594 422.512484 380.443208 
C 420.41587 382.539823 419.237839 385.383842 419.237839 388.348902 
C 419.237839 391.313963 420.41587 394.157982 422.512484 396.254596 
C 424.609099 398.351211 427.453118 399.529242 430.418179 399.529242 
z
" style="fill:#1f78b4;fill-opacity:0.8;stroke:#1f78b4;stroke-opacity:0.8;"/>
    <path clip-path="url(#pa4be09063e)" d="M 877.275876 272.575036 
C 878.601892 272.575036 879.873776 272.048204 880.81141 271.11057 
C 881.749045 270.172935 882.275876 268.901051 882.275876 267.575036 
C 882.275876 266.24902 881.749045 264.977136 880.81141 264.039502 
C 879.873776 263.101867 878.601892 262.575036 877.275876 262.575036 
C 875.949861 262.575036 874.677977 263.101867 873.740342 264.039502 
C 872.802708 264.977136 872.275876 266.24902 872.275876 267.575036 
C 872.275876 268.901051 872.802708 270.172935 873.740342 271.11057 
C 874.677977 272.048204 875.949861 272.575036 877.275876 272.575036 
z
" style="fill:#1f78b4;fill-opacity:0.8;stroke:#1f78b4;stroke-opacity:0.8;"/>
    <path clip-path="url(#pa4be09063e)" d="M 434.249576 331.059211 
C 437.497638 331.059211 440.613104 329.768742 442.90983 327.472016 
C 445.206557 325.17529 446.497025 322.059824 446.497025 318.811762 
C 446.497025 315.563701 445.206557 312.448234 442.90983 310.151508 
C 440.613104 307.854782 437.497638 306.564313 434.249576 306.564313 
C 431.001515 306.564313 427.886049 307.854782 425.589322 310.151508 
C 423.292596 312.448234 422.002128 315.563701 422.002128 318.811762 
C 422.002128 322.059824 423.292596 325.17529 425.589322 327.472016 
C 427.886049 329.768742 431.001515 331.059211 434.249576 331.059211 
z
" style="fill:#1f78b4;fill-opacity:0.8;stroke:#1f78b4;stroke-opacity:0.8;"/>
    <path clip-path="url(#pa4be09063e)" d="M 854.816483 329.831122 
C 856.142498 329.831122 857.414382 329.30429 858.352016 328.366656 
C 859.289651 327.429021 859.816483 326.157137 859.816483 324.831122 
C 859.816483 323.505106 859.289651 322.233222 858.352016 321.295588 
C 857.414382 320.357953 856.142498 319.831122 854.816483 319.831122 
C 853.490467 319.831122 852.218583 320.357953 851.280949 321.295588 
C 850.343314 322.233222 849.816483 323.505106 849.816483 324.831122 
C 849.816483 326.157137 850.343314 327.429021 851.280949 328.366656 
C 852.218583 329.30429 853.490467 329.831122 854.816483 329.831122 
z
" style="fill:#1f78b4;fill-opacity:0.8;stroke:#1f78b4;stroke-opacity:0.8;"/>
    <path clip-path="url(#pa4be09063e)" d="M 422.588966 86.402848 
C 423.914981 86.402848 425.186865 85.876016 426.1245 84.938382 
C 427.062134 84.000747 427.588966 82.728863 427.588966 81.402848 
C 427.588966 80.076832 427.062134 78.804948 426.1245 77.867314 
C 425.186865 76.929679 423.914981 76.402848 422.588966 76.402848 
C 421.26295 76.402848 419.991067 76.929679 419.053432 77.867314 
C 418.115798 78.804948 417.588966 80.076832 417.588966 81.402848 
C 417.588966 82.728863 418.115798 84.000747 419.053432 84.938382 
C 419.991067 85.876016 421.26295 86.402848 422.588966 86.402848 
z
" style="fill:#1f78b4;fill-opacity:0.8;stroke:#1f78b4;stroke-opacity:0.8;"/>
    <path clip-path="url(#pa4be09063e)" d="M 893.454545 218.467866 
C 894.780561 218.467866 896.052445 217.941035 896.990079 217.0034 
C 897.927714 216.065765 898.454545 214.793882 898.454545 213.467866 
C 898.454545 212.141851 897.927714 210.869967 896.990079 209.932332 
C 896.052445 208.994698 894.780561 208.467866 893.454545 208.467866 
C 892.12853 208.467866 890.856646 208.994698 889.919012 209.932332 
C 888.981377 210.869967 888.454545 212.141851 888.454545 213.467866 
C 888.454545 214.793882 888.981377 216.065765 889.919012 217.0034 
C 890.856646 217.941035 892.12853 218.467866 893.454545 218.467866 
z
" style="fill:#1f78b4;fill-opacity:0.8;stroke:#1f78b4;stroke-opacity:0.8;"/>
    <path clip-path="url(#pa4be09063e)" d="M 472.534965 149.272345 
C 474.410234 149.272345 476.208949 148.527293 477.534965 147.201277 
C 478.86098 145.875262 479.606032 144.076546 479.606032 142.201277 
C 479.606032 140.326008 478.86098 138.527293 477.534965 137.201277 
C 476.208949 135.875262 474.410234 135.130209 472.534965 135.130209 
C 470.659695 135.130209 468.86098 135.875262 467.534965 137.201277 
C 466.208949 138.527293 465.463897 140.326008 465.463897 142.201277 
C 465.463897 144.076546 466.208949 145.875262 467.534965 147.201277 
C 468.86098 148.527293 470.659695 149.272345 472.534965 149.272345 
z
" style="fill:#1f78b4;fill-opacity:0.8;stroke:#1f78b4;stroke-opacity:0.8;"/>
   </g>
   <g id="text_1">
    <!-- h -->
    <g transform="translate(596.357941 194.068949)scale(0.1 -0.1)">
     <defs>
      <path d="M 54.890625 33.015625 
L 54.890625 0 
L 45.90625 0 
L 45.90625 32.71875 
Q 45.90625 40.484375 42.875 44.328125 
Q 39.84375 48.1875 33.796875 48.1875 
Q 26.515625 48.1875 22.3125 43.546875 
Q 18.109375 38.921875 18.109375 30.90625 
L 18.109375 0 
L 9.078125 0 
L 9.078125 75.984375 
L 18.109375 75.984375 
L 18.109375 46.1875 
Q 21.34375 51.125 25.703125 53.5625 
Q 30.078125 56 35.796875 56 
Q 45.21875 56 50.046875 50.171875 
Q 54.890625 44.34375 54.890625 33.015625 
z
" id="DejaVuSans-104"/>
     </defs>
     <use xlink:href="#DejaVuSans-104"/>
    </g>
   </g>
   <g id="text_2">
    <!-- btd_RR -->
    <g transform="translate(313.916606 143.558554)scale(0.1 -0.1)">
     <defs>
      <path d="M 48.6875 27.296875 
Q 48.6875 37.203125 44.609375 42.84375 
Q 40.53125 48.484375 33.40625 48.484375 
Q 26.265625 48.484375 22.1875 42.84375 
Q 18.109375 37.203125 18.109375 27.296875 
Q 18.109375 17.390625 22.1875 11.75 
Q 26.265625 6.109375 33.40625 6.109375 
Q 40.53125 6.109375 44.609375 11.75 
Q 48.6875 17.390625 48.6875 27.296875 
z
M 18.109375 46.390625 
Q 20.953125 51.265625 25.265625 53.625 
Q 29.59375 56 35.59375 56 
Q 45.5625 56 51.78125 48.09375 
Q 58.015625 40.1875 58.015625 27.296875 
Q 58.015625 14.40625 51.78125 6.484375 
Q 45.5625 -1.421875 35.59375 -1.421875 
Q 29.59375 -1.421875 25.265625 0.953125 
Q 20.953125 3.328125 18.109375 8.203125 
L 18.109375 0 
L 9.078125 0 
L 9.078125 75.984375 
L 18.109375 75.984375 
z
" id="DejaVuSans-98"/>
      <path d="M 18.3125 70.21875 
L 18.3125 54.6875 
L 36.8125 54.6875 
L 36.8125 47.703125 
L 18.3125 47.703125 
L 18.3125 18.015625 
Q 18.3125 11.328125 20.140625 9.421875 
Q 21.96875 7.515625 27.59375 7.515625 
L 36.8125 7.515625 
L 36.8125 0 
L 27.59375 0 
Q 17.1875 0 13.234375 3.875 
Q 9.28125 7.765625 9.28125 18.015625 
L 9.28125 47.703125 
L 2.6875 47.703125 
L 2.6875 54.6875 
L 9.28125 54.6875 
L 9.28125 70.21875 
z
" id="DejaVuSans-116"/>
      <path d="M 45.40625 46.390625 
L 45.40625 75.984375 
L 54.390625 75.984375 
L 54.390625 0 
L 45.40625 0 
L 45.40625 8.203125 
Q 42.578125 3.328125 38.25 0.953125 
Q 33.9375 -1.421875 27.875 -1.421875 
Q 17.96875 -1.421875 11.734375 6.484375 
Q 5.515625 14.40625 5.515625 27.296875 
Q 5.515625 40.1875 11.734375 48.09375 
Q 17.96875 56 27.875 56 
Q 33.9375 56 38.25 53.625 
Q 42.578125 51.265625 45.40625 46.390625 
z
M 14.796875 27.296875 
Q 14.796875 17.390625 18.875 11.75 
Q 22.953125 6.109375 30.078125 6.109375 
Q 37.203125 6.109375 41.296875 11.75 
Q 45.40625 17.390625 45.40625 27.296875 
Q 45.40625 37.203125 41.296875 42.84375 
Q 37.203125 48.484375 30.078125 48.484375 
Q 22.953125 48.484375 18.875 42.84375 
Q 14.796875 37.203125 14.796875 27.296875 
z
" id="DejaVuSans-100"/>
      <path d="M 50.984375 -16.609375 
L 50.984375 -23.578125 
L -0.984375 -23.578125 
L -0.984375 -16.609375 
z
" id="DejaVuSans-95"/>
      <path d="M 44.390625 34.1875 
Q 47.5625 33.109375 50.5625 29.59375 
Q 53.5625 26.078125 56.59375 19.921875 
L 66.609375 0 
L 56 0 
L 46.6875 18.703125 
Q 43.0625 26.03125 39.671875 28.421875 
Q 36.28125 30.8125 30.421875 30.8125 
L 19.671875 30.8125 
L 19.671875 0 
L 9.8125 0 
L 9.8125 72.90625 
L 32.078125 72.90625 
Q 44.578125 72.90625 50.734375 67.671875 
Q 56.890625 62.453125 56.890625 51.90625 
Q 56.890625 45.015625 53.6875 40.46875 
Q 50.484375 35.9375 44.390625 34.1875 
z
M 19.671875 64.796875 
L 19.671875 38.921875 
L 32.078125 38.921875 
Q 39.203125 38.921875 42.84375 42.21875 
Q 46.484375 45.515625 46.484375 51.90625 
Q 46.484375 58.296875 42.84375 61.546875 
Q 39.203125 64.796875 32.078125 64.796875 
z
" id="DejaVuSans-82"/>
     </defs>
     <use xlink:href="#DejaVuSans-98"/>
     <use x="63.476562" xlink:href="#DejaVuSans-116"/>
     <use x="102.685547" xlink:href="#DejaVuSans-100"/>
     <use x="166.162109" xlink:href="#DejaVuSans-95"/>
     <use x="216.162109" xlink:href="#DejaVuSans-82"/>
     <use x="285.644531" xlink:href="#DejaVuSans-82"/>
    </g>
   </g>
   <g id="text_3">
    <!-- his__L -->
    <g transform="translate(348.454599 86.944924)scale(0.1 -0.1)">
     <defs>
      <path d="M 9.421875 54.6875 
L 18.40625 54.6875 
L 18.40625 0 
L 9.421875 0 
z
M 9.421875 75.984375 
L 18.40625 75.984375 
L 18.40625 64.59375 
L 9.421875 64.59375 
z
" id="DejaVuSans-105"/>
      <path d="M 44.28125 53.078125 
L 44.28125 44.578125 
Q 40.484375 46.53125 36.375 47.5 
Q 32.28125 48.484375 27.875 48.484375 
Q 21.1875 48.484375 17.84375 46.4375 
Q 14.5 44.390625 14.5 40.28125 
Q 14.5 37.15625 16.890625 35.375 
Q 19.28125 33.59375 26.515625 31.984375 
L 29.59375 31.296875 
Q 39.15625 29.25 43.1875 25.515625 
Q 47.21875 21.78125 47.21875 15.09375 
Q 47.21875 7.46875 41.1875 3.015625 
Q 35.15625 -1.421875 24.609375 -1.421875 
Q 20.21875 -1.421875 15.453125 -0.5625 
Q 10.6875 0.296875 5.421875 2 
L 5.421875 11.28125 
Q 10.40625 8.6875 15.234375 7.390625 
Q 20.0625 6.109375 24.8125 6.109375 
Q 31.15625 6.109375 34.5625 8.28125 
Q 37.984375 10.453125 37.984375 14.40625 
Q 37.984375 18.0625 35.515625 20.015625 
Q 33.0625 21.96875 24.703125 23.78125 
L 21.578125 24.515625 
Q 13.234375 26.265625 9.515625 29.90625 
Q 5.8125 33.546875 5.8125 39.890625 
Q 5.8125 47.609375 11.28125 51.796875 
Q 16.75 56 26.8125 56 
Q 31.78125 56 36.171875 55.265625 
Q 40.578125 54.546875 44.28125 53.078125 
z
" id="DejaVuSans-115"/>
      <path d="M 9.8125 72.90625 
L 19.671875 72.90625 
L 19.671875 8.296875 
L 55.171875 8.296875 
L 55.171875 0 
L 9.8125 0 
z
" id="DejaVuSans-76"/>
     </defs>
     <use xlink:href="#DejaVuSans-104"/>
     <use x="63.378906" xlink:href="#DejaVuSans-105"/>
     <use x="91.162109" xlink:href="#DejaVuSans-115"/>
     <use x="143.261719" xlink:href="#DejaVuSans-95"/>
     <use x="193.261719" xlink:href="#DejaVuSans-95"/>
     <use x="243.261719" xlink:href="#DejaVuSans-76"/>
    </g>
   </g>
   <g id="text_4">
    <!-- leu__L -->
    <g transform="translate(707.793587 375.697319)scale(0.1 -0.1)">
     <defs>
      <path d="M 9.421875 75.984375 
L 18.40625 75.984375 
L 18.40625 0 
L 9.421875 0 
z
" id="DejaVuSans-108"/>
      <path d="M 56.203125 29.59375 
L 56.203125 25.203125 
L 14.890625 25.203125 
Q 15.484375 15.921875 20.484375 11.0625 
Q 25.484375 6.203125 34.421875 6.203125 
Q 39.59375 6.203125 44.453125 7.46875 
Q 49.3125 8.734375 54.109375 11.28125 
L 54.109375 2.78125 
Q 49.265625 0.734375 44.1875 -0.34375 
Q 39.109375 -1.421875 33.890625 -1.421875 
Q 20.796875 -1.421875 13.15625 6.1875 
Q 5.515625 13.8125 5.515625 26.8125 
Q 5.515625 40.234375 12.765625 48.109375 
Q 20.015625 56 32.328125 56 
Q 43.359375 56 49.78125 48.890625 
Q 56.203125 41.796875 56.203125 29.59375 
z
M 47.21875 32.234375 
Q 47.125 39.59375 43.09375 43.984375 
Q 39.0625 48.390625 32.421875 48.390625 
Q 24.90625 48.390625 20.390625 44.140625 
Q 15.875 39.890625 15.1875 32.171875 
z
" id="DejaVuSans-101"/>
      <path d="M 8.5 21.578125 
L 8.5 54.6875 
L 17.484375 54.6875 
L 17.484375 21.921875 
Q 17.484375 14.15625 20.5 10.265625 
Q 23.53125 6.390625 29.59375 6.390625 
Q 36.859375 6.390625 41.078125 11.03125 
Q 45.3125 15.671875 45.3125 23.6875 
L 45.3125 54.6875 
L 54.296875 54.6875 
L 54.296875 0 
L 45.3125 0 
L 45.3125 8.40625 
Q 42.046875 3.421875 37.71875 1 
Q 33.40625 -1.421875 27.6875 -1.421875 
Q 18.265625 -1.421875 13.375 4.4375 
Q 8.5 10.296875 8.5 21.578125 
z
M 31.109375 56 
z
" id="DejaVuSans-117"/>
     </defs>
     <use xlink:href="#DejaVuSans-108"/>
     <use x="27.783203" xlink:href="#DejaVuSans-101"/>
     <use x="89.306641" xlink:href="#DejaVuSans-117"/>
     <use x="152.685547" xlink:href="#DejaVuSans-95"/>
     <use x="202.685547" xlink:href="#DejaVuSans-95"/>
     <use x="252.685547" xlink:href="#DejaVuSans-76"/>
    </g>
   </g>
   <g id="text_5">
    <!-- gmp -->
    <g transform="translate(612.25905 385.275287)scale(0.1 -0.1)">
     <defs>
      <path d="M 45.40625 27.984375 
Q 45.40625 37.75 41.375 43.109375 
Q 37.359375 48.484375 30.078125 48.484375 
Q 22.859375 48.484375 18.828125 43.109375 
Q 14.796875 37.75 14.796875 27.984375 
Q 14.796875 18.265625 18.828125 12.890625 
Q 22.859375 7.515625 30.078125 7.515625 
Q 37.359375 7.515625 41.375 12.890625 
Q 45.40625 18.265625 45.40625 27.984375 
z
M 54.390625 6.78125 
Q 54.390625 -7.171875 48.1875 -13.984375 
Q 42 -20.796875 29.203125 -20.796875 
Q 24.46875 -20.796875 20.265625 -20.09375 
Q 16.0625 -19.390625 12.109375 -17.921875 
L 12.109375 -9.1875 
Q 16.0625 -11.328125 19.921875 -12.34375 
Q 23.78125 -13.375 27.78125 -13.375 
Q 36.625 -13.375 41.015625 -8.765625 
Q 45.40625 -4.15625 45.40625 5.171875 
L 45.40625 9.625 
Q 42.625 4.78125 38.28125 2.390625 
Q 33.9375 0 27.875 0 
Q 17.828125 0 11.671875 7.65625 
Q 5.515625 15.328125 5.515625 27.984375 
Q 5.515625 40.671875 11.671875 48.328125 
Q 17.828125 56 27.875 56 
Q 33.9375 56 38.28125 53.609375 
Q 42.625 51.21875 45.40625 46.390625 
L 45.40625 54.6875 
L 54.390625 54.6875 
z
" id="DejaVuSans-103"/>
      <path d="M 52 44.1875 
Q 55.375 50.25 60.0625 53.125 
Q 64.75 56 71.09375 56 
Q 79.640625 56 84.28125 50.015625 
Q 88.921875 44.046875 88.921875 33.015625 
L 88.921875 0 
L 79.890625 0 
L 79.890625 32.71875 
Q 79.890625 40.578125 77.09375 44.375 
Q 74.3125 48.1875 68.609375 48.1875 
Q 61.625 48.1875 57.5625 43.546875 
Q 53.515625 38.921875 53.515625 30.90625 
L 53.515625 0 
L 44.484375 0 
L 44.484375 32.71875 
Q 44.484375 40.625 41.703125 44.40625 
Q 38.921875 48.1875 33.109375 48.1875 
Q 26.21875 48.1875 22.15625 43.53125 
Q 18.109375 38.875 18.109375 30.90625 
L 18.109375 0 
L 9.078125 0 
L 9.078125 54.6875 
L 18.109375 54.6875 
L 18.109375 46.1875 
Q 21.1875 51.21875 25.484375 53.609375 
Q 29.78125 56 35.6875 56 
Q 41.65625 56 45.828125 52.96875 
Q 50 49.953125 52 44.1875 
z
" id="DejaVuSans-109"/>
      <path d="M 18.109375 8.203125 
L 18.109375 -20.796875 
L 9.078125 -20.796875 
L 9.078125 54.6875 
L 18.109375 54.6875 
L 18.109375 46.390625 
Q 20.953125 51.265625 25.265625 53.625 
Q 29.59375 56 35.59375 56 
Q 45.5625 56 51.78125 48.09375 
Q 58.015625 40.1875 58.015625 27.296875 
Q 58.015625 14.40625 51.78125 6.484375 
Q 45.5625 -1.421875 35.59375 -1.421875 
Q 29.59375 -1.421875 25.265625 0.953125 
Q 20.953125 3.328125 18.109375 8.203125 
z
M 48.6875 27.296875 
Q 48.6875 37.203125 44.609375 42.84375 
Q 40.53125 48.484375 33.40625 48.484375 
Q 26.265625 48.484375 22.1875 42.84375 
Q 18.109375 37.203125 18.109375 27.296875 
Q 18.109375 17.390625 22.1875 11.75 
Q 26.265625 6.109375 33.40625 6.109375 
Q 40.53125 6.109375 44.609375 11.75 
Q 48.6875 17.390625 48.6875 27.296875 
z
" id="DejaVuSans-112"/>
     </defs>
     <use xlink:href="#DejaVuSans-103"/>
     <use x="63.476562" xlink:href="#DejaVuSans-109"/>
     <use x="160.888672" xlink:href="#DejaVuSans-112"/>
    </g>
   </g>
   <g id="text_6">
    <!-- phe__L -->
    <g transform="translate(457.840513 15.873849)scale(0.1 -0.1)">
     <use xlink:href="#DejaVuSans-112"/>
     <use x="63.476562" xlink:href="#DejaVuSans-104"/>
     <use x="126.855469" xlink:href="#DejaVuSans-101"/>
     <use x="188.378906" xlink:href="#DejaVuSans-95"/>
     <use x="238.378906" xlink:href="#DejaVuSans-95"/>
     <use x="288.378906" xlink:href="#DejaVuSans-76"/>
    </g>
   </g>
   <g id="text_7">
    <!-- pser__L -->
    <g transform="translate(523.275148 -5.388395)scale(0.1 -0.1)">
     <defs>
      <path d="M 41.109375 46.296875 
Q 39.59375 47.171875 37.8125 47.578125 
Q 36.03125 48 33.890625 48 
Q 26.265625 48 22.1875 43.046875 
Q 18.109375 38.09375 18.109375 28.8125 
L 18.109375 0 
L 9.078125 0 
L 9.078125 54.6875 
L 18.109375 54.6875 
L 18.109375 46.1875 
Q 20.953125 51.171875 25.484375 53.578125 
Q 30.03125 56 36.53125 56 
Q 37.453125 56 38.578125 55.875 
Q 39.703125 55.765625 41.0625 55.515625 
z
" id="DejaVuSans-114"/>
     </defs>
     <use xlink:href="#DejaVuSans-112"/>
     <use x="63.476562" xlink:href="#DejaVuSans-115"/>
     <use x="115.576172" xlink:href="#DejaVuSans-101"/>
     <use x="177.099609" xlink:href="#DejaVuSans-114"/>
     <use x="218.212891" xlink:href="#DejaVuSans-95"/>
     <use x="268.212891" xlink:href="#DejaVuSans-95"/>
     <use x="318.212891" xlink:href="#DejaVuSans-76"/>
    </g>
   </g>
   <g id="text_8">
    <!-- so4 -->
    <g transform="translate(666.008231 14.254253)scale(0.1 -0.1)">
     <defs>
      <path d="M 30.609375 48.390625 
Q 23.390625 48.390625 19.1875 42.75 
Q 14.984375 37.109375 14.984375 27.296875 
Q 14.984375 17.484375 19.15625 11.84375 
Q 23.34375 6.203125 30.609375 6.203125 
Q 37.796875 6.203125 41.984375 11.859375 
Q 46.1875 17.53125 46.1875 27.296875 
Q 46.1875 37.015625 41.984375 42.703125 
Q 37.796875 48.390625 30.609375 48.390625 
z
M 30.609375 56 
Q 42.328125 56 49.015625 48.375 
Q 55.71875 40.765625 55.71875 27.296875 
Q 55.71875 13.875 49.015625 6.21875 
Q 42.328125 -1.421875 30.609375 -1.421875 
Q 18.84375 -1.421875 12.171875 6.21875 
Q 5.515625 13.875 5.515625 27.296875 
Q 5.515625 40.765625 12.171875 48.375 
Q 18.84375 56 30.609375 56 
z
" id="DejaVuSans-111"/>
      <path d="M 37.796875 64.3125 
L 12.890625 25.390625 
L 37.796875 25.390625 
z
M 35.203125 72.90625 
L 47.609375 72.90625 
L 47.609375 25.390625 
L 58.015625 25.390625 
L 58.015625 17.1875 
L 47.609375 17.1875 
L 47.609375 0 
L 37.796875 0 
L 37.796875 17.1875 
L 4.890625 17.1875 
L 4.890625 26.703125 
z
" id="DejaVuSans-52"/>
     </defs>
     <use xlink:href="#DejaVuSans-115"/>
     <use x="52.099609" xlink:href="#DejaVuSans-111"/>
     <use x="113.28125" xlink:href="#DejaVuSans-52"/>
    </g>
   </g>
   <g id="text_9">
    <!-- gly -->
    <g transform="translate(600.396201 3.743355)scale(0.1 -0.1)">
     <defs>
      <path d="M 32.171875 -5.078125 
Q 28.375 -14.84375 24.75 -17.8125 
Q 21.140625 -20.796875 15.09375 -20.796875 
L 7.90625 -20.796875 
L 7.90625 -13.28125 
L 13.1875 -13.28125 
Q 16.890625 -13.28125 18.9375 -11.515625 
Q 21 -9.765625 23.484375 -3.21875 
L 25.09375 0.875 
L 2.984375 54.6875 
L 12.5 54.6875 
L 29.59375 11.921875 
L 46.6875 54.6875 
L 56.203125 54.6875 
z
" id="DejaVuSans-121"/>
     </defs>
     <use xlink:href="#DejaVuSans-103"/>
     <use x="63.476562" xlink:href="#DejaVuSans-108"/>
     <use x="91.259766" xlink:href="#DejaVuSans-121"/>
    </g>
   </g>
   <g id="text_10">
    <!-- ump -->
    <g transform="translate(590.647342 74.153376)scale(0.1 -0.1)">
     <use xlink:href="#DejaVuSans-117"/>
     <use x="63.378906" xlink:href="#DejaVuSans-109"/>
     <use x="160.791016" xlink:href="#DejaVuSans-112"/>
    </g>
   </g>
   <g id="text_11">
    <!-- cmp -->
    <g transform="translate(772.248163 175.767664)scale(0.1 -0.1)">
     <defs>
      <path d="M 48.78125 52.59375 
L 48.78125 44.1875 
Q 44.96875 46.296875 41.140625 47.34375 
Q 37.3125 48.390625 33.40625 48.390625 
Q 24.65625 48.390625 19.8125 42.84375 
Q 14.984375 37.3125 14.984375 27.296875 
Q 14.984375 17.28125 19.8125 11.734375 
Q 24.65625 6.203125 33.40625 6.203125 
Q 37.3125 6.203125 41.140625 7.25 
Q 44.96875 8.296875 48.78125 10.40625 
L 48.78125 2.09375 
Q 45.015625 0.34375 40.984375 -0.53125 
Q 36.96875 -1.421875 32.421875 -1.421875 
Q 20.0625 -1.421875 12.78125 6.34375 
Q 5.515625 14.109375 5.515625 27.296875 
Q 5.515625 40.671875 12.859375 48.328125 
Q 20.21875 56 33.015625 56 
Q 37.15625 56 41.109375 55.140625 
Q 45.0625 54.296875 48.78125 52.59375 
z
" id="DejaVuSans-99"/>
     </defs>
     <use xlink:href="#DejaVuSans-99"/>
     <use x="54.980469" xlink:href="#DejaVuSans-109"/>
     <use x="152.392578" xlink:href="#DejaVuSans-112"/>
    </g>
   </g>
   <g id="text_12">
    <!-- tyr__L -->
    <g transform="translate(728.408309 17.032544)scale(0.1 -0.1)">
     <use xlink:href="#DejaVuSans-116"/>
     <use x="39.208984" xlink:href="#DejaVuSans-121"/>
     <use x="98.388672" xlink:href="#DejaVuSans-114"/>
     <use x="139.501953" xlink:href="#DejaVuSans-95"/>
     <use x="189.501953" xlink:href="#DejaVuSans-95"/>
     <use x="239.501953" xlink:href="#DejaVuSans-76"/>
    </g>
   </g>
   <g id="text_13">
    <!-- amp -->
    <g transform="translate(779.42257 53.48953)scale(0.1 -0.1)">
     <defs>
      <path d="M 34.28125 27.484375 
Q 23.390625 27.484375 19.1875 25 
Q 14.984375 22.515625 14.984375 16.5 
Q 14.984375 11.71875 18.140625 8.90625 
Q 21.296875 6.109375 26.703125 6.109375 
Q 34.1875 6.109375 38.703125 11.40625 
Q 43.21875 16.703125 43.21875 25.484375 
L 43.21875 27.484375 
z
M 52.203125 31.203125 
L 52.203125 0 
L 43.21875 0 
L 43.21875 8.296875 
Q 40.140625 3.328125 35.546875 0.953125 
Q 30.953125 -1.421875 24.3125 -1.421875 
Q 15.921875 -1.421875 10.953125 3.296875 
Q 6 8.015625 6 15.921875 
Q 6 25.140625 12.171875 29.828125 
Q 18.359375 34.515625 30.609375 34.515625 
L 43.21875 34.515625 
L 43.21875 35.40625 
Q 43.21875 41.609375 39.140625 45 
Q 35.0625 48.390625 27.6875 48.390625 
Q 23 48.390625 18.546875 47.265625 
Q 14.109375 46.140625 10.015625 43.890625 
L 10.015625 52.203125 
Q 14.9375 54.109375 19.578125 55.046875 
Q 24.21875 56 28.609375 56 
Q 40.484375 56 46.34375 49.84375 
Q 52.203125 43.703125 52.203125 31.203125 
z
" id="DejaVuSans-97"/>
     </defs>
     <use xlink:href="#DejaVuSans-97"/>
     <use x="61.279297" xlink:href="#DejaVuSans-109"/>
     <use x="158.691406" xlink:href="#DejaVuSans-112"/>
    </g>
   </g>
   <g id="text_14">
    <!-- man6p -->
    <g transform="translate(762.410617 249.190227)scale(0.1 -0.1)">
     <defs>
      <path d="M 54.890625 33.015625 
L 54.890625 0 
L 45.90625 0 
L 45.90625 32.71875 
Q 45.90625 40.484375 42.875 44.328125 
Q 39.84375 48.1875 33.796875 48.1875 
Q 26.515625 48.1875 22.3125 43.546875 
Q 18.109375 38.921875 18.109375 30.90625 
L 18.109375 0 
L 9.078125 0 
L 9.078125 54.6875 
L 18.109375 54.6875 
L 18.109375 46.1875 
Q 21.34375 51.125 25.703125 53.5625 
Q 30.078125 56 35.796875 56 
Q 45.21875 56 50.046875 50.171875 
Q 54.890625 44.34375 54.890625 33.015625 
z
" id="DejaVuSans-110"/>
      <path d="M 33.015625 40.375 
Q 26.375 40.375 22.484375 35.828125 
Q 18.609375 31.296875 18.609375 23.390625 
Q 18.609375 15.53125 22.484375 10.953125 
Q 26.375 6.390625 33.015625 6.390625 
Q 39.65625 6.390625 43.53125 10.953125 
Q 47.40625 15.53125 47.40625 23.390625 
Q 47.40625 31.296875 43.53125 35.828125 
Q 39.65625 40.375 33.015625 40.375 
z
M 52.59375 71.296875 
L 52.59375 62.3125 
Q 48.875 64.0625 45.09375 64.984375 
Q 41.3125 65.921875 37.59375 65.921875 
Q 27.828125 65.921875 22.671875 59.328125 
Q 17.53125 52.734375 16.796875 39.40625 
Q 19.671875 43.65625 24.015625 45.921875 
Q 28.375 48.1875 33.59375 48.1875 
Q 44.578125 48.1875 50.953125 41.515625 
Q 57.328125 34.859375 57.328125 23.390625 
Q 57.328125 12.15625 50.6875 5.359375 
Q 44.046875 -1.421875 33.015625 -1.421875 
Q 20.359375 -1.421875 13.671875 8.265625 
Q 6.984375 17.96875 6.984375 36.375 
Q 6.984375 53.65625 15.1875 63.9375 
Q 23.390625 74.21875 37.203125 74.21875 
Q 40.921875 74.21875 44.703125 73.484375 
Q 48.484375 72.75 52.59375 71.296875 
z
" id="DejaVuSans-54"/>
     </defs>
     <use xlink:href="#DejaVuSans-109"/>
     <use x="97.412109" xlink:href="#DejaVuSans-97"/>
     <use x="158.691406" xlink:href="#DejaVuSans-110"/>
     <use x="222.070312" xlink:href="#DejaVuSans-54"/>
     <use x="285.693359" xlink:href="#DejaVuSans-112"/>
    </g>
   </g>
   <g id="text_15">
    <!-- asn__L -->
    <g transform="translate(705.575435 107.442985)scale(0.1 -0.1)">
     <use xlink:href="#DejaVuSans-97"/>
     <use x="61.279297" xlink:href="#DejaVuSans-115"/>
     <use x="113.378906" xlink:href="#DejaVuSans-110"/>
     <use x="176.757812" xlink:href="#DejaVuSans-95"/>
     <use x="226.757812" xlink:href="#DejaVuSans-95"/>
     <use x="276.757812" xlink:href="#DejaVuSans-76"/>
    </g>
   </g>
   <g id="text_16">
    <!-- acac -->
    <g transform="translate(850.407387 133.952747)scale(0.1 -0.1)">
     <use xlink:href="#DejaVuSans-97"/>
     <use x="61.279297" xlink:href="#DejaVuSans-99"/>
     <use x="116.259766" xlink:href="#DejaVuSans-97"/>
     <use x="177.539062" xlink:href="#DejaVuSans-99"/>
    </g>
   </g>
   <g id="text_17">
    <!-- pi -->
    <g transform="translate(283.52811 360.253168)scale(0.1 -0.1)">
     <use xlink:href="#DejaVuSans-112"/>
     <use x="63.476562" xlink:href="#DejaVuSans-105"/>
    </g>
   </g>
   <g id="text_18">
    <!-- f6p -->
    <g transform="translate(34.42983 369.675275)scale(0.1 -0.1)">
     <defs>
      <path d="M 37.109375 75.984375 
L 37.109375 68.5 
L 28.515625 68.5 
Q 23.6875 68.5 21.796875 66.546875 
Q 19.921875 64.59375 19.921875 59.515625 
L 19.921875 54.6875 
L 34.71875 54.6875 
L 34.71875 47.703125 
L 19.921875 47.703125 
L 19.921875 0 
L 10.890625 0 
L 10.890625 47.703125 
L 2.296875 47.703125 
L 2.296875 54.6875 
L 10.890625 54.6875 
L 10.890625 58.5 
Q 10.890625 67.625 15.140625 71.796875 
Q 19.390625 75.984375 28.609375 75.984375 
z
" id="DejaVuSans-102"/>
     </defs>
     <use xlink:href="#DejaVuSans-102"/>
     <use x="35.205078" xlink:href="#DejaVuSans-54"/>
     <use x="98.828125" xlink:href="#DejaVuSans-112"/>
    </g>
   </g>
   <g id="text_19">
    <!-- na1 -->
    <g transform="translate(56.780866 434.821416)scale(0.1 -0.1)">
     <defs>
      <path d="M 12.40625 8.296875 
L 28.515625 8.296875 
L 28.515625 63.921875 
L 10.984375 60.40625 
L 10.984375 69.390625 
L 28.421875 72.90625 
L 38.28125 72.90625 
L 38.28125 8.296875 
L 54.390625 8.296875 
L 54.390625 0 
L 12.40625 0 
z
" id="DejaVuSans-49"/>
     </defs>
     <use xlink:href="#DejaVuSans-110"/>
     <use x="63.378906" xlink:href="#DejaVuSans-97"/>
     <use x="124.658203" xlink:href="#DejaVuSans-49"/>
    </g>
   </g>
   <g id="text_20">
    <!-- h2o -->
    <g transform="translate(427.724864 321.405465)scale(0.1 -0.1)">
     <defs>
      <path d="M 19.1875 8.296875 
L 53.609375 8.296875 
L 53.609375 0 
L 7.328125 0 
L 7.328125 8.296875 
Q 12.9375 14.109375 22.625 23.890625 
Q 32.328125 33.6875 34.8125 36.53125 
Q 39.546875 41.84375 41.421875 45.53125 
Q 43.3125 49.21875 43.3125 52.78125 
Q 43.3125 58.59375 39.234375 62.25 
Q 35.15625 65.921875 28.609375 65.921875 
Q 23.96875 65.921875 18.8125 64.3125 
Q 13.671875 62.703125 7.8125 59.421875 
L 7.8125 69.390625 
Q 13.765625 71.78125 18.9375 73 
Q 24.125 74.21875 28.421875 74.21875 
Q 39.75 74.21875 46.484375 68.546875 
Q 53.21875 62.890625 53.21875 53.421875 
Q 53.21875 48.921875 51.53125 44.890625 
Q 49.859375 40.875 45.40625 35.40625 
Q 44.1875 33.984375 37.640625 27.21875 
Q 31.109375 20.453125 19.1875 8.296875 
z
" id="DejaVuSans-50"/>
     </defs>
     <use xlink:href="#DejaVuSans-104"/>
     <use x="63.378906" xlink:href="#DejaVuSans-50"/>
     <use x="127.001953" xlink:href="#DejaVuSans-111"/>
    </g>
   </g>
   <g id="text_21">
    <!-- atp -->
    <g transform="translate(373.518534 314.996532)scale(0.1 -0.1)">
     <use xlink:href="#DejaVuSans-97"/>
     <use x="61.279297" xlink:href="#DejaVuSans-116"/>
     <use x="100.488281" xlink:href="#DejaVuSans-112"/>
    </g>
   </g>
   <g id="text_22">
    <!-- adp -->
    <g transform="translate(351.502326 283.325353)scale(0.1 -0.1)">
     <use xlink:href="#DejaVuSans-97"/>
     <use x="61.279297" xlink:href="#DejaVuSans-100"/>
     <use x="124.755859" xlink:href="#DejaVuSans-112"/>
    </g>
   </g>
   <g id="text_23">
    <!-- g6p -->
    <g transform="translate(195.933846 518.247969)scale(0.1 -0.1)">
     <use xlink:href="#DejaVuSans-103"/>
     <use x="63.476562" xlink:href="#DejaVuSans-54"/>
     <use x="127.099609" xlink:href="#DejaVuSans-112"/>
    </g>
   </g>
   <g id="text_24">
    <!-- 3amp -->
    <g transform="translate(830.263562 85.608956)scale(0.1 -0.1)">
     <defs>
      <path d="M 40.578125 39.3125 
Q 47.65625 37.796875 51.625 33 
Q 55.609375 28.21875 55.609375 21.1875 
Q 55.609375 10.40625 48.1875 4.484375 
Q 40.765625 -1.421875 27.09375 -1.421875 
Q 22.515625 -1.421875 17.65625 -0.515625 
Q 12.796875 0.390625 7.625 2.203125 
L 7.625 11.71875 
Q 11.71875 9.328125 16.59375 8.109375 
Q 21.484375 6.890625 26.8125 6.890625 
Q 36.078125 6.890625 40.9375 10.546875 
Q 45.796875 14.203125 45.796875 21.1875 
Q 45.796875 27.640625 41.28125 31.265625 
Q 36.765625 34.90625 28.71875 34.90625 
L 20.21875 34.90625 
L 20.21875 43.015625 
L 29.109375 43.015625 
Q 36.375 43.015625 40.234375 45.921875 
Q 44.09375 48.828125 44.09375 54.296875 
Q 44.09375 59.90625 40.109375 62.90625 
Q 36.140625 65.921875 28.71875 65.921875 
Q 24.65625 65.921875 20.015625 65.03125 
Q 15.375 64.15625 9.8125 62.3125 
L 9.8125 71.09375 
Q 15.4375 72.65625 20.34375 73.4375 
Q 25.25 74.21875 29.59375 74.21875 
Q 40.828125 74.21875 47.359375 69.109375 
Q 53.90625 64.015625 53.90625 55.328125 
Q 53.90625 49.265625 50.4375 45.09375 
Q 46.96875 40.921875 40.578125 39.3125 
z
" id="DejaVuSans-51"/>
     </defs>
     <use xlink:href="#DejaVuSans-51"/>
     <use x="63.623047" xlink:href="#DejaVuSans-97"/>
     <use x="124.902344" xlink:href="#DejaVuSans-109"/>
     <use x="222.314453" xlink:href="#DejaVuSans-112"/>
    </g>
   </g>
   <g id="text_25">
    <!-- mg2 -->
    <g transform="translate(615.119121 314.550001)scale(0.1 -0.1)">
     <use xlink:href="#DejaVuSans-109"/>
     <use x="97.412109" xlink:href="#DejaVuSans-103"/>
     <use x="160.888672" xlink:href="#DejaVuSans-50"/>
    </g>
   </g>
   <g id="text_26">
    <!-- g1p -->
    <g transform="translate(110.283825 486.60339)scale(0.1 -0.1)">
     <use xlink:href="#DejaVuSans-103"/>
     <use x="63.476562" xlink:href="#DejaVuSans-49"/>
     <use x="127.099609" xlink:href="#DejaVuSans-112"/>
    </g>
   </g>
   <g id="text_27">
    <!-- adn -->
    <g transform="translate(788.648372 333.862491)scale(0.1 -0.1)">
     <use xlink:href="#DejaVuSans-97"/>
     <use x="61.279297" xlink:href="#DejaVuSans-100"/>
     <use x="124.755859" xlink:href="#DejaVuSans-110"/>
    </g>
   </g>
   <g id="text_28">
    <!-- cit -->
    <g transform="translate(526.968275 278.891492)scale(0.1 -0.1)">
     <use xlink:href="#DejaVuSans-99"/>
     <use x="54.980469" xlink:href="#DejaVuSans-105"/>
     <use x="82.763672" xlink:href="#DejaVuSans-116"/>
    </g>
   </g>
   <g id="text_29">
    <!-- icit -->
    <g transform="translate(698.476451 310.86607)scale(0.1 -0.1)">
     <use xlink:href="#DejaVuSans-105"/>
     <use x="27.783203" xlink:href="#DejaVuSans-99"/>
     <use x="82.763672" xlink:href="#DejaVuSans-105"/>
     <use x="110.546875" xlink:href="#DejaVuSans-116"/>
    </g>
   </g>
   <g id="text_30">
    <!-- zn2 -->
    <g transform="translate(390.556934 250.915189)scale(0.1 -0.1)">
     <defs>
      <path d="M 5.515625 54.6875 
L 48.1875 54.6875 
L 48.1875 46.484375 
L 14.40625 7.171875 
L 48.1875 7.171875 
L 48.1875 0 
L 4.296875 0 
L 4.296875 8.203125 
L 38.09375 47.515625 
L 5.515625 47.515625 
z
" id="DejaVuSans-122"/>
     </defs>
     <use xlink:href="#DejaVuSans-122"/>
     <use x="52.490234" xlink:href="#DejaVuSans-110"/>
     <use x="115.869141" xlink:href="#DejaVuSans-50"/>
    </g>
   </g>
   <g id="text_31">
    <!-- k -->
    <g transform="translate(419.885165 167.089451)scale(0.1 -0.1)">
     <defs>
      <path d="M 9.078125 75.984375 
L 18.109375 75.984375 
L 18.109375 31.109375 
L 44.921875 54.6875 
L 56.390625 54.6875 
L 27.390625 29.109375 
L 57.625 0 
L 45.90625 0 
L 18.109375 26.703125 
L 18.109375 0 
L 9.078125 0 
z
" id="DejaVuSans-107"/>
     </defs>
     <use xlink:href="#DejaVuSans-107"/>
    </g>
   </g>
   <g id="text_32">
    <!-- arg__L -->
    <g transform="translate(414.425991 356.77869)scale(0.1 -0.1)">
     <use xlink:href="#DejaVuSans-97"/>
     <use x="61.279297" xlink:href="#DejaVuSans-114"/>
     <use x="100.642578" xlink:href="#DejaVuSans-103"/>
     <use x="164.119141" xlink:href="#DejaVuSans-95"/>
     <use x="214.119141" xlink:href="#DejaVuSans-95"/>
     <use x="264.119141" xlink:href="#DejaVuSans-76"/>
    </g>
   </g>
   <g id="text_33">
    <!-- chor -->
    <g transform="translate(866.243064 236.004823)scale(0.1 -0.1)">
     <use xlink:href="#DejaVuSans-99"/>
     <use x="54.980469" xlink:href="#DejaVuSans-104"/>
     <use x="118.359375" xlink:href="#DejaVuSans-111"/>
     <use x="179.541016" xlink:href="#DejaVuSans-114"/>
    </g>
   </g>
   <g id="text_34">
    <!-- mn2 -->
    <g transform="translate(423.029264 287.241549)scale(0.1 -0.1)">
     <use xlink:href="#DejaVuSans-109"/>
     <use x="97.412109" xlink:href="#DejaVuSans-110"/>
     <use x="160.791016" xlink:href="#DejaVuSans-50"/>
    </g>
   </g>
   <g id="text_35">
    <!-- acnam -->
    <g transform="translate(837.900076 293.260909)scale(0.1 -0.1)">
     <use xlink:href="#DejaVuSans-97"/>
     <use x="61.279297" xlink:href="#DejaVuSans-99"/>
     <use x="116.259766" xlink:href="#DejaVuSans-110"/>
     <use x="179.638672" xlink:href="#DejaVuSans-97"/>
     <use x="240.917969" xlink:href="#DejaVuSans-109"/>
    </g>
   </g>
   <g id="text_36">
    <!-- 6pgc -->
    <g transform="translate(410.31006 49.832635)scale(0.1 -0.1)">
     <use xlink:href="#DejaVuSans-54"/>
     <use x="63.623047" xlink:href="#DejaVuSans-112"/>
     <use x="127.099609" xlink:href="#DejaVuSans-103"/>
     <use x="190.576172" xlink:href="#DejaVuSans-99"/>
    </g>
   </g>
   <g id="text_37">
    <!-- for -->
    <g transform="translate(886.579545 181.897653)scale(0.1 -0.1)">
     <use xlink:href="#DejaVuSans-102"/>
     <use x="35.205078" xlink:href="#DejaVuSans-111"/>
     <use x="96.386719" xlink:href="#DejaVuSans-114"/>
    </g>
   </g>
   <g id="text_38">
    <!-- cd2 -->
    <g transform="translate(463.430277 110.631064)scale(0.1 -0.1)">
     <use xlink:href="#DejaVuSans-99"/>
     <use x="54.980469" xlink:href="#DejaVuSans-100"/>
     <use x="118.457031" xlink:href="#DejaVuSans-50"/>
    </g>
   </g>
  </g>
 </g>
 <defs>
  <clipPath id="pa4be09063e">
   <rect height="576" width="936" x="0" y="0"/>
  </clipPath>
 </defs>
</svg>
