<?xml version="1.0" encoding="utf-8" standalone="no"?>
<!DOCTYPE svg PUBLIC "-//W3C//DTD SVG 1.1//EN"
  "http://www.w3.org/Graphics/SVG/1.1/DTD/svg11.dtd">
<!-- Created with matplotlib (https://matplotlib.org/) -->
<svg height="396pt" version="1.1" viewBox="0 0 576 396" width="576pt" xmlns="http://www.w3.org/2000/svg" xmlns:xlink="http://www.w3.org/1999/xlink">
 <defs>
  <style type="text/css">
*{stroke-linecap:butt;stroke-linejoin:round;}
  </style>
 </defs>
 <g id="figure_1">
  <g id="patch_1">
   <path d="M 0 396 
L 576 396 
L 576 0 
L 0 0 
z
" style="fill:#ffffff;"/>
  </g>
  <g id="axes_1">
   <g id="LineCollection_1">
    <path clip-path="url(#p91a40e2eae)" d="M 140.87982 52.082073 
L 196.842232 190.617192 
" style="fill:none;stroke:#000000;stroke-opacity:0.8;"/>
    <path clip-path="url(#p91a40e2eae)" d="M 196.842232 190.617192 
L 323.030916 169.784568 
" style="fill:none;stroke:#000000;stroke-opacity:0.8;"/>
    <path clip-path="url(#p91a40e2eae)" d="M 196.842232 190.617192 
L 344.32515 221.220704 
" style="fill:none;stroke:#000000;stroke-opacity:0.8;"/>
    <path clip-path="url(#p91a40e2eae)" d="M 196.842232 190.617192 
L 325.202751 246.476488 
" style="fill:none;stroke:#000000;stroke-opacity:0.8;"/>
    <path clip-path="url(#p91a40e2eae)" d="M 196.842232 190.617192 
L 299.441884 226.897278 
" style="fill:none;stroke:#000000;stroke-opacity:0.8;"/>
    <path clip-path="url(#p91a40e2eae)" d="M 196.842232 190.617192 
L 398.587435 253.504929 
" style="fill:none;stroke:#000000;stroke-opacity:0.8;"/>
    <path clip-path="url(#p91a40e2eae)" d="M 196.842232 190.617192 
L 318.107511 194.138053 
" style="fill:none;stroke:#000000;stroke-opacity:0.8;"/>
    <path clip-path="url(#p91a40e2eae)" d="M 196.842232 190.617192 
L 295.286651 104.870649 
" style="fill:none;stroke:#000000;stroke-opacity:0.8;"/>
    <path clip-path="url(#p91a40e2eae)" d="M 196.842232 190.617192 
L 50.648715 268.986714 
" style="fill:none;stroke:#000000;stroke-opacity:0.8;"/>
    <path clip-path="url(#p91a40e2eae)" d="M 196.842232 190.617192 
L 193.853185 325.497265 
" style="fill:none;stroke:#000000;stroke-opacity:0.8;"/>
    <path clip-path="url(#p91a40e2eae)" d="M 196.842232 190.617192 
L 234.954304 270.448901 
" style="fill:none;stroke:#000000;stroke-opacity:0.8;"/>
    <path clip-path="url(#p91a40e2eae)" d="M 196.842232 190.617192 
L 150.874087 344.725471 
" style="fill:none;stroke:#000000;stroke-opacity:0.8;"/>
    <path clip-path="url(#p91a40e2eae)" d="M 196.842232 190.617192 
L 70.538116 124.888581 
" style="fill:none;stroke:#000000;stroke-opacity:0.8;"/>
    <path clip-path="url(#p91a40e2eae)" d="M 196.842232 190.617192 
L 291.611371 274.049216 
" style="fill:none;stroke:#000000;stroke-opacity:0.8;"/>
    <path clip-path="url(#p91a40e2eae)" d="M 196.842232 190.617192 
L 72.264734 67.547024 
" style="fill:none;stroke:#000000;stroke-opacity:0.8;"/>
    <path clip-path="url(#p91a40e2eae)" d="M 196.842232 190.617192 
L 177.066497 21.825873 
" style="fill:none;stroke:#000000;stroke-opacity:0.8;"/>
    <path clip-path="url(#p91a40e2eae)" d="M 196.842232 190.617192 
L 89.28938 322.175733 
" style="fill:none;stroke:#000000;stroke-opacity:0.8;"/>
    <path clip-path="url(#p91a40e2eae)" d="M 196.842232 190.617192 
L 125.548891 100.001643 
" style="fill:none;stroke:#000000;stroke-opacity:0.8;"/>
    <path clip-path="url(#p91a40e2eae)" d="M 196.842232 190.617192 
L 272.662421 56.794968 
" style="fill:none;stroke:#000000;stroke-opacity:0.8;"/>
    <path clip-path="url(#p91a40e2eae)" d="M 196.842232 190.617192 
L 28.827853 153.566814 
" style="fill:none;stroke:#000000;stroke-opacity:0.8;"/>
    <path clip-path="url(#p91a40e2eae)" d="M 196.842232 190.617192 
L 86.618933 194.243822 
" style="fill:none;stroke:#000000;stroke-opacity:0.8;"/>
    <path clip-path="url(#p91a40e2eae)" d="M 196.842232 190.617192 
L 30.467818 215.745869 
" style="fill:none;stroke:#000000;stroke-opacity:0.8;"/>
    <path clip-path="url(#p91a40e2eae)" d="M 196.842232 190.617192 
L 111.27632 271.049551 
" style="fill:none;stroke:#000000;stroke-opacity:0.8;"/>
    <path clip-path="url(#p91a40e2eae)" d="M 196.842232 190.617192 
L 220.506464 45.617771 
" style="fill:none;stroke:#000000;stroke-opacity:0.8;"/>
    <path clip-path="url(#p91a40e2eae)" d="M 196.842232 190.617192 
L 324.670926 287.945035 
" style="fill:none;stroke:#000000;stroke-opacity:0.8;"/>
    <path clip-path="url(#p91a40e2eae)" d="M 323.030916 169.784568 
L 344.32515 221.220704 
" style="fill:none;stroke:#000000;stroke-opacity:0.8;"/>
    <path clip-path="url(#p91a40e2eae)" d="M 323.030916 169.784568 
L 325.202751 246.476488 
" style="fill:none;stroke:#000000;stroke-opacity:0.8;"/>
    <path clip-path="url(#p91a40e2eae)" d="M 323.030916 169.784568 
L 299.441884 226.897278 
" style="fill:none;stroke:#000000;stroke-opacity:0.8;"/>
    <path clip-path="url(#p91a40e2eae)" d="M 323.030916 169.784568 
L 398.587435 253.504929 
" style="fill:none;stroke:#000000;stroke-opacity:0.8;"/>
    <path clip-path="url(#p91a40e2eae)" d="M 344.32515 221.220704 
L 325.202751 246.476488 
" style="fill:none;stroke:#000000;stroke-opacity:0.8;"/>
    <path clip-path="url(#p91a40e2eae)" d="M 344.32515 221.220704 
L 299.441884 226.897278 
" style="fill:none;stroke:#000000;stroke-opacity:0.8;"/>
    <path clip-path="url(#p91a40e2eae)" d="M 344.32515 221.220704 
L 398.587435 253.504929 
" style="fill:none;stroke:#000000;stroke-opacity:0.8;"/>
    <path clip-path="url(#p91a40e2eae)" d="M 344.32515 221.220704 
L 291.611371 274.049216 
" style="fill:none;stroke:#000000;stroke-opacity:0.8;"/>
    <path clip-path="url(#p91a40e2eae)" d="M 344.32515 221.220704 
L 318.107511 194.138053 
" style="fill:none;stroke:#000000;stroke-opacity:0.8;"/>
    <path clip-path="url(#p91a40e2eae)" d="M 344.32515 221.220704 
L 324.670926 287.945035 
" style="fill:none;stroke:#000000;stroke-opacity:0.8;"/>
    <path clip-path="url(#p91a40e2eae)" d="M 325.202751 246.476488 
L 299.441884 226.897278 
" style="fill:none;stroke:#000000;stroke-opacity:0.8;"/>
    <path clip-path="url(#p91a40e2eae)" d="M 325.202751 246.476488 
L 398.587435 253.504929 
" style="fill:none;stroke:#000000;stroke-opacity:0.8;"/>
    <path clip-path="url(#p91a40e2eae)" d="M 325.202751 246.476488 
L 291.611371 274.049216 
" style="fill:none;stroke:#000000;stroke-opacity:0.8;"/>
    <path clip-path="url(#p91a40e2eae)" d="M 325.202751 246.476488 
L 318.107511 194.138053 
" style="fill:none;stroke:#000000;stroke-opacity:0.8;"/>
    <path clip-path="url(#p91a40e2eae)" d="M 325.202751 246.476488 
L 324.670926 287.945035 
" style="fill:none;stroke:#000000;stroke-opacity:0.8;"/>
    <path clip-path="url(#p91a40e2eae)" d="M 299.441884 226.897278 
L 398.587435 253.504929 
" style="fill:none;stroke:#000000;stroke-opacity:0.8;"/>
    <path clip-path="url(#p91a40e2eae)" d="M 299.441884 226.897278 
L 291.611371 274.049216 
" style="fill:none;stroke:#000000;stroke-opacity:0.8;"/>
    <path clip-path="url(#p91a40e2eae)" d="M 299.441884 226.897278 
L 318.107511 194.138053 
" style="fill:none;stroke:#000000;stroke-opacity:0.8;"/>
    <path clip-path="url(#p91a40e2eae)" d="M 299.441884 226.897278 
L 324.670926 287.945035 
" style="fill:none;stroke:#000000;stroke-opacity:0.8;"/>
    <path clip-path="url(#p91a40e2eae)" d="M 398.587435 253.504929 
L 547.172147 267.3136 
" style="fill:none;stroke:#000000;stroke-opacity:0.8;"/>
    <path clip-path="url(#p91a40e2eae)" d="M 398.587435 253.504929 
L 483.13244 374.174127 
" style="fill:none;stroke:#000000;stroke-opacity:0.8;"/>
    <path clip-path="url(#p91a40e2eae)" d="M 398.587435 253.504929 
L 291.611371 274.049216 
" style="fill:none;stroke:#000000;stroke-opacity:0.8;"/>
    <path clip-path="url(#p91a40e2eae)" d="M 398.587435 253.504929 
L 537.934282 202.481569 
" style="fill:none;stroke:#000000;stroke-opacity:0.8;"/>
    <path clip-path="url(#p91a40e2eae)" d="M 398.587435 253.504929 
L 528.845582 326.436149 
" style="fill:none;stroke:#000000;stroke-opacity:0.8;"/>
    <path clip-path="url(#p91a40e2eae)" d="M 398.587435 253.504929 
L 318.107511 194.138053 
" style="fill:none;stroke:#000000;stroke-opacity:0.8;"/>
    <path clip-path="url(#p91a40e2eae)" d="M 398.587435 253.504929 
L 324.670926 287.945035 
" style="fill:none;stroke:#000000;stroke-opacity:0.8;"/>
    <path clip-path="url(#p91a40e2eae)" d="M 318.107511 194.138053 
L 295.286651 104.870649 
" style="fill:none;stroke:#000000;stroke-opacity:0.8;"/>
    <path clip-path="url(#p91a40e2eae)" d="M 318.107511 194.138053 
L 234.954304 270.448901 
" style="fill:none;stroke:#000000;stroke-opacity:0.8;"/>
    <path clip-path="url(#p91a40e2eae)" d="M 295.286651 104.870649 
L 272.662421 56.794968 
" style="fill:none;stroke:#000000;stroke-opacity:0.8;"/>
    <path clip-path="url(#p91a40e2eae)" d="M 193.853185 325.497265 
L 234.954304 270.448901 
" style="fill:none;stroke:#000000;stroke-opacity:0.8;"/>
    <path clip-path="url(#p91a40e2eae)" d="M 193.853185 325.497265 
L 150.874087 344.725471 
" style="fill:none;stroke:#000000;stroke-opacity:0.8;"/>
    <path clip-path="url(#p91a40e2eae)" d="M 234.954304 270.448901 
L 291.611371 274.049216 
" style="fill:none;stroke:#000000;stroke-opacity:0.8;"/>
   </g>
   <g id="PathCollection_1">
    <path clip-path="url(#p91a40e2eae)" d="M 140.87982 57.082073 
C 142.205835 57.082073 143.477719 56.555241 144.415354 55.617607 
C 145.352988 54.679972 145.87982 53.408088 145.87982 52.082073 
C 145.87982 50.756057 145.352988 49.484173 144.415354 48.546539 
C 143.477719 47.608904 142.205835 47.082073 140.87982 47.082073 
C 139.553804 47.082073 138.28192 47.608904 137.344286 48.546539 
C 136.406651 49.484173 135.87982 50.756057 135.87982 52.082073 
C 135.87982 53.408088 136.406651 54.679972 137.344286 55.617607 
C 138.28192 56.555241 139.553804 57.082073 140.87982 57.082073 
z
" style="fill:#1f78b4;fill-opacity:0.8;stroke:#1f78b4;stroke-opacity:0.8;stroke-width:0.3;"/>
    <path clip-path="url(#p91a40e2eae)" d="M 196.842232 215.617192 
C 203.47231 215.617192 209.831729 212.983034 214.519902 208.294861 
C 219.208075 203.606688 221.842232 197.247269 221.842232 190.617192 
C 221.842232 183.987114 219.208075 177.627695 214.519902 172.939522 
C 209.831729 168.251349 203.47231 165.617192 196.842232 165.617192 
C 190.212155 165.617192 183.852736 168.251349 179.164563 172.939522 
C 174.47639 177.627695 171.842232 183.987114 171.842232 190.617192 
C 171.842232 197.247269 174.47639 203.606688 179.164563 208.294861 
C 183.852736 212.983034 190.212155 215.617192 196.842232 215.617192 
z
" style="fill:#1f78b4;fill-opacity:0.8;stroke:#1f78b4;stroke-opacity:0.8;stroke-width:0.3;"/>
    <path clip-path="url(#p91a40e2eae)" d="M 323.030916 180.964908 
C 325.995977 180.964908 328.839996 179.786877 330.93661 177.690262 
C 333.033225 175.593648 334.211256 172.749629 334.211256 169.784568 
C 334.211256 166.819507 333.033225 163.975489 330.93661 161.878874 
C 328.839996 159.782259 325.995977 158.604228 323.030916 158.604228 
C 320.065856 158.604228 317.221837 159.782259 315.125222 161.878874 
C 313.028608 163.975489 311.850576 166.819507 311.850576 169.784568 
C 311.850576 172.749629 313.028608 175.593648 315.125222 177.690262 
C 317.221837 179.786877 320.065856 180.964908 323.030916 180.964908 
z
" style="fill:#1f78b4;fill-opacity:0.8;stroke:#1f78b4;stroke-opacity:0.8;stroke-width:0.3;"/>
    <path clip-path="url(#p91a40e2eae)" d="M 344.32515 235.36284 
C 348.075688 235.36284 351.673119 233.872735 354.32515 231.220704 
C 356.977181 228.568673 358.467285 224.971242 358.467285 221.220704 
C 358.467285 217.470166 356.977181 213.872735 354.32515 211.220704 
C 351.673119 208.568673 348.075688 207.078569 344.32515 207.078569 
C 340.574612 207.078569 336.977181 208.568673 334.32515 211.220704 
C 331.673119 213.872735 330.183014 217.470166 330.183014 221.220704 
C 330.183014 224.971242 331.673119 228.568673 334.32515 231.220704 
C 336.977181 233.872735 340.574612 235.36284 344.32515 235.36284 
z
" style="fill:#1f78b4;fill-opacity:0.8;stroke:#1f78b4;stroke-opacity:0.8;stroke-width:0.3;"/>
    <path clip-path="url(#p91a40e2eae)" d="M 325.202751 260.618623 
C 328.953289 260.618623 332.55072 259.128519 335.202751 256.476488 
C 337.854782 253.824457 339.344887 250.227026 339.344887 246.476488 
C 339.344887 242.725949 337.854782 239.128519 335.202751 236.476488 
C 332.55072 233.824457 328.953289 232.334352 325.202751 232.334352 
C 321.452213 232.334352 317.854782 233.824457 315.202751 236.476488 
C 312.55072 239.128519 311.060616 242.725949 311.060616 246.476488 
C 311.060616 250.227026 312.55072 253.824457 315.202751 256.476488 
C 317.854782 259.128519 321.452213 260.618623 325.202751 260.618623 
z
" style="fill:#1f78b4;fill-opacity:0.8;stroke:#1f78b4;stroke-opacity:0.8;stroke-width:0.3;"/>
    <path clip-path="url(#p91a40e2eae)" d="M 299.441884 241.039414 
C 303.192422 241.039414 306.789853 239.549309 309.441884 236.897278 
C 312.093915 234.245247 313.584019 230.647816 313.584019 226.897278 
C 313.584019 223.14674 312.093915 219.549309 309.441884 216.897278 
C 306.789853 214.245247 303.192422 212.755142 299.441884 212.755142 
C 295.691345 212.755142 292.093915 214.245247 289.441884 216.897278 
C 286.789853 219.549309 285.299748 223.14674 285.299748 226.897278 
C 285.299748 230.647816 286.789853 234.245247 289.441884 236.897278 
C 292.093915 239.549309 295.691345 241.039414 299.441884 241.039414 
z
" style="fill:#1f78b4;fill-opacity:0.8;stroke:#1f78b4;stroke-opacity:0.8;stroke-width:0.3;"/>
    <path clip-path="url(#p91a40e2eae)" d="M 398.587435 270.825437 
C 403.180887 270.825437 407.586822 269.000439 410.834883 265.752378 
C 414.082945 262.504317 415.907943 258.098382 415.907943 253.504929 
C 415.907943 248.911477 414.082945 244.505542 410.834883 241.25748 
C 407.586822 238.009419 403.180887 236.184421 398.587435 236.184421 
C 393.993982 236.184421 389.588047 238.009419 386.339986 241.25748 
C 383.091925 244.505542 381.266927 248.911477 381.266927 253.504929 
C 381.266927 258.098382 383.091925 262.504317 386.339986 265.752378 
C 389.588047 269.000439 393.993982 270.825437 398.587435 270.825437 
z
" style="fill:#1f78b4;fill-opacity:0.8;stroke:#1f78b4;stroke-opacity:0.8;stroke-width:0.3;"/>
    <path clip-path="url(#p91a40e2eae)" d="M 318.107511 207.36681 
C 321.615819 207.36681 324.980907 205.972945 327.461655 203.492197 
C 329.942403 201.011449 331.336268 197.646361 331.336268 194.138053 
C 331.336268 190.629746 329.942403 187.264658 327.461655 184.78391 
C 324.980907 182.303162 321.615819 180.909297 318.107511 180.909297 
C 314.599204 180.909297 311.234116 182.303162 308.753368 184.78391 
C 306.27262 187.264658 304.878755 190.629746 304.878755 194.138053 
C 304.878755 197.646361 306.27262 201.011449 308.753368 203.492197 
C 311.234116 205.972945 314.599204 207.36681 318.107511 207.36681 
z
" style="fill:#1f78b4;fill-opacity:0.8;stroke:#1f78b4;stroke-opacity:0.8;stroke-width:0.3;"/>
    <path clip-path="url(#p91a40e2eae)" d="M 295.286651 113.530903 
C 297.583378 113.530903 299.786345 112.618404 301.410376 110.994373 
C 303.034407 109.370342 303.946906 107.167375 303.946906 104.870649 
C 303.946906 102.573922 303.034407 100.370955 301.410376 98.746924 
C 299.786345 97.122894 297.583378 96.210395 295.286651 96.210395 
C 292.989925 96.210395 290.786958 97.122894 289.162927 98.746924 
C 287.538896 100.370955 286.626397 102.573922 286.626397 104.870649 
C 286.626397 107.167375 287.538896 109.370342 289.162927 110.994373 
C 290.786958 112.618404 292.989925 113.530903 295.286651 113.530903 
z
" style="fill:#1f78b4;fill-opacity:0.8;stroke:#1f78b4;stroke-opacity:0.8;stroke-width:0.3;"/>
    <path clip-path="url(#p91a40e2eae)" d="M 193.853185 334.157519 
C 196.149912 334.157519 198.352879 333.24502 199.97691 331.62099 
C 201.60094 329.996959 202.513439 327.793992 202.513439 325.497265 
C 202.513439 323.200539 201.60094 320.997572 199.97691 319.373541 
C 198.352879 317.74951 196.149912 316.837011 193.853185 316.837011 
C 191.556459 316.837011 189.353492 317.74951 187.729461 319.373541 
C 186.10543 320.997572 185.192931 323.200539 185.192931 325.497265 
C 185.192931 327.793992 186.10543 329.996959 187.729461 331.62099 
C 189.353492 333.24502 191.556459 334.157519 193.853185 334.157519 
z
" style="fill:#1f78b4;fill-opacity:0.8;stroke:#1f78b4;stroke-opacity:0.8;stroke-width:0.3;"/>
    <path clip-path="url(#p91a40e2eae)" d="M 50.648715 273.986714 
C 51.974731 273.986714 53.246614 273.459882 54.184249 272.522248 
C 55.121883 271.584613 55.648715 270.31273 55.648715 268.986714 
C 55.648715 267.660699 55.121883 266.388815 54.184249 265.45118 
C 53.246614 264.513546 51.974731 263.986714 50.648715 263.986714 
C 49.3227 263.986714 48.050816 264.513546 47.113181 265.45118 
C 46.175547 266.388815 45.648715 267.660699 45.648715 268.986714 
C 45.648715 270.31273 46.175547 271.584613 47.113181 272.522248 
C 48.050816 273.459882 49.3227 273.986714 50.648715 273.986714 
z
" style="fill:#1f78b4;fill-opacity:0.8;stroke:#1f78b4;stroke-opacity:0.8;stroke-width:0.3;"/>
    <path clip-path="url(#p91a40e2eae)" d="M 234.954304 280.448901 
C 237.606335 280.448901 240.150103 279.395238 242.025372 277.519968 
C 243.900641 275.644699 244.954304 273.100932 244.954304 270.448901 
C 244.954304 267.79687 243.900641 265.253102 242.025372 263.377833 
C 240.150103 261.502564 237.606335 260.448901 234.954304 260.448901 
C 232.302273 260.448901 229.758505 261.502564 227.883236 263.377833 
C 226.007967 265.253102 224.954304 267.79687 224.954304 270.448901 
C 224.954304 273.100932 226.007967 275.644699 227.883236 277.519968 
C 229.758505 279.395238 232.302273 280.448901 234.954304 280.448901 
z
" style="fill:#1f78b4;fill-opacity:0.8;stroke:#1f78b4;stroke-opacity:0.8;stroke-width:0.3;"/>
    <path clip-path="url(#p91a40e2eae)" d="M 150.874087 351.796539 
C 152.749356 351.796539 154.548072 351.051486 155.874087 349.725471 
C 157.200103 348.399455 157.945155 346.60074 157.945155 344.725471 
C 157.945155 342.850202 157.200103 341.051486 155.874087 339.725471 
C 154.548072 338.399455 152.749356 337.654403 150.874087 337.654403 
C 148.998818 337.654403 147.200103 338.399455 145.874087 339.725471 
C 144.548072 341.051486 143.803019 342.850202 143.803019 344.725471 
C 143.803019 346.60074 144.548072 348.399455 145.874087 349.725471 
C 147.200103 351.051486 148.998818 351.796539 150.874087 351.796539 
z
" style="fill:#1f78b4;fill-opacity:0.8;stroke:#1f78b4;stroke-opacity:0.8;stroke-width:0.3;"/>
    <path clip-path="url(#p91a40e2eae)" d="M 547.172147 272.3136 
C 548.498163 272.3136 549.770047 271.786768 550.707681 270.849134 
C 551.645316 269.911499 552.172147 268.639615 552.172147 267.3136 
C 552.172147 265.987584 551.645316 264.7157 550.707681 263.778066 
C 549.770047 262.840431 548.498163 262.3136 547.172147 262.3136 
C 545.846132 262.3136 544.574248 262.840431 543.636613 263.778066 
C 542.698979 264.7157 542.172147 265.987584 542.172147 267.3136 
C 542.172147 268.639615 542.698979 269.911499 543.636613 270.849134 
C 544.574248 271.786768 545.846132 272.3136 547.172147 272.3136 
z
" style="fill:#1f78b4;fill-opacity:0.8;stroke:#1f78b4;stroke-opacity:0.8;stroke-width:0.3;"/>
    <path clip-path="url(#p91a40e2eae)" d="M 483.13244 379.174127 
C 484.458456 379.174127 485.730339 378.647295 486.667974 377.709661 
C 487.605609 376.772026 488.13244 375.500142 488.13244 374.174127 
C 488.13244 372.848111 487.605609 371.576227 486.667974 370.638593 
C 485.730339 369.700958 484.458456 369.174127 483.13244 369.174127 
C 481.806425 369.174127 480.534541 369.700958 479.596906 370.638593 
C 478.659272 371.576227 478.13244 372.848111 478.13244 374.174127 
C 478.13244 375.500142 478.659272 376.772026 479.596906 377.709661 
C 480.534541 378.647295 481.806425 379.174127 483.13244 379.174127 
z
" style="fill:#1f78b4;fill-opacity:0.8;stroke:#1f78b4;stroke-opacity:0.8;stroke-width:0.3;"/>
    <path clip-path="url(#p91a40e2eae)" d="M 70.538116 129.888581 
C 71.864131 129.888581 73.136015 129.361749 74.07365 128.424115 
C 75.011284 127.48648 75.538116 126.214596 75.538116 124.888581 
C 75.538116 123.562565 75.011284 122.290681 74.07365 121.353047 
C 73.136015 120.415412 71.864131 119.888581 70.538116 119.888581 
C 69.2121 119.888581 67.940216 120.415412 67.002582 121.353047 
C 66.064947 122.290681 65.538116 123.562565 65.538116 124.888581 
C 65.538116 126.214596 66.064947 127.48648 67.002582 128.424115 
C 67.940216 129.361749 69.2121 129.888581 70.538116 129.888581 
z
" style="fill:#1f78b4;fill-opacity:0.8;stroke:#1f78b4;stroke-opacity:0.8;stroke-width:0.3;"/>
    <path clip-path="url(#p91a40e2eae)" d="M 291.611371 286.296665 
C 294.859432 286.296665 297.974899 285.006196 300.271625 282.70947 
C 302.568351 280.412744 303.85882 277.297277 303.85882 274.049216 
C 303.85882 270.801155 302.568351 267.685688 300.271625 265.388962 
C 297.974899 263.092236 294.859432 261.801767 291.611371 261.801767 
C 288.36331 261.801767 285.247843 263.092236 282.951117 265.388962 
C 280.654391 267.685688 279.363922 270.801155 279.363922 274.049216 
C 279.363922 277.297277 280.654391 280.412744 282.951117 282.70947 
C 285.247843 285.006196 288.36331 286.296665 291.611371 286.296665 
z
" style="fill:#1f78b4;fill-opacity:0.8;stroke:#1f78b4;stroke-opacity:0.8;stroke-width:0.3;"/>
    <path clip-path="url(#p91a40e2eae)" d="M 537.934282 207.481569 
C 539.260298 207.481569 540.532182 206.954737 541.469816 206.017103 
C 542.407451 205.079468 542.934282 203.807584 542.934282 202.481569 
C 542.934282 201.155553 542.407451 199.88367 541.469816 198.946035 
C 540.532182 198.0084 539.260298 197.481569 537.934282 197.481569 
C 536.608267 197.481569 535.336383 198.0084 534.398749 198.946035 
C 533.461114 199.88367 532.934282 201.155553 532.934282 202.481569 
C 532.934282 203.807584 533.461114 205.079468 534.398749 206.017103 
C 535.336383 206.954737 536.608267 207.481569 537.934282 207.481569 
z
" style="fill:#1f78b4;fill-opacity:0.8;stroke:#1f78b4;stroke-opacity:0.8;stroke-width:0.3;"/>
    <path clip-path="url(#p91a40e2eae)" d="M 72.264734 72.547024 
C 73.59075 72.547024 74.862633 72.020192 75.800268 71.082558 
C 76.737903 70.144923 77.264734 68.873039 77.264734 67.547024 
C 77.264734 66.221008 76.737903 64.949124 75.800268 64.01149 
C 74.862633 63.073855 73.59075 62.547024 72.264734 62.547024 
C 70.938719 62.547024 69.666835 63.073855 68.7292 64.01149 
C 67.791566 64.949124 67.264734 66.221008 67.264734 67.547024 
C 67.264734 68.873039 67.791566 70.144923 68.7292 71.082558 
C 69.666835 72.020192 70.938719 72.547024 72.264734 72.547024 
z
" style="fill:#1f78b4;fill-opacity:0.8;stroke:#1f78b4;stroke-opacity:0.8;stroke-width:0.3;"/>
    <path clip-path="url(#p91a40e2eae)" d="M 528.845582 331.436149 
C 530.171598 331.436149 531.443482 330.909317 532.381116 329.971682 
C 533.318751 329.034048 533.845582 327.762164 533.845582 326.436149 
C 533.845582 325.110133 533.318751 323.838249 532.381116 322.900615 
C 531.443482 321.96298 530.171598 321.436149 528.845582 321.436149 
C 527.519567 321.436149 526.247683 321.96298 525.310049 322.900615 
C 524.372414 323.838249 523.845582 325.110133 523.845582 326.436149 
C 523.845582 327.762164 524.372414 329.034048 525.310049 329.971682 
C 526.247683 330.909317 527.519567 331.436149 528.845582 331.436149 
z
" style="fill:#1f78b4;fill-opacity:0.8;stroke:#1f78b4;stroke-opacity:0.8;stroke-width:0.3;"/>
    <path clip-path="url(#p91a40e2eae)" d="M 177.066497 26.825873 
C 178.392513 26.825873 179.664397 26.299042 180.602031 25.361407 
C 181.539666 24.423773 182.066497 23.151889 182.066497 21.825873 
C 182.066497 20.499858 181.539666 19.227974 180.602031 18.290339 
C 179.664397 17.352705 178.392513 16.825873 177.066497 16.825873 
C 175.740482 16.825873 174.468598 17.352705 173.530963 18.290339 
C 172.593329 19.227974 172.066497 20.499858 172.066497 21.825873 
C 172.066497 23.151889 172.593329 24.423773 173.530963 25.361407 
C 174.468598 26.299042 175.740482 26.825873 177.066497 26.825873 
z
" style="fill:#1f78b4;fill-opacity:0.8;stroke:#1f78b4;stroke-opacity:0.8;stroke-width:0.3;"/>
    <path clip-path="url(#p91a40e2eae)" d="M 89.28938 327.175733 
C 90.615396 327.175733 91.88728 326.648901 92.824914 325.711267 
C 93.762549 324.773632 94.28938 323.501748 94.28938 322.175733 
C 94.28938 320.849717 93.762549 319.577833 92.824914 318.640199 
C 91.88728 317.702564 90.615396 317.175733 89.28938 317.175733 
C 87.963365 317.175733 86.691481 317.702564 85.753846 318.640199 
C 84.816212 319.577833 84.28938 320.849717 84.28938 322.175733 
C 84.28938 323.501748 84.816212 324.773632 85.753846 325.711267 
C 86.691481 326.648901 87.963365 327.175733 89.28938 327.175733 
z
" style="fill:#1f78b4;fill-opacity:0.8;stroke:#1f78b4;stroke-opacity:0.8;stroke-width:0.3;"/>
    <path clip-path="url(#p91a40e2eae)" d="M 125.548891 105.001643 
C 126.874906 105.001643 128.14679 104.474812 129.084425 103.537177 
C 130.022059 102.599542 130.548891 101.327659 130.548891 100.001643 
C 130.548891 98.675628 130.022059 97.403744 129.084425 96.466109 
C 128.14679 95.528475 126.874906 95.001643 125.548891 95.001643 
C 124.222875 95.001643 122.950991 95.528475 122.013357 96.466109 
C 121.075722 97.403744 120.548891 98.675628 120.548891 100.001643 
C 120.548891 101.327659 121.075722 102.599542 122.013357 103.537177 
C 122.950991 104.474812 124.222875 105.001643 125.548891 105.001643 
z
" style="fill:#1f78b4;fill-opacity:0.8;stroke:#1f78b4;stroke-opacity:0.8;stroke-width:0.3;"/>
    <path clip-path="url(#p91a40e2eae)" d="M 272.662421 63.866036 
C 274.53769 63.866036 276.336405 63.120984 277.662421 61.794968 
C 278.988436 60.468953 279.733488 58.670237 279.733488 56.794968 
C 279.733488 54.919699 278.988436 53.120984 277.662421 51.794968 
C 276.336405 50.468953 274.53769 49.7239 272.662421 49.7239 
C 270.787152 49.7239 268.988436 50.468953 267.662421 51.794968 
C 266.336405 53.120984 265.591353 54.919699 265.591353 56.794968 
C 265.591353 58.670237 266.336405 60.468953 267.662421 61.794968 
C 268.988436 63.120984 270.787152 63.866036 272.662421 63.866036 
z
" style="fill:#1f78b4;fill-opacity:0.8;stroke:#1f78b4;stroke-opacity:0.8;stroke-width:0.3;"/>
    <path clip-path="url(#p91a40e2eae)" d="M 28.827853 158.566814 
C 30.153868 158.566814 31.425752 158.039983 32.363387 157.102348 
C 33.301021 156.164713 33.827853 154.89283 33.827853 153.566814 
C 33.827853 152.240799 33.301021 150.968915 32.363387 150.03128 
C 31.425752 149.093646 30.153868 148.566814 28.827853 148.566814 
C 27.501837 148.566814 26.229953 149.093646 25.292319 150.03128 
C 24.354684 150.968915 23.827853 152.240799 23.827853 153.566814 
C 23.827853 154.89283 24.354684 156.164713 25.292319 157.102348 
C 26.229953 158.039983 27.501837 158.566814 28.827853 158.566814 
z
" style="fill:#1f78b4;fill-opacity:0.8;stroke:#1f78b4;stroke-opacity:0.8;stroke-width:0.3;"/>
    <path clip-path="url(#p91a40e2eae)" d="M 86.618933 199.243822 
C 87.944948 199.243822 89.216832 198.71699 90.154467 197.779356 
C 91.092101 196.841721 91.618933 195.569837 91.618933 194.243822 
C 91.618933 192.917806 91.092101 191.645923 90.154467 190.708288 
C 89.216832 189.770654 87.944948 189.243822 86.618933 189.243822 
C 85.292917 189.243822 84.021033 189.770654 83.083399 190.708288 
C 82.145764 191.645923 81.618933 192.917806 81.618933 194.243822 
C 81.618933 195.569837 82.145764 196.841721 83.083399 197.779356 
C 84.021033 198.71699 85.292917 199.243822 86.618933 199.243822 
z
" style="fill:#1f78b4;fill-opacity:0.8;stroke:#1f78b4;stroke-opacity:0.8;stroke-width:0.3;"/>
    <path clip-path="url(#p91a40e2eae)" d="M 30.467818 220.745869 
C 31.793833 220.745869 33.065717 220.219037 34.003352 219.281402 
C 34.940986 218.343768 35.467818 217.071884 35.467818 215.745869 
C 35.467818 214.419853 34.940986 213.147969 34.003352 212.210335 
C 33.065717 211.2727 31.793833 210.745869 30.467818 210.745869 
C 29.141802 210.745869 27.869919 211.2727 26.932284 212.210335 
C 25.994649 213.147969 25.467818 214.419853 25.467818 215.745869 
C 25.467818 217.071884 25.994649 218.343768 26.932284 219.281402 
C 27.869919 220.219037 29.141802 220.745869 30.467818 220.745869 
z
" style="fill:#1f78b4;fill-opacity:0.8;stroke:#1f78b4;stroke-opacity:0.8;stroke-width:0.3;"/>
    <path clip-path="url(#p91a40e2eae)" d="M 111.27632 276.049551 
C 112.602335 276.049551 113.874219 275.522719 114.811854 274.585085 
C 115.749488 273.64745 116.27632 272.375566 116.27632 271.049551 
C 116.27632 269.723535 115.749488 268.451652 114.811854 267.514017 
C 113.874219 266.576383 112.602335 266.049551 111.27632 266.049551 
C 109.950304 266.049551 108.67842 266.576383 107.740786 267.514017 
C 106.803151 268.451652 106.27632 269.723535 106.27632 271.049551 
C 106.27632 272.375566 106.803151 273.64745 107.740786 274.585085 
C 108.67842 275.522719 109.950304 276.049551 111.27632 276.049551 
z
" style="fill:#1f78b4;fill-opacity:0.8;stroke:#1f78b4;stroke-opacity:0.8;stroke-width:0.3;"/>
    <path clip-path="url(#p91a40e2eae)" d="M 220.506464 50.617771 
C 221.832479 50.617771 223.104363 50.09094 224.041998 49.153305 
C 224.979632 48.215671 225.506464 46.943787 225.506464 45.617771 
C 225.506464 44.291756 224.979632 43.019872 224.041998 42.082237 
C 223.104363 41.144603 221.832479 40.617771 220.506464 40.617771 
C 219.180448 40.617771 217.908564 41.144603 216.97093 42.082237 
C 216.033295 43.019872 215.506464 44.291756 215.506464 45.617771 
C 215.506464 46.943787 216.033295 48.215671 216.97093 49.153305 
C 217.908564 50.09094 219.180448 50.617771 220.506464 50.617771 
z
" style="fill:#1f78b4;fill-opacity:0.8;stroke:#1f78b4;stroke-opacity:0.8;stroke-width:0.3;"/>
    <path clip-path="url(#p91a40e2eae)" d="M 324.670926 299.125375 
C 327.635986 299.125375 330.480005 297.947344 332.57662 295.850729 
C 334.673234 293.754115 335.851266 290.910096 335.851266 287.945035 
C 335.851266 284.979974 334.673234 282.135956 332.57662 280.039341 
C 330.480005 277.942726 327.635986 276.764695 324.670926 276.764695 
C 321.705865 276.764695 318.861846 277.942726 316.765232 280.039341 
C 314.668617 282.135956 313.490586 284.979974 313.490586 287.945035 
C 313.490586 290.910096 314.668617 293.754115 316.765232 295.850729 
C 318.861846 297.947344 321.705865 299.125375 324.670926 299.125375 
z
" style="fill:#1f78b4;fill-opacity:0.8;stroke:#1f78b4;stroke-opacity:0.8;stroke-width:0.3;"/>
   </g>
   <g id="text_1">
    <!-- so4 -->
    <defs>
     <path d="M 3.078125 15.484375 
L 11.765625 16.84375 
Q 12.5 11.625 15.84375 8.84375 
Q 19.1875 6.0625 25.203125 6.0625 
Q 31.25 6.0625 34.171875 8.515625 
Q 37.109375 10.984375 37.109375 14.3125 
Q 37.109375 17.28125 34.515625 19 
Q 32.71875 20.171875 25.53125 21.96875 
Q 15.875 24.421875 12.140625 26.203125 
Q 8.40625 27.984375 6.46875 31.125 
Q 4.546875 34.28125 4.546875 38.09375 
Q 4.546875 41.546875 6.125 44.5 
Q 7.71875 47.46875 10.453125 49.421875 
Q 12.5 50.921875 16.03125 51.96875 
Q 19.578125 53.03125 23.640625 53.03125 
Q 29.734375 53.03125 34.34375 51.265625 
Q 38.96875 49.515625 41.15625 46.5 
Q 43.359375 43.5 44.1875 38.484375 
L 35.59375 37.3125 
Q 35.015625 41.3125 32.203125 43.546875 
Q 29.390625 45.796875 24.265625 45.796875 
Q 18.21875 45.796875 15.625 43.796875 
Q 13.03125 41.796875 13.03125 39.109375 
Q 13.03125 37.40625 14.109375 36.03125 
Q 15.1875 34.625 17.484375 33.6875 
Q 18.796875 33.203125 25.25 31.453125 
Q 34.578125 28.953125 38.25 27.359375 
Q 41.9375 25.78125 44.03125 22.75 
Q 46.140625 19.734375 46.140625 15.234375 
Q 46.140625 10.84375 43.578125 6.953125 
Q 41.015625 3.078125 36.171875 0.953125 
Q 31.34375 -1.171875 25.25 -1.171875 
Q 15.140625 -1.171875 9.84375 3.03125 
Q 4.546875 7.234375 3.078125 15.484375 
z
" id="ArialMT-115"/>
     <path d="M 3.328125 25.921875 
Q 3.328125 40.328125 11.328125 47.265625 
Q 18.015625 53.03125 27.640625 53.03125 
Q 38.328125 53.03125 45.109375 46.015625 
Q 51.90625 39.015625 51.90625 26.65625 
Q 51.90625 16.65625 48.90625 10.90625 
Q 45.90625 5.171875 40.15625 2 
Q 34.421875 -1.171875 27.640625 -1.171875 
Q 16.75 -1.171875 10.03125 5.8125 
Q 3.328125 12.796875 3.328125 25.921875 
z
M 12.359375 25.921875 
Q 12.359375 15.96875 16.703125 11.015625 
Q 21.046875 6.0625 27.640625 6.0625 
Q 34.1875 6.0625 38.53125 11.03125 
Q 42.875 16.015625 42.875 26.21875 
Q 42.875 35.84375 38.5 40.796875 
Q 34.125 45.75 27.640625 45.75 
Q 21.046875 45.75 16.703125 40.8125 
Q 12.359375 35.890625 12.359375 25.921875 
z
" id="ArialMT-111"/>
     <path d="M 32.328125 0 
L 32.328125 17.140625 
L 1.265625 17.140625 
L 1.265625 25.203125 
L 33.9375 71.578125 
L 41.109375 71.578125 
L 41.109375 25.203125 
L 50.78125 25.203125 
L 50.78125 17.140625 
L 41.109375 17.140625 
L 41.109375 0 
z
M 32.328125 25.203125 
L 32.328125 57.46875 
L 9.90625 25.203125 
z
" id="ArialMT-52"/>
    </defs>
    <g style="fill:#262626;" transform="translate(132.818882 24.811248)scale(0.1 -0.1)">
     <use xlink:href="#ArialMT-115"/>
     <use x="50" xlink:href="#ArialMT-111"/>
     <use x="105.615234" xlink:href="#ArialMT-52"/>
    </g>
   </g>
   <g id="text_2">
    <!-- h -->
    <defs>
     <path d="M 6.59375 0 
L 6.59375 71.578125 
L 15.375 71.578125 
L 15.375 45.90625 
Q 21.53125 53.03125 30.90625 53.03125 
Q 36.671875 53.03125 40.921875 50.75 
Q 45.171875 48.484375 47 44.484375 
Q 48.828125 40.484375 48.828125 32.859375 
L 48.828125 0 
L 40.046875 0 
L 40.046875 32.859375 
Q 40.046875 39.453125 37.1875 42.453125 
Q 34.328125 45.453125 29.109375 45.453125 
Q 25.203125 45.453125 21.75 43.421875 
Q 18.3125 41.40625 16.84375 37.9375 
Q 15.375 34.46875 15.375 28.375 
L 15.375 0 
z
" id="ArialMT-104"/>
    </defs>
    <g style="fill:#262626;" transform="translate(194.061764 163.346367)scale(0.1 -0.1)">
     <use xlink:href="#ArialMT-104"/>
    </g>
   </g>
   <g id="text_3">
    <!-- arg__L -->
    <defs>
     <path d="M 40.4375 6.390625 
Q 35.546875 2.25 31.03125 0.53125 
Q 26.515625 -1.171875 21.34375 -1.171875 
Q 12.796875 -1.171875 8.203125 3 
Q 3.609375 7.171875 3.609375 13.671875 
Q 3.609375 17.484375 5.34375 20.625 
Q 7.078125 23.78125 9.890625 25.6875 
Q 12.703125 27.59375 16.21875 28.5625 
Q 18.796875 29.25 24.03125 29.890625 
Q 34.671875 31.15625 39.703125 32.90625 
Q 39.75 34.71875 39.75 35.203125 
Q 39.75 40.578125 37.25 42.78125 
Q 33.890625 45.75 27.25 45.75 
Q 21.046875 45.75 18.09375 43.578125 
Q 15.140625 41.40625 13.71875 35.890625 
L 5.125 37.0625 
Q 6.296875 42.578125 8.984375 45.96875 
Q 11.671875 49.359375 16.75 51.1875 
Q 21.828125 53.03125 28.515625 53.03125 
Q 35.15625 53.03125 39.296875 51.46875 
Q 43.453125 49.90625 45.40625 47.53125 
Q 47.359375 45.171875 48.140625 41.546875 
Q 48.578125 39.3125 48.578125 33.453125 
L 48.578125 21.734375 
Q 48.578125 9.46875 49.140625 6.21875 
Q 49.703125 2.984375 51.375 0 
L 42.1875 0 
Q 40.828125 2.734375 40.4375 6.390625 
z
M 39.703125 26.03125 
Q 34.90625 24.078125 25.34375 22.703125 
Q 19.921875 21.921875 17.671875 20.9375 
Q 15.4375 19.96875 14.203125 18.09375 
Q 12.984375 16.21875 12.984375 13.921875 
Q 12.984375 10.40625 15.640625 8.0625 
Q 18.3125 5.71875 23.4375 5.71875 
Q 28.515625 5.71875 32.46875 7.9375 
Q 36.421875 10.15625 38.28125 14.015625 
Q 39.703125 17 39.703125 22.796875 
z
" id="ArialMT-97"/>
     <path d="M 6.5 0 
L 6.5 51.859375 
L 14.40625 51.859375 
L 14.40625 44 
Q 17.4375 49.515625 20 51.265625 
Q 22.5625 53.03125 25.640625 53.03125 
Q 30.078125 53.03125 34.671875 50.203125 
L 31.640625 42.046875 
Q 28.421875 43.953125 25.203125 43.953125 
Q 22.3125 43.953125 20.015625 42.21875 
Q 17.71875 40.484375 16.75 37.40625 
Q 15.28125 32.71875 15.28125 27.15625 
L 15.28125 0 
z
" id="ArialMT-114"/>
     <path d="M 4.984375 -4.296875 
L 13.53125 -5.5625 
Q 14.0625 -9.515625 16.5 -11.328125 
Q 19.78125 -13.765625 25.4375 -13.765625 
Q 31.546875 -13.765625 34.859375 -11.328125 
Q 38.1875 -8.890625 39.359375 -4.5 
Q 40.046875 -1.8125 39.984375 6.78125 
Q 34.234375 0 25.640625 0 
Q 14.9375 0 9.078125 7.71875 
Q 3.21875 15.4375 3.21875 26.21875 
Q 3.21875 33.640625 5.90625 39.90625 
Q 8.59375 46.1875 13.6875 49.609375 
Q 18.796875 53.03125 25.6875 53.03125 
Q 34.859375 53.03125 40.828125 45.609375 
L 40.828125 51.859375 
L 48.921875 51.859375 
L 48.921875 7.03125 
Q 48.921875 -5.078125 46.453125 -10.125 
Q 44 -15.1875 38.640625 -18.109375 
Q 33.296875 -21.046875 25.484375 -21.046875 
Q 16.21875 -21.046875 10.5 -16.875 
Q 4.78125 -12.703125 4.984375 -4.296875 
z
M 12.25 26.859375 
Q 12.25 16.65625 16.296875 11.96875 
Q 20.359375 7.28125 26.46875 7.28125 
Q 32.515625 7.28125 36.609375 11.9375 
Q 40.71875 16.609375 40.71875 26.5625 
Q 40.71875 36.078125 36.5 40.90625 
Q 32.28125 45.75 26.3125 45.75 
Q 20.453125 45.75 16.34375 40.984375 
Q 12.25 36.234375 12.25 26.859375 
z
" id="ArialMT-103"/>
     <path d="M -1.515625 -19.875 
L -1.515625 -13.53125 
L 56.734375 -13.53125 
L 56.734375 -19.875 
z
" id="ArialMT-95"/>
     <path d="M 7.328125 0 
L 7.328125 71.578125 
L 16.796875 71.578125 
L 16.796875 8.453125 
L 52.046875 8.453125 
L 52.046875 0 
z
" id="ArialMT-76"/>
    </defs>
    <g style="fill:#262626;" transform="translate(307.463729 142.513744)scale(0.1 -0.1)">
     <use xlink:href="#ArialMT-97"/>
     <use x="55.615234" xlink:href="#ArialMT-114"/>
     <use x="88.916016" xlink:href="#ArialMT-103"/>
     <use x="144.53125" xlink:href="#ArialMT-95"/>
     <use x="200.146484" xlink:href="#ArialMT-95"/>
     <use x="255.761719" xlink:href="#ArialMT-76"/>
    </g>
   </g>
   <g id="text_4">
    <!-- adp -->
    <defs>
     <path d="M 40.234375 0 
L 40.234375 6.546875 
Q 35.296875 -1.171875 25.734375 -1.171875 
Q 19.53125 -1.171875 14.328125 2.25 
Q 9.125 5.671875 6.265625 11.796875 
Q 3.421875 17.921875 3.421875 25.875 
Q 3.421875 33.640625 6 39.96875 
Q 8.59375 46.296875 13.765625 49.65625 
Q 18.953125 53.03125 25.34375 53.03125 
Q 30.03125 53.03125 33.6875 51.046875 
Q 37.359375 49.078125 39.65625 45.90625 
L 39.65625 71.578125 
L 48.390625 71.578125 
L 48.390625 0 
z
M 12.453125 25.875 
Q 12.453125 15.921875 16.640625 10.984375 
Q 20.84375 6.0625 26.5625 6.0625 
Q 32.328125 6.0625 36.34375 10.765625 
Q 40.375 15.484375 40.375 25.140625 
Q 40.375 35.796875 36.265625 40.765625 
Q 32.171875 45.75 26.171875 45.75 
Q 20.3125 45.75 16.375 40.96875 
Q 12.453125 36.1875 12.453125 25.875 
z
" id="ArialMT-100"/>
     <path d="M 6.59375 -19.875 
L 6.59375 51.859375 
L 14.59375 51.859375 
L 14.59375 45.125 
Q 17.4375 49.078125 21 51.046875 
Q 24.5625 53.03125 29.640625 53.03125 
Q 36.28125 53.03125 41.359375 49.609375 
Q 46.4375 46.1875 49.015625 39.953125 
Q 51.609375 33.734375 51.609375 26.3125 
Q 51.609375 18.359375 48.75 11.984375 
Q 45.90625 5.609375 40.453125 2.21875 
Q 35.015625 -1.171875 29 -1.171875 
Q 24.609375 -1.171875 21.109375 0.6875 
Q 17.625 2.546875 15.375 5.375 
L 15.375 -19.875 
z
M 14.546875 25.640625 
Q 14.546875 15.625 18.59375 10.84375 
Q 22.65625 6.0625 28.421875 6.0625 
Q 34.28125 6.0625 38.453125 11.015625 
Q 42.625 15.96875 42.625 26.375 
Q 42.625 36.28125 38.546875 41.203125 
Q 34.46875 46.140625 28.8125 46.140625 
Q 23.1875 46.140625 18.859375 40.890625 
Q 14.546875 35.640625 14.546875 25.640625 
z
" id="ArialMT-112"/>
    </defs>
    <g style="fill:#262626;" transform="translate(335.983744 193.949879)scale(0.1 -0.1)">
     <use xlink:href="#ArialMT-97"/>
     <use x="55.615234" xlink:href="#ArialMT-100"/>
     <use x="111.230469" xlink:href="#ArialMT-112"/>
    </g>
   </g>
   <g id="text_5">
    <!-- atp -->
    <defs>
     <path d="M 25.78125 7.859375 
L 27.046875 0.09375 
Q 23.34375 -0.6875 20.40625 -0.6875 
Q 15.625 -0.6875 12.984375 0.828125 
Q 10.359375 2.34375 9.28125 4.8125 
Q 8.203125 7.28125 8.203125 15.1875 
L 8.203125 45.015625 
L 1.765625 45.015625 
L 1.765625 51.859375 
L 8.203125 51.859375 
L 8.203125 64.703125 
L 16.9375 69.96875 
L 16.9375 51.859375 
L 25.78125 51.859375 
L 25.78125 45.015625 
L 16.9375 45.015625 
L 16.9375 14.703125 
Q 16.9375 10.9375 17.40625 9.859375 
Q 17.875 8.796875 18.921875 8.15625 
Q 19.96875 7.515625 21.921875 7.515625 
Q 23.390625 7.515625 25.78125 7.859375 
z
" id="ArialMT-116"/>
    </defs>
    <g style="fill:#262626;" transform="translate(318.252751 219.205663)scale(0.1 -0.1)">
     <use xlink:href="#ArialMT-97"/>
     <use x="55.615234" xlink:href="#ArialMT-116"/>
     <use x="83.398438" xlink:href="#ArialMT-112"/>
    </g>
   </g>
   <g id="text_6">
    <!-- h2o -->
    <defs>
     <path d="M 50.34375 8.453125 
L 50.34375 0 
L 3.03125 0 
Q 2.9375 3.171875 4.046875 6.109375 
Q 5.859375 10.9375 9.828125 15.625 
Q 13.8125 20.3125 21.34375 26.46875 
Q 33.015625 36.03125 37.109375 41.625 
Q 41.21875 47.21875 41.21875 52.203125 
Q 41.21875 57.421875 37.46875 61 
Q 33.734375 64.59375 27.734375 64.59375 
Q 21.390625 64.59375 17.578125 60.78125 
Q 13.765625 56.984375 13.71875 50.25 
L 4.6875 51.171875 
Q 5.609375 61.28125 11.65625 66.578125 
Q 17.71875 71.875 27.9375 71.875 
Q 38.234375 71.875 44.234375 66.15625 
Q 50.25 60.453125 50.25 52 
Q 50.25 47.703125 48.484375 43.546875 
Q 46.734375 39.40625 42.65625 34.8125 
Q 38.578125 30.21875 29.109375 22.21875 
Q 21.1875 15.578125 18.9375 13.203125 
Q 16.703125 10.84375 15.234375 8.453125 
z
" id="ArialMT-50"/>
    </defs>
    <g style="fill:#262626;" transform="translate(291.100477 199.626453)scale(0.1 -0.1)">
     <use xlink:href="#ArialMT-104"/>
     <use x="55.615234" xlink:href="#ArialMT-50"/>
     <use x="111.230469" xlink:href="#ArialMT-111"/>
    </g>
   </g>
   <g id="text_7">
    <!-- pi -->
    <defs>
     <path d="M 6.640625 61.46875 
L 6.640625 71.578125 
L 15.4375 71.578125 
L 15.4375 61.46875 
z
M 6.640625 0 
L 6.640625 51.859375 
L 15.4375 51.859375 
L 15.4375 0 
z
" id="ArialMT-105"/>
    </defs>
    <g style="fill:#262626;" transform="translate(394.696029 226.234105)scale(0.1 -0.1)">
     <use xlink:href="#ArialMT-112"/>
     <use x="55.615234" xlink:href="#ArialMT-105"/>
    </g>
   </g>
   <g id="text_8">
    <!-- zn2 -->
    <defs>
     <path d="M 1.953125 0 
L 1.953125 7.125 
L 34.96875 45.015625 
Q 29.34375 44.734375 25.046875 44.734375 
L 3.90625 44.734375 
L 3.90625 51.859375 
L 46.296875 51.859375 
L 46.296875 46.046875 
L 18.21875 13.140625 
L 12.796875 7.125 
Q 18.703125 7.5625 23.875 7.5625 
L 47.859375 7.5625 
L 47.859375 0 
z
" id="ArialMT-122"/>
     <path d="M 6.59375 0 
L 6.59375 51.859375 
L 14.5 51.859375 
L 14.5 44.484375 
Q 20.21875 53.03125 31 53.03125 
Q 35.6875 53.03125 39.625 51.34375 
Q 43.5625 49.65625 45.515625 46.921875 
Q 47.46875 44.1875 48.25 40.4375 
Q 48.734375 37.984375 48.734375 31.890625 
L 48.734375 0 
L 39.9375 0 
L 39.9375 31.546875 
Q 39.9375 36.921875 38.90625 39.578125 
Q 37.890625 42.234375 35.28125 43.8125 
Q 32.671875 45.40625 29.15625 45.40625 
Q 23.53125 45.40625 19.453125 41.84375 
Q 15.375 38.28125 15.375 28.328125 
L 15.375 0 
z
" id="ArialMT-110"/>
    </defs>
    <g style="fill:#262626;" transform="translate(310.046574 166.867229)scale(0.1 -0.1)">
     <use xlink:href="#ArialMT-122"/>
     <use x="50" xlink:href="#ArialMT-110"/>
     <use x="105.615234" xlink:href="#ArialMT-50"/>
    </g>
   </g>
   <g id="text_9">
    <!-- k -->
    <defs>
     <path d="M 6.640625 0 
L 6.640625 71.578125 
L 15.4375 71.578125 
L 15.4375 30.765625 
L 36.234375 51.859375 
L 47.609375 51.859375 
L 27.78125 32.625 
L 49.609375 0 
L 38.765625 0 
L 21.625 26.515625 
L 15.4375 20.5625 
L 15.4375 0 
z
" id="ArialMT-107"/>
    </defs>
    <g style="fill:#262626;" transform="translate(292.786651 77.599824)scale(0.1 -0.1)">
     <use xlink:href="#ArialMT-107"/>
    </g>
   </g>
   <g id="text_10">
    <!-- mg2 -->
    <defs>
     <path d="M 6.59375 0 
L 6.59375 51.859375 
L 14.453125 51.859375 
L 14.453125 44.578125 
Q 16.890625 48.390625 20.9375 50.703125 
Q 25 53.03125 30.171875 53.03125 
Q 35.9375 53.03125 39.625 50.640625 
Q 43.3125 48.25 44.828125 43.953125 
Q 50.984375 53.03125 60.84375 53.03125 
Q 68.5625 53.03125 72.703125 48.75 
Q 76.859375 44.484375 76.859375 35.59375 
L 76.859375 0 
L 68.109375 0 
L 68.109375 32.671875 
Q 68.109375 37.9375 67.25 40.25 
Q 66.40625 42.578125 64.15625 43.984375 
Q 61.921875 45.40625 58.890625 45.40625 
Q 53.421875 45.40625 49.796875 41.765625 
Q 46.1875 38.140625 46.1875 30.125 
L 46.1875 0 
L 37.40625 0 
L 37.40625 33.6875 
Q 37.40625 39.546875 35.25 42.46875 
Q 33.109375 45.40625 28.21875 45.40625 
Q 24.515625 45.40625 21.359375 43.453125 
Q 18.21875 41.5 16.796875 37.734375 
Q 15.375 33.984375 15.375 26.90625 
L 15.375 0 
z
" id="ArialMT-109"/>
    </defs>
    <g style="fill:#262626;" transform="translate(184.127404 298.226441)scale(0.1 -0.1)">
     <use xlink:href="#ArialMT-109"/>
     <use x="83.300781" xlink:href="#ArialMT-103"/>
     <use x="138.916016" xlink:href="#ArialMT-50"/>
    </g>
   </g>
   <g id="text_11">
    <!-- 6pgc -->
    <defs>
     <path d="M 49.75 54.046875 
L 41.015625 53.375 
Q 39.84375 58.546875 37.703125 60.890625 
Q 34.125 64.65625 28.90625 64.65625 
Q 24.703125 64.65625 21.53125 62.3125 
Q 17.390625 59.28125 14.984375 53.46875 
Q 12.59375 47.65625 12.5 36.921875 
Q 15.671875 41.75 20.265625 44.09375 
Q 24.859375 46.4375 29.890625 46.4375 
Q 38.671875 46.4375 44.84375 39.96875 
Q 51.03125 33.5 51.03125 23.25 
Q 51.03125 16.5 48.125 10.71875 
Q 45.21875 4.9375 40.140625 1.859375 
Q 35.0625 -1.21875 28.609375 -1.21875 
Q 17.625 -1.21875 10.6875 6.859375 
Q 3.765625 14.9375 3.765625 33.5 
Q 3.765625 54.25 11.421875 63.671875 
Q 18.109375 71.875 29.4375 71.875 
Q 37.890625 71.875 43.28125 67.140625 
Q 48.6875 62.40625 49.75 54.046875 
z
M 13.875 23.1875 
Q 13.875 18.65625 15.796875 14.5 
Q 17.71875 10.359375 21.1875 8.171875 
Q 24.65625 6 28.46875 6 
Q 34.03125 6 38.03125 10.484375 
Q 42.046875 14.984375 42.046875 22.703125 
Q 42.046875 30.125 38.078125 34.390625 
Q 34.125 38.671875 28.125 38.671875 
Q 22.171875 38.671875 18.015625 34.390625 
Q 13.875 30.125 13.875 23.1875 
z
" id="ArialMT-54"/>
     <path d="M 40.4375 19 
L 49.078125 17.875 
Q 47.65625 8.9375 41.8125 3.875 
Q 35.984375 -1.171875 27.484375 -1.171875 
Q 16.84375 -1.171875 10.375 5.78125 
Q 3.90625 12.75 3.90625 25.734375 
Q 3.90625 34.125 6.6875 40.421875 
Q 9.46875 46.734375 15.15625 49.875 
Q 20.84375 53.03125 27.546875 53.03125 
Q 35.984375 53.03125 41.359375 48.75 
Q 46.734375 44.484375 48.25 36.625 
L 39.703125 35.296875 
Q 38.484375 40.53125 35.375 43.15625 
Q 32.28125 45.796875 27.875 45.796875 
Q 21.234375 45.796875 17.078125 41.03125 
Q 12.9375 36.28125 12.9375 25.984375 
Q 12.9375 15.53125 16.9375 10.796875 
Q 20.953125 6.0625 27.390625 6.0625 
Q 32.5625 6.0625 36.03125 9.234375 
Q 39.5 12.40625 40.4375 19 
z
" id="ArialMT-99"/>
    </defs>
    <g style="fill:#262626;" transform="translate(39.807309 241.715889)scale(0.1 -0.1)">
     <use xlink:href="#ArialMT-54"/>
     <use x="55.615234" xlink:href="#ArialMT-112"/>
     <use x="111.230469" xlink:href="#ArialMT-103"/>
     <use x="166.845703" xlink:href="#ArialMT-99"/>
    </g>
   </g>
   <g id="text_12">
    <!-- cit -->
    <g style="fill:#262626;" transform="translate(229.954304 243.178076)scale(0.1 -0.1)">
     <use xlink:href="#ArialMT-99"/>
     <use x="50" xlink:href="#ArialMT-105"/>
     <use x="72.216797" xlink:href="#ArialMT-116"/>
    </g>
   </g>
   <g id="text_13">
    <!-- icit -->
    <g style="fill:#262626;" transform="translate(144.76315 317.454646)scale(0.1 -0.1)">
     <use xlink:href="#ArialMT-105"/>
     <use x="22.216797" xlink:href="#ArialMT-99"/>
     <use x="72.216797" xlink:href="#ArialMT-105"/>
     <use x="94.433594" xlink:href="#ArialMT-116"/>
    </g>
   </g>
   <g id="text_14">
    <!-- na1 -->
    <defs>
     <path d="M 37.25 0 
L 28.46875 0 
L 28.46875 56 
Q 25.296875 52.984375 20.140625 49.953125 
Q 14.984375 46.921875 10.890625 45.40625 
L 10.890625 53.90625 
Q 18.265625 57.375 23.78125 62.296875 
Q 29.296875 67.234375 31.59375 71.875 
L 37.25 71.875 
z
" id="ArialMT-49"/>
    </defs>
    <g style="fill:#262626;" transform="translate(538.830741 240.042775)scale(0.1 -0.1)">
     <use xlink:href="#ArialMT-110"/>
     <use x="55.615234" xlink:href="#ArialMT-97"/>
     <use x="111.230469" xlink:href="#ArialMT-49"/>
    </g>
   </g>
   <g id="text_15">
    <!-- f6p -->
    <defs>
     <path d="M 8.6875 0 
L 8.6875 45.015625 
L 0.921875 45.015625 
L 0.921875 51.859375 
L 8.6875 51.859375 
L 8.6875 57.375 
Q 8.6875 62.59375 9.625 65.140625 
Q 10.890625 68.5625 14.078125 70.671875 
Q 17.28125 72.796875 23.046875 72.796875 
Q 26.765625 72.796875 31.25 71.921875 
L 29.9375 64.265625 
Q 27.203125 64.75 24.75 64.75 
Q 20.75 64.75 19.09375 63.03125 
Q 17.4375 61.328125 17.4375 56.640625 
L 17.4375 51.859375 
L 27.546875 51.859375 
L 27.546875 45.015625 
L 17.4375 45.015625 
L 17.4375 0 
z
" id="ArialMT-102"/>
    </defs>
    <g style="fill:#262626;" transform="translate(476.18244 346.903302)scale(0.1 -0.1)">
     <use xlink:href="#ArialMT-102"/>
     <use x="27.783203" xlink:href="#ArialMT-54"/>
     <use x="83.398438" xlink:href="#ArialMT-112"/>
    </g>
   </g>
   <g id="text_16">
    <!-- asp__L -->
    <g style="fill:#262626;" transform="translate(54.135772 97.617756)scale(0.1 -0.1)">
     <use xlink:href="#ArialMT-97"/>
     <use x="55.615234" xlink:href="#ArialMT-115"/>
     <use x="105.615234" xlink:href="#ArialMT-112"/>
     <use x="161.230469" xlink:href="#ArialMT-95"/>
     <use x="216.845703" xlink:href="#ArialMT-95"/>
     <use x="272.460938" xlink:href="#ArialMT-76"/>
    </g>
   </g>
   <g id="text_17">
    <!-- mn2 -->
    <g style="fill:#262626;" transform="translate(281.88559 246.778391)scale(0.1 -0.1)">
     <use xlink:href="#ArialMT-109"/>
     <use x="83.300781" xlink:href="#ArialMT-110"/>
     <use x="138.916016" xlink:href="#ArialMT-50"/>
    </g>
   </g>
   <g id="text_18">
    <!-- g1p -->
    <g style="fill:#262626;" transform="translate(529.592876 175.210744)scale(0.1 -0.1)">
     <use xlink:href="#ArialMT-103"/>
     <use x="55.615234" xlink:href="#ArialMT-49"/>
     <use x="111.230469" xlink:href="#ArialMT-112"/>
    </g>
   </g>
   <g id="text_19">
    <!-- acnam -->
    <g style="fill:#262626;" transform="translate(57.258484 40.276199)scale(0.1 -0.1)">
     <use xlink:href="#ArialMT-97"/>
     <use x="55.615234" xlink:href="#ArialMT-99"/>
     <use x="105.615234" xlink:href="#ArialMT-110"/>
     <use x="161.230469" xlink:href="#ArialMT-97"/>
     <use x="216.845703" xlink:href="#ArialMT-109"/>
    </g>
   </g>
   <g id="text_20">
    <!-- g6p -->
    <g style="fill:#262626;" transform="translate(520.504176 299.165324)scale(0.1 -0.1)">
     <use xlink:href="#ArialMT-103"/>
     <use x="55.615234" xlink:href="#ArialMT-54"/>
     <use x="111.230469" xlink:href="#ArialMT-112"/>
    </g>
   </g>
   <g id="text_21">
    <!-- adn -->
    <g style="fill:#262626;" transform="translate(168.725091 -5.444951)scale(0.1 -0.1)">
     <use xlink:href="#ArialMT-97"/>
     <use x="55.615234" xlink:href="#ArialMT-100"/>
     <use x="111.230469" xlink:href="#ArialMT-110"/>
    </g>
   </g>
   <g id="text_22">
    <!-- pep -->
    <defs>
     <path d="M 42.09375 16.703125 
L 51.171875 15.578125 
Q 49.03125 7.625 43.21875 3.21875 
Q 37.40625 -1.171875 28.375 -1.171875 
Q 17 -1.171875 10.328125 5.828125 
Q 3.65625 12.84375 3.65625 25.484375 
Q 3.65625 38.578125 10.390625 45.796875 
Q 17.140625 53.03125 27.875 53.03125 
Q 38.28125 53.03125 44.875 45.953125 
Q 51.46875 38.875 51.46875 26.03125 
Q 51.46875 25.25 51.421875 23.6875 
L 12.75 23.6875 
Q 13.234375 15.140625 17.578125 10.59375 
Q 21.921875 6.0625 28.421875 6.0625 
Q 33.25 6.0625 36.671875 8.59375 
Q 40.09375 11.140625 42.09375 16.703125 
z
M 13.234375 30.90625 
L 42.1875 30.90625 
Q 41.609375 37.453125 38.875 40.71875 
Q 34.671875 45.796875 27.984375 45.796875 
Q 21.921875 45.796875 17.796875 41.75 
Q 13.671875 37.703125 13.234375 30.90625 
z
" id="ArialMT-101"/>
    </defs>
    <g style="fill:#262626;" transform="translate(80.947974 294.904908)scale(0.1 -0.1)">
     <use xlink:href="#ArialMT-112"/>
     <use x="55.615234" xlink:href="#ArialMT-101"/>
     <use x="111.230469" xlink:href="#ArialMT-112"/>
    </g>
   </g>
   <g id="text_23">
    <!-- pser__L -->
    <g style="fill:#262626;" transform="translate(107.481703 72.730818)scale(0.1 -0.1)">
     <use xlink:href="#ArialMT-112"/>
     <use x="55.615234" xlink:href="#ArialMT-115"/>
     <use x="105.615234" xlink:href="#ArialMT-101"/>
     <use x="161.230469" xlink:href="#ArialMT-114"/>
     <use x="194.53125" xlink:href="#ArialMT-95"/>
     <use x="250.146484" xlink:href="#ArialMT-95"/>
     <use x="305.761719" xlink:href="#ArialMT-76"/>
    </g>
   </g>
   <g id="text_24">
    <!-- cd2 -->
    <g style="fill:#262626;" transform="translate(264.601483 29.524144)scale(0.1 -0.1)">
     <use xlink:href="#ArialMT-99"/>
     <use x="50" xlink:href="#ArialMT-100"/>
     <use x="105.615234" xlink:href="#ArialMT-50"/>
    </g>
   </g>
   <g id="text_25">
    <!-- pyr -->
    <defs>
     <path d="M 6.203125 -19.96875 
L 5.21875 -11.71875 
Q 8.109375 -12.5 10.25 -12.5 
Q 13.1875 -12.5 14.9375 -11.515625 
Q 16.703125 -10.546875 17.828125 -8.796875 
Q 18.65625 -7.46875 20.515625 -2.25 
Q 20.75 -1.515625 21.296875 -0.09375 
L 1.609375 51.859375 
L 11.078125 51.859375 
L 21.875 21.828125 
Q 23.96875 16.109375 25.640625 9.8125 
Q 27.15625 15.875 29.25 21.625 
L 40.328125 51.859375 
L 49.125 51.859375 
L 29.390625 -0.875 
Q 26.21875 -9.421875 24.46875 -12.640625 
Q 22.125 -17 19.09375 -19.015625 
Q 16.0625 -21.046875 11.859375 -21.046875 
Q 9.328125 -21.046875 6.203125 -19.96875 
z
" id="ArialMT-121"/>
    </defs>
    <g style="fill:#262626;" transform="translate(21.88254 126.295989)scale(0.1 -0.1)">
     <use xlink:href="#ArialMT-112"/>
     <use x="55.615234" xlink:href="#ArialMT-121"/>
     <use x="105.615234" xlink:href="#ArialMT-114"/>
    </g>
   </g>
   <g id="text_26">
    <!-- man6p -->
    <g style="fill:#262626;" transform="translate(71.332214 166.972997)scale(0.1 -0.1)">
     <use xlink:href="#ArialMT-109"/>
     <use x="83.300781" xlink:href="#ArialMT-97"/>
     <use x="138.916016" xlink:href="#ArialMT-110"/>
     <use x="194.53125" xlink:href="#ArialMT-54"/>
     <use x="250.146484" xlink:href="#ArialMT-112"/>
    </g>
   </g>
   <g id="text_27">
    <!-- gmp -->
    <g style="fill:#262626;" transform="translate(20.742037 188.475044)scale(0.1 -0.1)">
     <use xlink:href="#ArialMT-103"/>
     <use x="55.615234" xlink:href="#ArialMT-109"/>
     <use x="138.916016" xlink:href="#ArialMT-112"/>
    </g>
   </g>
   <g id="text_28">
    <!-- leu__L -->
    <defs>
     <path d="M 6.390625 0 
L 6.390625 71.578125 
L 15.1875 71.578125 
L 15.1875 0 
z
" id="ArialMT-108"/>
     <path d="M 40.578125 0 
L 40.578125 7.625 
Q 34.515625 -1.171875 24.125 -1.171875 
Q 19.53125 -1.171875 15.546875 0.578125 
Q 11.578125 2.34375 9.640625 5 
Q 7.71875 7.671875 6.9375 11.53125 
Q 6.390625 14.109375 6.390625 19.734375 
L 6.390625 51.859375 
L 15.1875 51.859375 
L 15.1875 23.09375 
Q 15.1875 16.21875 15.71875 13.8125 
Q 16.546875 10.359375 19.234375 8.375 
Q 21.921875 6.390625 25.875 6.390625 
Q 29.828125 6.390625 33.296875 8.421875 
Q 36.765625 10.453125 38.203125 13.9375 
Q 39.65625 17.4375 39.65625 24.078125 
L 39.65625 51.859375 
L 48.4375 51.859375 
L 48.4375 0 
z
" id="ArialMT-117"/>
    </defs>
    <g style="fill:#262626;" transform="translate(96.263038 243.778726)scale(0.1 -0.1)">
     <use xlink:href="#ArialMT-108"/>
     <use x="22.216797" xlink:href="#ArialMT-101"/>
     <use x="77.832031" xlink:href="#ArialMT-117"/>
     <use x="133.447266" xlink:href="#ArialMT-95"/>
     <use x="189.0625" xlink:href="#ArialMT-95"/>
     <use x="244.677734" xlink:href="#ArialMT-76"/>
    </g>
   </g>
   <g id="text_29">
    <!-- 3amp -->
    <defs>
     <path d="M 4.203125 18.890625 
L 12.984375 20.0625 
Q 14.5 12.59375 18.140625 9.296875 
Q 21.78125 6 27 6 
Q 33.203125 6 37.46875 10.296875 
Q 41.75 14.59375 41.75 20.953125 
Q 41.75 27 37.796875 30.921875 
Q 33.84375 34.859375 27.734375 34.859375 
Q 25.25 34.859375 21.53125 33.890625 
L 22.515625 41.609375 
Q 23.390625 41.5 23.921875 41.5 
Q 29.546875 41.5 34.03125 44.421875 
Q 38.53125 47.359375 38.53125 53.46875 
Q 38.53125 58.296875 35.25 61.46875 
Q 31.984375 64.65625 26.8125 64.65625 
Q 21.6875 64.65625 18.265625 61.421875 
Q 14.84375 58.203125 13.875 51.765625 
L 5.078125 53.328125 
Q 6.6875 62.15625 12.390625 67.015625 
Q 18.109375 71.875 26.609375 71.875 
Q 32.46875 71.875 37.390625 69.359375 
Q 42.328125 66.84375 44.9375 62.5 
Q 47.5625 58.15625 47.5625 53.265625 
Q 47.5625 48.640625 45.0625 44.828125 
Q 42.578125 41.015625 37.703125 38.765625 
Q 44.046875 37.3125 47.5625 32.6875 
Q 51.078125 28.078125 51.078125 21.140625 
Q 51.078125 11.765625 44.234375 5.25 
Q 37.40625 -1.265625 26.953125 -1.265625 
Q 17.53125 -1.265625 11.296875 4.34375 
Q 5.078125 9.96875 4.203125 18.890625 
z
" id="ArialMT-51"/>
    </defs>
    <g style="fill:#262626;" transform="translate(208.000214 18.346947)scale(0.1 -0.1)">
     <use xlink:href="#ArialMT-51"/>
     <use x="55.615234" xlink:href="#ArialMT-97"/>
     <use x="111.230469" xlink:href="#ArialMT-109"/>
     <use x="194.53125" xlink:href="#ArialMT-112"/>
    </g>
   </g>
   <g id="text_30">
    <!-- met__L -->
    <g style="fill:#262626;" transform="translate(307.995144 260.67421)scale(0.1 -0.1)">
     <use xlink:href="#ArialMT-109"/>
     <use x="83.300781" xlink:href="#ArialMT-101"/>
     <use x="138.916016" xlink:href="#ArialMT-116"/>
     <use x="166.699219" xlink:href="#ArialMT-95"/>
     <use x="222.314453" xlink:href="#ArialMT-95"/>
     <use x="277.929688" xlink:href="#ArialMT-76"/>
    </g>
   </g>
  </g>
 </g>
 <defs>
  <clipPath id="p91a40e2eae">
   <rect height="396" width="576" x="0" y="0"/>
  </clipPath>
 </defs>
</svg>
