<?xml version="1.0" encoding="utf-8" standalone="no"?>
<!DOCTYPE svg PUBLIC "-//W3C//DTD SVG 1.1//EN"
  "http://www.w3.org/Graphics/SVG/1.1/DTD/svg11.dtd">
<svg xmlns:xlink="http://www.w3.org/1999/xlink" width="432pt" height="288pt" viewBox="0 0 432 288" xmlns="http://www.w3.org/2000/svg" version="1.1">
 <metadata>
  <rdf:RDF xmlns:dc="http://purl.org/dc/elements/1.1/" xmlns:cc="http://creativecommons.org/ns#" xmlns:rdf="http://www.w3.org/1999/02/22-rdf-syntax-ns#">
   <cc:Work>
    <dc:type rdf:resource="http://purl.org/dc/dcmitype/StillImage"/>
    <dc:date>2022-05-16T08:48:05.651166</dc:date>
    <dc:format>image/svg+xml</dc:format>
    <dc:creator>
     <cc:Agent>
      <dc:title>Matplotlib v3.5.1, https://matplotlib.org/</dc:title>
     </cc:Agent>
    </dc:creator>
   </cc:Work>
  </rdf:RDF>
 </metadata>
 <defs>
  <style type="text/css">*{stroke-linejoin: round; stroke-linecap: butt}</style>
 </defs>
 <g id="figure_1">
  <g id="patch_1">
   <path d="M 0 288 
L 432 288 
L 432 0 
L 0 0 
L 0 288 
z
" style="fill: none"/>
  </g>
  <g id="axes_1">
   <g id="patch_2">
    <path d="M 54 252 
L 388.8 252 
L 388.8 34.56 
L 54 34.56 
z
" style="fill: #ffffff"/>
   </g>
   <g id="PathCollection_1">
    <defs>
     <path id="ma68562a0ac" d="M 0 2.236068 
C 0.593012 2.236068 1.161816 2.000462 1.581139 1.581139 
C 2.000462 1.161816 2.236068 0.593012 2.236068 0 
C 2.236068 -0.593012 2.000462 -1.161816 1.581139 -1.581139 
C 1.161816 -2.000462 0.593012 -2.236068 0 -2.236068 
C -0.593012 -2.236068 -1.161816 -2.000462 -1.581139 -1.581139 
C -2.000462 -1.161816 -2.236068 -0.593012 -2.236068 0 
C -2.236068 0.593012 -2.000462 1.161816 -1.581139 1.581139 
C -1.161816 2.000462 -0.593012 2.236068 0 2.236068 
z
" style="stroke: #1f77b4"/>
    </defs>
    <g clip-path="url(#p544c20e6ef)">
     <use xlink:href="#ma68562a0ac" x="69.218182" y="203.93781" style="fill: #1f77b4; stroke: #1f77b4"/>
     <use xlink:href="#ma68562a0ac" x="117.275598" y="199.430127" style="fill: #1f77b4; stroke: #1f77b4"/>
     <use xlink:href="#ma68562a0ac" x="138.63445" y="180.282471" style="fill: #1f77b4; stroke: #1f77b4"/>
     <use xlink:href="#ma68562a0ac" x="154.653589" y="179.391968" style="fill: #1f77b4; stroke: #1f77b4"/>
     <use xlink:href="#ma68562a0ac" x="181.352153" y="182.661764" style="fill: #1f77b4; stroke: #1f77b4"/>
     <use xlink:href="#ma68562a0ac" x="202.711005" y="168.362" style="fill: #1f77b4; stroke: #1f77b4"/>
     <use xlink:href="#ma68562a0ac" x="208.050718" y="172.181908" style="fill: #1f77b4; stroke: #1f77b4"/>
     <use xlink:href="#ma68562a0ac" x="213.390431" y="157.703538" style="fill: #1f77b4; stroke: #1f77b4"/>
     <use xlink:href="#ma68562a0ac" x="240.088995" y="178.930861" style="fill: #1f77b4; stroke: #1f77b4"/>
     <use xlink:href="#ma68562a0ac" x="245.428708" y="176.809716" style="fill: #1f77b4; stroke: #1f77b4"/>
     <use xlink:href="#ma68562a0ac" x="245.428708" y="176.090759" style="fill: #1f77b4; stroke: #1f77b4"/>
     <use xlink:href="#ma68562a0ac" x="325.524402" y="135.256255" style="fill: #1f77b4; stroke: #1f77b4"/>
     <use xlink:href="#ma68562a0ac" x="357.562679" y="107.485962" style="fill: #1f77b4; stroke: #1f77b4"/>
     <use xlink:href="#ma68562a0ac" x="362.902392" y="147.485745" style="fill: #1f77b4; stroke: #1f77b4"/>
     <use xlink:href="#ma68562a0ac" x="362.902392" y="44.443636" style="fill: #1f77b4; stroke: #1f77b4"/>
     <use xlink:href="#ma68562a0ac" x="373.581818" y="176.37013" style="fill: #1f77b4; stroke: #1f77b4"/>
    </g>
   </g>
   <g id="matplotlib.axis_1">
    <g id="xtick_1">
     <g id="line2d_1">
      <defs>
       <path id="m529a096930" d="M 0 0 
L 0 3.5 
" style="stroke: #000000; stroke-width: 0.8"/>
      </defs>
      <g>
       <use xlink:href="#m529a096930" x="63.878469" y="252" style="stroke: #000000; stroke-width: 0.8"/>
      </g>
     </g>
     <g id="text_1">
      <text style="font: 10px 'sans-serif'; text-anchor: middle" x="63.878469" y="266.598437" transform="rotate(-0, 63.878469, 266.598437)">0.00</text>
     </g>
    </g>
    <g id="xtick_2">
     <g id="line2d_2">
      <g>
       <use xlink:href="#m529a096930" x="134.255885" y="252" style="stroke: #000000; stroke-width: 0.8"/>
      </g>
     </g>
     <g id="text_2">
      <text style="font: 10px 'sans-serif'; text-anchor: middle" x="134.255885" y="266.598437" transform="rotate(-0, 134.255885, 266.598437)">0.02</text>
     </g>
    </g>
    <g id="xtick_3">
     <g id="line2d_3">
      <g>
       <use xlink:href="#m529a096930" x="204.633301" y="252" style="stroke: #000000; stroke-width: 0.8"/>
      </g>
     </g>
     <g id="text_3">
      <text style="font: 10px 'sans-serif'; text-anchor: middle" x="204.633301" y="266.598437" transform="rotate(-0, 204.633301, 266.598437)">0.04</text>
     </g>
    </g>
    <g id="xtick_4">
     <g id="line2d_4">
      <g>
       <use xlink:href="#m529a096930" x="275.010718" y="252" style="stroke: #000000; stroke-width: 0.8"/>
      </g>
     </g>
     <g id="text_4">
      <text style="font: 10px 'sans-serif'; text-anchor: middle" x="275.010718" y="266.598437" transform="rotate(-0, 275.010718, 266.598437)">0.06</text>
     </g>
    </g>
    <g id="xtick_5">
     <g id="line2d_5">
      <g>
       <use xlink:href="#m529a096930" x="345.388134" y="252" style="stroke: #000000; stroke-width: 0.8"/>
      </g>
     </g>
     <g id="text_5">
      <text style="font: 10px 'sans-serif'; text-anchor: middle" x="345.388134" y="266.598437" transform="rotate(-0, 345.388134, 266.598437)">0.08</text>
     </g>
    </g>
    <g id="text_6">
     <text style="font: 10px 'sans-serif'; text-anchor: middle" x="221.4" y="279.998438" transform="rotate(-0, 221.4, 279.998438)">met_comp</text>
    </g>
   </g>
   <g id="matplotlib.axis_2">
    <g id="ytick_1">
     <g id="line2d_6">
      <defs>
       <path id="m7d4e39f9c4" d="M 0 0 
L -3.5 0 
" style="stroke: #000000; stroke-width: 0.8"/>
      </defs>
      <g>
       <use xlink:href="#m7d4e39f9c4" x="54" y="245.303063" style="stroke: #000000; stroke-width: 0.8"/>
      </g>
     </g>
     <g id="text_7">
      <text style="font: 10px 'sans-serif'; text-anchor: end" x="47" y="249.102281" transform="rotate(-0, 47, 249.102281)">−20</text>
     </g>
    </g>
    <g id="ytick_2">
     <g id="line2d_7">
      <g>
       <use xlink:href="#m7d4e39f9c4" x="54" y="203.438169" style="stroke: #000000; stroke-width: 0.8"/>
      </g>
     </g>
     <g id="text_8">
      <text style="font: 10px 'sans-serif'; text-anchor: end" x="47" y="207.237388" transform="rotate(-0, 47, 207.237388)">0</text>
     </g>
    </g>
    <g id="ytick_3">
     <g id="line2d_8">
      <g>
       <use xlink:href="#m7d4e39f9c4" x="54" y="161.573276" style="stroke: #000000; stroke-width: 0.8"/>
      </g>
     </g>
     <g id="text_9">
      <text style="font: 10px 'sans-serif'; text-anchor: end" x="47" y="165.372495" transform="rotate(-0, 47, 165.372495)">20</text>
     </g>
    </g>
    <g id="ytick_4">
     <g id="line2d_9">
      <g>
       <use xlink:href="#m7d4e39f9c4" x="54" y="119.708383" style="stroke: #000000; stroke-width: 0.8"/>
      </g>
     </g>
     <g id="text_10">
      <text style="font: 10px 'sans-serif'; text-anchor: end" x="47" y="123.507602" transform="rotate(-0, 47, 123.507602)">40</text>
     </g>
    </g>
    <g id="ytick_5">
     <g id="line2d_10">
      <g>
       <use xlink:href="#m7d4e39f9c4" x="54" y="77.84349" style="stroke: #000000; stroke-width: 0.8"/>
      </g>
     </g>
     <g id="text_11">
      <text style="font: 10px 'sans-serif'; text-anchor: end" x="47" y="81.642708" transform="rotate(-0, 47, 81.642708)">60</text>
     </g>
    </g>
    <g id="ytick_6">
     <g id="line2d_11">
      <g>
       <use xlink:href="#m7d4e39f9c4" x="54" y="35.978596" style="stroke: #000000; stroke-width: 0.8"/>
      </g>
     </g>
     <g id="text_12">
      <text style="font: 10px 'sans-serif'; text-anchor: end" x="47" y="39.777815" transform="rotate(-0, 47, 39.777815)">80</text>
     </g>
    </g>
    <g id="text_13">
     <text style="font: 10px 'sans-serif'; text-anchor: middle" x="19.815625" y="143.28" transform="rotate(-90, 19.815625, 143.28)">change</text>
    </g>
   </g>
   <g id="line2d_12">
    <path d="M 69.218182 210.143104 
L 117.275598 196.295514 
L 138.63445 190.14103 
L 154.653589 185.525167 
L 181.352153 177.832062 
L 202.711005 171.677578 
L 208.050718 170.138956 
L 213.390431 168.600335 
L 240.088995 160.90723 
L 245.428708 159.368609 
L 245.428708 159.368609 
L 325.524402 136.289293 
L 357.562679 127.057567 
L 362.902392 125.518946 
L 362.902392 125.518946 
L 373.581818 122.441704 
" clip-path="url(#p544c20e6ef)" style="fill: none; stroke-dasharray: 5.55,2.4; stroke-dashoffset: 0; stroke: #1f77b4; stroke-width: 1.5"/>
   </g>
   <g id="line2d_13">
    <path d="M 69.218182 242.116364 
L 117.275598 221.55867 
L 138.63445 212.693763 
L 154.653589 206.213813 
L 181.352153 195.867786 
L 202.711005 188.156359 
L 208.050718 186.327447 
L 213.390431 184.542879 
L 240.088995 176.346131 
L 245.428708 174.858611 
L 245.428708 174.858611 
L 325.524402 157.580327 
L 357.562679 152.320722 
L 362.902392 151.491597 
L 362.902392 151.491597 
L 373.581818 149.864746 
" clip-path="url(#p544c20e6ef)" style="fill: none; stroke-dasharray: 5.55,2.4; stroke-dashoffset: 0; stroke: #ff7f0e; stroke-width: 1.5"/>
   </g>
   <g id="line2d_14">
    <path d="M 69.218182 178.169844 
L 117.275598 171.032359 
L 138.63445 167.588298 
L 154.653589 164.836521 
L 181.352153 159.796338 
L 202.711005 155.198796 
L 208.050718 153.950466 
L 213.390431 152.657792 
L 240.088995 145.468329 
L 245.428708 143.878607 
L 245.428708 143.878607 
L 325.524402 114.998259 
L 357.562679 101.794412 
L 362.902392 99.546295 
L 362.902392 99.546295 
L 373.581818 95.018661 
" clip-path="url(#p544c20e6ef)" style="fill: none; stroke-dasharray: 5.55,2.4; stroke-dashoffset: 0; stroke: #2ca02c; stroke-width: 1.5"/>
   </g>
   <g id="patch_3">
    <path d="M 54 252 
L 54 34.56 
" style="fill: none; stroke: #000000; stroke-width: 0.8; stroke-linejoin: miter; stroke-linecap: square"/>
   </g>
   <g id="patch_4">
    <path d="M 388.8 252 
L 388.8 34.56 
" style="fill: none; stroke: #000000; stroke-width: 0.8; stroke-linejoin: miter; stroke-linecap: square"/>
   </g>
   <g id="patch_5">
    <path d="M 54 252 
L 388.8 252 
" style="fill: none; stroke: #000000; stroke-width: 0.8; stroke-linejoin: miter; stroke-linecap: square"/>
   </g>
   <g id="patch_6">
    <path d="M 54 34.56 
L 388.8 34.56 
" style="fill: none; stroke: #000000; stroke-width: 0.8; stroke-linejoin: miter; stroke-linecap: square"/>
   </g>
   <g id="text_14">
    <text style="font: 10px 'sans-serif'; text-anchor: start" x="76.255923" y="203.93781" transform="rotate(-0, 76.255923, 203.93781)">Cys</text>
   </g>
   <g id="text_15">
    <text style="font: 10px 'sans-serif'; text-anchor: start" x="124.31334" y="199.430127" transform="rotate(-0, 124.31334, 199.430127)">Met</text>
   </g>
   <g id="text_16">
    <text style="font: 10px 'sans-serif'; text-anchor: start" x="145.672191" y="180.282471" transform="rotate(-0, 145.672191, 180.282471)">Trp</text>
   </g>
   <g id="text_17">
    <text style="font: 10px 'sans-serif'; text-anchor: start" x="161.69133" y="179.391968" transform="rotate(-0, 161.69133, 179.391968)">His</text>
   </g>
   <g id="text_18">
    <text style="font: 10px 'sans-serif'; text-anchor: start" x="188.389895" y="182.661764" transform="rotate(-0, 188.389895, 182.661764)">Arg</text>
   </g>
   <g id="text_19">
    <text style="font: 10px 'sans-serif'; text-anchor: start" x="209.748746" y="168.362" transform="rotate(-0, 209.748746, 168.362)">Pro</text>
   </g>
   <g id="text_20">
    <text style="font: 10px 'sans-serif'; text-anchor: start" x="215.088459" y="172.181908" transform="rotate(-0, 215.088459, 172.181908)">Phe</text>
   </g>
   <g id="text_21">
    <text style="font: 10px 'sans-serif'; text-anchor: start" x="220.428172" y="157.703538" transform="rotate(-0, 220.428172, 157.703538)">Tyr</text>
   </g>
   <g id="text_22">
    <text style="font: 10px 'sans-serif'; text-anchor: start" x="247.126737" y="178.930861" transform="rotate(-0, 247.126737, 178.930861)">Val</text>
   </g>
   <g id="text_23">
    <text style="font: 10px 'sans-serif'; text-anchor: start" x="252.46645" y="176.809716" transform="rotate(-0, 252.46645, 176.809716)">Ile</text>
   </g>
   <g id="text_24">
    <text style="font: 10px 'sans-serif'; text-anchor: start" x="252.46645" y="176.090759" transform="rotate(-0, 252.46645, 176.090759)">Lys</text>
   </g>
   <g id="text_25">
    <text style="font: 10px 'sans-serif'; text-anchor: start" x="332.562144" y="135.256255" transform="rotate(-0, 332.562144, 135.256255)">Thr</text>
   </g>
   <g id="text_26">
    <text style="font: 10px 'sans-serif'; text-anchor: start" x="364.600421" y="107.485962" transform="rotate(-0, 364.600421, 107.485962)">Asn</text>
   </g>
   <g id="text_27">
    <text style="font: 10px 'sans-serif'; text-anchor: start" x="369.940134" y="147.485745" transform="rotate(-0, 369.940134, 147.485745)">Gly</text>
   </g>
   <g id="text_28">
    <text style="font: 10px 'sans-serif'; text-anchor: start" x="369.940134" y="44.443636" transform="rotate(-0, 369.940134, 44.443636)">Ser</text>
   </g>
   <g id="text_29">
    <text style="font: 10px 'sans-serif'; text-anchor: start" x="380.61956" y="176.37013" transform="rotate(-0, 380.61956, 176.37013)">Ala</text>
   </g>
  </g>
 </g>
 <defs>
  <clipPath id="p544c20e6ef">
   <rect x="54" y="34.56" width="334.8" height="217.44"/>
  </clipPath>
 </defs>
</svg>
