<?xml version="1.0" encoding="utf-8" standalone="no"?>
<!DOCTYPE svg PUBLIC "-//W3C//DTD SVG 1.1//EN"
  "http://www.w3.org/Graphics/SVG/1.1/DTD/svg11.dtd">
<!-- Created with matplotlib (https://matplotlib.org/) -->
<svg height="360pt" version="1.1" viewBox="0 0 216 360" width="216pt" xmlns="http://www.w3.org/2000/svg" xmlns:xlink="http://www.w3.org/1999/xlink">
 <defs>
  <style type="text/css">
*{stroke-linecap:butt;stroke-linejoin:round;}
  </style>
 </defs>
 <g id="figure_1">
  <g id="patch_1">
   <path d="M 0 360 
L 216 360 
L 216 0 
L 0 0 
z
" style="fill:#ffffff;"/>
  </g>
  <g id="axes_1">
   <g id="patch_2">
    <path d="M 27 315 
L 194.4 315 
L 194.4 43.2 
L 27 43.2 
z
" style="fill:#ffffff;"/>
   </g>
   <g id="matplotlib.axis_1">
    <g id="xtick_1">
     <g id="line2d_1">
      <path clip-path="url(#pecf7870caa)" d="M 68.85 315 
L 68.85 43.2 
" style="fill:none;stroke:#b0b0b0;stroke-linecap:square;stroke-width:0.8;"/>
     </g>
     <g id="line2d_2">
      <defs>
       <path d="M 0 0 
L 0 3.5 
" id="mef30eb3ced" style="stroke:#000000;stroke-width:0.8;"/>
      </defs>
      <g>
       <use style="stroke:#000000;stroke-width:0.8;" x="68.85" xlink:href="#mef30eb3ced" y="315"/>
      </g>
     </g>
     <g id="text_1">
      <text style="font-family:DejaVu Sans;font-size:10px;font-style:normal;font-weight:normal;text-anchor:middle;" transform="rotate(-0, 68.85, 329.598437)" x="68.85" y="329.598437">Uptake</text>
     </g>
    </g>
    <g id="xtick_2">
     <g id="line2d_3">
      <path clip-path="url(#pecf7870caa)" d="M 152.55 315 
L 152.55 43.2 
" style="fill:none;stroke:#b0b0b0;stroke-linecap:square;stroke-width:0.8;"/>
     </g>
     <g id="line2d_4">
      <g>
       <use style="stroke:#000000;stroke-width:0.8;" x="152.55" xlink:href="#mef30eb3ced" y="315"/>
      </g>
     </g>
     <g id="text_2">
      <text style="font-family:DejaVu Sans;font-size:10px;font-style:normal;font-weight:normal;text-anchor:middle;" transform="rotate(-0, 152.55, 329.598437)" x="152.55" y="329.598437">Secretion</text>
     </g>
    </g>
   </g>
   <g id="matplotlib.axis_2">
    <g id="ytick_1">
     <g id="line2d_5">
      <path clip-path="url(#pecf7870caa)" d="M 27 315 
L 194.4 315 
" style="fill:none;stroke:#b0b0b0;stroke-linecap:square;stroke-width:0.8;"/>
     </g>
     <g id="line2d_6">
      <defs>
       <path d="M 0 0 
L -3.5 0 
" id="m336748b2b2" style="stroke:#000000;stroke-width:0.8;"/>
      </defs>
      <g>
       <use style="stroke:#000000;stroke-width:0.8;" x="27" xlink:href="#m336748b2b2" y="315"/>
      </g>
     </g>
     <g id="text_3">
      <text style="font-family:DejaVu Sans;font-size:10px;font-style:normal;font-weight:normal;text-anchor:end;" transform="rotate(-0, 20, 318.799219)" x="20" y="318.799219">0.8</text>
     </g>
    </g>
    <g id="ytick_2">
     <g id="line2d_7">
      <path clip-path="url(#pecf7870caa)" d="M 27 278.76 
L 194.4 278.76 
" style="fill:none;stroke:#b0b0b0;stroke-linecap:square;stroke-width:0.8;"/>
     </g>
     <g id="line2d_8">
      <g>
       <use style="stroke:#000000;stroke-width:0.8;" x="27" xlink:href="#m336748b2b2" y="278.76"/>
      </g>
     </g>
     <g id="text_4">
      <text style="font-family:DejaVu Sans;font-size:10px;font-style:normal;font-weight:normal;text-anchor:end;" transform="rotate(-0, 20, 282.559219)" x="20" y="282.559219">0.9</text>
     </g>
    </g>
    <g id="ytick_3">
     <g id="line2d_9">
      <path clip-path="url(#pecf7870caa)" d="M 27 242.52 
L 194.4 242.52 
" style="fill:none;stroke:#b0b0b0;stroke-linecap:square;stroke-width:0.8;"/>
     </g>
     <g id="line2d_10">
      <g>
       <use style="stroke:#000000;stroke-width:0.8;" x="27" xlink:href="#m336748b2b2" y="242.52"/>
      </g>
     </g>
     <g id="text_5">
      <text style="font-family:DejaVu Sans;font-size:10px;font-style:normal;font-weight:normal;text-anchor:end;" transform="rotate(-0, 20, 246.319219)" x="20" y="246.319219">1.0</text>
     </g>
    </g>
    <g id="ytick_4">
     <g id="line2d_11">
      <path clip-path="url(#pecf7870caa)" d="M 27 206.28 
L 194.4 206.28 
" style="fill:none;stroke:#b0b0b0;stroke-linecap:square;stroke-width:0.8;"/>
     </g>
     <g id="line2d_12">
      <g>
       <use style="stroke:#000000;stroke-width:0.8;" x="27" xlink:href="#m336748b2b2" y="206.28"/>
      </g>
     </g>
     <g id="text_6">
      <text style="font-family:DejaVu Sans;font-size:10px;font-style:normal;font-weight:normal;text-anchor:end;" transform="rotate(-0, 20, 210.079219)" x="20" y="210.079219">1.1</text>
     </g>
    </g>
    <g id="ytick_5">
     <g id="line2d_13">
      <path clip-path="url(#pecf7870caa)" d="M 27 170.04 
L 194.4 170.04 
" style="fill:none;stroke:#b0b0b0;stroke-linecap:square;stroke-width:0.8;"/>
     </g>
     <g id="line2d_14">
      <g>
       <use style="stroke:#000000;stroke-width:0.8;" x="27" xlink:href="#m336748b2b2" y="170.04"/>
      </g>
     </g>
     <g id="text_7">
      <text style="font-family:DejaVu Sans;font-size:10px;font-style:normal;font-weight:normal;text-anchor:end;" transform="rotate(-0, 20, 173.839219)" x="20" y="173.839219">1.2</text>
     </g>
    </g>
    <g id="ytick_6">
     <g id="line2d_15">
      <path clip-path="url(#pecf7870caa)" d="M 27 133.8 
L 194.4 133.8 
" style="fill:none;stroke:#b0b0b0;stroke-linecap:square;stroke-width:0.8;"/>
     </g>
     <g id="line2d_16">
      <g>
       <use style="stroke:#000000;stroke-width:0.8;" x="27" xlink:href="#m336748b2b2" y="133.8"/>
      </g>
     </g>
     <g id="text_8">
      <text style="font-family:DejaVu Sans;font-size:10px;font-style:normal;font-weight:normal;text-anchor:end;" transform="rotate(-0, 20, 137.599219)" x="20" y="137.599219">1.3</text>
     </g>
    </g>
    <g id="ytick_7">
     <g id="line2d_17">
      <path clip-path="url(#pecf7870caa)" d="M 27 97.56 
L 194.4 97.56 
" style="fill:none;stroke:#b0b0b0;stroke-linecap:square;stroke-width:0.8;"/>
     </g>
     <g id="line2d_18">
      <g>
       <use style="stroke:#000000;stroke-width:0.8;" x="27" xlink:href="#m336748b2b2" y="97.56"/>
      </g>
     </g>
     <g id="text_9">
      <text style="font-family:DejaVu Sans;font-size:10px;font-style:normal;font-weight:normal;text-anchor:end;" transform="rotate(-0, 20, 101.359219)" x="20" y="101.359219">1.4</text>
     </g>
    </g>
    <g id="ytick_8">
     <g id="line2d_19">
      <path clip-path="url(#pecf7870caa)" d="M 27 61.32 
L 194.4 61.32 
" style="fill:none;stroke:#b0b0b0;stroke-linecap:square;stroke-width:0.8;"/>
     </g>
     <g id="line2d_20">
      <g>
       <use style="stroke:#000000;stroke-width:0.8;" x="27" xlink:href="#m336748b2b2" y="61.32"/>
      </g>
     </g>
     <g id="text_10">
      <text style="font-family:DejaVu Sans;font-size:10px;font-style:normal;font-weight:normal;text-anchor:end;" transform="rotate(-0, 20, 65.119219)" x="20" y="65.119219">1.5</text>
     </g>
    </g>
    <g id="text_11">
     <text style="font-family:DejaVu Sans;font-size:10px;font-style:normal;font-weight:normal;text-anchor:middle;" transform="rotate(-90, -1.982813, 179.1)" x="-1.982813" y="179.1">Fold change</text>
    </g>
   </g>
   <g id="line2d_21">
    <path clip-path="url(#pecf7870caa)" d="M 60.48 289.881479 
L 77.22 289.881479 
L 77.22 284.595765 
L 60.48 284.595765 
L 60.48 289.881479 
" style="fill:none;stroke:#1f77b4;stroke-linecap:square;"/>
   </g>
   <g id="line2d_22">
    <path clip-path="url(#pecf7870caa)" d="M 68.85 289.881479 
L 68.85 289.881479 
" style="fill:none;stroke:#1f77b4;stroke-linecap:square;"/>
   </g>
   <g id="line2d_23">
    <path clip-path="url(#pecf7870caa)" d="M 68.85 284.595765 
L 68.85 284.595765 
" style="fill:none;stroke:#1f77b4;stroke-linecap:square;"/>
   </g>
   <g id="line2d_24">
    <path clip-path="url(#pecf7870caa)" d="M 64.665 289.881479 
L 73.035 289.881479 
" style="fill:none;stroke:#000000;stroke-linecap:square;"/>
   </g>
   <g id="line2d_25">
    <path clip-path="url(#pecf7870caa)" d="M 64.665 284.595765 
L 73.035 284.595765 
" style="fill:none;stroke:#000000;stroke-linecap:square;"/>
   </g>
   <g id="line2d_26">
    <path clip-path="url(#pecf7870caa)" d="M 144.18 210.705225 
L 160.92 210.705225 
L 160.92 177.560461 
L 144.18 177.560461 
L 144.18 210.705225 
" style="fill:none;stroke:#1f77b4;stroke-linecap:square;"/>
   </g>
   <g id="line2d_27">
    <path clip-path="url(#pecf7870caa)" d="M 152.55 210.705225 
L 152.55 211.711116 
" style="fill:none;stroke:#1f77b4;stroke-linecap:square;"/>
   </g>
   <g id="line2d_28">
    <path clip-path="url(#pecf7870caa)" d="M 152.55 177.560461 
L 152.55 144.109097 
" style="fill:none;stroke:#1f77b4;stroke-linecap:square;"/>
   </g>
   <g id="line2d_29">
    <path clip-path="url(#pecf7870caa)" d="M 148.365 211.711116 
L 156.735 211.711116 
" style="fill:none;stroke:#000000;stroke-linecap:square;"/>
   </g>
   <g id="line2d_30">
    <path clip-path="url(#pecf7870caa)" d="M 148.365 144.109097 
L 156.735 144.109097 
" style="fill:none;stroke:#000000;stroke-linecap:square;"/>
   </g>
   <g id="line2d_31">
    <defs>
     <path d="M 0 3 
C 0.795609 3 1.55874 2.683901 2.12132 2.12132 
C 2.683901 1.55874 3 0.795609 3 0 
C 3 -0.795609 2.683901 -1.55874 2.12132 -2.12132 
C 1.55874 -2.683901 0.795609 -3 0 -3 
C -0.795609 -3 -1.55874 -2.683901 -2.12132 -2.12132 
C -2.683901 -1.55874 -3 -0.795609 -3 0 
C -3 0.795609 -2.683901 1.55874 -2.12132 2.12132 
C -1.55874 2.683901 -0.795609 3 0 3 
z
" id="m4479b20589" style="stroke:#1f77b4;"/>
    </defs>
    <g clip-path="url(#pecf7870caa)">
     <use style="fill:#1f77b4;stroke:#1f77b4;" x="68.85" xlink:href="#m4479b20589" y="298.792819"/>
     <use style="fill:#1f77b4;stroke:#1f77b4;" x="68.85" xlink:href="#m4479b20589" y="242.703375"/>
     <use style="fill:#1f77b4;stroke:#1f77b4;" x="68.85" xlink:href="#m4479b20589" y="287.785362"/>
     <use style="fill:#1f77b4;stroke:#1f77b4;" x="68.85" xlink:href="#m4479b20589" y="284.595765"/>
     <use style="fill:#1f77b4;stroke:#1f77b4;" x="68.85" xlink:href="#m4479b20589" y="289.881479"/>
    </g>
   </g>
   <g id="line2d_32">
    <defs>
     <path d="M 0 3 
C 0.795609 3 1.55874 2.683901 2.12132 2.12132 
C 2.683901 1.55874 3 0.795609 3 0 
C 3 -0.795609 2.683901 -1.55874 2.12132 -2.12132 
C 1.55874 -2.683901 0.795609 -3 0 -3 
C -0.795609 -3 -1.55874 -2.683901 -2.12132 -2.12132 
C -2.683901 -1.55874 -3 -0.795609 -3 0 
C -3 0.795609 -2.683901 1.55874 -2.12132 2.12132 
C -1.55874 2.683901 -0.795609 3 0 3 
z
" id="ma85035dc8b" style="stroke:#ff7f0e;"/>
    </defs>
    <g clip-path="url(#pecf7870caa)">
     <use style="fill:#ff7f0e;stroke:#ff7f0e;" x="152.55" xlink:href="#ma85035dc8b" y="275.350699"/>
     <use style="fill:#ff7f0e;stroke:#ff7f0e;" x="152.55" xlink:href="#ma85035dc8b" y="273.121809"/>
     <use style="fill:#ff7f0e;stroke:#ff7f0e;" x="152.55" xlink:href="#ma85035dc8b" y="211.711116"/>
     <use style="fill:#ff7f0e;stroke:#ff7f0e;" x="152.55" xlink:href="#ma85035dc8b" y="207.687553"/>
     <use style="fill:#ff7f0e;stroke:#ff7f0e;" x="152.55" xlink:href="#ma85035dc8b" y="180.934963"/>
     <use style="fill:#ff7f0e;stroke:#ff7f0e;" x="152.55" xlink:href="#ma85035dc8b" y="179.823573"/>
     <use style="fill:#ff7f0e;stroke:#ff7f0e;" x="152.55" xlink:href="#ma85035dc8b" y="185.728263"/>
     <use style="fill:#ff7f0e;stroke:#ff7f0e;" x="152.55" xlink:href="#ma85035dc8b" y="168.733535"/>
     <use style="fill:#ff7f0e;stroke:#ff7f0e;" x="152.55" xlink:href="#ma85035dc8b" y="182.606872"/>
     <use style="fill:#ff7f0e;stroke:#ff7f0e;" x="152.55" xlink:href="#ma85035dc8b" y="62.540182"/>
     <use style="fill:#ff7f0e;stroke:#ff7f0e;" x="152.55" xlink:href="#ma85035dc8b" y="177.587375"/>
     <use style="fill:#ff7f0e;stroke:#ff7f0e;" x="152.55" xlink:href="#ma85035dc8b" y="177.55149"/>
     <use style="fill:#ff7f0e;stroke:#ff7f0e;" x="152.55" xlink:href="#ma85035dc8b" y="144.109097"/>
     <use style="fill:#ff7f0e;stroke:#ff7f0e;" x="152.55" xlink:href="#ma85035dc8b" y="294.191888"/>
    </g>
   </g>
   <g id="line2d_33">
    <path clip-path="url(#pecf7870caa)" d="M 60.48 287.785362 
L 77.22 287.785362 
" style="fill:none;stroke:#2ca02c;stroke-linecap:square;"/>
   </g>
   <g id="line2d_34">
    <path clip-path="url(#pecf7870caa)" d="M 144.18 181.770917 
L 160.92 181.770917 
" style="fill:none;stroke:#2ca02c;stroke-linecap:square;"/>
   </g>
   <g id="patch_3">
    <path d="M 27 315 
L 27 43.2 
" style="fill:none;stroke:#000000;stroke-linecap:square;stroke-linejoin:miter;stroke-width:0.8;"/>
   </g>
   <g id="patch_4">
    <path d="M 194.4 315 
L 194.4 43.2 
" style="fill:none;stroke:#000000;stroke-linecap:square;stroke-linejoin:miter;stroke-width:0.8;"/>
   </g>
   <g id="patch_5">
    <path d="M 27 315 
L 194.4 315 
" style="fill:none;stroke:#000000;stroke-linecap:square;stroke-linejoin:miter;stroke-width:0.8;"/>
   </g>
   <g id="patch_6">
    <path d="M 27 43.2 
L 194.4 43.2 
" style="fill:none;stroke:#000000;stroke-linecap:square;stroke-linejoin:miter;stroke-width:0.8;"/>
   </g>
  </g>
 </g>
 <defs>
  <clipPath id="pecf7870caa">
   <rect height="271.8" width="167.4" x="27" y="43.2"/>
  </clipPath>
 </defs>
</svg>
