<?xml version="1.0" encoding="utf-8" standalone="no"?>
<!DOCTYPE svg PUBLIC "-//W3C//DTD SVG 1.1//EN"
  "http://www.w3.org/Graphics/SVG/1.1/DTD/svg11.dtd">
<!-- Created with matplotlib (https://matplotlib.org/) -->
<svg height="288pt" version="1.1" viewBox="0 0 432 288" width="432pt" xmlns="http://www.w3.org/2000/svg" xmlns:xlink="http://www.w3.org/1999/xlink">
 <defs>
  <style type="text/css">
*{stroke-linecap:butt;stroke-linejoin:round;}
  </style>
 </defs>
 <g id="figure_1">
  <g id="patch_1">
   <path d="M 0 288 
L 432 288 
L 432 0 
L 0 0 
z
" style="fill:#ffffff;"/>
  </g>
  <g id="axes_1">
   <g id="patch_2">
    <path d="M 308.376 143.28 
C 308.376 131.207445 305.862435 119.266081 300.995705 108.217936 
C 296.128975 97.169791 289.014853 87.254981 280.107321 79.106212 
L 221.4 143.28 
L 308.376 143.28 
z
" style="fill:#1f77b4;"/>
   </g>
   <g id="patch_3">
    <path d="M 280.107321 79.106212 
C 272.479484 72.128131 263.668242 66.565609 254.087978 62.680244 
C 244.507715 58.794879 234.311004 56.64855 223.977386 56.342197 
L 221.4 143.28 
L 280.107321 79.106212 
z
" style="fill:#ff7f0e;"/>
   </g>
   <g id="patch_4">
    <path d="M 223.977386 56.342197 
C 213.643769 56.035843 203.337816 57.574343 193.544207 60.885344 
C 183.750597 64.196344 174.625304 69.227114 166.597477 75.741062 
L 221.4 143.28 
L 223.977386 56.342197 
z
" style="fill:#2ca02c;"/>
   </g>
   <g id="patch_5">
    <path d="M 166.597477 75.741062 
C 158.569651 82.25501 151.767144 90.148395 146.509869 99.05 
C 141.252594 107.951605 137.62428 117.719664 135.795561 127.894795 
L 221.4 143.28 
L 166.597477 75.741062 
z
" style="fill:#d62728;"/>
   </g>
   <g id="patch_6">
    <path d="M 135.795561 127.894795 
C 134.272846 136.367294 134.016352 145.019106 135.034477 153.566932 
C 136.052602 162.114757 138.334111 170.464269 141.804297 178.342068 
L 221.4 143.28 
L 135.795561 127.894795 
z
" style="fill:#9467bd;"/>
   </g>
   <g id="patch_7">
    <path d="M 141.804297 178.342068 
C 145.274483 186.219866 149.895052 193.539017 155.514705 200.05986 
C 161.134359 206.580703 167.691084 212.231278 174.970182 216.826561 
L 221.4 143.28 
L 141.804297 178.342068 
z
" style="fill:#8c564b;"/>
   </g>
   <g id="patch_8">
    <path d="M 174.970182 216.826561 
C 180.789644 220.500377 187.024636 223.470536 193.544215 225.674659 
C 200.063793 227.878782 206.821997 229.301331 213.676894 229.912432 
L 221.4 143.28 
L 174.970182 216.826561 
z
" style="fill:#e377c2;"/>
   </g>
   <g id="patch_9">
    <path d="M 213.676894 229.912432 
C 220.531792 230.523532 227.435057 230.318875 234.241714 229.302758 
C 241.04837 228.286642 247.710432 226.46623 254.087986 223.879753 
L 221.4 143.28 
L 213.676894 229.912432 
z
" style="fill:#7f7f7f;"/>
   </g>
   <g id="patch_10">
    <path d="M 254.087986 223.879753 
C 258.868708 221.940886 263.467461 219.58051 267.829828 216.826554 
C 272.192194 214.072599 276.3009 210.93597 280.107327 207.453783 
L 221.4 143.28 
L 254.087986 223.879753 
z
" style="fill:#bcbd22;"/>
   </g>
   <g id="patch_11">
    <path d="M 280.107327 207.453783 
C 281.375394 206.293732 282.608798 205.096351 283.805916 203.863217 
C 285.003034 202.630083 286.163339 201.361737 287.285303 200.059851 
L 221.4 143.28 
L 280.107327 207.453783 
z
" style="fill:#17becf;"/>
   </g>
   <g id="patch_12">
    <path d="M 287.285303 200.059851 
C 288.407266 198.757965 289.490396 197.423109 290.533264 196.057044 
C 291.576133 194.690978 292.578283 193.294302 293.538393 191.868855 
L 221.4 143.28 
L 287.285303 200.059851 
z
" style="fill:#1f77b4;"/>
   </g>
   <g id="patch_13">
    <path d="M 293.538393 191.868855 
C 294.498503 190.443408 295.416153 188.989817 296.290133 187.509996 
C 297.164113 186.030175 297.994039 184.524775 298.778819 182.995778 
L 221.4 143.28 
L 293.538393 191.868855 
z
" style="fill:#ff7f0e;"/>
   </g>
   <g id="patch_14">
    <path d="M 298.778819 182.995778 
C 299.563598 181.466781 300.302886 179.914859 300.995708 178.342056 
C 301.688531 176.769254 302.334583 175.176262 302.933015 173.565178 
L 221.4 143.28 
L 298.778819 182.995778 
z
" style="fill:#2ca02c;"/>
   </g>
   <g id="patch_15">
    <path d="M 302.933015 173.565178 
C 303.531447 171.954095 304.081995 170.325628 304.583934 168.681922 
C 305.085873 167.038217 305.538983 165.379995 305.942667 163.709441 
L 221.4 143.28 
L 302.933015 173.565178 
z
" style="fill:#d62728;"/>
   </g>
   <g id="patch_16">
    <path d="M 305.942667 163.709441 
C 306.34635 162.038887 306.70043 160.356735 307.00444 158.665201 
C 307.30845 156.973666 307.562256 155.273493 307.765525 153.566919 
L 221.4 143.28 
L 305.942667 163.709441 
z
" style="fill:#9467bd;"/>
   </g>
   <g id="patch_17">
    <path d="M 307.765525 153.566919 
C 307.968793 151.860346 308.121434 150.148123 308.223247 148.432505 
C 308.32506 146.716887 308.376 144.998628 308.376 143.279992 
L 221.4 143.28 
L 307.765525 153.566919 
z
" style="fill:#8c564b;"/>
   </g>
   <g id="matplotlib.axis_1"/>
   <g id="matplotlib.axis_2">
    <g id="text_1">
     <text style="font-family:DejaVu Sans;font-size:10px;font-style:normal;font-weight:normal;text-anchor:middle;" transform="rotate(-90, 106.600313, 143.28)" x="106.600313" y="143.28">annotation</text>
    </g>
   </g>
   <g id="text_2">
    <text style="font-family:DejaVu Sans;font-size:10px;font-style:normal;font-weight:normal;text-anchor:start;" transform="rotate(-0, 308.955275, 107.332042)" x="308.955275" y="107.332042">S_Carbohydrates_and_related_molecules</text>
   </g>
   <g id="text_3">
    <text style="font-family:DejaVu Sans;font-size:10px;font-style:normal;font-weight:normal;text-anchor:middle;" transform="rotate(-0, 269.157423, 125.002137)" x="269.157423" y="125.002137">13.2%</text>
   </g>
   <g id="text_4">
    <text style="font-family:DejaVu Sans;font-size:10px;font-style:normal;font-weight:normal;text-anchor:start;" transform="rotate(-0, 257.356776, 57.240581)" x="257.356776" y="57.240581">S_Cell_wall</text>
   </g>
   <g id="text_5">
    <text style="font-family:DejaVu Sans;font-size:10px;font-style:normal;font-weight:normal;text-anchor:middle;" transform="rotate(-0, 241.012787, 97.679521)" x="241.012787" y="97.679521">11.3%</text>
   </g>
   <g id="text_6">
    <text style="font-family:DejaVu Sans;font-size:10px;font-style:normal;font-weight:normal;text-anchor:end;" transform="rotate(-0, 190.758628, 55.266191)" x="190.758628" y="55.266191">S_Lipids</text>
   </g>
   <g id="text_7">
    <text style="font-family:DejaVu Sans;font-size:10px;font-style:normal;font-weight:normal;text-anchor:middle;" transform="rotate(-0, 204.686524, 96.602581)" x="204.686524" y="96.602581">11.3%</text>
   </g>
   <g id="text_8">
    <text style="font-family:DejaVu Sans;font-size:10px;font-style:normal;font-weight:normal;text-anchor:end;" transform="rotate(-0, 139.020856, 97.386375)" x="139.020856" y="97.386375">formation</text>
   </g>
   <g id="text_9">
    <text style="font-family:DejaVu Sans;font-size:10px;font-style:normal;font-weight:normal;text-anchor:middle;" transform="rotate(-0, 176.465921, 119.501375)" x="176.465921" y="119.501375">11.3%</text>
   </g>
   <g id="text_10">
    <text style="font-family:DejaVu Sans;font-size:10px;font-style:normal;font-weight:normal;text-anchor:end;" transform="rotate(-0, 126.397924, 157.215937)" x="126.397924" y="157.215937">S_Coenzymes_and_prosthetic_groups</text>
   </g>
   <g id="text_11">
    <text style="font-family:DejaVu Sans;font-size:10px;font-style:normal;font-weight:normal;text-anchor:middle;" transform="rotate(-0, 169.580686, 152.211534)" x="169.580686" y="152.211534">9.4%</text>
   </g>
   <g id="text_12">
    <text style="font-family:DejaVu Sans;font-size:10px;font-style:normal;font-weight:normal;text-anchor:end;" transform="rotate(-0, 148.926176, 208.358159)" x="148.926176" y="208.358159">S_Amino_acids_and_related_molecules</text>
   </g>
   <g id="text_13">
    <text style="font-family:DejaVu Sans;font-size:10px;font-style:normal;font-weight:normal;text-anchor:middle;" transform="rotate(-0, 181.868823, 180.107291)" x="181.868823" y="180.107291">9.4%</text>
   </g>
   <g id="text_14">
    <text style="font-family:DejaVu Sans;font-size:10px;font-style:normal;font-weight:normal;text-anchor:end;" transform="rotate(-0, 190.758636, 236.6735)" x="190.758636" y="236.6735">transcription</text>
   </g>
   <g id="text_15">
    <text style="font-family:DejaVu Sans;font-size:10px;font-style:normal;font-weight:normal;text-anchor:middle;" transform="rotate(-0, 204.686529, 195.47617)" x="204.686529" y="195.47617">7.5%</text>
   </g>
   <g id="text_16">
    <text style="font-family:DejaVu Sans;font-size:10px;font-style:normal;font-weight:normal;text-anchor:start;" transform="rotate(-0, 235.525885, 240.525347)" x="235.525885" y="240.525347">S_Nucleotides_and_nucleic_acids</text>
   </g>
   <g id="text_17">
    <text style="font-family:DejaVu Sans;font-size:10px;font-style:normal;font-weight:normal;text-anchor:middle;" transform="rotate(-0, 229.105028, 197.65303)" x="229.105028" y="197.65303">7.5%</text>
   </g>
   <g id="text_18">
    <text style="font-family:DejaVu Sans;font-size:10px;font-style:normal;font-weight:normal;text-anchor:start;" transform="rotate(-0, 272.472811, 226.713241)" x="272.472811" y="226.713241">S_Transport</text>
   </g>
   <g id="text_19">
    <text style="font-family:DejaVu Sans;font-size:10px;font-style:normal;font-weight:normal;text-anchor:middle;" transform="rotate(-0, 249.257897, 190.167308)" x="249.257897" y="190.167308">5.7%</text>
   </g>
   <g id="text_20">
    <text style="font-family:DejaVu Sans;font-size:10px;font-style:normal;font-weight:normal;text-anchor:start;" transform="rotate(-0, 290.046508, 212.680914)" x="290.046508" y="212.680914">APSR</text>
   </g>
   <g id="text_21">
    <text style="font-family:DejaVu Sans;font-size:10px;font-style:normal;font-weight:normal;text-anchor:middle;" transform="rotate(-0, 258.84355, 182.389305)" x="258.84355" y="182.389305">1.9%</text>
   </g>
   <g id="text_22">
    <text style="font-family:DejaVu Sans;font-size:10px;font-style:normal;font-weight:normal;text-anchor:start;" transform="rotate(-0, 297.446591, 204.094123)" x="297.446591" y="204.094123">translation</text>
   </g>
   <g id="text_23">
    <text style="font-family:DejaVu Sans;font-size:10px;font-style:normal;font-weight:normal;text-anchor:middle;" transform="rotate(-0, 262.879959, 177.705601)" x="262.879959" y="177.705601">1.9%</text>
   </g>
   <g id="text_24">
    <text style="font-family:DejaVu Sans;font-size:10px;font-style:normal;font-weight:normal;text-anchor:start;" transform="rotate(-0, 303.779146, 194.553308)" x="303.779146" y="194.553308">S_Phosphate_and_sulfur</text>
   </g>
   <g id="text_25">
    <text style="font-family:DejaVu Sans;font-size:10px;font-style:normal;font-weight:normal;text-anchor:middle;" transform="rotate(-0, 266.33408, 172.577373)" x="266.33408" y="172.577373">1.9%</text>
   </g>
   <g id="text_26">
    <text style="font-family:DejaVu Sans;font-size:10px;font-style:normal;font-weight:normal;text-anchor:start;" transform="rotate(-0, 308.955279, 184.607637)" x="308.955279" y="184.607637">BSU28370-MONOMER</text>
   </g>
   <g id="text_27">
    <text style="font-family:DejaVu Sans;font-size:10px;font-style:normal;font-weight:normal;text-anchor:middle;" transform="rotate(-0, 269.157425, 167.076609)" x="269.157425" y="167.076609">1.9%</text>
   </g>
   <g id="text_28">
    <text style="font-family:DejaVu Sans;font-size:10px;font-style:normal;font-weight:normal;text-anchor:start;" transform="rotate(-0, 312.902328, 173.842427)" x="312.902328" y="173.842427">S_Membrane_bioenergetics</text>
   </g>
   <g id="text_29">
    <text style="font-family:DejaVu Sans;font-size:10px;font-style:normal;font-weight:normal;text-anchor:middle;" transform="rotate(-0, 271.310361, 161.280528)" x="271.310361" y="161.280528">1.9%</text>
   </g>
   <g id="text_30">
    <text style="font-family:DejaVu Sans;font-size:10px;font-style:normal;font-weight:normal;text-anchor:start;" transform="rotate(-0, 315.564884, 162.963096)" x="315.564884" y="162.963096">translocation</text>
   </g>
   <g id="text_31">
    <text style="font-family:DejaVu Sans;font-size:10px;font-style:normal;font-weight:normal;text-anchor:middle;" transform="rotate(-0, 272.762664, 155.270495)" x="272.762664" y="155.270495">1.9%</text>
   </g>
   <g id="text_32">
    <text style="font-family:DejaVu Sans;font-size:10px;font-style:normal;font-weight:normal;text-anchor:start;" transform="rotate(-0, 316.905572, 151.568068)" x="316.905572" y="151.568068">S_Other_function</text>
   </g>
   <g id="text_33">
    <text style="font-family:DejaVu Sans;font-size:10px;font-style:normal;font-weight:normal;text-anchor:middle;" transform="rotate(-0, 273.493948, 149.130878)" x="273.493948" y="149.130878">1.9%</text>
   </g>
  </g>
 </g>
</svg>
