<?xml version="1.0" encoding="utf-8" standalone="no"?>
<!DOCTYPE svg PUBLIC "-//W3C//DTD SVG 1.1//EN"
  "http://www.w3.org/Graphics/SVG/1.1/DTD/svg11.dtd">
<!-- Created with matplotlib (https://matplotlib.org/) -->
<svg height="288pt" version="1.1" viewBox="0 0 432 288" width="432pt" xmlns="http://www.w3.org/2000/svg" xmlns:xlink="http://www.w3.org/1999/xlink">
 <defs>
  <style type="text/css">
*{stroke-linecap:butt;stroke-linejoin:round;}
  </style>
 </defs>
 <g id="figure_1">
  <g id="patch_1">
   <path d="M 0 288 
L 432 288 
L 432 0 
L 0 0 
z
" style="fill:#ffffff;"/>
  </g>
  <g id="axes_1">
   <g id="patch_2">
    <path d="M 308.376 143.28 
C 308.376 129.470812 305.087271 115.85813 298.782836 103.57205 
C 292.478401 91.28597 283.337686 80.676156 272.119532 72.623411 
C 260.901379 64.570666 247.925058 59.304173 234.267836 57.261145 
C 220.610615 55.218118 206.661179 56.4567 193.577581 60.874068 
C 180.493984 65.291436 168.648586 72.761871 159.024767 82.665192 
C 149.400948 92.568514 142.272604 104.622872 138.231515 117.827541 
C 134.190426 131.032209 133.351601 145.01138 135.784678 158.604532 
C 138.217756 172.197685 143.85349 185.017956 152.224013 196.001034 
L 221.4 143.28 
L 308.376 143.28 
z
" style="fill:#1f77b4;"/>
   </g>
   <g id="patch_3">
    <path d="M 152.224013 196.001034 
C 163.252841 210.472109 178.549348 221.124032 195.947545 226.448486 
C 213.345741 231.772941 231.983751 231.506163 249.222426 225.685929 
C 266.461102 219.865695 281.446469 208.780329 292.056597 193.999522 
C 302.666724 179.218715 308.376003 161.474682 308.376 143.279984 
L 221.4 143.28 
L 152.224013 196.001034 
z
" style="fill:#ff7f0e;"/>
   </g>
   <g id="matplotlib.axis_1"/>
   <g id="matplotlib.axis_2">
    <g id="text_1">
     <text style="font-family:DejaVu Sans;font-size:10px;font-style:normal;font-weight:normal;text-anchor:middle;" transform="rotate(-90, 106.600313, 143.28)" x="106.600313" y="143.28">None</text>
    </g>
   </g>
   <g id="text_2">
    <text style="font-family:DejaVu Sans;font-size:10px;font-style:normal;font-weight:normal;text-anchor:end;" transform="rotate(-0, 190.79534, 55.114725)" x="190.79534" y="55.114725">reg_me</text>
   </g>
   <g id="text_3">
    <text style="font-family:DejaVu Sans;font-size:10px;font-style:normal;font-weight:normal;text-anchor:middle;" transform="rotate(-0, 204.706549, 96.595816)" x="204.706549" y="96.595816">60.4%</text>
   </g>
   <g id="text_4">
    <text style="font-family:DejaVu Sans;font-size:10px;font-style:normal;font-weight:normal;text-anchor:start;" transform="rotate(-0, 252.004669, 236.546835)" x="252.004669" y="236.546835">reg_me_i</text>
   </g>
   <g id="text_5">
    <text style="font-family:DejaVu Sans;font-size:10px;font-style:normal;font-weight:normal;text-anchor:middle;" transform="rotate(-0, 238.093456, 195.482933)" x="238.093456" y="195.482933">39.6%</text>
   </g>
  </g>
 </g>
</svg>
