<?xml version="1.0" encoding="utf-8" standalone="no"?>
<!DOCTYPE svg PUBLIC "-//W3C//DTD SVG 1.1//EN"
  "http://www.w3.org/Graphics/SVG/1.1/DTD/svg11.dtd">
<!-- Created with matplotlib (https://matplotlib.org/) -->
<svg height="288pt" version="1.1" viewBox="0 0 720 288" width="720pt" xmlns="http://www.w3.org/2000/svg" xmlns:xlink="http://www.w3.org/1999/xlink">
 <defs>
  <style type="text/css">
*{stroke-linecap:butt;stroke-linejoin:round;}
  </style>
 </defs>
 <g id="figure_1">
  <g id="patch_1">
   <path d="M 0 288 
L 720 288 
L 720 0 
L 0 0 
z
" style="fill:#ffffff;"/>
  </g>
  <g id="axes_1">
   <g id="patch_2">
    <path d="M 50.629609 246.2 
L 354.514878 246.2 
L 354.514878 26.8 
L 50.629609 26.8 
z
" style="fill:#ffffff;"/>
   </g>
   <g id="patch_3">
    <path clip-path="url(#pf5247406ad)" d="M 64.442576 83719.140729 
L 67.205169 83719.140729 
L 67.205169 62.350282 
L 64.442576 62.350282 
z
" style="fill:#1f77b4;"/>
   </g>
   <g id="patch_4">
    <path clip-path="url(#pf5247406ad)" d="M 67.205169 83719.140729 
L 69.967763 83719.140729 
L 69.967763 36.772727 
L 67.205169 36.772727 
z
" style="fill:#1f77b4;"/>
   </g>
   <g id="patch_5">
    <path clip-path="url(#pf5247406ad)" d="M 69.967763 83719.140729 
L 72.730356 83719.140729 
L 72.730356 46.37395 
L 69.967763 46.37395 
z
" style="fill:#1f77b4;"/>
   </g>
   <g id="patch_6">
    <path clip-path="url(#pf5247406ad)" d="M 72.730356 83719.140729 
L 75.49295 83719.140729 
L 75.49295 69.993919 
L 72.730356 69.993919 
z
" style="fill:#1f77b4;"/>
   </g>
   <g id="patch_7">
    <path clip-path="url(#pf5247406ad)" d="M 75.49295 83719.140729 
L 78.255543 83719.140729 
L 78.255543 90.283443 
L 75.49295 90.283443 
z
" style="fill:#1f77b4;"/>
   </g>
   <g id="patch_8">
    <path clip-path="url(#pf5247406ad)" d="M 78.255543 83719.140729 
L 81.018136 83719.140729 
L 81.018136 118.101175 
L 78.255543 118.101175 
z
" style="fill:#1f77b4;"/>
   </g>
   <g id="patch_9">
    <path clip-path="url(#pf5247406ad)" d="M 81.018136 83719.140729 
L 83.78073 83719.140729 
L 83.78073 114.142027 
L 81.018136 114.142027 
z
" style="fill:#1f77b4;"/>
   </g>
   <g id="patch_10">
    <path clip-path="url(#pf5247406ad)" d="M 83.78073 83719.140729 
L 86.543323 83719.140729 
L 86.543323 115.414304 
L 83.78073 115.414304 
z
" style="fill:#1f77b4;"/>
   </g>
   <g id="patch_11">
    <path clip-path="url(#pf5247406ad)" d="M 86.543323 83719.140729 
L 89.305916 83719.140729 
L 89.305916 114.142027 
L 86.543323 114.142027 
z
" style="fill:#1f77b4;"/>
   </g>
   <g id="patch_12">
    <path clip-path="url(#pf5247406ad)" d="M 89.305916 83719.140729 
L 92.06851 83719.140729 
L 92.06851 149.288777 
L 89.305916 149.288777 
z
" style="fill:#1f77b4;"/>
   </g>
   <g id="patch_13">
    <path clip-path="url(#pf5247406ad)" d="M 92.06851 83719.140729 
L 94.831103 83719.140729 
L 94.831103 171.264939 
L 92.06851 171.264939 
z
" style="fill:#1f77b4;"/>
   </g>
   <g id="patch_14">
    <path clip-path="url(#pf5247406ad)" d="M 94.831103 83719.140729 
L 97.593696 83719.140729 
L 97.593696 177.87522 
L 94.831103 177.87522 
z
" style="fill:#1f77b4;"/>
   </g>
   <g id="patch_15">
    <path clip-path="url(#pf5247406ad)" d="M 97.593696 83719.140729 
L 100.35629 83719.140729 
L 100.35629 211.096412 
L 97.593696 211.096412 
z
" style="fill:#1f77b4;"/>
   </g>
   <g id="patch_16">
    <path clip-path="url(#pf5247406ad)" d="M 100.35629 83719.140729 
L 103.118883 83719.140729 
L 103.118883 177.87522 
L 100.35629 177.87522 
z
" style="fill:#1f77b4;"/>
   </g>
   <g id="patch_17">
    <path clip-path="url(#pf5247406ad)" d="M 103.118883 83719.140729 
L 105.881476 83719.140729 
L 105.881476 236.227273 
L 103.118883 236.227273 
z
" style="fill:#1f77b4;"/>
   </g>
   <g id="patch_18">
    <path clip-path="url(#pf5247406ad)" d="M 105.881476 83719.140729 
L 108.64407 83719.140729 
L 108.64407 165.676026 
L 105.881476 165.676026 
z
" style="fill:#1f77b4;"/>
   </g>
   <g id="patch_19">
    <path clip-path="url(#pf5247406ad)" d="M 108.64407 83719.140729 
L 111.406663 83719.140729 
L 111.406663 160.834689 
L 108.64407 160.834689 
z
" style="fill:#1f77b4;"/>
   </g>
   <g id="patch_20">
    <path clip-path="url(#pf5247406ad)" d="M 111.406663 83719.140729 
L 114.169256 83719.140729 
L 114.169256 236.227273 
L 111.406663 236.227273 
z
" style="fill:#1f77b4;"/>
   </g>
   <g id="patch_21">
    <path clip-path="url(#pf5247406ad)" d="M 114.169256 83719.140729 
L 116.93185 83719.140729 
L 116.93185 83719.140729 
L 114.169256 83719.140729 
z
" style="fill:#1f77b4;"/>
   </g>
   <g id="patch_22">
    <path clip-path="url(#pf5247406ad)" d="M 116.93185 83719.140729 
L 119.694443 83719.140729 
L 119.694443 236.227273 
L 116.93185 236.227273 
z
" style="fill:#1f77b4;"/>
   </g>
   <g id="patch_23">
    <path clip-path="url(#pf5247406ad)" d="M 119.694443 83719.140729 
L 122.457036 83719.140729 
L 122.457036 236.227273 
L 119.694443 236.227273 
z
" style="fill:#1f77b4;"/>
   </g>
   <g id="patch_24">
    <path clip-path="url(#pf5247406ad)" d="M 122.457036 83719.140729 
L 125.21963 83719.140729 
L 125.21963 236.227273 
L 122.457036 236.227273 
z
" style="fill:#1f77b4;"/>
   </g>
   <g id="patch_25">
    <path clip-path="url(#pf5247406ad)" d="M 125.21963 83719.140729 
L 127.982223 83719.140729 
L 127.982223 236.227273 
L 125.21963 236.227273 
z
" style="fill:#1f77b4;"/>
   </g>
   <g id="patch_26">
    <path clip-path="url(#pf5247406ad)" d="M 127.982223 83719.140729 
L 130.744817 83719.140729 
L 130.744817 236.227273 
L 127.982223 236.227273 
z
" style="fill:#1f77b4;"/>
   </g>
   <g id="patch_27">
    <path clip-path="url(#pf5247406ad)" d="M 130.744817 83719.140729 
L 133.50741 83719.140729 
L 133.50741 83719.140729 
L 130.744817 83719.140729 
z
" style="fill:#1f77b4;"/>
   </g>
   <g id="patch_28">
    <path clip-path="url(#pf5247406ad)" d="M 133.50741 83719.140729 
L 136.270003 83719.140729 
L 136.270003 83719.140729 
L 133.50741 83719.140729 
z
" style="fill:#1f77b4;"/>
   </g>
   <g id="patch_29">
    <path clip-path="url(#pf5247406ad)" d="M 136.270003 83719.140729 
L 139.032597 83719.140729 
L 139.032597 83719.140729 
L 136.270003 83719.140729 
z
" style="fill:#1f77b4;"/>
   </g>
   <g id="patch_30">
    <path clip-path="url(#pf5247406ad)" d="M 139.032597 83719.140729 
L 141.79519 83719.140729 
L 141.79519 83719.140729 
L 139.032597 83719.140729 
z
" style="fill:#1f77b4;"/>
   </g>
   <g id="patch_31">
    <path clip-path="url(#pf5247406ad)" d="M 141.79519 83719.140729 
L 144.557783 83719.140729 
L 144.557783 83719.140729 
L 141.79519 83719.140729 
z
" style="fill:#1f77b4;"/>
   </g>
   <g id="patch_32">
    <path clip-path="url(#pf5247406ad)" d="M 144.557783 83719.140729 
L 147.320377 83719.140729 
L 147.320377 236.227273 
L 144.557783 236.227273 
z
" style="fill:#1f77b4;"/>
   </g>
   <g id="patch_33">
    <path clip-path="url(#pf5247406ad)" d="M 147.320377 83719.140729 
L 150.08297 83719.140729 
L 150.08297 83719.140729 
L 147.320377 83719.140729 
z
" style="fill:#1f77b4;"/>
   </g>
   <g id="patch_34">
    <path clip-path="url(#pf5247406ad)" d="M 150.08297 83719.140729 
L 152.845563 83719.140729 
L 152.845563 83719.140729 
L 150.08297 83719.140729 
z
" style="fill:#1f77b4;"/>
   </g>
   <g id="patch_35">
    <path clip-path="url(#pf5247406ad)" d="M 152.845563 83719.140729 
L 155.608157 83719.140729 
L 155.608157 83719.140729 
L 152.845563 83719.140729 
z
" style="fill:#1f77b4;"/>
   </g>
   <g id="patch_36">
    <path clip-path="url(#pf5247406ad)" d="M 155.608157 83719.140729 
L 158.37075 83719.140729 
L 158.37075 83719.140729 
L 155.608157 83719.140729 
z
" style="fill:#1f77b4;"/>
   </g>
   <g id="patch_37">
    <path clip-path="url(#pf5247406ad)" d="M 158.37075 83719.140729 
L 161.133343 83719.140729 
L 161.133343 83719.140729 
L 158.37075 83719.140729 
z
" style="fill:#1f77b4;"/>
   </g>
   <g id="patch_38">
    <path clip-path="url(#pf5247406ad)" d="M 161.133343 83719.140729 
L 163.895937 83719.140729 
L 163.895937 83719.140729 
L 161.133343 83719.140729 
z
" style="fill:#1f77b4;"/>
   </g>
   <g id="patch_39">
    <path clip-path="url(#pf5247406ad)" d="M 163.895937 83719.140729 
L 166.65853 83719.140729 
L 166.65853 83719.140729 
L 163.895937 83719.140729 
z
" style="fill:#1f77b4;"/>
   </g>
   <g id="patch_40">
    <path clip-path="url(#pf5247406ad)" d="M 166.65853 83719.140729 
L 169.421123 83719.140729 
L 169.421123 83719.140729 
L 166.65853 83719.140729 
z
" style="fill:#1f77b4;"/>
   </g>
   <g id="patch_41">
    <path clip-path="url(#pf5247406ad)" d="M 169.421123 83719.140729 
L 172.183717 83719.140729 
L 172.183717 83719.140729 
L 169.421123 83719.140729 
z
" style="fill:#1f77b4;"/>
   </g>
   <g id="patch_42">
    <path clip-path="url(#pf5247406ad)" d="M 172.183717 83719.140729 
L 174.94631 83719.140729 
L 174.94631 236.227273 
L 172.183717 236.227273 
z
" style="fill:#1f77b4;"/>
   </g>
   <g id="patch_43">
    <path clip-path="url(#pf5247406ad)" d="M 174.94631 83719.140729 
L 177.708904 83719.140729 
L 177.708904 83719.140729 
L 174.94631 83719.140729 
z
" style="fill:#1f77b4;"/>
   </g>
   <g id="patch_44">
    <path clip-path="url(#pf5247406ad)" d="M 177.708904 83719.140729 
L 180.471497 83719.140729 
L 180.471497 83719.140729 
L 177.708904 83719.140729 
z
" style="fill:#1f77b4;"/>
   </g>
   <g id="patch_45">
    <path clip-path="url(#pf5247406ad)" d="M 180.471497 83719.140729 
L 183.23409 83719.140729 
L 183.23409 83719.140729 
L 180.471497 83719.140729 
z
" style="fill:#1f77b4;"/>
   </g>
   <g id="patch_46">
    <path clip-path="url(#pf5247406ad)" d="M 183.23409 83719.140729 
L 185.996684 83719.140729 
L 185.996684 83719.140729 
L 183.23409 83719.140729 
z
" style="fill:#1f77b4;"/>
   </g>
   <g id="patch_47">
    <path clip-path="url(#pf5247406ad)" d="M 185.996684 83719.140729 
L 188.759277 83719.140729 
L 188.759277 83719.140729 
L 185.996684 83719.140729 
z
" style="fill:#1f77b4;"/>
   </g>
   <g id="patch_48">
    <path clip-path="url(#pf5247406ad)" d="M 188.759277 83719.140729 
L 191.52187 83719.140729 
L 191.52187 83719.140729 
L 188.759277 83719.140729 
z
" style="fill:#1f77b4;"/>
   </g>
   <g id="patch_49">
    <path clip-path="url(#pf5247406ad)" d="M 191.52187 83719.140729 
L 194.284464 83719.140729 
L 194.284464 83719.140729 
L 191.52187 83719.140729 
z
" style="fill:#1f77b4;"/>
   </g>
   <g id="patch_50">
    <path clip-path="url(#pf5247406ad)" d="M 194.284464 83719.140729 
L 197.047057 83719.140729 
L 197.047057 83719.140729 
L 194.284464 83719.140729 
z
" style="fill:#1f77b4;"/>
   </g>
   <g id="patch_51">
    <path clip-path="url(#pf5247406ad)" d="M 197.047057 83719.140729 
L 199.80965 83719.140729 
L 199.80965 83719.140729 
L 197.047057 83719.140729 
z
" style="fill:#1f77b4;"/>
   </g>
   <g id="patch_52">
    <path clip-path="url(#pf5247406ad)" d="M 199.80965 83719.140729 
L 202.572244 83719.140729 
L 202.572244 83719.140729 
L 199.80965 83719.140729 
z
" style="fill:#1f77b4;"/>
   </g>
   <g id="patch_53">
    <path clip-path="url(#pf5247406ad)" d="M 202.572244 83719.140729 
L 205.334837 83719.140729 
L 205.334837 83719.140729 
L 202.572244 83719.140729 
z
" style="fill:#1f77b4;"/>
   </g>
   <g id="patch_54">
    <path clip-path="url(#pf5247406ad)" d="M 205.334837 83719.140729 
L 208.09743 83719.140729 
L 208.09743 83719.140729 
L 205.334837 83719.140729 
z
" style="fill:#1f77b4;"/>
   </g>
   <g id="patch_55">
    <path clip-path="url(#pf5247406ad)" d="M 208.09743 83719.140729 
L 210.860024 83719.140729 
L 210.860024 83719.140729 
L 208.09743 83719.140729 
z
" style="fill:#1f77b4;"/>
   </g>
   <g id="patch_56">
    <path clip-path="url(#pf5247406ad)" d="M 210.860024 83719.140729 
L 213.622617 83719.140729 
L 213.622617 83719.140729 
L 210.860024 83719.140729 
z
" style="fill:#1f77b4;"/>
   </g>
   <g id="patch_57">
    <path clip-path="url(#pf5247406ad)" d="M 213.622617 83719.140729 
L 216.38521 83719.140729 
L 216.38521 83719.140729 
L 213.622617 83719.140729 
z
" style="fill:#1f77b4;"/>
   </g>
   <g id="patch_58">
    <path clip-path="url(#pf5247406ad)" d="M 216.38521 83719.140729 
L 219.147804 83719.140729 
L 219.147804 83719.140729 
L 216.38521 83719.140729 
z
" style="fill:#1f77b4;"/>
   </g>
   <g id="patch_59">
    <path clip-path="url(#pf5247406ad)" d="M 219.147804 83719.140729 
L 221.910397 83719.140729 
L 221.910397 83719.140729 
L 219.147804 83719.140729 
z
" style="fill:#1f77b4;"/>
   </g>
   <g id="patch_60">
    <path clip-path="url(#pf5247406ad)" d="M 221.910397 83719.140729 
L 224.67299 83719.140729 
L 224.67299 83719.140729 
L 221.910397 83719.140729 
z
" style="fill:#1f77b4;"/>
   </g>
   <g id="patch_61">
    <path clip-path="url(#pf5247406ad)" d="M 224.67299 83719.140729 
L 227.435584 83719.140729 
L 227.435584 83719.140729 
L 224.67299 83719.140729 
z
" style="fill:#1f77b4;"/>
   </g>
   <g id="patch_62">
    <path clip-path="url(#pf5247406ad)" d="M 227.435584 83719.140729 
L 230.198177 83719.140729 
L 230.198177 83719.140729 
L 227.435584 83719.140729 
z
" style="fill:#1f77b4;"/>
   </g>
   <g id="patch_63">
    <path clip-path="url(#pf5247406ad)" d="M 230.198177 83719.140729 
L 232.960771 83719.140729 
L 232.960771 83719.140729 
L 230.198177 83719.140729 
z
" style="fill:#1f77b4;"/>
   </g>
   <g id="patch_64">
    <path clip-path="url(#pf5247406ad)" d="M 232.960771 83719.140729 
L 235.723364 83719.140729 
L 235.723364 83719.140729 
L 232.960771 83719.140729 
z
" style="fill:#1f77b4;"/>
   </g>
   <g id="patch_65">
    <path clip-path="url(#pf5247406ad)" d="M 235.723364 83719.140729 
L 238.485957 83719.140729 
L 238.485957 83719.140729 
L 235.723364 83719.140729 
z
" style="fill:#1f77b4;"/>
   </g>
   <g id="patch_66">
    <path clip-path="url(#pf5247406ad)" d="M 238.485957 83719.140729 
L 241.248551 83719.140729 
L 241.248551 83719.140729 
L 238.485957 83719.140729 
z
" style="fill:#1f77b4;"/>
   </g>
   <g id="patch_67">
    <path clip-path="url(#pf5247406ad)" d="M 241.248551 83719.140729 
L 244.011144 83719.140729 
L 244.011144 83719.140729 
L 241.248551 83719.140729 
z
" style="fill:#1f77b4;"/>
   </g>
   <g id="patch_68">
    <path clip-path="url(#pf5247406ad)" d="M 244.011144 83719.140729 
L 246.773737 83719.140729 
L 246.773737 83719.140729 
L 244.011144 83719.140729 
z
" style="fill:#1f77b4;"/>
   </g>
   <g id="patch_69">
    <path clip-path="url(#pf5247406ad)" d="M 246.773737 83719.140729 
L 249.536331 83719.140729 
L 249.536331 83719.140729 
L 246.773737 83719.140729 
z
" style="fill:#1f77b4;"/>
   </g>
   <g id="patch_70">
    <path clip-path="url(#pf5247406ad)" d="M 249.536331 83719.140729 
L 252.298924 83719.140729 
L 252.298924 83719.140729 
L 249.536331 83719.140729 
z
" style="fill:#1f77b4;"/>
   </g>
   <g id="patch_71">
    <path clip-path="url(#pf5247406ad)" d="M 252.298924 83719.140729 
L 255.061517 83719.140729 
L 255.061517 83719.140729 
L 252.298924 83719.140729 
z
" style="fill:#1f77b4;"/>
   </g>
   <g id="patch_72">
    <path clip-path="url(#pf5247406ad)" d="M 255.061517 83719.140729 
L 257.824111 83719.140729 
L 257.824111 83719.140729 
L 255.061517 83719.140729 
z
" style="fill:#1f77b4;"/>
   </g>
   <g id="patch_73">
    <path clip-path="url(#pf5247406ad)" d="M 257.824111 83719.140729 
L 260.586704 83719.140729 
L 260.586704 83719.140729 
L 257.824111 83719.140729 
z
" style="fill:#1f77b4;"/>
   </g>
   <g id="patch_74">
    <path clip-path="url(#pf5247406ad)" d="M 260.586704 83719.140729 
L 263.349297 83719.140729 
L 263.349297 83719.140729 
L 260.586704 83719.140729 
z
" style="fill:#1f77b4;"/>
   </g>
   <g id="patch_75">
    <path clip-path="url(#pf5247406ad)" d="M 263.349297 83719.140729 
L 266.111891 83719.140729 
L 266.111891 83719.140729 
L 263.349297 83719.140729 
z
" style="fill:#1f77b4;"/>
   </g>
   <g id="patch_76">
    <path clip-path="url(#pf5247406ad)" d="M 266.111891 83719.140729 
L 268.874484 83719.140729 
L 268.874484 83719.140729 
L 266.111891 83719.140729 
z
" style="fill:#1f77b4;"/>
   </g>
   <g id="patch_77">
    <path clip-path="url(#pf5247406ad)" d="M 268.874484 83719.140729 
L 271.637077 83719.140729 
L 271.637077 83719.140729 
L 268.874484 83719.140729 
z
" style="fill:#1f77b4;"/>
   </g>
   <g id="patch_78">
    <path clip-path="url(#pf5247406ad)" d="M 271.637077 83719.140729 
L 274.399671 83719.140729 
L 274.399671 83719.140729 
L 271.637077 83719.140729 
z
" style="fill:#1f77b4;"/>
   </g>
   <g id="patch_79">
    <path clip-path="url(#pf5247406ad)" d="M 274.399671 83719.140729 
L 277.162264 83719.140729 
L 277.162264 83719.140729 
L 274.399671 83719.140729 
z
" style="fill:#1f77b4;"/>
   </g>
   <g id="patch_80">
    <path clip-path="url(#pf5247406ad)" d="M 277.162264 83719.140729 
L 279.924858 83719.140729 
L 279.924858 83719.140729 
L 277.162264 83719.140729 
z
" style="fill:#1f77b4;"/>
   </g>
   <g id="patch_81">
    <path clip-path="url(#pf5247406ad)" d="M 279.924858 83719.140729 
L 282.687451 83719.140729 
L 282.687451 83719.140729 
L 279.924858 83719.140729 
z
" style="fill:#1f77b4;"/>
   </g>
   <g id="patch_82">
    <path clip-path="url(#pf5247406ad)" d="M 282.687451 83719.140729 
L 285.450044 83719.140729 
L 285.450044 83719.140729 
L 282.687451 83719.140729 
z
" style="fill:#1f77b4;"/>
   </g>
   <g id="patch_83">
    <path clip-path="url(#pf5247406ad)" d="M 285.450044 83719.140729 
L 288.212638 83719.140729 
L 288.212638 83719.140729 
L 285.450044 83719.140729 
z
" style="fill:#1f77b4;"/>
   </g>
   <g id="patch_84">
    <path clip-path="url(#pf5247406ad)" d="M 288.212638 83719.140729 
L 290.975231 83719.140729 
L 290.975231 83719.140729 
L 288.212638 83719.140729 
z
" style="fill:#1f77b4;"/>
   </g>
   <g id="patch_85">
    <path clip-path="url(#pf5247406ad)" d="M 290.975231 83719.140729 
L 293.737824 83719.140729 
L 293.737824 83719.140729 
L 290.975231 83719.140729 
z
" style="fill:#1f77b4;"/>
   </g>
   <g id="patch_86">
    <path clip-path="url(#pf5247406ad)" d="M 293.737824 83719.140729 
L 296.500418 83719.140729 
L 296.500418 83719.140729 
L 293.737824 83719.140729 
z
" style="fill:#1f77b4;"/>
   </g>
   <g id="patch_87">
    <path clip-path="url(#pf5247406ad)" d="M 296.500418 83719.140729 
L 299.263011 83719.140729 
L 299.263011 83719.140729 
L 296.500418 83719.140729 
z
" style="fill:#1f77b4;"/>
   </g>
   <g id="patch_88">
    <path clip-path="url(#pf5247406ad)" d="M 299.263011 83719.140729 
L 302.025604 83719.140729 
L 302.025604 83719.140729 
L 299.263011 83719.140729 
z
" style="fill:#1f77b4;"/>
   </g>
   <g id="patch_89">
    <path clip-path="url(#pf5247406ad)" d="M 302.025604 83719.140729 
L 304.788198 83719.140729 
L 304.788198 83719.140729 
L 302.025604 83719.140729 
z
" style="fill:#1f77b4;"/>
   </g>
   <g id="patch_90">
    <path clip-path="url(#pf5247406ad)" d="M 304.788198 83719.140729 
L 307.550791 83719.140729 
L 307.550791 83719.140729 
L 304.788198 83719.140729 
z
" style="fill:#1f77b4;"/>
   </g>
   <g id="patch_91">
    <path clip-path="url(#pf5247406ad)" d="M 307.550791 83719.140729 
L 310.313384 83719.140729 
L 310.313384 83719.140729 
L 307.550791 83719.140729 
z
" style="fill:#1f77b4;"/>
   </g>
   <g id="patch_92">
    <path clip-path="url(#pf5247406ad)" d="M 310.313384 83719.140729 
L 313.075978 83719.140729 
L 313.075978 83719.140729 
L 310.313384 83719.140729 
z
" style="fill:#1f77b4;"/>
   </g>
   <g id="patch_93">
    <path clip-path="url(#pf5247406ad)" d="M 313.075978 83719.140729 
L 315.838571 83719.140729 
L 315.838571 83719.140729 
L 313.075978 83719.140729 
z
" style="fill:#1f77b4;"/>
   </g>
   <g id="patch_94">
    <path clip-path="url(#pf5247406ad)" d="M 315.838571 83719.140729 
L 318.601164 83719.140729 
L 318.601164 83719.140729 
L 315.838571 83719.140729 
z
" style="fill:#1f77b4;"/>
   </g>
   <g id="patch_95">
    <path clip-path="url(#pf5247406ad)" d="M 318.601164 83719.140729 
L 321.363758 83719.140729 
L 321.363758 83719.140729 
L 318.601164 83719.140729 
z
" style="fill:#1f77b4;"/>
   </g>
   <g id="patch_96">
    <path clip-path="url(#pf5247406ad)" d="M 321.363758 83719.140729 
L 324.126351 83719.140729 
L 324.126351 83719.140729 
L 321.363758 83719.140729 
z
" style="fill:#1f77b4;"/>
   </g>
   <g id="patch_97">
    <path clip-path="url(#pf5247406ad)" d="M 324.126351 83719.140729 
L 326.888944 83719.140729 
L 326.888944 83719.140729 
L 324.126351 83719.140729 
z
" style="fill:#1f77b4;"/>
   </g>
   <g id="patch_98">
    <path clip-path="url(#pf5247406ad)" d="M 326.888944 83719.140729 
L 329.651538 83719.140729 
L 329.651538 83719.140729 
L 326.888944 83719.140729 
z
" style="fill:#1f77b4;"/>
   </g>
   <g id="patch_99">
    <path clip-path="url(#pf5247406ad)" d="M 329.651538 83719.140729 
L 332.414131 83719.140729 
L 332.414131 83719.140729 
L 329.651538 83719.140729 
z
" style="fill:#1f77b4;"/>
   </g>
   <g id="patch_100">
    <path clip-path="url(#pf5247406ad)" d="M 332.414131 83719.140729 
L 335.176725 83719.140729 
L 335.176725 83719.140729 
L 332.414131 83719.140729 
z
" style="fill:#1f77b4;"/>
   </g>
   <g id="patch_101">
    <path clip-path="url(#pf5247406ad)" d="M 335.176725 83719.140729 
L 337.939318 83719.140729 
L 337.939318 83719.140729 
L 335.176725 83719.140729 
z
" style="fill:#1f77b4;"/>
   </g>
   <g id="patch_102">
    <path clip-path="url(#pf5247406ad)" d="M 337.939318 83719.140729 
L 340.701911 83719.140729 
L 340.701911 236.227273 
L 337.939318 236.227273 
z
" style="fill:#1f77b4;"/>
   </g>
   <g id="matplotlib.axis_1">
    <g id="xtick_1">
     <g id="line2d_1">
      <path clip-path="url(#pf5247406ad)" d="M 63.912398 246.2 
L 63.912398 26.8 
" style="fill:none;stroke:#b0b0b0;stroke-linecap:square;stroke-width:0.8;"/>
     </g>
     <g id="line2d_2">
      <defs>
       <path d="M 0 0 
L 0 3.5 
" id="m2713b8aeef" style="stroke:#000000;stroke-width:0.8;"/>
      </defs>
      <g>
       <use style="stroke:#000000;stroke-width:0.8;" x="63.912398" xlink:href="#m2713b8aeef" y="246.2"/>
      </g>
     </g>
     <g id="text_1">
      <!-- 0 -->
      <defs>
       <path d="M 31.78125 66.40625 
Q 24.171875 66.40625 20.328125 58.90625 
Q 16.5 51.421875 16.5 36.375 
Q 16.5 21.390625 20.328125 13.890625 
Q 24.171875 6.390625 31.78125 6.390625 
Q 39.453125 6.390625 43.28125 13.890625 
Q 47.125 21.390625 47.125 36.375 
Q 47.125 51.421875 43.28125 58.90625 
Q 39.453125 66.40625 31.78125 66.40625 
z
M 31.78125 74.21875 
Q 44.046875 74.21875 50.515625 64.515625 
Q 56.984375 54.828125 56.984375 36.375 
Q 56.984375 17.96875 50.515625 8.265625 
Q 44.046875 -1.421875 31.78125 -1.421875 
Q 19.53125 -1.421875 13.0625 8.265625 
Q 6.59375 17.96875 6.59375 36.375 
Q 6.59375 54.828125 13.0625 64.515625 
Q 19.53125 74.21875 31.78125 74.21875 
z
" id="DejaVuSans-48"/>
      </defs>
      <g transform="translate(60.731148 260.798437)scale(0.1 -0.1)">
       <use xlink:href="#DejaVuSans-48"/>
      </g>
     </g>
    </g>
    <g id="xtick_2">
     <g id="line2d_3">
      <path clip-path="url(#pf5247406ad)" d="M 117.565785 246.2 
L 117.565785 26.8 
" style="fill:none;stroke:#b0b0b0;stroke-linecap:square;stroke-width:0.8;"/>
     </g>
     <g id="line2d_4">
      <g>
       <use style="stroke:#000000;stroke-width:0.8;" x="117.565785" xlink:href="#m2713b8aeef" y="246.2"/>
      </g>
     </g>
     <g id="text_2">
      <!-- 100000 -->
      <defs>
       <path d="M 12.40625 8.296875 
L 28.515625 8.296875 
L 28.515625 63.921875 
L 10.984375 60.40625 
L 10.984375 69.390625 
L 28.421875 72.90625 
L 38.28125 72.90625 
L 38.28125 8.296875 
L 54.390625 8.296875 
L 54.390625 0 
L 12.40625 0 
z
" id="DejaVuSans-49"/>
      </defs>
      <g transform="translate(98.478285 260.798437)scale(0.1 -0.1)">
       <use xlink:href="#DejaVuSans-49"/>
       <use x="63.623047" xlink:href="#DejaVuSans-48"/>
       <use x="127.246094" xlink:href="#DejaVuSans-48"/>
       <use x="190.869141" xlink:href="#DejaVuSans-48"/>
       <use x="254.492188" xlink:href="#DejaVuSans-48"/>
       <use x="318.115234" xlink:href="#DejaVuSans-48"/>
      </g>
     </g>
    </g>
    <g id="xtick_3">
     <g id="line2d_5">
      <path clip-path="url(#pf5247406ad)" d="M 171.219171 246.2 
L 171.219171 26.8 
" style="fill:none;stroke:#b0b0b0;stroke-linecap:square;stroke-width:0.8;"/>
     </g>
     <g id="line2d_6">
      <g>
       <use style="stroke:#000000;stroke-width:0.8;" x="171.219171" xlink:href="#m2713b8aeef" y="246.2"/>
      </g>
     </g>
     <g id="text_3">
      <!-- 200000 -->
      <defs>
       <path d="M 19.1875 8.296875 
L 53.609375 8.296875 
L 53.609375 0 
L 7.328125 0 
L 7.328125 8.296875 
Q 12.9375 14.109375 22.625 23.890625 
Q 32.328125 33.6875 34.8125 36.53125 
Q 39.546875 41.84375 41.421875 45.53125 
Q 43.3125 49.21875 43.3125 52.78125 
Q 43.3125 58.59375 39.234375 62.25 
Q 35.15625 65.921875 28.609375 65.921875 
Q 23.96875 65.921875 18.8125 64.3125 
Q 13.671875 62.703125 7.8125 59.421875 
L 7.8125 69.390625 
Q 13.765625 71.78125 18.9375 73 
Q 24.125 74.21875 28.421875 74.21875 
Q 39.75 74.21875 46.484375 68.546875 
Q 53.21875 62.890625 53.21875 53.421875 
Q 53.21875 48.921875 51.53125 44.890625 
Q 49.859375 40.875 45.40625 35.40625 
Q 44.1875 33.984375 37.640625 27.21875 
Q 31.109375 20.453125 19.1875 8.296875 
z
" id="DejaVuSans-50"/>
      </defs>
      <g transform="translate(152.131671 260.798437)scale(0.1 -0.1)">
       <use xlink:href="#DejaVuSans-50"/>
       <use x="63.623047" xlink:href="#DejaVuSans-48"/>
       <use x="127.246094" xlink:href="#DejaVuSans-48"/>
       <use x="190.869141" xlink:href="#DejaVuSans-48"/>
       <use x="254.492188" xlink:href="#DejaVuSans-48"/>
       <use x="318.115234" xlink:href="#DejaVuSans-48"/>
      </g>
     </g>
    </g>
    <g id="xtick_4">
     <g id="line2d_7">
      <path clip-path="url(#pf5247406ad)" d="M 224.872558 246.2 
L 224.872558 26.8 
" style="fill:none;stroke:#b0b0b0;stroke-linecap:square;stroke-width:0.8;"/>
     </g>
     <g id="line2d_8">
      <g>
       <use style="stroke:#000000;stroke-width:0.8;" x="224.872558" xlink:href="#m2713b8aeef" y="246.2"/>
      </g>
     </g>
     <g id="text_4">
      <!-- 300000 -->
      <defs>
       <path d="M 40.578125 39.3125 
Q 47.65625 37.796875 51.625 33 
Q 55.609375 28.21875 55.609375 21.1875 
Q 55.609375 10.40625 48.1875 4.484375 
Q 40.765625 -1.421875 27.09375 -1.421875 
Q 22.515625 -1.421875 17.65625 -0.515625 
Q 12.796875 0.390625 7.625 2.203125 
L 7.625 11.71875 
Q 11.71875 9.328125 16.59375 8.109375 
Q 21.484375 6.890625 26.8125 6.890625 
Q 36.078125 6.890625 40.9375 10.546875 
Q 45.796875 14.203125 45.796875 21.1875 
Q 45.796875 27.640625 41.28125 31.265625 
Q 36.765625 34.90625 28.71875 34.90625 
L 20.21875 34.90625 
L 20.21875 43.015625 
L 29.109375 43.015625 
Q 36.375 43.015625 40.234375 45.921875 
Q 44.09375 48.828125 44.09375 54.296875 
Q 44.09375 59.90625 40.109375 62.90625 
Q 36.140625 65.921875 28.71875 65.921875 
Q 24.65625 65.921875 20.015625 65.03125 
Q 15.375 64.15625 9.8125 62.3125 
L 9.8125 71.09375 
Q 15.4375 72.65625 20.34375 73.4375 
Q 25.25 74.21875 29.59375 74.21875 
Q 40.828125 74.21875 47.359375 69.109375 
Q 53.90625 64.015625 53.90625 55.328125 
Q 53.90625 49.265625 50.4375 45.09375 
Q 46.96875 40.921875 40.578125 39.3125 
z
" id="DejaVuSans-51"/>
      </defs>
      <g transform="translate(205.785058 260.798437)scale(0.1 -0.1)">
       <use xlink:href="#DejaVuSans-51"/>
       <use x="63.623047" xlink:href="#DejaVuSans-48"/>
       <use x="127.246094" xlink:href="#DejaVuSans-48"/>
       <use x="190.869141" xlink:href="#DejaVuSans-48"/>
       <use x="254.492188" xlink:href="#DejaVuSans-48"/>
       <use x="318.115234" xlink:href="#DejaVuSans-48"/>
      </g>
     </g>
    </g>
    <g id="xtick_5">
     <g id="line2d_9">
      <path clip-path="url(#pf5247406ad)" d="M 278.525944 246.2 
L 278.525944 26.8 
" style="fill:none;stroke:#b0b0b0;stroke-linecap:square;stroke-width:0.8;"/>
     </g>
     <g id="line2d_10">
      <g>
       <use style="stroke:#000000;stroke-width:0.8;" x="278.525944" xlink:href="#m2713b8aeef" y="246.2"/>
      </g>
     </g>
     <g id="text_5">
      <!-- 400000 -->
      <defs>
       <path d="M 37.796875 64.3125 
L 12.890625 25.390625 
L 37.796875 25.390625 
z
M 35.203125 72.90625 
L 47.609375 72.90625 
L 47.609375 25.390625 
L 58.015625 25.390625 
L 58.015625 17.1875 
L 47.609375 17.1875 
L 47.609375 0 
L 37.796875 0 
L 37.796875 17.1875 
L 4.890625 17.1875 
L 4.890625 26.703125 
z
" id="DejaVuSans-52"/>
      </defs>
      <g transform="translate(259.438444 260.798437)scale(0.1 -0.1)">
       <use xlink:href="#DejaVuSans-52"/>
       <use x="63.623047" xlink:href="#DejaVuSans-48"/>
       <use x="127.246094" xlink:href="#DejaVuSans-48"/>
       <use x="190.869141" xlink:href="#DejaVuSans-48"/>
       <use x="254.492188" xlink:href="#DejaVuSans-48"/>
       <use x="318.115234" xlink:href="#DejaVuSans-48"/>
      </g>
     </g>
    </g>
    <g id="xtick_6">
     <g id="line2d_11">
      <path clip-path="url(#pf5247406ad)" d="M 332.179331 246.2 
L 332.179331 26.8 
" style="fill:none;stroke:#b0b0b0;stroke-linecap:square;stroke-width:0.8;"/>
     </g>
     <g id="line2d_12">
      <g>
       <use style="stroke:#000000;stroke-width:0.8;" x="332.179331" xlink:href="#m2713b8aeef" y="246.2"/>
      </g>
     </g>
     <g id="text_6">
      <!-- 500000 -->
      <defs>
       <path d="M 10.796875 72.90625 
L 49.515625 72.90625 
L 49.515625 64.59375 
L 19.828125 64.59375 
L 19.828125 46.734375 
Q 21.96875 47.46875 24.109375 47.828125 
Q 26.265625 48.1875 28.421875 48.1875 
Q 40.625 48.1875 47.75 41.5 
Q 54.890625 34.8125 54.890625 23.390625 
Q 54.890625 11.625 47.5625 5.09375 
Q 40.234375 -1.421875 26.90625 -1.421875 
Q 22.3125 -1.421875 17.546875 -0.640625 
Q 12.796875 0.140625 7.71875 1.703125 
L 7.71875 11.625 
Q 12.109375 9.234375 16.796875 8.0625 
Q 21.484375 6.890625 26.703125 6.890625 
Q 35.15625 6.890625 40.078125 11.328125 
Q 45.015625 15.765625 45.015625 23.390625 
Q 45.015625 31 40.078125 35.4375 
Q 35.15625 39.890625 26.703125 39.890625 
Q 22.75 39.890625 18.8125 39.015625 
Q 14.890625 38.140625 10.796875 36.28125 
z
" id="DejaVuSans-53"/>
      </defs>
      <g transform="translate(313.091831 260.798437)scale(0.1 -0.1)">
       <use xlink:href="#DejaVuSans-53"/>
       <use x="63.623047" xlink:href="#DejaVuSans-48"/>
       <use x="127.246094" xlink:href="#DejaVuSans-48"/>
       <use x="190.869141" xlink:href="#DejaVuSans-48"/>
       <use x="254.492188" xlink:href="#DejaVuSans-48"/>
       <use x="318.115234" xlink:href="#DejaVuSans-48"/>
      </g>
     </g>
    </g>
    <g id="text_7">
     <!-- Cost -->
     <defs>
      <path d="M 64.40625 67.28125 
L 64.40625 56.890625 
Q 59.421875 61.53125 53.78125 63.8125 
Q 48.140625 66.109375 41.796875 66.109375 
Q 29.296875 66.109375 22.65625 58.46875 
Q 16.015625 50.828125 16.015625 36.375 
Q 16.015625 21.96875 22.65625 14.328125 
Q 29.296875 6.6875 41.796875 6.6875 
Q 48.140625 6.6875 53.78125 8.984375 
Q 59.421875 11.28125 64.40625 15.921875 
L 64.40625 5.609375 
Q 59.234375 2.09375 53.4375 0.328125 
Q 47.65625 -1.421875 41.21875 -1.421875 
Q 24.65625 -1.421875 15.125 8.703125 
Q 5.609375 18.84375 5.609375 36.375 
Q 5.609375 53.953125 15.125 64.078125 
Q 24.65625 74.21875 41.21875 74.21875 
Q 47.75 74.21875 53.53125 72.484375 
Q 59.328125 70.75 64.40625 67.28125 
z
" id="DejaVuSans-67"/>
      <path d="M 30.609375 48.390625 
Q 23.390625 48.390625 19.1875 42.75 
Q 14.984375 37.109375 14.984375 27.296875 
Q 14.984375 17.484375 19.15625 11.84375 
Q 23.34375 6.203125 30.609375 6.203125 
Q 37.796875 6.203125 41.984375 11.859375 
Q 46.1875 17.53125 46.1875 27.296875 
Q 46.1875 37.015625 41.984375 42.703125 
Q 37.796875 48.390625 30.609375 48.390625 
z
M 30.609375 56 
Q 42.328125 56 49.015625 48.375 
Q 55.71875 40.765625 55.71875 27.296875 
Q 55.71875 13.875 49.015625 6.21875 
Q 42.328125 -1.421875 30.609375 -1.421875 
Q 18.84375 -1.421875 12.171875 6.21875 
Q 5.515625 13.875 5.515625 27.296875 
Q 5.515625 40.765625 12.171875 48.375 
Q 18.84375 56 30.609375 56 
z
" id="DejaVuSans-111"/>
      <path d="M 44.28125 53.078125 
L 44.28125 44.578125 
Q 40.484375 46.53125 36.375 47.5 
Q 32.28125 48.484375 27.875 48.484375 
Q 21.1875 48.484375 17.84375 46.4375 
Q 14.5 44.390625 14.5 40.28125 
Q 14.5 37.15625 16.890625 35.375 
Q 19.28125 33.59375 26.515625 31.984375 
L 29.59375 31.296875 
Q 39.15625 29.25 43.1875 25.515625 
Q 47.21875 21.78125 47.21875 15.09375 
Q 47.21875 7.46875 41.1875 3.015625 
Q 35.15625 -1.421875 24.609375 -1.421875 
Q 20.21875 -1.421875 15.453125 -0.5625 
Q 10.6875 0.296875 5.421875 2 
L 5.421875 11.28125 
Q 10.40625 8.6875 15.234375 7.390625 
Q 20.0625 6.109375 24.8125 6.109375 
Q 31.15625 6.109375 34.5625 8.28125 
Q 37.984375 10.453125 37.984375 14.40625 
Q 37.984375 18.0625 35.515625 20.015625 
Q 33.0625 21.96875 24.703125 23.78125 
L 21.578125 24.515625 
Q 13.234375 26.265625 9.515625 29.90625 
Q 5.8125 33.546875 5.8125 39.890625 
Q 5.8125 47.609375 11.28125 51.796875 
Q 16.75 56 26.8125 56 
Q 31.78125 56 36.171875 55.265625 
Q 40.578125 54.546875 44.28125 53.078125 
z
" id="DejaVuSans-115"/>
      <path d="M 18.3125 70.21875 
L 18.3125 54.6875 
L 36.8125 54.6875 
L 36.8125 47.703125 
L 18.3125 47.703125 
L 18.3125 18.015625 
Q 18.3125 11.328125 20.140625 9.421875 
Q 21.96875 7.515625 27.59375 7.515625 
L 36.8125 7.515625 
L 36.8125 0 
L 27.59375 0 
Q 17.1875 0 13.234375 3.875 
Q 9.28125 7.765625 9.28125 18.015625 
L 9.28125 47.703125 
L 2.6875 47.703125 
L 2.6875 54.6875 
L 9.28125 54.6875 
L 9.28125 70.21875 
z
" id="DejaVuSans-116"/>
     </defs>
     <g transform="translate(191.456619 274.476562)scale(0.1 -0.1)">
      <use xlink:href="#DejaVuSans-67"/>
      <use x="69.824219" xlink:href="#DejaVuSans-111"/>
      <use x="131.005859" xlink:href="#DejaVuSans-115"/>
      <use x="183.105469" xlink:href="#DejaVuSans-116"/>
     </g>
    </g>
   </g>
   <g id="matplotlib.axis_2">
    <g id="ytick_1">
     <g id="line2d_13">
      <path clip-path="url(#pf5247406ad)" d="M 50.629609 236.227273 
L 354.514878 236.227273 
" style="fill:none;stroke:#b0b0b0;stroke-linecap:square;stroke-width:0.8;"/>
     </g>
     <g id="line2d_14">
      <defs>
       <path d="M 0 0 
L -3.5 0 
" id="ma466b5b7c1" style="stroke:#000000;stroke-width:0.8;"/>
      </defs>
      <g>
       <use style="stroke:#000000;stroke-width:0.8;" x="50.629609" xlink:href="#ma466b5b7c1" y="236.227273"/>
      </g>
     </g>
     <g id="text_8">
      <!-- $\mathdefault{10^{0}}$ -->
      <g transform="translate(26.029609 240.026491)scale(0.1 -0.1)">
       <use transform="translate(0 0.765625)" xlink:href="#DejaVuSans-49"/>
       <use transform="translate(63.623047 0.765625)" xlink:href="#DejaVuSans-48"/>
       <use transform="translate(128.203125 39.046875)scale(0.7)" xlink:href="#DejaVuSans-48"/>
      </g>
     </g>
    </g>
    <g id="ytick_2">
     <g id="line2d_15">
      <path clip-path="url(#pf5247406ad)" d="M 50.629609 152.744359 
L 354.514878 152.744359 
" style="fill:none;stroke:#b0b0b0;stroke-linecap:square;stroke-width:0.8;"/>
     </g>
     <g id="line2d_16">
      <g>
       <use style="stroke:#000000;stroke-width:0.8;" x="50.629609" xlink:href="#ma466b5b7c1" y="152.744359"/>
      </g>
     </g>
     <g id="text_9">
      <!-- $\mathdefault{10^{1}}$ -->
      <g transform="translate(26.029609 156.543578)scale(0.1 -0.1)">
       <use transform="translate(0 0.684375)" xlink:href="#DejaVuSans-49"/>
       <use transform="translate(63.623047 0.684375)" xlink:href="#DejaVuSans-48"/>
       <use transform="translate(128.203125 38.965625)scale(0.7)" xlink:href="#DejaVuSans-49"/>
      </g>
     </g>
    </g>
    <g id="ytick_3">
     <g id="line2d_17">
      <path clip-path="url(#pf5247406ad)" d="M 50.629609 69.261446 
L 354.514878 69.261446 
" style="fill:none;stroke:#b0b0b0;stroke-linecap:square;stroke-width:0.8;"/>
     </g>
     <g id="line2d_18">
      <g>
       <use style="stroke:#000000;stroke-width:0.8;" x="50.629609" xlink:href="#ma466b5b7c1" y="69.261446"/>
      </g>
     </g>
     <g id="text_10">
      <!-- $\mathdefault{10^{2}}$ -->
      <g transform="translate(26.029609 73.060665)scale(0.1 -0.1)">
       <use transform="translate(0 0.765625)" xlink:href="#DejaVuSans-49"/>
       <use transform="translate(63.623047 0.765625)" xlink:href="#DejaVuSans-48"/>
       <use transform="translate(128.203125 39.046875)scale(0.7)" xlink:href="#DejaVuSans-50"/>
      </g>
     </g>
    </g>
    <g id="ytick_4">
     <g id="line2d_19">
      <defs>
       <path d="M 0 0 
L -2 0 
" id="m4fe4ae3a1e" style="stroke:#000000;stroke-width:0.6;"/>
      </defs>
      <g>
       <use style="stroke:#000000;stroke-width:0.6;" x="50.629609" xlink:href="#m4fe4ae3a1e" y="244.317603"/>
      </g>
     </g>
    </g>
    <g id="ytick_5">
     <g id="line2d_20">
      <g>
       <use style="stroke:#000000;stroke-width:0.6;" x="50.629609" xlink:href="#m4fe4ae3a1e" y="240.047241"/>
      </g>
     </g>
    </g>
    <g id="ytick_6">
     <g id="line2d_21">
      <g>
       <use style="stroke:#000000;stroke-width:0.6;" x="50.629609" xlink:href="#m4fe4ae3a1e" y="211.096412"/>
      </g>
     </g>
    </g>
    <g id="ytick_7">
     <g id="line2d_22">
      <g>
       <use style="stroke:#000000;stroke-width:0.6;" x="50.629609" xlink:href="#m4fe4ae3a1e" y="196.3958"/>
      </g>
     </g>
    </g>
    <g id="ytick_8">
     <g id="line2d_23">
      <g>
       <use style="stroke:#000000;stroke-width:0.6;" x="50.629609" xlink:href="#m4fe4ae3a1e" y="185.965551"/>
      </g>
     </g>
    </g>
    <g id="ytick_9">
     <g id="line2d_24">
      <g>
       <use style="stroke:#000000;stroke-width:0.6;" x="50.629609" xlink:href="#m4fe4ae3a1e" y="177.87522"/>
      </g>
     </g>
    </g>
    <g id="ytick_10">
     <g id="line2d_25">
      <g>
       <use style="stroke:#000000;stroke-width:0.6;" x="50.629609" xlink:href="#m4fe4ae3a1e" y="171.264939"/>
      </g>
     </g>
    </g>
    <g id="ytick_11">
     <g id="line2d_26">
      <g>
       <use style="stroke:#000000;stroke-width:0.6;" x="50.629609" xlink:href="#m4fe4ae3a1e" y="165.676026"/>
      </g>
     </g>
    </g>
    <g id="ytick_12">
     <g id="line2d_27">
      <g>
       <use style="stroke:#000000;stroke-width:0.6;" x="50.629609" xlink:href="#m4fe4ae3a1e" y="160.834689"/>
      </g>
     </g>
    </g>
    <g id="ytick_13">
     <g id="line2d_28">
      <g>
       <use style="stroke:#000000;stroke-width:0.6;" x="50.629609" xlink:href="#m4fe4ae3a1e" y="156.564328"/>
      </g>
     </g>
    </g>
    <g id="ytick_14">
     <g id="line2d_29">
      <g>
       <use style="stroke:#000000;stroke-width:0.6;" x="50.629609" xlink:href="#m4fe4ae3a1e" y="127.613498"/>
      </g>
     </g>
    </g>
    <g id="ytick_15">
     <g id="line2d_30">
      <g>
       <use style="stroke:#000000;stroke-width:0.6;" x="50.629609" xlink:href="#m4fe4ae3a1e" y="112.912887"/>
      </g>
     </g>
    </g>
    <g id="ytick_16">
     <g id="line2d_31">
      <g>
       <use style="stroke:#000000;stroke-width:0.6;" x="50.629609" xlink:href="#m4fe4ae3a1e" y="102.482637"/>
      </g>
     </g>
    </g>
    <g id="ytick_17">
     <g id="line2d_32">
      <g>
       <use style="stroke:#000000;stroke-width:0.6;" x="50.629609" xlink:href="#m4fe4ae3a1e" y="94.392307"/>
      </g>
     </g>
    </g>
    <g id="ytick_18">
     <g id="line2d_33">
      <g>
       <use style="stroke:#000000;stroke-width:0.6;" x="50.629609" xlink:href="#m4fe4ae3a1e" y="87.782026"/>
      </g>
     </g>
    </g>
    <g id="ytick_19">
     <g id="line2d_34">
      <g>
       <use style="stroke:#000000;stroke-width:0.6;" x="50.629609" xlink:href="#m4fe4ae3a1e" y="82.193113"/>
      </g>
     </g>
    </g>
    <g id="ytick_20">
     <g id="line2d_35">
      <g>
       <use style="stroke:#000000;stroke-width:0.6;" x="50.629609" xlink:href="#m4fe4ae3a1e" y="77.351776"/>
      </g>
     </g>
    </g>
    <g id="ytick_21">
     <g id="line2d_36">
      <g>
       <use style="stroke:#000000;stroke-width:0.6;" x="50.629609" xlink:href="#m4fe4ae3a1e" y="73.081414"/>
      </g>
     </g>
    </g>
    <g id="ytick_22">
     <g id="line2d_37">
      <g>
       <use style="stroke:#000000;stroke-width:0.6;" x="50.629609" xlink:href="#m4fe4ae3a1e" y="44.130585"/>
      </g>
     </g>
    </g>
    <g id="ytick_23">
     <g id="line2d_38">
      <g>
       <use style="stroke:#000000;stroke-width:0.6;" x="50.629609" xlink:href="#m4fe4ae3a1e" y="29.429973"/>
      </g>
     </g>
    </g>
    <g id="text_11">
     <!-- Count -->
     <defs>
      <path d="M 8.5 21.578125 
L 8.5 54.6875 
L 17.484375 54.6875 
L 17.484375 21.921875 
Q 17.484375 14.15625 20.5 10.265625 
Q 23.53125 6.390625 29.59375 6.390625 
Q 36.859375 6.390625 41.078125 11.03125 
Q 45.3125 15.671875 45.3125 23.6875 
L 45.3125 54.6875 
L 54.296875 54.6875 
L 54.296875 0 
L 45.3125 0 
L 45.3125 8.40625 
Q 42.046875 3.421875 37.71875 1 
Q 33.40625 -1.421875 27.6875 -1.421875 
Q 18.265625 -1.421875 13.375 4.4375 
Q 8.5 10.296875 8.5 21.578125 
z
M 31.109375 56 
z
" id="DejaVuSans-117"/>
      <path d="M 54.890625 33.015625 
L 54.890625 0 
L 45.90625 0 
L 45.90625 32.71875 
Q 45.90625 40.484375 42.875 44.328125 
Q 39.84375 48.1875 33.796875 48.1875 
Q 26.515625 48.1875 22.3125 43.546875 
Q 18.109375 38.921875 18.109375 30.90625 
L 18.109375 0 
L 9.078125 0 
L 9.078125 54.6875 
L 18.109375 54.6875 
L 18.109375 46.1875 
Q 21.34375 51.125 25.703125 53.5625 
Q 30.078125 56 35.796875 56 
Q 45.21875 56 50.046875 50.171875 
Q 54.890625 44.34375 54.890625 33.015625 
z
" id="DejaVuSans-110"/>
     </defs>
     <g transform="translate(19.949922 151.348437)rotate(-90)scale(0.1 -0.1)">
      <use xlink:href="#DejaVuSans-67"/>
      <use x="69.824219" xlink:href="#DejaVuSans-111"/>
      <use x="131.005859" xlink:href="#DejaVuSans-117"/>
      <use x="194.384766" xlink:href="#DejaVuSans-110"/>
      <use x="257.763672" xlink:href="#DejaVuSans-116"/>
     </g>
    </g>
   </g>
   <g id="patch_103">
    <path d="M 50.629609 246.2 
L 50.629609 26.8 
" style="fill:none;stroke:#000000;stroke-linecap:square;stroke-linejoin:miter;stroke-width:0.8;"/>
   </g>
   <g id="patch_104">
    <path d="M 354.514878 246.2 
L 354.514878 26.8 
" style="fill:none;stroke:#000000;stroke-linecap:square;stroke-linejoin:miter;stroke-width:0.8;"/>
   </g>
   <g id="patch_105">
    <path d="M 50.629609 246.2 
L 354.514878 246.2 
" style="fill:none;stroke:#000000;stroke-linecap:square;stroke-linejoin:miter;stroke-width:0.8;"/>
   </g>
   <g id="patch_106">
    <path d="M 50.629609 26.8 
L 354.514878 26.8 
" style="fill:none;stroke:#000000;stroke-linecap:square;stroke-linejoin:miter;stroke-width:0.8;"/>
   </g>
   <g id="text_12">
    <!-- Biosynthetic cost of proteins in the model -->
    <defs>
     <path d="M 19.671875 34.8125 
L 19.671875 8.109375 
L 35.5 8.109375 
Q 43.453125 8.109375 47.28125 11.40625 
Q 51.125 14.703125 51.125 21.484375 
Q 51.125 28.328125 47.28125 31.5625 
Q 43.453125 34.8125 35.5 34.8125 
z
M 19.671875 64.796875 
L 19.671875 42.828125 
L 34.28125 42.828125 
Q 41.5 42.828125 45.03125 45.53125 
Q 48.578125 48.25 48.578125 53.8125 
Q 48.578125 59.328125 45.03125 62.0625 
Q 41.5 64.796875 34.28125 64.796875 
z
M 9.8125 72.90625 
L 35.015625 72.90625 
Q 46.296875 72.90625 52.390625 68.21875 
Q 58.5 63.53125 58.5 54.890625 
Q 58.5 48.1875 55.375 44.234375 
Q 52.25 40.28125 46.1875 39.3125 
Q 53.46875 37.75 57.5 32.78125 
Q 61.53125 27.828125 61.53125 20.40625 
Q 61.53125 10.640625 54.890625 5.3125 
Q 48.25 0 35.984375 0 
L 9.8125 0 
z
" id="DejaVuSans-66"/>
     <path d="M 9.421875 54.6875 
L 18.40625 54.6875 
L 18.40625 0 
L 9.421875 0 
z
M 9.421875 75.984375 
L 18.40625 75.984375 
L 18.40625 64.59375 
L 9.421875 64.59375 
z
" id="DejaVuSans-105"/>
     <path d="M 32.171875 -5.078125 
Q 28.375 -14.84375 24.75 -17.8125 
Q 21.140625 -20.796875 15.09375 -20.796875 
L 7.90625 -20.796875 
L 7.90625 -13.28125 
L 13.1875 -13.28125 
Q 16.890625 -13.28125 18.9375 -11.515625 
Q 21 -9.765625 23.484375 -3.21875 
L 25.09375 0.875 
L 2.984375 54.6875 
L 12.5 54.6875 
L 29.59375 11.921875 
L 46.6875 54.6875 
L 56.203125 54.6875 
z
" id="DejaVuSans-121"/>
     <path d="M 54.890625 33.015625 
L 54.890625 0 
L 45.90625 0 
L 45.90625 32.71875 
Q 45.90625 40.484375 42.875 44.328125 
Q 39.84375 48.1875 33.796875 48.1875 
Q 26.515625 48.1875 22.3125 43.546875 
Q 18.109375 38.921875 18.109375 30.90625 
L 18.109375 0 
L 9.078125 0 
L 9.078125 75.984375 
L 18.109375 75.984375 
L 18.109375 46.1875 
Q 21.34375 51.125 25.703125 53.5625 
Q 30.078125 56 35.796875 56 
Q 45.21875 56 50.046875 50.171875 
Q 54.890625 44.34375 54.890625 33.015625 
z
" id="DejaVuSans-104"/>
     <path d="M 56.203125 29.59375 
L 56.203125 25.203125 
L 14.890625 25.203125 
Q 15.484375 15.921875 20.484375 11.0625 
Q 25.484375 6.203125 34.421875 6.203125 
Q 39.59375 6.203125 44.453125 7.46875 
Q 49.3125 8.734375 54.109375 11.28125 
L 54.109375 2.78125 
Q 49.265625 0.734375 44.1875 -0.34375 
Q 39.109375 -1.421875 33.890625 -1.421875 
Q 20.796875 -1.421875 13.15625 6.1875 
Q 5.515625 13.8125 5.515625 26.8125 
Q 5.515625 40.234375 12.765625 48.109375 
Q 20.015625 56 32.328125 56 
Q 43.359375 56 49.78125 48.890625 
Q 56.203125 41.796875 56.203125 29.59375 
z
M 47.21875 32.234375 
Q 47.125 39.59375 43.09375 43.984375 
Q 39.0625 48.390625 32.421875 48.390625 
Q 24.90625 48.390625 20.390625 44.140625 
Q 15.875 39.890625 15.1875 32.171875 
z
" id="DejaVuSans-101"/>
     <path d="M 48.78125 52.59375 
L 48.78125 44.1875 
Q 44.96875 46.296875 41.140625 47.34375 
Q 37.3125 48.390625 33.40625 48.390625 
Q 24.65625 48.390625 19.8125 42.84375 
Q 14.984375 37.3125 14.984375 27.296875 
Q 14.984375 17.28125 19.8125 11.734375 
Q 24.65625 6.203125 33.40625 6.203125 
Q 37.3125 6.203125 41.140625 7.25 
Q 44.96875 8.296875 48.78125 10.40625 
L 48.78125 2.09375 
Q 45.015625 0.34375 40.984375 -0.53125 
Q 36.96875 -1.421875 32.421875 -1.421875 
Q 20.0625 -1.421875 12.78125 6.34375 
Q 5.515625 14.109375 5.515625 27.296875 
Q 5.515625 40.671875 12.859375 48.328125 
Q 20.21875 56 33.015625 56 
Q 37.15625 56 41.109375 55.140625 
Q 45.0625 54.296875 48.78125 52.59375 
z
" id="DejaVuSans-99"/>
     <path id="DejaVuSans-32"/>
     <path d="M 37.109375 75.984375 
L 37.109375 68.5 
L 28.515625 68.5 
Q 23.6875 68.5 21.796875 66.546875 
Q 19.921875 64.59375 19.921875 59.515625 
L 19.921875 54.6875 
L 34.71875 54.6875 
L 34.71875 47.703125 
L 19.921875 47.703125 
L 19.921875 0 
L 10.890625 0 
L 10.890625 47.703125 
L 2.296875 47.703125 
L 2.296875 54.6875 
L 10.890625 54.6875 
L 10.890625 58.5 
Q 10.890625 67.625 15.140625 71.796875 
Q 19.390625 75.984375 28.609375 75.984375 
z
" id="DejaVuSans-102"/>
     <path d="M 18.109375 8.203125 
L 18.109375 -20.796875 
L 9.078125 -20.796875 
L 9.078125 54.6875 
L 18.109375 54.6875 
L 18.109375 46.390625 
Q 20.953125 51.265625 25.265625 53.625 
Q 29.59375 56 35.59375 56 
Q 45.5625 56 51.78125 48.09375 
Q 58.015625 40.1875 58.015625 27.296875 
Q 58.015625 14.40625 51.78125 6.484375 
Q 45.5625 -1.421875 35.59375 -1.421875 
Q 29.59375 -1.421875 25.265625 0.953125 
Q 20.953125 3.328125 18.109375 8.203125 
z
M 48.6875 27.296875 
Q 48.6875 37.203125 44.609375 42.84375 
Q 40.53125 48.484375 33.40625 48.484375 
Q 26.265625 48.484375 22.1875 42.84375 
Q 18.109375 37.203125 18.109375 27.296875 
Q 18.109375 17.390625 22.1875 11.75 
Q 26.265625 6.109375 33.40625 6.109375 
Q 40.53125 6.109375 44.609375 11.75 
Q 48.6875 17.390625 48.6875 27.296875 
z
" id="DejaVuSans-112"/>
     <path d="M 41.109375 46.296875 
Q 39.59375 47.171875 37.8125 47.578125 
Q 36.03125 48 33.890625 48 
Q 26.265625 48 22.1875 43.046875 
Q 18.109375 38.09375 18.109375 28.8125 
L 18.109375 0 
L 9.078125 0 
L 9.078125 54.6875 
L 18.109375 54.6875 
L 18.109375 46.1875 
Q 20.953125 51.171875 25.484375 53.578125 
Q 30.03125 56 36.53125 56 
Q 37.453125 56 38.578125 55.875 
Q 39.703125 55.765625 41.0625 55.515625 
z
" id="DejaVuSans-114"/>
     <path d="M 52 44.1875 
Q 55.375 50.25 60.0625 53.125 
Q 64.75 56 71.09375 56 
Q 79.640625 56 84.28125 50.015625 
Q 88.921875 44.046875 88.921875 33.015625 
L 88.921875 0 
L 79.890625 0 
L 79.890625 32.71875 
Q 79.890625 40.578125 77.09375 44.375 
Q 74.3125 48.1875 68.609375 48.1875 
Q 61.625 48.1875 57.5625 43.546875 
Q 53.515625 38.921875 53.515625 30.90625 
L 53.515625 0 
L 44.484375 0 
L 44.484375 32.71875 
Q 44.484375 40.625 41.703125 44.40625 
Q 38.921875 48.1875 33.109375 48.1875 
Q 26.21875 48.1875 22.15625 43.53125 
Q 18.109375 38.875 18.109375 30.90625 
L 18.109375 0 
L 9.078125 0 
L 9.078125 54.6875 
L 18.109375 54.6875 
L 18.109375 46.1875 
Q 21.1875 51.21875 25.484375 53.609375 
Q 29.78125 56 35.6875 56 
Q 41.65625 56 45.828125 52.96875 
Q 50 49.953125 52 44.1875 
z
" id="DejaVuSans-109"/>
     <path d="M 45.40625 46.390625 
L 45.40625 75.984375 
L 54.390625 75.984375 
L 54.390625 0 
L 45.40625 0 
L 45.40625 8.203125 
Q 42.578125 3.328125 38.25 0.953125 
Q 33.9375 -1.421875 27.875 -1.421875 
Q 17.96875 -1.421875 11.734375 6.484375 
Q 5.515625 14.40625 5.515625 27.296875 
Q 5.515625 40.1875 11.734375 48.09375 
Q 17.96875 56 27.875 56 
Q 33.9375 56 38.25 53.625 
Q 42.578125 51.265625 45.40625 46.390625 
z
M 14.796875 27.296875 
Q 14.796875 17.390625 18.875 11.75 
Q 22.953125 6.109375 30.078125 6.109375 
Q 37.203125 6.109375 41.296875 11.75 
Q 45.40625 17.390625 45.40625 27.296875 
Q 45.40625 37.203125 41.296875 42.84375 
Q 37.203125 48.484375 30.078125 48.484375 
Q 22.953125 48.484375 18.875 42.84375 
Q 14.796875 37.203125 14.796875 27.296875 
z
" id="DejaVuSans-100"/>
     <path d="M 9.421875 75.984375 
L 18.40625 75.984375 
L 18.40625 0 
L 9.421875 0 
z
" id="DejaVuSans-108"/>
    </defs>
    <g transform="translate(77.217244 20.8)scale(0.12 -0.12)">
     <use xlink:href="#DejaVuSans-66"/>
     <use x="68.603516" xlink:href="#DejaVuSans-105"/>
     <use x="96.386719" xlink:href="#DejaVuSans-111"/>
     <use x="157.568359" xlink:href="#DejaVuSans-115"/>
     <use x="209.667969" xlink:href="#DejaVuSans-121"/>
     <use x="268.847656" xlink:href="#DejaVuSans-110"/>
     <use x="332.226562" xlink:href="#DejaVuSans-116"/>
     <use x="371.435547" xlink:href="#DejaVuSans-104"/>
     <use x="434.814453" xlink:href="#DejaVuSans-101"/>
     <use x="496.337891" xlink:href="#DejaVuSans-116"/>
     <use x="535.546875" xlink:href="#DejaVuSans-105"/>
     <use x="563.330078" xlink:href="#DejaVuSans-99"/>
     <use x="618.310547" xlink:href="#DejaVuSans-32"/>
     <use x="650.097656" xlink:href="#DejaVuSans-99"/>
     <use x="705.078125" xlink:href="#DejaVuSans-111"/>
     <use x="766.259766" xlink:href="#DejaVuSans-115"/>
     <use x="818.359375" xlink:href="#DejaVuSans-116"/>
     <use x="857.568359" xlink:href="#DejaVuSans-32"/>
     <use x="889.355469" xlink:href="#DejaVuSans-111"/>
     <use x="950.537109" xlink:href="#DejaVuSans-102"/>
     <use x="985.742188" xlink:href="#DejaVuSans-32"/>
     <use x="1017.529297" xlink:href="#DejaVuSans-112"/>
     <use x="1081.005859" xlink:href="#DejaVuSans-114"/>
     <use x="1122.087891" xlink:href="#DejaVuSans-111"/>
     <use x="1183.269531" xlink:href="#DejaVuSans-116"/>
     <use x="1222.478516" xlink:href="#DejaVuSans-101"/>
     <use x="1284.001953" xlink:href="#DejaVuSans-105"/>
     <use x="1311.785156" xlink:href="#DejaVuSans-110"/>
     <use x="1375.164062" xlink:href="#DejaVuSans-115"/>
     <use x="1427.263672" xlink:href="#DejaVuSans-32"/>
     <use x="1459.050781" xlink:href="#DejaVuSans-105"/>
     <use x="1486.833984" xlink:href="#DejaVuSans-110"/>
     <use x="1550.212891" xlink:href="#DejaVuSans-32"/>
     <use x="1582" xlink:href="#DejaVuSans-116"/>
     <use x="1621.208984" xlink:href="#DejaVuSans-104"/>
     <use x="1684.587891" xlink:href="#DejaVuSans-101"/>
     <use x="1746.111328" xlink:href="#DejaVuSans-32"/>
     <use x="1777.898438" xlink:href="#DejaVuSans-109"/>
     <use x="1875.310547" xlink:href="#DejaVuSans-111"/>
     <use x="1936.492188" xlink:href="#DejaVuSans-100"/>
     <use x="1999.96875" xlink:href="#DejaVuSans-101"/>
     <use x="2061.492188" xlink:href="#DejaVuSans-108"/>
    </g>
   </g>
  </g>
  <g id="axes_2">
   <g id="patch_107">
    <path d="M 405.314731 246.2 
L 709.2 246.2 
L 709.2 26.8 
L 405.314731 26.8 
z
" style="fill:#ffffff;"/>
   </g>
   <g id="patch_108">
    <path clip-path="url(#p3f3f1c55ca)" d="M 419.127698 84621.713195 
L 421.890292 84621.713195 
L 421.890292 61.702404 
L 419.127698 61.702404 
z
" style="fill:#1f77b4;"/>
   </g>
   <g id="patch_109">
    <path clip-path="url(#p3f3f1c55ca)" d="M 421.890292 84621.713195 
L 424.652885 84621.713195 
L 424.652885 36.772727 
L 421.890292 36.772727 
z
" style="fill:#1f77b4;"/>
   </g>
   <g id="patch_110">
    <path clip-path="url(#p3f3f1c55ca)" d="M 424.652885 84621.713195 
L 427.415478 84621.713195 
L 427.415478 41.689077 
L 424.652885 41.689077 
z
" style="fill:#1f77b4;"/>
   </g>
   <g id="patch_111">
    <path clip-path="url(#p3f3f1c55ca)" d="M 427.415478 84621.713195 
L 430.178072 84621.713195 
L 430.178072 68.572575 
L 427.415478 68.572575 
z
" style="fill:#1f77b4;"/>
   </g>
   <g id="patch_112">
    <path clip-path="url(#p3f3f1c55ca)" d="M 430.178072 84621.713195 
L 432.940665 84621.713195 
L 432.940665 91.421497 
L 430.178072 91.421497 
z
" style="fill:#1f77b4;"/>
   </g>
   <g id="patch_113">
    <path clip-path="url(#p3f3f1c55ca)" d="M 432.940665 84621.713195 
L 435.703258 84621.713195 
L 435.703258 114.108139 
L 432.940665 114.108139 
z
" style="fill:#1f77b4;"/>
   </g>
   <g id="patch_114">
    <path clip-path="url(#p3f3f1c55ca)" d="M 435.703258 84621.713195 
L 438.465852 84621.713195 
L 438.465852 112.822107 
L 435.703258 112.822107 
z
" style="fill:#1f77b4;"/>
   </g>
   <g id="patch_115">
    <path clip-path="url(#p3f3f1c55ca)" d="M 438.465852 84621.713195 
L 441.228445 84621.713195 
L 441.228445 130.300492 
L 438.465852 130.300492 
z
" style="fill:#1f77b4;"/>
   </g>
   <g id="patch_116">
    <path clip-path="url(#p3f3f1c55ca)" d="M 441.228445 84621.713195 
L 443.991038 84621.713195 
L 443.991038 114.108139 
L 441.228445 114.108139 
z
" style="fill:#1f77b4;"/>
   </g>
   <g id="patch_117">
    <path clip-path="url(#p3f3f1c55ca)" d="M 443.991038 84621.713195 
L 446.753632 84621.713195 
L 446.753632 119.757476 
L 443.991038 119.757476 
z
" style="fill:#1f77b4;"/>
   </g>
   <g id="patch_118">
    <path clip-path="url(#p3f3f1c55ca)" d="M 446.753632 84621.713195 
L 449.516225 84621.713195 
L 449.516225 155.703055 
L 446.753632 155.703055 
z
" style="fill:#1f77b4;"/>
   </g>
   <g id="patch_119">
    <path clip-path="url(#p3f3f1c55ca)" d="M 449.516225 84621.713195 
L 452.278818 84621.713195 
L 452.278818 185.422148 
L 449.516225 185.422148 
z
" style="fill:#1f77b4;"/>
   </g>
   <g id="patch_120">
    <path clip-path="url(#p3f3f1c55ca)" d="M 452.278818 84621.713195 
L 455.041412 84621.713195 
L 455.041412 195.965164 
L 452.278818 195.965164 
z
" style="fill:#1f77b4;"/>
   </g>
   <g id="patch_121">
    <path clip-path="url(#p3f3f1c55ca)" d="M 455.041412 84621.713195 
L 457.804005 84621.713195 
L 457.804005 170.562601 
L 455.041412 170.562601 
z
" style="fill:#1f77b4;"/>
   </g>
   <g id="patch_122">
    <path clip-path="url(#p3f3f1c55ca)" d="M 457.804005 84621.713195 
L 460.566598 84621.713195 
L 460.566598 236.227273 
L 457.804005 236.227273 
z
" style="fill:#1f77b4;"/>
   </g>
   <g id="patch_123">
    <path clip-path="url(#p3f3f1c55ca)" d="M 460.566598 84621.713195 
L 463.329192 84621.713195 
L 463.329192 210.82471 
L 460.566598 210.82471 
z
" style="fill:#1f77b4;"/>
   </g>
   <g id="patch_124">
    <path clip-path="url(#p3f3f1c55ca)" d="M 463.329192 84621.713195 
L 466.091785 84621.713195 
L 466.091785 151.841787 
L 463.329192 151.841787 
z
" style="fill:#1f77b4;"/>
   </g>
   <g id="patch_125">
    <path clip-path="url(#p3f3f1c55ca)" d="M 466.091785 84621.713195 
L 468.854378 84621.713195 
L 468.854378 177.244349 
L 466.091785 177.244349 
z
" style="fill:#1f77b4;"/>
   </g>
   <g id="patch_126">
    <path clip-path="url(#p3f3f1c55ca)" d="M 468.854378 84621.713195 
L 471.616972 84621.713195 
L 471.616972 84621.713195 
L 468.854378 84621.713195 
z
" style="fill:#1f77b4;"/>
   </g>
   <g id="patch_127">
    <path clip-path="url(#p3f3f1c55ca)" d="M 471.616972 84621.713195 
L 474.379565 84621.713195 
L 474.379565 236.227273 
L 471.616972 236.227273 
z
" style="fill:#1f77b4;"/>
   </g>
   <g id="patch_128">
    <path clip-path="url(#p3f3f1c55ca)" d="M 474.379565 84621.713195 
L 477.142159 84621.713195 
L 477.142159 84621.713195 
L 474.379565 84621.713195 
z
" style="fill:#1f77b4;"/>
   </g>
   <g id="patch_129">
    <path clip-path="url(#p3f3f1c55ca)" d="M 477.142159 84621.713195 
L 479.904752 84621.713195 
L 479.904752 210.82471 
L 477.142159 210.82471 
z
" style="fill:#1f77b4;"/>
   </g>
   <g id="patch_130">
    <path clip-path="url(#p3f3f1c55ca)" d="M 479.904752 84621.713195 
L 482.667345 84621.713195 
L 482.667345 84621.713195 
L 479.904752 84621.713195 
z
" style="fill:#1f77b4;"/>
   </g>
   <g id="patch_131">
    <path clip-path="url(#p3f3f1c55ca)" d="M 482.667345 84621.713195 
L 485.429939 84621.713195 
L 485.429939 236.227273 
L 482.667345 236.227273 
z
" style="fill:#1f77b4;"/>
   </g>
   <g id="patch_132">
    <path clip-path="url(#p3f3f1c55ca)" d="M 485.429939 84621.713195 
L 488.192532 84621.713195 
L 488.192532 236.227273 
L 485.429939 236.227273 
z
" style="fill:#1f77b4;"/>
   </g>
   <g id="patch_133">
    <path clip-path="url(#p3f3f1c55ca)" d="M 488.192532 84621.713195 
L 490.955125 84621.713195 
L 490.955125 84621.713195 
L 488.192532 84621.713195 
z
" style="fill:#1f77b4;"/>
   </g>
   <g id="patch_134">
    <path clip-path="url(#p3f3f1c55ca)" d="M 490.955125 84621.713195 
L 493.717719 84621.713195 
L 493.717719 84621.713195 
L 490.955125 84621.713195 
z
" style="fill:#1f77b4;"/>
   </g>
   <g id="patch_135">
    <path clip-path="url(#p3f3f1c55ca)" d="M 493.717719 84621.713195 
L 496.480312 84621.713195 
L 496.480312 84621.713195 
L 493.717719 84621.713195 
z
" style="fill:#1f77b4;"/>
   </g>
   <g id="patch_136">
    <path clip-path="url(#p3f3f1c55ca)" d="M 496.480312 84621.713195 
L 499.242905 84621.713195 
L 499.242905 84621.713195 
L 496.480312 84621.713195 
z
" style="fill:#1f77b4;"/>
   </g>
   <g id="patch_137">
    <path clip-path="url(#p3f3f1c55ca)" d="M 499.242905 84621.713195 
L 502.005499 84621.713195 
L 502.005499 236.227273 
L 499.242905 236.227273 
z
" style="fill:#1f77b4;"/>
   </g>
   <g id="patch_138">
    <path clip-path="url(#p3f3f1c55ca)" d="M 502.005499 84621.713195 
L 504.768092 84621.713195 
L 504.768092 84621.713195 
L 502.005499 84621.713195 
z
" style="fill:#1f77b4;"/>
   </g>
   <g id="patch_139">
    <path clip-path="url(#p3f3f1c55ca)" d="M 504.768092 84621.713195 
L 507.530685 84621.713195 
L 507.530685 84621.713195 
L 504.768092 84621.713195 
z
" style="fill:#1f77b4;"/>
   </g>
   <g id="patch_140">
    <path clip-path="url(#p3f3f1c55ca)" d="M 507.530685 84621.713195 
L 510.293279 84621.713195 
L 510.293279 84621.713195 
L 507.530685 84621.713195 
z
" style="fill:#1f77b4;"/>
   </g>
   <g id="patch_141">
    <path clip-path="url(#p3f3f1c55ca)" d="M 510.293279 84621.713195 
L 513.055872 84621.713195 
L 513.055872 84621.713195 
L 510.293279 84621.713195 
z
" style="fill:#1f77b4;"/>
   </g>
   <g id="patch_142">
    <path clip-path="url(#p3f3f1c55ca)" d="M 513.055872 84621.713195 
L 515.818465 84621.713195 
L 515.818465 84621.713195 
L 513.055872 84621.713195 
z
" style="fill:#1f77b4;"/>
   </g>
   <g id="patch_143">
    <path clip-path="url(#p3f3f1c55ca)" d="M 515.818465 84621.713195 
L 518.581059 84621.713195 
L 518.581059 84621.713195 
L 515.818465 84621.713195 
z
" style="fill:#1f77b4;"/>
   </g>
   <g id="patch_144">
    <path clip-path="url(#p3f3f1c55ca)" d="M 518.581059 84621.713195 
L 521.343652 84621.713195 
L 521.343652 84621.713195 
L 518.581059 84621.713195 
z
" style="fill:#1f77b4;"/>
   </g>
   <g id="patch_145">
    <path clip-path="url(#p3f3f1c55ca)" d="M 521.343652 84621.713195 
L 524.106245 84621.713195 
L 524.106245 84621.713195 
L 521.343652 84621.713195 
z
" style="fill:#1f77b4;"/>
   </g>
   <g id="patch_146">
    <path clip-path="url(#p3f3f1c55ca)" d="M 524.106245 84621.713195 
L 526.868839 84621.713195 
L 526.868839 84621.713195 
L 524.106245 84621.713195 
z
" style="fill:#1f77b4;"/>
   </g>
   <g id="patch_147">
    <path clip-path="url(#p3f3f1c55ca)" d="M 526.868839 84621.713195 
L 529.631432 84621.713195 
L 529.631432 84621.713195 
L 526.868839 84621.713195 
z
" style="fill:#1f77b4;"/>
   </g>
   <g id="patch_148">
    <path clip-path="url(#p3f3f1c55ca)" d="M 529.631432 84621.713195 
L 532.394026 84621.713195 
L 532.394026 84621.713195 
L 529.631432 84621.713195 
z
" style="fill:#1f77b4;"/>
   </g>
   <g id="patch_149">
    <path clip-path="url(#p3f3f1c55ca)" d="M 532.394026 84621.713195 
L 535.156619 84621.713195 
L 535.156619 236.227273 
L 532.394026 236.227273 
z
" style="fill:#1f77b4;"/>
   </g>
   <g id="patch_150">
    <path clip-path="url(#p3f3f1c55ca)" d="M 535.156619 84621.713195 
L 537.919212 84621.713195 
L 537.919212 84621.713195 
L 535.156619 84621.713195 
z
" style="fill:#1f77b4;"/>
   </g>
   <g id="patch_151">
    <path clip-path="url(#p3f3f1c55ca)" d="M 537.919212 84621.713195 
L 540.681806 84621.713195 
L 540.681806 84621.713195 
L 537.919212 84621.713195 
z
" style="fill:#1f77b4;"/>
   </g>
   <g id="patch_152">
    <path clip-path="url(#p3f3f1c55ca)" d="M 540.681806 84621.713195 
L 543.444399 84621.713195 
L 543.444399 84621.713195 
L 540.681806 84621.713195 
z
" style="fill:#1f77b4;"/>
   </g>
   <g id="patch_153">
    <path clip-path="url(#p3f3f1c55ca)" d="M 543.444399 84621.713195 
L 546.206992 84621.713195 
L 546.206992 84621.713195 
L 543.444399 84621.713195 
z
" style="fill:#1f77b4;"/>
   </g>
   <g id="patch_154">
    <path clip-path="url(#p3f3f1c55ca)" d="M 546.206992 84621.713195 
L 548.969586 84621.713195 
L 548.969586 84621.713195 
L 546.206992 84621.713195 
z
" style="fill:#1f77b4;"/>
   </g>
   <g id="patch_155">
    <path clip-path="url(#p3f3f1c55ca)" d="M 548.969586 84621.713195 
L 551.732179 84621.713195 
L 551.732179 84621.713195 
L 548.969586 84621.713195 
z
" style="fill:#1f77b4;"/>
   </g>
   <g id="patch_156">
    <path clip-path="url(#p3f3f1c55ca)" d="M 551.732179 84621.713195 
L 554.494772 84621.713195 
L 554.494772 84621.713195 
L 551.732179 84621.713195 
z
" style="fill:#1f77b4;"/>
   </g>
   <g id="patch_157">
    <path clip-path="url(#p3f3f1c55ca)" d="M 554.494772 84621.713195 
L 557.257366 84621.713195 
L 557.257366 84621.713195 
L 554.494772 84621.713195 
z
" style="fill:#1f77b4;"/>
   </g>
   <g id="patch_158">
    <path clip-path="url(#p3f3f1c55ca)" d="M 557.257366 84621.713195 
L 560.019959 84621.713195 
L 560.019959 84621.713195 
L 557.257366 84621.713195 
z
" style="fill:#1f77b4;"/>
   </g>
   <g id="patch_159">
    <path clip-path="url(#p3f3f1c55ca)" d="M 560.019959 84621.713195 
L 562.782552 84621.713195 
L 562.782552 84621.713195 
L 560.019959 84621.713195 
z
" style="fill:#1f77b4;"/>
   </g>
   <g id="patch_160">
    <path clip-path="url(#p3f3f1c55ca)" d="M 562.782552 84621.713195 
L 565.545146 84621.713195 
L 565.545146 84621.713195 
L 562.782552 84621.713195 
z
" style="fill:#1f77b4;"/>
   </g>
   <g id="patch_161">
    <path clip-path="url(#p3f3f1c55ca)" d="M 565.545146 84621.713195 
L 568.307739 84621.713195 
L 568.307739 84621.713195 
L 565.545146 84621.713195 
z
" style="fill:#1f77b4;"/>
   </g>
   <g id="patch_162">
    <path clip-path="url(#p3f3f1c55ca)" d="M 568.307739 84621.713195 
L 571.070332 84621.713195 
L 571.070332 84621.713195 
L 568.307739 84621.713195 
z
" style="fill:#1f77b4;"/>
   </g>
   <g id="patch_163">
    <path clip-path="url(#p3f3f1c55ca)" d="M 571.070332 84621.713195 
L 573.832926 84621.713195 
L 573.832926 84621.713195 
L 571.070332 84621.713195 
z
" style="fill:#1f77b4;"/>
   </g>
   <g id="patch_164">
    <path clip-path="url(#p3f3f1c55ca)" d="M 573.832926 84621.713195 
L 576.595519 84621.713195 
L 576.595519 84621.713195 
L 573.832926 84621.713195 
z
" style="fill:#1f77b4;"/>
   </g>
   <g id="patch_165">
    <path clip-path="url(#p3f3f1c55ca)" d="M 576.595519 84621.713195 
L 579.358113 84621.713195 
L 579.358113 84621.713195 
L 576.595519 84621.713195 
z
" style="fill:#1f77b4;"/>
   </g>
   <g id="patch_166">
    <path clip-path="url(#p3f3f1c55ca)" d="M 579.358113 84621.713195 
L 582.120706 84621.713195 
L 582.120706 84621.713195 
L 579.358113 84621.713195 
z
" style="fill:#1f77b4;"/>
   </g>
   <g id="patch_167">
    <path clip-path="url(#p3f3f1c55ca)" d="M 582.120706 84621.713195 
L 584.883299 84621.713195 
L 584.883299 84621.713195 
L 582.120706 84621.713195 
z
" style="fill:#1f77b4;"/>
   </g>
   <g id="patch_168">
    <path clip-path="url(#p3f3f1c55ca)" d="M 584.883299 84621.713195 
L 587.645893 84621.713195 
L 587.645893 84621.713195 
L 584.883299 84621.713195 
z
" style="fill:#1f77b4;"/>
   </g>
   <g id="patch_169">
    <path clip-path="url(#p3f3f1c55ca)" d="M 587.645893 84621.713195 
L 590.408486 84621.713195 
L 590.408486 84621.713195 
L 587.645893 84621.713195 
z
" style="fill:#1f77b4;"/>
   </g>
   <g id="patch_170">
    <path clip-path="url(#p3f3f1c55ca)" d="M 590.408486 84621.713195 
L 593.171079 84621.713195 
L 593.171079 84621.713195 
L 590.408486 84621.713195 
z
" style="fill:#1f77b4;"/>
   </g>
   <g id="patch_171">
    <path clip-path="url(#p3f3f1c55ca)" d="M 593.171079 84621.713195 
L 595.933673 84621.713195 
L 595.933673 84621.713195 
L 593.171079 84621.713195 
z
" style="fill:#1f77b4;"/>
   </g>
   <g id="patch_172">
    <path clip-path="url(#p3f3f1c55ca)" d="M 595.933673 84621.713195 
L 598.696266 84621.713195 
L 598.696266 84621.713195 
L 595.933673 84621.713195 
z
" style="fill:#1f77b4;"/>
   </g>
   <g id="patch_173">
    <path clip-path="url(#p3f3f1c55ca)" d="M 598.696266 84621.713195 
L 601.458859 84621.713195 
L 601.458859 84621.713195 
L 598.696266 84621.713195 
z
" style="fill:#1f77b4;"/>
   </g>
   <g id="patch_174">
    <path clip-path="url(#p3f3f1c55ca)" d="M 601.458859 84621.713195 
L 604.221453 84621.713195 
L 604.221453 84621.713195 
L 601.458859 84621.713195 
z
" style="fill:#1f77b4;"/>
   </g>
   <g id="patch_175">
    <path clip-path="url(#p3f3f1c55ca)" d="M 604.221453 84621.713195 
L 606.984046 84621.713195 
L 606.984046 84621.713195 
L 604.221453 84621.713195 
z
" style="fill:#1f77b4;"/>
   </g>
   <g id="patch_176">
    <path clip-path="url(#p3f3f1c55ca)" d="M 606.984046 84621.713195 
L 609.746639 84621.713195 
L 609.746639 84621.713195 
L 606.984046 84621.713195 
z
" style="fill:#1f77b4;"/>
   </g>
   <g id="patch_177">
    <path clip-path="url(#p3f3f1c55ca)" d="M 609.746639 84621.713195 
L 612.509233 84621.713195 
L 612.509233 84621.713195 
L 609.746639 84621.713195 
z
" style="fill:#1f77b4;"/>
   </g>
   <g id="patch_178">
    <path clip-path="url(#p3f3f1c55ca)" d="M 612.509233 84621.713195 
L 615.271826 84621.713195 
L 615.271826 84621.713195 
L 612.509233 84621.713195 
z
" style="fill:#1f77b4;"/>
   </g>
   <g id="patch_179">
    <path clip-path="url(#p3f3f1c55ca)" d="M 615.271826 84621.713195 
L 618.034419 84621.713195 
L 618.034419 84621.713195 
L 615.271826 84621.713195 
z
" style="fill:#1f77b4;"/>
   </g>
   <g id="patch_180">
    <path clip-path="url(#p3f3f1c55ca)" d="M 618.034419 84621.713195 
L 620.797013 84621.713195 
L 620.797013 84621.713195 
L 618.034419 84621.713195 
z
" style="fill:#1f77b4;"/>
   </g>
   <g id="patch_181">
    <path clip-path="url(#p3f3f1c55ca)" d="M 620.797013 84621.713195 
L 623.559606 84621.713195 
L 623.559606 84621.713195 
L 620.797013 84621.713195 
z
" style="fill:#1f77b4;"/>
   </g>
   <g id="patch_182">
    <path clip-path="url(#p3f3f1c55ca)" d="M 623.559606 84621.713195 
L 626.322199 84621.713195 
L 626.322199 84621.713195 
L 623.559606 84621.713195 
z
" style="fill:#1f77b4;"/>
   </g>
   <g id="patch_183">
    <path clip-path="url(#p3f3f1c55ca)" d="M 626.322199 84621.713195 
L 629.084793 84621.713195 
L 629.084793 84621.713195 
L 626.322199 84621.713195 
z
" style="fill:#1f77b4;"/>
   </g>
   <g id="patch_184">
    <path clip-path="url(#p3f3f1c55ca)" d="M 629.084793 84621.713195 
L 631.847386 84621.713195 
L 631.847386 84621.713195 
L 629.084793 84621.713195 
z
" style="fill:#1f77b4;"/>
   </g>
   <g id="patch_185">
    <path clip-path="url(#p3f3f1c55ca)" d="M 631.847386 84621.713195 
L 634.60998 84621.713195 
L 634.60998 84621.713195 
L 631.847386 84621.713195 
z
" style="fill:#1f77b4;"/>
   </g>
   <g id="patch_186">
    <path clip-path="url(#p3f3f1c55ca)" d="M 634.60998 84621.713195 
L 637.372573 84621.713195 
L 637.372573 84621.713195 
L 634.60998 84621.713195 
z
" style="fill:#1f77b4;"/>
   </g>
   <g id="patch_187">
    <path clip-path="url(#p3f3f1c55ca)" d="M 637.372573 84621.713195 
L 640.135166 84621.713195 
L 640.135166 84621.713195 
L 637.372573 84621.713195 
z
" style="fill:#1f77b4;"/>
   </g>
   <g id="patch_188">
    <path clip-path="url(#p3f3f1c55ca)" d="M 640.135166 84621.713195 
L 642.89776 84621.713195 
L 642.89776 84621.713195 
L 640.135166 84621.713195 
z
" style="fill:#1f77b4;"/>
   </g>
   <g id="patch_189">
    <path clip-path="url(#p3f3f1c55ca)" d="M 642.89776 84621.713195 
L 645.660353 84621.713195 
L 645.660353 84621.713195 
L 642.89776 84621.713195 
z
" style="fill:#1f77b4;"/>
   </g>
   <g id="patch_190">
    <path clip-path="url(#p3f3f1c55ca)" d="M 645.660353 84621.713195 
L 648.422946 84621.713195 
L 648.422946 84621.713195 
L 645.660353 84621.713195 
z
" style="fill:#1f77b4;"/>
   </g>
   <g id="patch_191">
    <path clip-path="url(#p3f3f1c55ca)" d="M 648.422946 84621.713195 
L 651.18554 84621.713195 
L 651.18554 84621.713195 
L 648.422946 84621.713195 
z
" style="fill:#1f77b4;"/>
   </g>
   <g id="patch_192">
    <path clip-path="url(#p3f3f1c55ca)" d="M 651.18554 84621.713195 
L 653.948133 84621.713195 
L 653.948133 84621.713195 
L 651.18554 84621.713195 
z
" style="fill:#1f77b4;"/>
   </g>
   <g id="patch_193">
    <path clip-path="url(#p3f3f1c55ca)" d="M 653.948133 84621.713195 
L 656.710726 84621.713195 
L 656.710726 84621.713195 
L 653.948133 84621.713195 
z
" style="fill:#1f77b4;"/>
   </g>
   <g id="patch_194">
    <path clip-path="url(#p3f3f1c55ca)" d="M 656.710726 84621.713195 
L 659.47332 84621.713195 
L 659.47332 84621.713195 
L 656.710726 84621.713195 
z
" style="fill:#1f77b4;"/>
   </g>
   <g id="patch_195">
    <path clip-path="url(#p3f3f1c55ca)" d="M 659.47332 84621.713195 
L 662.235913 84621.713195 
L 662.235913 84621.713195 
L 659.47332 84621.713195 
z
" style="fill:#1f77b4;"/>
   </g>
   <g id="patch_196">
    <path clip-path="url(#p3f3f1c55ca)" d="M 662.235913 84621.713195 
L 664.998506 84621.713195 
L 664.998506 84621.713195 
L 662.235913 84621.713195 
z
" style="fill:#1f77b4;"/>
   </g>
   <g id="patch_197">
    <path clip-path="url(#p3f3f1c55ca)" d="M 664.998506 84621.713195 
L 667.7611 84621.713195 
L 667.7611 84621.713195 
L 664.998506 84621.713195 
z
" style="fill:#1f77b4;"/>
   </g>
   <g id="patch_198">
    <path clip-path="url(#p3f3f1c55ca)" d="M 667.7611 84621.713195 
L 670.523693 84621.713195 
L 670.523693 84621.713195 
L 667.7611 84621.713195 
z
" style="fill:#1f77b4;"/>
   </g>
   <g id="patch_199">
    <path clip-path="url(#p3f3f1c55ca)" d="M 670.523693 84621.713195 
L 673.286286 84621.713195 
L 673.286286 84621.713195 
L 670.523693 84621.713195 
z
" style="fill:#1f77b4;"/>
   </g>
   <g id="patch_200">
    <path clip-path="url(#p3f3f1c55ca)" d="M 673.286286 84621.713195 
L 676.04888 84621.713195 
L 676.04888 84621.713195 
L 673.286286 84621.713195 
z
" style="fill:#1f77b4;"/>
   </g>
   <g id="patch_201">
    <path clip-path="url(#p3f3f1c55ca)" d="M 676.04888 84621.713195 
L 678.811473 84621.713195 
L 678.811473 84621.713195 
L 676.04888 84621.713195 
z
" style="fill:#1f77b4;"/>
   </g>
   <g id="patch_202">
    <path clip-path="url(#p3f3f1c55ca)" d="M 678.811473 84621.713195 
L 681.574066 84621.713195 
L 681.574066 84621.713195 
L 678.811473 84621.713195 
z
" style="fill:#1f77b4;"/>
   </g>
   <g id="patch_203">
    <path clip-path="url(#p3f3f1c55ca)" d="M 681.574066 84621.713195 
L 684.33666 84621.713195 
L 684.33666 84621.713195 
L 681.574066 84621.713195 
z
" style="fill:#1f77b4;"/>
   </g>
   <g id="patch_204">
    <path clip-path="url(#p3f3f1c55ca)" d="M 684.33666 84621.713195 
L 687.099253 84621.713195 
L 687.099253 84621.713195 
L 684.33666 84621.713195 
z
" style="fill:#1f77b4;"/>
   </g>
   <g id="patch_205">
    <path clip-path="url(#p3f3f1c55ca)" d="M 687.099253 84621.713195 
L 689.861847 84621.713195 
L 689.861847 84621.713195 
L 687.099253 84621.713195 
z
" style="fill:#1f77b4;"/>
   </g>
   <g id="patch_206">
    <path clip-path="url(#p3f3f1c55ca)" d="M 689.861847 84621.713195 
L 692.62444 84621.713195 
L 692.62444 84621.713195 
L 689.861847 84621.713195 
z
" style="fill:#1f77b4;"/>
   </g>
   <g id="patch_207">
    <path clip-path="url(#p3f3f1c55ca)" d="M 692.62444 84621.713195 
L 695.387033 84621.713195 
L 695.387033 236.227273 
L 692.62444 236.227273 
z
" style="fill:#1f77b4;"/>
   </g>
   <g id="matplotlib.axis_3">
    <g id="xtick_7">
     <g id="line2d_39">
      <path clip-path="url(#p3f3f1c55ca)" d="M 418.575206 246.2 
L 418.575206 26.8 
" style="fill:none;stroke:#b0b0b0;stroke-linecap:square;stroke-width:0.8;"/>
     </g>
     <g id="line2d_40">
      <g>
       <use style="stroke:#000000;stroke-width:0.8;" x="418.575206" xlink:href="#m2713b8aeef" y="246.2"/>
      </g>
     </g>
     <g id="text_13">
      <!-- 0 -->
      <g transform="translate(415.393956 260.798437)scale(0.1 -0.1)">
       <use xlink:href="#DejaVuSans-48"/>
      </g>
     </g>
    </g>
    <g id="xtick_8">
     <g id="line2d_41">
      <path clip-path="url(#p3f3f1c55ca)" d="M 453.023075 246.2 
L 453.023075 26.8 
" style="fill:none;stroke:#b0b0b0;stroke-linecap:square;stroke-width:0.8;"/>
     </g>
     <g id="line2d_42">
      <g>
       <use style="stroke:#000000;stroke-width:0.8;" x="453.023075" xlink:href="#m2713b8aeef" y="246.2"/>
      </g>
     </g>
     <g id="text_14">
      <!-- 200 -->
      <g transform="translate(443.479325 260.798437)scale(0.1 -0.1)">
       <use xlink:href="#DejaVuSans-50"/>
       <use x="63.623047" xlink:href="#DejaVuSans-48"/>
       <use x="127.246094" xlink:href="#DejaVuSans-48"/>
      </g>
     </g>
    </g>
    <g id="xtick_9">
     <g id="line2d_43">
      <path clip-path="url(#p3f3f1c55ca)" d="M 487.470945 246.2 
L 487.470945 26.8 
" style="fill:none;stroke:#b0b0b0;stroke-linecap:square;stroke-width:0.8;"/>
     </g>
     <g id="line2d_44">
      <g>
       <use style="stroke:#000000;stroke-width:0.8;" x="487.470945" xlink:href="#m2713b8aeef" y="246.2"/>
      </g>
     </g>
     <g id="text_15">
      <!-- 400 -->
      <g transform="translate(477.927195 260.798437)scale(0.1 -0.1)">
       <use xlink:href="#DejaVuSans-52"/>
       <use x="63.623047" xlink:href="#DejaVuSans-48"/>
       <use x="127.246094" xlink:href="#DejaVuSans-48"/>
      </g>
     </g>
    </g>
    <g id="xtick_10">
     <g id="line2d_45">
      <path clip-path="url(#p3f3f1c55ca)" d="M 521.918815 246.2 
L 521.918815 26.8 
" style="fill:none;stroke:#b0b0b0;stroke-linecap:square;stroke-width:0.8;"/>
     </g>
     <g id="line2d_46">
      <g>
       <use style="stroke:#000000;stroke-width:0.8;" x="521.918815" xlink:href="#m2713b8aeef" y="246.2"/>
      </g>
     </g>
     <g id="text_16">
      <!-- 600 -->
      <defs>
       <path d="M 33.015625 40.375 
Q 26.375 40.375 22.484375 35.828125 
Q 18.609375 31.296875 18.609375 23.390625 
Q 18.609375 15.53125 22.484375 10.953125 
Q 26.375 6.390625 33.015625 6.390625 
Q 39.65625 6.390625 43.53125 10.953125 
Q 47.40625 15.53125 47.40625 23.390625 
Q 47.40625 31.296875 43.53125 35.828125 
Q 39.65625 40.375 33.015625 40.375 
z
M 52.59375 71.296875 
L 52.59375 62.3125 
Q 48.875 64.0625 45.09375 64.984375 
Q 41.3125 65.921875 37.59375 65.921875 
Q 27.828125 65.921875 22.671875 59.328125 
Q 17.53125 52.734375 16.796875 39.40625 
Q 19.671875 43.65625 24.015625 45.921875 
Q 28.375 48.1875 33.59375 48.1875 
Q 44.578125 48.1875 50.953125 41.515625 
Q 57.328125 34.859375 57.328125 23.390625 
Q 57.328125 12.15625 50.6875 5.359375 
Q 44.046875 -1.421875 33.015625 -1.421875 
Q 20.359375 -1.421875 13.671875 8.265625 
Q 6.984375 17.96875 6.984375 36.375 
Q 6.984375 53.65625 15.1875 63.9375 
Q 23.390625 74.21875 37.203125 74.21875 
Q 40.921875 74.21875 44.703125 73.484375 
Q 48.484375 72.75 52.59375 71.296875 
z
" id="DejaVuSans-54"/>
      </defs>
      <g transform="translate(512.375065 260.798437)scale(0.1 -0.1)">
       <use xlink:href="#DejaVuSans-54"/>
       <use x="63.623047" xlink:href="#DejaVuSans-48"/>
       <use x="127.246094" xlink:href="#DejaVuSans-48"/>
      </g>
     </g>
    </g>
    <g id="xtick_11">
     <g id="line2d_47">
      <path clip-path="url(#p3f3f1c55ca)" d="M 556.366685 246.2 
L 556.366685 26.8 
" style="fill:none;stroke:#b0b0b0;stroke-linecap:square;stroke-width:0.8;"/>
     </g>
     <g id="line2d_48">
      <g>
       <use style="stroke:#000000;stroke-width:0.8;" x="556.366685" xlink:href="#m2713b8aeef" y="246.2"/>
      </g>
     </g>
     <g id="text_17">
      <!-- 800 -->
      <defs>
       <path d="M 31.78125 34.625 
Q 24.75 34.625 20.71875 30.859375 
Q 16.703125 27.09375 16.703125 20.515625 
Q 16.703125 13.921875 20.71875 10.15625 
Q 24.75 6.390625 31.78125 6.390625 
Q 38.8125 6.390625 42.859375 10.171875 
Q 46.921875 13.96875 46.921875 20.515625 
Q 46.921875 27.09375 42.890625 30.859375 
Q 38.875 34.625 31.78125 34.625 
z
M 21.921875 38.8125 
Q 15.578125 40.375 12.03125 44.71875 
Q 8.5 49.078125 8.5 55.328125 
Q 8.5 64.0625 14.71875 69.140625 
Q 20.953125 74.21875 31.78125 74.21875 
Q 42.671875 74.21875 48.875 69.140625 
Q 55.078125 64.0625 55.078125 55.328125 
Q 55.078125 49.078125 51.53125 44.71875 
Q 48 40.375 41.703125 38.8125 
Q 48.828125 37.15625 52.796875 32.3125 
Q 56.78125 27.484375 56.78125 20.515625 
Q 56.78125 9.90625 50.3125 4.234375 
Q 43.84375 -1.421875 31.78125 -1.421875 
Q 19.734375 -1.421875 13.25 4.234375 
Q 6.78125 9.90625 6.78125 20.515625 
Q 6.78125 27.484375 10.78125 32.3125 
Q 14.796875 37.15625 21.921875 38.8125 
z
M 18.3125 54.390625 
Q 18.3125 48.734375 21.84375 45.5625 
Q 25.390625 42.390625 31.78125 42.390625 
Q 38.140625 42.390625 41.71875 45.5625 
Q 45.3125 48.734375 45.3125 54.390625 
Q 45.3125 60.0625 41.71875 63.234375 
Q 38.140625 66.40625 31.78125 66.40625 
Q 25.390625 66.40625 21.84375 63.234375 
Q 18.3125 60.0625 18.3125 54.390625 
z
" id="DejaVuSans-56"/>
      </defs>
      <g transform="translate(546.822935 260.798437)scale(0.1 -0.1)">
       <use xlink:href="#DejaVuSans-56"/>
       <use x="63.623047" xlink:href="#DejaVuSans-48"/>
       <use x="127.246094" xlink:href="#DejaVuSans-48"/>
      </g>
     </g>
    </g>
    <g id="xtick_12">
     <g id="line2d_49">
      <path clip-path="url(#p3f3f1c55ca)" d="M 590.814554 246.2 
L 590.814554 26.8 
" style="fill:none;stroke:#b0b0b0;stroke-linecap:square;stroke-width:0.8;"/>
     </g>
     <g id="line2d_50">
      <g>
       <use style="stroke:#000000;stroke-width:0.8;" x="590.814554" xlink:href="#m2713b8aeef" y="246.2"/>
      </g>
     </g>
     <g id="text_18">
      <!-- 1000 -->
      <g transform="translate(578.089554 260.798437)scale(0.1 -0.1)">
       <use xlink:href="#DejaVuSans-49"/>
       <use x="63.623047" xlink:href="#DejaVuSans-48"/>
       <use x="127.246094" xlink:href="#DejaVuSans-48"/>
       <use x="190.869141" xlink:href="#DejaVuSans-48"/>
      </g>
     </g>
    </g>
    <g id="xtick_13">
     <g id="line2d_51">
      <path clip-path="url(#p3f3f1c55ca)" d="M 625.262424 246.2 
L 625.262424 26.8 
" style="fill:none;stroke:#b0b0b0;stroke-linecap:square;stroke-width:0.8;"/>
     </g>
     <g id="line2d_52">
      <g>
       <use style="stroke:#000000;stroke-width:0.8;" x="625.262424" xlink:href="#m2713b8aeef" y="246.2"/>
      </g>
     </g>
     <g id="text_19">
      <!-- 1200 -->
      <g transform="translate(612.537424 260.798437)scale(0.1 -0.1)">
       <use xlink:href="#DejaVuSans-49"/>
       <use x="63.623047" xlink:href="#DejaVuSans-50"/>
       <use x="127.246094" xlink:href="#DejaVuSans-48"/>
       <use x="190.869141" xlink:href="#DejaVuSans-48"/>
      </g>
     </g>
    </g>
    <g id="xtick_14">
     <g id="line2d_53">
      <path clip-path="url(#p3f3f1c55ca)" d="M 659.710294 246.2 
L 659.710294 26.8 
" style="fill:none;stroke:#b0b0b0;stroke-linecap:square;stroke-width:0.8;"/>
     </g>
     <g id="line2d_54">
      <g>
       <use style="stroke:#000000;stroke-width:0.8;" x="659.710294" xlink:href="#m2713b8aeef" y="246.2"/>
      </g>
     </g>
     <g id="text_20">
      <!-- 1400 -->
      <g transform="translate(646.985294 260.798437)scale(0.1 -0.1)">
       <use xlink:href="#DejaVuSans-49"/>
       <use x="63.623047" xlink:href="#DejaVuSans-52"/>
       <use x="127.246094" xlink:href="#DejaVuSans-48"/>
       <use x="190.869141" xlink:href="#DejaVuSans-48"/>
      </g>
     </g>
    </g>
    <g id="xtick_15">
     <g id="line2d_55">
      <path clip-path="url(#p3f3f1c55ca)" d="M 694.158164 246.2 
L 694.158164 26.8 
" style="fill:none;stroke:#b0b0b0;stroke-linecap:square;stroke-width:0.8;"/>
     </g>
     <g id="line2d_56">
      <g>
       <use style="stroke:#000000;stroke-width:0.8;" x="694.158164" xlink:href="#m2713b8aeef" y="246.2"/>
      </g>
     </g>
     <g id="text_21">
      <!-- 1600 -->
      <g transform="translate(681.433164 260.798437)scale(0.1 -0.1)">
       <use xlink:href="#DejaVuSans-49"/>
       <use x="63.623047" xlink:href="#DejaVuSans-54"/>
       <use x="127.246094" xlink:href="#DejaVuSans-48"/>
       <use x="190.869141" xlink:href="#DejaVuSans-48"/>
      </g>
     </g>
    </g>
    <g id="text_22">
     <!-- Sensitivity -->
     <defs>
      <path d="M 53.515625 70.515625 
L 53.515625 60.890625 
Q 47.90625 63.578125 42.921875 64.890625 
Q 37.9375 66.21875 33.296875 66.21875 
Q 25.25 66.21875 20.875 63.09375 
Q 16.5 59.96875 16.5 54.203125 
Q 16.5 49.359375 19.40625 46.890625 
Q 22.3125 44.4375 30.421875 42.921875 
L 36.375 41.703125 
Q 47.40625 39.59375 52.65625 34.296875 
Q 57.90625 29 57.90625 20.125 
Q 57.90625 9.515625 50.796875 4.046875 
Q 43.703125 -1.421875 29.984375 -1.421875 
Q 24.8125 -1.421875 18.96875 -0.25 
Q 13.140625 0.921875 6.890625 3.21875 
L 6.890625 13.375 
Q 12.890625 10.015625 18.65625 8.296875 
Q 24.421875 6.59375 29.984375 6.59375 
Q 38.421875 6.59375 43.015625 9.90625 
Q 47.609375 13.234375 47.609375 19.390625 
Q 47.609375 24.75 44.3125 27.78125 
Q 41.015625 30.8125 33.5 32.328125 
L 27.484375 33.5 
Q 16.453125 35.6875 11.515625 40.375 
Q 6.59375 45.0625 6.59375 53.421875 
Q 6.59375 63.09375 13.40625 68.65625 
Q 20.21875 74.21875 32.171875 74.21875 
Q 37.3125 74.21875 42.625 73.28125 
Q 47.953125 72.359375 53.515625 70.515625 
z
" id="DejaVuSans-83"/>
      <path d="M 2.984375 54.6875 
L 12.5 54.6875 
L 29.59375 8.796875 
L 46.6875 54.6875 
L 56.203125 54.6875 
L 35.6875 0 
L 23.484375 0 
z
" id="DejaVuSans-118"/>
     </defs>
     <g transform="translate(531.226897 274.476562)scale(0.1 -0.1)">
      <use xlink:href="#DejaVuSans-83"/>
      <use x="63.476562" xlink:href="#DejaVuSans-101"/>
      <use x="125" xlink:href="#DejaVuSans-110"/>
      <use x="188.378906" xlink:href="#DejaVuSans-115"/>
      <use x="240.478516" xlink:href="#DejaVuSans-105"/>
      <use x="268.261719" xlink:href="#DejaVuSans-116"/>
      <use x="307.470703" xlink:href="#DejaVuSans-105"/>
      <use x="335.253906" xlink:href="#DejaVuSans-118"/>
      <use x="394.433594" xlink:href="#DejaVuSans-105"/>
      <use x="422.216797" xlink:href="#DejaVuSans-116"/>
      <use x="461.425781" xlink:href="#DejaVuSans-121"/>
     </g>
    </g>
   </g>
   <g id="matplotlib.axis_4">
    <g id="ytick_24">
     <g id="line2d_57">
      <path clip-path="url(#p3f3f1c55ca)" d="M 405.314731 236.227273 
L 709.2 236.227273 
" style="fill:none;stroke:#b0b0b0;stroke-linecap:square;stroke-width:0.8;"/>
     </g>
     <g id="line2d_58">
      <g>
       <use style="stroke:#000000;stroke-width:0.8;" x="405.314731" xlink:href="#ma466b5b7c1" y="236.227273"/>
      </g>
     </g>
     <g id="text_23">
      <!-- $\mathdefault{10^{0}}$ -->
      <g transform="translate(380.714731 240.026491)scale(0.1 -0.1)">
       <use transform="translate(0 0.765625)" xlink:href="#DejaVuSans-49"/>
       <use transform="translate(63.623047 0.765625)" xlink:href="#DejaVuSans-48"/>
       <use transform="translate(128.203125 39.046875)scale(0.7)" xlink:href="#DejaVuSans-48"/>
      </g>
     </g>
    </g>
    <g id="ytick_25">
     <g id="line2d_59">
      <path clip-path="url(#p3f3f1c55ca)" d="M 405.314731 151.841787 
L 709.2 151.841787 
" style="fill:none;stroke:#b0b0b0;stroke-linecap:square;stroke-width:0.8;"/>
     </g>
     <g id="line2d_60">
      <g>
       <use style="stroke:#000000;stroke-width:0.8;" x="405.314731" xlink:href="#ma466b5b7c1" y="151.841787"/>
      </g>
     </g>
     <g id="text_24">
      <!-- $\mathdefault{10^{1}}$ -->
      <g transform="translate(380.714731 155.641006)scale(0.1 -0.1)">
       <use transform="translate(0 0.684375)" xlink:href="#DejaVuSans-49"/>
       <use transform="translate(63.623047 0.684375)" xlink:href="#DejaVuSans-48"/>
       <use transform="translate(128.203125 38.965625)scale(0.7)" xlink:href="#DejaVuSans-49"/>
      </g>
     </g>
    </g>
    <g id="ytick_26">
     <g id="line2d_61">
      <path clip-path="url(#p3f3f1c55ca)" d="M 405.314731 67.456301 
L 709.2 67.456301 
" style="fill:none;stroke:#b0b0b0;stroke-linecap:square;stroke-width:0.8;"/>
     </g>
     <g id="line2d_62">
      <g>
       <use style="stroke:#000000;stroke-width:0.8;" x="405.314731" xlink:href="#ma466b5b7c1" y="67.456301"/>
      </g>
     </g>
     <g id="text_25">
      <!-- $\mathdefault{10^{2}}$ -->
      <g transform="translate(380.714731 71.25552)scale(0.1 -0.1)">
       <use transform="translate(0 0.765625)" xlink:href="#DejaVuSans-49"/>
       <use transform="translate(63.623047 0.765625)" xlink:href="#DejaVuSans-48"/>
       <use transform="translate(128.203125 39.046875)scale(0.7)" xlink:href="#DejaVuSans-50"/>
      </g>
     </g>
    </g>
    <g id="ytick_27">
     <g id="line2d_63">
      <g>
       <use style="stroke:#000000;stroke-width:0.6;" x="405.314731" xlink:href="#m4fe4ae3a1e" y="244.405071"/>
      </g>
     </g>
    </g>
    <g id="ytick_28">
     <g id="line2d_64">
      <g>
       <use style="stroke:#000000;stroke-width:0.6;" x="405.314731" xlink:href="#m4fe4ae3a1e" y="240.088541"/>
      </g>
     </g>
    </g>
    <g id="ytick_29">
     <g id="line2d_65">
      <g>
       <use style="stroke:#000000;stroke-width:0.6;" x="405.314731" xlink:href="#m4fe4ae3a1e" y="210.82471"/>
      </g>
     </g>
    </g>
    <g id="ytick_30">
     <g id="line2d_66">
      <g>
       <use style="stroke:#000000;stroke-width:0.6;" x="405.314731" xlink:href="#m4fe4ae3a1e" y="195.965164"/>
      </g>
     </g>
    </g>
    <g id="ytick_31">
     <g id="line2d_67">
      <g>
       <use style="stroke:#000000;stroke-width:0.6;" x="405.314731" xlink:href="#m4fe4ae3a1e" y="185.422148"/>
      </g>
     </g>
    </g>
    <g id="ytick_32">
     <g id="line2d_68">
      <g>
       <use style="stroke:#000000;stroke-width:0.6;" x="405.314731" xlink:href="#m4fe4ae3a1e" y="177.244349"/>
      </g>
     </g>
    </g>
    <g id="ytick_33">
     <g id="line2d_69">
      <g>
       <use style="stroke:#000000;stroke-width:0.6;" x="405.314731" xlink:href="#m4fe4ae3a1e" y="170.562601"/>
      </g>
     </g>
    </g>
    <g id="ytick_34">
     <g id="line2d_70">
      <g>
       <use style="stroke:#000000;stroke-width:0.6;" x="405.314731" xlink:href="#m4fe4ae3a1e" y="164.913264"/>
      </g>
     </g>
    </g>
    <g id="ytick_35">
     <g id="line2d_71">
      <g>
       <use style="stroke:#000000;stroke-width:0.6;" x="405.314731" xlink:href="#m4fe4ae3a1e" y="160.019585"/>
      </g>
     </g>
    </g>
    <g id="ytick_36">
     <g id="line2d_72">
      <g>
       <use style="stroke:#000000;stroke-width:0.6;" x="405.314731" xlink:href="#m4fe4ae3a1e" y="155.703055"/>
      </g>
     </g>
    </g>
    <g id="ytick_37">
     <g id="line2d_73">
      <g>
       <use style="stroke:#000000;stroke-width:0.6;" x="405.314731" xlink:href="#m4fe4ae3a1e" y="126.439224"/>
      </g>
     </g>
    </g>
    <g id="ytick_38">
     <g id="line2d_74">
      <g>
       <use style="stroke:#000000;stroke-width:0.6;" x="405.314731" xlink:href="#m4fe4ae3a1e" y="111.579678"/>
      </g>
     </g>
    </g>
    <g id="ytick_39">
     <g id="line2d_75">
      <g>
       <use style="stroke:#000000;stroke-width:0.6;" x="405.314731" xlink:href="#m4fe4ae3a1e" y="101.036662"/>
      </g>
     </g>
    </g>
    <g id="ytick_40">
     <g id="line2d_76">
      <g>
       <use style="stroke:#000000;stroke-width:0.6;" x="405.314731" xlink:href="#m4fe4ae3a1e" y="92.858863"/>
      </g>
     </g>
    </g>
    <g id="ytick_41">
     <g id="line2d_77">
      <g>
       <use style="stroke:#000000;stroke-width:0.6;" x="405.314731" xlink:href="#m4fe4ae3a1e" y="86.177115"/>
      </g>
     </g>
    </g>
    <g id="ytick_42">
     <g id="line2d_78">
      <g>
       <use style="stroke:#000000;stroke-width:0.6;" x="405.314731" xlink:href="#m4fe4ae3a1e" y="80.527778"/>
      </g>
     </g>
    </g>
    <g id="ytick_43">
     <g id="line2d_79">
      <g>
       <use style="stroke:#000000;stroke-width:0.6;" x="405.314731" xlink:href="#m4fe4ae3a1e" y="75.634099"/>
      </g>
     </g>
    </g>
    <g id="ytick_44">
     <g id="line2d_80">
      <g>
       <use style="stroke:#000000;stroke-width:0.6;" x="405.314731" xlink:href="#m4fe4ae3a1e" y="71.317569"/>
      </g>
     </g>
    </g>
    <g id="ytick_45">
     <g id="line2d_81">
      <g>
       <use style="stroke:#000000;stroke-width:0.6;" x="405.314731" xlink:href="#m4fe4ae3a1e" y="42.053738"/>
      </g>
     </g>
    </g>
    <g id="ytick_46">
     <g id="line2d_82">
      <g>
       <use style="stroke:#000000;stroke-width:0.6;" x="405.314731" xlink:href="#m4fe4ae3a1e" y="27.194192"/>
      </g>
     </g>
    </g>
    <g id="text_26">
     <!-- Count -->
     <g transform="translate(374.635044 151.348437)rotate(-90)scale(0.1 -0.1)">
      <use xlink:href="#DejaVuSans-67"/>
      <use x="69.824219" xlink:href="#DejaVuSans-111"/>
      <use x="131.005859" xlink:href="#DejaVuSans-117"/>
      <use x="194.384766" xlink:href="#DejaVuSans-110"/>
      <use x="257.763672" xlink:href="#DejaVuSans-116"/>
     </g>
    </g>
   </g>
   <g id="patch_208">
    <path d="M 405.314731 246.2 
L 405.314731 26.8 
" style="fill:none;stroke:#000000;stroke-linecap:square;stroke-linejoin:miter;stroke-width:0.8;"/>
   </g>
   <g id="patch_209">
    <path d="M 709.2 246.2 
L 709.2 26.8 
" style="fill:none;stroke:#000000;stroke-linecap:square;stroke-linejoin:miter;stroke-width:0.8;"/>
   </g>
   <g id="patch_210">
    <path d="M 405.314731 246.2 
L 709.2 246.2 
" style="fill:none;stroke:#000000;stroke-linecap:square;stroke-linejoin:miter;stroke-width:0.8;"/>
   </g>
   <g id="patch_211">
    <path d="M 405.314731 26.8 
L 709.2 26.8 
" style="fill:none;stroke:#000000;stroke-linecap:square;stroke-linejoin:miter;stroke-width:0.8;"/>
   </g>
   <g id="text_27">
    <!-- Sensitivity of proteins in the model -->
    <g transform="translate(452.119553 20.8)scale(0.12 -0.12)">
     <use xlink:href="#DejaVuSans-83"/>
     <use x="63.476562" xlink:href="#DejaVuSans-101"/>
     <use x="125" xlink:href="#DejaVuSans-110"/>
     <use x="188.378906" xlink:href="#DejaVuSans-115"/>
     <use x="240.478516" xlink:href="#DejaVuSans-105"/>
     <use x="268.261719" xlink:href="#DejaVuSans-116"/>
     <use x="307.470703" xlink:href="#DejaVuSans-105"/>
     <use x="335.253906" xlink:href="#DejaVuSans-118"/>
     <use x="394.433594" xlink:href="#DejaVuSans-105"/>
     <use x="422.216797" xlink:href="#DejaVuSans-116"/>
     <use x="461.425781" xlink:href="#DejaVuSans-121"/>
     <use x="520.605469" xlink:href="#DejaVuSans-32"/>
     <use x="552.392578" xlink:href="#DejaVuSans-111"/>
     <use x="613.574219" xlink:href="#DejaVuSans-102"/>
     <use x="648.779297" xlink:href="#DejaVuSans-32"/>
     <use x="680.566406" xlink:href="#DejaVuSans-112"/>
     <use x="744.042969" xlink:href="#DejaVuSans-114"/>
     <use x="785.125" xlink:href="#DejaVuSans-111"/>
     <use x="846.306641" xlink:href="#DejaVuSans-116"/>
     <use x="885.515625" xlink:href="#DejaVuSans-101"/>
     <use x="947.039062" xlink:href="#DejaVuSans-105"/>
     <use x="974.822266" xlink:href="#DejaVuSans-110"/>
     <use x="1038.201172" xlink:href="#DejaVuSans-115"/>
     <use x="1090.300781" xlink:href="#DejaVuSans-32"/>
     <use x="1122.087891" xlink:href="#DejaVuSans-105"/>
     <use x="1149.871094" xlink:href="#DejaVuSans-110"/>
     <use x="1213.25" xlink:href="#DejaVuSans-32"/>
     <use x="1245.037109" xlink:href="#DejaVuSans-116"/>
     <use x="1284.246094" xlink:href="#DejaVuSans-104"/>
     <use x="1347.625" xlink:href="#DejaVuSans-101"/>
     <use x="1409.148438" xlink:href="#DejaVuSans-32"/>
     <use x="1440.935547" xlink:href="#DejaVuSans-109"/>
     <use x="1538.347656" xlink:href="#DejaVuSans-111"/>
     <use x="1599.529297" xlink:href="#DejaVuSans-100"/>
     <use x="1663.005859" xlink:href="#DejaVuSans-101"/>
     <use x="1724.529297" xlink:href="#DejaVuSans-108"/>
    </g>
   </g>
  </g>
 </g>
 <defs>
  <clipPath id="pf5247406ad">
   <rect height="219.4" width="303.885269" x="50.629609" y="26.8"/>
  </clipPath>
  <clipPath id="p3f3f1c55ca">
   <rect height="219.4" width="303.885269" x="405.314731" y="26.8"/>
  </clipPath>
 </defs>
</svg>
