<?xml version="1.0" encoding="utf-8" standalone="no"?>
<!DOCTYPE svg PUBLIC "-//W3C//DTD SVG 1.1//EN"
  "http://www.w3.org/Graphics/SVG/1.1/DTD/svg11.dtd">
<!-- Created with matplotlib (https://matplotlib.org/) -->
<svg height="288pt" version="1.1" viewBox="0 0 432 288" width="432pt" xmlns="http://www.w3.org/2000/svg" xmlns:xlink="http://www.w3.org/1999/xlink">
 <defs>
  <style type="text/css">
*{stroke-linecap:butt;stroke-linejoin:round;}
  </style>
 </defs>
 <g id="figure_1">
  <g id="patch_1">
   <path d="M 0 288 
L 432 288 
L 432 0 
L 0 0 
z
" style="fill:#ffffff;"/>
  </g>
  <g id="axes_1">
   <g id="patch_2">
    <path d="M 54 252 
L 388.8 252 
L 388.8 34.56 
L 54 34.56 
z
" style="fill:#ffffff;"/>
   </g>
   <g id="patch_3">
    <path clip-path="url(#p4422832b76)" d="M 70.74 252 
L 79.11 252 
L 79.11 174.673685 
L 70.74 174.673685 
z
" style="fill:#1f77b4;"/>
   </g>
   <g id="patch_4">
    <path clip-path="url(#p4422832b76)" d="M 137.7 252 
L 146.07 252 
L 146.07 93.277564 
L 137.7 93.277564 
z
" style="fill:#1f77b4;"/>
   </g>
   <g id="patch_5">
    <path clip-path="url(#p4422832b76)" d="M 204.66 252 
L 213.03 252 
L 213.03 83.815265 
L 204.66 83.815265 
z
" style="fill:#1f77b4;"/>
   </g>
   <g id="patch_6">
    <path clip-path="url(#p4422832b76)" d="M 271.62 252 
L 279.99 252 
L 279.99 158.309875 
L 271.62 158.309875 
z
" style="fill:#1f77b4;"/>
   </g>
   <g id="patch_7">
    <path clip-path="url(#p4422832b76)" d="M 338.58 252 
L 346.95 252 
L 346.95 210.772489 
L 338.58 210.772489 
z
" style="fill:#1f77b4;"/>
   </g>
   <g id="patch_8">
    <path clip-path="url(#p4422832b76)" d="M 79.11 252 
L 87.48 252 
L 87.48 143.463114 
L 79.11 143.463114 
z
" style="fill:#ff7f0e;"/>
   </g>
   <g id="patch_9">
    <path clip-path="url(#p4422832b76)" d="M 146.07 252 
L 154.44 252 
L 154.44 124.488134 
L 146.07 124.488134 
z
" style="fill:#ff7f0e;"/>
   </g>
   <g id="patch_10">
    <path clip-path="url(#p4422832b76)" d="M 213.03 252 
L 221.4 252 
L 221.4 44.914286 
L 213.03 44.914286 
z
" style="fill:#ff7f0e;"/>
   </g>
   <g id="patch_11">
    <path clip-path="url(#p4422832b76)" d="M 279.99 252 
L 288.36 252 
L 288.36 126.677462 
L 279.99 126.677462 
z
" style="fill:#ff7f0e;"/>
   </g>
   <g id="patch_12">
    <path clip-path="url(#p4422832b76)" d="M 346.95 252 
L 355.32 252 
L 355.32 202.431356 
L 346.95 202.431356 
z
" style="fill:#ff7f0e;"/>
   </g>
   <g id="patch_13">
    <path clip-path="url(#p4422832b76)" d="M 87.48 252 
L 95.85 252 
L 95.85 144.492648 
L 87.48 144.492648 
z
" style="fill:#2ca02c;"/>
   </g>
   <g id="patch_14">
    <path clip-path="url(#p4422832b76)" d="M 154.44 252 
L 162.81 252 
L 162.81 123.458601 
L 154.44 123.458601 
z
" style="fill:#2ca02c;"/>
   </g>
   <g id="patch_15">
    <path clip-path="url(#p4422832b76)" d="M 221.4 252 
L 229.77 252 
L 229.77 158.796201 
L 221.4 158.796201 
z
" style="fill:#2ca02c;"/>
   </g>
   <g id="patch_16">
    <path clip-path="url(#p4422832b76)" d="M 288.36 252 
L 296.73 252 
L 296.73 178.715259 
L 288.36 178.715259 
z
" style="fill:#2ca02c;"/>
   </g>
   <g id="patch_17">
    <path clip-path="url(#p4422832b76)" d="M 355.32 252 
L 363.69 252 
L 363.69 182.13637 
L 355.32 182.13637 
z
" style="fill:#2ca02c;"/>
   </g>
   <g id="patch_18">
    <path clip-path="url(#p4422832b76)" d="M 95.85 252 
L 104.22 252 
L 104.22 118.104376 
L 95.85 118.104376 
z
" style="fill:#d62728;"/>
   </g>
   <g id="patch_19">
    <path clip-path="url(#p4422832b76)" d="M 162.81 252 
L 171.18 252 
L 171.18 149.846873 
L 162.81 149.846873 
z
" style="fill:#d62728;"/>
   </g>
   <g id="patch_20">
    <path clip-path="url(#p4422832b76)" d="M 229.77 252 
L 238.14 252 
L 238.14 86.050575 
L 229.77 86.050575 
z
" style="fill:#d62728;"/>
   </g>
   <g id="patch_21">
    <path clip-path="url(#p4422832b76)" d="M 296.73 252 
L 305.1 252 
L 305.1 133.34818 
L 296.73 133.34818 
z
" style="fill:#d62728;"/>
   </g>
   <g id="patch_22">
    <path clip-path="url(#p4422832b76)" d="M 363.69 252 
L 372.06 252 
L 372.06 177.248572 
L 363.69 177.248572 
z
" style="fill:#d62728;"/>
   </g>
   <g id="matplotlib.axis_1">
    <g id="xtick_1">
     <g id="line2d_1">
      <defs>
       <path d="M 0 0 
L 0 3.5 
" id="m9e26c9a057" style="stroke:#000000;stroke-width:0.8;"/>
      </defs>
      <g>
       <use style="stroke:#000000;stroke-width:0.8;" x="87.48" xlink:href="#m9e26c9a057" y="252"/>
      </g>
     </g>
     <g id="text_1">
      <text style="font-family:DejaVu Sans;font-size:10px;font-style:normal;font-weight:normal;" transform="translate(90.239375 304.009375)rotate(-90)">Precision</text>
     </g>
    </g>
    <g id="xtick_2">
     <g id="line2d_2">
      <g>
       <use style="stroke:#000000;stroke-width:0.8;" x="154.44" xlink:href="#m9e26c9a057" y="252"/>
      </g>
     </g>
     <g id="text_2">
      <text style="font-family:DejaVu Sans;font-size:10px;font-style:normal;font-weight:normal;" transform="translate(157.199375 279.4)rotate(-90)">FDR</text>
     </g>
    </g>
    <g id="xtick_3">
     <g id="line2d_3">
      <g>
       <use style="stroke:#000000;stroke-width:0.8;" x="221.4" xlink:href="#m9e26c9a057" y="252"/>
      </g>
     </g>
     <g id="text_3">
      <text style="font-family:DejaVu Sans;font-size:10px;font-style:normal;font-weight:normal;" transform="translate(224.159375 278.085938)rotate(-90)">TPR</text>
     </g>
    </g>
    <g id="xtick_4">
     <g id="line2d_4">
      <g>
       <use style="stroke:#000000;stroke-width:0.8;" x="288.36" xlink:href="#m9e26c9a057" y="252"/>
      </g>
     </g>
     <g id="text_4">
      <text style="font-family:DejaVu Sans;font-size:10px;font-style:normal;font-weight:normal;" transform="translate(291.119375 281.59375)rotate(-90)">MCC</text>
     </g>
    </g>
    <g id="xtick_5">
     <g id="line2d_5">
      <g>
       <use style="stroke:#000000;stroke-width:0.8;" x="355.32" xlink:href="#m9e26c9a057" y="252"/>
      </g>
     </g>
     <g id="text_5">
      <text style="font-family:DejaVu Sans;font-size:10px;font-style:normal;font-weight:normal;" transform="translate(358.079375 306.914062)rotate(-90)">Coverage</text>
     </g>
    </g>
   </g>
   <g id="matplotlib.axis_2">
    <g id="ytick_1">
     <g id="line2d_6">
      <defs>
       <path d="M 0 0 
L -3.5 0 
" id="m50642def2d" style="stroke:#000000;stroke-width:0.8;"/>
      </defs>
      <g>
       <use style="stroke:#000000;stroke-width:0.8;" x="54" xlink:href="#m50642def2d" y="252"/>
      </g>
     </g>
     <g id="text_6">
      <text style="font-family:DejaVu Sans;font-size:10px;font-style:normal;font-weight:normal;text-anchor:end;" transform="rotate(-0, 47, 255.799219)" x="47" y="255.799219">0.0</text>
     </g>
    </g>
    <g id="ytick_2">
     <g id="line2d_7">
      <g>
       <use style="stroke:#000000;stroke-width:0.8;" x="54" xlink:href="#m50642def2d" y="204.79025"/>
      </g>
     </g>
     <g id="text_7">
      <text style="font-family:DejaVu Sans;font-size:10px;font-style:normal;font-weight:normal;text-anchor:end;" transform="rotate(-0, 47, 208.589469)" x="47" y="208.589469">0.2</text>
     </g>
    </g>
    <g id="ytick_3">
     <g id="line2d_8">
      <g>
       <use style="stroke:#000000;stroke-width:0.8;" x="54" xlink:href="#m50642def2d" y="157.5805"/>
      </g>
     </g>
     <g id="text_8">
      <text style="font-family:DejaVu Sans;font-size:10px;font-style:normal;font-weight:normal;text-anchor:end;" transform="rotate(-0, 47, 161.379718)" x="47" y="161.379718">0.4</text>
     </g>
    </g>
    <g id="ytick_4">
     <g id="line2d_9">
      <g>
       <use style="stroke:#000000;stroke-width:0.8;" x="54" xlink:href="#m50642def2d" y="110.370749"/>
      </g>
     </g>
     <g id="text_9">
      <text style="font-family:DejaVu Sans;font-size:10px;font-style:normal;font-weight:normal;text-anchor:end;" transform="rotate(-0, 47, 114.169968)" x="47" y="114.169968">0.6</text>
     </g>
    </g>
    <g id="ytick_5">
     <g id="line2d_10">
      <g>
       <use style="stroke:#000000;stroke-width:0.8;" x="54" xlink:href="#m50642def2d" y="63.160999"/>
      </g>
     </g>
     <g id="text_10">
      <text style="font-family:DejaVu Sans;font-size:10px;font-style:normal;font-weight:normal;text-anchor:end;" transform="rotate(-0, 47, 66.960218)" x="47" y="66.960218">0.8</text>
     </g>
    </g>
    <g id="text_11">
     <text style="font-family:DejaVu Sans;font-size:10px;font-style:normal;font-weight:normal;text-anchor:middle;" transform="rotate(-90, 25.017187, 143.28)" x="25.017187" y="143.28">Score</text>
    </g>
   </g>
   <g id="patch_23">
    <path d="M 54 252 
L 54 34.56 
" style="fill:none;stroke:#000000;stroke-linecap:square;stroke-linejoin:miter;stroke-width:0.8;"/>
   </g>
   <g id="patch_24">
    <path d="M 388.8 252 
L 388.8 34.56 
" style="fill:none;stroke:#000000;stroke-linecap:square;stroke-linejoin:miter;stroke-width:0.8;"/>
   </g>
   <g id="patch_25">
    <path d="M 54 252 
L 388.8 252 
" style="fill:none;stroke:#000000;stroke-linecap:square;stroke-linejoin:miter;stroke-width:0.8;"/>
   </g>
   <g id="patch_26">
    <path d="M 54 34.56 
L 388.8 34.56 
" style="fill:none;stroke:#000000;stroke-linecap:square;stroke-linejoin:miter;stroke-width:0.8;"/>
   </g>
   <g id="legend_1">
    <g id="patch_27">
     <path d="M 304.6625 102.385 
L 381.8 102.385 
Q 383.8 102.385 383.8 100.385 
L 383.8 41.56 
Q 383.8 39.56 381.8 39.56 
L 304.6625 39.56 
Q 302.6625 39.56 302.6625 41.56 
L 302.6625 100.385 
Q 302.6625 102.385 304.6625 102.385 
z
" style="fill:#ffffff;opacity:0.8;stroke:#cccccc;stroke-linejoin:miter;"/>
    </g>
    <g id="patch_28">
     <path d="M 306.6625 51.158437 
L 326.6625 51.158437 
L 326.6625 44.158437 
L 306.6625 44.158437 
z
" style="fill:#1f77b4;"/>
    </g>
    <g id="text_12">
     <text style="font-family:DejaVu Sans;font-size:10px;font-style:normal;font-weight:normal;text-anchor:start;" transform="rotate(-0, 334.6625, 51.158437)" x="334.6625" y="51.158437">m_bsub</text>
    </g>
    <g id="patch_29">
     <path d="M 306.6625 66.114688 
L 326.6625 66.114688 
L 326.6625 59.114688 
L 306.6625 59.114688 
z
" style="fill:#ff7f0e;"/>
    </g>
    <g id="text_13">
     <text style="font-family:DejaVu Sans;font-size:10px;font-style:normal;font-weight:normal;text-anchor:start;" transform="rotate(-0, 334.6625, 66.114688)" x="334.6625" y="66.114688">me_bsub</text>
    </g>
    <g id="patch_30">
     <path d="M 306.6625 81.070937 
L 326.6625 81.070937 
L 326.6625 74.070937 
L 306.6625 74.070937 
z
" style="fill:#2ca02c;"/>
    </g>
    <g id="text_14">
     <text style="font-family:DejaVu Sans;font-size:10px;font-style:normal;font-weight:normal;text-anchor:start;" transform="rotate(-0, 334.6625, 81.070937)" x="334.6625" y="81.070937">m_eco</text>
    </g>
    <g id="patch_31">
     <path d="M 306.6625 96.027187 
L 326.6625 96.027187 
L 326.6625 89.027187 
L 306.6625 89.027187 
z
" style="fill:#d62728;"/>
    </g>
    <g id="text_15">
     <text style="font-family:DejaVu Sans;font-size:10px;font-style:normal;font-weight:normal;text-anchor:start;" transform="rotate(-0, 334.6625, 96.027187)" x="334.6625" y="96.027187">me_eco</text>
    </g>
   </g>
  </g>
 </g>
 <defs>
  <clipPath id="p4422832b76">
   <rect height="217.44" width="334.8" x="54" y="34.56"/>
  </clipPath>
 </defs>
</svg>
