<?xml version="1.0" encoding="utf-8" standalone="no"?>
<!DOCTYPE svg PUBLIC "-//W3C//DTD SVG 1.1//EN"
  "http://www.w3.org/Graphics/SVG/1.1/DTD/svg11.dtd">
<!-- Created with matplotlib (https://matplotlib.org/) -->
<svg height="288pt" version="1.1" viewBox="0 0 432 288" width="432pt" xmlns="http://www.w3.org/2000/svg" xmlns:xlink="http://www.w3.org/1999/xlink">
 <defs>
  <style type="text/css">
*{stroke-linecap:butt;stroke-linejoin:round;}
  </style>
 </defs>
 <g id="figure_1">
  <g id="patch_1">
   <path d="M 0 288 
L 432 288 
L 432 0 
L 0 0 
z
" style="fill:#ffffff;"/>
  </g>
  <g id="axes_1">
   <g id="patch_2">
    <path d="M 54 252 
L 388.8 252 
L 388.8 34.56 
L 54 34.56 
z
" style="fill:#ffffff;"/>
   </g>
   <g id="patch_3">
    <path clip-path="url(#pc44545de4f)" d="M 81.9 252 
L 109.8 252 
L 109.8 188.001149 
L 81.9 188.001149 
z
" style="fill:#1f77b4;"/>
   </g>
   <g id="patch_4">
    <path clip-path="url(#pc44545de4f)" d="M 193.5 252 
L 221.4 252 
L 221.4 200.488729 
L 193.5 200.488729 
z
" style="fill:#1f77b4;"/>
   </g>
   <g id="patch_5">
    <path clip-path="url(#pc44545de4f)" d="M 305.1 252 
L 333 252 
L 333 234.309261 
L 305.1 234.309261 
z
" style="fill:#1f77b4;"/>
   </g>
   <g id="patch_6">
    <path clip-path="url(#pc44545de4f)" d="M 109.8 252 
L 137.7 252 
L 137.7 229.626418 
L 109.8 229.626418 
z
" style="fill:#ff7f0e;"/>
   </g>
   <g id="patch_7">
    <path clip-path="url(#pc44545de4f)" d="M 221.4 252 
L 249.3 252 
L 249.3 44.914286 
L 221.4 44.914286 
z
" style="fill:#ff7f0e;"/>
   </g>
   <g id="patch_8">
    <path clip-path="url(#pc44545de4f)" d="M 333 252 
L 360.9 252 
L 360.9 112.555348 
L 333 112.555348 
z
" style="fill:#ff7f0e;"/>
   </g>
   <g id="matplotlib.axis_1">
    <g id="xtick_1">
     <g id="line2d_1">
      <defs>
       <path d="M 0 0 
L 0 3.5 
" id="m3f34b9a682" style="stroke:#000000;stroke-width:0.8;"/>
      </defs>
      <g>
       <use style="stroke:#000000;stroke-width:0.8;" x="109.8" xlink:href="#m3f34b9a682" y="252"/>
      </g>
     </g>
     <g id="text_1">
      <text style="font-family:DejaVu Sans;font-size:10px;font-style:normal;font-weight:normal;" transform="translate(112.559375 278.510938)rotate(-90)">-1.0</text>
     </g>
    </g>
    <g id="xtick_2">
     <g id="line2d_2">
      <g>
       <use style="stroke:#000000;stroke-width:0.8;" x="221.4" xlink:href="#m3f34b9a682" y="252"/>
      </g>
     </g>
     <g id="text_2">
      <text style="font-family:DejaVu Sans;font-size:10px;font-style:normal;font-weight:normal;" transform="translate(224.159375 274.903125)rotate(-90)">0.0</text>
     </g>
    </g>
    <g id="xtick_3">
     <g id="line2d_3">
      <g>
       <use style="stroke:#000000;stroke-width:0.8;" x="333" xlink:href="#m3f34b9a682" y="252"/>
      </g>
     </g>
     <g id="text_3">
      <text style="font-family:DejaVu Sans;font-size:10px;font-style:normal;font-weight:normal;" transform="translate(335.759375 274.903125)rotate(-90)">1.0</text>
     </g>
    </g>
    <g id="text_4">
     <text style="font-family:DejaVu Sans;font-size:10px;font-style:normal;font-weight:normal;text-anchor:middle;" transform="rotate(-0, 221.4, 290.109375)" x="221.4" y="290.109375">Regulation</text>
    </g>
   </g>
   <g id="matplotlib.axis_2">
    <g id="ytick_1">
     <g id="line2d_4">
      <defs>
       <path d="M 0 0 
L -3.5 0 
" id="me0525a9c24" style="stroke:#000000;stroke-width:0.8;"/>
      </defs>
      <g>
       <use style="stroke:#000000;stroke-width:0.8;" x="54" xlink:href="#me0525a9c24" y="252"/>
      </g>
     </g>
     <g id="text_5">
      <text style="font-family:DejaVu Sans;font-size:10px;font-style:normal;font-weight:normal;text-anchor:end;" transform="rotate(-0, 47, 255.799219)" x="47" y="255.799219">0</text>
     </g>
    </g>
    <g id="ytick_2">
     <g id="line2d_5">
      <g>
       <use style="stroke:#000000;stroke-width:0.8;" x="54" xlink:href="#me0525a9c24" y="225.984207"/>
      </g>
     </g>
     <g id="text_6">
      <text style="font-family:DejaVu Sans;font-size:10px;font-style:normal;font-weight:normal;text-anchor:end;" transform="rotate(-0, 47, 229.783425)" x="47" y="229.783425">50</text>
     </g>
    </g>
    <g id="ytick_3">
     <g id="line2d_6">
      <g>
       <use style="stroke:#000000;stroke-width:0.8;" x="54" xlink:href="#me0525a9c24" y="199.968413"/>
      </g>
     </g>
     <g id="text_7">
      <text style="font-family:DejaVu Sans;font-size:10px;font-style:normal;font-weight:normal;text-anchor:end;" transform="rotate(-0, 47, 203.767632)" x="47" y="203.767632">100</text>
     </g>
    </g>
    <g id="ytick_4">
     <g id="line2d_7">
      <g>
       <use style="stroke:#000000;stroke-width:0.8;" x="54" xlink:href="#me0525a9c24" y="173.95262"/>
      </g>
     </g>
     <g id="text_8">
      <text style="font-family:DejaVu Sans;font-size:10px;font-style:normal;font-weight:normal;text-anchor:end;" transform="rotate(-0, 47, 177.751839)" x="47" y="177.751839">150</text>
     </g>
    </g>
    <g id="ytick_5">
     <g id="line2d_8">
      <g>
       <use style="stroke:#000000;stroke-width:0.8;" x="54" xlink:href="#me0525a9c24" y="147.936827"/>
      </g>
     </g>
     <g id="text_9">
      <text style="font-family:DejaVu Sans;font-size:10px;font-style:normal;font-weight:normal;text-anchor:end;" transform="rotate(-0, 47, 151.736046)" x="47" y="151.736046">200</text>
     </g>
    </g>
    <g id="ytick_6">
     <g id="line2d_9">
      <g>
       <use style="stroke:#000000;stroke-width:0.8;" x="54" xlink:href="#me0525a9c24" y="121.921034"/>
      </g>
     </g>
     <g id="text_10">
      <text style="font-family:DejaVu Sans;font-size:10px;font-style:normal;font-weight:normal;text-anchor:end;" transform="rotate(-0, 47, 125.720252)" x="47" y="125.720252">250</text>
     </g>
    </g>
    <g id="ytick_7">
     <g id="line2d_10">
      <g>
       <use style="stroke:#000000;stroke-width:0.8;" x="54" xlink:href="#me0525a9c24" y="95.90524"/>
      </g>
     </g>
     <g id="text_11">
      <text style="font-family:DejaVu Sans;font-size:10px;font-style:normal;font-weight:normal;text-anchor:end;" transform="rotate(-0, 47, 99.704459)" x="47" y="99.704459">300</text>
     </g>
    </g>
    <g id="ytick_8">
     <g id="line2d_11">
      <g>
       <use style="stroke:#000000;stroke-width:0.8;" x="54" xlink:href="#me0525a9c24" y="69.889447"/>
      </g>
     </g>
     <g id="text_12">
      <text style="font-family:DejaVu Sans;font-size:10px;font-style:normal;font-weight:normal;text-anchor:end;" transform="rotate(-0, 47, 73.688666)" x="47" y="73.688666">350</text>
     </g>
    </g>
    <g id="ytick_9">
     <g id="line2d_12">
      <g>
       <use style="stroke:#000000;stroke-width:0.8;" x="54" xlink:href="#me0525a9c24" y="43.873654"/>
      </g>
     </g>
     <g id="text_13">
      <text style="font-family:DejaVu Sans;font-size:10px;font-style:normal;font-weight:normal;text-anchor:end;" transform="rotate(-0, 47, 47.672873)" x="47" y="47.672873">400</text>
     </g>
    </g>
    <g id="text_14">
     <text style="font-family:DejaVu Sans;font-size:10px;font-style:normal;font-weight:normal;text-anchor:middle;" transform="rotate(-90, 21.832812, 143.28)" x="21.832812" y="143.28">Count</text>
    </g>
   </g>
   <g id="patch_9">
    <path d="M 54 252 
L 54 34.56 
" style="fill:none;stroke:#000000;stroke-linecap:square;stroke-linejoin:miter;stroke-width:0.8;"/>
   </g>
   <g id="patch_10">
    <path d="M 388.8 252 
L 388.8 34.56 
" style="fill:none;stroke:#000000;stroke-linecap:square;stroke-linejoin:miter;stroke-width:0.8;"/>
   </g>
   <g id="patch_11">
    <path d="M 54 252 
L 388.8 252 
" style="fill:none;stroke:#000000;stroke-linecap:square;stroke-linejoin:miter;stroke-width:0.8;"/>
   </g>
   <g id="patch_12">
    <path d="M 54 34.56 
L 388.8 34.56 
" style="fill:none;stroke:#000000;stroke-linecap:square;stroke-linejoin:miter;stroke-width:0.8;"/>
   </g>
   <g id="text_15">
    <text style="font-family:DejaVu Sans;font-size:12px;font-style:normal;font-weight:normal;text-anchor:middle;" transform="rotate(-0, 221.4, 28.56)" x="221.4" y="28.56">Regulation of genes in the model</text>
   </g>
   <g id="legend_1">
    <g id="patch_13">
     <path d="M 304.51875 72.4725 
L 381.8 72.4725 
Q 383.8 72.4725 383.8 70.4725 
L 383.8 41.56 
Q 383.8 39.56 381.8 39.56 
L 304.51875 39.56 
Q 302.51875 39.56 302.51875 41.56 
L 302.51875 70.4725 
Q 302.51875 72.4725 304.51875 72.4725 
z
" style="fill:#ffffff;opacity:0.8;stroke:#cccccc;stroke-linejoin:miter;"/>
    </g>
    <g id="patch_14">
     <path d="M 306.51875 51.158437 
L 326.51875 51.158437 
L 326.51875 44.158437 
L 306.51875 44.158437 
z
" style="fill:#1f77b4;"/>
    </g>
    <g id="text_16">
     <text style="font-family:DejaVu Sans;font-size:10px;font-style:normal;font-weight:normal;text-anchor:start;" transform="rotate(-0, 334.51875, 51.158437)" x="334.51875" y="51.158437">reg_me</text>
    </g>
    <g id="patch_15">
     <path d="M 306.51875 66.114688 
L 326.51875 66.114688 
L 326.51875 59.114688 
L 306.51875 59.114688 
z
" style="fill:#ff7f0e;"/>
    </g>
    <g id="text_17">
     <text style="font-family:DejaVu Sans;font-size:10px;font-style:normal;font-weight:normal;text-anchor:start;" transform="rotate(-0, 334.51875, 66.114688)" x="334.51875" y="66.114688">reg_me_i</text>
    </g>
   </g>
  </g>
 </g>
 <defs>
  <clipPath id="pc44545de4f">
   <rect height="217.44" width="334.8" x="54" y="34.56"/>
  </clipPath>
 </defs>
</svg>
