<?xml version="1.0" encoding="utf-8" standalone="no"?>
<!DOCTYPE svg PUBLIC "-//W3C//DTD SVG 1.1//EN"
  "http://www.w3.org/Graphics/SVG/1.1/DTD/svg11.dtd">
<!-- Created with matplotlib (https://matplotlib.org/) -->
<svg height="288pt" version="1.1" viewBox="0 0 432 288" width="432pt" xmlns="http://www.w3.org/2000/svg" xmlns:xlink="http://www.w3.org/1999/xlink">
 <defs>
  <style type="text/css">
*{stroke-linecap:butt;stroke-linejoin:round;}
  </style>
 </defs>
 <g id="figure_1">
  <g id="patch_1">
   <path d="M 0 288 
L 432 288 
L 432 0 
L 0 0 
z
" style="fill:#ffffff;"/>
  </g>
  <g id="axes_1">
   <g id="patch_2">
    <path d="M 308.376 143.28 
C 308.376 120.221377 299.206228 98.083589 282.901319 81.778681 
C 266.596411 65.473772 244.458623 56.304 221.4 56.304 
C 198.341377 56.304 176.203589 65.473772 159.898681 81.778681 
C 143.593772 98.083589 134.424 120.221377 134.424 143.28 
L 221.4 143.28 
L 308.376 143.28 
z
" style="fill:#1f77b4;"/>
   </g>
   <g id="patch_3">
    <path d="M 134.424 143.28 
C 134.424 155.980108 137.205677 168.527441 142.572975 180.037648 
C 147.940273 191.547854 155.76406 201.744012 165.492908 209.907484 
C 175.221755 218.070956 186.621597 224.005337 198.88896 227.292366 
C 211.156323 230.579395 223.996066 231.13999 236.503231 228.934638 
L 221.4 143.28 
L 134.424 143.28 
z
" style="fill:#ff7f0e;"/>
   </g>
   <g id="patch_4">
    <path d="M 236.503231 228.934638 
C 246.494832 227.172848 256.101541 223.676291 264.888006 218.603422 
C 273.674472 213.530552 281.505933 206.959176 288.027486 199.187089 
L 221.4 143.28 
L 236.503231 228.934638 
z
" style="fill:#2ca02c;"/>
   </g>
   <g id="patch_5">
    <path d="M 288.027486 199.187089 
C 291.282092 195.308401 294.191796 191.152912 296.723429 186.767993 
C 299.255063 182.383075 301.398969 177.785452 303.130708 173.027537 
L 221.4 143.28 
L 288.027486 199.187089 
z
" style="fill:#d62728;"/>
   </g>
   <g id="patch_6">
    <path d="M 303.130708 173.027537 
C 304.862447 168.269621 306.175414 163.369561 307.054641 158.383216 
C 307.933867 153.396871 308.376 148.34326 308.376 143.279992 
L 221.4 143.28 
L 303.130708 173.027537 
z
" style="fill:#9467bd;"/>
   </g>
   <g id="matplotlib.axis_1"/>
   <g id="matplotlib.axis_2">
    <g id="text_1">
     <text style="font-family:DejaVu Sans;font-size:10px;font-style:normal;font-weight:normal;text-anchor:middle;" transform="rotate(-90, 106.600313, 143.28)" x="106.600313" y="143.28">annotation</text>
    </g>
   </g>
   <g id="text_2">
    <text style="font-family:DejaVu Sans;font-size:10px;font-style:normal;font-weight:normal;text-anchor:start;" transform="rotate(-0, 221.4, 50.365775)" x="221.4" y="50.365775">transcription</text>
   </g>
   <g id="text_3">
    <text style="font-family:DejaVu Sans;font-size:10px;font-style:normal;font-weight:normal;text-anchor:middle;" transform="rotate(-0, 221.4, 93.853775)" x="221.4" y="93.853775">50.0%</text>
   </g>
   <g id="text_4">
    <text style="font-family:DejaVu Sans;font-size:10px;font-style:normal;font-weight:normal;text-anchor:end;" transform="rotate(-0, 159.902198, 219.329607)" x="159.902198" y="219.329607">translocation</text>
   </g>
   <g id="text_5">
    <text style="font-family:DejaVu Sans;font-size:10px;font-style:normal;font-weight:normal;text-anchor:middle;" transform="rotate(-0, 187.855745, 186.015865)" x="187.855745" y="186.015865">27.8%</text>
   </g>
   <g id="text_6">
    <text style="font-family:DejaVu Sans;font-size:10px;font-style:normal;font-weight:normal;text-anchor:start;" transform="rotate(-0, 269.236807, 228.667795)" x="269.236807" y="228.667795">S_Transport</text>
   </g>
   <g id="text_7">
    <text style="font-family:DejaVu Sans;font-size:10px;font-style:normal;font-weight:normal;text-anchor:middle;" transform="rotate(-0, 247.492804, 191.233428)" x="247.492804" y="191.233428">11.1%</text>
   </g>
   <g id="text_8">
    <text style="font-family:DejaVu Sans;font-size:10px;font-style:normal;font-weight:normal;text-anchor:start;" transform="rotate(-0, 304.255772, 193.737105)" x="304.255772" y="193.737105">S_Carbohydrates_and_related_molecules</text>
   </g>
   <g id="text_9">
    <text style="font-family:DejaVu Sans;font-size:10px;font-style:normal;font-weight:normal;text-anchor:middle;" transform="rotate(-0, 266.594058, 172.132171)" x="266.594058" y="172.132171">5.6%</text>
   </g>
   <g id="text_10">
    <text style="font-family:DejaVu Sans;font-size:10px;font-style:normal;font-weight:normal;text-anchor:start;" transform="rotate(-0, 315.620105, 162.51385)" x="315.620105" y="162.51385">S_Amino_acids_and_related_molecules</text>
   </g>
   <g id="text_11">
    <text style="font-family:DejaVu Sans;font-size:10px;font-style:normal;font-weight:normal;text-anchor:middle;" transform="rotate(-0, 272.792784, 155.101305)" x="272.792784" y="155.101305">5.6%</text>
   </g>
  </g>
 </g>
</svg>
