<?xml version="1.0" encoding="utf-8" standalone="no"?>
<!DOCTYPE svg PUBLIC "-//W3C//DTD SVG 1.1//EN"
  "http://www.w3.org/Graphics/SVG/1.1/DTD/svg11.dtd">
<!-- Created with matplotlib (https://matplotlib.org/) -->
<svg height="288pt" version="1.1" viewBox="0 0 432 288" width="432pt" xmlns="http://www.w3.org/2000/svg" xmlns:xlink="http://www.w3.org/1999/xlink">
 <defs>
  <style type="text/css">
*{stroke-linecap:butt;stroke-linejoin:round;}
  </style>
 </defs>
 <g id="figure_1">
  <g id="patch_1">
   <path d="M 0 288 
L 432 288 
L 432 0 
L 0 0 
z
" style="fill:#ffffff;"/>
  </g>
  <g id="axes_1">
   <g id="patch_2">
    <path d="M 308.376 143.28 
C 308.376 121.703226 300.346937 100.879967 285.861347 84.888568 
C 271.375756 68.897169 251.445383 58.854549 229.973697 56.72761 
L 221.4 143.28 
L 308.376 143.28 
z
" style="fill:#1f77b4;"/>
   </g>
   <g id="patch_3">
    <path d="M 229.973697 56.72761 
C 219.065101 55.647027 208.049908 56.638412 197.509563 59.649434 
C 186.969218 62.660456 177.092503 67.637185 168.400769 74.316922 
L 221.4 143.28 
L 229.973697 56.72761 
z
" style="fill:#ff7f0e;"/>
   </g>
   <g id="patch_4">
    <path d="M 168.400769 74.316922 
C 160.956514 80.037952 154.487471 86.926782 149.245159 94.715574 
C 144.002847 102.504365 140.056099 111.090848 137.558367 120.141177 
L 221.4 143.28 
L 168.400769 74.316922 
z
" style="fill:#2ca02c;"/>
   </g>
   <g id="patch_5">
    <path d="M 137.558367 120.141177 
C 135.060635 129.191505 134.044714 138.586845 134.550104 147.961902 
C 135.055495 157.336958 137.07556 166.568635 140.531759 175.297999 
L 221.4 143.28 
L 137.558367 120.141177 
z
" style="fill:#d62728;"/>
   </g>
   <g id="patch_6">
    <path d="M 140.531759 175.297999 
C 143.410023 182.567663 147.255449 189.416131 151.963987 195.658094 
C 156.672525 201.900056 162.201318 207.4787 168.400766 212.243075 
L 221.4 143.28 
L 140.531759 175.297999 
z
" style="fill:#9467bd;"/>
   </g>
   <g id="patch_7">
    <path d="M 168.400766 212.243075 
C 173.771609 216.370655 179.606296 219.856718 185.786098 222.630328 
C 191.9659 225.403938 198.448614 227.446153 205.102322 228.715416 
L 221.4 143.28 
L 168.400766 212.243075 
z
" style="fill:#8c564b;"/>
   </g>
   <g id="patch_8">
    <path d="M 205.102322 228.715416 
C 210.218196 229.691321 215.411401 230.205749 220.619315 230.252496 
C 225.827229 230.299244 231.028832 229.878122 236.1614 228.994209 
L 221.4 143.28 
L 205.102322 228.715416 
z
" style="fill:#e377c2;"/>
   </g>
   <g id="patch_9">
    <path d="M 236.1614 228.994209 
C 240.780123 228.198789 245.327007 227.031348 249.757621 225.503293 
C 254.188235 223.975239 258.488101 222.091564 262.6152 219.870677 
L 221.4 143.28 
L 236.1614 228.994209 
z
" style="fill:#7f7f7f;"/>
   </g>
   <g id="patch_10">
    <path d="M 262.6152 219.870677 
C 265.824478 218.143691 268.92204 216.2167 271.889563 214.101103 
C 274.857086 211.985505 277.688707 209.685482 280.367676 207.214637 
L 221.4 143.28 
L 262.6152 219.870677 
z
" style="fill:#bcbd22;"/>
   </g>
   <g id="patch_11">
    <path d="M 280.367676 207.214637 
C 282.280916 205.450032 284.113985 203.600436 285.861346 201.671433 
C 287.608707 199.742431 289.268599 197.735965 290.836011 195.658096 
L 221.4 143.28 
L 280.367676 207.214637 
z
" style="fill:#17becf;"/>
   </g>
   <g id="patch_12">
    <path d="M 290.836011 195.658096 
C 292.089865 193.995901 293.283629 192.289219 294.414995 190.541348 
C 295.546362 188.793478 296.614601 187.005546 297.617649 185.181008 
L 221.4 143.28 
L 290.836011 195.658096 
z
" style="fill:#1f77b4;"/>
   </g>
   <g id="patch_13">
    <path d="M 297.617649 185.181008 
C 298.620697 183.356471 299.557907 181.496505 300.427466 179.604705 
C 301.297026 177.712904 302.098374 175.79049 302.829964 173.841178 
L 221.4 143.28 
L 297.617649 185.181008 
z
" style="fill:#ff7f0e;"/>
   </g>
   <g id="patch_14">
    <path d="M 302.829964 173.841178 
C 303.561553 171.891865 304.222911 169.916912 304.812759 167.920134 
C 305.402607 165.923357 305.920565 163.906043 306.365633 161.872092 
L 221.4 143.28 
L 302.829964 173.841178 
z
" style="fill:#2ca02c;"/>
   </g>
   <g id="patch_15">
    <path d="M 306.365633 161.872092 
C 306.476888 161.363655 306.583578 160.85423 306.685688 160.343878 
C 306.787799 159.833526 306.885327 159.322268 306.97826 158.810166 
L 221.4 143.28 
L 306.365633 161.872092 
z
" style="fill:#d62728;"/>
   </g>
   <g id="patch_16">
    <path d="M 306.97826 158.810166 
C 307.071193 158.298063 307.159527 157.785137 307.243252 157.271449 
C 307.326977 156.75776 307.40609 156.243331 307.48058 155.728222 
L 221.4 143.28 
L 306.97826 158.810166 
z
" style="fill:#9467bd;"/>
   </g>
   <g id="patch_17">
    <path d="M 307.48058 155.728222 
C 307.555071 155.213114 307.624936 154.697347 307.690168 154.180985 
C 307.7554 153.664622 307.815995 153.147684 307.871947 152.630234 
L 221.4 143.28 
L 307.48058 155.728222 
z
" style="fill:#8c564b;"/>
   </g>
   <g id="patch_18">
    <path d="M 307.871947 152.630234 
C 307.9279 152.112784 307.979206 151.594841 308.02586 151.07647 
C 308.072514 150.558099 308.114515 150.039319 308.151856 149.520193 
L 221.4 143.28 
L 307.871947 152.630234 
z
" style="fill:#e377c2;"/>
   </g>
   <g id="patch_19">
    <path d="M 308.151856 149.520193 
C 308.189198 149.001068 308.221879 148.481618 308.249895 147.961906 
C 308.277912 147.442194 308.301263 146.922241 308.319946 146.40211 
L 221.4 143.28 
L 308.151856 149.520193 
z
" style="fill:#7f7f7f;"/>
   </g>
   <g id="patch_20">
    <path d="M 308.319946 146.40211 
C 308.338629 145.881978 308.352642 145.36169 308.361985 144.841307 
C 308.371328 144.320924 308.376 143.800468 308.376 143.280002 
L 221.4 143.28 
L 308.319946 146.40211 
z
" style="fill:#bcbd22;"/>
   </g>
   <g id="matplotlib.axis_1"/>
   <g id="matplotlib.axis_2">
    <g id="text_1">
     <text style="font-family:DejaVu Sans;font-size:10px;font-style:normal;font-weight:normal;text-anchor:middle;" transform="rotate(-90, 106.600313, 143.28)" x="106.600313" y="143.28">annotation</text>
    </g>
   </g>
   <g id="text_2">
    <text style="font-family:DejaVu Sans;font-size:10px;font-style:normal;font-weight:normal;text-anchor:start;" transform="rotate(-0, 292.307481, 81.669737)" x="292.307481" y="81.669737">S_Carbohydrates_and_related_molecules</text>
   </g>
   <g id="text_3">
    <text style="font-family:DejaVu Sans;font-size:10px;font-style:normal;font-weight:normal;text-anchor:middle;" transform="rotate(-0, 260.076808, 111.004516)" x="260.076808" y="111.004516">23.4%</text>
   </g>
   <g id="text_4">
    <text style="font-family:DejaVu Sans;font-size:10px;font-style:normal;font-weight:normal;text-anchor:end;" transform="rotate(-0, 195.120519, 54.045752)" x="195.120519" y="54.045752">formation</text>
   </g>
   <g id="text_5">
    <text style="font-family:DejaVu Sans;font-size:10px;font-style:normal;font-weight:normal;text-anchor:middle;" transform="rotate(-0, 207.065738, 95.861035)" x="207.065738" y="95.861035">12.0%</text>
   </g>
   <g id="text_6">
    <text style="font-family:DejaVu Sans;font-size:10px;font-style:normal;font-weight:normal;text-anchor:end;" transform="rotate(-0, 142.029675, 92.479444)" x="142.029675" y="92.479444">S_Lipids</text>
   </g>
   <g id="text_7">
    <text style="font-family:DejaVu Sans;font-size:10px;font-style:normal;font-weight:normal;text-anchor:middle;" transform="rotate(-0, 178.107095, 116.900719)" x="178.107095" y="116.900719">10.3%</text>
   </g>
   <g id="text_8">
    <text style="font-family:DejaVu Sans;font-size:10px;font-style:normal;font-weight:normal;text-anchor:end;" transform="rotate(-0, 125.865115, 151.050404)" x="125.865115" y="151.050404">S_Amino_acids_and_related_molecules</text>
   </g>
   <g id="text_9">
    <text style="font-family:DejaVu Sans;font-size:10px;font-style:normal;font-weight:normal;text-anchor:middle;" transform="rotate(-0, 169.290063, 148.848516)" x="169.290063" y="148.848516">10.3%</text>
   </g>
   <g id="text_10">
    <text style="font-family:DejaVu Sans;font-size:10px;font-style:normal;font-weight:normal;text-anchor:end;" transform="rotate(-0, 145.020386, 203.655278)" x="145.020386" y="203.655278">transcription</text>
   </g>
   <g id="text_11">
    <text style="font-family:DejaVu Sans;font-size:10px;font-style:normal;font-weight:normal;text-anchor:middle;" transform="rotate(-0, 179.738392, 177.466231)" x="179.738392" y="177.466231">8.6%</text>
   </g>
   <g id="text_12">
    <text style="font-family:DejaVu Sans;font-size:10px;font-style:normal;font-weight:normal;text-anchor:end;" transform="rotate(-0, 182.224708, 233.185673)" x="182.224708" y="233.185673">S_Cell_wall</text>
   </g>
   <g id="text_13">
    <text style="font-family:DejaVu Sans;font-size:10px;font-style:normal;font-weight:normal;text-anchor:middle;" transform="rotate(-0, 200.031659, 193.649572)" x="200.031659" y="193.649572">7.4%</text>
   </g>
   <g id="text_14">
    <text style="font-family:DejaVu Sans;font-size:10px;font-style:normal;font-weight:normal;text-anchor:end;" transform="rotate(-0, 220.541247, 241.570058)" x="220.541247" y="241.570058">S_Membrane_bioenergetics</text>
   </g>
   <g id="text_15">
    <text style="font-family:DejaVu Sans;font-size:10px;font-style:normal;font-weight:normal;text-anchor:middle;" transform="rotate(-0, 220.931589, 198.222873)" x="220.931589" y="198.222873">5.7%</text>
   </g>
   <g id="text_16">
    <text style="font-family:DejaVu Sans;font-size:10px;font-style:normal;font-weight:normal;text-anchor:start;" transform="rotate(-0, 252.593383, 236.345935)" x="252.593383" y="236.345935">S_Coenzymes_and_prosthetic_groups</text>
   </g>
   <g id="text_17">
    <text style="font-family:DejaVu Sans;font-size:10px;font-style:normal;font-weight:normal;text-anchor:middle;" transform="rotate(-0, 238.414572, 195.373351)" x="238.414572" y="195.373351">5.1%</text>
   </g>
   <g id="text_18">
    <text style="font-family:DejaVu Sans;font-size:10px;font-style:normal;font-weight:normal;text-anchor:start;" transform="rotate(-0, 276.93852, 223.803525)" x="276.93852" y="223.803525">S_Nucleotides_and_nucleic_acids</text>
   </g>
   <g id="text_19">
    <text style="font-family:DejaVu Sans;font-size:10px;font-style:normal;font-weight:normal;text-anchor:middle;" transform="rotate(-0, 251.693738, 188.532037)" x="251.693738" y="188.532037">4.0%</text>
   </g>
   <g id="text_20">
    <text style="font-family:DejaVu Sans;font-size:10px;font-style:normal;font-weight:normal;text-anchor:start;" transform="rotate(-0, 292.30748, 210.269952)" x="292.30748" y="210.269952">translocation</text>
   </g>
   <g id="text_21">
    <text style="font-family:DejaVu Sans;font-size:10px;font-style:normal;font-weight:normal;text-anchor:middle;" transform="rotate(-0, 260.076807, 181.074235)" x="260.076807" y="181.074235">2.9%</text>
   </g>
   <g id="text_22">
    <text style="font-family:DejaVu Sans;font-size:10px;font-style:normal;font-weight:normal;text-anchor:start;" transform="rotate(-0, 301.716495, 198.026858)" x="301.716495" y="198.026858">charging</text>
   </g>
   <g id="text_23">
    <text style="font-family:DejaVu Sans;font-size:10px;font-style:normal;font-weight:normal;text-anchor:middle;" transform="rotate(-0, 265.208997, 174.396184)" x="265.208997" y="174.396184">2.3%</text>
   </g>
   <g id="text_24">
    <text style="font-family:DejaVu Sans;font-size:10px;font-style:normal;font-weight:normal;text-anchor:start;" transform="rotate(-0, 308.330213, 185.769206)" x="308.330213" y="185.769206">S_Transport</text>
   </g>
   <g id="text_25">
    <text style="font-family:DejaVu Sans;font-size:10px;font-style:normal;font-weight:normal;text-anchor:middle;" transform="rotate(-0, 268.81648, 167.834198)" x="268.81648" y="167.834198">2.3%</text>
   </g>
   <g id="text_26">
    <text style="font-family:DejaVu Sans;font-size:10px;font-style:normal;font-weight:normal;text-anchor:start;" transform="rotate(-0, 313.154035, 173.143523)" x="313.154035" y="173.143523">translation</text>
   </g>
   <g id="text_27">
    <text style="font-family:DejaVu Sans;font-size:10px;font-style:normal;font-weight:normal;text-anchor:middle;" transform="rotate(-0, 271.447655, 160.823455)" x="271.447655" y="160.823455">2.3%</text>
   </g>
   <g id="text_28">
    <text style="font-family:DejaVu Sans;font-size:10px;font-style:normal;font-weight:normal;text-anchor:start;" transform="rotate(-0, 315.214257, 164.670579)" x="315.214257" y="164.670579">S_Other_function</text>
   </g>
   <g id="text_29">
    <text style="font-family:DejaVu Sans;font-size:10px;font-style:normal;font-weight:normal;text-anchor:middle;" transform="rotate(-0, 272.571413, 156.277702)" x="272.571413" y="156.277702">0.6%</text>
   </g>
   <g id="text_30">
    <text style="font-family:DejaVu Sans;font-size:10px;font-style:normal;font-weight:normal;text-anchor:start;" transform="rotate(-0, 315.827577, 161.429968)" x="315.827577" y="161.429968">BSU28370-MONOMER</text>
   </g>
   <g id="text_31">
    <text style="font-family:DejaVu Sans;font-size:10px;font-style:normal;font-weight:normal;text-anchor:middle;" transform="rotate(-0, 272.905951, 154.434244)" x="272.905951" y="154.434244">0.6%</text>
   </g>
   <g id="text_32">
    <text style="font-family:DejaVu Sans;font-size:10px;font-style:normal;font-weight:normal;text-anchor:start;" transform="rotate(-0, 316.319185, 158.030458)" x="316.319185" y="158.030458">BSU15140-MONOMER</text>
   </g>
   <g id="text_33">
    <text style="font-family:DejaVu Sans;font-size:10px;font-style:normal;font-weight:normal;text-anchor:middle;" transform="rotate(-0, 273.174101, 152.579966)" x="273.174101" y="152.579966">0.6%</text>
   </g>
   <g id="text_34">
    <text style="font-family:DejaVu Sans;font-size:10px;font-style:normal;font-weight:normal;text-anchor:start;" transform="rotate(-0, 316.688446, 154.615492)" x="316.688446" y="154.615492">ACACt2</text>
   </g>
   <g id="text_35">
    <text style="font-family:DejaVu Sans;font-size:10px;font-style:normal;font-weight:normal;text-anchor:middle;" transform="rotate(-0, 273.375516, 150.717257)" x="273.375516" y="150.717257">0.6%</text>
   </g>
   <g id="text_36">
    <text style="font-family:DejaVu Sans;font-size:10px;font-style:normal;font-weight:normal;text-anchor:start;" transform="rotate(-0, 316.934885, 151.189472)" x="316.934885" y="151.189472">APSR</text>
   </g>
   <g id="text_37">
    <text style="font-family:DejaVu Sans;font-size:10px;font-style:normal;font-weight:normal;text-anchor:middle;" transform="rotate(-0, 273.509937, 148.848519)" x="273.509937" y="148.848519">0.6%</text>
   </g>
   <g id="text_38">
    <text style="font-family:DejaVu Sans;font-size:10px;font-style:normal;font-weight:normal;text-anchor:start;" transform="rotate(-0, 317.058184, 147.61775)" x="317.058184" y="147.61775">S_Phosphate_and_sulfur</text>
   </g>
   <g id="text_39">
    <text style="font-family:DejaVu Sans;font-size:10px;font-style:normal;font-weight:normal;text-anchor:middle;" transform="rotate(-0, 273.577191, 146.976159)" x="273.577191" y="146.976159">0.6%</text>
   </g>
  </g>
 </g>
</svg>
