<?xml version="1.0" encoding="utf-8" standalone="no"?>
<!DOCTYPE svg PUBLIC "-//W3C//DTD SVG 1.1//EN"
  "http://www.w3.org/Graphics/SVG/1.1/DTD/svg11.dtd">
<!-- Created with matplotlib (https://matplotlib.org/) -->
<svg height="288pt" version="1.1" viewBox="0 0 432 288" width="432pt" xmlns="http://www.w3.org/2000/svg" xmlns:xlink="http://www.w3.org/1999/xlink">
 <defs>
  <style type="text/css">
*{stroke-linecap:butt;stroke-linejoin:round;}
  </style>
 </defs>
 <g id="figure_1">
  <g id="patch_1">
   <path d="M 0 288 
L 432 288 
L 432 0 
L 0 0 
z
" style="fill:#ffffff;"/>
  </g>
  <g id="axes_1">
   <g id="patch_2">
    <path d="M 308.376 143.28 
C 308.376 128.085793 304.394489 113.153545 296.829603 99.976426 
C 289.264718 86.799308 278.377306 75.831686 265.25607 68.170282 
C 252.134834 60.508879 237.232213 56.417871 222.038415 56.306343 
C 206.844617 56.194816 191.883547 60.066615 178.651256 67.534575 
L 221.4 143.28 
L 308.376 143.28 
z
" style="fill:#1f77b4;"/>
   </g>
   <g id="patch_3">
    <path d="M 178.651256 67.534575 
C 161.186677 77.391128 147.657249 92.990892 140.369864 111.673963 
C 133.082478 130.357035 132.476284 150.997544 138.654643 170.076092 
L 221.4 143.28 
L 178.651256 67.534575 
z
" style="fill:#ff7f0e;"/>
   </g>
   <g id="patch_4">
    <path d="M 138.654643 170.076092 
C 142.648468 182.408876 149.34944 193.694181 158.26591 203.104003 
C 167.182381 212.513825 178.090815 219.812263 190.190861 224.46383 
L 221.4 143.28 
L 138.654643 170.076092 
z
" style="fill:#2ca02c;"/>
   </g>
   <g id="patch_5">
    <path d="M 190.190861 224.46383 
C 196.421588 226.85908 202.907401 228.529091 209.520107 229.440854 
C 216.132813 230.352616 222.828555 230.500084 229.47499 229.880341 
L 221.4 143.28 
L 190.190861 224.46383 
z
" style="fill:#d62728;"/>
   </g>
   <g id="patch_6">
    <path d="M 229.47499 229.880341 
C 235.554684 229.313444 241.557813 228.107892 247.385003 226.28364 
C 253.212194 224.459387 258.831113 222.026558 264.148748 219.025423 
L 221.4 143.28 
L 229.47499 229.880341 
z
" style="fill:#9467bd;"/>
   </g>
   <g id="patch_7">
    <path d="M 264.148748 219.025423 
C 268.104432 216.792938 271.879164 214.25401 275.438291 211.431946 
C 278.997418 208.609882 282.330016 205.513344 285.405492 202.170759 
L 221.4 143.28 
L 264.148748 219.025423 
z
" style="fill:#8c564b;"/>
   </g>
   <g id="patch_8">
    <path d="M 285.405492 202.170759 
C 288.384767 198.932731 291.114033 195.473285 293.569777 191.822227 
C 296.025521 188.171169 298.200668 184.339016 300.076478 180.358785 
L 221.4 143.28 
L 285.405492 202.170759 
z
" style="fill:#e377c2;"/>
   </g>
   <g id="patch_9">
    <path d="M 300.076478 180.358785 
C 300.983796 178.433574 301.820142 176.475707 302.583829 174.489141 
C 303.347516 172.502574 304.038029 170.488646 304.653973 168.451423 
L 221.4 143.28 
L 300.076478 180.358785 
z
" style="fill:#7f7f7f;"/>
   </g>
   <g id="patch_10">
    <path d="M 304.653973 168.451423 
C 305.146709 166.82171 305.591485 165.177881 305.987727 163.52206 
C 306.383969 161.866239 306.731507 160.19914 307.02989 158.522919 
L 221.4 143.28 
L 304.653973 168.451423 
z
" style="fill:#bcbd22;"/>
   </g>
   <g id="patch_11">
    <path d="M 307.02989 158.522919 
C 307.278537 157.126098 307.492969 155.723402 307.672993 154.316091 
C 307.853017 152.90878 307.998579 151.497275 308.109549 150.082842 
L 221.4 143.28 
L 307.02989 158.522919 
z
" style="fill:#17becf;"/>
   </g>
   <g id="patch_12">
    <path d="M 308.109549 150.082842 
C 308.165032 149.375653 308.211861 148.667811 308.250026 147.959475 
C 308.288191 147.25114 308.31769 146.542364 308.338514 145.833307 
L 221.4 143.28 
L 308.109549 150.082842 
z
" style="fill:#1f77b4;"/>
   </g>
   <g id="patch_13">
    <path d="M 308.338514 145.833307 
C 308.346844 145.549687 308.353785 145.266028 308.359339 144.98234 
C 308.364892 144.698652 308.369058 144.414939 308.371835 144.13121 
L 221.4 143.28 
L 308.338514 145.833307 
z
" style="fill:#ff7f0e;"/>
   </g>
   <g id="patch_14">
    <path d="M 308.371835 144.13121 
C 308.373223 143.989346 308.374264 143.847479 308.374959 143.70561 
C 308.375653 143.563741 308.376 143.42187 308.376 143.279999 
L 221.4 143.28 
L 308.371835 144.13121 
z
" style="fill:#2ca02c;"/>
   </g>
   <g id="matplotlib.axis_1"/>
   <g id="matplotlib.axis_2">
    <g id="text_1">
     <text style="font-family:DejaVu Sans;font-size:10px;font-style:normal;font-weight:normal;text-anchor:middle;" transform="rotate(-90, 106.600313, 143.28)" x="106.600313" y="143.28">annotation</text>
    </g>
   </g>
   <g id="text_2">
    <text style="font-family:DejaVu Sans;font-size:10px;font-style:normal;font-weight:normal;text-anchor:start;" transform="rotate(-0, 269.641677, 63.191342)" x="269.641677" y="63.191342">S_Transport</text>
   </g>
   <g id="text_3">
    <text style="font-family:DejaVu Sans;font-size:10px;font-style:normal;font-weight:normal;text-anchor:middle;" transform="rotate(-0, 247.713642, 100.973544)" x="247.713642" y="100.973544">33.2%</text>
   </g>
   <g id="text_4">
    <text style="font-family:DejaVu Sans;font-size:10px;font-style:normal;font-weight:normal;text-anchor:end;" transform="rotate(-0, 132.26685, 111.133672)" x="132.26685" y="111.133672">S_Carbohydrates_and_related_molecules</text>
   </g>
   <g id="text_5">
    <text style="font-family:DejaVu Sans;font-size:10px;font-style:normal;font-weight:normal;text-anchor:middle;" transform="rotate(-0, 172.781918, 127.075753)" x="172.781918" y="127.075753">21.8%</text>
   </g>
   <g id="text_6">
    <text style="font-family:DejaVu Sans;font-size:10px;font-style:normal;font-weight:normal;text-anchor:end;" transform="rotate(-0, 151.952501, 211.706715)" x="151.952501" y="211.706715">S_Amino_acids_and_related_molecules</text>
   </g>
   <g id="text_7">
    <text style="font-family:DejaVu Sans;font-size:10px;font-style:normal;font-weight:normal;text-anchor:middle;" transform="rotate(-0, 183.519546, 181.933777)" x="183.519546" y="181.933777">14.2%</text>
   </g>
   <g id="text_8">
    <text style="font-family:DejaVu Sans;font-size:10px;font-style:normal;font-weight:normal;text-anchor:end;" transform="rotate(-0, 208.332118, 240.677252)" x="208.332118" y="240.677252">S_Coenzymes_and_prosthetic_groups</text>
   </g>
   <g id="text_9">
    <text style="font-family:DejaVu Sans;font-size:10px;font-style:normal;font-weight:normal;text-anchor:middle;" transform="rotate(-0, 214.272064, 197.735887)" x="214.272064" y="197.735887">7.3%</text>
   </g>
   <g id="text_10">
    <text style="font-family:DejaVu Sans;font-size:10px;font-style:normal;font-weight:normal;text-anchor:start;" transform="rotate(-0, 249.983504, 237.204316)" x="249.983504" y="237.204316">S_Nucleotides_and_nucleic_acids</text>
   </g>
   <g id="text_11">
    <text style="font-family:DejaVu Sans;font-size:10px;font-style:normal;font-weight:normal;text-anchor:middle;" transform="rotate(-0, 236.991002, 195.841559)" x="236.991002" y="195.841559">6.7%</text>
   </g>
   <g id="text_12">
    <text style="font-family:DejaVu Sans;font-size:10px;font-style:normal;font-weight:normal;text-anchor:start;" transform="rotate(-0, 280.84212, 220.867453)" x="280.84212" y="220.867453">S_Membrane_bioenergetics</text>
   </g>
   <g id="text_13">
    <text style="font-family:DejaVu Sans;font-size:10px;font-style:normal;font-weight:normal;text-anchor:middle;" transform="rotate(-0, 253.822974, 186.930543)" x="253.822974" y="186.930543">5.0%</text>
   </g>
   <g id="text_14">
    <text style="font-family:DejaVu Sans;font-size:10px;font-style:normal;font-weight:normal;text-anchor:start;" transform="rotate(-0, 300.786755, 199.296763)" x="300.786755" y="199.296763">S_Lipids</text>
   </g>
   <g id="text_15">
    <text style="font-family:DejaVu Sans;font-size:10px;font-style:normal;font-weight:normal;text-anchor:middle;" transform="rotate(-0, 264.701866, 175.164711)" x="264.701866" y="175.164711">4.8%</text>
   </g>
   <g id="text_16">
    <text style="font-family:DejaVu Sans;font-size:10px;font-style:normal;font-weight:normal;text-anchor:start;" transform="rotate(-0, 310.702212, 180.230367)" x="310.702212" y="180.230367">S_Cell_wall</text>
   </g>
   <g id="text_17">
    <text style="font-family:DejaVu Sans;font-size:10px;font-style:normal;font-weight:normal;text-anchor:middle;" transform="rotate(-0, 270.110297, 164.764859)" x="270.110297" y="164.764859">2.3%</text>
   </g>
   <g id="text_18">
    <text style="font-family:DejaVu Sans;font-size:10px;font-style:normal;font-weight:normal;text-anchor:start;" transform="rotate(-0, 314.4465, 168.166578)" x="314.4465" y="168.166578">S_Other_function</text>
   </g>
   <g id="text_19">
    <text style="font-family:DejaVu Sans;font-size:10px;font-style:normal;font-weight:normal;text-anchor:middle;" transform="rotate(-0, 272.152636, 158.184611)" x="272.152636" y="158.184611">1.9%</text>
   </g>
   <g id="text_20">
    <text style="font-family:DejaVu Sans;font-size:10px;font-style:normal;font-weight:normal;text-anchor:start;" transform="rotate(-0, 316.300292, 158.179075)" x="316.300292" y="158.179075">transcription</text>
   </g>
   <g id="text_21">
    <text style="font-family:DejaVu Sans;font-size:10px;font-style:normal;font-weight:normal;text-anchor:middle;" transform="rotate(-0, 273.163796, 152.66103)" x="273.163796" y="152.66103">1.6%</text>
   </g>
   <g id="text_22">
    <text style="font-family:DejaVu Sans;font-size:10px;font-style:normal;font-weight:normal;text-anchor:start;" transform="rotate(-0, 316.935029, 151.047735)" x="316.935029" y="151.047735">S_Phosphate_and_sulfur</text>
   </g>
   <g id="text_23">
    <text style="font-family:DejaVu Sans;font-size:10px;font-style:normal;font-weight:normal;text-anchor:middle;" transform="rotate(-0, 273.510016, 148.84706)" x="273.510016" y="148.84706">0.8%</text>
   </g>
   <g id="text_24">
    <text style="font-family:DejaVu Sans;font-size:10px;font-style:normal;font-weight:normal;text-anchor:start;" transform="rotate(-0, 317.055273, 147.911949)" x="317.055273" y="147.911949">formation</text>
   </g>
   <g id="text_25">
    <text style="font-family:DejaVu Sans;font-size:10px;font-style:normal;font-weight:normal;text-anchor:middle;" transform="rotate(-0, 273.575603, 147.060779)" x="273.575603" y="147.060779">0.3%</text>
   </g>
   <g id="text_26">
    <text style="font-family:DejaVu Sans;font-size:10px;font-style:normal;font-weight:normal;text-anchor:start;" transform="rotate(-0, 317.072455, 146.507546)" x="317.072455" y="146.507546">ACPS1</text>
   </g>
   <g id="text_27">
    <text style="font-family:DejaVu Sans;font-size:10px;font-style:normal;font-weight:normal;text-anchor:middle;" transform="rotate(-0, 273.584975, 146.294741)" x="273.584975" y="146.294741">0.2%</text>
   </g>
  </g>
 </g>
</svg>
